<svg width="199" height="140" viewBox="0 0 199 140" fill="none" xmlns="http://www.w3.org/2000/svg">
<path d="M81.1093 54.9115C81.6382 54.8174 116.602 31.6048 129.475 37.8833C142.349 44.1518 116.193 64.012 116.193 64.012L81.1193 54.9141L81.1093 54.9115Z" fill="#A83237"/>
<path d="M156.015 71.927C155.677 71.9113 147.446 52.4293 153.587 50.7095C159.719 48.987 170.058 66.6763 170.058 66.6763C170.058 66.6763 162.314 72.1786 156.018 71.917L156.015 71.927Z" fill="#A83237"/>
<path d="M193.747 45.3514C192.013 44.5437 189.815 44.4264 187.994 44.6243C180.142 45.4891 175.861 51.587 171.201 57.1764C168.851 59.987 165.931 62.6449 162.083 62.7283C160.435 62.7584 158.806 62.4397 157.186 62.1236C148.714 60.4644 140.251 58.8078 131.857 56.8585C124.167 55.0768 116.567 52.9225 109.073 50.4108C106.379 49.5066 103.695 48.5625 101.035 47.571C88.0234 42.7341 75.2798 34.936 61.2743 33.4875C50.3546 32.3621 39.4919 35.464 28.9486 38.5336C22.3091 40.4735 14.9186 43.016 11.9757 49.2796C7.18415 59.4421 15.66 68.208 23.4851 73.5628C34.0015 80.7534 47.5802 85.0349 59.815 88.2918C75.2524 92.3961 91.0021 95.255 106.844 97.2492C114.517 98.212 122.209 98.9441 129.912 99.5935C137.55 100.247 145.212 101.014 152.88 101.075C159.393 101.127 166.547 100.664 172.263 97.2122C182.246 91.1951 186.84 79.9294 190.697 69.4951C192.265 65.2425 194.17 61.1336 195.533 56.8047C196.347 54.247 197.239 51.2385 196.531 48.5623C196.121 46.9733 195.063 45.9611 193.737 45.3487L193.747 45.3514Z" fill="#FFD5D8"/>
<path d="M147.363 90.4655C120.823 88.3592 89.0246 83.2364 63.2749 76.3796C49.6375 72.7576 34.4876 67.9802 22.7699 59.9532C18.7854 57.2244 14.6485 53.7044 11.8373 49.5966C7.37202 59.6214 15.742 68.2625 23.4878 73.5532C34.0015 80.7538 47.5802 85.0353 59.8177 88.2821C82.9075 94.4262 106.479 97.7306 130.291 99.6203C142.003 100.551 161.727 103.574 172.276 97.2052C175.624 95.1873 178.413 92.4619 180.793 89.3379C170.244 92.5882 157.906 91.2757 147.378 90.4482L147.363 90.4655Z" fill="#9E1D22"/>
<path d="M72.513 81.256C66.3337 80.3184 66.009 103.649 73.1246 104.613C74.48 104.794 131.078 118.158 131.845 104.774C132.603 91.3874 72.5257 81.2487 72.5257 81.2487L72.513 81.256Z" fill="#144361"/>
<path d="M158.379 80.525C158.379 80.525 169.97 102.065 177.013 98.379C184.046 94.6904 174.714 75.9206 174.714 75.9206C174.714 75.9206 165.508 73.4002 158.379 80.525Z" fill="#A83237"/>
<path d="M80.6194 71.7677C80.6194 71.7677 96.5286 124.109 112.803 122.768C129.076 121.438 119.667 81.9946 119.667 81.9946L80.6221 71.7577L80.6194 71.7677Z" fill="#A83237"/>
<path d="M68.425 55.5525C69.223 54.0944 70.0446 52.4283 69.5617 50.8306C69.1027 49.3036 67.5967 48.3642 66.2013 47.5723C60.9554 44.5912 55.7095 41.6101 50.4636 38.629C48.2698 37.3767 46.0634 36.1317 43.8696 34.8794C43.7776 34.8226 43.673 34.7731 43.571 34.7136C38.6498 35.7207 33.7594 37.1326 28.9444 38.5432C25.2474 39.6211 21.3161 40.8934 18.0481 42.89C18.1125 43.0895 18.187 43.2917 18.2741 43.4865C19.2855 45.9117 21.3139 47.7413 23.3659 49.3629C32.0574 56.2039 42.4888 60.8316 53.3936 62.6925C56.9092 63.2916 60.8101 63.533 63.7839 61.554C65.9095 60.1408 67.2093 57.8097 68.4323 55.5652L68.425 55.5525Z" fill="#144361"/>
<path d="M95.3123 65.0365C94.7638 68.6835 92.6002 70.1187 88.9458 69.5575C85.2988 69.009 82.2119 66.2098 82.7604 62.5628C83.3089 58.9158 86.5469 57.5112 90.2039 58.0624C93.8509 58.611 95.8635 61.3795 95.315 65.0265L95.3123 65.0365Z" fill="#144361"/>
<path d="M118.808 71.2689C118.26 74.916 116.096 76.3511 112.442 75.7899C108.795 75.2414 105.708 72.4423 106.257 68.7952C106.805 65.1482 110.043 63.7437 113.7 64.2949C117.347 64.8434 119.36 67.6119 118.811 71.2589L118.808 71.2689Z" fill="#144361"/>
<path d="M141.008 75.2885C140.459 78.9355 138.295 80.3706 134.641 79.8094C130.994 79.2609 127.907 76.4618 128.456 72.8147C129.004 69.1677 132.242 67.7632 135.899 68.3144C139.556 68.8656 141.559 71.6314 141.01 75.2785L141.008 75.2885Z" fill="#144361"/>
<path d="M178.728 61.1226C180.537 60.4926 182.747 60.6453 184.113 61.9866C185.012 62.8706 185.427 64.1608 185.424 65.4138C185.412 67.1363 184.623 68.8432 183.328 69.9966C182.033 71.15 180.27 71.7281 178.544 71.6087C176.786 71.4912 175.053 70.5982 174.091 69.108C171.708 65.4041 175.445 62.2577 178.718 61.1199L178.728 61.1226Z" fill="#9E1D22"/>
</svg>
