<svg width="32" height="12" viewBox="0 0 32 12" fill="none" xmlns="http://www.w3.org/2000/svg">
<path d="M0.09803 4.82345C1.37215 4.25077 2.79328 4.75981 4.1164 4.9507C5.97857 5.14159 7.69373 4.75982 9.50689 4.3144C12.2021 3.61447 14.3094 4.75982 16.0735 6.85963C16.0735 6.73237 16.1715 6.66873 16.2205 6.6051C16.7106 5.71427 17.1516 4.88707 17.7887 4.12351C19.0628 2.66 20.7289 2.0237 22.3461 1.57828C25.1884 0.814714 29.3538 2.85089 31.804 0.432928C31.853 0.432928 31.902 0.369295 32 0.305664C30.4809 4.25077 26.3154 3.6781 23.4732 4.88708C23.0321 5.07797 22.5911 5.33249 22.1501 5.58701C21.709 5.7779 21.268 6.03243 20.8759 6.41422C20.3859 6.796 19.9939 7.36867 19.6018 7.94135C18.8177 8.89581 18.0827 10.0412 17.4456 11.2501C16.7596 11.8228 15.6815 11.5047 15.1424 10.6775C14.9954 10.3593 14.8484 10.1048 14.6524 9.85027C13.8193 8.51402 12.9862 7.30504 11.5161 7.24141C11.1731 7.24141 10.83 7.24141 10.487 7.30504C9.89895 7.17778 9.35988 7.17778 8.82083 7.17778C5.73355 7.05052 2.40122 7.43231 0 4.88708C0 4.88708 2.09392e-05 4.88708 0.09803 4.88708V4.82345Z" fill="#341605"/>
</svg>
