<svg width="74" height="32" viewBox="0 0 74 32" fill="none" xmlns="http://www.w3.org/2000/svg">
<g opacity="0.3">
<path d="M68.5584 17.962C67.212 17.9977 66.1263 18.2548 65.4157 18.4727C65.4335 18.1441 65.4907 16.1942 63.7193 14.6657C61.9836 13.1693 59.7694 13.1764 59.1659 13.2014C58.2338 13.2372 57.4088 13.5586 55.7517 14.1764C54.4947 14.6443 53.4804 15.1157 52.7769 15.4656C52.1269 14.655 51.1162 13.5443 49.6913 12.455C48.5556 11.5872 47.6914 10.9301 46.3593 10.5123C44.1951 9.83015 41.9523 10.1694 40.6666 10.8801C39.456 11.5479 38.7488 12.5979 38.6738 12.7122C38.4131 13.0979 38.2489 13.4014 38.1381 13.6336C37.8774 14.1764 37.8489 14.2478 37.8203 14.2621C37.6346 14.2907 37.3203 12.9907 37.2203 12.605C36.7525 10.7623 36.0204 9.16946 35.849 8.80876C35.0776 7.19811 33.9705 6.22315 33.2741 5.61246C29.0671 1.9126 22.653 2.97328 22.1959 3.05542C20.1781 3.42683 15.2248 4.34108 13.2606 8.66234C11.8249 11.8158 12.8106 14.9585 13.1677 15.9549C13.1606 15.9549 12.3499 16.0513 12.3427 16.0513C11.9285 16.0978 11.5178 16.1478 11.5178 16.1478C10.4678 16.1692 10.275 15.9906 9.21785 15.9549C8.41788 15.9299 7.5322 15.8978 6.70366 16.3585C6.51081 16.4656 5.61085 16.9656 5.40371 17.8334C5.20015 18.6905 5.83941 19.2155 5.47513 19.5905C5.18943 19.8833 4.71445 19.6512 3.92162 19.8333C3.15379 20.0083 2.36455 20.5226 1.94313 21.2261C1.4503 22.0475 1.586 22.9118 1.77528 24.1082C1.85385 24.6189 1.98956 25.4295 2.46811 26.3474C3.1538 27.6545 4.11805 28.3687 4.62874 28.7401C6.74651 30.2758 10.2607 31.1972 13.1927 29.9758C14.4176 29.4651 14.0141 29.2151 16.9568 27.4723C16.9568 27.4723 19.6103 25.9402 21.5281 26.1331C22.678 26.2474 22.5673 26.7973 23.678 26.8795C25.7422 27.0331 26.6886 25.2867 28.1457 25.6581C29.0849 25.8938 28.8171 26.6652 30.0706 27.3295C31.4563 28.0652 33.1098 27.8259 34.2062 27.6652C35.749 27.4402 36.8096 26.9009 37.0382 26.7831C38.2453 26.1509 38.3417 25.6938 39.0274 25.4153C40.6488 24.7617 42.6665 26.5188 44.1165 26.9009C51.0341 28.7294 60.8337 27.9187 63.6586 25.1438C63.9979 24.8081 64.0836 24.4546 64.5836 24.1439C66.7799 22.7761 69.9083 25.3546 72.2404 24.1475C73.4154 23.5403 73.9189 22.2154 73.9296 21.2297C73.9296 21.0047 73.9689 19.8155 72.9725 18.9441C71.7654 17.887 69.9512 17.9334 68.562 17.9691L68.5584 17.962Z" fill="#F2F7F8"/>
<path d="M26.3431 27.8331C22.4147 29.2366 18.6434 31.0116 12.8651 30.9794C6.2082 30.9401 3.62615 28.5152 2.7619 27.5546C2.22978 26.9653 0.669132 25.2296 0.897694 22.9762C0.94055 22.5405 1.2334 20.3013 3.02619 19.5691C4.06186 19.1442 5.06539 19.4406 5.44394 19.5763C5.33681 19.2477 4.94754 17.9264 5.63322 16.6943C6.50105 15.1372 8.53669 14.7122 10.0009 15.0979C10.8152 15.3122 11.3866 15.7586 11.7008 16.055C11.3866 15.5014 10.9937 14.6693 10.758 13.5979C10.2366 11.2302 10.8544 9.30526 11.0973 8.57315C12.2401 5.15542 15.0329 3.35907 16.0721 2.68766C22.0219 -1.14433 28.7288 1.11273 29.118 1.24843C30.518 1.74484 34.9071 3.30192 36.8392 7.74461C37.7998 9.95166 37.7748 12.0087 37.6677 13.1801C37.7856 12.6087 38.0605 11.6802 38.7855 10.8159C40.1319 9.20884 42.0711 8.97313 42.9603 8.86242C45.5602 8.54458 47.5816 9.61239 48.553 10.1409C51.21 11.5909 52.5814 13.7729 53.1564 14.8515C53.4671 14.5229 55.7527 12.1873 59.174 12.4587C61.2811 12.6266 63.7917 13.7765 64.8916 16.0764C65.3273 16.9871 65.4309 17.8442 65.4488 18.4263C65.8345 18.0549 67.0023 17.0407 68.7451 16.9335C70.6557 16.8157 72.6271 17.8299 73.4806 19.4763C73.6306 19.762 73.9449 20.387 73.9199 21.2262C73.8734 22.9476 72.4378 24.319 71.1664 24.8475C69.3022 25.6225 67.3237 24.7797 66.8059 24.5797C60.8597 22.2476 41.0247 22.5833 26.336 27.8367L26.3431 27.8331ZM55.417 27.7117C55.417 27.7117 61.1204 27.5831 63.6274 25.1154C63.7524 24.9904 63.8453 24.8618 63.9345 24.7368C64.0845 24.5261 64.2381 24.3082 64.5559 24.1118C65.688 23.4047 67.0844 23.7404 68.4379 24.0654C69.7379 24.3761 71.0843 24.7011 72.2164 24.1154C73.3592 23.5261 73.877 22.2405 73.8877 21.2262C73.8127 20.9012 73.6592 20.4441 73.327 19.9834C71.9342 18.0442 68.9986 18.3228 68.6951 18.3549C66.9666 18.5442 65.7773 19.4799 65.2595 19.9477C65.0881 19.3049 64.6167 17.8871 63.3203 16.63C62.8917 16.2157 61.6561 15.0086 59.7776 14.7729C57.6312 14.5015 55.8741 15.5907 54.1099 16.7014C53.5064 17.08 53.0314 17.4407 52.6993 17.7085C52.5243 16.9443 51.8029 14.2408 49.303 12.6944C45.8531 10.5552 41.1318 13.1623 39.3712 14.0979C38.3212 14.6551 37.5213 15.2265 37.0141 15.6229C37.0284 15.0729 37.0427 12.373 34.9749 10.2874C34.4642 9.7731 33.2357 8.53029 31.5215 8.4053C27.9609 8.14102 27.011 13.0194 22.5754 13.5837C20.1577 13.8908 19.0327 12.6194 17.0828 13.5837C15.6043 14.3158 14.8007 15.7622 14.3472 16.9264C13.7722 16.7228 11.8901 16.1407 10.0295 17.0193C9.49379 17.2728 8.52954 17.7264 8.10099 18.7942C7.80814 19.5227 7.89742 20.2013 7.96885 20.5477C7.59029 20.7084 5.67251 21.5726 4.85826 23.7297C4.75112 24.0118 4.16185 25.5761 4.70469 27.0474C5.68322 29.6938 9.71164 30.3509 10.8723 30.5401C16.2792 31.4258 18.4899 28.7259 30.093 27.3046C30.093 27.3046 30.3537 27.2653 30.7037 27.2331C32.2715 27.0903 35.0535 27.1974 55.4206 27.7188L55.417 27.7117Z" fill="white"/>
<path d="M69.2885 23.6834C68.7635 23.7084 66.8243 23.7441 65.1851 22.5085C64.603 22.0692 64.1816 21.5621 63.903 21.2299C63.0138 20.1621 63.053 19.7514 62.4102 19.0086C61.4281 17.8765 60.1639 17.4801 59.846 17.3836C58.4282 16.9587 57.2247 17.2587 56.5033 17.4479C54.5962 17.9479 53.357 19.0836 52.7749 19.7086C51.9178 18.9407 49.1607 16.673 44.9466 16.3694C41.4896 16.123 38.8861 17.3301 37.8147 17.9051C37.2219 17.3836 36.3005 16.7444 35.1327 16.6801C33.3935 16.5837 32.2399 17.8979 30.9257 18.7693C29.4936 19.7228 27.1116 20.6728 23.076 20.2728C22.7403 20.7228 20.6797 23.3906 16.9334 23.8013C12.9443 24.2405 10.2444 21.7728 9.86224 21.4121C9.36583 21.4978 8.58014 21.6978 7.7516 22.2049C7.25876 22.5085 6.45165 22.9941 6.06595 23.8227C5.34455 25.3726 6.33023 27.0904 6.57308 27.5154C8.11231 30.1974 11.7122 30.7903 12.8621 30.9796C18.0155 31.8259 22.7617 29.7225 27.1509 29.5403C27.833 29.5118 28.7401 29.476 29.9365 29.6296C31.0936 29.7796 31.5043 29.9796 32.6649 30.1367C32.6649 30.1367 33.8756 30.301 35.522 30.2474C38.654 30.1439 44.2716 28.5582 44.9466 28.3725C53.5891 25.9976 63.1316 30.4117 64.9708 27.7261C65.0851 27.5583 65.3315 27.0833 65.8958 26.7261C67.0672 25.9833 67.9207 26.5047 69.6885 26.1226C70.1813 26.0155 71.917 25.619 73.0455 24.1905C73.2455 23.937 73.7919 23.2084 73.9526 22.1049C74.049 21.4621 73.9776 20.9228 73.9062 20.5764C73.799 20.9799 73.5848 21.5763 73.1134 22.1406C71.9384 23.5513 70.1063 23.6441 69.2921 23.6834H69.2885Z" fill="#CEEAF0"/>
<path d="M59.817 28.6475C60.0313 28.7975 60.342 28.4261 60.9563 28.2903C61.642 28.1368 62.2991 28.2225 62.6169 28.2618C62.8955 28.2975 63.574 28.3832 64.1026 28.6939C64.874 29.1439 65.0561 29.901 64.624 30.4545C64.0383 31.2081 62.4634 31.5116 61.3563 31.5331C59.3456 31.5759 58.9564 30.6974 56.9136 30.6688C55.2422 30.6474 55.1672 31.1831 52.7959 31.4224C52.0388 31.5009 49.1925 31.7866 47.4782 30.8581C47.1997 30.7081 46.139 30.0831 46.4604 29.4582C46.6818 29.026 47.5104 28.6939 48.2604 28.6225C48.8996 28.5618 49.3817 28.7796 49.4817 28.5939C49.5567 28.4511 49.3032 28.2939 49.1567 27.8725C48.9639 27.3225 49.1246 26.8011 49.1817 26.6118C49.3996 25.8976 49.9139 25.5083 50.0746 25.3905C51.0102 24.7012 52.3173 24.7762 53.1959 25.2119C54.178 25.6976 54.7244 26.5904 54.7244 26.5904C54.9994 27.0404 55.0458 27.3618 55.3601 27.4689C55.7493 27.6046 55.8708 27.1868 56.7493 27.0332C57.51 26.9011 58.2064 27.0797 58.3207 27.1118C58.3421 27.119 58.36 27.1225 58.3742 27.1261C58.5171 27.1654 59.3778 27.4154 59.6563 28.0475C59.8028 28.3796 59.6706 28.5475 59.817 28.651V28.6475Z" fill="#CEEAF0"/>
<path d="M37.0293 29.8153C36.715 29.726 36.2579 29.5867 35.6901 29.3831C35.4115 29.2831 35.1901 29.1974 35.0008 29.1224C34.5258 28.9367 34.2401 28.826 33.6973 28.7546C33.0223 28.6653 32.6295 28.726 32.0831 28.8117C31.7295 28.8689 31.2867 28.9367 30.6581 28.976C28.1082 29.1439 25.4976 29.3224 24.5726 27.9939C24.0227 27.2047 24.1584 26.0047 24.6119 25.2119C25.3869 23.8619 27.3547 23.2298 29.3332 23.9476C29.4582 23.3869 29.7117 22.637 30.2653 21.9191C31.5438 20.2692 33.9866 19.3514 35.9793 20.0906C36.7257 20.3656 37.2329 20.812 37.5079 21.087C38.0007 20.3442 39.1221 18.8871 41.0934 18.03C43.6648 16.9158 46.0397 17.5479 47.3468 17.8943C50.0502 18.6121 51.843 20.1335 52.7323 21.0192C52.8216 20.937 54.4858 19.4621 56.6535 20.0871C58.0821 20.5013 59.182 21.6656 59.5177 23.1262C60.2284 22.8405 61.1569 22.5977 62.239 22.612C62.9247 22.6191 64.414 22.6584 65.7639 23.6762C66.3424 24.1119 67.1853 24.7476 67.2174 25.6511C67.2674 27.0297 65.4139 28.1475 64.389 28.4653C63.2997 28.801 62.0926 28.851 61.7498 28.8582C61.0819 28.8724 60.707 28.8153 60.3784 28.7617C60.0391 28.7082 59.7427 28.6617 59.1999 28.7046C58.5535 28.751 58.1678 28.876 57.7964 28.9974C57.3785 29.1296 56.95 29.2689 56.175 29.2974C55.4607 29.3224 54.9036 29.2403 54.4608 29.176C53.5358 29.0403 53.0537 28.8582 52.6644 28.7153C52.2894 28.576 52.0144 28.4725 51.518 28.4725C50.9145 28.4689 50.5645 28.6189 50.2002 28.776C49.8145 28.9403 49.4145 29.1117 48.7039 29.0974C48.2753 29.0867 48.0182 29.0153 47.7467 28.9403C47.4468 28.8582 47.1396 28.7724 46.5504 28.7403C45.6718 28.6974 44.9861 28.8224 44.6147 28.8903C43.9112 29.0189 43.5683 29.1796 43.1719 29.3653C42.8077 29.5331 42.3934 29.726 41.6363 29.9331C41.2791 30.0296 40.9542 30.1188 40.6149 30.1831C40.4613 30.2117 40.0042 30.2831 39.4935 30.2903C38.7435 30.2974 38.1757 30.1367 37.0364 29.8117L37.0293 29.8153Z" fill="white"/>
<path d="M52.4684 22.3585C51.9292 21.8835 51.1328 21.2621 50.0757 20.6979C49.5864 20.4372 47.8615 19.5158 46.0187 19.3658C42.5117 19.0801 39.7725 21.6907 39.2011 22.2621C37.4262 20.9086 35.3191 20.8479 34.2513 21.83C33.7049 22.3335 33.0299 23.4835 33.3656 24.262C33.5513 24.6941 34.1549 25.2548 33.9692 25.5512C33.5477 25.262 32.6299 24.6906 31.3907 24.687C31.1478 24.687 29.0872 24.6798 28.6229 25.8869C28.3979 26.4726 28.6015 27.2083 28.9979 27.6797C30.1015 28.9975 32.8478 28.4476 33.0085 28.4154C33.0085 28.4154 34.1084 28.1833 35.137 28.1797C35.4405 28.1797 35.7369 28.219 35.7369 28.219C36.6369 28.3368 36.7333 28.5797 38.6297 29.1368C40.0439 29.5511 40.4261 29.5689 40.7225 29.5475C41.4189 29.5011 41.8046 29.269 42.2903 29.3975C42.651 29.4904 42.6117 29.6654 43.026 29.8939C43.5831 30.2046 44.308 30.2546 44.4759 30.2653C45.8544 30.3618 46.9794 29.7082 47.1294 29.6154C47.9472 29.1225 47.9008 28.6726 48.7079 28.5154C49.1079 28.4368 49.4614 28.4797 49.6864 28.5083C50.7364 28.6333 50.9542 29.094 52.1649 29.5047C52.672 29.6761 53.1613 29.7725 53.4434 29.8154C55.8397 30.1618 57.1968 28.4368 60.2967 28.419C61.8681 28.4083 61.9359 28.8511 63.3359 28.7225C64.9822 28.5726 66.825 27.7762 67.3036 26.5583C67.6643 25.637 67.1964 24.6156 65.9893 23.9584C65.0322 23.437 64.193 23.262 62.8645 23.2299C61.8859 23.2049 60.4253 23.2835 58.6825 23.7977C58.4575 23.3692 57.9718 22.6049 57.0575 22.0942C54.9362 20.9157 52.597 22.2835 52.472 22.3585H52.4684Z" fill="#F2F7F8"/>
<path d="M48.5045 25.3191C48.7188 25.4691 49.0295 25.0977 49.6438 24.962C50.3295 24.8084 50.9866 24.8941 51.3044 24.9334C51.583 24.9691 52.2615 25.0548 52.7901 25.3655C53.5615 25.8155 53.7436 26.5726 53.3115 27.1262C52.7258 27.8797 51.1509 28.1833 50.0438 28.2047C48.0331 28.2476 47.6439 27.369 45.6011 27.3405C43.9297 27.319 43.8547 27.8547 41.4834 28.094C40.7263 28.1726 37.88 28.4583 36.1657 27.5297C35.8872 27.3797 34.8265 26.7548 35.1479 26.1298C35.3693 25.6977 36.1979 25.3655 36.9478 25.2941C37.5871 25.2334 38.0692 25.4512 38.1692 25.2655C38.2442 25.1227 37.9907 24.9655 37.8442 24.5441C37.6514 23.9942 37.8121 23.4727 37.8692 23.2835C38.0871 22.5692 38.6014 22.1799 38.7621 22.0621C39.6977 21.3728 41.0048 21.4478 41.8834 21.8835C42.8655 22.3692 43.4119 23.262 43.4119 23.262C43.6869 23.712 43.7333 24.0334 44.0476 24.1406C44.4368 24.2763 44.5583 23.8584 45.4368 23.7049C46.1975 23.5727 46.8939 23.7513 47.0082 23.7835C47.0296 23.7906 47.0475 23.7942 47.0617 23.7977C47.2046 23.837 48.0653 24.087 48.3438 24.7191C48.4903 25.0513 48.3581 25.2191 48.5045 25.3227V25.3191Z" fill="white"/>
<path d="M45.6441 27.9224C45.4584 27.8617 45.2155 27.751 44.8191 27.7689C43.6156 27.8296 42.2621 28.1474 41.3014 28.2581C40.0871 28.3974 39.13 28.2403 39.1265 28.1867C39.1265 28.1224 40.455 28.3081 42.0656 27.7689C43.1085 27.4189 43.2442 27.1082 44.3584 26.8511C44.9655 26.7118 45.6084 26.5689 46.3762 26.7296C47.4226 26.9475 47.4297 27.4617 48.2047 27.5653C49.3868 27.7224 49.6689 26.5618 51.1796 26.3939C52.401 26.2582 52.6295 26.9725 53.8152 26.776C54.9151 26.5939 54.9366 25.9654 56.1687 25.4404C57.4115 24.9118 59.2114 24.844 60.3578 25.7011C61.347 26.4404 61.0042 27.2296 61.8899 27.8546C63.5862 29.0545 66.4361 27.1403 66.604 27.476C66.7754 27.826 63.8112 30.1866 61.8899 29.7152C61.3577 29.5831 60.8756 29.2295 60.0471 29.2974C59.74 29.3224 59.2293 29.4224 58.865 29.1224C58.715 28.9974 58.7043 28.9045 58.5793 28.851C58.19 28.6831 57.6043 29.351 57.24 29.6652C55.7437 30.9545 52.6474 30.8902 51.5974 29.7152C51.3903 29.4831 51.2439 29.1867 50.901 29.1224C50.351 29.0188 50.1225 29.6724 49.4046 29.8188C48.6511 29.9724 47.9011 29.4545 47.2619 29.0081C46.5905 28.5403 46.3798 28.1653 45.6405 27.9224H45.6441Z" fill="#CEEAF0"/>
</g>
</svg>
