<svg width="189" height="64" viewBox="0 0 189 64" fill="none" xmlns="http://www.w3.org/2000/svg">
<path d="M141.986 43.0493C137.105 46.5515 131.906 42.8013 127.257 46.2493C125.343 47.675 125.118 49.1472 123.956 51.0145C117.943 60.6534 97.4336 63.7837 83.0528 57.7245C78.9772 56.0044 76.7844 52.4092 72.4841 52.7889C68.7649 53.1143 67.4787 55.6635 61.993 56.0354C58.6922 56.2601 56.1973 55.5395 55.4534 55.3071C54.4151 54.9816 53.6868 54.6485 53.1134 54.3153C50.6495 52.8819 50.572 52.448 49.6887 52.3085C47.4959 51.9598 46.8296 55.5473 42.5835 57.3991C41.7854 57.7478 39.2285 58.8248 36.873 57.7788C36.5476 57.6316 34.9515 56.9342 34.7578 55.679C34.5641 54.4547 35.8115 53.4242 35.6023 53.2073C35.3699 52.9671 33.6962 54.2688 32.9059 54.8344C29.4579 57.2829 23.7165 59.127 21.0666 57.0349C20.1213 56.2911 19.3464 54.8732 19.4162 53.525C19.4936 52.0295 20.5707 51.2857 20.2762 50.8518C19.8268 50.1932 17.1924 51.7119 13.7212 52.4712C11.4819 52.9593 8.57632 53.5947 6.01164 52.5719C2.30022 51.092 -0.0630072 46.4198 0.0687135 42.1272C0.26242 35.7039 6.02714 32.2869 6.86396 31.791C10.1182 29.8617 13.419 29.8075 14.2248 29.8075C15.2786 29.8075 16.9677 29.7842 18.9513 30.5126C20.6016 31.1169 21.7794 31.9848 22.0273 31.6981C22.2675 31.4191 21.2138 30.5823 20.8031 28.8932C20.6869 28.3973 20.315 26.9019 21.0201 25.6854C22.1823 23.6941 25.2196 23.7561 25.5915 23.7638C28.1407 23.8336 29.6749 25.422 30.2018 24.8718C30.6047 24.4534 29.6826 23.5624 29.7136 21.8113C29.7136 21.5323 29.7756 19.6882 31.0696 18.3788C32.3635 17.0693 34.3471 16.7671 35.8503 17.0926C37.8803 17.5342 38.5312 19.0141 39.3835 18.6655C40.2823 18.3013 39.8019 16.5579 40.538 14.1327C40.7549 13.4044 41.7622 9.94866 44.6058 8.63145C47.8756 7.12054 51.1919 8.87938 51.6723 9.14282C54.973 10.9637 55.8176 14.4272 57.3285 14.094C58.2428 13.8925 58.0801 12.6373 59.467 11.8625C60.885 11.0644 62.8065 11.4053 64.0773 12.0949C66.7814 13.5671 66.6497 16.7361 67.8197 16.7981C69.2841 16.8679 69.439 11.878 72.5616 7.75589C76.9781 1.92144 84.6799 1.34031 85.2688 1.30156C85.7647 1.27057 93.5672 0.914154 98.8903 6.41543C101.625 9.24355 102.904 12.7923 103.214 13.7143C104.732 18.2083 103.934 20.9435 105.445 21.6175C107.158 22.3846 108.676 19.0684 113.612 17.5729C114.914 17.1778 118.145 16.1938 121.6 17.5342C125.769 19.1459 127.543 23.082 127.691 23.4152C129.031 26.5067 127.908 28.1881 129.264 29.1411C131.077 30.4196 133.409 27.5915 137.887 28.3586C138.678 28.498 140.53 28.839 142.281 30.2491C142.591 30.4971 145.907 33.2555 145.574 37.1916C145.287 40.6008 142.451 42.7006 141.986 43.0338V43.0493Z" fill="#F2F7F8"/>
<path d="M99.3616 60.9168C93.5891 60.9168 87.8864 59.8553 83.0282 57.802C81.5095 57.1589 80.2621 56.2679 79.0533 55.4078C77.0543 53.9821 75.1714 52.6416 72.4983 52.8741C70.8557 53.0213 69.6702 53.6102 68.4149 54.2378C66.842 55.0204 65.0599 55.9114 62.0071 56.1206C58.993 56.3221 56.5988 55.7487 55.4366 55.3846C54.5145 55.0979 53.7475 54.7724 53.0811 54.385C51.9963 53.7574 51.361 53.308 50.9426 53.0136C50.3924 52.6262 50.16 52.4634 49.6796 52.386C48.6336 52.2232 47.944 52.9903 46.991 54.0518C46.0069 55.1521 44.775 56.5236 42.6209 57.4688C40.4049 58.4374 38.4601 58.5691 36.8485 57.8485C35.5855 57.2906 34.8184 56.5235 34.6867 55.6867C34.5627 54.8887 35.0199 54.1758 35.322 53.7109C35.4305 53.5405 35.5778 53.308 35.5545 53.2615C35.4073 53.1065 33.9119 54.2068 33.4237 54.5632C33.2533 54.6872 33.0983 54.8034 32.9666 54.8964C29.2474 57.5463 23.6221 59.1347 21.0342 57.0892C20.1664 56.4073 19.2754 54.9971 19.3529 53.5172C19.3993 52.6882 19.7403 52.0838 19.996 51.6421C20.1897 51.3012 20.3369 51.0533 20.2284 50.8905C20.0037 50.5651 18.9577 50.9215 17.6405 51.3864C16.5712 51.7584 15.2385 52.2233 13.7586 52.5487C11.4573 53.0523 8.59049 53.6799 6.00257 52.6494C2.44611 51.2315 -0.134075 46.7142 0.00539394 42.1272C0.191353 35.9519 5.52217 32.5039 6.83938 31.7291C13.7896 27.607 21.3906 31.3494 21.9795 31.6516C20.5228 29.8927 20.1044 27.545 20.9645 25.6467C22.1345 23.0665 25.4585 21.7725 27.597 22.7333C28.2789 23.0432 28.736 23.5314 29.0382 23.9343C28.86 23.0587 28.3409 19.9052 30.2392 17.2165C30.6653 16.6044 31.4867 15.4809 32.9976 14.9385C33.1138 14.8998 35.8024 13.9777 37.9177 15.6591C38.7468 16.3177 39.1652 17.1235 39.3589 17.5807C38.677 13.1797 41.0093 8.91812 44.8834 7.25998C48.9048 5.53212 53.6932 7.00429 55.9247 10.1423C56.9242 11.5448 57.2264 13.0324 57.3272 14.032C57.4511 13.5206 57.823 12.3196 58.9233 11.3433C60.287 10.1346 62.2396 9.72394 63.9674 10.2663C66.0517 10.9172 66.966 12.6838 67.2062 13.1487C68.0043 14.6906 67.9113 16.1473 67.8416 16.7361C67.9345 15.4034 68.2367 13.3966 69.2518 11.2271C72.0954 5.13695 78.8441 1.48752 85.283 1.23958C86.2127 1.20084 93.7673 1.00713 98.9664 6.37669C101.554 9.0576 102.864 12.3971 103.305 13.7066C103.987 15.7211 104.197 17.356 104.367 18.6655C104.576 20.2461 104.7 21.2069 105.49 21.5633C106.281 21.9197 107.048 21.3386 108.21 20.4553C109.419 19.541 111.069 18.278 113.603 17.511C114.967 17.1003 118.167 16.124 121.638 17.4722C125.799 19.0839 127.581 22.958 127.775 23.3997C128.433 24.9106 128.503 26.0728 128.557 27.0103C128.619 27.9866 128.658 28.6297 129.324 29.0946C130.153 29.6835 131.091 29.3736 132.377 28.9474C133.795 28.4825 135.554 27.8937 137.917 28.3043C138.638 28.4283 140.551 28.7537 142.349 30.2104C142.721 30.5126 146.006 33.2787 145.673 37.2226C145.402 40.4846 142.837 42.5689 142.055 43.1268C139.583 44.9011 137.018 44.8236 134.531 44.7617C132.005 44.6919 129.626 44.6299 127.333 46.3268C126.008 47.3108 125.504 48.3104 124.923 49.4649C124.667 49.9762 124.404 50.5031 124.048 51.0688C121.188 55.6557 114.858 59.0417 106.684 60.3512C104.274 60.7386 101.826 60.9246 99.3848 60.9246L99.3616 60.9168ZM73.1027 52.6959C73.8078 52.6959 75.0785 52.386 79.1386 55.2838C80.3396 56.1439 81.5793 57.0272 83.0824 57.6626C89.9629 60.5604 98.548 61.4824 106.629 60.1885C114.757 58.8868 121.049 55.5318 123.885 50.9835C124.234 50.4179 124.497 49.8988 124.753 49.3951C125.342 48.2174 125.853 47.2024 127.209 46.1951C129.549 44.4595 132.067 44.5292 134.508 44.5989C136.972 44.6687 139.513 44.7384 141.938 42.995C142.705 42.4449 145.224 40.4071 145.495 37.2071C145.82 33.3407 142.597 30.6288 142.233 30.3344C140.466 28.9087 138.583 28.5832 137.871 28.467C135.546 28.0641 133.81 28.6452 132.408 29.1024C131.122 29.5285 130.107 29.8617 129.216 29.2341C128.487 28.7227 128.449 28.0099 128.387 27.0336C128.332 26.1116 128.263 24.9648 127.62 23.4771C127.434 23.0432 125.675 19.2233 121.576 17.6349C118.151 16.31 114.99 17.2708 113.642 17.6814C111.139 18.4408 109.496 19.6882 108.295 20.6025C107.133 21.4858 106.296 22.1212 105.421 21.726C104.545 21.3309 104.406 20.2926 104.204 18.7119C104.034 17.4102 103.825 15.7831 103.15 13.7763C101.942 10.1966 99.7567 7.39945 98.8424 6.5084C93.5504 1.35579 85.8253 2.33208 85.0892 2.44055C84.4616 2.53353 77.1705 3.67254 73.8697 8.98786C73.2266 10.0184 71.9637 12.4513 70.8557 15.016C69.6237 17.8751 69.0271 19.8432 68.26 19.7967C67.5007 19.7502 67.6401 17.7899 65.765 15.8451C65.3156 15.3724 64.3549 14.3729 62.9602 14.0785C60.2638 13.5051 57.916 15.9845 57.6603 16.2635C57.0482 15.4732 56.0409 14.3419 54.5455 13.3501C53.3523 12.5676 49.3154 9.90216 45.5033 11.5835C42.7372 12.8078 41.6601 15.6359 41.3502 16.4649C40.4359 18.8824 40.7381 21.0287 40.9318 21.974C40.7691 21.7105 39.3589 19.5023 36.7168 19.2931C36.0969 19.2466 34.6944 19.2466 33.478 20.1299C31.9128 21.2689 31.5641 23.175 31.2697 24.7789C31.1147 25.6234 31.0838 26.344 31.076 26.8554C30.5801 26.561 29.7975 26.1813 28.7748 26.0263C28.0619 25.9178 25.8847 25.5847 24.5132 26.9639C23.1108 28.374 23.5137 30.6675 23.5757 31.0162C23.9941 33.3872 25.8304 34.6037 25.5515 34.9678C25.2416 35.363 23.0953 33.7824 20.7708 32.8913C17.1213 31.4889 12.3562 31.5044 8.40454 33.5112C7.08733 34.1853 2.22915 36.6569 1.3381 41.9258C0.633005 46.0944 2.57782 51.0068 6.04905 52.5409C9.18711 53.9201 13.5029 52.479 13.7121 52.4325C15.1843 52.107 16.5092 51.6499 17.5785 51.278C19.1204 50.7433 20.058 50.4179 20.3446 50.8441C20.5074 51.0842 20.3446 51.3632 20.1199 51.7583C19.872 52.1845 19.5388 52.7734 19.5001 53.5637C19.4226 54.9894 20.2904 56.3531 21.1195 57.0117C23.6532 59.0107 29.1932 57.4301 32.8659 54.8112C32.9976 54.7182 33.1525 54.602 33.323 54.478C34.7409 53.4397 35.4538 52.9826 35.663 53.1918C35.7792 53.3158 35.663 53.5095 35.446 53.8349C35.1593 54.2843 34.7177 54.9662 34.8339 55.7022C34.9579 56.4848 35.694 57.2131 36.9027 57.74C38.4756 58.4374 40.3817 58.3056 42.5512 57.3526C44.6742 56.4228 45.8907 55.0669 46.867 53.9744C47.82 52.9128 48.5639 52.076 49.6951 52.2542C50.2143 52.3395 50.4699 52.5177 51.0278 52.9051C51.4695 53.215 52.0816 53.6412 53.1508 54.2688C53.8094 54.6485 54.5688 54.9739 55.4753 55.2606C56.6221 55.617 59.0008 56.1904 61.9839 55.9889C63.2391 55.9037 64.2774 55.7022 65.1762 55.4388C66.5244 55.0436 67.059 54.664 68.3375 54.1216C70.3055 53.277 71.615 52.7191 73.1027 52.7114V52.6959Z" fill="white"/>
<path d="M39.7932 44.1493C35.338 45.5827 32.3549 40.9492 23.9093 39.0509C17.0908 37.5245 12.4883 39.0819 11.4965 39.4461C9.50519 40.1667 4.70125 41.9023 3.96517 45.8539C3.63199 47.6437 4.16663 49.7048 5.42185 51.084C8.25772 54.1833 14.1851 52.8041 14.898 52.6336C17.0675 52.099 18.5939 51.1227 19.0898 51.7039C19.6012 52.3005 18.191 53.6254 18.284 55.547C18.3847 57.6235 20.1823 59.1035 21.0424 59.8086C25.1955 63.2255 33.9665 63.1481 38.693 63.0086C51.6403 62.6289 58.4278 62.35 66.6642 58.3674C69.2599 57.1121 71.29 55.8337 72.6382 54.9116C75.7065 56.7092 79.3637 58.4448 83.6097 59.7466C87.0732 60.8081 100.439 64.9069 113.952 59.5528C119.631 57.2981 118.539 56.0739 124.063 54.253C131.386 51.8433 136.314 53.0056 141.993 48.8215C143.543 47.6825 144.744 46.435 145.511 44.7304C145.611 44.5057 147.572 39.9187 145.077 36.2073C142.993 33.108 139.157 32.6276 138.584 32.5656C131.696 31.8063 128.751 39.0354 121.049 39.4616C117.609 39.6475 114.711 38.4001 112.774 37.2921C111.294 38.9192 99.7029 51.2234 83.695 49.2864C77.9302 48.589 73.475 46.2723 70.6081 44.3817C69.0972 45.2185 66.8967 46.2801 64.1073 47.1401C61.4574 47.9537 58.4123 48.8912 55.437 48.5193C49.1376 47.7367 45.3332 41.3831 44.4577 39.8335C43.6829 41.2437 42.2262 43.3744 39.801 44.157L39.7932 44.1493Z" fill="#CEEAF0"/>
<path d="M185.397 41.7629C177.192 48.6976 161.199 46.6056 149.895 41.6699C146.439 40.159 143.82 38.5629 142.309 37.5788C143.626 37.6796 144.541 37.5246 144.835 36.99C145.579 35.6108 142.216 31.5662 138.14 30.0475C134.305 28.6218 130.718 29.7453 129.292 30.2877C128.982 28.9395 128.06 25.8247 125.271 23.1438C124.658 22.5627 120.839 19.014 115.515 19.2232C112.78 19.3317 110.735 20.3932 107.713 21.9661C105.621 23.0508 104.017 24.1821 102.948 24.9957C101.282 23.8876 98.4848 22.3225 94.7191 21.5322C92.9137 21.1525 87.0018 19.9903 80.6792 22.8881C79.2768 23.5312 74.9067 25.7395 71.7377 30.4194C68.7779 34.7895 68.9561 38.2839 66.9105 38.6249C64.8185 38.9735 64.1444 35.3861 59.9758 33.8054C55.7608 32.217 51.5534 34.0301 50.7709 34.3633C45.6957 36.5483 44.0299 41.1508 43.4875 40.8409C42.7979 40.438 44.2701 32.1318 50.8251 28.7458C51.3907 28.4514 56.6131 25.8635 61.7192 28.2577C63.1216 28.9163 64.1366 29.7608 64.7875 30.4194C64.5086 29.8538 64.1134 28.8465 64.2141 27.6068C64.4156 25.1429 66.4921 22.9424 69.0026 22.4775C71.3503 22.0436 73.1944 23.291 73.6128 23.5855C73.3184 22.9578 72.9077 21.8343 73.1246 20.5249C73.5663 17.8052 76.4332 15.6357 79.2535 15.8062C81.0046 15.9147 82.2444 16.8909 82.7867 17.3791C82.7867 16.3796 82.9262 14.6284 83.9412 12.8463C85.8628 9.47583 90.0624 7.50003 94.0605 8.20512C98.1671 8.93346 100.329 12.18 100.732 12.8076C100.956 12.335 101.576 11.2115 102.87 10.5761C104.854 9.59206 106.861 10.5219 107.481 10.8086C110.27 12.0948 111.099 15.0159 111.223 15.5117C111.68 13.6057 112.835 9.90975 115.965 6.46952C117.274 5.03608 121.575 0.44909 128.672 0.0151867C129.168 -0.0158064 136.97 -0.372223 142.294 5.12906C144.486 7.3993 145.563 9.933 146.617 12.4279C147.934 15.5428 148.546 18.3244 148.849 20.3312C149.67 19.1767 151.467 16.9917 154.528 15.597C154.954 15.4033 161.695 12.4589 166.739 15.9922C169.095 17.6425 170.172 20.0677 171.086 22.121C172.101 24.4068 172.489 26.4601 172.659 27.847C174.061 27.2814 176.735 26.4368 180.051 26.863C181.546 27.0567 183.693 27.3279 185.684 28.955C185.885 29.1177 189.302 32.0001 188.977 35.8975C188.729 38.8651 186.474 40.8254 185.389 41.7397L185.397 41.7629Z" fill="white"/>
<path d="M133.531 37.4782C137.343 36.1998 141.194 37.269 142.309 37.5712C146.943 38.8574 149.864 41.949 150.926 41.0192C151.359 40.6395 151.026 39.9887 151.096 38.6017C151.096 38.6017 151.251 35.5179 153.475 32.8835C155.9 30.0166 160.464 29.0249 164.198 30.2026C168.406 31.5276 170.273 35.2002 170.862 36.347C174.465 43.4057 170.149 50.6736 169.878 51.1152C169.39 51.8978 167.569 54.6949 163.85 56.7792C162.184 57.709 159.58 58.8092 141.077 58.1351C135.685 57.9414 132.988 57.8407 130.981 57.6393C127.619 57.3138 126.379 57.0194 123.845 57.1434C119.824 57.3448 119.375 58.2669 116.337 58.3753C115.237 58.4141 107.868 58.6775 106.001 54.4392C104.777 51.6576 106.334 47.8919 108.721 45.9703C110.487 44.5524 112.455 44.3355 114.028 44.1805C118.91 43.7078 119.909 46.0091 123.109 45.5829C127.828 44.9476 127.681 39.4463 133.538 37.486L133.531 37.4782Z" fill="#CEEAF0"/>
<path d="M115.471 58.445C112.596 58.445 107.49 57.9337 105.956 54.4624C104.685 51.5801 106.39 47.7912 108.691 45.9316C110.504 44.4749 112.542 44.2735 114.022 44.1262C116.679 43.8706 118.198 44.4362 119.531 44.932C120.662 45.3582 121.646 45.7224 123.095 45.5287C125.419 45.2187 126.535 43.7388 127.821 42.0342C129.1 40.3451 130.549 38.4235 133.509 37.4317C136.05 36.5794 139.01 36.6104 142.311 37.5247C144.558 38.1446 146.371 39.1751 147.827 40.0042C149.3 40.841 150.361 41.4376 150.88 40.9804C151.128 40.7635 151.105 40.4303 151.066 39.8879C151.043 39.547 151.012 39.1208 151.035 38.594C151.035 38.563 151.213 35.4559 153.429 32.8448C155.785 30.0554 160.318 28.9164 164.207 30.1483C168.43 31.481 170.29 35.1227 170.902 36.316C174.551 43.4754 170.104 50.8285 169.918 51.1384C169.112 52.4479 167.252 54.9273 163.866 56.8179C161.929 57.9027 158.722 58.8247 141.071 58.1816C135.686 57.9879 132.982 57.8872 130.975 57.6857C130.084 57.6005 129.34 57.5153 128.689 57.4378C126.892 57.2363 125.706 57.0968 123.847 57.1898C121.731 57.2983 120.577 57.6082 119.569 57.8794C118.647 58.1274 117.78 58.3676 116.338 58.4141C116.083 58.4218 115.788 58.4296 115.463 58.4296L115.471 58.445ZM115.308 44.165C114.913 44.165 114.494 44.1882 114.037 44.227C112.565 44.3742 110.543 44.5679 108.753 46.0091C106.475 47.8454 104.794 51.5801 106.041 54.4237C107.722 58.2281 113.797 58.4218 116.331 58.3366C117.756 58.2823 118.624 58.0499 119.538 57.802C120.554 57.523 121.708 57.2131 123.839 57.1046C125.706 57.0116 126.899 57.1433 128.697 57.3525C129.356 57.43 130.092 57.5153 130.983 57.6005C132.989 57.7942 135.686 57.8949 141.063 58.0964C157.497 58.7008 161.418 57.8717 163.123 57.1046C163.386 56.9884 163.564 56.8876 163.82 56.7482C168.895 53.8813 172.211 46.5824 170.088 40.4381C169.964 40.0816 167.617 33.5808 162.309 32.9765C159.884 32.6975 157.257 33.6971 155.552 35.4017C152.624 38.315 153.522 42.1737 151.345 42.9252C150.167 43.3282 149.354 42.3984 147.006 41.2051C145.945 40.6627 138.026 36.7421 132.594 39.423C131.579 39.9267 129.929 41.0114 128.449 42.5456C126.892 44.165 126.28 45.4822 124.559 45.9238C123.451 46.2105 122.336 46.0246 122.134 45.9858C121.406 45.8541 121.352 45.6991 119.5 45.0405C117.935 44.4827 117.353 44.3742 117.09 44.3277C116.563 44.2347 115.974 44.1805 115.308 44.1805V44.165Z" fill="white"/>
</svg>
