<svg width="126" height="54" viewBox="0 0 126 54" fill="none" xmlns="http://www.w3.org/2000/svg">
<g opacity="0.5">
<path d="M116.626 30.1483C114.306 30.2098 112.435 30.6529 111.211 31.0282C111.241 30.4621 111.34 27.1022 108.288 24.4685C105.297 21.8901 101.482 21.9024 100.442 21.9455C98.8356 22.007 97.4141 22.5608 94.5588 23.6254C92.3928 24.4315 90.6451 25.2438 89.4329 25.8469C88.3129 24.45 86.5714 22.5362 84.1161 20.6593C82.1592 19.164 80.6701 18.0317 78.3747 17.3118C74.6456 16.1364 70.7811 16.721 68.5658 17.9456C66.4797 19.0963 65.2613 20.9055 65.1321 21.1024C64.6828 21.767 64.3998 22.2901 64.209 22.6901C63.7598 23.6254 63.7106 23.7485 63.6613 23.7731C63.3414 23.8223 62.7998 21.5824 62.6275 20.9178C61.8214 17.7425 60.5599 14.998 60.2645 14.3765C58.9353 11.6012 57.0277 9.92121 55.8277 8.86893C48.5787 2.49375 37.5268 4.32139 36.7391 4.46292C33.2623 5.1029 24.7272 6.67824 21.3427 14.1242C18.8689 19.5578 20.5673 24.9731 21.1827 26.6899C21.1703 26.6899 19.7735 26.8561 19.7612 26.8561C19.0473 26.9361 18.3397 27.0222 18.3397 27.0222C16.5305 27.0592 16.1982 26.7515 14.3767 26.6899C12.9983 26.6469 11.4722 26.5915 10.0445 27.3853C9.71223 27.5699 8.16152 28.4314 7.80461 29.9268C7.45385 31.4036 8.55535 32.3082 7.92767 32.9543C7.43538 33.4589 6.61694 33.059 5.25083 33.3728C3.92779 33.6743 2.56785 34.5605 1.84172 35.7727C0.992512 37.1881 1.22635 38.6772 1.55249 40.7387C1.68787 41.6187 1.92172 43.0156 2.7463 44.5971C3.92781 46.8493 5.58929 48.08 6.46926 48.72C10.1184 51.3661 16.1736 52.9537 21.2257 50.8492C23.3364 49.9692 22.6411 49.5385 27.7117 46.5355C27.7117 46.5355 32.2839 43.8955 35.5884 44.2278C37.5698 44.4248 37.3791 45.3724 39.2929 45.514C42.8497 45.7786 44.4804 42.7694 46.9911 43.4094C48.6095 43.8156 48.148 45.1447 50.3079 46.2893C52.6955 47.557 55.5447 47.1447 57.4338 46.8678C60.0922 46.4801 61.9199 45.5509 62.3137 45.3478C64.3936 44.2586 64.5598 43.4709 65.7413 42.991C68.535 41.8648 72.0119 44.8924 74.5102 45.5509C86.4299 48.7015 103.316 47.3047 108.183 42.5233C108.768 41.9448 108.915 41.3356 109.777 40.8003C113.561 38.4434 118.952 42.8864 122.97 40.8064C124.995 39.7603 125.862 37.4773 125.881 35.7789C125.881 35.3912 125.949 33.342 124.232 31.8405C122.152 30.0191 119.026 30.0991 116.632 30.1606L116.626 30.1483Z" fill="#F2F7F8"/>
<path d="M43.8839 47.1572C37.1149 49.5756 30.6166 52.6339 20.66 52.5785C9.18959 52.5109 4.74049 48.3325 3.2513 46.6772C2.33441 45.6618 -0.35473 42.6712 0.0391042 38.7882C0.112948 38.0375 0.617552 34.1791 3.70669 32.9176C5.49125 32.1853 7.22042 32.6961 7.87271 32.9299C7.6881 32.3638 7.01735 30.0869 8.19885 27.9639C9.69419 25.2809 13.2018 24.5486 15.7248 25.2132C17.1278 25.5825 18.1124 26.3517 18.6539 26.8624C18.1124 25.9086 17.4355 24.4748 17.0294 22.6287C16.1309 18.5488 17.1955 15.232 17.6139 13.9705C19.5831 8.08145 24.3953 4.98617 26.186 3.82928C36.438 -2.77359 47.9945 1.11552 48.6653 1.34936C51.0775 2.20472 58.6404 4.8877 61.9695 12.5429C63.6248 16.3458 63.5818 19.8903 63.3972 21.9087C63.6002 20.9241 64.0741 19.3242 65.3232 17.835C67.6432 15.0659 70.9846 14.6597 72.5169 14.4689C76.9967 13.9213 80.4797 15.7612 82.1535 16.672C86.7318 19.1703 89.0948 22.9302 90.0856 24.7886C90.6209 24.2225 94.5593 20.198 100.454 20.6657C104.085 20.9549 108.411 22.9364 110.306 26.8993C111.057 28.4685 111.236 29.9454 111.266 30.9484C111.931 30.3085 113.943 28.5608 116.946 28.3762C120.238 28.1731 123.635 29.9208 125.106 32.7576C125.364 33.2499 125.906 34.3268 125.863 35.7729C125.783 38.739 123.309 41.102 121.118 42.0127C117.906 43.3481 114.497 41.8958 113.605 41.5512C103.359 37.5328 69.1816 38.1113 43.8716 47.1633L43.8839 47.1572ZM93.9808 46.948C93.9808 46.948 103.808 46.7264 108.128 42.4742C108.343 42.2589 108.503 42.0373 108.657 41.8219C108.916 41.4589 109.18 41.0835 109.728 40.7451C111.679 39.5266 114.085 40.1051 116.417 40.6651C118.657 41.2004 120.977 41.7604 122.928 40.7512C124.897 39.7359 125.789 37.5205 125.808 35.7729C125.678 35.2129 125.414 34.4253 124.841 33.6314C122.441 30.29 117.383 30.77 116.86 30.8254C113.882 31.1515 111.833 32.7638 110.94 33.5699C110.645 32.4622 109.833 30.0192 107.599 27.8532C106.86 27.1393 104.731 25.0594 101.494 24.6532C97.7961 24.1856 94.7685 26.0624 91.7286 27.9762C90.6886 28.6285 89.8702 29.25 89.2979 29.7116C88.9964 28.3947 87.7533 23.7364 83.4458 21.0718C77.5013 17.3858 69.3662 21.878 66.3324 23.4902C64.5233 24.4502 63.1448 25.4348 62.271 26.1178C62.2956 25.1702 62.3203 20.518 58.7573 16.9243C57.8773 16.0381 55.7605 13.8967 52.8067 13.6813C46.6715 13.2259 45.0346 21.6318 37.3918 22.6041C33.2258 23.1333 31.2874 20.9426 27.9275 22.6041C25.3799 23.8656 23.9953 26.3578 23.2138 28.3639C22.223 28.0131 18.9801 27.0101 15.774 28.5239C14.851 28.9608 13.1895 29.7423 12.451 31.5823C11.9464 32.8376 12.1003 34.0068 12.2233 34.6037C11.5711 34.8806 8.26655 36.3698 6.86352 40.0866C6.67891 40.5728 5.66354 43.2681 6.59889 45.8034C8.285 50.3632 15.2263 51.4955 17.2263 51.8216C26.5429 53.3477 30.352 48.6956 50.3452 46.2464C50.3452 46.2464 50.7945 46.1787 51.3975 46.1233C54.099 45.8772 58.8927 46.0618 93.987 46.9603L93.9808 46.948Z" fill="white"/>
<path d="M117.883 40.0065C116.979 40.0496 113.637 40.1111 110.813 37.982C109.81 37.2251 109.084 36.3512 108.604 35.7789C107.072 33.939 107.139 33.2313 106.032 31.9514C104.339 30.0007 102.161 29.3176 101.613 29.1515C99.1702 28.4192 97.0964 28.9361 95.8534 29.2622C92.5673 30.1237 90.432 32.0806 89.429 33.1575C87.9521 31.8345 83.2015 27.9269 75.9402 27.4038C69.9834 26.9792 65.4974 29.0591 63.6513 30.0499C62.6298 29.1514 61.0421 28.0499 59.0299 27.9392C56.0331 27.773 54.0454 30.0376 51.7809 31.5391C49.3133 33.1821 45.2088 34.819 38.2552 34.1298C37.6767 34.9051 34.1261 39.5019 27.6709 40.2096C20.7972 40.9665 16.1451 36.7143 15.4866 36.0928C14.6313 36.2405 13.2775 36.5851 11.8498 37.4589C11.0006 37.9819 9.60988 38.8188 8.94529 40.2465C7.70225 42.9172 9.40066 45.8771 9.81911 46.6094C12.4713 51.2308 18.6742 52.2523 20.6557 52.5784C29.5354 54.0368 37.7136 50.4123 45.2765 50.0985C46.4518 50.0493 48.0148 49.9877 50.0763 50.2523C52.0701 50.5108 52.7778 50.8554 54.7777 51.1262C54.7777 51.1262 56.8638 51.4092 59.7006 51.3169C65.0974 51.1385 74.7771 48.4062 75.9402 48.0862C90.832 43.9941 107.275 51.6 110.444 46.9724C110.641 46.6832 111.065 45.8648 112.037 45.2494C114.056 43.9695 115.527 44.8679 118.573 44.2095C119.422 44.0248 122.413 43.3418 124.357 40.8803C124.702 40.4434 125.643 39.1881 125.92 37.2866C126.086 36.1789 125.963 35.2497 125.84 34.6528C125.656 35.3482 125.286 36.3759 124.474 37.3481C122.449 39.7788 119.293 39.9388 117.89 40.0065H117.883Z" fill="#CEEAF0"/>
<path d="M101.562 48.5601C101.931 48.8186 102.466 48.1786 103.525 47.9447C104.706 47.6801 105.839 47.8278 106.386 47.8955C106.866 47.957 108.035 48.1047 108.946 48.6401C110.275 49.4155 110.589 50.72 109.845 51.6738C108.835 52.9723 106.122 53.4953 104.214 53.5322C100.749 53.6061 100.079 52.0923 96.5588 52.0431C93.6789 52.0061 93.5497 52.9292 89.4636 53.3415C88.1591 53.4769 83.2546 53.9692 80.3008 52.3692C79.8209 52.1108 77.9932 51.0339 78.5471 49.957C78.9286 49.2124 80.3562 48.6401 81.6485 48.517C82.75 48.4124 83.5807 48.7878 83.753 48.4678C83.8823 48.2216 83.4454 47.9509 83.1931 47.2247C82.8608 46.2771 83.1377 45.3786 83.2361 45.0525C83.6115 43.8218 84.4976 43.151 84.7745 42.948C86.3868 41.7603 88.639 41.8895 90.1528 42.6403C91.8451 43.4772 92.7866 45.0156 92.7866 45.0156C93.2604 45.7909 93.3404 46.3448 93.882 46.5294C94.5527 46.7632 94.7619 46.0432 96.2757 45.7786C97.5865 45.5509 98.7864 45.8586 98.9833 45.914C99.0203 45.9263 99.051 45.9325 99.0756 45.9386C99.3218 46.0063 100.805 46.4371 101.285 47.5263C101.537 48.0986 101.309 48.3878 101.562 48.5662V48.5601Z" fill="#CEEAF0"/>
<path d="M62.2966 50.5724C61.755 50.4186 60.9674 50.1786 59.9889 49.8278C59.509 49.6555 59.1274 49.5078 58.8013 49.3786C57.9829 49.0586 57.4906 48.8679 56.5552 48.7448C55.3922 48.5909 54.7153 48.6956 53.7737 48.8432C53.1645 48.9417 52.4015 49.0586 51.3184 49.1263C46.9247 49.4155 42.4264 49.7232 40.8326 47.4341C39.8849 46.0741 40.1188 44.0065 40.9003 42.6404C42.2356 40.3143 45.6263 39.2251 49.0354 40.462C49.2508 39.4958 49.6877 38.2036 50.6415 36.9667C52.8445 34.1237 57.0536 32.5422 60.4874 33.816C61.7735 34.2898 62.6473 35.059 63.1211 35.5329C63.9704 34.2529 65.9026 31.7422 69.2994 30.2654C73.7301 28.3454 77.8222 29.4346 80.0745 30.0315C84.7328 31.2684 87.8219 33.8899 89.3542 35.416C89.508 35.2744 92.3756 32.733 96.1109 33.8099C98.5724 34.5237 100.468 36.5298 101.046 39.0466C102.271 38.5543 103.871 38.1359 105.735 38.1605C106.917 38.1728 109.483 38.2405 111.809 39.9943C112.806 40.745 114.258 41.8404 114.313 43.3973C114.4 45.7726 111.206 47.6987 109.44 48.2463C107.563 48.8248 105.483 48.9109 104.892 48.9232C103.741 48.9479 103.095 48.8494 102.529 48.7571C101.945 48.6648 101.434 48.5848 100.498 48.6586C99.3846 48.7386 98.72 48.954 98.0801 49.1632C97.3601 49.3909 96.6216 49.6309 95.2863 49.6801C94.0556 49.7232 93.0956 49.5817 92.3326 49.4709C90.7388 49.2371 89.908 48.9232 89.2373 48.6771C88.5911 48.4371 88.1173 48.2586 87.2619 48.2586C86.222 48.2525 85.6189 48.5109 84.9912 48.7817C84.3267 49.0648 83.6374 49.3601 82.4129 49.3355C81.6744 49.3171 81.2314 49.194 80.7637 49.0648C80.2468 48.9232 79.7176 48.7755 78.7022 48.7202C77.1884 48.6463 76.0069 48.8617 75.3669 48.9786C74.1547 49.2002 73.5639 49.4771 72.8809 49.7971C72.2532 50.0863 71.5394 50.4186 70.2348 50.7755C69.6194 50.9417 69.0594 51.0955 68.4748 51.2062C68.2102 51.2555 67.4226 51.3786 66.5426 51.3909C65.2503 51.4032 64.2719 51.1262 62.3089 50.5663L62.2966 50.5724Z" fill="white"/>
<path d="M88.8991 37.7236C87.9698 36.9051 86.5976 35.8344 84.7761 34.8621C83.933 34.4129 80.9608 32.8253 77.7856 32.5668C71.7427 32.0745 67.0228 36.5728 66.0382 37.5574C62.9798 35.2252 59.3492 35.1206 57.5092 36.8128C56.5677 37.6805 55.4047 39.662 55.9831 41.0035C56.3031 41.7481 57.3431 42.7142 57.0231 43.2249C56.297 42.7265 54.7155 41.7419 52.5802 41.7358C52.1617 41.7358 48.611 41.7235 47.8111 43.8034C47.4234 44.8126 47.7742 46.0802 48.4572 46.8925C50.3587 49.1632 55.0908 48.2156 55.3678 48.1602C55.3678 48.1602 57.2631 47.7602 59.0354 47.754C59.5584 47.754 60.0692 47.8217 60.0692 47.8217C61.6199 48.0248 61.786 48.4433 65.0536 49.4032C67.4905 50.117 68.1489 50.1478 68.6597 50.1109C69.8596 50.0309 70.5242 49.6309 71.3611 49.8524C71.9827 50.0124 71.915 50.314 72.6288 50.7078C73.5888 51.2432 74.8379 51.3293 75.1272 51.3478C77.5025 51.5139 79.4409 50.3878 79.6993 50.2278C81.1085 49.3786 81.0285 48.6033 82.4193 48.3325C83.1085 48.1971 83.7177 48.2709 84.1054 48.3202C85.9145 48.5356 86.2899 49.3294 88.376 50.037C89.2498 50.3324 90.0928 50.4986 90.579 50.5724C94.7081 51.1693 97.0465 48.1971 102.388 48.1663C105.095 48.1479 105.212 48.9109 107.625 48.6894C110.461 48.4309 113.637 47.0587 114.461 44.9603C115.083 43.3726 114.277 41.6127 112.197 40.4804C110.548 39.582 109.101 39.2805 106.812 39.2251C105.126 39.182 102.609 39.3174 99.6064 40.2035C99.2187 39.4651 98.3818 38.1482 96.8065 37.2682C93.1512 35.2375 89.1206 37.5943 88.9052 37.7236H88.8991Z" fill="#F2F7F8"/>
<path d="M82.0693 42.825C82.4385 43.0834 82.9739 42.4435 84.0323 42.2096C85.2138 41.945 86.3461 42.0927 86.8938 42.1604C87.3737 42.2219 88.5429 42.3696 89.4537 42.905C90.7829 43.6804 91.0967 44.9849 90.3521 45.9387C89.3429 47.2372 86.6291 47.7602 84.7215 47.7971C81.257 47.871 80.5863 46.3572 77.0664 46.308C74.1865 46.271 74.0572 47.1941 69.9712 47.6064C68.6666 47.7418 63.7622 48.2341 60.8084 46.6341C60.3284 46.3757 58.5008 45.2988 59.0546 44.2219C59.4361 43.4773 60.8638 42.905 62.156 42.7819C63.2576 42.6773 64.0883 43.0527 64.2606 42.7327C64.3898 42.4865 63.9529 42.2158 63.7006 41.4896C63.3683 40.542 63.6452 39.6435 63.7437 39.3174C64.1191 38.0867 65.0052 37.4159 65.2821 37.2129C66.8944 36.0252 69.1466 36.1544 70.6604 36.9052C72.3527 37.7421 73.2942 39.2805 73.2942 39.2805C73.768 40.0558 73.848 40.6097 74.3895 40.7943C75.0603 41.0281 75.2695 40.3082 76.7833 40.0435C78.094 39.8159 79.294 40.1235 79.4909 40.1789C79.5278 40.1912 79.5586 40.1974 79.5832 40.2035C79.8294 40.2712 81.3124 40.702 81.7924 41.7912C82.0447 42.3635 81.817 42.6527 82.0693 42.8311V42.825Z" fill="white"/>
<path d="M77.1394 47.311C76.8194 47.2064 76.4009 47.0157 75.7179 47.0464C73.6441 47.151 71.3118 47.6987 69.6565 47.8895C67.5643 48.1295 65.9151 47.8587 65.9089 47.7664C65.9089 47.6556 68.1981 47.9756 70.9734 47.0464C72.7703 46.4434 73.0041 45.908 74.924 45.4649C75.9702 45.225 77.0778 44.9788 78.4009 45.2557C80.2039 45.6311 80.2162 46.5172 81.5515 46.6957C83.5884 46.9664 84.0745 44.9665 86.6775 44.6773C88.7821 44.4434 89.1759 45.6742 91.2189 45.3357C93.1143 45.0219 93.1512 43.9388 95.2742 43.0342C97.4157 42.1235 100.517 42.0066 102.492 43.4835C104.197 44.7573 103.606 46.1172 105.132 47.1941C108.055 49.2618 112.966 45.9634 113.255 46.5418C113.551 47.1449 108.443 51.2125 105.132 50.4002C104.215 50.1725 103.385 49.5633 101.957 49.6802C101.428 49.7233 100.548 49.8956 99.9202 49.3787C99.6617 49.1633 99.6433 49.0033 99.4279 48.911C98.7572 48.6218 97.748 49.7725 97.1203 50.314C94.5419 52.5355 89.2067 52.4247 87.3975 50.4002C87.0406 50.0002 86.7883 49.4894 86.1975 49.3787C85.2499 49.2002 84.856 50.3263 83.6192 50.5786C82.3207 50.8432 81.0285 49.951 79.927 49.1817C78.7701 48.3756 78.407 47.7295 77.1332 47.311H77.1394Z" fill="#CEEAF0"/>
</g>
</svg>
