<svg width="141" height="48" viewBox="0 0 141 48" fill="none" xmlns="http://www.w3.org/2000/svg">
<g opacity="0.5">
<path d="M105.926 32.1164C102.284 34.7292 98.4057 31.9314 94.9374 34.5037C93.5096 35.5673 93.342 36.6656 92.4749 38.0587C87.9893 45.2497 72.6883 47.585 61.9597 43.0646C58.9191 41.7814 57.2832 39.0992 54.0751 39.3825C51.3004 39.6252 50.3409 41.527 46.2483 41.8045C43.7858 41.9721 41.9245 41.4345 41.3695 41.2611C40.595 41.0183 40.0516 40.7698 39.6238 40.5212C37.7856 39.4518 37.7278 39.1281 37.0689 39.0241C35.433 38.764 34.9358 41.4403 31.7681 42.8218C31.1727 43.082 29.2652 43.8855 27.5079 43.1051C27.2651 42.9953 26.0744 42.475 25.9298 41.5386C25.7853 40.6253 26.716 39.8565 26.5599 39.6946C26.3865 39.5154 25.1379 40.4865 24.5483 40.9085C21.976 42.7351 17.6926 44.1109 15.7157 42.5502C15.0105 41.9952 14.4324 40.9374 14.4844 39.9316C14.5422 38.816 15.3457 38.261 15.1261 37.9373C14.7908 37.446 12.8254 38.579 10.2358 39.1455C8.56522 39.5096 6.39752 39.9836 4.48418 39.2206C1.71532 38.1165 -0.0477307 34.6309 0.0505378 31.4285C0.19505 26.6365 4.49574 24.0873 5.12004 23.7173C7.54785 22.278 10.0103 22.2375 10.6115 22.2375C11.3977 22.2375 12.6578 22.2202 14.1376 22.7635C15.3689 23.2144 16.2475 23.8618 16.4325 23.6479C16.6117 23.4398 15.8255 22.8156 15.5192 21.5554C15.4324 21.1855 15.155 20.0698 15.681 19.1623C16.5481 17.6767 18.814 17.7229 19.0915 17.7287C20.9933 17.7807 22.1378 18.9657 22.5309 18.5553C22.8315 18.2432 22.1436 17.5784 22.1667 16.272C22.1667 16.0639 22.213 14.6882 23.1783 13.7113C24.1437 12.7344 25.6235 12.5089 26.7449 12.7517C28.2594 13.0812 28.7449 14.1853 29.3808 13.9251C30.0513 13.6535 29.6929 12.3528 30.2421 10.5435C30.4039 10.0002 31.1554 7.42209 33.2768 6.43941C35.7162 5.31221 38.1903 6.62437 38.5487 6.82091C41.0112 8.17932 41.6412 10.7632 42.7684 10.5147C43.4505 10.3644 43.3291 9.42792 44.3638 8.84987C45.4217 8.25448 46.8552 8.50881 47.8032 9.02328C49.8206 10.1216 49.7224 12.4858 50.5952 12.532C51.6877 12.5841 51.8033 8.86144 54.1329 5.78621C57.4278 1.4335 63.1736 0.999949 63.6129 0.971047C63.9828 0.947925 69.8038 0.682025 73.775 4.78618C75.8155 6.89606 76.7693 9.54354 77.0005 10.2314C78.1335 13.5841 77.5381 15.6246 78.6653 16.1275C79.9428 16.6998 81.0758 14.2257 84.758 13.1101C85.7291 12.8153 88.1395 12.0812 90.7177 13.0812C93.8276 14.2835 95.1513 17.22 95.2611 17.4686C96.2611 19.775 95.423 21.0294 96.4346 21.7404C97.7872 22.6942 99.5271 20.5843 102.868 21.1566C103.458 21.2606 104.839 21.5149 106.146 22.567C106.377 22.752 108.851 24.8098 108.603 27.7463C108.389 30.2897 106.273 31.8563 105.926 32.1048V32.1164Z" fill="#F2F7F8"/>
<path d="M74.1273 45.4462C69.8209 45.4462 65.5664 44.6543 61.9421 43.1225C60.8091 42.6427 59.8784 41.9779 58.9767 41.3363C57.4853 40.2727 56.0806 39.2726 54.0864 39.446C52.8609 39.5559 51.9765 39.9952 51.04 40.4634C49.8666 41.0472 48.5371 41.712 46.2596 41.8681C44.011 42.0184 42.2248 41.5906 41.3577 41.3189C40.6698 41.1051 40.0976 40.8623 39.6004 40.5732C38.7912 40.105 38.3172 39.7698 38.005 39.5501C37.5946 39.2611 37.4212 39.1397 37.0628 39.0819C36.2824 38.9605 35.768 39.5328 35.057 40.3247C34.3228 41.1455 33.4037 42.1687 31.7968 42.8739C30.1435 43.5965 28.6926 43.6947 27.4903 43.1571C26.5481 42.7409 25.9758 42.1687 25.8775 41.5444C25.785 40.949 26.1261 40.4172 26.3515 40.0704C26.4325 39.9432 26.5423 39.7698 26.525 39.7351C26.4151 39.6195 25.2995 40.4403 24.9353 40.7062C24.8082 40.7987 24.6925 40.8854 24.5943 40.9548C21.8196 42.9317 17.623 44.1167 15.6923 42.5906C15.0449 42.082 14.3801 41.0299 14.4379 39.9258C14.4726 39.3073 14.727 38.8564 14.9177 38.527C15.0622 38.2726 15.1721 38.0876 15.0911 37.9662C14.9235 37.7235 14.1431 37.9894 13.1604 38.3362C12.3627 38.6137 11.3685 38.9605 10.2644 39.2033C8.5476 39.579 6.40882 40.0472 4.47813 39.2784C1.82488 38.2206 -0.100025 34.8506 0.00402408 31.4285C0.142756 26.8214 4.11974 24.2491 5.10243 23.6711C10.2875 20.5959 15.9582 23.3878 16.3975 23.6133C15.3108 22.3011 14.9986 20.5496 15.6403 19.1334C16.5131 17.2085 18.993 16.2431 20.5884 16.9599C21.0971 17.1911 21.4381 17.5553 21.6636 17.8559C21.5306 17.2027 21.1433 14.85 22.5595 12.8442C22.8775 12.3875 23.4902 11.5494 24.6174 11.1447C24.7041 11.1158 26.7099 10.4279 28.288 11.6823C28.9065 12.1737 29.2187 12.7748 29.3632 13.1159C28.8545 9.83257 30.5944 6.65329 33.4847 5.41626C36.4847 4.12721 40.0571 5.2255 41.7219 7.56661C42.4676 8.61288 42.693 9.72273 42.7681 10.4684C42.8606 10.0869 43.1381 9.19094 43.9589 8.46259C44.9763 7.56084 46.433 7.25446 47.722 7.6591C49.277 8.14466 49.9591 9.46261 50.1383 9.80944C50.7337 10.9598 50.6643 12.0465 50.6123 12.4858C50.6816 11.4916 50.9071 9.99441 51.6643 8.37587C53.7858 3.8324 58.8206 1.1098 63.6242 0.92482C64.3178 0.895917 69.9538 0.751408 73.8326 4.75729C75.7632 6.75734 76.7401 9.24873 77.0696 10.2256C77.5783 11.7286 77.7344 12.9482 77.8616 13.9252C78.0176 15.1044 78.1101 15.8212 78.6997 16.0871C79.2893 16.353 79.8616 15.9194 80.7287 15.2604C81.6304 14.5783 82.8617 13.6361 84.7519 13.0639C85.7693 12.7575 88.1566 12.0291 90.7463 13.035C93.8504 14.2373 95.1799 17.1276 95.3244 17.457C95.8158 18.5842 95.8678 19.4513 95.9083 20.1507C95.9545 20.8791 95.9834 21.3589 96.4805 21.7057C97.0991 22.145 97.7985 21.9138 98.7581 21.5959C99.8159 21.249 101.128 20.8097 102.891 21.1161C103.429 21.2086 104.856 21.4514 106.198 22.5381C106.475 22.7635 108.926 24.8272 108.677 27.7695C108.475 30.203 106.562 31.758 105.978 32.1742C104.134 33.4979 102.221 33.4401 100.365 33.3939C98.4806 33.3418 96.706 33.2956 94.9949 34.5615C94.0065 35.2957 93.6308 36.0413 93.1972 36.9026C93.0065 37.2841 92.8099 37.6772 92.544 38.0992C90.411 41.5213 85.6883 44.0473 79.5899 45.0242C77.7922 45.3133 75.9655 45.452 74.1447 45.452L74.1273 45.4462ZM54.5372 39.3131C55.0633 39.3131 56.0113 39.0819 59.0403 41.2438C59.9362 41.8854 60.8611 42.5444 61.9825 43.0184C67.1156 45.1803 73.5204 45.8682 79.5495 44.9028C85.6132 43.9317 90.307 41.4288 92.4226 38.0356C92.6828 37.6136 92.8793 37.2263 93.07 36.8506C93.5094 35.972 93.8909 35.2147 94.9025 34.4633C96.6482 33.1684 98.5268 33.2205 100.348 33.2725C102.186 33.3245 104.082 33.3765 105.891 32.0759C106.463 31.6655 108.342 30.1452 108.544 27.7579C108.787 24.8734 106.383 22.8502 106.111 22.6306C104.793 21.567 103.388 21.3242 102.856 21.2375C101.122 20.9369 99.8275 21.3704 98.7812 21.7115C97.8216 22.0294 97.0644 22.278 96.3996 21.8098C95.8562 21.4282 95.8273 20.8964 95.7811 20.1681C95.7406 19.4802 95.6886 18.6247 95.2088 17.5148C95.0701 17.1911 93.7579 14.3414 90.7 13.1564C88.1451 12.1679 85.7866 12.8847 84.7808 13.191C82.9137 13.7575 81.6882 14.6882 80.7923 15.3703C79.9252 16.0293 79.3009 16.5033 78.6477 16.2085C77.9945 15.9137 77.8904 15.1391 77.7402 13.9598C77.613 12.9887 77.4569 11.7748 76.954 10.2777C76.0523 7.60707 74.4222 5.52031 73.7401 4.85555C69.792 1.01152 64.0288 1.73986 63.4797 1.82079C63.0115 1.89016 57.572 2.7399 55.1095 6.70532C54.6297 7.47412 53.6875 9.2892 52.8609 11.2025C51.9418 13.3355 51.4967 14.8038 50.9244 14.7691C50.3579 14.7344 50.462 13.272 49.0631 11.8211C48.7278 11.4685 48.0111 10.7228 46.9706 10.5031C44.959 10.0754 43.2075 11.9251 43.0167 12.1332C42.5601 11.5436 41.8086 10.6996 40.6929 9.95974C39.8027 9.37591 36.7911 7.38742 33.9471 8.64179C31.8835 9.55511 31.08 11.665 30.8488 12.2835C30.1667 14.087 30.3921 15.6882 30.5366 16.3934C30.4152 16.1969 29.3632 14.5494 27.392 14.3934C26.9296 14.3587 25.8833 14.3587 24.9758 15.0177C23.8081 15.8674 23.548 17.2894 23.3283 18.486C23.2127 19.116 23.1896 19.6536 23.1838 20.0351C22.8139 19.8155 22.23 19.5322 21.467 19.4166C20.9352 19.3357 19.3109 19.0871 18.2878 20.1161C17.2415 21.1681 17.5421 22.8791 17.5883 23.1393C17.9004 24.9081 19.2704 25.8156 19.0623 26.0873C18.8311 26.3821 17.2299 25.2029 15.4958 24.5382C12.7731 23.4919 9.21814 23.5034 6.27009 25.0006C5.28741 25.5035 1.66303 27.3475 0.99827 31.2782C0.472245 34.3881 1.92315 38.053 4.51281 39.1975C6.85392 40.2264 10.0737 39.1513 10.2297 39.1166C11.328 38.8738 12.3165 38.5327 13.1142 38.2553C14.2645 37.8564 14.964 37.6136 15.1778 37.9316C15.2992 38.1108 15.1778 38.3188 15.0102 38.6137C14.8252 38.9316 14.5767 39.3709 14.5478 39.9605C14.49 41.0241 15.1374 42.0415 15.7559 42.5328C17.6461 44.0242 21.7792 42.845 24.5191 40.8912C24.6174 40.8218 24.733 40.7351 24.8602 40.6426C25.918 39.868 26.4498 39.527 26.6059 39.683C26.6926 39.7755 26.6059 39.9201 26.444 40.1628C26.2301 40.4981 25.9007 41.0068 25.9874 41.5559C26.0798 42.1398 26.629 42.6831 27.5308 43.0762C28.7042 43.5964 30.1262 43.4982 31.7447 42.7872C33.3286 42.0935 34.2361 41.0819 34.9645 40.2669C35.6755 39.475 36.2304 38.8507 37.0744 38.9836C37.4617 39.0472 37.6524 39.1801 38.0686 39.4692C38.3981 39.7004 38.8548 40.0183 39.6525 40.4865C40.1438 40.7698 40.7103 41.0126 41.3866 41.2264C42.2421 41.4924 44.0167 41.9201 46.2422 41.7698C47.1787 41.7062 47.9533 41.5559 48.6238 41.3594C49.6296 41.0646 50.0285 40.7813 50.9822 40.3767C52.4505 39.7466 53.4274 39.3304 54.5372 39.3247V39.3131Z" fill="white"/>
<path d="M29.6864 32.9369C26.3626 34.0063 24.1371 30.5496 17.8364 29.1333C12.7496 27.9946 9.31593 29.1565 8.57602 29.4282C7.09044 29.9657 3.50653 31.2606 2.95738 34.2086C2.70882 35.5439 3.10767 37.0815 4.04411 38.1105C6.15978 40.4227 10.5819 39.3937 11.1137 39.2666C12.7322 38.8677 13.871 38.1394 14.2409 38.5729C14.6224 39.018 13.5704 40.0065 13.6397 41.44C13.7149 42.9892 15.056 44.0933 15.6976 44.6193C18.7959 47.1685 25.3395 47.1107 28.8656 47.0067C38.5248 46.7234 43.5885 46.5153 49.7332 43.5441C51.6696 42.6077 53.1841 41.6539 54.1899 40.966C56.479 42.3071 59.2074 43.6019 62.3751 44.5731C64.959 45.365 74.9304 48.4229 85.0116 44.4285C89.2487 42.7464 88.4336 41.8331 92.5551 40.4747C98.0177 38.6769 101.694 39.544 105.931 36.4226C107.087 35.5728 107.983 34.6422 108.556 33.3705C108.631 33.2028 110.093 29.7808 108.232 27.0119C106.677 24.6997 103.816 24.3413 103.388 24.2951C98.2489 23.7286 96.0523 29.1218 90.3065 29.4397C87.74 29.5784 85.578 28.6478 84.1329 27.8212C83.0288 29.0351 74.3812 38.2145 62.4387 36.7694C58.138 36.2491 54.8142 34.5208 52.6754 33.1103C51.5482 33.7346 49.9066 34.5266 47.8256 35.1682C45.8487 35.7751 43.5769 36.4746 41.3572 36.1971C36.6577 35.6133 33.8195 30.8733 33.1663 29.7172C32.5882 30.7692 31.5015 32.3589 29.6922 32.9427L29.6864 32.9369Z" fill="#CEEAF0"/>
<path d="M138.313 31.1567C132.191 36.3302 120.26 34.7695 111.826 31.0873C109.248 29.9601 107.294 28.7693 106.167 28.0352C107.15 28.1103 107.832 27.9947 108.052 27.5959C108.607 26.5669 106.098 23.5495 103.057 22.4165C100.196 21.3529 97.5195 22.1911 96.4559 22.5957C96.2247 21.5899 95.5368 19.2662 93.4558 17.2661C92.9992 16.8326 90.1494 14.1851 86.1782 14.3412C84.1377 14.4221 82.6116 15.214 80.3572 16.3875C78.7965 17.1968 77.5999 18.0407 76.8022 18.6477C75.5594 17.8211 73.4727 16.6534 70.6633 16.0638C69.3165 15.7805 64.906 14.9135 60.1891 17.0754C59.1428 17.5552 55.8826 19.2026 53.5184 22.694C51.3102 25.9542 51.4432 28.5612 49.9171 28.8156C48.3564 29.0757 47.8535 26.3993 44.7436 25.2201C41.599 24.0351 38.4602 25.3877 37.8764 25.6363C34.0901 27.2664 32.8473 30.7 32.4427 30.4688C31.9282 30.1682 33.0265 23.9715 37.9168 21.4454C38.3388 21.2258 42.2349 19.2951 46.0442 21.0813C47.0905 21.5726 47.8477 22.2027 48.3333 22.694C48.1252 22.272 47.8304 21.5206 47.9055 20.5957C48.0558 18.7575 49.605 17.1158 51.4779 16.769C53.2294 16.4453 54.6051 17.376 54.9173 17.5956C54.6976 17.1274 54.3912 16.2892 54.5531 15.3123C54.8826 13.2834 57.0214 11.6648 59.1255 11.792C60.4319 11.8729 61.3567 12.6013 61.7614 12.9654C61.7614 12.2197 61.8654 10.9133 62.6227 9.58383C64.0562 7.06932 67.1893 5.59529 70.172 6.12132C73.2357 6.66469 74.8484 9.08672 75.149 9.55494C75.3166 9.20233 75.7791 8.36415 76.7444 7.89015C78.2242 7.15603 79.7214 7.8497 80.1838 8.06358C82.2648 9.02314 82.8833 11.2024 82.9758 11.5723C83.3168 10.1503 84.1782 7.39304 86.5135 4.82649C87.4904 3.7571 90.6986 0.335038 95.9935 0.0113298C96.3634 -0.0117922 102.184 -0.277692 106.156 3.82646C107.791 5.52015 108.595 7.41038 109.381 9.2717C110.364 11.5955 110.82 13.6706 111.046 15.1678C111.659 14.3065 113 12.6764 115.283 11.6359C115.601 11.4914 120.63 9.29482 124.393 11.9307C126.15 13.162 126.954 14.9713 127.636 16.5031C128.393 18.2083 128.682 19.7402 128.809 20.7749C129.856 20.3529 131.85 19.7228 134.324 20.0408C135.44 20.1853 137.041 20.3876 138.526 21.6015C138.677 21.7229 141.226 23.8732 140.983 26.7808C140.798 28.9947 139.116 30.4572 138.307 31.1393L138.313 31.1567Z" fill="white"/>
<path d="M99.6194 27.9601C102.463 27.0063 105.336 27.804 106.169 28.0294C109.625 28.989 111.805 31.2954 112.597 30.6017C112.92 30.3185 112.672 29.8329 112.724 28.7982C112.724 28.7982 112.839 26.4976 114.498 24.5322C116.308 22.3934 119.712 21.6535 122.499 22.5322C125.637 23.5206 127.031 26.2606 127.47 27.1161C130.158 32.3821 126.938 37.8042 126.736 38.1337C126.372 38.7176 125.013 40.8043 122.239 42.3593C120.996 43.0529 119.053 43.8738 105.25 43.3709C101.226 43.2263 99.2148 43.1512 97.7177 43.0009C95.2089 42.7581 94.284 42.5385 92.3938 42.631C89.3937 42.7812 89.0585 43.4691 86.7925 43.5501C85.9717 43.579 80.4744 43.7755 79.0813 40.6136C78.168 38.5384 79.3299 35.729 81.1103 34.2955C82.4283 33.2376 83.8965 33.0758 85.0699 32.9602C88.7117 32.6076 89.4573 34.3244 91.8447 34.0064C95.365 33.5324 95.2552 29.4283 99.6252 27.9658L99.6194 27.9601Z" fill="#CEEAF0"/>
<path d="M86.1464 43.6021C84.0019 43.6021 80.1925 43.2206 79.048 40.631C78.1 38.4806 79.3717 35.6539 81.0885 34.2666C82.4411 33.1799 83.9614 33.0296 85.0655 32.9198C87.0482 32.729 88.1812 33.151 89.1754 33.5209C90.0194 33.8389 90.7535 34.1106 91.8344 33.966C93.5686 33.7348 94.401 32.6307 95.3606 31.359C96.3143 30.0989 97.3953 28.6653 99.6034 27.9254C101.499 27.2896 103.708 27.3127 106.17 27.9948C107.846 28.4572 109.199 29.226 110.286 29.8445C111.384 30.4688 112.176 30.9139 112.563 30.5729C112.748 30.411 112.731 30.1625 112.702 29.7578C112.685 29.5035 112.662 29.1856 112.679 28.7925C112.679 28.7694 112.812 26.4514 114.465 24.5034C116.222 22.4224 119.604 21.5726 122.506 22.4917C125.656 23.486 127.043 26.2028 127.5 27.093C130.223 32.4342 126.905 37.9199 126.766 38.1511C126.165 39.128 124.778 40.9778 122.251 42.3882C120.806 43.1975 118.413 43.8854 105.245 43.4056C101.228 43.2611 99.2104 43.1859 97.7132 43.0356C97.0485 42.9721 96.4935 42.9085 96.008 42.8507C94.6669 42.7004 93.7825 42.5963 92.3952 42.6657C90.8171 42.7466 89.9558 42.9778 89.2043 43.1802C88.5164 43.3651 87.869 43.5443 86.7939 43.579C86.6031 43.5848 86.3834 43.5906 86.1407 43.5906L86.1464 43.6021ZM86.0251 32.9487C85.7302 32.9487 85.4181 32.966 85.077 32.9949C83.9787 33.1047 82.4701 33.2493 81.1348 34.3244C79.4353 35.6944 78.1809 38.4806 79.1116 40.602C80.366 43.4403 84.8979 43.5848 86.7881 43.5212C87.8517 43.4807 88.4991 43.3073 89.1812 43.1223C89.9384 42.9142 90.7997 42.683 92.3894 42.6021C93.7825 42.5327 94.6727 42.631 96.0138 42.7871C96.5051 42.8449 97.0542 42.9085 97.719 42.972C99.2161 43.1166 101.228 43.1917 105.239 43.342C117.5 43.7929 120.425 43.1744 121.696 42.6021C121.893 42.5154 122.026 42.4402 122.217 42.3362C126.003 40.1974 128.477 34.7522 126.893 30.1682C126.801 29.9023 125.049 25.0525 121.09 24.6016C119.28 24.3935 117.321 25.1392 116.049 26.4109C113.864 28.5844 114.534 31.4631 112.91 32.0238C112.032 32.3244 111.425 31.6307 109.673 30.7405C108.881 30.3359 102.973 27.411 98.9213 29.411C98.1641 29.7867 96.9328 30.596 95.8288 31.7405C94.6669 32.9487 94.2102 33.9313 92.927 34.2608C92.1004 34.4747 91.268 34.336 91.1177 34.3071C90.5743 34.2088 90.5338 34.0932 89.1523 33.6019C87.9846 33.1857 87.5511 33.1047 87.3546 33.0701C86.9615 33.0007 86.5222 32.9602 86.0251 32.9602V32.9487Z" fill="white"/>
</g>
</svg>
