<svg width="179" height="76" viewBox="0 0 179 76" fill="none" xmlns="http://www.w3.org/2000/svg">
<path d="M165.566 42.7996C162.273 42.8869 159.617 43.5159 157.878 44.0488C157.922 43.2451 158.062 38.4753 153.729 34.7363C149.483 31.0759 144.067 31.0934 142.59 31.1546C140.31 31.2419 138.292 32.0282 134.239 33.5395C131.164 34.6839 128.683 35.837 126.962 36.6932C125.372 34.7101 122.9 31.9932 119.414 29.3288C116.636 27.2059 114.522 25.5985 111.263 24.5764C105.969 22.9078 100.483 23.7377 97.3383 25.4762C94.3768 27.1098 92.647 29.6782 92.4636 29.9577C91.8259 30.9012 91.424 31.6438 91.1532 32.2116C90.5155 33.5395 90.4456 33.7142 90.3757 33.7491C89.9214 33.819 89.1527 30.6391 88.9081 29.6957C87.7637 25.1879 85.9728 21.2917 85.5535 20.4094C83.6665 16.4695 80.9584 14.0845 79.2548 12.5907C68.9639 3.54025 53.2742 6.13483 52.156 6.33576C47.2202 7.2443 35.1034 9.4807 30.2986 20.0512C26.7868 27.765 29.1979 35.4527 30.0715 37.89C30.054 37.89 28.071 38.1258 28.0535 38.1258C27.0401 38.2394 26.0355 38.3617 26.0355 38.3617C23.4671 38.4141 22.9954 37.9773 20.4095 37.89C18.4527 37.8288 16.2862 37.7502 14.2594 38.8771C13.7877 39.1392 11.5863 40.3623 11.0796 42.4851C10.5816 44.5817 12.1453 45.8659 11.2543 46.7832C10.5554 47.4995 9.39351 46.9317 7.45413 47.3772C5.5759 47.8053 3.64528 49.0633 2.61444 50.7842C1.40888 52.7935 1.74084 54.9076 2.20385 57.8341C2.39604 59.0834 2.72801 61.0664 3.89862 63.3116C5.57592 66.5089 7.93462 68.2561 9.18386 69.1646C14.3643 72.9211 22.9604 75.175 30.1327 72.1873C33.1291 70.9381 32.1419 70.3265 39.3403 66.0634C39.3403 66.0634 45.8311 62.3157 50.5223 62.7874C53.3353 63.067 53.0645 64.4123 55.7814 64.6132C60.8307 64.9889 63.1458 60.717 66.71 61.6255C69.0076 62.2021 68.3524 64.0891 71.4187 65.714C74.8083 67.5136 78.853 66.9283 81.5349 66.5351C85.3089 65.9848 87.9034 64.6656 88.4625 64.3774C91.4153 62.8311 91.6512 61.7129 93.3285 61.0315C97.2946 59.4328 102.23 63.7309 105.777 64.6656C122.699 69.1384 146.67 67.1554 153.58 60.3676C154.41 59.5464 154.62 58.6815 155.843 57.9215C161.215 54.5756 168.868 60.883 174.573 57.9302C177.447 56.4451 178.679 53.2041 178.705 50.793C178.705 50.2426 178.801 47.3335 176.364 45.202C173.411 42.6161 168.973 42.7297 165.575 42.8171L165.566 42.7996Z" fill="#F2F7F8"/>
<path d="M62.2991 66.9459C52.6896 70.3792 43.4644 74.7209 29.3297 74.6423C13.0459 74.5462 6.72976 68.6145 4.61566 66.2645C3.31401 64.8231 -0.503587 60.5774 0.0555137 55.0651C0.160345 53.9993 0.876698 48.5218 5.26214 46.731C7.79556 45.6914 10.2504 46.4165 11.1764 46.7485C10.9143 45.9447 9.96207 42.7124 11.6394 39.6985C13.7622 35.8897 18.7417 34.8501 22.3234 35.7936C24.3152 36.3177 25.713 37.4097 26.4817 38.1348C25.713 36.7807 24.752 34.7453 24.1755 32.1245C22.9 26.3325 24.4113 21.6239 25.0054 19.833C27.8009 11.4727 34.6324 7.07854 37.1745 5.43618C51.7286 -3.93749 68.1347 1.58363 69.0869 1.91559C72.5114 3.12989 83.2479 6.93875 87.974 17.8063C90.324 23.2051 90.2629 28.237 90.0008 31.1024C90.2891 29.7046 90.9617 27.4333 92.7351 25.3192C96.0286 21.388 100.772 20.8114 102.947 20.5406C109.307 19.7631 114.252 22.3752 116.628 23.6681C123.127 27.2149 126.482 32.5525 127.889 35.1908C128.649 34.3871 134.24 28.6738 142.609 29.3377C147.763 29.7483 153.904 32.5613 156.595 38.1872C157.661 40.4149 157.914 42.5115 157.958 43.9355C158.901 43.0269 161.758 40.5459 166.021 40.2838C170.695 39.9956 175.517 42.4766 177.605 46.5038C177.972 47.2027 178.74 48.7315 178.679 50.7845C178.566 54.9952 175.054 58.3498 171.944 59.6427C167.384 61.5384 162.544 59.4767 161.277 58.9875C146.732 53.2829 98.2126 54.1041 62.2816 66.9547L62.2991 66.9459ZM133.418 66.6489C133.418 66.6489 147.37 66.3344 153.502 60.2979C153.808 59.9921 154.035 59.6776 154.254 59.3719C154.621 58.8565 154.996 58.3236 155.774 57.8431C158.543 56.1134 161.959 56.9345 165.27 57.7295C168.45 58.4895 171.743 59.2845 174.512 57.8518C177.308 56.4104 178.575 53.2655 178.601 50.7845C178.417 49.9895 178.042 48.8713 177.229 47.7443C173.822 43.0007 166.641 43.6821 165.899 43.7607C161.67 44.2238 158.761 46.5126 157.495 47.657C157.075 46.0845 155.922 42.6164 152.751 39.5413C151.703 38.5279 148.68 35.5752 144.085 34.9986C138.835 34.3347 134.537 36.9991 130.221 39.716C128.745 40.642 127.583 41.5244 126.77 42.1795C126.342 40.3101 124.578 33.6969 118.462 29.9143C110.024 24.6814 98.4746 31.0587 94.1678 33.3475C91.5995 34.7103 89.6426 36.1081 88.4021 37.0778C88.437 35.7324 88.472 29.1281 83.4139 24.0263C82.1646 22.7683 79.1595 19.7282 74.9662 19.4224C66.2565 18.776 63.9327 30.7093 53.0827 32.0895C47.1684 32.8408 44.4166 29.7308 39.6468 32.0895C36.0301 33.8804 34.0645 37.4185 32.9551 40.2664C31.5486 39.7684 26.9447 38.3445 22.3933 40.4935C21.0829 41.1138 18.7242 42.2232 17.6759 44.8353C16.9596 46.6174 17.178 48.2772 17.3527 49.1246C16.4267 49.5177 11.7355 51.6318 9.74368 56.9083C9.48161 57.5985 8.04016 61.4248 9.36802 65.024C11.7617 71.4974 21.6158 73.1048 24.455 73.5678C37.6812 75.7343 43.0888 69.1299 71.4718 65.653C71.4718 65.653 72.1096 65.5569 72.9657 65.4783C76.8008 65.1289 83.6061 65.3909 133.427 66.6664L133.418 66.6489Z" fill="white"/>
<path d="M167.352 56.7948C166.067 56.8559 161.324 56.9433 157.314 53.9206C155.89 52.8461 154.859 51.6056 154.178 50.7932C152.002 48.1811 152.099 47.1765 150.526 45.3594C148.124 42.5901 145.031 41.6204 144.254 41.3846C140.786 40.345 137.842 41.0788 136.077 41.5418C131.412 42.7648 128.38 45.5429 126.957 47.0717C124.86 45.1934 118.116 39.6461 107.807 38.9036C99.351 38.3008 92.9825 41.2535 90.3617 42.66C88.9115 41.3846 86.6576 39.8208 83.801 39.6636C79.5466 39.4277 76.7249 42.6425 73.51 44.7741C70.0069 47.1066 64.18 49.4304 54.3084 48.4519C53.4872 49.5527 48.4466 56.0784 39.2826 57.0831C29.5246 58.1576 22.9202 52.121 21.9854 51.2387C20.7711 51.4484 18.8492 51.9376 16.8225 53.1781C15.6169 53.9206 13.6426 55.1087 12.6991 57.1355C10.9345 60.9269 13.3456 65.1289 13.9396 66.1684C17.7048 72.7291 26.5106 74.1793 29.3236 74.6423C41.9296 76.7127 53.5397 71.5673 64.2761 71.1217C65.9447 71.0518 68.1636 70.9645 71.0902 71.3401C73.9206 71.707 74.9253 72.1962 77.7644 72.5806C77.7644 72.5806 80.7259 72.9825 84.7532 72.8514C92.4146 72.5981 106.156 68.7193 107.807 68.2651C128.948 62.4556 152.291 73.2533 156.79 66.6838C157.069 66.2733 157.672 65.1114 159.052 64.2378C161.918 62.4207 164.006 63.6962 168.33 62.7614C169.536 62.4993 173.781 61.5296 176.542 58.0353C177.031 57.415 178.368 55.6329 178.761 52.9335C178.997 51.361 178.822 50.0419 178.647 49.1945C178.385 50.1817 177.861 51.6406 176.708 53.0208C173.834 56.4715 169.352 56.6987 167.36 56.7948H167.352Z" fill="#CEEAF0"/>
<path d="M144.179 68.9375C144.704 69.3044 145.464 68.3959 146.966 68.0639C148.643 67.6882 150.251 67.8979 151.028 67.994C151.71 68.0813 153.37 68.291 154.663 69.0511C156.549 70.1518 156.995 72.0038 155.938 73.3579C154.505 75.2011 150.653 75.9437 147.945 75.9961C143.026 76.1009 142.074 73.9519 137.077 73.882C132.989 73.8296 132.805 75.14 127.005 75.7253C125.153 75.9175 118.19 76.6164 113.997 74.345C113.315 73.9781 110.721 72.4493 111.507 70.9205C112.049 69.8635 114.075 69.051 115.91 68.8763C117.474 68.7278 118.653 69.2607 118.898 68.8064C119.081 68.457 118.461 68.0726 118.103 67.0418C117.631 65.6964 118.024 64.421 118.164 63.958C118.697 62.2108 119.955 61.2586 120.348 60.9703C122.637 59.2843 125.834 59.4677 127.983 60.5335C130.385 61.7216 131.722 63.9056 131.722 63.9056C132.395 65.0063 132.508 65.7925 133.277 66.0546C134.229 66.3866 134.526 65.3645 136.675 64.9888C138.536 64.6656 140.239 65.1024 140.519 65.181C140.571 65.1985 140.615 65.2072 140.65 65.216C140.999 65.3121 143.105 65.9236 143.786 67.4698C144.144 68.2823 143.821 68.6929 144.179 68.9462V68.9375Z" fill="#CEEAF0"/>
<path d="M88.4372 71.7944C87.6684 71.576 86.5502 71.2353 85.1612 70.7373C84.4798 70.4927 83.9382 70.2831 83.4752 70.0996C82.3133 69.6453 81.6144 69.3745 80.2866 69.1998C78.6355 68.9814 77.6745 69.1299 76.3379 69.3396C75.473 69.4794 74.3898 69.6453 72.8523 69.7414C66.6148 70.152 60.2288 70.5888 57.9662 67.339C56.6209 65.4084 56.9529 62.4731 58.0623 60.5338C59.958 57.2316 64.7715 55.6853 69.6112 57.4412C69.917 56.0697 70.5372 54.2351 71.8913 52.4792C75.0188 48.4432 80.9942 46.1981 85.8688 48.0064C87.6946 48.6791 88.9351 49.7711 89.6078 50.4437C90.8134 48.6267 93.5565 45.0624 98.3787 42.9658C104.669 40.2402 110.478 41.7864 113.675 42.6338C120.288 44.3897 124.674 48.1112 126.849 50.2777C127.068 50.0768 131.138 46.4689 136.441 47.9977C139.936 49.011 142.626 51.8589 143.447 55.4319C145.186 54.7331 147.457 54.1391 150.104 54.174C151.782 54.1915 155.424 54.2875 158.727 56.7773C160.142 57.8431 162.203 59.3981 162.282 61.6083C162.404 64.9803 157.87 67.7147 155.363 68.4922C152.699 69.3134 149.746 69.4357 148.907 69.4532C147.274 69.4881 146.356 69.3483 145.553 69.2173C144.723 69.0862 143.998 68.9727 142.67 69.0775C141.089 69.1911 140.145 69.4968 139.237 69.7938C138.215 70.1171 137.166 70.4578 135.271 70.5277C133.523 70.5888 132.161 70.3879 131.077 70.2306C128.815 69.8987 127.635 69.4532 126.683 69.1037C125.766 68.763 125.093 68.5097 123.879 68.5097C122.403 68.5009 121.546 68.8678 120.655 69.2522C119.712 69.6541 118.733 70.0734 116.995 70.0384C115.947 70.0122 115.318 69.8375 114.654 69.6541C113.92 69.4531 113.169 69.2435 111.727 69.1649C109.578 69.06 107.901 69.3658 106.992 69.5318C105.271 69.8463 104.433 70.2394 103.463 70.6936C102.572 71.1042 101.559 71.576 99.7065 72.0827C98.833 72.3186 98.038 72.5369 97.2081 72.6942C96.8324 72.7641 95.7142 72.9388 94.465 72.9563C92.6304 72.9737 91.2414 72.5806 88.4547 71.7856L88.4372 71.7944Z" fill="white"/>
<path d="M126.203 53.5539C124.884 52.392 122.936 50.872 120.35 49.4917C119.153 48.854 114.934 46.6001 110.426 46.2332C101.847 45.5343 95.1468 51.9203 93.7491 53.318C89.4073 50.0071 84.2531 49.8586 81.6411 52.261C80.3045 53.4928 78.6534 56.3057 79.4746 58.2102C79.9288 59.2672 81.4052 60.6388 80.9509 61.3638C79.9201 60.6562 77.675 59.2585 74.6436 59.2498C74.0495 59.2498 69.0089 59.2323 67.8732 62.185C67.3229 63.6177 67.8208 65.4173 68.7905 66.5705C71.4899 69.794 78.2079 68.4487 78.601 68.3701C78.601 68.3701 81.2917 67.8022 83.8076 67.7935C84.5502 67.7935 85.2752 67.8896 85.2752 67.8896C87.4767 68.1779 87.7126 68.7719 92.3514 70.1347C95.8108 71.1481 96.7455 71.1918 97.4706 71.1394C99.1741 71.0258 100.118 70.458 101.306 70.7725C102.188 70.9996 102.092 71.4277 103.105 71.9868C104.468 72.7468 106.242 72.8691 106.652 72.8953C110.024 73.1312 112.776 71.5325 113.143 71.3053C115.143 70.0998 115.03 68.9991 117.004 68.6147C117.983 68.4225 118.847 68.5273 119.398 68.5972C121.966 68.903 122.499 70.0299 125.461 71.0345C126.701 71.4539 127.898 71.6897 128.588 71.7946C134.45 72.6419 137.77 68.4225 145.352 68.3788C149.196 68.3526 149.362 69.4359 152.787 69.1214C156.814 68.7545 161.322 66.8063 162.492 63.8274C163.375 61.5735 162.23 59.075 159.277 57.4676C156.936 56.1922 154.883 55.7641 151.633 55.6855C149.24 55.6243 145.667 55.8165 141.404 57.0745C140.853 56.0262 139.665 54.1567 137.429 52.9075C132.24 50.0246 126.518 53.3705 126.212 53.5539H126.203Z" fill="#F2F7F8"/>
<path d="M116.507 60.7959C117.032 61.1628 117.792 60.2542 119.294 59.9223C120.971 59.5466 122.579 59.7563 123.356 59.8524C124.038 59.9398 125.698 60.1494 126.991 60.9094C128.877 62.0102 129.323 63.8622 128.266 65.2163C126.833 67.0595 122.981 67.8021 120.273 67.8545C115.354 67.9593 114.402 65.8103 109.405 65.7404C105.317 65.688 105.133 66.9984 99.3325 67.5837C97.4805 67.7759 90.5179 68.4748 86.3247 66.2034C85.6433 65.8365 83.0487 64.3077 83.835 62.7789C84.3766 61.7219 86.4033 60.9094 88.2379 60.7347C89.8016 60.5862 90.981 61.1191 91.2256 60.6648C91.409 60.3154 90.7888 59.931 90.4306 58.9002C89.9589 57.5548 90.352 56.2794 90.4918 55.8164C91.0246 54.0692 92.2826 53.117 92.6757 52.8287C94.9646 51.1427 98.1619 51.3261 100.311 52.3919C102.713 53.58 104.05 55.764 104.05 55.764C104.723 56.8647 104.836 57.6509 105.605 57.913C106.557 58.245 106.854 57.2229 109.003 56.8472C110.864 56.524 112.567 56.9608 112.847 57.0394C112.899 57.0569 112.943 57.0656 112.978 57.0744C113.327 57.1705 115.433 57.782 116.114 59.3282C116.472 60.1407 116.149 60.5513 116.507 60.8046V60.7959Z" fill="white"/>
<path d="M109.509 67.1644C109.054 67.0159 108.46 66.7451 107.491 66.7888C104.547 66.9373 101.236 67.7148 98.8856 67.9856C95.9154 68.3263 93.5742 67.9419 93.5654 67.8109C93.5654 67.6536 96.8152 68.1079 100.755 66.7888C103.306 65.9326 103.638 65.1726 106.364 64.5436C107.849 64.2029 109.421 63.8535 111.299 64.2466C113.859 64.7795 113.877 66.0375 115.772 66.2908C118.664 66.6752 119.354 63.836 123.049 63.4254C126.037 63.0935 126.596 64.8406 129.496 64.3602C132.187 63.9146 132.239 62.3771 135.253 61.0929C138.293 59.8 142.696 59.634 145.501 61.7307C147.92 63.539 147.082 65.4697 149.248 66.9984C153.398 69.9337 160.369 65.2513 160.78 66.0724C161.199 66.9286 153.948 72.703 149.248 71.5499C147.947 71.2266 146.767 70.3618 144.741 70.5277C143.989 70.5889 142.74 70.8335 141.849 70.0997C141.482 69.7939 141.456 69.5668 141.15 69.4358C140.198 69.0252 138.765 70.6588 137.874 71.4276C134.214 74.5812 126.64 74.424 124.071 71.5499C123.565 70.982 123.206 70.2569 122.368 70.0997C121.023 69.8464 120.463 71.445 118.707 71.8032C116.864 72.1789 115.03 70.9121 113.466 69.8201C111.824 68.6757 111.308 67.7585 109.5 67.1644H109.509Z" fill="#CEEAF0"/>
</svg>
