<svg width="377" height="367" viewBox="0 0 377 367" fill="none" xmlns="http://www.w3.org/2000/svg">
<g clip-path="url(#clip0_93_2458)">
<path d="M332.077 315.559C322.467 325.467 313.868 331.291 307.285 335.688C243.076 378.569 169.678 366.21 146.985 361.985C110.373 355.17 79.4681 350.361 52.9143 326.368C-7.42451 271.846 -4.48886 158.109 41.6166 87.6528C47.0825 79.2986 93.1182 11.0481 166.675 1.43119C168.475 1.19551 169.816 1.06252 170.992 0.93744C182.371 -0.267306 252.885 -6.62679 310.383 41.5525C318.613 48.4492 331.858 60.889 344.141 79.8622C389.051 149.234 389.194 256.678 332.079 315.561L332.077 315.559Z" fill="#FFF1F2"/>
<path d="M96.3126 17.1929C87.5359 17.9566 80.8063 25.3089 80.7813 34.12C80.6286 88.0083 80.3758 273.883 83.8881 339.673C84.2606 346.643 89.9726 352.118 96.951 352.193C131.465 352.564 230.743 353.247 287.103 349.641C298.842 348.891 307.977 339.166 307.964 327.401C307.895 270.844 306.992 111.785 299.246 39.0798C298.318 30.3688 291.317 23.5695 282.584 22.8888C244.942 19.9553 144.981 12.9599 96.3126 17.1929Z" fill="#09005D"/>
<path d="M94.6334 48.2424C93.9554 94.3388 92.0256 247.684 95.3943 304.281C95.8867 312.553 102.311 319.084 110.245 319.36C142.907 320.499 226.665 322.702 274.393 317.45C282.986 316.505 289.555 309.054 289.784 300.032C290.978 252.99 294.202 110.168 290.928 54.2043C290.406 45.276 283.587 38.1529 275.038 37.5762C239.672 35.193 148.857 29.6959 108.272 33.0771C100.653 33.7117 94.7519 40.2621 94.6347 48.2438L94.6334 48.2424Z" fill="#91B3FA"/>
<path d="M173.551 25.2075C173.579 26.4807 174.595 27.509 175.868 27.5485C182.153 27.7394 199.858 28.2819 207.771 28.5663C209.331 28.6229 210.523 27.1943 210.194 25.6683C210.167 25.6196 209.964 23.663 207.965 23.5248C202.613 23.1522 186.463 22.1489 175.791 22.7651C173.599 22.8915 173.48 25.3839 173.551 25.2088V25.2075Z" fill="url(#paint0_linear_93_2458)"/>
<path d="M132.97 187.451C132.97 187.451 177.99 176.155 225.555 182.967C238.938 184.884 250.792 192.673 258.014 204.102C271.027 224.699 289.426 261.402 285.533 299.682L265.109 304.732C265.109 304.732 250.994 259.305 235.106 240.818C235.106 240.818 216.291 283.712 217.242 307.267C217.268 307.933 217.311 308.584 217.371 309.217C219.53 332.262 127.053 313.517 127.053 313.517L132.969 187.451H132.97Z" fill="url(#paint1_linear_93_2458)"/>
<path d="M181.64 148.997L172.055 179.532C171.164 182.372 172.05 185.415 174.277 187.131C179.408 191.082 189.548 197.374 201.937 197.193C204.204 197.16 206.11 195.224 206.268 192.85L209.674 141.814L181.64 148.997Z" fill="url(#paint2_linear_93_2458)"/>
<path d="M218.752 115.532C218.752 115.532 222.475 139.579 220.13 151.071C217.786 162.563 218.295 170.554 204.603 169.394C190.911 168.234 181.594 158.812 178.582 145.959C178.582 145.959 173.787 126.114 177.757 119.546C181.727 112.979 218.752 115.533 218.752 115.533V115.532Z" fill="url(#paint3_linear_93_2458)"/>
<path d="M185.186 139.022L186.841 139.457C186.841 139.457 183.696 123.673 190.335 122.789C196.973 121.906 221.983 123.303 229.317 116.224C236.387 109.4 234.741 97.7529 228.923 93.0853C228.555 92.7904 228.012 92.8575 227.694 93.2051L226.876 94.0939C226.317 94.7035 225.3 94.3217 225.279 93.4948C225.26 92.7101 224.32 92.2927 223.75 92.8325C221.52 94.9392 216.199 97.9201 204.261 97.03C187.321 95.7674 174.923 99.5001 171.727 110.598C171.524 111.301 170.666 111.492 170.159 110.966C169.157 109.925 167.338 109.083 164.223 110.557C158.807 113.122 158.079 123.278 165.713 133.794C166.075 134.293 165.883 135.014 165.296 135.208C163.232 135.893 159.887 137.933 165.74 143.363C171.727 148.918 175.956 149.595 177.616 149.606C178.063 149.608 178.445 149.302 178.531 148.863L180.521 138.806C180.623 138.286 181.143 137.961 181.657 138.095L185.185 139.022H185.186Z" fill="url(#paint4_linear_93_2458)"/>
<path d="M185.05 141.2C185.05 141.2 185.088 126.475 177.894 128.715C170.699 130.956 177.043 145.003 181.874 146.824L185.05 141.2Z" fill="url(#paint5_linear_93_2458)"/>
<path d="M134.849 284.177C132.855 270.092 145.839 244.494 151.871 236.637C153.596 234.39 154.561 231.643 154.585 228.81C154.761 208.863 146.388 196.052 132.971 187.451C132.971 187.451 84.2743 244.193 96.6738 287.838C98.0113 292.548 100.085 296.595 102.714 300.073C104.667 283.628 125.272 284.935 134.849 284.177Z" fill="url(#paint6_linear_93_2458)"/>
<path d="M135.097 283.516C129.619 283.525 104.424 284.387 102.098 299.422C123.829 328.169 183.727 317.798 183.727 317.798V306.611C183.727 306.611 146.18 299.791 136.634 284.373C136.304 283.84 135.725 283.514 135.097 283.516Z" fill="url(#paint7_linear_93_2458)"/>
<path d="M178.587 315.36C178.587 315.36 187.431 294.487 203.015 301.891C218.599 309.295 217.373 314.14 217.373 314.14L178.586 315.36H178.587Z" fill="url(#paint8_linear_93_2458)"/>
<path d="M176.599 319.691C176.723 321.27 178.068 322.472 179.652 322.416L260.406 319.599C261.66 319.555 262.752 318.723 263.126 317.525L265.47 310.023C266.046 308.179 264.732 306.289 262.803 306.186L233.355 304.622C233.087 304.607 232.819 304.63 232.558 304.688L178.908 316.572C177.468 316.89 176.483 318.222 176.599 319.692V319.691Z" fill="url(#paint9_linear_93_2458)"/>
<path d="M230.73 316.743L232.953 306.387L263.202 307.83L261.211 316.423L230.73 316.743Z" fill="url(#paint10_linear_93_2458)"/>
<path d="M215.223 205.277C213.511 219.268 205.809 276.113 203.605 292.354C203.294 294.639 205.108 296.648 207.412 296.581L338.058 292.842C339.768 292.793 341.225 291.588 341.596 289.919L361.919 198.378C362.457 195.958 360.531 193.696 358.056 193.84L218.71 202.004C216.908 202.109 215.441 203.485 215.223 205.276V205.277Z" fill="url(#paint11_linear_93_2458)"/>
<path d="M267.738 262.682L248.43 317.496L293.327 318.448L297.065 263.011C297.24 260.409 295.084 258.25 292.483 258.423L271.516 259.816C269.797 259.93 268.312 261.057 267.739 262.682H267.738Z" fill="url(#paint12_linear_93_2458)"/>
<path d="M230.227 318.277C229.732 319.784 230.855 321.337 232.443 321.337H302.755C304.043 321.337 305.087 320.293 305.087 319.005V315.988C305.087 314.661 303.981 313.601 302.655 313.658L232.343 316.674C231.373 316.717 230.53 317.355 230.227 318.277Z" fill="url(#paint13_linear_93_2458)"/>
<path d="M213.249 263.106L212.322 262.989L218.741 212.358C219.139 209.216 221.72 206.8 224.88 206.609L345.297 199.336L345.353 200.268L224.936 207.542C222.226 207.705 220.009 209.78 219.668 212.475L213.249 263.106Z" fill="#91B3FA"/>
<path d="M210.49 277.41L209.109 288.373L210.037 288.489L211.418 277.527L210.49 277.41Z" fill="#91B3FA"/>
<path d="M205.929 156.724C191.42 157.82 182.987 142.816 182.904 142.664L183.876 142.13C183.956 142.274 192.055 156.66 205.846 155.619L205.93 156.725L205.929 156.724Z" fill="url(#paint14_linear_93_2458)"/>
<path d="M211.843 156.163C211.843 157.022 211.146 157.72 210.286 157.72H206.134C205.274 157.72 204.576 157.024 204.576 156.163C204.576 155.303 205.273 154.605 206.134 154.605H210.286C211.145 154.605 211.843 155.302 211.843 156.163Z" fill="url(#paint15_linear_93_2458)"/>
<path d="M183.903 126.019C183.903 126.019 189.111 99.3053 204.451 96.7852C204.451 96.7852 200.105 94.5969 195.577 96.9708C191.048 99.3434 179.599 112.347 180.067 126.677C183.181 127.799 183.903 126.019 183.903 126.019Z" fill="url(#paint16_linear_93_2458)"/>
<path d="M181.238 124.755C173.262 126.375 174.243 136.462 174.243 136.462C173.667 143.782 175.804 147.411 178.542 149.141C180.413 150.322 182.767 150.431 184.741 149.436C186.716 148.439 188.023 146.48 188.186 144.273C188.334 142.281 188.502 140.388 188.65 139.715C189.008 138.085 189.213 123.137 181.237 124.756L181.238 124.755Z" fill="url(#paint17_linear_93_2458)"/>
<path d="M181.97 127.305C180.314 127.017 178.681 127.898 178.015 129.441C173.249 140.485 179.101 147.669 181.974 147.819C185.002 147.977 184.941 133.406 184.297 129.67C184.027 128.105 183.034 127.491 181.969 127.305H181.97Z" fill="url(#paint18_linear_93_2458)"/>
<path d="M297.075 173.802C324.226 173.802 346.236 151.788 346.236 124.633C346.236 97.477 324.226 75.4631 297.075 75.4631C269.924 75.4631 247.914 97.477 247.914 124.633C247.914 151.788 269.924 173.802 297.075 173.802Z" fill="white"/>
<path d="M295.242 155.537C292.927 155.689 290.773 154.612 289.574 152.687L269.444 120.359C267.558 117.329 268.574 113.18 271.714 111.091C274.851 109.004 278.921 109.766 280.805 112.794L294.765 135.236L313.184 97.7147C314.838 94.348 318.809 92.8022 322.053 94.2637C325.297 95.7239 326.587 99.6344 324.936 103L301.132 151.527C300.042 153.748 297.875 155.278 295.474 155.519C295.396 155.527 295.319 155.533 295.241 155.539L295.242 155.537Z" fill="url(#paint19_linear_93_2458)"/>
<path d="M136.761 353.893V295.574C136.761 287.912 130.604 281.676 122.944 281.593C99.9537 281.343 52.5357 281.33 13.7378 284.601C8.44306 285.047 4.32525 289.387 4.13305 294.697L0.508909 351.08C0.23904 358.538 6.13403 364.768 13.5943 364.91L123.409 366.997C130.742 367.137 136.762 361.229 136.762 353.893H136.761Z" fill="url(#paint20_linear_93_2458)"/>
<path d="M123.445 301.885C123.543 306.847 123.395 314.721 123.275 319.807C123.212 322.453 120.89 324.471 118.261 324.162L99.3399 321.944C96.8189 321.649 95.043 319.325 95.4195 316.814L97.7417 301.318C98.0721 299.118 99.9612 297.491 102.185 297.491H118.952C121.395 297.491 123.396 299.439 123.444 301.883L123.445 301.885Z" fill="white"/>
<path opacity="0.37" d="M74.0007 331.251L58.2179 332.954C56.009 333.192 54.1251 331.371 54.2871 329.155L57.7374 282.196C64.3538 281.987 70.8794 281.833 77.1772 281.726V327.713C77.1772 329.532 75.8081 331.056 74.0007 331.253V331.251Z" fill="white"/>
<path d="M67.5321 323.112C67.4834 323.957 66.7844 324.607 65.9484 324.607C65.9169 324.607 65.8866 324.607 65.855 324.605C64.9796 324.555 64.3108 323.803 64.3621 322.927L66.7423 281.944C67.8099 281.917 68.8683 281.894 69.9267 281.87L67.5321 323.112Z" fill="white"/>
<path d="M114.695 316.677C114.971 316.677 115.206 316.462 115.223 316.181L116.042 303.272C116.06 302.981 115.839 302.73 115.547 302.711C115.24 302.688 115.004 302.915 114.986 303.206L114.167 316.115C114.149 316.406 114.37 316.657 114.662 316.676C114.674 316.676 114.684 316.676 114.695 316.676V316.677Z" fill="url(#paint21_linear_93_2458)"/>
<path d="M113.012 316.677C113.296 316.677 113.532 316.452 113.541 316.165L113.97 303.009C113.979 302.717 113.75 302.472 113.458 302.462C113.121 302.445 112.921 302.682 112.912 302.975L112.483 316.131C112.473 316.423 112.703 316.668 112.995 316.677H113.012Z" fill="url(#paint22_linear_93_2458)"/>
<path d="M110.726 316.676C110.434 316.663 110.209 316.414 110.223 316.123C110.433 311.703 110.833 303.274 110.839 302.986C110.842 302.697 111.078 302.462 111.369 302.462C111.66 302.462 111.898 302.699 111.898 302.992C111.898 303.21 111.383 314.01 111.279 316.173C111.266 316.457 111.032 316.677 110.751 316.677C110.743 316.677 110.734 316.677 110.726 316.677V316.676Z" fill="url(#paint23_linear_93_2458)"/>
<path d="M107.224 317.207C107.792 317.207 108.262 316.756 108.28 316.185C108.728 303.438 108.649 303.151 108.598 302.96C108.445 302.395 107.858 302.064 107.298 302.218C106.781 302.36 106.457 302.861 106.527 303.379C106.561 304.145 106.324 311.561 106.165 316.11C106.144 316.694 106.601 317.185 107.185 317.204C107.197 317.204 107.211 317.204 107.223 317.204L107.224 317.207Z" fill="url(#paint24_linear_93_2458)"/>
<path d="M104.93 316.677C105.222 316.677 105.459 316.44 105.459 316.148V303.239C105.459 302.947 105.222 302.71 104.93 302.71C104.637 302.71 104.4 302.947 104.4 303.239V316.148C104.4 316.44 104.637 316.677 104.93 316.677Z" fill="url(#paint25_linear_93_2458)"/>
<path d="M103.078 316.677C103.365 316.677 103.601 316.448 103.607 316.16C103.709 311.674 103.946 304.348 104.158 303.467C104.251 303.301 104.25 303.089 104.138 302.918C103.977 302.672 103.65 302.606 103.405 302.767C103.116 302.956 102.843 303.135 102.549 316.136C102.542 316.428 102.774 316.671 103.066 316.677H103.078Z" fill="url(#paint26_linear_93_2458)"/>
<path d="M117.544 317.852C118.103 317.852 118.57 317.413 118.599 316.848L119.305 303.293C119.335 302.709 118.886 302.212 118.302 302.181C117.748 302.141 117.221 302.599 117.189 303.184L116.484 316.739C116.454 317.324 116.903 317.82 117.486 317.852C117.504 317.852 117.523 317.852 117.541 317.852H117.544Z" fill="url(#paint27_linear_93_2458)"/>
<path d="M107.87 274.972V234.016C107.87 228.635 103.547 224.257 98.1663 224.197C82.0202 224.021 48.721 224.013 21.4734 226.309C17.7558 226.623 14.8636 229.671 14.728 233.4L12.182 272.996C11.9925 278.233 16.1327 282.609 21.3721 282.709L98.4914 284.174C103.641 284.271 107.87 280.123 107.87 274.971V274.972Z" fill="url(#paint28_linear_93_2458)"/>
<path d="M98.5182 238.448C98.5867 241.933 98.484 247.462 98.3984 251.035C98.3537 252.893 96.7226 254.309 94.877 254.094L81.5889 252.536C79.8183 252.328 78.5716 250.697 78.8362 248.934L80.4673 238.051C80.699 236.507 82.0259 235.364 83.5872 235.364H95.3627C97.078 235.364 98.484 236.733 98.5169 238.449L98.5182 238.448Z" fill="white"/>
<path opacity="0.37" d="M63.7931 259.071L52.7087 260.266C51.158 260.433 49.835 259.155 49.9482 257.599L52.3717 224.621C57.0187 224.474 61.6013 224.366 66.0232 224.291V256.586C66.0232 257.863 65.0608 258.934 63.7918 259.071H63.7931Z" fill="white"/>
<path d="M59.2496 253.355C59.2154 253.949 58.7243 254.406 58.1372 254.406C58.1148 254.406 58.0938 254.406 58.0714 254.403C57.4566 254.367 56.9867 253.841 57.0235 253.226L58.6954 224.444C59.4444 224.425 60.1882 224.408 60.932 224.392L59.2496 253.355Z" fill="white"/>
<path d="M92.3726 248.836C92.5675 248.836 92.7307 248.685 92.7439 248.487L93.3192 239.422C93.3323 239.217 93.177 239.04 92.9716 239.028C92.7557 239.011 92.5912 239.172 92.578 239.376L92.0027 248.441C91.9896 248.645 92.1449 248.822 92.3503 248.835C92.3582 248.835 92.3661 248.835 92.374 248.835L92.3726 248.836Z" fill="url(#paint29_linear_93_2458)"/>
<path d="M91.1892 248.836C91.3893 248.836 91.5538 248.678 91.5604 248.477L91.8619 239.238C91.8684 239.032 91.7078 238.86 91.5025 238.853C91.2655 238.841 91.126 239.007 91.1181 239.213L90.8166 248.452C90.81 248.657 90.9706 248.829 91.176 248.836H91.1878H91.1892Z" fill="url(#paint30_linear_93_2458)"/>
<path d="M89.585 248.835C89.3796 248.826 89.2216 248.65 89.2309 248.446C89.3783 245.343 89.6587 239.423 89.664 239.22C89.6653 239.018 89.8311 238.852 90.0352 238.852C90.2392 238.852 90.4064 239.018 90.4064 239.223C90.4064 239.376 90.0444 246.961 89.972 248.479C89.9628 248.679 89.7982 248.833 89.6008 248.833C89.5955 248.833 89.5889 248.833 89.5837 248.833L89.585 248.835Z" fill="url(#paint31_linear_93_2458)"/>
<path d="M87.1258 249.207C87.5246 249.207 87.8537 248.891 87.8682 248.49C88.1828 239.538 88.1276 239.336 88.0907 239.203C87.9827 238.806 87.5707 238.573 87.1784 238.682C86.8151 238.782 86.5873 239.135 86.6374 239.498C86.6611 240.037 86.4952 245.244 86.3833 248.438C86.3688 248.848 86.69 249.193 87.0994 249.207C87.1086 249.207 87.1179 249.207 87.1258 249.207Z" fill="url(#paint32_linear_93_2458)"/>
<path d="M85.5158 248.836C85.7211 248.836 85.887 248.67 85.887 248.465V239.4C85.887 239.194 85.7211 239.028 85.5158 239.028C85.3104 239.028 85.1445 239.194 85.1445 239.4V248.465C85.1445 248.67 85.3104 248.836 85.5158 248.836Z" fill="url(#paint33_linear_93_2458)"/>
<path d="M84.2144 248.836C84.4158 248.836 84.5817 248.675 84.5856 248.473C84.6567 245.323 84.8226 240.178 84.9714 239.559C85.0372 239.442 85.0359 239.294 84.9582 239.173C84.8463 239.001 84.6159 238.953 84.4435 239.066C84.2407 239.199 84.0485 239.324 83.8419 248.456C83.8379 248.661 83.9998 248.831 84.2052 248.836H84.2144Z" fill="url(#paint34_linear_93_2458)"/>
<path d="M94.3724 249.662C94.7647 249.662 95.0938 249.353 95.1148 248.957L95.6111 239.438C95.6322 239.027 95.3176 238.678 94.9068 238.657C94.5172 238.629 94.1473 238.951 94.1262 239.361L93.6299 248.881C93.6088 249.292 93.9235 249.641 94.3342 249.662C94.3474 249.662 94.3605 249.662 94.3737 249.662H94.3724Z" fill="url(#paint35_linear_93_2458)"/>
</g>
<defs>
<linearGradient id="paint0_linear_93_2458" x1="173.537" y1="25.5682" x2="210.248" y2="25.5682" gradientUnits="userSpaceOnUse">
<stop stop-color="#4F52FF"/>
<stop offset="1" stop-color="#4042E2"/>
</linearGradient>
<linearGradient id="paint1_linear_93_2458" x1="285.757" y1="191.428" x2="104.585" y2="266.445" gradientUnits="userSpaceOnUse">
<stop stop-color="#9E1D22"/>
<stop offset="1" stop-color="#D3575C"/>
</linearGradient>
<linearGradient id="paint2_linear_93_2458" x1="173.9" y1="225.526" x2="195.911" y2="165.925" gradientUnits="userSpaceOnUse">
<stop stop-color="#FEBBBA"/>
<stop offset="1" stop-color="#FF928E"/>
</linearGradient>
<linearGradient id="paint3_linear_93_2458" x1="215.698" y1="135.034" x2="151.21" y2="162.006" gradientUnits="userSpaceOnUse">
<stop stop-color="#FEBBBA"/>
<stop offset="1" stop-color="#FF928E"/>
</linearGradient>
<linearGradient id="paint4_linear_93_2458" x1="211.915" y1="67.4604" x2="184.789" y2="148.825" gradientUnits="userSpaceOnUse">
<stop stop-color="#09005D"/>
<stop offset="1" stop-color="#1A0F91"/>
</linearGradient>
<linearGradient id="paint5_linear_93_2458" x1="211.324" y1="124.578" x2="146.837" y2="151.551" gradientUnits="userSpaceOnUse">
<stop stop-color="#FEBBBA"/>
<stop offset="1" stop-color="#FF928E"/>
</linearGradient>
<linearGradient id="paint6_linear_93_2458" x1="154.472" y1="196.018" x2="77.3742" y2="210.969" gradientUnits="userSpaceOnUse">
<stop stop-color="#9E1D22"/>
<stop offset="1" stop-color="#D3575C"/>
</linearGradient>
<linearGradient id="paint7_linear_93_2458" x1="129.099" y1="266.66" x2="162.394" y2="354.263" gradientUnits="userSpaceOnUse">
<stop stop-color="#FEBBBA"/>
<stop offset="1" stop-color="#FF928E"/>
</linearGradient>
<linearGradient id="paint8_linear_93_2458" x1="172.172" y1="246.396" x2="207.679" y2="339.82" gradientUnits="userSpaceOnUse">
<stop stop-color="#FEBBBA"/>
<stop offset="1" stop-color="#FF928E"/>
</linearGradient>
<linearGradient id="paint9_linear_93_2458" x1="208.87" y1="334.635" x2="254.979" y2="265.485" gradientUnits="userSpaceOnUse">
<stop stop-color="#4F52FF"/>
<stop offset="1" stop-color="#4042E2"/>
</linearGradient>
<linearGradient id="paint10_linear_93_2458" x1="224.605" y1="345.126" x2="270.714" y2="275.976" gradientUnits="userSpaceOnUse">
<stop stop-color="#4F52FF"/>
<stop offset="1" stop-color="#4042E2"/>
</linearGradient>
<linearGradient id="paint11_linear_93_2458" x1="257.093" y1="259.035" x2="419.125" y2="170.916" gradientUnits="userSpaceOnUse">
<stop stop-color="#4F52FF"/>
<stop offset="1" stop-color="#4042E2"/>
</linearGradient>
<linearGradient id="paint12_linear_93_2458" x1="274.966" y1="229.228" x2="272.255" y2="303.811" gradientUnits="userSpaceOnUse">
<stop stop-color="#4F52FF"/>
<stop offset="1" stop-color="#4042E2"/>
</linearGradient>
<linearGradient id="paint13_linear_93_2458" x1="252.095" y1="345.221" x2="321.989" y2="227.07" gradientUnits="userSpaceOnUse">
<stop stop-color="#4F52FF"/>
<stop offset="1" stop-color="#4042E2"/>
</linearGradient>
<linearGradient id="paint14_linear_93_2458" x1="182.363" y1="161.278" x2="201.366" y2="143.009" gradientUnits="userSpaceOnUse">
<stop stop-color="#4F52FF"/>
<stop offset="1" stop-color="#4042E2"/>
</linearGradient>
<linearGradient id="paint15_linear_93_2458" x1="204.577" y1="156.163" x2="211.843" y2="156.163" gradientUnits="userSpaceOnUse">
<stop stop-color="#4F52FF"/>
<stop offset="1" stop-color="#4042E2"/>
</linearGradient>
<linearGradient id="paint16_linear_93_2458" x1="245.826" y1="92.2341" x2="87.1327" y2="147.244" gradientUnits="userSpaceOnUse">
<stop stop-color="#4F52FF"/>
<stop offset="1" stop-color="#4042E2"/>
</linearGradient>
<linearGradient id="paint17_linear_93_2458" x1="206.024" y1="90.19" x2="180.256" y2="140.362" gradientUnits="userSpaceOnUse">
<stop stop-color="#4F52FF"/>
<stop offset="1" stop-color="#4042E2"/>
</linearGradient>
<linearGradient id="paint18_linear_93_2458" x1="195.496" y1="123.706" x2="220.359" y2="99.752" gradientUnits="userSpaceOnUse">
<stop stop-color="#4F52FF"/>
<stop offset="1" stop-color="#4042E2"/>
</linearGradient>
<linearGradient id="paint19_linear_93_2458" x1="325.544" y1="98.4171" x2="257.026" y2="121.493" gradientUnits="userSpaceOnUse">
<stop stop-color="#9E1D22"/>
<stop offset="1" stop-color="#D3575C"/>
</linearGradient>
<linearGradient id="paint20_linear_93_2458" x1="68.6312" y1="281.495" x2="68.6312" y2="367" gradientUnits="userSpaceOnUse">
<stop stop-color="#F9C98A"/>
<stop offset="1" stop-color="#DDA866"/>
</linearGradient>
<linearGradient id="paint21_linear_93_2458" x1="108.705" y1="300.394" x2="142.582" y2="349.613" gradientUnits="userSpaceOnUse">
<stop stop-color="#09005D"/>
<stop offset="1" stop-color="#1A0F91"/>
</linearGradient>
<linearGradient id="paint22_linear_93_2458" x1="107.488" y1="301.233" x2="141.365" y2="350.452" gradientUnits="userSpaceOnUse">
<stop stop-color="#09005D"/>
<stop offset="1" stop-color="#1A0F91"/>
</linearGradient>
<linearGradient id="paint23_linear_93_2458" x1="106.019" y1="302.244" x2="139.896" y2="351.463" gradientUnits="userSpaceOnUse">
<stop stop-color="#09005D"/>
<stop offset="1" stop-color="#1A0F91"/>
</linearGradient>
<linearGradient id="paint24_linear_93_2458" x1="103.478" y1="303.994" x2="137.355" y2="353.212" gradientUnits="userSpaceOnUse">
<stop stop-color="#09005D"/>
<stop offset="1" stop-color="#1A0F91"/>
</linearGradient>
<linearGradient id="paint25_linear_93_2458" x1="101.8" y1="305.147" x2="135.678" y2="354.365" gradientUnits="userSpaceOnUse">
<stop stop-color="#09005D"/>
<stop offset="1" stop-color="#1A0F91"/>
</linearGradient>
<linearGradient id="paint26_linear_93_2458" x1="100.761" y1="305.863" x2="134.638" y2="355.081" gradientUnits="userSpaceOnUse">
<stop stop-color="#09005D"/>
<stop offset="1" stop-color="#1A0F91"/>
</linearGradient>
<linearGradient id="paint27_linear_93_2458" x1="110.449" y1="299.195" x2="144.327" y2="348.414" gradientUnits="userSpaceOnUse">
<stop stop-color="#09005D"/>
<stop offset="1" stop-color="#1A0F91"/>
</linearGradient>
<linearGradient id="paint28_linear_93_2458" x1="60.0227" y1="224.128" x2="60.0227" y2="284.176" gradientUnits="userSpaceOnUse">
<stop stop-color="#F9C98A"/>
<stop offset="1" stop-color="#DDA866"/>
</linearGradient>
<linearGradient id="paint29_linear_93_2458" x1="88.1666" y1="237.401" x2="111.958" y2="271.966" gradientUnits="userSpaceOnUse">
<stop stop-color="#09005D"/>
<stop offset="1" stop-color="#1A0F91"/>
</linearGradient>
<linearGradient id="paint30_linear_93_2458" x1="87.3109" y1="237.989" x2="111.102" y2="272.555" gradientUnits="userSpaceOnUse">
<stop stop-color="#09005D"/>
<stop offset="1" stop-color="#1A0F91"/>
</linearGradient>
<linearGradient id="paint31_linear_93_2458" x1="86.2781" y1="238.7" x2="110.069" y2="273.266" gradientUnits="userSpaceOnUse">
<stop stop-color="#09005D"/>
<stop offset="1" stop-color="#1A0F91"/>
</linearGradient>
<linearGradient id="paint32_linear_93_2458" x1="84.4942" y1="239.929" x2="108.285" y2="274.494" gradientUnits="userSpaceOnUse">
<stop stop-color="#09005D"/>
<stop offset="1" stop-color="#1A0F91"/>
</linearGradient>
<linearGradient id="paint33_linear_93_2458" x1="83.3173" y1="240.739" x2="107.108" y2="275.304" gradientUnits="userSpaceOnUse">
<stop stop-color="#09005D"/>
<stop offset="1" stop-color="#1A0F91"/>
</linearGradient>
<linearGradient id="paint34_linear_93_2458" x1="82.586" y1="241.242" x2="106.377" y2="275.807" gradientUnits="userSpaceOnUse">
<stop stop-color="#09005D"/>
<stop offset="1" stop-color="#1A0F91"/>
</linearGradient>
<linearGradient id="paint35_linear_93_2458" x1="89.391" y1="236.558" x2="113.182" y2="271.123" gradientUnits="userSpaceOnUse">
<stop stop-color="#09005D"/>
<stop offset="1" stop-color="#1A0F91"/>
</linearGradient>
<clipPath id="clip0_93_2458">
<rect width="376" height="367" fill="white" transform="translate(0.5)"/>
</clipPath>
</defs>
</svg>
