<svg width="279" height="202" viewBox="0 0 279 202" fill="none" xmlns="http://www.w3.org/2000/svg">
<path d="M164.816 82.1832C164.073 82.051 114.927 49.4236 96.8346 58.2486C78.738 67.0595 115.503 94.9747 115.503 94.9747L164.802 82.1869L164.816 82.1832Z" fill="#A83237"/>
<path d="M59.5292 106.1C60.0053 106.078 71.5738 78.6944 62.9419 76.277C54.3241 73.856 39.7907 98.7198 39.7907 98.7198C39.7907 98.7198 50.6757 106.454 59.5254 106.086L59.5292 106.1Z" fill="#A83237"/>
<path d="M6.4938 68.7456C8.93135 67.6104 12.0205 67.4455 14.5807 67.7237C25.6172 68.9393 31.6347 77.5104 38.1838 85.3667C41.4869 89.3173 45.5913 93.0532 51.0007 93.1704C53.3169 93.2127 55.6071 92.7647 57.8833 92.3205C69.792 89.9883 81.6866 87.6598 93.486 84.9199C104.294 82.4156 114.977 79.3875 125.51 75.8571C129.297 74.5862 133.069 73.2592 136.808 71.8656C155.098 65.0669 173.01 54.106 192.696 52.07C208.044 50.4882 223.313 54.8481 238.132 59.1627C247.465 61.8894 257.853 65.4632 261.989 74.2671C268.724 88.5513 256.81 100.873 245.812 108.399C231.03 118.506 211.944 124.524 194.747 129.102C173.048 134.871 150.911 138.889 128.643 141.692C117.858 143.046 107.047 144.075 96.219 144.988C85.4831 145.906 74.7146 146.984 63.9365 147.07C54.7818 147.142 44.7254 146.493 36.6914 141.64C22.66 133.183 16.2026 117.348 10.7814 102.682C8.57718 96.7043 5.89981 90.9289 3.98321 84.8443C2.83912 81.2492 1.58556 77.0205 2.58117 73.2588C3.15776 71.0254 4.64458 69.6027 6.50787 68.7419L6.4938 68.7456Z" fill="#FFD5D8"/>
<path d="M71.6909 132.157C108.995 129.197 153.69 121.996 189.884 112.359C209.052 107.268 230.347 100.552 246.817 89.2699C252.418 85.4342 258.232 80.4866 262.184 74.7127C268.46 88.8034 256.695 100.949 245.808 108.386C231.03 118.507 211.944 124.525 194.743 129.089C162.288 137.725 129.156 142.369 95.6867 145.025C79.2252 146.333 51.5007 150.583 36.6738 141.631C31.9669 138.794 28.048 134.964 24.7021 130.573C39.5294 135.141 56.8714 133.296 71.6693 132.133L71.6909 132.157Z" fill="#9E1D22"/>
<path d="M176.899 119.213C185.584 117.895 186.04 150.688 176.039 152.042C174.134 152.297 94.5807 171.082 93.5018 152.27C92.437 133.453 176.881 119.202 176.881 119.202L176.899 119.213Z" fill="#144361"/>
<path d="M56.2063 118.185C56.2063 118.185 39.9145 148.461 30.0149 143.281C20.1294 138.096 33.2465 111.713 33.2465 111.713C33.2465 111.713 46.1866 108.171 56.2063 118.185Z" fill="#A83237"/>
<path d="M165.505 105.876C165.505 105.876 143.143 179.447 120.267 177.562C97.3955 175.691 110.62 120.251 110.62 120.251L165.501 105.862L165.505 105.876Z" fill="#A83237"/>
<path d="M182.645 83.0844C181.523 81.0349 180.368 78.6929 181.047 76.4473C181.692 74.301 183.809 72.9806 185.77 71.8675C193.144 67.6773 200.518 63.4871 207.891 59.2969C210.975 57.5366 214.076 55.7867 217.16 54.0265C217.289 53.9467 217.436 53.8771 217.579 53.7935C224.496 55.2091 231.37 57.1936 238.138 59.1763C243.335 60.6914 248.86 62.4797 253.454 65.2862C253.363 65.5665 253.259 65.8507 253.136 66.1245C251.715 69.5334 248.863 72.1051 245.979 74.3843C233.763 83.9999 219.1 90.5046 203.773 93.1203C198.831 93.9623 193.348 94.3016 189.168 91.52C186.181 89.5336 184.354 86.257 182.635 83.1022L182.645 83.0844Z" fill="#144361"/>
<path d="M144.851 96.415C145.622 101.541 148.664 103.558 153.8 102.77C158.926 101.999 163.265 98.0642 162.494 92.938C161.723 87.8118 157.172 85.8376 152.032 86.6124C146.906 87.3834 144.077 91.2747 144.848 96.401L144.851 96.415Z" fill="#144361"/>
<path d="M111.826 105.175C112.597 110.301 115.638 112.318 120.775 111.53C125.901 110.759 130.24 106.824 129.469 101.698C128.698 96.5718 124.147 94.5976 119.006 95.3724C113.88 96.1434 111.051 100.035 111.822 105.161L111.826 105.175Z" fill="#144361"/>
<path d="M80.6229 110.825C81.3939 115.951 84.4351 117.968 89.5716 117.18C94.6978 116.409 99.0367 112.474 98.2657 107.348C97.4947 102.222 92.9435 100.248 87.8033 101.022C82.663 101.797 79.8482 105.685 80.6192 110.811L80.6229 110.825Z" fill="#144361"/>
<path d="M27.6034 90.9144C25.0613 90.0288 21.9552 90.2435 20.035 92.1289C18.7711 93.3714 18.1875 95.1848 18.1925 96.9461C18.2085 99.3671 19.3183 101.766 21.1387 103.388C22.959 105.009 25.4364 105.821 27.8619 105.653C30.3335 105.488 32.7689 104.233 34.1209 102.138C37.4712 96.9324 32.2188 92.5098 27.6174 90.9106L27.6034 90.9144Z" fill="#9E1D22"/>
<path d="M178.508 48.1727C178.508 48.1727 174.559 39.0885 185.435 36.1744C185.435 36.1744 181.746 25.2311 194.681 22.0404C207.617 18.8496 210.232 30.1497 210.232 30.1497C210.232 30.1497 219.896 28.1108 222.653 36.344L178.508 48.1727Z" fill="#E1F1FF"/>
<path d="M56.1572 180.112C56.1572 180.112 52.4578 171.615 62.6377 168.887C62.6377 168.887 59.1803 158.639 71.2995 155.655C83.4187 152.672 85.8628 163.249 85.8628 163.249C85.8628 163.249 94.9086 161.341 97.4899 169.048L56.1601 180.122L56.1572 180.112Z" fill="#E1F1FF"/>
<path d="M46.8456 56.6294C46.8456 56.6294 44.8069 51.9325 50.4267 50.4267C50.4267 50.4267 48.5225 44.7759 55.2044 43.1232C61.8863 41.4705 63.2453 47.3132 63.2453 47.3132C63.2453 47.3132 68.2411 46.2614 69.6674 50.5143L46.8563 56.6265L46.8456 56.6294Z" fill="#E1F1FF"/>
</svg>
