<svg width="68" height="102" viewBox="0 0 68 102" fill="none" xmlns="http://www.w3.org/2000/svg">
<g clip-path="url(#clip0_93_682)">
<mask id="mask0_93_682" style="mask-type:luminance" maskUnits="userSpaceOnUse" x="0" y="0" width="68" height="102">
<path d="M67.3236 0.00854492L0.0429688 0.00854492L0.0429688 101.567H67.3236V0.00854492Z" fill="white"/>
</mask>
<g mask="url(#mask0_93_682)">
<path d="M23.9063 95.8934L23.4023 96.1839V95.6029L23.9063 95.3184V95.8934Z" fill="#4F2E16"/>
<path d="M43.5952 66.8978L41.0045 65.398L32.7048 60.5901L24.9447 65.0541L23.6523 65.8129L23.5219 65.89L22.3362 66.5718L13.918 71.4093L21.524 75.8081L22.2888 76.2527L22.4192 76.3298L23.6523 77.0412L24.8854 77.7585L33.0843 82.5012L41.461 77.6696L42.6941 76.9582L42.8186 76.8811L44.0576 76.1697L51.8356 71.682L43.5952 66.8978Z" fill="#FFDDA8"/>
<path d="M33.0902 82.4894L33.0783 101.567L24.8854 96.8656L24.8498 96.8478L23.4033 96.0178L22.9172 95.7392L22.2888 95.3835L21.524 94.9448L13.918 90.5816L13.9239 71.4153L22.2888 76.2528L22.9231 76.6144L23.4092 76.899L24.8913 77.7527L33.0902 82.4894Z" fill="#BC7C46"/>
<path d="M44.0513 76.1579L43.3755 76.5433L42.8953 76.8278L42.7945 76.8871L42.67 76.9582L41.4547 77.6696L33.0898 82.5012V101.579L41.4606 96.7766L42.8953 95.9526L43.3874 95.668L44.0573 95.2886L51.8471 90.8246V71.6702L44.0513 76.1579Z" fill="#DDA866"/>
<path d="M34.7125 97.5118L34.582 97.5889V95.3539L34.7125 95.2769V97.5118Z" fill="#9E1D22"/>
<path d="M35.1704 95.508L35.0815 95.6621L34.6487 95.3716L34.2219 96.1601L34.1211 96.1127L34.6487 95.1582L35.1704 95.508Z" fill="#9E1D22"/>
<path d="M35.9956 96.7708L35.8711 96.8479V94.6129L35.9956 94.5417V96.7708Z" fill="#9E1D22"/>
<path d="M36.4556 94.767L36.3607 94.9211L35.9339 94.6307L35.5011 95.4191L35.4062 95.3717L35.9339 94.4172L36.4556 94.767Z" fill="#9E1D22"/>
<path d="M36.4855 96.5632L34.1141 97.9445C34.0786 97.9445 34.0549 97.9446 34.0549 97.909C34.0537 97.8865 34.0585 97.8645 34.069 97.8444C34.0794 97.8248 34.095 97.8082 34.1141 97.7963L36.4855 96.415C36.521 96.415 36.5507 96.415 36.5507 96.4506C36.5496 96.4731 36.543 96.4951 36.5317 96.5146C36.5203 96.5342 36.5045 96.5508 36.4855 96.5632Z" fill="#9E1D22"/>
<path d="M36.4664 97.1679L34.0951 98.5255C33.8461 98.6677 33.6445 98.5255 33.6445 98.2646V95.5494C33.6531 95.3935 33.6984 95.2423 33.7767 95.1072C33.855 94.972 33.9641 94.8576 34.0951 94.7728L36.4664 93.4093C36.7154 93.267 36.917 93.4093 36.917 93.6702V96.3913C36.907 96.5466 36.8611 96.6978 36.7829 96.8323C36.7047 96.9675 36.5964 97.0819 36.4664 97.1679ZM34.0951 94.921C34.002 94.9815 33.9242 95.0633 33.8677 95.1588C33.8111 95.2542 33.7774 95.3615 33.769 95.4724V98.1935C33.769 98.395 33.9172 98.478 34.0951 98.3772L36.4664 97.0197C36.5601 96.9586 36.638 96.8762 36.6936 96.7796C36.7493 96.6829 36.7811 96.5738 36.7865 96.4624V93.7472C36.7865 93.5397 36.6443 93.4567 36.4664 93.5575L34.0951 94.921Z" fill="#9E1D22"/>
<path d="M40.6234 94.8026L38.2046 96.2017C37.9497 96.3499 37.7422 96.2313 37.7422 95.9349V93.1367C37.7517 92.9767 37.7984 92.8207 37.8787 92.682C37.959 92.5427 38.0706 92.4247 38.2046 92.3364L40.6293 90.9432C40.8842 90.795 41.0858 90.9432 41.0858 91.21V94.0023C41.0772 94.1629 41.0308 94.3188 40.9504 94.4576C40.8701 94.5969 40.758 94.7148 40.6234 94.8026ZM38.2046 92.4905C38.1053 92.5552 38.0232 92.6429 37.9653 92.7461C37.9075 92.8492 37.8756 92.9648 37.8726 93.0834V95.8815C37.8726 96.089 38.0208 96.178 38.2046 96.0772L40.6293 94.6781C40.7268 94.6123 40.8072 94.524 40.8639 94.4208C40.9206 94.3182 40.952 94.2026 40.9553 94.0853V91.3049C40.9553 91.0974 40.8071 91.0085 40.6293 91.1152L38.2046 92.4905Z" fill="#9E1D22"/>
<path d="M39.4149 94.7433C39.4077 94.7474 39.3995 94.7498 39.3911 94.7498C39.3828 94.7498 39.3745 94.7474 39.3673 94.7433C39.3601 94.7391 39.3541 94.7332 39.35 94.7255C39.3458 94.7184 39.3437 94.7101 39.3438 94.7018V92.698C39.352 92.6529 39.3775 92.612 39.4149 92.5854C39.4212 92.5812 39.4287 92.5782 39.4364 92.5782C39.4441 92.5776 39.4518 92.5794 39.4585 92.583C39.4653 92.5865 39.4709 92.5925 39.4747 92.599C39.4786 92.6055 39.4804 92.6132 39.4801 92.6209V94.6247C39.4786 94.6478 39.4719 94.6709 39.4607 94.6911C39.4494 94.7118 39.4338 94.7296 39.4149 94.7433Z" fill="#9E1D22"/>
<path d="M39.7088 94.5654L39.116 94.9152C39.0804 94.9152 39.0508 94.9152 39.0508 94.8796C39.052 94.8559 39.0584 94.8334 39.0697 94.8127C39.081 94.7925 39.0968 94.7747 39.116 94.7611L39.7088 94.4172C39.7503 94.4172 39.78 94.4172 39.78 94.4528C39.7782 94.4759 39.7708 94.4985 39.7584 94.518C39.746 94.5376 39.729 94.5542 39.7088 94.5654Z" fill="#9E1D22"/>
<path d="M40.0558 92.0339V92.9706C40.0479 93.1076 40.0078 93.2404 39.9388 93.3589C39.8698 93.4775 39.7738 93.5783 39.6586 93.6524L39.1725 93.931C38.9532 94.0614 38.7812 93.931 38.7812 93.7057V92.7691L39.0184 92.6327V93.6346C39.0184 93.6761 39.048 93.6939 39.0836 93.6702C39.1026 93.6577 39.1185 93.6411 39.1298 93.6215C39.1412 93.602 39.1477 93.58 39.1488 93.5575V92.5556L40.0558 92.0339Z" fill="#9E1D22"/>
<path d="M32.6515 60.8806L14.4219 71.4153L33.0843 82.0862L51.3317 71.6346L32.6515 60.8806Z" fill="#F9C98A"/>
<path d="M51.8333 71.8599V72.0081L33.082 82.8273V82.6791L51.8333 71.8599Z" fill="#BC7C46"/>
<path d="M42.8162 76.8693L42.6917 76.9464L23.5195 65.8722L23.65 65.7952L42.8162 76.8693Z" fill="#BC7C46"/>
<path d="M42.7945 76.8872V77.1955H42.6641V76.9584L42.7945 76.8872Z" fill="#BC7C46"/>
<path d="M44.0518 76.1401L44.0458 95.2768L41.4492 96.7648L41.4551 77.64L44.0518 76.1401Z" fill="#9E1D22"/>
<path d="M44.0572 76.158L42.8182 76.8694L42.6937 76.9464L41.4606 77.6578L22.3477 66.5541L23.5215 65.8723L23.6519 65.7952L24.9324 65.0542L44.0572 76.158Z" fill="#9E1D22"/>
<path d="M24.8897 77.7408L24.8838 96.8656L24.8482 96.8478L22.2812 95.3835L22.2872 76.241L24.8897 77.7408Z" fill="#9E1D22"/>
<path d="M43.5955 66.898L24.8857 77.7587L23.6585 77.0414L23.5222 76.9643L22.4254 76.33L22.2891 76.2529L38.0169 67.1351L39.1967 66.4474L41.0048 65.4041L42.0126 65.9791L42.6707 66.3644L43.5955 66.898Z" fill="#9E1D22"/>
<path d="M50.8208 79.1044L45.4023 82.2346V77.5749L50.8268 74.4507L50.8208 79.1044Z" fill="#D5EEFA"/>
<path d="M50.3049 75.8436L45.918 78.381V77.8593L50.3049 75.3279V75.8436Z" fill="#4F2E16"/>
<path d="M50.3049 76.7805L45.918 79.3178V79.0866L50.3049 76.5552V76.7805Z" fill="#B2AEAB"/>
<path d="M50.3049 77.397L45.918 79.9284V79.6972L50.3049 77.1658V77.397Z" fill="#B2AEAB"/>
<path d="M50.3049 78.0549L45.918 80.5863V80.3551L50.3049 77.8237V78.0549Z" fill="#B2AEAB"/>
<path d="M50.3049 78.6655L45.918 81.1969V80.9657L50.3049 78.4343V78.6655Z" fill="#B2AEAB"/>
<path d="M42.6692 66.3643L38.0155 67.135L32.9052 67.9828L32.8281 67.5026L39.1952 66.4473L42.0112 65.979L42.6692 66.3643Z" fill="#4F2E16"/>
<path d="M32.7698 66.9827L31.7227 67.5874L32.5323 68.9888L33.5795 68.3835L32.7698 66.9827Z" fill="#939899"/>
<path d="M32.4085 66.5362C32.3919 66.6263 32.3819 66.7176 32.3789 66.8089C32.3834 66.998 32.4132 67.1854 32.4678 67.3662C32.5355 67.3596 32.6032 67.3786 32.6575 67.4195C32.7891 67.5055 32.8989 67.6211 32.9781 67.7568C33.0573 67.8926 33.1038 68.045 33.114 68.2021C33.1166 68.272 33.1003 68.342 33.0666 68.4036C33.1922 68.5435 33.3381 68.6633 33.4994 68.7593C33.5803 68.8038 33.6658 68.8394 33.7543 68.866C33.8255 68.8986 33.9024 68.917 33.9807 68.92C34.059 68.9223 34.137 68.9099 34.2103 68.882C34.2837 68.8548 34.3508 68.8127 34.4078 68.7593C34.4649 68.7054 34.5107 68.6413 34.5427 68.5696C34.6062 68.422 34.6365 68.2619 34.6317 68.1013C34.6104 67.71 34.4973 67.3288 34.3017 66.9891C34.1061 66.6488 33.8332 66.3601 33.5053 66.1449C33.3692 66.0649 33.2177 66.0145 33.0607 65.9967C32.9372 65.9872 32.8136 66.0145 32.705 66.0738C32.6255 66.1254 32.5578 66.1929 32.5067 66.273C32.4556 66.3524 32.4221 66.4425 32.4085 66.5362Z" fill="#939899"/>
<path d="M31.8672 66.566L32.709 66.0799C32.8176 66.0206 32.9412 65.9933 33.0647 66.0028L34.5468 68.5757C34.492 68.6854 34.4078 68.7779 34.3037 68.8425L33.4619 69.3286L32.9817 68.5046C33.0213 68.4838 33.0527 68.4506 33.0706 68.4097C33.1043 68.3481 33.1206 68.2787 33.1181 68.2082C33.1079 68.0511 33.0613 67.8987 32.9821 67.7629C32.9029 67.6272 32.7931 67.5116 32.6616 67.4256C32.6072 67.3847 32.5395 67.3657 32.4719 67.3723C32.4309 67.3628 32.3883 67.3628 32.3474 67.3723L31.8672 66.566Z" fill="#939899"/>
<path d="M32.6509 66.643C32.5735 66.5915 32.487 66.5553 32.396 66.5363C32.3114 66.4972 32.2194 66.4771 32.1263 66.4771C32.0331 66.4771 31.9411 66.4972 31.8565 66.5363C31.7401 66.6176 31.6478 66.729 31.5894 66.8582C31.531 66.9875 31.5086 67.1304 31.5245 67.2714C31.5373 67.6473 31.6433 68.0137 31.8328 68.3385C31.9118 68.4838 32.0052 68.6207 32.1114 68.7476C32.2628 68.9355 32.4453 69.0956 32.6509 69.2219C32.7645 69.3043 32.898 69.3547 33.0376 69.3683C33.1773 69.3819 33.318 69.3582 33.4453 69.2989C33.5253 69.2485 33.5936 69.1821 33.6457 69.1033C33.6979 69.0245 33.7326 68.9355 33.7476 68.8425C33.7728 68.7541 33.7828 68.6616 33.7773 68.5698C33.7529 68.1832 33.6383 67.8074 33.4427 67.473C33.2471 67.1381 32.976 66.8541 32.6509 66.643ZM33.1074 68.2081C33.1099 68.2781 33.0936 68.348 33.06 68.4097C33.0382 68.4464 33.0076 68.4767 32.971 68.4986C32.9224 68.5265 32.8672 68.5413 32.811 68.5413C32.7548 68.5413 32.6996 68.5265 32.6509 68.4986C32.6097 68.4761 32.5718 68.4482 32.5383 68.4156C32.4141 68.3036 32.3186 68.1631 32.2596 68.0066C32.2189 67.9129 32.1967 67.8121 32.1944 67.7101C32.1923 67.6544 32.2036 67.5987 32.2273 67.5483C32.251 67.4979 32.2865 67.4534 32.3308 67.4197C32.3713 67.4072 32.4147 67.4072 32.4553 67.4197C32.523 67.4131 32.5906 67.4321 32.645 67.473C32.6853 67.4967 32.723 67.5246 32.7576 67.556L32.811 67.5086L33.143 67.8643L33.0363 67.9591C33.0753 68.0297 33.1032 68.1056 33.1192 68.1844L33.1074 68.2081Z" fill="#D1D1D1"/>
<path d="M23.4061 76.8991L23.4002 96.1839L22.9141 95.8934L22.92 76.6145L23.4061 76.8991Z" fill="#4F2E16"/>
<path d="M33.1588 67.8169L33.0521 67.9117C32.9931 67.757 32.8975 67.6183 32.7734 67.5086L32.8268 67.4612L33.1588 67.8169Z" fill="#D1D1D1"/>
<path d="M33.0534 67.9117L32.5495 68.3859L32.1226 68.7772L23.408 76.899L22.9219 76.6145L31.8144 68.3682L32.2412 67.9769L32.7451 67.5085C32.88 67.6153 32.986 67.7534 33.0534 67.9117Z" fill="#4F2E16"/>
<path d="M32.9888 67.7754C33.0229 67.8305 33.0489 67.8904 33.0659 67.9532L32.9414 67.8406L32.9888 67.7754Z" fill="#4F2E16"/>
<path d="M63.3766 32.6736L34.0195 66.5955C34.0952 66.6814 34.1645 66.7721 34.227 66.8682L63.3766 33.2071V32.6736Z" fill="#4F2E16"/>
<path d="M32.8274 68.0598L3.16797 32.4305L3.42882 32.2112L33.0527 67.9116L32.8274 68.0598Z" fill="#4F2E16"/>
<path d="M32.7737 67.9946L22.0078 42.651L22.3221 42.5146L33.0523 67.9116L32.7737 67.9946Z" fill="#4F2E16"/>
<path d="M32.9872 67.7752C33.0213 67.8304 33.0473 67.8903 33.0643 67.9531L32.9102 67.882L32.9754 67.7456L32.9872 67.7752Z" fill="#4F2E16"/>
<path d="M45.5661 42.0344L33.9347 66.5006C33.8532 66.4134 33.7639 66.334 33.668 66.2635L45.2579 41.8921L45.5661 42.0344Z" fill="#4F2E16"/>
<path d="M56.3622 7.53748C43.8415 -1.0645 23.537 -1.07043 11.0104 7.51969C-1.51614 16.1098 -1.52207 30.0473 11.0104 38.6434C23.5429 47.2395 43.8415 47.2454 56.3681 38.6434C68.8945 30.0414 68.8886 16.1336 56.3622 7.53748Z" fill="#A20F0F"/>
<path d="M67.0639 20.2479C66.1805 15.3214 62.9852 10.555 57.4779 6.77277C54.9666 5.07068 52.2495 3.69419 49.3916 2.67629C45.9011 1.4249 42.269 0.610478 38.5783 0.251606C36.95 0.0895656 35.3158 0.00854492 33.6756 0.00854492L33.1184 0.00854492C31.743 0.00854492 30.3617 0.0915415 28.9685 0.227893C27.5754 0.364245 26.4016 0.52431 25.1388 0.755514H25.0499C23.6627 1.0045 22.2992 1.31475 20.9594 1.68626C17.0184 2.75283 13.2793 4.45917 9.89116 6.7372C8.77966 7.49733 7.72193 8.33322 6.72543 9.23895C13.8394 5.19583 22.8208 3.47069 31.5177 4.06945C31.6785 4.00832 31.8428 3.95685 32.0098 3.91531C32.0413 3.91198 32.0731 3.91198 32.1046 3.91531C32.2835 3.86612 32.4658 3.83045 32.65 3.8086C32.8101 3.8086 32.9701 3.76118 33.1361 3.74932H33.4029C33.5985 3.74932 33.7883 3.74932 33.9957 3.74932H34.3396L34.6656 3.79082C34.7593 3.80134 34.8524 3.81718 34.9443 3.83825C34.9656 3.83215 34.9882 3.83215 35.0095 3.83825L35.2585 3.8916H35.3356C35.7501 3.9964 36.1488 4.15589 36.5212 4.36587C36.7173 4.47522 36.9002 4.60649 37.0666 4.75714C37.2343 4.88162 37.3744 5.03935 37.4783 5.22048C37.5821 5.4016 37.6476 5.60221 37.6704 5.80976C37.6932 6.01732 37.6729 6.22736 37.6109 6.42673C37.5488 6.62604 37.4463 6.81047 37.3097 6.9684C37.0873 7.23287 36.818 7.45393 36.5153 7.62052C35.7839 8.01327 34.9733 8.23618 34.144 8.27264C33.8183 8.29635 33.4914 8.29635 33.1658 8.27264C32.6425 8.23878 32.1261 8.1351 31.6303 7.96436C31.3633 7.8739 31.1053 7.75883 30.8597 7.62052C30.721 7.54126 30.5883 7.4521 30.4625 7.35374C27.2753 7.68846 24.1355 8.37846 21.1016 9.41088C18.1713 10.4838 15.3916 11.9304 12.8316 13.7148C5.2137 18.9792 2.01241 26.0932 3.2455 32.9167C5.04323 35.4691 7.29852 37.6661 9.89709 39.3964C10.5255 39.8351 11.1776 40.2441 11.8475 40.6354C15.4031 42.6988 19.2597 44.193 23.2773 45.0638C33.9483 47.4352 46.0421 46.0657 55.1065 40.914C55.9187 40.4516 56.7072 39.9655 57.4779 39.4438C65.0956 34.1854 68.2969 27.0595 67.0639 20.2479Z" fill="#D5EEFA"/>
<path d="M9.8962 6.76109C8.78469 7.52122 7.72696 8.35711 6.73047 9.26284C7.75014 8.69965 8.76389 8.18389 9.82506 7.71555C10.3423 7.02816 10.8985 6.37106 11.4909 5.74731C10.9514 6.06747 10.4179 6.40539 9.8962 6.76109Z" fill="#D5EEFA"/>
<path d="M9.15677 24.5815C10.3424 24.9846 11.9787 26.194 13.5912 25.3877C14.7768 24.5874 16.0099 24.2021 16.413 22.5718C17.2371 24.9905 18.0255 29.828 21.6537 29.0218C22.4599 29.0218 23.6693 27.4093 24.0724 26.1999C25.2581 31.0374 31.3288 32.6499 36.1662 31.8496C38.5791 31.0433 41.8159 30.243 42.6222 27.8183C43.4284 25.8027 45.0409 24.1902 45.0409 22.1746C45.0409 22.9808 45.4441 24.1902 46.2266 23.7871C47.0329 23.7871 46.2266 22.1746 46.6297 21.3683C50.661 23.7871 57.8936 25.4055 59.9329 20.1826C60.7451 17.7639 61.1186 14.5389 59.1326 12.1142C58.3263 11.3079 57.9469 10.0986 57.1169 9.29231C57.9232 9.69543 58.3026 8.48606 58.3026 8.10664C58.4566 7.98731 58.6012 7.85653 58.7354 7.71537C58.3323 7.40117 57.9173 7.0929 57.4786 6.79648C54.9686 5.08612 52.2514 3.70164 49.3923 2.67629C45.9018 1.4249 42.2697 0.610478 38.5791 0.251606C36.9508 0.0895656 35.3165 0.00854492 33.6763 0.00854492L33.1191 0.00854492C31.7438 0.00854492 30.3625 0.0915415 28.9693 0.227893C27.5761 0.364245 26.4023 0.52431 25.1395 0.755514H25.0506C23.6634 1.0045 22.2999 1.31475 20.9601 1.68626C17.631 2.59608 14.4403 3.95213 11.4747 5.71753C10.8875 6.35132 10.3373 7.01838 9.82667 7.71537C16.6617 4.77765 24.106 3.53694 31.5244 4.09909C31.6852 4.03797 31.8495 3.9865 32.0164 3.94496C32.0479 3.94162 32.0798 3.94162 32.1113 3.94496C32.2874 3.88603 32.4678 3.84045 32.6507 3.8086C32.8108 3.8086 32.9709 3.76118 33.1369 3.74932H33.4037C33.5993 3.74932 33.789 3.74932 33.9965 3.74932H34.3403L34.6664 3.79082C34.7601 3.80134 34.8531 3.81718 34.945 3.83825C34.9663 3.83215 34.9889 3.83215 35.0102 3.83825L35.2593 3.8916H35.3363C35.7508 3.9964 36.1495 4.15589 36.5219 4.36587C36.718 4.47522 36.901 4.60649 37.0674 4.75714C37.235 4.88162 37.3751 5.03935 37.4791 5.22048C37.5829 5.4016 37.6483 5.60221 37.6711 5.80976C37.694 6.01732 37.6737 6.22736 37.6116 6.42673C37.5496 6.62604 37.4471 6.81047 37.3105 6.9684C37.0881 7.23287 36.8188 7.45393 36.5161 7.62052C35.7846 8.01327 34.9741 8.23618 34.1447 8.27264C33.8191 8.29635 33.4921 8.29635 33.1665 8.27264C32.6433 8.23878 32.1268 8.1351 31.6311 7.96436C31.3641 7.8739 31.1061 7.75883 30.8604 7.62052C30.7218 7.54126 30.589 7.4521 30.4632 7.35374C27.2761 7.68846 24.1362 8.37846 21.1024 9.41088C18.172 10.4838 15.3924 11.9304 12.8323 13.7148C11.6119 14.5487 10.4584 15.4763 9.38204 16.4893H9.55397C7.15892 18.1314 5.52866 22.5658 9.15677 24.5815Z" fill="#EAF5F9"/>
<path d="M30.4743 7.38347C28.1928 7.69304 25.9349 8.15652 23.716 8.7707C19.832 9.78901 16.1535 11.4718 12.8434 13.7446C5.21369 18.9793 2.01239 26.0933 3.24549 32.9168C-1.97737 25.3167 -0.809492 16.1693 6.73134 9.26275C13.8453 5.21964 22.8268 3.4945 31.5236 4.09326C31.2999 4.17963 31.082 4.28063 30.8715 4.3956C29.4665 5.21371 29.3301 6.48236 30.4743 7.38347Z" fill="#9E1D22"/>
<path d="M36.8696 7.38935C39.1511 7.69887 41.409 8.16234 43.6279 8.77658C47.5127 9.79554 51.1914 11.4804 54.5005 13.7564C62.1183 18.9792 65.3196 26.0932 64.0687 32.9345C69.2916 25.3403 68.1296 16.187 60.5888 9.28049C53.4927 5.23141 44.5053 3.50034 35.8203 4.09317C36.0458 4.1779 36.2639 4.28101 36.4724 4.40145C37.8774 5.21363 38.0138 6.48231 36.8696 7.38935Z" fill="#9E1D22"/>
<path d="M23.2771 45.0637C19.2611 44.2022 15.4046 42.718 11.8472 40.6649C11.2829 36.484 11.6637 32.2296 12.9618 28.2154C15.7244 19.1747 24.5457 10.5668 31.6419 7.9939C32.1377 8.16463 32.6541 8.26832 33.1774 8.30217C28.2094 12.9441 21.3029 40.2796 23.2771 45.0637Z" fill="#9E1D22"/>
<path d="M43.7185 45.3779C47.7346 44.5168 51.5925 43.0368 55.1542 40.991C55.7173 36.8104 55.3385 32.5568 54.0456 28.5415C51.3186 19.5008 42.4676 10.8869 35.3773 8.30811C34.8795 8.47878 34.3611 8.58247 33.8359 8.61638C38.8098 13.2642 45.6985 40.5997 43.7185 45.3779Z" fill="#9E1D22"/>
<path d="M49.3914 2.67623C44.0974 1.88184 38.2047 2.53988 35.3828 3.93897H35.3353H35.2583C35.1812 3.93897 35.0982 3.9034 35.0093 3.88561C34.988 3.87952 34.9654 3.87952 34.9441 3.88561L34.7662 3.85004H34.6654C34.5581 3.82712 34.4491 3.81323 34.3394 3.80854C34.2407 3.80267 34.1417 3.80267 34.043 3.80854C34.043 3.21571 36.1712 1.43721 38.6078 0.328613C42.2851 0.664981 45.907 1.45347 49.3914 2.67623Z" fill="#CC0E0E"/>
<path d="M33.1178 3.74938C32.9518 3.74938 32.7917 3.78495 32.6317 3.80867C32.4552 3.83361 32.2809 3.87125 32.11 3.9213C29.7742 2.83049 25.1501 1.30098 20.9766 1.71004C22.3164 1.33853 23.6799 1.02828 25.0671 0.77929H25.156C26.4188 0.530303 27.6993 0.358382 28.9857 0.233887C30.4204 1.05792 32.6969 2.59929 33.1178 3.74938Z" fill="#CC0E0E"/>
<path d="M30.8723 4.39557C31.0828 4.28061 31.3006 4.17961 31.5244 4.09323C22.8275 3.5004 13.852 5.21961 6.7321 9.26272C6.22226 9.73699 5.74206 10.2172 5.28558 10.7033C4.25405 13.1517 4.54454 15.606 7.54428 16.9221C7.8918 17.0908 8.26404 17.2029 8.64695 17.2541C9.92699 15.9489 11.3329 14.7733 12.8442 13.7445C16.1543 11.4717 19.8328 9.78898 23.7168 8.77067C25.9357 8.15649 28.1936 7.69302 30.4751 7.38344C29.3309 6.48233 29.4672 5.21368 30.8723 4.39557Z" fill="#E51717"/>
<path d="M63.9917 14.118C63.7042 13.3032 63.3573 12.5107 62.9542 11.7467C62.2238 10.8692 61.4312 10.045 60.5829 9.28049C53.4927 5.23141 44.5053 3.50034 35.8203 4.09317C36.0458 4.1779 36.2639 4.28101 36.4724 4.40145C37.8774 5.21363 38.0138 6.48231 36.8696 7.36563C39.1511 7.67515 41.409 8.13863 43.6279 8.75286C47.5127 9.77183 51.1914 11.4567 54.5005 13.7327C56.9338 15.3669 59.0709 17.4038 60.82 19.7558C63.7664 19.6136 64.7268 16.6968 63.9917 14.118Z" fill="#E51717"/>
<path d="M33.1757 8.30827C32.6524 8.27442 32.136 8.17074 31.6402 8C25.3562 10.2706 17.7205 17.2838 14.1398 25.121C13.7604 25.9451 14.6378 27.8303 15.0646 28.5002C15.7629 29.6477 16.8748 30.4837 18.1711 30.8359C18.8689 30.9597 19.5843 30.9444 20.2761 30.7908C20.9679 30.6371 21.6225 30.3483 22.2023 29.9408C23.0619 29.4013 25.291 27.9133 25.5578 26.8758C27.6623 18.7718 30.668 10.644 33.1757 8.30827Z" fill="#E51717"/>
<path d="M35.6781 7.9939C35.1803 8.16457 34.6619 8.26826 34.1367 8.30217C36.8578 10.8454 40.148 20.1648 42.2526 28.8794C43.9955 30.5749 46.1357 31.8851 48.6671 31.0432C51.9217 29.8576 52.6272 27.1068 52.645 24.036C48.8805 16.6493 41.6657 10.1696 35.6781 7.9939Z" fill="#E51717"/>
<path d="M38.5765 0.251709C36.14 1.34845 34.0236 3.11509 34.0117 3.73164C34.1105 3.72577 34.2094 3.72577 34.3081 3.73164C34.4178 3.73633 34.5269 3.75021 34.6342 3.77313H34.735L34.9128 3.8087C34.9342 3.80261 34.9568 3.80261 34.978 3.8087C35.067 3.8087 35.15 3.8087 35.227 3.86206H35.3041H35.3516C38.1735 2.46297 44.0662 1.80493 49.3602 2.59932C45.8758 1.37657 42.2539 0.58808 38.5765 0.251709Z" fill="#E51717"/>
<path d="M33.1178 3.74938C32.9518 3.74938 32.7917 3.78495 32.6317 3.80867C32.4552 3.83361 32.2809 3.87125 32.11 3.9213C29.7742 2.83049 25.1501 1.30098 20.9766 1.71004C22.3164 1.33853 23.6799 1.02828 25.0671 0.77929H25.156C26.4188 0.530303 27.6993 0.358382 28.9857 0.233887C30.4204 1.05792 32.6969 2.59929 33.1178 3.74938Z" fill="#E51717"/>
</g>
</g>
<defs>
<clipPath id="clip0_93_682">
<rect width="67.583" height="101.967" fill="white" transform="translate(0.0429688 0.00854492)"/>
</clipPath>
</defs>
</svg>
