<svg width="1440" height="157" viewBox="0 0 1440 157" fill="none" xmlns="http://www.w3.org/2000/svg">
<g clip-path="url(#clip0_93_613)">
<path fill-rule="evenodd" clip-rule="evenodd" d="M347.356 91.241L336.589 58.7851C335.274 54.8937 331.082 52.741 327.219 54.0658C323.356 55.3905 321.219 59.6131 322.534 63.5045L333.383 95.9604C334.698 99.8518 338.89 102.004 342.753 100.68C346.616 99.355 348.753 95.1324 347.438 91.241H347.356Z" fill="#4D4645"/>
<path fill-rule="evenodd" clip-rule="evenodd" d="M429.548 133.963V12.0054H418.123V133.963H422.068V55.6387H425.603V133.963H429.548Z" fill="#332E2D"/>
<path d="M436.863 100.017H414.835V133.963H436.863V100.017Z" fill="#4D4645"/>
<path d="M335.027 89.916H369.384C374.644 89.916 378.918 94.2214 378.918 99.5203C378.918 104.819 374.644 109.125 369.384 109.125H335.027C329.767 109.125 325.493 104.819 325.493 99.5203C325.493 94.2214 329.767 89.916 335.027 89.916Z" fill="#332E2D"/>
<path fill-rule="evenodd" clip-rule="evenodd" d="M410.89 86.9355L417.383 109.87L388.37 110.036C397.246 96.7054 397.986 96.3743 410.972 86.9355H410.89Z" fill="#332E2D"/>
<path fill-rule="evenodd" clip-rule="evenodd" d="M406.781 93.8077L389.603 74.6819C388.534 73.44 386.562 73.3572 385.411 74.5163C384.26 75.6754 384.178 77.5797 385.247 78.7389L402.425 97.8647C403.493 99.1066 405.466 99.1894 406.617 98.0303C407.849 96.8711 407.849 94.9668 406.781 93.8077Z" fill="#332E2D"/>
<path fill-rule="evenodd" clip-rule="evenodd" d="M374.233 77.497L389.849 62.9249C391.74 61.1862 394.698 61.269 396.425 63.1733C398.151 65.0776 398.068 68.0583 396.178 69.797L380.562 84.369C378.671 86.1077 375.712 86.0249 373.986 84.1206C372.26 82.2163 372.342 79.2357 374.233 77.497Z" fill="#4D4645"/>
<path fill-rule="evenodd" clip-rule="evenodd" d="M383.109 13.1646H326.479C322.123 13.1646 318.589 16.7248 318.589 21.1129V126.181C318.589 130.569 322.123 134.129 326.479 134.129H416.397C420.753 134.129 425.685 130.32 424.287 126.181L391.082 21.1957C389.767 17.0559 387.548 13.2473 383.192 13.2473L383.109 13.1646ZM381.466 18.5463C385.411 18.5463 387.383 22.0237 388.616 25.8323L418.616 121.544C419.767 125.353 415.411 128.83 411.466 128.83H330.424C326.479 128.83 323.274 125.518 323.274 121.544V25.8323C323.274 21.8581 326.479 18.5463 330.424 18.5463H381.548H381.466Z" fill="#4D4645"/>
<path fill-rule="evenodd" clip-rule="evenodd" d="M318.589 100.431V125.187C318.589 130.072 322.123 134.129 326.479 134.129H416.397C420.753 134.129 425.849 129.824 424.288 125.187L416.89 103.081H324.096C321.63 103.081 319.986 102.418 318.507 100.431H318.589Z" fill="#CF3E3A"/>
<path d="M336.343 81.9678H307.411C303.825 81.9678 300.918 84.8962 300.918 88.5086V115.003C300.918 118.616 303.825 121.544 307.411 121.544H336.343C339.929 121.544 342.836 118.616 342.836 115.003V88.5086C342.836 84.8962 339.929 81.9678 336.343 81.9678Z" fill="#880006"/>
<path fill-rule="evenodd" clip-rule="evenodd" d="M318.589 117.321V125.27C318.589 130.155 322.123 134.212 326.479 134.212H416.397C420.753 134.212 425.849 129.906 424.287 125.27L421.657 117.321H318.589Z" fill="#880006"/>
<path fill-rule="evenodd" clip-rule="evenodd" d="M321.959 81.9678H307.493C303.877 81.9678 301 84.9484 301 88.5086V115.003C301 118.646 303.959 121.544 307.493 121.544H321.959V81.9678Z" fill="#CF3E3A"/>
<path d="M490.945 0.828125H429.219V53.6518H490.945V0.828125Z" fill="#F9C98A"/>
<path d="M460.123 0.828125H429.219V53.6518H460.123V0.828125Z" fill="#DDA866"/>
<path d="M492.589 0H427.74V9.35591H492.589V0Z" fill="#F0B567"/>
<path d="M460.123 0H427.74V9.35591H460.123V0Z" fill="#D89C52"/>
<path d="M487.411 13.6611H466.37V23.2654H487.411V13.6611Z" fill="#332E2D"/>
<path d="M470.151 14.9028H467.932V22.0233H470.151V14.9028Z" fill="#676767"/>
<path d="M474.178 14.9028H471.959V22.0233H474.178V14.9028Z" fill="#676767"/>
<path d="M478.288 14.9028H476.069V22.0233H478.288V14.9028Z" fill="#676767"/>
<path d="M482.069 14.9028H479.85V22.0233H482.069V14.9028Z" fill="#676767"/>
<path d="M485.85 14.9028H483.63V22.0233H485.85V14.9028Z" fill="#676767"/>
<path fill-rule="evenodd" clip-rule="evenodd" d="M493.575 53.5688H418.123V59.0334H505L493.575 53.5688Z" fill="#4D4645"/>
<path fill-rule="evenodd" clip-rule="evenodd" d="M420.836 152.923C431.438 152.923 440.151 144.147 440.151 133.466C440.151 122.786 431.438 114.009 420.836 114.009C410.233 114.009 401.521 122.786 401.521 133.466C401.521 144.147 410.233 152.923 420.836 152.923Z" fill="#332E2D"/>
<path fill-rule="evenodd" clip-rule="evenodd" d="M420.836 141.166C425.027 141.166 428.479 137.689 428.479 133.466C428.479 129.244 425.027 125.849 420.836 125.849C416.644 125.849 413.274 129.327 413.274 133.466C413.274 137.606 416.644 141.166 420.836 141.166Z" fill="#615654"/>
<path fill-rule="evenodd" clip-rule="evenodd" d="M420.835 106.641C431.931 106.641 441.466 113.513 445.493 123.2H440.808C437.109 115.914 429.548 110.946 420.918 110.946C412.287 110.946 404.726 115.914 401.027 123.2H396.342C400.37 113.513 409.904 106.641 421 106.641H420.835Z" fill="#332E2D"/>
<path fill-rule="evenodd" clip-rule="evenodd" d="M319.657 154C330.26 154 338.972 145.224 338.972 134.543C338.972 123.862 330.26 115.086 319.657 115.086C309.055 115.086 300.342 123.862 300.342 134.543C300.342 145.224 309.055 154 319.657 154Z" fill="#332E2D"/>
<path fill-rule="evenodd" clip-rule="evenodd" d="M319.658 142.16C323.849 142.16 327.219 138.766 327.219 134.543C327.219 130.32 323.767 126.926 319.658 126.926C315.548 126.926 312.014 130.403 312.014 134.543C312.014 138.683 315.466 142.16 319.658 142.16Z" fill="#615654"/>
<path fill-rule="evenodd" clip-rule="evenodd" d="M319.658 107.634C330.753 107.634 340.288 114.506 344.315 124.193H339.63C335.932 116.907 328.37 111.94 319.74 111.94C311.11 111.94 303.548 116.907 299.849 124.193H295C299.027 114.506 308.562 107.634 319.658 107.634Z" fill="#332E2D"/>
</g>
<line y1="155.5" x2="1440" y2="155.5" stroke="#8E8E8E" stroke-width="3" stroke-dasharray="12 12"/>
<defs>
<clipPath id="clip0_93_613">
<rect width="210" height="154" fill="white" transform="translate(295)"/>
</clipPath>
</defs>
</svg>
