<svg width="83" height="83" viewBox="0 0 83 83" fill="none" xmlns="http://www.w3.org/2000/svg">
<g clip-path="url(#clip0_93_871)">
<mask id="mask0_93_871" style="mask-type:luminance" maskUnits="userSpaceOnUse" x="0" y="0" width="82" height="82">
<path d="M81.9726 32.5859L49.3867 0L0.199214 49.1875L32.7851 81.7734L81.9726 32.5859Z" fill="white"/>
</mask>
<g mask="url(#mask0_93_871)">
<path d="M14.5046 57.9964L14.1199 57.8931L14.4012 57.6117L14.7831 57.7179L14.5046 57.9964Z" fill="#4F2E16"/>
<path d="M38.0841 53.4886L37.5558 51.5074L35.8646 45.1591L29.9441 43.5627L28.9507 43.3042L28.8502 43.2784L27.9457 43.0343L21.5256 41.3001L23.0789 47.1144L23.234 47.7001L23.2598 47.8006L23.5125 48.7424L23.7623 49.687L25.4362 55.955L31.8334 57.672L32.7752 57.9247L32.8728 57.9476L33.8174 58.2032L39.7581 59.7967L38.0841 53.4886Z" fill="#FFDDA8"/>
<path d="M25.4456 55.9522L16.2001 65.1861L14.509 58.9411L14.5003 58.9153L14.2017 57.8127L14.1012 57.4423L13.9692 56.9657L13.8112 56.3828L12.2407 50.5858L21.5263 41.3058L23.2347 47.7001L23.3668 48.1825L23.4644 48.5558L23.7688 49.687L25.4456 55.9522Z" fill="#BC7C46"/>
<path d="M33.819 58.1944L33.305 58.0537L32.9347 57.959L32.8571 57.9389L32.7624 57.913L31.8292 57.669L25.4378 55.9577L16.1981 65.1974L22.578 66.9259L23.672 67.2216L24.0481 67.3221L24.5563 67.4628L30.4912 69.0736L39.7682 59.7966L33.819 58.1944Z" fill="#DDA866"/>
<path d="M18.9534 64.0145L18.8529 63.9887L19.9353 62.9062L20.0358 62.9321L18.9534 64.0145Z" fill="#9E1D22"/>
<path d="M20.1474 63.2653L20.0297 63.2968L19.9608 62.9466L19.3722 63.1217L19.3463 63.0499L20.0641 62.8432L20.1474 63.2653Z" fill="#9E1D22"/>
<path d="M19.9338 64.2759L19.8362 64.2529L20.9187 63.1704L21.0134 63.1963L19.9338 64.2759Z" fill="#9E1D22"/>
<path d="M21.1279 63.5294L21.0073 63.5581L20.9412 63.2107L20.3498 63.383L20.3268 63.3141L21.0446 63.1073L21.1279 63.5294Z" fill="#9E1D22"/>
<path d="M20.2735 64.4136L18.456 63.9341C18.4388 63.9169 18.4273 63.9054 18.4445 63.8882C18.4548 63.8767 18.4678 63.8684 18.4826 63.8637C18.4972 63.8593 18.5127 63.8588 18.5278 63.8624L20.3453 64.3419C20.3625 64.3591 20.3769 64.3734 20.3596 64.3907C20.3482 64.401 20.3344 64.4085 20.3194 64.4125C20.3044 64.4164 20.2887 64.4168 20.2735 64.4136Z" fill="#9E1D22"/>
<path d="M19.9722 64.698L18.1662 64.207C17.9767 64.1553 17.948 63.9888 18.0743 63.8625L19.3893 62.5474C19.469 62.4761 19.5642 62.4248 19.6675 62.3972C19.7709 62.3697 19.8792 62.3671 19.9837 62.3895L21.7926 62.8776C21.9821 62.9293 22.0108 63.0958 21.8845 63.2222L20.5666 64.5401C20.4865 64.6105 20.3911 64.6615 20.288 64.6888C20.1847 64.7164 20.0768 64.7193 19.9722 64.698ZM19.9119 62.4613C19.8375 62.4455 19.7603 62.4474 19.6866 62.4663C19.613 62.4851 19.5447 62.5208 19.487 62.5704L18.1691 63.8883C18.0714 63.9859 18.103 64.0979 18.238 64.1352L20.044 64.6262C20.1189 64.642 20.1966 64.6398 20.2703 64.62C20.3441 64.6001 20.4123 64.5627 20.4689 64.5114L21.784 63.1963C21.8845 63.0958 21.8558 62.9867 21.7208 62.9494L19.9119 62.4613Z" fill="#9E1D22"/>
<path d="M23.1306 65.565L21.2815 65.0712C21.0863 65.0195 21.0432 64.8616 21.1868 64.718L22.542 63.3628C22.6241 63.2899 22.7223 63.237 22.8284 63.2087C22.9347 63.1801 23.0459 63.177 23.1536 63.1991L25.0027 63.6987C25.1979 63.7504 25.2238 63.9198 25.0946 64.049L23.7422 65.4014C23.6602 65.475 23.5623 65.5281 23.4561 65.5563C23.3497 65.5849 23.2383 65.5877 23.1306 65.565ZM23.0789 63.2738C22.9995 63.257 22.9173 63.2597 22.8393 63.2816C22.7613 63.3036 22.6899 63.3441 22.631 63.4001L21.2758 64.7553C21.1753 64.8558 21.204 64.9707 21.3418 65.0109L23.1938 65.5076C23.2729 65.523 23.3546 65.5191 23.432 65.4966C23.5092 65.4744 23.5803 65.4336 23.6388 65.3784L24.9854 64.0318C25.0859 63.9313 25.0572 63.8164 24.9194 63.782L23.0789 63.2738Z" fill="#9E1D22"/>
<path d="M22.5718 64.9505C22.5662 64.949 22.5611 64.9462 22.5571 64.9422C22.553 64.9381 22.5502 64.933 22.5487 64.9275C22.5472 64.922 22.5472 64.9162 22.5489 64.9105C22.5504 64.905 22.5534 64.9 22.5574 64.896L23.5279 63.9255C23.5537 63.9077 23.5859 63.9002 23.6169 63.9054C23.622 63.9065 23.627 63.9086 23.6308 63.9124C23.6348 63.9158 23.6376 63.9204 23.6392 63.9254C23.6407 63.9304 23.6406 63.936 23.6393 63.941C23.638 63.946 23.6351 63.9506 23.6312 63.9542L22.6608 64.9247C22.6488 64.9351 22.6344 64.9431 22.6192 64.9474C22.6037 64.952 22.5875 64.9531 22.5718 64.9505Z" fill="#9E1D22"/>
<path d="M22.8016 65.0079L22.3451 64.8902C22.3279 64.873 22.3135 64.8586 22.3307 64.8414C22.3428 64.8305 22.3568 64.8227 22.3723 64.8181C22.3876 64.8138 22.4039 64.8129 22.4197 64.8155L22.8734 64.9361C22.8935 64.9562 22.9079 64.9706 22.8906 64.9878C22.8786 64.9982 22.8641 65.0055 22.8486 65.009C22.8331 65.0124 22.8168 65.0122 22.8016 65.0079Z" fill="#9E1D22"/>
<path d="M24.1954 63.9486L23.7418 64.4023C23.6716 64.4648 23.5879 64.5097 23.497 64.5337C23.4062 64.5577 23.3109 64.56 23.2192 64.5401L22.8488 64.4396C22.6794 64.3965 22.6593 64.2501 22.7684 64.141L23.2221 63.6873L23.403 63.7361L22.9177 64.2214C22.8976 64.2415 22.9034 64.2645 22.9321 64.2702C22.9473 64.2734 22.9631 64.273 22.978 64.2691C22.993 64.2651 23.0068 64.2576 23.0182 64.2472L23.5035 63.762L24.1954 63.9486Z" fill="#9E1D22"/>
<path d="M35.6963 45.2739L21.765 41.547L25.6354 55.754L39.5352 59.5297L35.6963 45.2739Z" fill="#F9C98A"/>
<path d="M39.6716 59.8828L39.5998 59.9546L25.278 56.1129L25.3498 56.0411L39.6716 59.8828Z" fill="#BC7C46"/>
<path d="M32.877 57.9419L32.7793 57.9189L28.8572 43.2697L28.9577 43.2956L32.877 57.9419Z" fill="#BC7C46"/>
<path d="M32.8561 57.9389L32.7068 58.0882L32.6437 58.025L32.7585 57.9102L32.8561 57.9389Z" fill="#BC7C46"/>
<path d="M33.8269 58.186L24.5556 67.4516L22.5773 66.9146L31.8428 57.6548L33.8269 58.186Z" fill="#9E1D22"/>
<path d="M33.8242 58.1973L32.8795 57.9418L32.7819 57.9188L31.8401 57.6662L27.9611 43.0314L28.8598 43.2697L28.9603 43.2955L29.9394 43.5568L33.8242 58.1973Z" fill="#9E1D22"/>
<path d="M23.7713 49.6812L14.5058 58.941L14.4971 58.9152L13.9631 56.9627L23.2372 47.6943L23.7713 49.6812Z" fill="#9E1D22"/>
<path d="M38.084 53.4884L23.7622 49.6869L23.5153 48.7451L23.4866 48.6417L23.2626 47.8033L23.2339 47.7L35.2673 50.9014L36.1718 51.1397L37.5528 51.5101L37.7624 52.2767L37.8945 52.7821L38.084 53.4884Z" fill="#9E1D22"/>
<path d="M35.6712 62.9005L31.5308 61.7922L33.7876 59.5354L37.928 60.6494L35.6712 62.9005Z" fill="#D5EEFA"/>
<path d="M36.9999 61.0716L33.6463 60.1757L33.899 59.923L37.2497 60.8218L36.9999 61.0716Z" fill="#4F2E16"/>
<path d="M36.5469 61.5251L33.1932 60.6293L33.3052 60.5173L36.656 61.416L36.5469 61.5251Z" fill="#B2AEAB"/>
<path d="M36.2471 61.8239L32.8964 60.9252L33.0083 60.8132L36.3591 61.7119L36.2471 61.8239Z" fill="#B2AEAB"/>
<path d="M35.9307 62.1425L32.58 61.2438L32.6919 61.1318L36.0427 62.0305L35.9307 62.1425Z" fill="#B2AEAB"/>
<path d="M35.6338 62.4384L32.2831 61.5397L32.3951 61.4277L35.7458 62.3264L35.6338 62.4384Z" fill="#B2AEAB"/>
<path d="M37.8922 52.7823L35.265 50.9016L32.3793 48.8372L32.5746 48.5673L36.1694 51.1399L37.7601 52.277L37.8922 52.7823Z" fill="#4F2E16"/>
<path d="M32.8001 48.2879L32.0001 48.0736L31.7135 49.1446L32.5138 49.3586L32.8001 48.2879Z" fill="#939899"/>
<path d="M32.842 47.8954C32.7903 47.931 32.7413 47.9704 32.6956 48.0132C32.6061 48.1069 32.5299 48.2121 32.4688 48.3261C32.5047 48.3558 32.5283 48.3977 32.5348 48.4438C32.5569 48.5492 32.5541 48.6584 32.5267 48.7625C32.4993 48.8666 32.448 48.9629 32.3769 49.0439C32.3443 49.0791 32.3025 49.105 32.2563 49.1186C32.2493 49.2472 32.262 49.3758 32.2936 49.5005C32.3113 49.5612 32.3354 49.6198 32.3654 49.6756C32.3841 49.7259 32.4125 49.7721 32.4489 49.8114C32.4857 49.8505 32.5295 49.8822 32.5785 49.9042C32.6272 49.9266 32.6801 49.9387 32.7336 49.9405C32.7874 49.942 32.8406 49.9332 32.8908 49.9139C32.993 49.8732 33.0853 49.8103 33.1607 49.7302C33.3399 49.5304 33.4698 49.291 33.5396 49.0317C33.6096 48.7721 33.6173 48.5002 33.5627 48.2371C33.5356 48.1325 33.4866 48.0347 33.4191 47.95C33.3639 47.8856 33.2909 47.839 33.2095 47.815C33.1461 47.8015 33.0806 47.8015 33.0171 47.8155C32.9538 47.8292 32.894 47.8566 32.842 47.8954Z" fill="#939899"/>
<path d="M32.5662 47.6484L33.2093 47.8207C33.2907 47.8446 33.3637 47.8912 33.4189 47.9556L32.8906 49.9196C32.811 49.9461 32.7254 49.9502 32.6437 49.9311L32.0005 49.7588L32.1671 49.1271C32.1963 49.1362 32.2276 49.1354 32.2561 49.1242C32.3022 49.1107 32.3437 49.085 32.3767 49.0496C32.4478 48.9686 32.4991 48.8722 32.5264 48.7681C32.5538 48.664 32.5567 48.5548 32.5346 48.4495C32.5281 48.4034 32.5045 48.3614 32.4686 48.3318C32.4533 48.3073 32.4327 48.2867 32.4083 48.2715L32.5662 47.6484Z" fill="#939899"/>
<path d="M32.9051 48.0646C32.8925 48.0022 32.8682 47.9427 32.8333 47.8895C32.8113 47.8296 32.7765 47.7752 32.7314 47.7301C32.6862 47.685 32.6319 47.6502 32.572 47.6282C32.4763 47.6112 32.3776 47.6204 32.2867 47.6547C32.1958 47.689 32.1158 47.7474 32.0552 47.8234C31.8793 48.0117 31.7532 48.2404 31.6876 48.4896C31.6556 48.5982 31.6345 48.7097 31.6245 48.8226C31.6068 48.987 31.6176 49.1529 31.6561 49.3136C31.6712 49.4086 31.7114 49.4976 31.7724 49.5718C31.8335 49.6461 31.9131 49.7028 32.0035 49.7357C32.0666 49.75 32.1319 49.751 32.1953 49.738C32.2587 49.7251 32.3186 49.6988 32.371 49.6611C32.426 49.6304 32.4756 49.5905 32.5174 49.5433C32.6928 49.3443 32.8194 49.1068 32.8866 48.8501C32.954 48.5931 32.9603 48.3243 32.9051 48.0646ZM32.3681 49.0437C32.3355 49.0788 32.2937 49.1048 32.2475 49.1184C32.2192 49.1256 32.1897 49.1255 32.1614 49.1184C32.1243 49.1083 32.0904 49.0888 32.0632 49.0615C32.036 49.0343 32.0164 49.0004 32.0064 48.9633C31.9973 48.9325 31.9924 48.9006 31.992 48.8686C31.9861 48.7542 32.0079 48.6399 32.0552 48.5355C32.0808 48.4704 32.1189 48.4109 32.1672 48.3604C32.1931 48.3323 32.2256 48.3108 32.2615 48.2979C32.2974 48.285 32.3361 48.2806 32.3739 48.2857C32.3996 48.2993 32.4206 48.3203 32.4342 48.346C32.4701 48.3756 32.4937 48.4176 32.5002 48.4637C32.5083 48.4947 32.513 48.5265 32.5146 48.5585L32.5634 48.5614L32.5519 48.8944L32.4543 48.8887C32.439 48.9417 32.4158 48.992 32.3854 49.038L32.3681 49.0437Z" fill="#D1D1D1"/>
<path d="M23.4638 48.5558L14.1207 57.8931L14.026 57.517L23.3662 48.1826L23.4638 48.5558Z" fill="#4F2E16"/>
<path d="M32.5847 48.8801L32.487 48.8744C32.5334 48.7709 32.5543 48.6574 32.5473 48.5442L32.5962 48.5471L32.5847 48.8801Z" fill="#D1D1D1"/>
<path d="M32.4891 48.8744L32.0153 48.8601L31.6191 48.8429L23.4647 48.5557L23.3671 48.1825L31.6679 48.4954L32.0641 48.5127L32.535 48.5299C32.5487 48.6469 32.5331 48.7652 32.4891 48.8744Z" fill="#4F2E16"/>
<path d="M32.523 48.7769C32.5128 48.8201 32.4964 48.8617 32.4742 48.9003L32.4684 48.7855L32.523 48.7769Z" fill="#4F2E16"/>
<path d="M64.2419 46.4941L33.5941 48.705C33.5891 48.7832 33.5787 48.8607 33.5625 48.9375L63.9835 46.7525L64.2419 46.4941Z" fill="#4F2E16"/>
<path d="M32.3071 48.837L35.1985 17.2159L35.431 17.236L32.488 48.8744L32.3071 48.837Z" fill="#4F2E16"/>
<path d="M32.311 48.7797L39.3715 31.2909L39.5897 31.3771L32.4862 48.8745L32.311 48.7797Z" fill="#4F2E16"/>
<path d="M32.523 48.7768C32.5128 48.82 32.4964 48.8616 32.4742 48.9002L32.434 48.7911L32.5316 48.7567L32.523 48.7768Z" fill="#4F2E16"/>
<path d="M51.0804 42.4026L33.5973 48.6188C33.6001 48.5372 33.5953 48.4554 33.583 48.3748L51 42.1844L51.0804 42.4026Z" fill="#4F2E16"/>
<path d="M73.0185 30.9232C71.1206 20.693 61.2894 10.856 51.062 8.94951C40.8346 7.04299 34.0814 13.7904 35.9879 24.0236C37.8944 34.2568 47.7228 44.0908 57.9559 45.9916C68.189 47.8923 74.9221 41.1535 73.0185 30.9232Z" fill="#A20F0F"/>
<path d="M72.0436 42.2619C74.0018 39.448 74.7627 35.5919 73.9272 31.0927C73.5353 29.0521 72.886 27.0694 71.9949 25.1923C70.9104 22.8956 69.5457 20.7421 67.9321 18.7808C67.2219 17.9136 66.4696 17.0829 65.6752 16.2885L65.4053 16.0186C64.7392 15.3525 64.03 14.7237 63.2892 14.115C62.5484 13.5063 61.9024 13.0153 61.1789 12.5157L61.1358 12.4726C60.3433 11.9213 59.5327 11.4112 58.7038 10.9422C56.2785 9.55009 53.6411 8.56556 50.8969 8.02792C49.9904 7.85774 49.0733 7.7503 48.152 7.70634C53.5557 9.19365 58.7412 12.7081 62.6633 17.2102C62.7708 17.2585 62.8753 17.3131 62.9763 17.3739C62.9932 17.3875 63.0085 17.4029 63.0222 17.4198C63.1327 17.4826 63.2382 17.5536 63.338 17.6323C63.4156 17.7098 63.5161 17.7644 63.6022 17.839L63.7314 17.9682C63.8262 18.063 63.918 18.1548 64.0185 18.2553L64.1851 18.4219L64.3229 18.5999C64.3632 18.6503 64.4006 18.7031 64.4349 18.7578C64.4481 18.7652 64.4591 18.7761 64.4664 18.7894L64.5612 18.9358L64.5985 18.9731C64.7485 19.2247 64.8644 19.495 64.9431 19.7771C64.9851 19.925 65.0101 20.0772 65.0177 20.2308C65.0386 20.3723 65.0301 20.5165 64.9927 20.6545C64.9553 20.7926 64.8898 20.9214 64.8003 21.033C64.7108 21.1446 64.5993 21.2365 64.4727 21.303C64.3461 21.3695 64.2071 21.4091 64.0645 21.4195C63.8287 21.4398 63.5912 21.4165 63.3639 21.3505C62.8194 21.1865 62.3189 20.9019 61.8995 20.5179C61.7303 20.3717 61.572 20.2133 61.4258 20.0441C61.1887 19.7743 60.9889 19.474 60.8314 19.1512C60.7459 18.978 60.6767 18.7973 60.6247 18.6114C60.5959 18.5058 60.5748 18.3984 60.5615 18.2898C58.8558 16.9083 57.0009 15.7218 55.0315 14.7524C53.0926 13.8528 51.0457 13.2072 48.9416 12.8315C42.7023 11.6916 37.7063 13.5867 34.9987 17.4887C34.6332 19.5956 34.6615 21.752 35.082 23.8485C35.1739 24.3654 35.2916 24.8793 35.4266 25.3933C36.1492 28.1147 37.2934 30.7063 38.8175 33.0739C42.8373 39.3907 49.3579 44.5848 56.2432 46.4798C56.8605 46.6492 57.4778 46.7956 58.1037 46.9162C64.3401 48.0589 69.3418 46.1582 72.0436 42.2619Z" fill="#D5EEFA"/>
<path d="M50.8899 8.04232C49.9834 7.87214 49.0663 7.7647 48.145 7.72074C48.9116 7.94182 49.6524 8.18301 50.3932 8.47013C50.9766 8.38773 51.5643 8.33886 52.1533 8.32369C51.7369 8.21746 51.3149 8.12271 50.8899 8.04232Z" fill="#D5EEFA"/>
<path d="M41.8996 16.3144C42.2786 17.0839 42.4854 18.4621 43.6568 18.8526C44.6187 19.0392 45.4026 19.4498 46.3874 18.8555C45.615 20.4261 43.654 23.1509 45.8017 24.5176C46.1922 24.9081 47.5589 24.7128 48.3399 24.3224C46.5712 27.2395 48.7304 30.9607 51.4609 32.916C53.02 33.6942 54.9753 34.8742 56.5402 34.0904C57.9069 33.5046 59.4689 33.5046 60.4451 32.5284C60.0546 32.9189 59.6641 33.6999 60.2384 33.8836C60.6288 34.2741 61.0193 33.1027 61.6051 32.9074C62.3861 36.0313 65.1051 40.3181 68.6224 38.7763C70.1873 37.9981 71.9301 36.6171 72.1426 34.4809C72.1426 33.6999 72.5446 32.9304 72.5331 32.1379C72.7283 32.7236 73.4978 32.3217 73.6816 32.1379C73.8139 32.1547 73.9473 32.1614 74.0807 32.158C74.0376 31.8106 73.9859 31.4603 73.917 31.1043C73.5297 29.0602 72.8843 27.0737 71.9961 25.1923C70.9117 22.8957 69.547 20.7421 67.9333 18.7808C67.2232 17.9137 66.4709 17.083 65.6765 16.2886L65.4066 16.0187C64.7405 15.3526 64.0313 14.7238 63.2905 14.1151C62.5497 13.5064 61.9037 13.0153 61.1801 12.5157L61.1371 12.4727C60.3446 11.9214 59.5339 11.4113 58.7051 10.9423C56.6521 9.77056 54.45 8.88199 52.1586 8.30074C51.5673 8.3233 50.9777 8.37987 50.3928 8.47014C55.126 10.3577 59.3324 13.3623 62.6531 17.2275C62.7606 17.2758 62.8651 17.3304 62.966 17.3911C62.9829 17.4048 62.9984 17.4202 63.012 17.4371C63.1259 17.4939 63.2353 17.5591 63.3393 17.6323C63.4168 17.7098 63.5173 17.7644 63.6035 17.8391L63.7327 17.9683C63.8275 18.063 63.9193 18.1549 64.0198 18.2554L64.1863 18.4219L64.3242 18.6C64.3644 18.6504 64.4018 18.7031 64.4361 18.7579C64.4494 18.7652 64.4604 18.7762 64.4677 18.7894L64.5625 18.9359L64.5998 18.9732C64.7498 19.2247 64.8657 19.4951 64.9443 19.7772C64.9863 19.9251 65.0114 20.0773 65.019 20.2308C65.0399 20.3723 65.0314 20.5166 64.994 20.6546C64.9566 20.7927 64.8911 20.9215 64.8016 21.0331C64.7121 21.1446 64.6006 21.2366 64.474 21.3031C64.3474 21.3695 64.2084 21.4092 64.0658 21.4195C63.83 21.4399 63.5925 21.4166 63.3652 21.3506C62.8207 21.1866 62.3202 20.902 61.9008 20.518C61.7316 20.3717 61.5733 20.2134 61.4271 20.0442C61.19 19.7744 60.9901 19.474 60.8327 19.1512C60.7472 18.9781 60.678 18.7974 60.626 18.6114C60.5972 18.5059 60.5761 18.3984 60.5628 18.2899C58.8571 16.9083 57.0022 15.7218 55.0328 14.7525C53.0939 13.8529 51.047 13.2073 48.9428 12.8316C47.9479 12.6443 46.94 12.5349 45.928 12.5043L46.0113 12.5875C44.0559 12.2229 41.1187 13.581 41.8996 16.3144Z" fill="#EAF5F9"/>
<path d="M60.554 18.31C59.2991 17.3549 57.981 16.4858 56.6089 15.7086C54.2346 14.3207 51.638 13.3541 48.934 12.8517C42.7034 11.6917 37.7074 13.5868 34.9998 17.4888C36.1512 11.2783 41.1472 7.41355 48.1444 7.72077C53.5481 9.20809 58.7336 12.7225 62.6558 17.2246C62.5056 17.1581 62.3511 17.1015 62.1935 17.0552C61.1168 16.771 60.4363 17.3194 60.554 18.31Z" fill="#9E1D22"/>
<path d="M63.6498 21.4108C64.6049 22.6657 65.474 23.9837 66.2512 25.3559C67.6392 27.7309 68.6048 30.3287 69.1052 33.0337C70.2652 39.2528 68.3701 44.2488 64.4509 46.9563C70.6585 45.8078 74.529 40.8119 74.2217 33.8146C72.746 28.4167 69.2315 23.2254 64.738 19.3062C64.8062 19.4564 64.8619 19.612 64.9046 19.7713C65.1917 20.8452 64.6433 21.5257 63.6498 21.4108Z" fill="#9E1D22"/>
<path d="M38.8179 33.0739C37.2901 30.7117 36.1411 28.125 35.4126 25.4077C37.1642 23.1094 39.4091 21.2333 41.982 19.9179C47.6987 16.8772 56.1402 16.9806 60.8232 19.1713C60.9806 19.4941 61.1805 19.7945 61.4175 20.0643C56.7632 19.9064 40.1788 29.8007 38.8179 33.0739Z" fill="#9E1D22"/>
<path d="M48.5668 43.1268C50.929 44.6549 53.5143 45.8066 56.2302 46.5408C58.5277 44.7887 60.4044 42.5451 61.7229 39.9742C64.7808 34.2747 64.6659 25.816 62.4809 21.133C62.1571 20.9746 61.8559 20.7737 61.5851 20.5358C61.743 25.1958 51.84 41.7716 48.5668 43.1268Z" fill="#9E1D22"/>
<path d="M71.9959 25.1923C69.8166 22.2435 66.6439 19.7082 64.5995 19.0191L64.5766 18.9961L64.5392 18.9588C64.5019 18.9215 64.4789 18.864 64.4445 18.8124C64.4371 18.7991 64.4262 18.7881 64.4129 18.7808L64.344 18.6774L64.2952 18.6286C64.2543 18.5655 64.2082 18.506 64.1574 18.4506C64.1124 18.3999 64.0644 18.352 64.0138 18.307C64.3009 18.0199 66.1931 18.1893 67.9101 18.8325C69.5282 20.7764 70.9005 22.9125 71.9959 25.1923Z" fill="#CC0E0E"/>
<path d="M63.5956 17.8303C63.5153 17.7499 63.4205 17.6896 63.3315 17.6236C63.234 17.5502 63.1313 17.484 63.0243 17.4255C62.4213 15.7659 60.9225 12.7855 58.703 10.9623C59.5319 11.4312 60.3425 11.9414 61.135 12.4926L61.1781 12.5357C61.9102 13.0267 62.6137 13.5636 63.297 14.1264C63.5928 15.2203 63.9488 17.0694 63.5956 17.8303Z" fill="#CC0E0E"/>
<path d="M62.1942 17.0552C62.3518 17.1015 62.5062 17.1581 62.6565 17.2246C58.7314 12.7254 53.5517 9.21095 48.1451 7.72076C47.6685 7.70354 47.2034 7.70353 46.7468 7.71789C45.0614 8.40412 44.0134 9.73351 44.8288 11.8238C44.9155 12.0738 45.0414 12.3084 45.2021 12.5186C46.4542 12.5064 47.7045 12.618 48.9347 12.8517C51.6387 13.3541 54.2353 14.3207 56.6096 15.7086C57.9817 16.4858 59.2998 17.3549 60.5547 18.31C60.437 17.3194 61.1175 16.771 62.1942 17.0552Z" fill="#E51717"/>
<path d="M73.5269 37.8057C73.7823 37.2718 73.9982 36.7199 74.1729 36.1547C74.2442 35.3759 74.2595 34.5929 74.2189 33.8117C72.746 28.4167 69.2315 23.2254 64.738 19.3062C64.8062 19.4564 64.8619 19.612 64.9046 19.7713C65.1917 20.8452 64.6433 21.5257 63.6613 21.3993C64.6164 22.6542 65.4855 23.9723 66.2627 25.3444C67.6506 27.7194 68.6163 30.3172 69.1167 33.0222C69.5037 34.9922 69.5523 37.0138 69.2602 39.0001C70.7561 40.3582 72.6339 39.4107 73.5269 37.8057Z" fill="#E51717"/>
<path d="M61.4161 20.067C61.1791 19.7972 60.9792 19.4968 60.8217 19.174C56.6785 17.2302 49.5836 16.9287 44.0536 18.9903C43.4707 19.2056 42.9826 20.5436 42.8649 21.0748C42.6473 21.9688 42.7809 22.9122 43.2382 23.7106C43.5162 24.1085 43.8701 24.4476 44.2796 24.7083C44.6891 24.9689 45.146 25.1461 45.6242 25.2295C46.3018 25.3846 48.1021 25.7435 48.7337 25.3702C53.6781 22.4645 59.0703 19.9837 61.4161 20.067Z" fill="#E51717"/>
<path d="M62.7778 21.1267C62.454 20.9682 62.1527 20.7674 61.8819 20.5294C61.9681 23.0791 59.048 29.1863 55.8466 34.4263C55.8695 36.0916 56.2715 37.7627 57.9053 38.581C60.0558 39.5831 61.7298 38.5925 63.2257 37.1138C64.98 31.713 64.624 25.0804 62.7778 21.1267Z" fill="#E51717"/>
<path d="M67.9335 18.7807C66.2223 18.1318 64.3416 17.9624 64.0372 18.2553C64.0879 18.3002 64.1358 18.3482 64.1808 18.3988C64.2316 18.4542 64.2777 18.5138 64.3186 18.5768L64.3675 18.6257L64.4363 18.729C64.4496 18.7364 64.4606 18.7473 64.4679 18.7606C64.511 18.8037 64.5512 18.8439 64.5627 18.907L64.6 18.9444L64.623 18.9674C66.6673 19.6565 69.8401 22.1918 72.0194 25.1406C70.924 22.8607 69.5517 20.7247 67.9335 18.7807Z" fill="#E51717"/>
<path d="M63.5956 17.8303C63.5153 17.7499 63.4205 17.6896 63.3315 17.6236C63.234 17.5502 63.1313 17.484 63.0243 17.4255C62.4213 15.7659 60.9225 12.7855 58.703 10.9623C59.5319 11.4312 60.3425 11.9414 61.135 12.4926L61.1781 12.5357C61.9102 13.0267 62.6137 13.5636 63.297 14.1264C63.5928 15.2203 63.9488 17.0694 63.5956 17.8303Z" fill="#E51717"/>
</g>
</g>
<defs>
<clipPath id="clip0_93_871">
<rect width="46.2905" height="69.8418" fill="white" transform="translate(49.3867) rotate(45)"/>
</clipPath>
</defs>
</svg>
