<svg width="75" height="84" viewBox="0 0 75 84" fill="none" xmlns="http://www.w3.org/2000/svg">
<g clip-path="url(#clip0_93_745)">
<mask id="mask0_93_745" style="mask-type:luminance" maskUnits="userSpaceOnUse" x="0" y="0" width="75" height="84">
<path d="M39.9094 0.103554L0 23.1453L34.7808 83.3874L74.6902 60.3457L39.9094 0.103554Z" fill="white"/>
</mask>
<g mask="url(#mask0_93_745)">
<path d="M46.9919 71.8502L46.7925 72.1951L46.5935 71.8504L46.795 71.5091L46.9919 71.8502Z" fill="#4F2E16"/>
<path d="M48.7407 47.9081L46.6903 47.9056L40.1205 47.8961L37.0462 53.2017L36.5394 54.0944L36.4885 54.1848L36.0186 54.9953L32.6818 60.7478L38.7 60.7522L39.306 60.7541L39.4097 60.7551L40.3848 60.7548L41.3619 60.758L47.8495 60.7634L51.1637 55.0286L51.6516 54.1843L51.699 54.0959L52.1903 53.2496L55.2671 47.9239L48.7407 47.9081Z" fill="#FFDDA8"/>
<path d="M47.8487 60.7544L54.3751 72.0748L47.9052 72.092L47.8781 72.0937L46.7358 72.0967L46.352 72.0979L45.8574 72.1021L45.2535 72.1038L39.2475 72.1205L32.6871 60.7494L39.3057 60.7542L39.8058 60.7515L40.1916 60.7538L41.3631 60.7526L47.8487 60.7544Z" fill="#BC7C46"/>
<path d="M52.1836 53.2447L51.9147 53.7047L51.7273 54.038L51.6878 54.1077L51.6383 54.1925L51.161 55.0307L47.8539 60.7614L54.3873 72.0777L57.7082 66.3625L58.277 65.3824L58.4714 65.0451L58.7388 64.5906L61.8308 59.2748L55.2709 47.9128L52.1836 53.2447Z" fill="#DDA866"/>
<path d="M53.9561 69.109L53.9051 69.1993L53.1397 67.8736L53.1906 67.7832L53.9561 69.109Z" fill="#9E1D22"/>
<path d="M53.543 67.7641L53.543 67.886L53.1868 67.8619L53.2037 68.4758L53.1277 68.4822L53.1138 67.7353L53.543 67.7641Z" fill="#9E1D22"/>
<path d="M54.4622 68.2308L54.4148 68.3191L53.6494 66.9934L53.6988 66.9085L54.4622 68.2308Z" fill="#9E1D22"/>
<path d="M54.0508 66.884L54.0473 67.0079L53.6947 66.9818L53.708 67.5977L53.6355 67.6021L53.6216 66.8552L54.0508 66.884Z" fill="#9E1D22"/>
<path d="M54.6841 67.9393L53.7505 69.5707C53.7294 69.5829 53.7153 69.5911 53.7031 69.57C53.6947 69.557 53.6901 69.5423 53.6894 69.5268C53.6889 69.5116 53.6924 69.4964 53.6997 69.4828L54.6333 67.8514C54.6544 67.8392 54.672 67.829 54.6842 67.8501C54.6912 67.8639 54.6949 67.8791 54.6948 67.8946C54.6948 67.9101 54.6911 67.9254 54.6841 67.9393Z" fill="#9E1D22"/>
<path d="M54.8827 68.304L53.941 69.9214C53.842 70.0911 53.6738 70.0757 53.5844 69.921L52.6546 68.3104C52.6063 68.215 52.5813 68.1098 52.5815 68.0028C52.5816 67.8958 52.6072 67.7906 52.6558 67.6955L53.5955 66.0745C53.6945 65.9049 53.8628 65.9202 53.9521 66.075L54.884 67.6891C54.9313 67.7846 54.9558 67.89 54.9555 67.9966C54.9554 68.1036 54.9304 68.2085 54.8827 68.304ZM52.7066 67.7834C52.6721 67.8511 52.654 67.9263 52.6531 68.0023C52.6523 68.0783 52.669 68.1535 52.702 68.2221L53.6339 69.8362C53.7029 69.9557 53.8193 69.9542 53.8903 69.8335L54.8319 68.2161C54.8666 68.1478 54.8846 68.0723 54.8845 67.9959C54.8844 67.9195 54.8659 67.8439 54.831 67.7759L53.9011 66.1653C53.8301 66.0423 53.7172 66.0418 53.6463 66.1625L52.7066 67.7834Z" fill="#9E1D22"/>
<path d="M56.5353 65.4778L55.5796 67.136C55.4792 67.3113 55.3155 67.312 55.214 67.1362L54.2557 65.4763C54.2065 65.3781 54.1809 65.2696 54.181 65.1599C54.1809 65.0497 54.2066 64.9415 54.2559 64.8432L55.2171 63.1865C55.3175 63.0113 55.4878 63.0301 55.5792 63.1884L56.5355 64.8447C56.5854 64.9429 56.6113 65.0513 56.6111 65.1611C56.6112 65.2712 56.5851 65.3796 56.5353 65.4778ZM54.3087 64.9347C54.2719 65.007 54.2533 65.0872 54.2543 65.1682C54.2553 65.2492 54.276 65.3287 54.3148 65.4L55.2731 67.0598C55.3441 67.1829 55.4625 67.1849 55.537 67.0622L56.4961 65.4019C56.5314 65.3295 56.5489 65.2495 56.5472 65.1689C56.5457 65.0887 56.5247 65.0094 56.4865 64.9386L55.5343 63.2893C55.4632 63.1662 55.3449 63.1642 55.2759 63.2884L54.3087 64.9347Z" fill="#9E1D22"/>
<path d="M55.7993 65.8569C55.7965 65.8618 55.7924 65.866 55.7875 65.8689C55.7825 65.8717 55.7768 65.8732 55.7711 65.8732C55.7654 65.8732 55.7598 65.8717 55.7547 65.8686C55.7498 65.8658 55.7457 65.8616 55.7429 65.8566L55.0567 64.668C55.0461 64.6385 55.0472 64.6055 55.0603 64.5768C55.0626 64.5722 55.0661 64.5679 55.0706 64.5653C55.075 64.5623 55.0801 64.5607 55.0854 64.5605C55.0906 64.5603 55.096 64.5619 55.1005 64.5644C55.105 64.567 55.1087 64.5709 55.1112 64.5756L55.7974 65.7642C55.8044 65.7785 55.8084 65.7944 55.8086 65.8103C55.809 65.8264 55.8059 65.8423 55.7993 65.8569Z" fill="#9E1D22"/>
<path d="M55.9138 65.6497L55.6819 66.0602C55.6608 66.0723 55.6432 66.0825 55.631 66.0614C55.6236 66.0469 55.6197 66.0314 55.6193 66.0152C55.6191 65.9994 55.6224 65.9834 55.6291 65.9687L55.863 65.5617C55.8876 65.5475 55.9052 65.5374 55.9174 65.5585C55.9243 65.5728 55.9276 65.5887 55.9269 65.6045C55.9263 65.6204 55.9219 65.6361 55.9138 65.6497Z" fill="#9E1D22"/>
<path d="M55.2482 64.0305L55.569 64.5861C55.6112 64.6701 55.6329 64.7626 55.6326 64.8566C55.6323 64.9505 55.6099 65.0432 55.5669 65.1266L55.374 65.4583C55.2885 65.6108 55.1419 65.5923 55.0647 65.4587L54.7439 64.9031L54.8379 64.741L55.181 65.3353C55.1952 65.3599 55.2189 65.3603 55.2319 65.3341C55.2389 65.3202 55.2427 65.3049 55.2427 65.2894C55.2427 65.2739 55.239 65.2587 55.232 65.2449L54.8889 64.6506L55.2482 64.0305Z" fill="#9E1D22"/>
<path d="M40.1884 48.0867L32.9828 60.5788L47.7075 60.5172L54.952 48.0683L40.1884 48.0867Z" fill="#F9C98A"/>
<path d="M55.3299 48.0294L55.3807 48.1173L47.9631 60.9568L47.9123 60.8689L55.3299 48.0294Z" fill="#BC7C46"/>
<path d="M51.696 54.089L51.6485 54.1774L36.4834 54.1744L36.5344 54.084L51.696 54.089Z" fill="#BC7C46"/>
<path d="M51.6867 54.1077L51.7923 54.2905L51.715 54.3352L51.6337 54.1945L51.6867 54.1077Z" fill="#BC7C46"/>
<path d="M52.1766 53.2342L58.7268 64.5877L57.6962 66.3596L51.15 55.0131L52.1766 53.2342Z" fill="#9E1D22"/>
<path d="M52.1882 53.2427L51.6968 54.089L51.6494 54.1773L51.1616 55.0216L36.0215 54.9808L36.4843 54.1744L36.5352 54.084L37.041 53.2059L52.1882 53.2427Z" fill="#9E1D22"/>
<path d="M41.3578 60.7454L47.904 72.0918L47.8768 72.0935L45.8527 72.104L39.3004 60.747L41.3578 60.7454Z" fill="#9E1D22"/>
<path d="M48.74 47.9082L41.3612 60.7581L40.3876 60.7529L40.2803 60.7538L39.4125 60.7532L39.3053 60.7541L45.5121 49.9593L45.9764 49.1474L46.6916 47.9092L47.4864 47.9052L48.0087 47.9084L48.74 47.9082Z" fill="#9E1D22"/>
<path d="M57.2063 52.6739L55.0642 56.3863L53.4684 53.6223L55.6161 49.9113L57.2063 52.6739Z" fill="#D5EEFA"/>
<path d="M55.7867 50.9163L54.0534 53.9238L53.8747 53.6144L55.6101 50.6104L55.7867 50.9163Z" fill="#4F2E16"/>
<path d="M56.1052 51.472L54.3719 54.4795L54.2927 54.3424L56.028 51.3384L56.1052 51.472Z" fill="#B2AEAB"/>
<path d="M56.3182 51.8376L54.5828 54.8416L54.5037 54.7045L56.239 51.7005L56.3182 51.8376Z" fill="#B2AEAB"/>
<path d="M56.5447 52.228L54.8094 55.232L54.7302 55.0948L56.4655 52.0909L56.5447 52.228Z" fill="#B2AEAB"/>
<path d="M56.7517 52.5903L55.0164 55.5943L54.9372 55.4571L56.6726 52.4532L56.7517 52.5903Z" fill="#B2AEAB"/>
<path d="M48.0086 47.9083L45.512 49.9593L42.771 52.2123L42.5608 51.9538L45.9763 49.1473L47.4862 47.9051L48.0086 47.9083Z" fill="#4F2E16"/>
<path d="M42.3516 51.6648L41.9376 52.3821L42.8978 52.9361L43.3117 52.2185L42.3516 51.6648Z" fill="#939899"/>
<path d="M41.9803 51.5248C42.0013 51.584 42.0267 51.6415 42.0561 51.6967C42.1235 51.8074 42.2054 51.9083 42.2997 51.9968C42.3376 51.9698 42.3843 51.9579 42.4305 51.9635C42.538 51.9694 42.6427 52.0004 42.7362 52.0538C42.8297 52.1072 42.9094 52.1817 42.9693 52.2714C42.9948 52.312 43.0091 52.3591 43.0102 52.4072C43.1326 52.4472 43.2601 52.4682 43.3887 52.47C43.452 52.4686 43.5148 52.4604 43.5765 52.446C43.6299 52.4409 43.6818 52.4255 43.7292 52.4004C43.7765 52.375 43.8185 52.3409 43.8525 52.2993C43.8866 52.258 43.912 52.21 43.9276 52.1588C43.943 52.1073 43.9482 52.0536 43.9427 52.0001C43.9297 51.8908 43.8929 51.7855 43.835 51.6918C43.6884 51.467 43.4908 51.2796 43.2584 51.1451C43.0258 51.0103 42.7651 50.9325 42.4969 50.9171C42.3888 50.9162 42.2816 50.9382 42.1824 50.9815C42.1059 51.0181 42.0419 51.0766 41.9978 51.149C41.9683 51.2068 41.9513 51.2701 41.9484 51.3351C41.9453 51.3997 41.9563 51.4646 41.9803 51.5248Z" fill="#939899"/>
<path d="M41.6701 51.727L42.0029 51.1504C42.0471 51.078 42.111 51.0195 42.1875 50.9828L43.9478 52.0014C43.9529 52.0853 43.9346 52.1689 43.895 52.2429L43.5621 52.8196L42.9951 52.4952C43.0115 52.4694 43.0187 52.4389 43.0154 52.4085C43.0142 52.3604 43.0001 52.3137 42.9745 52.2727C42.9146 52.183 42.8348 52.1086 42.7413 52.0552C42.6478 52.0018 42.5432 51.9708 42.4357 51.9649C42.3894 51.9592 42.3428 51.9711 42.3049 51.9982C42.2773 52.0066 42.252 52.0212 42.231 52.0408L41.6701 51.727Z" fill="#939899"/>
<path d="M42.1616 51.5049C42.098 51.5009 42.0343 51.509 41.9738 51.5289C41.9102 51.5347 41.8487 51.5543 41.7935 51.5862C41.7382 51.6181 41.6906 51.6615 41.6538 51.7137C41.6126 51.8017 41.596 51.8995 41.6056 51.9961C41.6152 52.0928 41.6508 52.1852 41.7086 52.2635C41.8449 52.482 42.0332 52.6631 42.2569 52.7909C42.3535 52.85 42.4558 52.8992 42.5623 52.9381C42.7165 52.9977 42.8795 53.0302 43.0447 53.0346C43.1403 53.0446 43.2368 53.0288 43.3243 52.9891C43.4118 52.9493 43.4871 52.8871 43.5423 52.8083C43.5725 52.751 43.5903 52.6882 43.5942 52.6236C43.5981 52.559 43.5883 52.4944 43.5653 52.434C43.55 52.373 43.5243 52.3147 43.4895 52.2621C43.3427 52.0412 43.146 51.8575 42.9155 51.7261C42.6847 51.5944 42.4266 51.5188 42.1616 51.5049ZM42.9683 52.277C42.9938 52.3176 43.008 52.3647 43.0092 52.4128C43.0089 52.442 43.0011 52.4705 42.9869 52.496C42.9676 52.5292 42.9399 52.5569 42.9066 52.5761C42.8733 52.5954 42.8354 52.6055 42.797 52.6056C42.7649 52.6064 42.7328 52.6028 42.7018 52.595C42.5898 52.571 42.485 52.5204 42.3964 52.4477C42.3402 52.4061 42.2925 52.3539 42.2562 52.2943C42.2359 52.2619 42.2235 52.225 42.2203 52.187C42.2171 52.149 42.2229 52.1105 42.2376 52.0752C42.2574 52.054 42.2832 52.0391 42.3115 52.0326C42.3494 52.0056 42.396 51.9936 42.4423 51.9993C42.4743 51.9996 42.5062 52.0032 42.5375 52.0099L42.5529 51.9635L42.8717 52.0608L42.8409 52.1537C42.8882 52.1821 42.9307 52.2176 42.9672 52.2589L42.9683 52.277Z" fill="#D1D1D1"/>
<path d="M40.194 60.7537L46.795 72.1951L46.4072 72.1893L39.8082 60.7514L40.194 60.7537Z" fill="#4F2E16"/>
<path d="M42.866 52.0265L42.8352 52.1193C42.7473 52.0477 42.643 51.9982 42.5319 51.9756L42.5473 51.9292L42.866 52.0265Z" fill="#D1D1D1"/>
<path d="M42.8354 52.1192L42.6989 52.5731L42.5797 52.9514L40.1918 60.7536L39.806 60.7513L42.2567 52.8143L42.3759 52.4361L42.5144 51.9857C42.631 52.0028 42.7412 52.0484 42.8354 52.1192Z" fill="#4F2E16"/>
<path d="M42.7508 52.0607C42.7899 52.0817 42.8258 52.1083 42.8574 52.1398L42.745 52.1156L42.7508 52.0607Z" fill="#4F2E16"/>
<path d="M48.7538 20.832L42.9571 51.0077C43.0314 51.0328 43.1036 51.0629 43.1736 51.0984L48.9365 21.1485L48.7538 20.832Z" fill="#4F2E16"/>
<path d="M42.7533 52.2844L12.9579 41.3074L13.0375 41.0879L42.8362 52.1193L42.7533 52.2844Z" fill="#4F2E16"/>
<path d="M42.6982 52.2641L27.6326 40.9178L27.7724 40.7293L42.835 52.1194L42.6982 52.2641Z" fill="#4F2E16"/>
<path d="M42.7512 52.0608C42.7903 52.0818 42.8262 52.1084 42.8578 52.1399L42.742 52.1505L42.734 52.0472L42.7512 52.0608Z" fill="#4F2E16"/>
<path d="M41.3955 32.4835L42.875 50.9797C42.7968 50.956 42.7167 50.9394 42.6356 50.9304L41.1639 32.5047L41.3955 32.4835Z" fill="#4F2E16"/>
<path d="M35.9876 8.32348C25.6147 7.50893 13.5685 14.4591 9.07985 23.8446C4.59124 33.2301 9.36093 41.4996 19.7389 42.3065C30.1168 43.1135 42.1595 36.1653 46.644 26.7728C51.1285 17.3803 46.3619 9.13253 35.9876 8.32348Z" fill="#A20F0F"/>
<path d="M46.6857 12.1984C44.4746 9.57867 40.9468 7.84568 36.3847 7.48821C34.3122 7.3386 32.229 7.45264 30.1852 7.82758C27.6861 8.28069 25.2527 9.04147 22.9406 10.0925C21.9192 10.5541 20.9221 11.0657 19.9492 11.6274L19.6186 11.8183C18.8028 12.2893 18.0118 12.8116 17.2321 13.3696C16.4524 13.9276 15.811 14.4245 15.1411 14.9941L15.0884 15.0246C14.3508 15.6474 13.6482 16.2983 12.9807 16.9776C11.0083 18.9599 9.3747 21.2526 8.14511 23.7642C7.74611 24.5958 7.40496 25.4538 7.12405 26.3324C9.95926 21.4977 14.696 17.3985 20.0599 14.7753C20.1343 14.684 20.2142 14.5972 20.299 14.5153C20.3165 14.5026 20.3354 14.4917 20.3552 14.4829C20.4445 14.3924 20.5404 14.3088 20.6422 14.2328C20.7372 14.178 20.8159 14.095 20.9103 14.0311L21.0685 13.9398C21.1846 13.8728 21.2971 13.8078 21.4202 13.7367L21.6241 13.619L21.8317 13.5319C21.8909 13.5061 21.9515 13.4836 22.0133 13.4646C22.0238 13.4537 22.0372 13.446 22.052 13.4423L22.2179 13.3887L22.2636 13.3623C22.5454 13.2825 22.8365 13.2405 23.1294 13.2375C23.2831 13.2353 23.4366 13.2505 23.5869 13.2829C23.729 13.2993 23.8661 13.3448 23.9898 13.4167C24.1134 13.4886 24.2209 13.5852 24.3055 13.7005C24.3901 13.8158 24.45 13.9473 24.4815 14.0868C24.513 14.2263 24.5153 14.3708 24.4884 14.5113C24.447 14.7443 24.363 14.9677 24.2405 15.1702C23.9411 15.6536 23.5367 16.0634 23.0572 16.3691C22.8721 16.4947 22.6782 16.6066 22.477 16.7041C22.155 16.8632 21.8132 16.9786 21.4606 17.0471C21.2712 17.0849 21.0788 17.105 20.8857 17.1071C20.7763 17.1075 20.667 17.1001 20.5587 17.0848C18.7828 18.3749 17.1566 19.8595 15.7106 21.5109C14.3398 23.1509 13.1864 24.961 12.279 26.8962C9.56308 32.6278 10.1005 37.944 13.1688 41.5693C15.1093 42.4676 17.1995 42.9985 19.3335 43.1349C19.8565 43.1799 20.3834 43.1992 20.9147 43.2019C23.7305 43.2082 26.5299 42.7737 29.2113 41.9144C36.3532 39.6665 43.058 34.7124 46.6705 28.5522C46.9939 27.9997 47.2951 27.4414 47.5736 26.868C50.2914 21.1399 49.75 15.8166 46.6857 12.1984Z" fill="#D5EEFA"/>
<path d="M8.15862 23.7765C7.75963 24.608 7.41847 25.4661 7.13756 26.3446C7.54953 25.6613 7.97423 25.0082 8.4433 24.367C8.51471 23.7821 8.6196 23.2018 8.75739 22.629C8.54703 23.0036 8.34626 23.3868 8.15862 23.7765Z" fill="#D5EEFA"/>
<path d="M13.8225 34.601C14.6638 34.4341 16.0486 34.5911 16.729 33.5606C17.1582 32.6798 17.7577 32.0289 17.4385 30.9238C18.7556 32.0764 20.88 34.6758 22.7561 32.9551C23.2343 32.6789 23.3994 31.3083 23.2244 30.4528C25.5844 32.9163 29.7376 31.7938 32.333 29.6623C33.4882 28.3577 35.1341 26.7745 34.782 25.0601C34.5699 23.5883 34.9742 22.0796 34.2839 20.884C34.56 21.3622 35.2133 21.9415 35.5394 21.4344C36.0177 21.1583 34.9872 20.4779 34.9502 19.8616C38.1698 19.9158 43.0143 18.3988 42.4353 14.6023C42.0887 12.8894 41.2058 10.8485 39.1974 10.0904C38.443 9.88824 37.8037 9.30081 37.0353 9.10679C37.6516 9.0698 37.4625 8.22248 37.3326 7.99742C37.383 7.87391 37.424 7.7468 37.4553 7.61712C37.1085 7.5688 36.7568 7.52806 36.3951 7.50248C34.3204 7.34753 32.2345 7.45685 30.1874 7.82778C27.6884 8.28089 25.255 9.04167 22.9428 10.0927C21.9215 10.5543 20.9243 11.0659 19.9514 11.6276L19.6209 11.8184C18.8051 12.2895 18.0141 12.8118 17.2344 13.3698C16.4547 13.9277 15.8132 14.4247 15.1434 14.9943L15.0906 15.0248C14.353 15.6475 13.6505 16.2985 12.983 16.9778C11.3198 18.6576 9.89156 20.5547 8.73707 22.6175C8.60581 23.1945 8.50785 23.7787 8.44367 24.367C11.492 20.2836 15.4829 16.9982 20.0758 14.791C20.1503 14.6997 20.2301 14.6129 20.3149 14.5311C20.3325 14.5183 20.3513 14.5074 20.3712 14.4986C20.4555 14.4033 20.5468 14.3145 20.6445 14.233C20.7394 14.1781 20.8181 14.0952 20.9125 14.0313L21.0708 13.9399C21.1868 13.8729 21.2994 13.808 21.4225 13.7369L21.6264 13.6192L21.834 13.5321C21.8932 13.5063 21.9538 13.4838 22.0155 13.4648C22.0261 13.4539 22.0395 13.4462 22.0542 13.4425L22.2202 13.3889L22.2659 13.3625C22.5477 13.2827 22.8388 13.2407 23.1316 13.2377C23.2854 13.2355 23.4389 13.2507 23.5892 13.283C23.7312 13.2995 23.8684 13.345 23.992 13.4169C24.1157 13.4888 24.2232 13.5854 24.3078 13.7007C24.3924 13.816 24.4523 13.9475 24.4838 14.087C24.5152 14.2265 24.5176 14.371 24.4907 14.5115C24.4493 14.7445 24.3653 14.9679 24.2428 15.1703C23.9434 15.6538 23.539 16.0636 23.0595 16.3693C22.8744 16.4949 22.6805 16.6068 22.4792 16.7043C22.1572 16.8634 21.8154 16.9788 21.4628 17.0473C21.2735 17.085 21.081 17.1052 20.8879 17.1073C20.7786 17.1077 20.6693 17.1003 20.561 17.085C18.7851 18.3751 17.1589 19.8597 15.7128 21.5111C14.3421 23.1511 13.1887 24.9611 12.2812 26.8964C11.8429 27.8089 11.4763 28.7542 11.1848 29.7238L11.2867 29.6649C10.4284 31.4592 10.9801 34.6479 13.8225 34.601Z" fill="#EAF5F9"/>
<path d="M20.577 17.0984C19.3297 18.0634 18.1491 19.1116 17.0432 20.2358C15.0881 22.1701 13.4824 24.428 12.2973 26.9098C9.56421 32.6279 10.1016 37.9441 13.1699 41.5694C7.469 38.8498 5.02903 33.0238 7.13681 26.3445C9.97203 21.5099 14.7088 17.4107 20.0726 14.7874C19.9695 14.9153 19.8749 15.0498 19.7894 15.1901C19.2361 16.1565 19.5897 16.9558 20.577 17.0984Z" fill="#9E1D22"/>
<path d="M24.3722 14.9112C25.8315 14.3135 27.3296 13.8151 28.8561 13.4195C31.5095 12.6935 34.2686 12.4331 37.0109 12.6499C43.3183 13.1391 47.6536 16.2626 49.2546 20.7491C49.7519 14.4557 45.9279 9.42409 39.0895 7.90983C33.4936 7.93823 27.5696 9.98931 22.6209 13.3153C22.7836 13.2884 22.9483 13.2748 23.1133 13.2749C24.2248 13.2755 24.7402 13.9813 24.3722 14.9112Z" fill="#9E1D22"/>
<path d="M29.2116 41.9143C26.5344 42.7786 23.7385 43.219 20.9252 43.2194C19.1586 40.9327 17.9275 38.2787 17.3227 35.453C15.8652 29.1441 18.1499 21.017 21.4781 17.0606C21.8306 16.9921 22.1725 16.8767 22.4944 16.7176C21.1373 21.1724 26.4021 39.7526 29.2116 41.9143Z" fill="#9E1D22"/>
<path d="M41.4442 35.0999C43.5316 33.2137 45.3131 31.0145 46.7252 28.5812C45.6275 25.9086 43.9461 23.5151 41.804 21.5761C37.0902 17.1473 28.89 15.069 23.801 15.9675C23.5642 16.2392 23.2922 16.4782 22.9923 16.6782C27.5344 17.7318 40.9823 31.5874 41.4442 35.0999Z" fill="#9E1D22"/>
<path d="M30.1857 7.82755C26.7734 9.16938 23.5033 11.5778 22.3085 13.3741L22.2804 13.3904L22.2347 13.4168C22.189 13.4432 22.1276 13.4505 22.0687 13.4704C22.054 13.4741 22.0406 13.4818 22.03 13.4927L21.9124 13.5325L21.8526 13.5671C21.781 13.5902 21.7116 13.6193 21.6449 13.6541C21.5844 13.6844 21.5257 13.7183 21.4691 13.7556C21.2661 13.404 21.9195 11.6201 22.9851 10.1281C25.2816 9.06823 27.7001 8.29554 30.1857 7.82755Z" fill="#CC0E0E"/>
<path d="M20.902 14.0374C20.8035 14.0942 20.7207 14.1702 20.6339 14.239C20.5378 14.3143 20.4473 14.3963 20.363 14.4845C18.6039 14.6374 15.3372 15.3138 13.0016 16.9857C13.6691 16.3065 14.3717 15.6555 15.1093 15.0327L15.1621 15.0023C15.8258 14.4221 16.5265 13.8816 17.247 13.3672C18.3802 13.3647 20.2584 13.4993 20.902 14.0374Z" fill="#CC0E0E"/>
<path d="M19.7885 15.1901C19.874 15.0498 19.9686 14.9153 20.0718 14.7874C14.71 17.4142 9.97467 21.5079 7.13593 26.3445C6.99593 26.8004 6.87554 27.2497 6.77125 27.6944C6.99787 29.5 8.01072 30.8564 10.2408 30.6098C10.5047 30.5908 10.7639 30.5298 11.0086 30.4291C11.3209 29.2164 11.7522 28.0376 12.2964 26.9098C13.4815 24.428 15.0872 22.1701 17.0424 20.2359C18.1482 19.1116 19.3289 18.0634 20.5761 17.0985C19.5888 16.9558 19.2353 16.1566 19.7885 15.1901Z" fill="#E51717"/>
<path d="M42.7647 9.61395C42.3152 9.2291 41.838 8.87775 41.3372 8.56263C40.6035 8.29224 39.8511 8.07482 39.086 7.91186C33.4936 7.93823 27.5696 9.98931 22.6209 13.3153C22.7836 13.2884 22.9483 13.2748 23.1133 13.2749C24.2248 13.2755 24.7402 13.9813 24.364 14.8971C25.8233 14.2994 27.3214 13.801 28.848 13.4055C31.5013 12.6795 34.2605 12.4191 37.0028 12.6358C39.0059 12.7719 40.9711 13.2482 42.8142 14.0444C44.5132 12.951 44.084 10.8919 42.7647 9.61395Z" fill="#E51717"/>
<path d="M22.4953 16.7211C22.1734 16.8803 21.8315 16.9956 21.479 17.0641C18.529 20.5631 16.4015 27.3382 16.9616 33.2133C17.0187 33.8321 18.1848 34.6499 18.6674 34.9011C19.4746 35.3426 20.4205 35.4577 21.31 35.2227C21.7663 35.0572 22.1854 34.8031 22.5432 34.475C22.901 34.1469 23.1903 33.7514 23.3947 33.3111C23.7198 32.6967 24.5325 31.0507 24.3354 30.3439C22.8084 24.816 21.8078 18.9655 22.4953 16.7211Z" fill="#E51717"/>
<path d="M23.8752 15.6782C23.6384 15.9499 23.3664 16.1889 23.0665 16.3889C25.5516 16.9656 30.6949 21.3668 34.9278 25.8154C36.5423 26.2243 38.2605 26.2685 39.4738 24.9022C40.9983 23.0843 40.4747 21.211 39.4336 19.3833C34.6708 16.2909 28.1721 14.9182 23.8752 15.6782Z" fill="#E51717"/>
<path d="M22.9421 10.0927C21.8724 11.5777 21.222 13.3504 21.4262 13.7202C21.4827 13.6829 21.5414 13.649 21.602 13.6187C21.6686 13.5839 21.7381 13.5548 21.8096 13.5317L21.8694 13.4971L21.9871 13.4573C21.9976 13.4464 22.011 13.4387 22.0257 13.435C22.0785 13.4045 22.1277 13.3761 22.1917 13.3814L22.2374 13.355L22.2656 13.3387C23.4603 11.5424 26.7304 9.13396 30.1428 7.79213C27.6571 8.26014 25.2387 9.03281 22.9421 10.0927Z" fill="#E51717"/>
<path d="M20.902 14.0374C20.8035 14.0942 20.7207 14.1702 20.6339 14.239C20.5378 14.3143 20.4473 14.3963 20.363 14.4845C18.6039 14.6374 15.3372 15.3138 13.0016 16.9857C13.6691 16.3065 14.3717 15.6555 15.1093 15.0327L15.1621 15.0023C15.8258 14.4221 16.5265 13.8816 17.247 13.3672C18.3802 13.3647 20.2584 13.4993 20.902 14.0374Z" fill="#E51717"/>
</g>
</g>
<defs>
<clipPath id="clip0_93_745">
<rect width="46.2905" height="69.8418" fill="white" transform="translate(0 23.1453) rotate(-30)"/>
</clipPath>
</defs>
</svg>
