<svg width="210" height="154" viewBox="0 0 210 154" fill="none" xmlns="http://www.w3.org/2000/svg">
<path fill-rule="evenodd" clip-rule="evenodd" d="M52.356 91.2409L41.5889 58.7849C40.2738 54.8935 36.0821 52.7409 32.219 54.0656C28.356 55.3903 26.219 59.6129 27.5341 63.5043L38.3834 95.9602C39.6985 99.8516 43.8903 102.004 47.7533 100.68C51.6163 99.3548 53.7533 95.1323 52.4382 91.2409H52.356Z" fill="#4D4645"/>
<path fill-rule="evenodd" clip-rule="evenodd" d="M134.548 133.963V12.0054H123.123V133.963H127.068V55.6387H130.603V133.963H134.548Z" fill="#332E2D"/>
<path d="M141.863 100.017H119.836V133.963H141.863V100.017Z" fill="#4D4645"/>
<path d="M40.0274 89.9161H74.3836C79.6439 89.9161 83.9178 94.2215 83.9178 99.5204C83.9178 104.819 79.6439 109.125 74.3836 109.125H40.0274C34.7671 109.125 30.4932 104.819 30.4932 99.5204C30.4932 94.2215 34.7671 89.9161 40.0274 89.9161Z" fill="#332E2D"/>
<path fill-rule="evenodd" clip-rule="evenodd" d="M115.891 86.9355L122.384 109.87L93.3701 110.035C102.247 96.7054 102.987 96.3742 115.973 86.9355H115.891Z" fill="#332E2D"/>
<path fill-rule="evenodd" clip-rule="evenodd" d="M111.781 93.8075L94.6029 74.6817C93.5344 73.4398 91.5618 73.357 90.4111 74.5161C89.2604 75.6753 89.1782 77.5796 90.2467 78.7387L107.425 97.8645C108.493 99.1064 110.466 99.1892 111.617 98.0301C112.849 96.871 112.849 94.9667 111.781 93.8075Z" fill="#332E2D"/>
<path fill-rule="evenodd" clip-rule="evenodd" d="M79.2332 77.4968L94.8497 62.9247C96.7401 61.186 99.699 61.2688 101.425 63.1731C103.151 65.0774 103.069 68.0581 101.178 69.7968L85.562 84.3688C83.6716 86.1075 80.7127 86.0247 78.9867 84.1204C77.2606 82.2161 77.3428 79.2355 79.2332 77.4968Z" fill="#4D4645"/>
<path fill-rule="evenodd" clip-rule="evenodd" d="M88.1094 13.1645H31.4793C27.1231 13.1645 23.5889 16.7247 23.5889 21.1129V126.181C23.5889 130.569 27.1231 134.129 31.4793 134.129H121.397C125.753 134.129 130.685 130.32 129.287 126.181L96.082 21.1957C94.7669 17.0559 92.5478 13.2473 88.1916 13.2473L88.1094 13.1645ZM86.4656 18.5462C90.4108 18.5462 92.3834 22.0236 93.6163 25.8322L123.616 121.544C124.767 125.353 120.411 128.83 116.466 128.83H35.4245C31.4793 128.83 28.2738 125.518 28.2738 121.544V25.8322C28.2738 21.858 31.4793 18.5462 35.4245 18.5462H86.5478H86.4656Z" fill="#4D4645"/>
<path fill-rule="evenodd" clip-rule="evenodd" d="M23.589 100.431V125.187C23.589 130.072 27.1233 134.129 31.4794 134.129H121.397C125.753 134.129 130.849 129.824 129.288 125.187L121.89 103.081H29.0959C26.6301 103.081 24.9863 102.418 23.5068 100.431H23.589Z" fill="#CF3E3A"/>
<path d="M41.3426 81.9677H12.4111C8.82505 81.9677 5.91797 84.8962 5.91797 88.5086V115.003C5.91797 118.616 8.82505 121.544 12.4111 121.544H41.3426C44.9287 121.544 47.8358 118.616 47.8358 115.003V88.5086C47.8358 84.8962 44.9287 81.9677 41.3426 81.9677Z" fill="#880006"/>
<path fill-rule="evenodd" clip-rule="evenodd" d="M23.5889 117.322V125.27C23.5889 130.155 27.1231 134.212 31.4793 134.212H121.397C125.753 134.212 130.849 129.906 129.287 125.27L126.657 117.322H23.5889Z" fill="#880006"/>
<path fill-rule="evenodd" clip-rule="evenodd" d="M26.9589 81.9677H12.4932C8.87671 81.9677 6 84.9484 6 88.5086V115.003C6 118.646 8.9589 121.544 12.4932 121.544H26.9589V81.9677Z" fill="#CF3E3A"/>
<path d="M195.945 0.827942H134.219V53.6516H195.945V0.827942Z" fill="#F9C98A"/>
<path d="M165.123 0.827942H134.219V53.6516H165.123V0.827942Z" fill="#DDA866"/>
<path d="M197.589 0H132.739V9.35591H197.589V0Z" fill="#F0B567"/>
<path d="M165.123 0H132.739V9.35591H165.123V0Z" fill="#D89C52"/>
<path d="M192.41 13.6613H171.369V23.2656H192.41V13.6613Z" fill="#332E2D"/>
<path d="M175.15 14.9033H172.931V22.0237H175.15V14.9033Z" fill="#676767"/>
<path d="M179.177 14.9033H176.958V22.0237H179.177V14.9033Z" fill="#676767"/>
<path d="M183.287 14.9033H181.067V22.0237H183.287V14.9033Z" fill="#676767"/>
<path d="M187.068 14.9033H184.849V22.0237H187.068V14.9033Z" fill="#676767"/>
<path d="M190.848 14.9033H188.629V22.0237H190.848V14.9033Z" fill="#676767"/>
<path fill-rule="evenodd" clip-rule="evenodd" d="M198.575 53.5688H123.123V59.0334H210L198.575 53.5688Z" fill="#4D4645"/>
<path fill-rule="evenodd" clip-rule="evenodd" d="M125.836 152.924C136.438 152.924 145.151 144.147 145.151 133.467C145.151 122.786 136.438 114.01 125.836 114.01C115.233 114.01 106.521 122.786 106.521 133.467C106.521 144.147 115.233 152.924 125.836 152.924Z" fill="#332E2D"/>
<path fill-rule="evenodd" clip-rule="evenodd" d="M125.836 141.167C130.028 141.167 133.48 137.689 133.48 133.467C133.48 129.244 130.028 125.849 125.836 125.849C121.644 125.849 118.274 129.327 118.274 133.467C118.274 137.606 121.644 141.167 125.836 141.167Z" fill="#615654"/>
<path fill-rule="evenodd" clip-rule="evenodd" d="M125.836 106.641C136.932 106.641 146.466 113.513 150.493 123.2H145.809C142.11 115.914 134.548 110.946 125.918 110.946C117.288 110.946 109.726 115.914 106.028 123.2H101.343C105.37 113.513 114.904 106.641 126 106.641H125.836Z" fill="#332E2D"/>
<path fill-rule="evenodd" clip-rule="evenodd" d="M24.6578 154C35.2606 154 43.9729 145.224 43.9729 134.543C43.9729 123.862 35.2606 115.086 24.6578 115.086C14.0551 115.086 5.34277 123.862 5.34277 134.543C5.34277 145.224 14.0551 154 24.6578 154Z" fill="#332E2D"/>
<path fill-rule="evenodd" clip-rule="evenodd" d="M24.6575 142.16C28.8493 142.16 32.2192 138.766 32.2192 134.543C32.2192 130.32 28.7671 126.926 24.6575 126.926C20.5479 126.926 17.0137 130.403 17.0137 134.543C17.0137 138.683 20.4657 142.16 24.6575 142.16Z" fill="#615654"/>
<path fill-rule="evenodd" clip-rule="evenodd" d="M24.6575 107.634C35.7534 107.634 45.2877 114.506 49.3151 124.194H44.6301C40.9315 116.908 33.3699 111.94 24.7397 111.94C16.1096 111.94 8.54795 116.908 4.84931 124.194H0C4.0274 114.506 13.5616 107.634 24.6575 107.634Z" fill="#332E2D"/>
</svg>
