<svg width="114" height="172" viewBox="0 0 114 172" fill="none" xmlns="http://www.w3.org/2000/svg">
<g clip-path="url(#clip0_93_203)">
<mask id="mask0_93_203" style="mask-type:luminance" maskUnits="userSpaceOnUse" x="0" y="0" width="114" height="172">
<path d="M113.49 0H0V171.31H113.49V0Z" fill="white"/>
</mask>
<g mask="url(#mask0_93_203)">
<path d="M40.2484 161.74L39.3984 162.23V161.25L40.2484 160.77V161.74Z" fill="#4F2E16"/>
<path d="M73.4584 112.83L69.0884 110.3L55.0884 102.19L41.9984 109.72L39.8184 111L39.5984 111.13L37.5984 112.28L23.3984 120.44L36.2284 127.86L37.5184 128.61L37.7384 128.74L39.8184 129.94L41.8984 131.15L55.7284 139.15L69.8584 131L71.9384 129.8L72.1484 129.67L74.2384 128.47L87.3584 120.9L73.4584 112.83Z" fill="#FFDDA8"/>
<path d="M55.7385 139.13L55.7184 171.31L41.8984 163.38L41.8384 163.35L39.3984 161.95L38.5784 161.48L37.5184 160.88L36.2284 160.14L23.3984 152.78L23.4084 120.45L37.5184 128.61L38.5884 129.22L39.4084 129.7L41.9084 131.14L55.7385 139.13Z" fill="#BC7C46"/>
<path d="M74.2283 128.45L73.0883 129.1L72.2783 129.58L72.1083 129.68L71.8983 129.8L69.8483 131L55.7383 139.15V171.33L69.8583 163.23L72.2783 161.84L73.1083 161.36L74.2383 160.72L87.3783 153.19V120.88L74.2283 128.45Z" fill="#DDA866"/>
<path d="M58.4778 164.47L58.2578 164.6V160.83L58.4778 160.7V164.47Z" fill="#9E1D22"/>
<path d="M59.2466 161.09L59.0966 161.35L58.3666 160.86L57.6466 162.19L57.4766 162.11L58.3666 160.5L59.2466 161.09Z" fill="#9E1D22"/>
<path d="M60.6397 163.22L60.4297 163.35V159.58L60.6397 159.46V163.22Z" fill="#9E1D22"/>
<path d="M61.4184 159.84L61.2584 160.1L60.5384 159.61L59.8084 160.94L59.6484 160.86L60.5384 159.25L61.4184 159.84Z" fill="#9E1D22"/>
<path d="M61.4675 162.87L57.4675 165.2C57.4075 165.2 57.3675 165.2 57.3675 165.14C57.3655 165.102 57.3737 165.065 57.3913 165.031C57.4089 164.998 57.4352 164.97 57.4675 164.95L61.4675 162.62C61.5275 162.62 61.5775 162.62 61.5775 162.68C61.5756 162.718 61.5646 162.755 61.5455 162.788C61.5263 162.821 61.4996 162.849 61.4675 162.87Z" fill="#9E1D22"/>
<path d="M61.4397 163.89L57.4397 166.18C57.0197 166.42 56.6797 166.18 56.6797 165.74V161.16C56.6942 160.897 56.7706 160.642 56.9026 160.414C57.0347 160.186 57.2187 159.993 57.4397 159.85L61.4397 157.55C61.8597 157.31 62.1997 157.55 62.1997 157.99V162.58C62.1829 162.842 62.1055 163.097 61.9736 163.324C61.8417 163.552 61.659 163.745 61.4397 163.89ZM57.4397 160.1C57.2827 160.202 57.1515 160.34 57.0561 160.501C56.9607 160.662 56.9038 160.843 56.8897 161.03V165.62C56.8897 165.96 57.1397 166.1 57.4397 165.93L61.4397 163.64C61.5977 163.537 61.7291 163.398 61.8229 163.235C61.9168 163.072 61.9705 162.888 61.9797 162.7V158.12C61.9797 157.77 61.7397 157.63 61.4397 157.8L57.4397 160.1Z" fill="#9E1D22"/>
<path d="M68.4498 159.9L64.3698 162.26C63.9398 162.51 63.5898 162.31 63.5898 161.81V157.09C63.6058 156.82 63.6847 156.557 63.8201 156.323C63.9555 156.088 64.1437 155.889 64.3698 155.74L68.4598 153.39C68.8898 153.14 69.2298 153.39 69.2298 153.84V158.55C69.2153 158.821 69.1371 159.084 69.0015 159.318C68.866 159.553 68.6769 159.752 68.4498 159.9ZM64.3698 156C64.2023 156.109 64.0638 156.257 63.9662 156.431C63.8686 156.605 63.8149 156.8 63.8098 157V161.72C63.8098 162.07 64.0598 162.22 64.3698 162.05L68.4598 159.69C68.6243 159.579 68.7599 159.43 68.8556 159.256C68.9512 159.083 69.0041 158.888 69.0098 158.69V154C69.0098 153.65 68.7598 153.5 68.4598 153.68L64.3698 156Z" fill="#9E1D22"/>
<path d="M66.4091 159.8C66.3969 159.807 66.3831 159.811 66.369 159.811C66.3549 159.811 66.341 159.807 66.3288 159.8C66.3166 159.793 66.3066 159.783 66.2996 159.77C66.2926 159.758 66.289 159.744 66.2891 159.73V156.35C66.303 156.274 66.346 156.205 66.4091 156.16C66.4198 156.153 66.4324 156.148 66.4454 156.148C66.4583 156.147 66.4713 156.15 66.4827 156.156C66.4941 156.162 66.5036 156.172 66.51 156.183C66.5165 156.194 66.5196 156.207 66.5191 156.22V159.6C66.5165 159.639 66.5053 159.678 66.4863 159.712C66.4673 159.747 66.441 159.777 66.4091 159.8Z" fill="#9E1D22"/>
<path d="M66.9069 159.5L65.9069 160.09C65.8469 160.09 65.7969 160.09 65.7969 160.03C65.7989 159.99 65.8098 159.952 65.8288 159.917C65.8479 159.883 65.8746 159.853 65.9069 159.83L66.9069 159.25C66.9769 159.25 67.0269 159.25 67.0269 159.31C67.024 159.349 67.0115 159.387 66.9906 159.42C66.9696 159.453 66.9409 159.481 66.9069 159.5Z" fill="#9E1D22"/>
<path d="M67.4898 155.23V156.81C67.4764 157.041 67.4088 157.265 67.2924 157.465C67.176 157.665 67.0141 157.835 66.8198 157.96L65.9998 158.43C65.6298 158.65 65.3398 158.43 65.3398 158.05V156.47L65.7398 156.24V157.93C65.7398 158 65.7898 158.03 65.8498 157.99C65.8819 157.969 65.9087 157.941 65.9278 157.908C65.9469 157.875 65.9579 157.838 65.9598 157.8V156.11L67.4898 155.23Z" fill="#9E1D22"/>
<path d="M55 102.68L24.25 120.45L55.73 138.45L86.51 120.82L55 102.68Z" fill="#F9C98A"/>
<path d="M87.3566 121.2V121.45L55.7266 139.7V139.45L87.3566 121.2Z" fill="#BC7C46"/>
<path d="M72.1477 129.65L71.9377 129.78L39.5977 111.1L39.8177 110.97L72.1477 129.65Z" fill="#BC7C46"/>
<path d="M72.1067 129.68V130.2H71.8867V129.8L72.1067 129.68Z" fill="#BC7C46"/>
<path d="M74.2298 128.42L74.2198 160.7L69.8398 163.21L69.8498 130.95L74.2298 128.42Z" fill="#9E1D22"/>
<path d="M74.2372 128.45L72.1472 129.65L71.9372 129.78L69.8572 130.98L37.6172 112.25L39.5972 111.1L39.8172 110.97L41.9772 109.72L74.2372 128.45Z" fill="#9E1D22"/>
<path d="M41.9078 131.12L41.8978 163.38L41.8378 163.35L37.5078 160.88L37.5178 128.59L41.9078 131.12Z" fill="#9E1D22"/>
<path d="M73.4595 112.83L41.8995 131.15L39.8295 129.94L39.5995 129.81L37.7495 128.74L37.5195 128.61L64.0495 113.23L66.0395 112.07L69.0895 110.31L70.7895 111.28L71.8995 111.93L73.4595 112.83Z" fill="#9E1D22"/>
<path d="M85.6478 133.42L76.5078 138.7V130.84L85.6578 125.57L85.6478 133.42Z" fill="#D5EEFA"/>
<path d="M84.7789 127.92L77.3789 132.2V131.32L84.7789 127.05V127.92Z" fill="#4F2E16"/>
<path d="M84.7789 129.5L77.3789 133.78V133.39L84.7789 129.12V129.5Z" fill="#B2AEAB"/>
<path d="M84.7789 130.54L77.3789 134.81V134.42L84.7789 130.15V130.54Z" fill="#B2AEAB"/>
<path d="M84.7789 131.65L77.3789 135.92V135.53L84.7789 131.26V131.65Z" fill="#B2AEAB"/>
<path d="M84.7789 132.68L77.3789 136.95V136.56L84.7789 132.29V132.68Z" fill="#B2AEAB"/>
<path d="M71.897 111.93L64.047 113.23L55.4269 114.66L55.2969 113.85L66.037 112.07L70.787 111.28L71.897 111.93Z" fill="#4F2E16"/>
<path d="M55.2038 112.973L53.4375 113.993L54.8033 116.357L56.5697 115.336L55.2038 112.973Z" fill="#939899"/>
<path d="M54.5891 112.22C54.561 112.372 54.5442 112.526 54.5391 112.68C54.5466 112.999 54.597 113.315 54.6891 113.62C54.8033 113.609 54.9174 113.641 55.0091 113.71C55.2311 113.855 55.4162 114.05 55.5498 114.279C55.6834 114.508 55.7619 114.765 55.7791 115.03C55.7835 115.148 55.7559 115.266 55.6991 115.37C55.9109 115.606 56.157 115.808 56.4291 115.97C56.5657 116.045 56.7098 116.105 56.8591 116.15C56.9792 116.205 57.109 116.236 57.241 116.241C57.3731 116.245 57.5047 116.224 57.6284 116.177C57.7521 116.131 57.8653 116.06 57.9615 115.97C58.0578 115.879 58.1351 115.771 58.1891 115.65C58.2961 115.401 58.3473 115.131 58.3391 114.86C58.3032 114.2 58.1125 113.557 57.7825 112.984C57.4525 112.41 56.9923 111.923 56.4391 111.56C56.2096 111.425 55.954 111.34 55.6891 111.31C55.4808 111.294 55.2724 111.34 55.0891 111.44C54.955 111.527 54.8409 111.641 54.7547 111.776C54.6685 111.91 54.612 112.062 54.5891 112.22Z" fill="#939899"/>
<path d="M53.6797 112.27L55.0997 111.45C55.2829 111.35 55.4913 111.304 55.6997 111.32L58.1997 115.66C58.1072 115.845 57.9653 116.001 57.7897 116.11L56.3697 116.93L55.5597 115.54C55.6265 115.505 55.6794 115.449 55.7097 115.38C55.7664 115.276 55.794 115.159 55.7897 115.04C55.7725 114.775 55.694 114.518 55.5603 114.289C55.4267 114.06 55.2416 113.865 55.0197 113.72C54.928 113.651 54.8138 113.619 54.6997 113.63C54.6306 113.614 54.5587 113.614 54.4897 113.63L53.6797 112.27Z" fill="#939899"/>
<path d="M54.9983 112.4C54.8677 112.313 54.7218 112.252 54.5683 112.22C54.4256 112.154 54.2704 112.12 54.1133 112.12C53.9562 112.12 53.801 112.154 53.6583 112.22C53.462 112.357 53.3063 112.545 53.2077 112.763C53.1092 112.981 53.0714 113.222 53.0983 113.46C53.1199 114.094 53.2986 114.712 53.6183 115.26C53.7516 115.505 53.9091 115.736 54.0883 115.95C54.3437 116.267 54.6515 116.537 54.9983 116.75C55.1899 116.889 55.4151 116.974 55.6506 116.997C55.8862 117.02 56.1236 116.98 56.3383 116.88C56.4732 116.795 56.5884 116.683 56.6764 116.55C56.7643 116.417 56.8229 116.267 56.8483 116.11C56.8907 115.961 56.9076 115.805 56.8983 115.65C56.8571 114.998 56.6638 114.364 56.3339 113.8C56.0039 113.235 55.5466 112.756 54.9983 112.4ZM55.7683 115.04C55.7726 115.158 55.745 115.276 55.6883 115.38C55.6516 115.442 55.6 115.493 55.5383 115.53C55.4562 115.577 55.3631 115.602 55.2683 115.602C55.1735 115.602 55.0804 115.577 54.9983 115.53C54.9288 115.492 54.8648 115.445 54.8083 115.39C54.5989 115.201 54.4377 114.964 54.3383 114.7C54.2696 114.542 54.2322 114.372 54.2283 114.2C54.2247 114.106 54.2438 114.012 54.2838 113.927C54.3238 113.842 54.3836 113.767 54.4583 113.71C54.5267 113.689 54.5999 113.689 54.6683 113.71C54.7825 113.699 54.8966 113.731 54.9883 113.8C55.0563 113.84 55.1199 113.887 55.1783 113.94L55.2683 113.86L55.8283 114.46L55.6483 114.62C55.7141 114.739 55.7613 114.867 55.7883 115L55.7683 115.04Z" fill="#D1D1D1"/>
<path d="M39.4081 129.7L39.3981 162.23L38.5781 161.74L38.5881 129.22L39.4081 129.7Z" fill="#4F2E16"/>
<path d="M55.857 114.38L55.677 114.54C55.5776 114.279 55.4163 114.045 55.207 113.86L55.297 113.78L55.857 114.38Z" fill="#D1D1D1"/>
<path d="M55.6798 114.54L54.8298 115.34L54.1098 116L39.4098 129.7L38.5898 129.22L53.5898 115.31L54.3098 114.65L55.1598 113.86C55.3873 114.04 55.5662 114.273 55.6798 114.54Z" fill="#4F2E16"/>
<path d="M55.5683 114.31C55.6258 114.403 55.6696 114.504 55.6983 114.61L55.4883 114.42L55.5683 114.31Z" fill="#4F2E16"/>
<path d="M106.828 55.1L57.3086 112.32C57.4362 112.465 57.5531 112.618 57.6586 112.78L106.828 56V55.1Z" fill="#4F2E16"/>
<path d="M55.2995 114.79L5.26953 54.6899L5.70953 54.3199L55.6795 114.54L55.2995 114.79Z" fill="#4F2E16"/>
<path d="M55.2069 114.68L37.0469 71.93L37.577 71.7L55.6769 114.54L55.2069 114.68Z" fill="#4F2E16"/>
<path d="M55.5675 114.31C55.625 114.403 55.6688 114.504 55.6975 114.61L55.4375 114.49L55.5475 114.26L55.5675 114.31Z" fill="#4F2E16"/>
<path d="M76.7887 70.89L57.1688 112.16C57.0313 112.013 56.8806 111.879 56.7188 111.76L76.2688 70.65L76.7887 70.89Z" fill="#4F2E16"/>
<path d="M94.9997 12.6999C73.8797 -1.81006 39.6297 -1.82006 18.4997 12.6699C-2.63032 27.1599 -2.64032 50.6699 18.4997 65.1699C39.6397 79.6699 73.8797 79.6799 95.0097 65.1699C116.14 50.6599 116.13 27.1999 94.9997 12.6999Z" fill="#A20F0F"/>
<path d="M113.049 34.14C111.559 25.83 106.169 17.79 96.8787 11.41C92.6427 8.53889 88.0594 6.217 83.2387 4.5C77.3508 2.38913 71.2242 1.01535 64.9987 0.41C62.252 0.136667 59.4954 0 56.7287 0H55.7887C53.4687 0 51.1387 0.14 48.7887 0.37C46.4387 0.6 44.4587 0.87 42.3287 1.26H42.1787C39.8387 1.68 37.5387 2.20333 35.2787 2.83C28.631 4.62911 22.3238 7.50739 16.6087 11.35C14.7338 12.6322 12.9496 14.0422 11.2687 15.57C23.2687 8.75 38.4187 5.84 53.0887 6.85C53.3599 6.74689 53.6371 6.66007 53.9187 6.59C53.9719 6.58437 54.0255 6.58437 54.0787 6.59C54.3804 6.50702 54.6879 6.44685 54.9987 6.41C55.2687 6.41 55.5387 6.33 55.8187 6.31H56.2687C56.5987 6.31 56.9187 6.31 57.2687 6.31H57.8487L58.3987 6.38C58.5567 6.39775 58.7137 6.42446 58.8687 6.46C58.9046 6.44972 58.9427 6.44972 58.9787 6.46L59.3987 6.55H59.5287C60.2279 6.72678 60.9005 6.99581 61.5287 7.35C61.8594 7.53446 62.168 7.75588 62.4487 8.01C62.7315 8.21998 62.9679 8.48605 63.1431 8.79157C63.3183 9.09709 63.4287 9.43549 63.4671 9.78559C63.5056 10.1357 63.4714 10.49 63.3668 10.8263C63.2621 11.1625 63.0891 11.4736 62.8587 11.74C62.4836 12.1861 62.0293 12.559 61.5187 12.84C60.2849 13.5025 58.9177 13.8785 57.5187 13.94C56.9694 13.98 56.418 13.98 55.8687 13.94C54.986 13.8829 54.115 13.708 53.2787 13.42C52.8283 13.2674 52.3931 13.0733 51.9787 12.84C51.7448 12.7063 51.5209 12.5559 51.3087 12.39C45.9325 12.9546 40.6363 14.1185 35.5187 15.86C30.5757 17.6698 25.887 20.11 21.5687 23.12C8.71872 32 3.31872 44 5.39872 55.51C8.43117 59.8154 12.2354 63.5213 16.6187 66.44C17.6787 67.18 18.7787 67.87 19.9087 68.53C25.9063 72.0106 32.4117 74.5311 39.1887 76C57.1887 80 77.5887 77.69 92.8787 69C94.2487 68.22 95.5787 67.4 96.8787 66.52C109.729 57.65 115.129 45.63 113.049 34.14Z" fill="#D5EEFA"/>
<path d="M16.6173 11.3901C14.7424 12.6723 12.9582 14.0823 11.2773 15.6101C12.9973 14.6601 14.7073 13.7901 16.4973 13.0001C17.3698 11.8406 18.308 10.7322 19.3073 9.68005C18.3973 10.2201 17.4973 10.7901 16.6173 11.3901Z" fill="#D5EEFA"/>
<path d="M15.3678 41.45C17.3678 42.13 20.1278 44.17 22.8478 42.81C24.8478 41.46 26.9278 40.81 27.6078 38.06C28.9978 42.14 30.3278 50.3 36.4478 48.94C37.8078 48.94 39.8478 46.22 40.5278 44.18C42.5278 52.34 52.7679 55.06 60.9278 53.71C64.9979 52.35 70.4578 51 71.8178 46.91C73.1778 43.51 75.8978 40.79 75.8978 37.39C75.8978 38.75 76.5778 40.79 77.8978 40.11C79.2578 40.11 77.8978 37.39 78.5778 36.03C85.3778 40.11 97.5778 42.84 101.018 34.03C102.388 29.95 103.018 24.51 99.6678 20.42C98.3078 19.06 97.6678 17.02 96.2678 15.66C97.6278 16.34 98.2678 14.3 98.2678 13.66C98.5275 13.4587 98.7715 13.2381 98.9978 13C98.3178 12.47 97.6178 11.95 96.8778 11.45C92.6439 8.56494 88.0605 6.22957 83.2378 4.5C77.3499 2.38913 71.2233 1.01535 64.9978 0.41C62.2512 0.136667 59.4945 0 56.7278 0H55.7879C53.4679 0 51.1379 0.14 48.7879 0.37C46.4379 0.6 44.4578 0.87 42.3278 1.26H42.1778C39.8378 1.68 37.5378 2.20333 35.2778 2.83C29.6622 4.36469 24.2801 6.6521 19.2778 9.63C18.2873 10.6991 17.3591 11.8243 16.4978 13C28.0273 8.0446 40.5844 5.95175 53.0978 6.9C53.3691 6.79689 53.6463 6.71007 53.9278 6.64C53.981 6.63437 54.0347 6.63437 54.0878 6.64C54.385 6.5406 54.6892 6.46371 54.9978 6.41C55.2678 6.41 55.5378 6.33 55.8178 6.31H56.2679C56.5979 6.31 56.9179 6.31 57.2679 6.31H57.8478L58.3979 6.38C58.5559 6.39775 58.7128 6.42446 58.8678 6.46C58.9038 6.44972 58.9419 6.44972 58.9778 6.46L59.3979 6.55H59.5278C60.227 6.72678 60.8996 6.99581 61.5278 7.35C61.8585 7.53446 62.1672 7.75588 62.4479 8.01C62.7306 8.21998 62.967 8.48605 63.1423 8.79157C63.3175 9.09709 63.4278 9.43549 63.4663 9.78559C63.5048 10.1357 63.4706 10.49 63.3659 10.8263C63.2612 11.1625 63.0883 11.4736 62.8579 11.74C62.4828 12.1861 62.0285 12.559 61.5179 12.84C60.2841 13.5025 58.9169 13.8785 57.5179 13.94C56.9686 13.98 56.4171 13.98 55.8678 13.94C54.9852 13.8829 54.1141 13.708 53.2778 13.42C52.8275 13.2674 52.3922 13.0733 51.9778 12.84C51.744 12.7063 51.52 12.5559 51.3079 12.39C45.9317 12.9546 40.6354 14.1185 35.5178 15.86C30.5749 17.6698 25.8862 20.11 21.5678 23.12C19.5092 24.5265 17.5634 26.0912 15.7478 27.8H16.0378C11.9978 30.57 9.24788 38.05 15.3678 41.45Z" fill="#EAF5F9"/>
<path d="M51.3282 12.44C47.4798 12.9622 43.6711 13.744 39.9282 14.78C33.3765 16.4977 27.1716 19.3362 21.5881 23.17C8.71815 32 3.31815 44 5.39815 55.51C-3.41185 42.69 -1.44185 27.26 11.2781 15.61C23.2781 8.79002 38.4282 5.88002 53.0982 6.89002C52.7208 7.03572 52.3532 7.20609 51.9981 7.40002C49.6282 8.78002 49.3982 10.92 51.3282 12.44Z" fill="#9E1D22"/>
<path d="M62.1177 12.45C65.9661 12.9721 69.7748 13.7539 73.5177 14.79C80.0706 16.5088 86.2759 19.3509 91.8577 23.19C104.708 32 110.108 44 107.998 55.54C116.808 42.73 114.848 27.29 102.128 15.64C90.1577 8.80996 74.9977 5.88996 60.3477 6.88996C60.728 7.03288 61.0959 7.2068 61.4477 7.40996C63.8177 8.77996 64.0477 10.92 62.1177 12.45Z" fill="#9E1D22"/>
<path d="M39.1881 76C32.414 74.5467 25.9087 72.0431 19.9081 68.58C18.9561 61.5275 19.5985 54.3512 21.7881 47.58C26.4481 32.33 41.3281 17.81 53.2981 13.47C54.1344 13.758 55.0055 13.9329 55.8881 13.99C47.5081 21.82 35.8581 67.93 39.1881 76Z" fill="#9E1D22"/>
<path d="M74.1778 76C80.9523 74.5474 87.4599 72.0509 93.4678 68.6C94.4176 61.5481 93.7787 54.3731 91.5978 47.6C86.9978 32.35 72.0678 17.82 60.1078 13.47C59.2681 13.7579 58.3937 13.9328 57.5078 13.99C65.8978 21.83 77.5178 67.94 74.1778 76Z" fill="#9E1D22"/>
<path d="M83.2377 4.50004C74.3077 3.16004 64.3677 4.27004 59.6077 6.63004H59.5277H59.3977C59.2677 6.63004 59.1277 6.57004 58.9777 6.54004C58.9418 6.52976 58.9036 6.52976 58.8677 6.54004L58.5677 6.48004H58.3977C58.2166 6.44137 58.0327 6.41795 57.8477 6.41004C57.6812 6.40013 57.5142 6.40013 57.3477 6.41004C57.3477 5.41004 60.9377 2.41004 65.0477 0.540039C71.2507 1.10743 77.3602 2.43747 83.2377 4.50004Z" fill="#CC0E0E"/>
<path d="M55.7886 6.31C55.5086 6.31 55.2386 6.37 54.9686 6.41C54.671 6.45207 54.3769 6.51557 54.0886 6.6C50.1486 4.76 42.3486 2.18 35.3086 2.87C37.5686 2.24334 39.8686 1.72 42.2086 1.3H42.3586C44.4886 0.880005 46.6486 0.590005 48.8186 0.380005C51.2386 1.77 55.0786 4.37 55.7886 6.31Z" fill="#CC0E0E"/>
<path d="M51.9997 7.40002C52.3548 7.20609 52.7222 7.03573 53.0997 6.89002C38.4297 5.89002 23.2897 8.79002 11.2797 15.61C10.4197 16.41 9.6097 17.22 8.8397 18.04C7.0997 22.17 7.5897 26.31 12.6497 28.53C13.2359 28.8145 13.8638 29.0036 14.5097 29.09C16.6689 26.8883 19.0404 24.9053 21.5897 23.17C27.1732 19.3362 33.3781 16.4977 39.9297 14.78C43.6726 13.744 47.4813 12.9622 51.3297 12.44C49.3997 10.92 49.6297 8.78002 51.9997 7.40002Z" fill="#E51717"/>
<path d="M107.868 23.8C107.383 22.4256 106.798 21.0887 106.118 19.8C104.886 18.3198 103.549 16.9296 102.118 15.64C90.1577 8.80996 74.9977 5.88996 60.3477 6.88996C60.728 7.03288 61.0959 7.2068 61.4477 7.40996C63.8177 8.77996 64.0477 10.92 62.1177 12.41C65.9661 12.9321 69.7748 13.7139 73.5177 14.75C80.0706 16.4688 86.2759 19.3109 91.8577 23.15C95.9623 25.9066 99.5672 29.3425 102.518 33.31C107.488 33.07 109.108 28.15 107.868 23.8Z" fill="#E51717"/>
<path d="M55.8878 14C55.0052 13.9429 54.1341 13.768 53.2978 13.48C42.6978 17.31 29.8178 29.14 23.7778 42.36C23.1378 43.75 24.6178 46.93 25.3378 48.06C26.5157 49.9957 28.3912 51.4059 30.5778 52C31.7549 52.2088 32.9616 52.1829 34.1286 51.9238C35.2956 51.6646 36.3998 51.1774 37.3778 50.49C38.8278 49.58 42.5878 47.07 43.0378 45.32C46.5878 31.65 51.6578 17.94 55.8878 14Z" fill="#E51717"/>
<path d="M60.1078 13.47C59.2681 13.7579 58.3937 13.9328 57.5078 13.99C62.0978 18.28 67.6478 34 71.1978 48.7C74.1378 51.56 77.7478 53.77 82.0178 52.35C87.5078 50.35 88.6978 45.71 88.7278 40.53C82.3778 28.07 70.2078 17.14 60.1078 13.47Z" fill="#E51717"/>
<path d="M64.9969 0.410034C60.8869 2.26003 57.3169 5.24003 57.2969 6.28003C57.4635 6.27013 57.6304 6.27013 57.7969 6.28003C57.9819 6.28795 58.1659 6.31136 58.3469 6.35003H58.517L58.8169 6.41003C58.8529 6.39975 58.891 6.39975 58.9269 6.41003C59.0769 6.41003 59.2169 6.41003 59.3469 6.50003H59.4769H59.557C64.317 4.14003 74.257 3.03003 83.187 4.37003C77.3094 2.30746 71.2 0.97743 64.9969 0.410034Z" fill="#E51717"/>
<path d="M55.7886 6.31C55.5086 6.31 55.2386 6.37 54.9686 6.41C54.671 6.45207 54.3769 6.51557 54.0886 6.6C50.1486 4.76 42.3486 2.18 35.3086 2.87C37.5686 2.24334 39.8686 1.72 42.2086 1.3H42.3586C44.4886 0.880005 46.6486 0.590005 48.8186 0.380005C51.2386 1.77 55.0786 4.37 55.7886 6.31Z" fill="#E51717"/>
</g>
</g>
<defs>
<clipPath id="clip0_93_203">
<rect width="114" height="172" fill="white"/>
</clipPath>
</defs>
</svg>
