<svg width="302" height="167" viewBox="0 0 302 167" fill="none" xmlns="http://www.w3.org/2000/svg">
<path fill-rule="evenodd" clip-rule="evenodd" d="M269.799 13.4732L269.126 26.569H261.001V32.5106H255.208V37.5091H256.353C257.216 56.7352 255.868 87.4268 253.51 115.235H242.247V155.991H239V165.638H270.487V0.431274L269.813 13.4597L269.799 13.4732ZM248.579 153.633H243.419V151.127H248.579V153.633ZM249.172 148.5H243.392V145.981H249.172V148.5ZM249.765 143.367H243.365V140.834H249.765V143.367ZM250.358 138.234H243.352V135.701H250.358V138.234ZM250.937 133.114H243.325V130.568H250.937V133.114ZM251.53 127.981H243.298V125.434H251.53V127.981ZM252.123 122.847H243.284V120.288H252.123V122.847ZM264.572 53.7307C265.138 53.7307 265.717 53.7307 266.296 53.7307C266.323 54.7681 266.35 55.7785 266.364 56.816C265.798 56.816 265.219 56.816 264.653 56.816H262.942C262.915 55.7785 262.888 54.7681 262.861 53.7307C263.427 53.7307 264.006 53.7307 264.572 53.7307ZM262.955 48.6244C263.521 48.6244 264.087 48.6244 264.653 48.6244C265.219 48.6244 265.784 48.6244 266.35 48.6244C266.35 49.6484 266.377 50.6858 266.391 51.7097C265.825 51.7097 265.259 51.7097 264.693 51.7097H262.996C262.969 50.6858 262.955 49.6619 262.955 48.6379V48.6244ZM264.531 58.8504C265.111 58.8504 265.69 58.8504 266.269 58.8504C266.296 59.8609 266.337 60.8984 266.364 61.9223C265.784 61.9223 265.205 61.9223 264.626 61.9358C264.046 61.9358 263.467 61.9358 262.888 61.9358C262.847 60.9118 262.82 59.8744 262.793 58.8504C263.373 58.8504 263.952 58.8504 264.531 58.8504ZM264.531 63.9568C265.111 63.9568 265.704 63.9568 266.283 63.9568C266.323 64.9942 266.35 66.0181 266.391 67.0421C265.811 67.0421 265.219 67.0421 264.639 67.0421C264.06 67.0421 263.467 67.0421 262.888 67.069C262.847 66.0451 262.807 65.0076 262.78 63.9836C263.359 63.9836 263.952 63.9702 264.531 63.9568ZM264.531 69.0765C265.124 69.0765 265.717 69.0765 266.296 69.0495C266.337 70.087 266.364 71.1109 266.404 72.1214C265.811 72.1214 265.232 72.1483 264.639 72.1483C264.046 72.1483 263.467 72.1483 262.874 72.1753C262.834 71.1379 262.793 70.1274 262.753 69.1035C263.346 69.09 263.925 69.09 264.518 69.0765H264.531ZM266.431 77.2412C265.838 77.2412 265.246 77.2412 264.653 77.2412C264.06 77.2412 263.467 77.2681 262.874 77.2681C262.834 76.2577 262.793 75.2202 262.766 74.1962C263.359 74.1693 263.952 74.1693 264.545 74.1693C265.138 74.1693 265.731 74.1693 266.323 74.1424C266.364 75.1663 266.391 76.2037 266.431 77.2142V77.2412ZM260.436 43.4912H262.12C262.12 44.5151 262.12 45.5525 262.133 46.5765H258.765C258.765 45.5525 258.765 44.5151 258.751 43.4912H260.436ZM260.247 48.6109H261.945C261.958 49.6349 261.972 50.6723 261.999 51.6827C261.433 51.6827 260.867 51.6827 260.301 51.6827C259.735 51.6827 259.169 51.6827 258.603 51.6827C258.576 50.6588 258.563 49.6214 258.549 48.5974H260.247V48.6109ZM260.112 53.7307C260.678 53.7307 261.257 53.7307 261.837 53.7307C261.864 54.7546 261.891 55.792 261.918 56.816H258.482C258.455 55.792 258.428 54.7681 258.401 53.7442C258.981 53.7442 259.546 53.7442 260.126 53.7442L260.112 53.7307ZM260.031 58.8504H261.769C261.796 59.8744 261.837 60.9118 261.864 61.9358H258.401C258.361 60.9118 258.334 59.8744 258.293 58.8504H260.031ZM259.978 63.9702H261.729C261.769 64.9942 261.81 66.0316 261.837 67.0555H258.334C258.293 66.0316 258.253 64.9942 258.213 63.9702H259.964H259.978ZM259.951 69.09H261.716C261.756 70.1139 261.796 71.1513 261.837 72.1753H258.307C258.266 71.1513 258.226 70.1139 258.186 69.09H259.951ZM259.924 74.2097H261.702C261.743 75.2337 261.783 76.2711 261.823 77.2815H258.266C258.226 76.2711 258.186 75.2337 258.145 74.2097H259.924ZM259.897 79.3295H261.689C261.729 80.3534 261.756 81.3909 261.796 82.4014H258.213C258.172 81.3774 258.145 80.3534 258.105 79.3295H259.897ZM259.856 84.4492H261.662C261.689 85.4732 261.716 86.5106 261.743 87.5211C261.136 87.5211 260.53 87.5211 259.937 87.5211C259.331 87.5211 258.738 87.5211 258.132 87.5211C258.105 86.5106 258.078 85.4866 258.037 84.4492H259.843H259.856ZM259.775 89.569C260.382 89.569 260.988 89.569 261.594 89.569C261.621 90.593 261.635 91.6034 261.648 92.6409H257.997C257.984 91.6169 257.957 90.593 257.93 89.569H259.749H259.775ZM259.641 94.6888H261.487C261.487 95.7127 261.5 96.7367 261.5 97.7606H257.822C257.822 96.7367 257.822 95.7127 257.795 94.6888H259.641ZM257.593 99.8085H261.311C261.311 100.846 261.311 101.856 261.311 102.88H257.579C257.579 101.856 257.579 100.832 257.593 99.8085ZM257.323 104.928H261.109C261.109 105.952 261.109 106.976 261.096 108H257.283C257.296 106.976 257.31 105.952 257.323 104.928ZM257 110.048H260.88C260.88 111.072 260.853 112.096 260.853 113.12H256.933C256.96 112.096 256.987 111.059 257 110.048ZM256.623 115.168H260.611C260.611 116.192 260.584 117.216 260.557 118.24H256.515C256.542 117.216 256.582 116.178 256.609 115.168H256.623ZM256.205 120.288H260.314C260.301 121.312 260.274 122.335 260.247 123.373H256.084C256.124 122.335 256.165 121.312 256.192 120.288H256.205ZM255.76 125.394H259.991C259.964 126.431 259.937 127.455 259.924 128.479H255.639C255.68 127.455 255.72 126.418 255.76 125.394ZM255.289 130.514H259.641C259.614 131.538 259.587 132.575 259.546 133.599C258.819 133.599 258.078 133.599 257.35 133.599C256.623 133.599 255.882 133.599 255.154 133.599C255.195 132.575 255.235 131.538 255.275 130.5L255.289 130.514ZM258.024 154.091H255.801C255.06 154.091 254.319 154.091 253.591 154.118C253.591 153.094 253.591 152.07 253.605 151.047C254.359 151.047 255.1 151.047 255.855 151.047H258.105C258.078 152.07 258.037 153.108 258.01 154.118L258.024 154.091ZM258.401 148.985H256.151C255.397 148.985 254.656 148.985 253.901 148.985C253.915 147.948 253.942 146.924 253.955 145.9C254.71 145.9 255.464 145.9 256.219 145.9H258.482C258.455 146.924 258.415 147.961 258.388 148.985H258.401ZM258.792 143.865H256.542C255.787 143.865 255.046 143.865 254.292 143.865C254.319 142.841 254.359 141.804 254.386 140.78C255.141 140.78 255.895 140.78 256.636 140.78H258.9C258.873 141.804 258.832 142.841 258.805 143.865H258.792ZM259.183 138.746H254.723C254.763 137.722 254.79 136.684 254.831 135.66H257.054C257.795 135.66 258.536 135.66 259.277 135.66C259.25 136.684 259.21 137.735 259.183 138.759V138.746ZM263.763 153.943C263.022 153.984 262.281 154.024 261.54 154.065C260.799 154.091 260.072 154.091 259.331 154.091C259.371 153.081 259.398 152.057 259.439 151.02C260.193 151.02 260.934 151.02 261.689 150.993C262.443 150.966 263.184 150.912 263.939 150.871C263.871 151.895 263.817 152.933 263.75 153.943H263.763ZM264.222 148.824C263.467 148.864 262.726 148.931 261.972 148.958C261.217 148.985 260.476 148.985 259.722 148.985C259.762 147.961 259.789 146.924 259.829 145.9C260.584 145.9 261.338 145.9 262.093 145.859C262.847 145.832 263.602 145.765 264.356 145.738C264.316 146.762 264.262 147.786 264.208 148.81L264.222 148.824ZM264.612 143.69C263.858 143.731 263.103 143.785 262.362 143.825C261.608 143.852 260.867 143.865 260.112 143.865C260.153 142.841 260.18 141.804 260.22 140.78C260.975 140.78 261.729 140.753 262.47 140.726C263.225 140.686 263.979 140.645 264.734 140.618C264.693 141.642 264.666 142.666 264.626 143.69H264.612ZM264.949 138.571C264.208 138.597 263.454 138.651 262.713 138.678C261.972 138.705 261.231 138.732 260.476 138.732C260.503 137.708 260.543 136.671 260.57 135.647C261.311 135.647 262.052 135.633 262.793 135.593C263.534 135.566 264.275 135.512 265.016 135.485C265.003 136.509 264.976 137.533 264.949 138.571ZM265.232 133.451C264.504 133.491 263.777 133.532 263.036 133.559C262.308 133.585 261.567 133.612 260.84 133.612C260.867 132.588 260.894 131.551 260.921 130.527C261.648 130.527 262.376 130.5 263.09 130.473C263.817 130.446 264.545 130.406 265.259 130.379C265.259 131.403 265.232 132.427 265.219 133.451H265.232ZM265.461 128.331C264.747 128.358 264.033 128.398 263.319 128.425C262.605 128.466 261.891 128.479 261.177 128.493C261.204 127.469 261.217 126.431 261.244 125.407C261.945 125.407 262.659 125.38 263.359 125.353C264.06 125.327 264.774 125.286 265.475 125.259C265.475 126.283 265.475 127.307 265.461 128.344V128.331ZM263.561 123.319C262.874 123.359 262.174 123.359 261.487 123.373C261.5 122.335 261.513 121.312 261.527 120.288C262.214 120.288 262.901 120.261 263.588 120.234C264.275 120.193 264.963 120.166 265.65 120.139C265.65 121.15 265.65 122.174 265.65 123.198C264.963 123.238 264.262 123.265 263.561 123.292V123.319ZM263.777 118.186C263.103 118.213 262.43 118.226 261.756 118.253C261.756 117.229 261.783 116.192 261.796 115.181C262.457 115.181 263.13 115.154 263.79 115.127C264.451 115.087 265.124 115.06 265.784 115.033C265.784 116.044 265.784 117.068 265.798 118.105C265.124 118.132 264.451 118.159 263.777 118.186ZM263.966 113.066C263.319 113.093 262.659 113.106 262.012 113.12C262.012 112.096 262.012 111.059 262.039 110.048C262.686 110.048 263.332 110.021 263.979 109.994C264.626 109.967 265.272 109.94 265.919 109.927C265.919 110.937 265.919 111.961 265.946 112.985C265.299 113.012 264.639 113.039 263.979 113.066H263.966ZM264.141 107.933C263.507 107.96 262.874 107.987 262.228 108C262.228 106.976 262.228 105.952 262.228 104.928C262.861 104.928 263.494 104.901 264.114 104.874C264.747 104.847 265.38 104.82 266.013 104.82C266.013 105.844 266.027 106.855 266.04 107.892C265.407 107.892 264.774 107.919 264.141 107.946V107.933ZM264.302 102.826C263.683 102.853 263.063 102.853 262.443 102.88V99.7951C263.063 99.7681 263.683 99.7681 264.302 99.7412C264.922 99.7142 265.542 99.7007 266.162 99.6872C266.162 100.725 266.162 101.735 266.162 102.759C265.542 102.786 264.922 102.8 264.289 102.826H264.302ZM264.464 97.7067C263.844 97.7337 263.238 97.7337 262.618 97.7606C262.618 96.7367 262.618 95.7127 262.605 94.6888C263.225 94.6618 263.831 94.6483 264.451 94.6348C265.057 94.6214 265.677 94.608 266.296 94.608C266.296 95.6184 266.296 96.6423 266.31 97.6798C265.69 97.6798 265.084 97.7068 264.464 97.7202V97.7067ZM264.585 92.587C263.979 92.6005 263.373 92.6274 262.766 92.6274C262.753 91.6034 262.726 90.593 262.713 89.5556C263.319 89.5556 263.925 89.5286 264.531 89.5151C265.138 89.5016 265.744 89.4882 266.364 89.4747C266.377 90.5122 266.404 91.5226 266.418 92.5465C265.811 92.5465 265.205 92.56 264.599 92.5735L264.585 92.587ZM264.653 87.4672C264.046 87.4806 263.454 87.4942 262.847 87.5211C262.82 86.4972 262.793 85.4732 262.766 84.4357C263.373 84.4357 263.979 84.4088 264.572 84.3954C265.178 84.3819 265.784 84.3684 266.377 84.3684C266.404 85.3923 266.431 86.4298 266.458 87.4403C265.852 87.4403 265.259 87.4537 264.653 87.4672ZM264.68 82.3474C264.087 82.3474 263.481 82.3744 262.888 82.3744C262.861 81.3504 262.82 80.3265 262.78 79.3025C263.373 79.3025 263.979 79.2756 264.572 79.2621C265.165 79.2621 265.771 79.2621 266.364 79.2352C266.391 80.2591 266.431 81.2966 266.458 82.3071C265.865 82.3071 265.259 82.307 264.666 82.3339L264.68 82.3474ZM264.828 46.5495H263.144C263.144 45.5256 263.144 44.4882 263.144 43.4642H266.512C266.512 44.4882 266.512 45.5256 266.512 46.5495H264.828Z" fill="#3A383E"/>
<path fill-rule="evenodd" clip-rule="evenodd" d="M302 156.005H298.753V115.249H287.489C285.145 87.4402 283.784 56.7486 284.646 37.5225H285.792V32.524H279.998V26.5824H271.874L271.2 13.4865L270.5 0L270.473 0.45812V165.665H302V156.018V156.005ZM285.845 133.72C285.118 133.72 284.377 133.72 283.649 133.72C282.922 133.72 282.181 133.72 281.453 133.72C281.426 132.696 281.399 131.659 281.359 130.635H285.711C285.751 131.672 285.792 132.71 285.832 133.734L285.845 133.72ZM285.374 128.587H281.089C281.062 127.563 281.036 126.525 281.009 125.502H285.253C285.293 126.539 285.333 127.563 285.374 128.587ZM284.916 123.467H280.753C280.726 122.43 280.712 121.406 280.685 120.382H284.795C284.835 121.406 284.875 122.43 284.902 123.467H284.916ZM284.485 118.334H280.443C280.429 117.31 280.402 116.272 280.402 115.262H284.39C284.417 116.286 284.458 117.31 284.485 118.334ZM284.08 113.214H280.16C280.16 112.19 280.133 111.153 280.119 110.142H284C284.027 111.166 284.053 112.19 284.067 113.214H284.08ZM283.73 108.094H279.917C279.917 107.07 279.904 106.046 279.904 105.022H283.69C283.69 106.046 283.717 107.07 283.73 108.094ZM283.42 102.975H279.688C279.688 101.951 279.688 100.927 279.688 99.9027H283.407C283.407 100.94 283.407 101.951 283.407 102.975H283.42ZM283.178 97.8548H279.5C279.5 96.8308 279.5 95.8069 279.527 94.783H283.205C283.191 95.8069 283.191 96.8308 283.178 97.8548ZM282.989 92.7351H279.338C279.351 91.7111 279.378 90.6871 279.392 89.6632C279.998 89.6632 280.604 89.6632 281.211 89.6632H283.043C283.016 90.6871 283.003 91.7111 282.976 92.7351H282.989ZM282.854 87.6153C282.262 87.6153 281.655 87.6153 281.049 87.6153C280.443 87.6153 279.85 87.6153 279.244 87.6153C279.271 86.5914 279.298 85.5674 279.324 84.5434H282.949C282.922 85.5674 282.881 86.6048 282.854 87.6153ZM282.774 82.4956H279.19C279.217 81.4716 279.257 80.4476 279.298 79.4237H282.895C282.854 80.4476 282.814 81.4851 282.787 82.4956H282.774ZM282.72 77.3757H279.163C279.203 76.3653 279.244 75.3279 279.284 74.3039H282.841C282.801 75.3279 282.76 76.3653 282.72 77.3757ZM282.679 72.256H279.149C279.19 71.232 279.23 70.1946 279.271 69.1707H282.8C282.76 70.1946 282.72 71.232 282.679 72.256ZM282.639 67.1363H279.136C279.176 66.1123 279.217 65.0749 279.244 64.0509H282.747C282.706 65.0749 282.666 66.1123 282.625 67.1363H282.639ZM282.585 62.003H279.122C279.163 60.9791 279.19 59.9417 279.217 58.9177H282.693C282.652 59.9417 282.625 60.9791 282.585 62.003ZM282.504 56.8833H279.068C279.095 55.8593 279.122 54.8218 279.149 53.7979C279.729 53.7979 280.295 53.7979 280.874 53.7979C281.453 53.7979 282.019 53.7979 282.598 53.7979C282.571 54.8218 282.545 55.8458 282.518 56.8698L282.504 56.8833ZM282.383 51.7635C281.817 51.7635 281.251 51.7635 280.685 51.7635C280.119 51.7635 279.554 51.7635 278.988 51.7635C279.015 50.7395 279.028 49.7156 279.042 48.6916H282.45C282.437 49.7156 282.423 50.753 282.396 51.7769L282.383 51.7635ZM278.866 43.5584H282.235C282.235 44.5824 282.235 45.6198 282.221 46.6437H278.853C278.853 45.6198 278.853 44.5824 278.866 43.5584ZM278.112 72.2425C277.519 72.2425 276.94 72.2156 276.347 72.2156C275.754 72.2156 275.175 72.2156 274.582 72.1886C274.622 71.1647 274.649 70.1407 274.69 69.1168C275.283 69.1168 275.875 69.1302 276.455 69.1437C277.048 69.1437 277.627 69.1438 278.22 69.1707C278.179 70.1946 278.139 71.2186 278.098 72.2425H278.112ZM278.22 74.2904C278.179 75.3144 278.139 76.3383 278.112 77.3623C277.519 77.3623 276.926 77.3354 276.333 77.3354C275.741 77.3354 275.148 77.3354 274.555 77.3354C274.595 76.3114 274.622 75.2874 274.663 74.2635C275.256 74.2635 275.848 74.2904 276.441 74.2904C277.034 74.2904 277.627 74.2905 278.22 74.3174V74.2904ZM278.112 67.1228C277.533 67.1228 276.94 67.1093 276.36 67.0958C275.781 67.0958 275.202 67.0958 274.609 67.0958C274.649 66.0584 274.676 65.0344 274.717 64.0105C275.296 64.0105 275.889 64.0105 276.468 64.0105C277.048 64.0105 277.64 64.0105 278.22 64.0375C278.179 65.0614 278.139 66.0988 278.112 67.1228ZM278.112 61.9895C277.533 61.9895 276.953 61.9895 276.374 61.9895C275.795 61.9895 275.215 61.976 274.636 61.976C274.663 60.9521 274.703 59.9147 274.73 58.9042C275.309 58.9042 275.889 58.9042 276.468 58.9042C277.048 58.9042 277.627 58.9042 278.206 58.9042C278.179 59.9282 278.139 60.9656 278.112 61.9895ZM278.085 56.8698H276.374C275.808 56.8698 275.229 56.8698 274.663 56.8698C274.69 55.8458 274.717 54.8218 274.73 53.7844C275.309 53.7844 275.875 53.7844 276.455 53.7844C277.034 53.7844 277.6 53.7844 278.179 53.7844C278.152 54.8084 278.125 55.8324 278.098 56.8698H278.085ZM278.018 51.75H276.32C275.754 51.75 275.188 51.75 274.622 51.75C274.636 50.7261 274.649 49.7021 274.663 48.6647C275.229 48.6647 275.795 48.6647 276.36 48.6647C276.926 48.6647 277.492 48.6647 278.058 48.6647C278.045 49.6886 278.031 50.7261 278.004 51.7366L278.018 51.75ZM274.542 43.5449H277.91C277.91 44.5689 277.91 45.6063 277.896 46.6302H274.528C274.528 45.6063 274.528 44.5689 274.528 43.5449H274.542ZM274.663 79.3294C275.256 79.3294 275.862 79.3294 276.455 79.3563C277.048 79.3563 277.654 79.3832 278.247 79.3967C278.206 80.4206 278.179 81.4446 278.139 82.4686C277.546 82.4686 276.94 82.4416 276.347 82.4416C275.754 82.4416 275.148 82.4146 274.555 82.4146C274.582 81.3907 274.622 80.3668 274.649 79.3428L274.663 79.3294ZM274.663 84.4491C275.269 84.4491 275.875 84.4626 276.468 84.4761C277.074 84.4895 277.681 84.5031 278.274 84.5165C278.247 85.5405 278.22 86.5779 278.193 87.6018C277.586 87.5749 276.994 87.5614 276.387 87.548C275.781 87.5345 275.175 87.521 274.582 87.521C274.609 86.5105 274.636 85.4865 274.663 84.4491ZM274.69 89.5554C275.296 89.5554 275.916 89.5689 276.522 89.5958C277.128 89.6093 277.735 89.6363 278.341 89.6363C278.314 90.6602 278.301 91.6707 278.287 92.7081C277.681 92.7081 277.074 92.6812 276.468 92.6677C275.862 92.6542 275.256 92.6407 274.649 92.6407C274.649 91.6168 274.676 90.6063 274.703 89.5689L274.69 89.5554ZM274.771 94.6752C275.39 94.6752 275.997 94.6887 276.616 94.7021C277.236 94.7156 277.842 94.7291 278.462 94.756C278.462 95.78 278.449 96.8039 278.449 97.8278C277.829 97.8009 277.223 97.8009 276.603 97.774C275.983 97.747 275.377 97.7336 274.757 97.7336C274.757 96.7096 274.757 95.6856 274.771 94.6617V94.6752ZM274.905 99.7814C275.525 99.7814 276.145 99.8084 276.765 99.8354C277.384 99.8623 278.004 99.8623 278.624 99.8892V102.975C278.004 102.948 277.384 102.948 276.765 102.921C276.145 102.894 275.525 102.88 274.892 102.853C274.892 101.829 274.892 100.819 274.892 99.7814H274.905ZM275.027 104.901C275.66 104.901 276.293 104.928 276.913 104.955C277.546 104.982 278.179 104.996 278.799 105.009C278.799 106.033 278.799 107.057 278.799 108.081C278.166 108.081 277.533 108.04 276.886 108.013C276.253 107.987 275.619 107.973 274.973 107.96C274.973 106.936 274.986 105.925 275 104.888L275.027 104.901ZM275.148 110.021C275.795 110.021 276.441 110.061 277.088 110.088C277.735 110.115 278.381 110.129 279.028 110.142C279.028 111.153 279.028 112.19 279.055 113.214C278.395 113.214 277.748 113.187 277.101 113.16C276.455 113.133 275.795 113.106 275.134 113.079C275.134 112.055 275.148 111.018 275.161 110.021H275.148ZM275.269 115.127C275.929 115.154 276.603 115.181 277.263 115.222C277.923 115.249 278.597 115.262 279.257 115.275C279.257 116.299 279.284 117.323 279.298 118.347C278.624 118.32 277.95 118.307 277.277 118.28C276.603 118.253 275.929 118.226 275.256 118.199C275.256 117.162 275.256 116.151 275.269 115.127ZM275.404 120.26C276.091 120.274 276.778 120.314 277.465 120.355C278.152 120.382 278.839 120.395 279.513 120.409C279.527 121.433 279.54 122.457 279.567 123.494C278.88 123.494 278.179 123.467 277.492 123.44C276.792 123.413 276.104 123.373 275.404 123.346C275.404 122.322 275.404 121.284 275.404 120.287V120.26ZM275.565 125.367C276.266 125.407 276.98 125.434 277.681 125.461C278.381 125.488 279.095 125.502 279.796 125.515C279.809 126.552 279.836 127.576 279.863 128.6C279.149 128.6 278.435 128.573 277.721 128.533C277.007 128.506 276.293 128.466 275.579 128.439C275.579 127.401 275.565 126.377 275.565 125.353V125.367ZM275.768 130.487C276.495 130.514 277.223 130.554 277.95 130.581C278.678 130.608 279.405 130.635 280.119 130.635C280.146 131.659 280.173 132.696 280.2 133.72C279.473 133.72 278.732 133.693 278.004 133.666C277.277 133.639 276.536 133.585 275.808 133.558C275.795 132.534 275.781 131.497 275.768 130.487ZM276.01 135.606C276.751 135.647 277.492 135.687 278.233 135.714C278.974 135.741 279.715 135.768 280.456 135.768C280.483 136.792 280.51 137.829 280.551 138.853C279.809 138.853 279.055 138.826 278.314 138.799C277.573 138.772 276.832 138.719 276.077 138.692C276.051 137.654 276.024 136.63 276.01 135.606ZM276.306 140.74C277.061 140.766 277.815 140.82 278.556 140.847C279.311 140.874 280.065 140.901 280.806 140.901C280.833 141.925 280.874 142.963 280.914 143.987C280.16 143.987 279.405 143.987 278.664 143.946C277.91 143.906 277.169 143.852 276.414 143.811C276.374 142.787 276.347 141.75 276.306 140.74ZM276.67 145.873C277.425 145.9 278.179 145.967 278.934 145.994C279.688 146.021 280.443 146.034 281.197 146.034C281.238 147.058 281.265 148.096 281.305 149.12C280.551 149.12 279.809 149.12 279.055 149.093C278.3 149.052 277.559 148.999 276.805 148.958C276.751 147.934 276.697 146.91 276.657 145.886L276.67 145.873ZM279.486 154.186C278.745 154.145 278.004 154.105 277.263 154.064C277.209 153.054 277.142 152.03 277.088 150.993C277.842 151.033 278.583 151.087 279.338 151.114C280.092 151.141 280.833 151.141 281.588 151.141C281.628 152.165 281.655 153.202 281.696 154.213C280.955 154.213 280.214 154.213 279.486 154.186ZM281.75 135.768C282.491 135.768 283.232 135.768 283.973 135.768H286.196C286.236 136.792 286.277 137.829 286.304 138.853H281.844C281.817 137.829 281.777 136.778 281.75 135.755V135.768ZM282.127 140.901H284.377C285.131 140.901 285.886 140.901 286.627 140.901C286.654 141.939 286.694 142.963 286.721 143.987C285.967 143.987 285.212 143.987 284.471 143.987H282.221C282.194 142.963 282.154 141.925 282.127 140.901ZM282.518 146.021H284.781C285.536 146.021 286.29 146.021 287.045 146.021C287.071 147.045 287.085 148.082 287.098 149.106C286.344 149.106 285.603 149.106 284.848 149.106H282.598C282.571 148.082 282.531 147.045 282.504 146.021H282.518ZM285.199 154.213H282.976C282.949 153.202 282.908 152.178 282.881 151.141H285.131C285.886 151.141 286.627 151.141 287.381 151.141C287.381 152.165 287.381 153.202 287.395 154.213C286.654 154.213 285.926 154.186 285.185 154.186L285.199 154.213ZM297.58 153.647H292.42V151.141H297.58V153.647ZM297.607 148.514H291.827V145.994H297.607V148.514ZM297.634 143.38H291.248V140.847H297.634V143.38ZM297.661 138.247H290.655V135.714H297.661V138.247ZM297.688 133.127H290.076V130.581H297.688V133.127ZM297.715 127.994H289.483V125.448H297.715V127.994ZM297.742 122.861H288.904V120.301H297.742V122.861Z" fill="#3A383E"/>
<path d="M205.587 142.931C205.613 142.414 205.362 141.977 205.004 141.924H204.911L205.905 134.373C206.011 134.333 206.09 134.227 206.143 134.082L206.752 134.174V134.029C206.832 133.512 206.633 133.035 206.289 132.916C206.726 131.962 207.68 131.393 208.66 131.565H208.739C208.739 131.565 208.845 131.618 208.898 131.631L209.442 127.418L207.653 127.127C207.653 126.862 207.6 126.597 207.468 126.412C207.362 126.253 207.216 126.16 207.07 126.134H206.978L207.971 118.583C208.064 118.543 208.157 118.437 208.196 118.291L208.806 118.397L208.832 118.252C208.898 117.735 208.686 117.258 208.355 117.139C208.792 116.185 209.746 115.616 210.726 115.788H210.806C210.806 115.788 210.899 115.841 210.938 115.841L211.482 111.628L209.706 111.337C209.706 111.059 209.654 110.794 209.534 110.608C209.428 110.449 209.283 110.357 209.124 110.33H209.031L210.024 102.779C210.13 102.74 210.21 102.634 210.263 102.488L210.872 102.594V102.448C210.938 102.13 210.872 101.812 210.726 101.587C210.647 101.455 210.541 101.375 210.409 101.336C210.846 100.382 211.799 99.8121 212.78 99.9843H212.859C212.859 99.9843 212.939 100.037 212.978 100.037L213.522 95.8249L211.773 95.5467C211.799 95.242 211.747 94.9506 211.601 94.7386C211.495 94.5797 211.362 94.4869 211.203 94.4604H211.111L212.104 86.9097C212.197 86.87 212.29 86.764 212.343 86.6183L212.952 86.7242L212.978 86.5785C213.045 86.0487 212.846 85.5851 212.502 85.4658C212.952 84.5121 213.892 83.9424 214.873 84.1014H214.952C214.952 84.1014 215.018 84.1411 215.058 84.1543L215.601 79.9419L213.866 79.6637C213.892 79.1471 213.641 78.7099 213.283 78.657H213.19L214.184 71.1063C214.29 71.0665 214.369 70.9606 214.422 70.8149L215.032 70.9075V70.7618C215.124 70.2452 214.912 69.7684 214.568 69.6491C215.005 68.6954 215.959 68.1257 216.939 68.2847H217.019C217.019 68.2847 217.072 68.3245 217.111 68.3245L217.655 64.1252L215.933 63.847C215.946 63.3436 215.707 62.9065 215.35 62.8535H215.257L216.25 55.3028C216.356 55.2631 216.436 55.1571 216.476 55.0113L217.085 55.1041V54.9584C217.178 54.3888 216.926 53.8854 216.529 53.8192H216.489C216.952 52.7992 217.946 52.1633 219.019 52.3488H219.098C219.098 52.3488 219.151 52.3885 219.178 52.3885L222.993 23.0071L204.5 20C204.408 20.159 204.355 20.3577 204.328 20.5564C204.222 21.391 204.739 22.1593 205.481 22.2785L206.09 22.3712L205.587 26.1995L205.15 26.1333C204.699 26.067 204.275 26.5307 204.183 27.193V27.3388L204.712 27.4315C204.712 27.6435 204.779 27.8289 204.885 27.9481L202.712 44.5199C202.302 44.4669 201.917 44.8643 201.798 45.4339L195.983 44.4934C195.559 44.4272 195.161 44.7584 195.108 45.222C195.082 45.4472 195.135 45.6724 195.254 45.8578C195.373 46.0433 195.559 46.1625 195.758 46.2022L196.168 46.2685L195.784 49.1695C195.996 49.5272 196.115 50.0041 196.155 50.534H196.102C195.718 50.4678 195.334 50.8651 195.254 51.4348V51.5805L195.837 51.6865C195.837 51.8322 195.903 51.9646 195.983 52.0441L194.989 59.5815H194.897C194.738 59.5418 194.579 59.5815 194.446 59.7008C194.274 59.8465 194.155 60.0716 194.088 60.3233L193.89 60.2969C193.466 60.2307 193.068 60.5618 193.015 61.0254C192.989 61.2506 193.042 61.4758 193.161 61.6613C193.28 61.8467 193.466 61.966 193.665 62.0057L193.943 62.0455L193.559 64.9995L193.585 65.0524C193.784 65.3969 193.903 65.8473 193.93 66.3242C193.797 66.3242 193.665 66.3771 193.559 66.4699C193.36 66.6288 193.214 66.9203 193.174 67.2382V67.3839L193.757 67.4766C193.757 67.6356 193.824 67.7548 193.903 67.8343L192.91 75.3718H192.817C192.658 75.332 192.499 75.3717 192.353 75.4909C192.181 75.6367 192.048 75.8618 191.995 76.1268L191.797 76.1003C191.373 76.0341 190.975 76.3652 190.922 76.8289C190.856 77.3058 191.161 77.7429 191.585 77.8091L191.863 77.8621L191.479 80.8162L191.505 80.8692C191.704 81.2136 191.823 81.664 191.85 82.1409C191.717 82.1409 191.585 82.1938 191.466 82.2866C191.267 82.4588 191.121 82.737 191.081 83.0549V83.2006L191.664 83.2933C191.664 83.4523 191.731 83.5716 191.81 83.651L190.817 91.1885H190.724C190.565 91.1487 190.406 91.1884 190.273 91.3077C190.088 91.4666 189.942 91.7183 189.902 92.023L189.717 91.9965C189.518 91.9568 189.306 92.023 189.147 92.1555C188.975 92.2879 188.869 92.4999 188.843 92.7251C188.816 92.9503 188.869 93.1754 188.988 93.3609C189.108 93.5463 189.293 93.6656 189.505 93.7053L189.783 93.7451L189.399 96.6991L189.426 96.7521C189.624 97.0965 189.744 97.5337 189.77 98.0238C189.412 98.0238 189.081 98.408 189.015 98.9378L188.988 99.0835L189.598 99.1763C189.598 99.322 189.664 99.4545 189.744 99.534L188.75 107.071H188.657C188.3 107.005 187.955 107.35 187.836 107.84L187.637 107.813C187.213 107.747 186.816 108.078 186.763 108.542C186.697 109.019 186.988 109.456 187.412 109.522L187.69 109.562L187.306 112.516L187.333 112.569C187.531 112.913 187.651 113.364 187.677 113.841C187.319 113.841 186.988 114.225 186.922 114.755V114.9L187.505 114.993C187.505 115.152 187.571 115.271 187.651 115.351L186.657 122.888H186.564C186.405 122.848 186.246 122.888 186.101 123.007C185.928 123.153 185.809 123.378 185.743 123.63L185.544 123.59C185.12 123.524 184.723 123.855 184.67 124.319C184.604 124.782 184.908 125.233 185.319 125.299L185.597 125.352L185.213 128.306L185.24 128.346C185.438 128.69 185.558 129.141 185.584 129.617C185.226 129.617 184.895 130.015 184.829 130.531L184.802 130.677L185.412 130.783C185.412 130.929 185.478 131.061 185.558 131.128L184.564 138.665H184.471C184.114 138.599 183.769 138.93 183.65 139.433L183.451 139.407C183.027 139.341 182.63 139.672 182.577 140.135C182.551 140.361 182.603 140.599 182.723 140.784C182.842 140.97 183.027 141.089 183.226 141.116L207.057 144.997L207.282 143.288L205.481 142.997L205.587 142.931ZM207.004 118.08C207.004 118.225 207.07 118.358 207.15 118.437L206.156 125.975H206.064C205.706 125.908 205.362 126.24 205.256 126.73L202.143 126.226C202.156 125.723 201.917 125.286 201.56 125.233H201.467L202.46 117.682C202.553 117.642 202.646 117.536 202.699 117.391L203.308 117.497V117.351C203.401 116.821 203.176 116.344 202.831 116.225C203.282 115.271 204.222 114.715 205.203 114.874H205.295C206.289 115.046 207.044 115.894 207.216 116.94C207.07 116.94 206.938 116.98 206.805 117.086C206.607 117.258 206.461 117.536 206.421 117.854V118L207.004 118.093V118.08ZM193.082 114.834C192.976 114.675 192.83 114.582 192.671 114.556H192.645C193.029 113.602 193.797 113.006 194.592 113.138H194.658C195.453 113.271 196.036 114.092 196.155 115.125C195.771 115.072 195.4 115.47 195.334 116.039V116.185L195.917 116.291C195.917 116.437 195.983 116.569 196.062 116.649L195.069 124.186H194.976C194.817 124.147 194.658 124.186 194.526 124.319C194.353 124.464 194.234 124.676 194.168 124.941L192.048 124.597C192.048 124.332 191.996 124.067 191.863 123.882C191.757 123.723 191.625 123.63 191.466 123.603H191.373L192.366 116.053C192.459 116.013 192.552 115.907 192.592 115.761L193.201 115.867V115.722C193.267 115.404 193.201 115.086 193.055 114.861L193.082 114.834ZM195.148 99.0173C195.042 98.8584 194.897 98.7656 194.751 98.7391H194.724C195.108 97.7853 195.877 97.1892 196.672 97.3217H196.738C197.533 97.4674 198.116 98.2755 198.235 99.3087C197.851 99.2557 197.48 99.6664 197.413 100.223V100.369L197.996 100.474C197.996 100.62 198.063 100.753 198.142 100.832L197.162 108.37H197.069C196.91 108.33 196.751 108.37 196.619 108.489C196.446 108.635 196.314 108.86 196.261 109.138L194.155 108.793C194.181 108.277 193.93 107.84 193.572 107.787H193.479L194.473 100.236C194.565 100.196 194.658 100.09 194.698 99.9446L195.307 100.051L195.334 99.9048C195.373 99.5869 195.307 99.269 195.161 99.0438L195.148 99.0173ZM196.831 82.8429H196.804C197.188 81.8759 197.957 81.293 198.751 81.4255H198.818C199.612 81.5712 200.195 82.3793 200.314 83.4125C199.93 83.3595 199.559 83.7702 199.493 84.3266L199.467 84.4723L200.076 84.5782C200.076 84.724 200.142 84.8565 200.222 84.9359L199.228 92.4734H199.136C198.977 92.4336 198.818 92.4734 198.685 92.6058C198.5 92.7648 198.354 93.0165 198.314 93.3212L196.208 92.9768C196.234 92.6721 196.181 92.3807 196.036 92.1687C195.93 92.0098 195.797 91.917 195.638 91.8905H195.546L196.539 84.3266C196.645 84.2868 196.725 84.1809 196.778 84.0352L197.387 84.1412V83.9954C197.48 83.4258 197.228 82.9224 196.831 82.8562V82.8429ZM199.308 67.3044C199.202 67.1455 199.069 67.0527 198.91 67.0262H198.884C199.268 66.0724 200.036 65.4763 200.831 65.6088H200.897C201.692 65.7545 202.275 66.5626 202.394 67.5958C202.249 67.5693 202.09 67.6224 201.957 67.7416C201.758 67.9138 201.613 68.1919 201.573 68.5098L201.546 68.6556L202.156 68.7615C202.156 68.9073 202.222 69.0397 202.302 69.106L201.308 76.6434H201.215C200.858 76.5772 200.513 76.9216 200.394 77.4118L198.288 77.0673C198.314 76.5507 198.063 76.1135 197.705 76.0606H197.612L198.606 68.4967C198.698 68.4569 198.791 68.3509 198.831 68.2052L199.44 68.3112V68.1655C199.506 67.8476 199.44 67.5296 199.294 67.3044H199.308ZM203.507 67.7813C203.944 66.8275 204.898 66.2712 205.878 66.4302H205.958C206.951 66.6024 207.706 67.4502 207.892 68.4967C207.534 68.4967 207.203 68.8808 207.137 69.4107L207.11 69.5564L207.719 69.6491C207.719 69.7948 207.786 69.9273 207.865 70.0067L206.872 77.5442H206.779C206.421 77.4647 206.077 77.8091 205.958 78.3125L202.805 77.7959C202.805 77.5177 202.752 77.266 202.619 77.0673C202.513 76.9084 202.368 76.8156 202.209 76.7891H202.116L203.11 69.2252C203.202 69.1855 203.295 69.0795 203.335 68.9338L203.944 69.0398V68.8941C204.037 68.3642 203.812 67.8873 203.467 67.768L203.507 67.7813ZM205.653 85.479C205.653 85.638 205.719 85.7572 205.799 85.8367L204.805 93.3742H204.712C204.342 93.2947 203.971 93.6788 203.878 94.222L200.738 93.7053C200.791 93.1622 200.54 92.6721 200.156 92.6191H200.063L201.056 85.0552C201.162 85.0155 201.242 84.9094 201.295 84.7637L201.904 84.8697V84.724C201.97 84.3929 201.904 84.0881 201.758 83.8629C201.666 83.7305 201.56 83.6377 201.427 83.598C201.864 82.6442 202.818 82.0879 203.798 82.2469H203.878C204.871 82.4191 205.626 83.2669 205.812 84.3134C205.454 84.3134 205.123 84.6975 205.057 85.2274V85.3731L205.64 85.4658L205.653 85.479ZM203.573 101.375C203.573 101.521 203.639 101.653 203.719 101.733L202.725 109.27H202.633C202.275 109.191 201.931 109.535 201.811 110.039L198.659 109.522C198.672 109.244 198.606 108.979 198.473 108.793C198.367 108.635 198.235 108.542 198.076 108.515H197.983L198.977 100.965C199.083 100.925 199.162 100.819 199.215 100.673L199.824 100.766V100.62C199.917 100.104 199.692 99.6134 199.361 99.4942C199.798 98.5404 200.738 97.9841 201.732 98.1431H201.811C202.805 98.3153 203.56 99.1631 203.745 100.21C203.388 100.21 203.057 100.594 202.99 101.124V101.269L203.573 101.362V101.375ZM196.91 116.781C197.003 116.742 197.096 116.636 197.135 116.49L197.745 116.583L197.771 116.437C197.811 116.119 197.758 115.801 197.599 115.576C197.519 115.443 197.4 115.364 197.281 115.311C197.718 114.357 198.672 113.787 199.652 113.96H199.732C200.725 114.132 201.48 114.98 201.666 116.026C201.308 116.026 200.977 116.41 200.911 116.94V117.086L201.493 117.192C201.493 117.338 201.56 117.47 201.639 117.536L200.646 125.074H200.553C200.195 124.994 199.851 125.339 199.745 125.829L196.592 125.312C196.605 124.809 196.367 124.372 196.009 124.319H195.917L196.91 116.755V116.781ZM209.084 102.276C209.084 102.422 209.15 102.554 209.23 102.634L208.236 110.171H208.143C207.984 110.131 207.825 110.171 207.68 110.304C207.508 110.449 207.375 110.675 207.322 110.953L204.209 110.449C204.236 109.933 203.984 109.496 203.626 109.443H203.533L204.527 101.892C204.62 101.852 204.712 101.746 204.765 101.6L205.375 101.693L205.401 101.547C205.467 101.004 205.256 100.527 204.898 100.421C205.335 99.4809 206.276 98.9113 207.269 99.0703H207.349C208.342 99.2425 209.097 100.09 209.283 101.137C209.137 101.137 209.004 101.177 208.872 101.283C208.673 101.455 208.528 101.733 208.488 102.051L208.461 102.197L209.071 102.289L209.084 102.276ZM211.164 86.3799C211.164 86.5256 211.23 86.658 211.309 86.7375L210.316 94.2749H210.223C209.839 94.1954 209.481 94.5796 209.389 95.1227L206.289 94.6194C206.342 94.063 206.103 93.5993 205.719 93.5331H205.626L206.62 85.9824C206.713 85.9427 206.805 85.8367 206.858 85.691L207.468 85.797V85.6512C207.561 85.1214 207.335 84.6313 206.991 84.5253C207.428 83.5715 208.382 83.0151 209.362 83.1741H209.442C210.435 83.3463 211.19 84.1808 211.376 85.2406C211.23 85.2406 211.097 85.2804 210.965 85.3864C210.766 85.5586 210.621 85.8367 210.581 86.1546V86.3004L211.164 86.3931V86.3799ZM213.23 70.5632C213.23 70.7089 213.296 70.8413 213.376 70.9208L212.382 78.4582H212.29C211.932 78.392 211.588 78.7232 211.468 79.2266L208.355 78.7232C208.382 78.2066 208.13 77.7694 207.772 77.7164H207.68L208.673 70.1657C208.779 70.126 208.859 70.02 208.912 69.8743L209.521 69.967L209.548 69.8214C209.614 69.2915 209.389 68.8013 209.044 68.6953C209.481 67.7416 210.422 67.1852 211.415 67.3442H211.495C212.488 67.5164 213.243 68.3642 213.429 69.4107C213.058 69.3842 212.714 69.7816 212.634 70.3247V70.4704L213.217 70.5632H213.23ZM215.562 53.6072C215.403 53.5807 215.244 53.6337 215.098 53.753C214.899 53.9252 214.754 54.2033 214.714 54.5212V54.667L215.297 54.7729C215.297 54.9186 215.363 55.0511 215.442 55.1306L214.449 62.668H214.356C213.998 62.6018 213.654 62.933 213.548 63.4231L210.435 62.9197C210.448 62.4164 210.21 61.9792 209.852 61.9262H209.759L210.753 54.3755C210.846 54.3358 210.938 54.2298 210.991 54.0841L211.601 54.1769L211.627 54.0311C211.667 53.7132 211.601 53.3953 211.455 53.1701C211.349 53.0111 211.217 52.9184 211.058 52.8919H210.991C211.455 51.8586 212.449 51.236 213.522 51.4082H213.614C214.687 51.5937 215.482 52.521 215.654 53.6337H215.575L215.562 53.6072ZM206.342 36.4526C206.726 33.4986 209.19 31.4453 211.839 31.8824C214.489 32.3196 216.33 35.0617 215.946 38.0157L214.714 47.4342L205.11 45.8711L206.342 36.4393V36.4526ZM205.216 53.435C205.322 53.3953 205.401 53.2893 205.454 53.1436L206.064 53.2496V53.1039C206.156 52.5343 205.905 52.0308 205.507 51.9646H205.454C205.918 50.9446 206.911 50.3087 207.984 50.4809H208.064C209.124 50.6664 209.932 51.5937 210.104 52.7064H210.051C209.654 52.6402 209.283 53.0376 209.203 53.6072V53.753L209.786 53.8589C209.786 54.0046 209.852 54.1371 209.932 54.2033L208.938 61.7407H208.845C208.686 61.701 208.528 61.7408 208.382 61.86C208.21 62.0057 208.09 62.2309 208.024 62.4958L204.871 61.9792C204.885 61.4758 204.646 61.0387 204.289 60.9857H204.196L205.189 53.4218L205.216 53.435ZM200.99 51.2228L200.831 51.1963C201.229 50.1631 202.063 49.5139 202.924 49.6596H202.99C203.865 49.8186 204.487 50.7062 204.606 51.8189L204.487 51.7924C204.103 51.7261 203.719 52.1368 203.653 52.7064L203.626 52.8522L204.236 52.9448C204.236 53.1038 204.302 53.223 204.381 53.3025L203.388 60.84H203.295C203.136 60.8002 202.977 60.8399 202.845 60.9724C202.672 61.1181 202.553 61.3434 202.487 61.595L200.367 61.2506C200.381 60.7472 200.142 60.3101 199.785 60.2571H199.692L200.685 52.7064C200.778 52.6667 200.871 52.5475 200.911 52.415L201.52 52.5077V52.362C201.613 51.7924 201.361 51.289 200.964 51.2228H200.99ZM196.884 52.0838C196.976 52.0441 197.069 51.9381 197.122 51.7924L197.731 51.8984L197.758 51.7527C197.798 51.4347 197.745 51.1168 197.586 50.8916C197.48 50.7326 197.334 50.64 197.188 50.6135L196.95 50.5737C197.307 49.5404 197.996 48.8648 198.712 48.9708H198.765C199.467 49.09 199.97 49.9643 200.036 51.0638H200.01C199.626 50.9976 199.241 51.395 199.175 51.9646L199.149 52.1104L199.758 52.2163C199.758 52.362 199.824 52.4945 199.904 52.5607L198.91 60.0981H198.818C198.46 60.0319 198.116 60.3631 198.01 60.8532L196.579 60.6281C196.579 60.3631 196.526 60.0981 196.393 59.9127C196.287 59.7537 196.155 59.661 195.996 59.6345H195.903L196.897 52.0838H196.884ZM194.817 67.8873C194.91 67.8475 195.003 67.7415 195.042 67.5958L195.652 67.6886V67.5429C195.744 66.9732 195.493 66.4699 195.095 66.4036H195.003C195.334 65.4366 195.983 64.814 196.605 64.92H196.658C197.294 65.026 197.745 65.8208 197.811 66.8673C197.466 66.8805 197.135 67.2647 197.069 67.7813V67.927L197.652 68.0197C197.652 68.1654 197.718 68.2979 197.798 68.3774L196.804 75.9149H196.711C196.34 75.8486 196.009 76.1798 195.89 76.6832L194.473 76.4448C194.473 76.1666 194.42 75.9016 194.287 75.7161C194.181 75.5572 194.049 75.4645 193.89 75.438H193.797L194.791 67.874L194.817 67.8873ZM192.751 83.704C192.843 83.6643 192.936 83.5582 192.989 83.4125L193.598 83.5185L193.625 83.3728C193.704 82.79 193.453 82.2999 193.055 82.2336H192.949C193.28 81.2533 193.916 80.644 194.552 80.75H194.605C195.228 80.856 195.691 81.664 195.758 82.6972C195.413 82.7105 195.095 83.0946 195.016 83.6113V83.757L195.599 83.8497C195.599 83.9954 195.665 84.1279 195.744 84.2074L194.751 91.7448H194.658C194.499 91.7051 194.34 91.7448 194.208 91.8773C194.022 92.0362 193.877 92.3012 193.837 92.5926L192.419 92.3674C192.472 91.8243 192.221 91.3341 191.85 91.2811H191.757L192.751 83.7173V83.704ZM190.671 99.6002C190.777 99.5604 190.856 99.4544 190.909 99.3087L191.519 99.4014L191.545 99.2557C191.625 98.6861 191.36 98.1828 190.975 98.1165H190.87C191.201 97.1363 191.837 96.5269 192.472 96.6329H192.525C193.161 96.7521 193.612 97.5336 193.678 98.5801C193.333 98.5934 193.016 98.9776 192.936 99.4942L192.91 99.6399L193.519 99.7326C193.519 99.8783 193.585 100.011 193.665 100.09L192.671 107.628H192.578C192.221 107.562 191.876 107.906 191.757 108.396L190.34 108.171C190.366 107.654 190.114 107.217 189.757 107.164H189.664L190.658 99.6002H190.671ZM188.604 115.417C188.697 115.377 188.79 115.271 188.843 115.125L189.452 115.231V115.086C189.545 114.516 189.293 114.013 188.896 113.947H188.803C189.134 112.966 189.77 112.357 190.406 112.463H190.459C191.095 112.582 191.545 113.364 191.611 114.41C191.267 114.423 190.949 114.808 190.87 115.324V115.47L191.452 115.563C191.452 115.722 191.519 115.841 191.598 115.92L190.605 123.458H190.512C190.154 123.378 189.81 123.723 189.691 124.213L188.26 123.988C188.273 123.484 188.035 123.047 187.677 122.994H187.584L188.578 115.443L188.604 115.417ZM188.459 139.235C188.101 139.168 187.757 139.513 187.637 140.016L186.22 139.791C186.22 139.513 186.167 139.261 186.034 139.062C185.928 138.903 185.796 138.811 185.637 138.784H185.544L186.538 131.22C186.644 131.181 186.723 131.075 186.776 130.929L187.386 131.022V130.876C187.452 130.558 187.386 130.24 187.24 130.015C187.134 129.856 186.988 129.763 186.842 129.737H186.736C187.068 128.77 187.717 128.147 188.339 128.253H188.392C189.028 128.372 189.479 129.154 189.545 130.2C189.426 130.2 189.306 130.253 189.187 130.346C188.988 130.505 188.843 130.796 188.803 131.114V131.26L189.386 131.353C189.386 131.498 189.452 131.631 189.532 131.697L188.538 139.248H188.445L188.459 139.235ZM192.976 139.95C192.618 139.897 192.274 140.228 192.154 140.732L190.048 140.387C190.048 140.109 189.995 139.857 189.863 139.659C189.757 139.5 189.611 139.407 189.465 139.38H189.373L190.366 131.83C190.472 131.79 190.552 131.684 190.591 131.538L191.201 131.631V131.485C191.267 131.167 191.201 130.849 191.055 130.624C190.949 130.465 190.803 130.373 190.658 130.346H190.631C191.015 129.392 191.784 128.796 192.578 128.929H192.645C193.439 129.074 194.022 129.882 194.141 130.916C193.757 130.863 193.386 131.273 193.32 131.83V131.975L193.903 132.068C193.903 132.214 193.969 132.346 194.049 132.426L193.055 139.963H192.963L192.976 139.95ZM198.539 140.838C198.38 140.811 198.222 140.864 198.089 140.983C197.917 141.129 197.784 141.354 197.731 141.619L194.579 141.102C194.579 140.824 194.526 140.573 194.393 140.374C194.287 140.215 194.141 140.122 193.996 140.096H193.903L194.897 132.532C194.989 132.492 195.082 132.386 195.122 132.24L195.731 132.333V132.187C195.797 131.869 195.731 131.552 195.585 131.326C195.493 131.194 195.387 131.114 195.267 131.061C195.705 130.108 196.658 129.551 197.639 129.71H197.718C198.712 129.882 199.467 130.73 199.652 131.777C199.294 131.777 198.963 132.174 198.897 132.691V132.836L199.48 132.942C199.48 133.088 199.546 133.221 199.626 133.3L198.632 140.838H198.539ZM204.05 141.725C203.891 141.699 203.732 141.752 203.586 141.871C203.414 142.016 203.282 142.242 203.229 142.52L200.116 142.017C200.116 141.738 200.063 141.487 199.93 141.288C199.824 141.129 199.692 141.036 199.533 141.01H199.44L200.434 133.459C200.526 133.419 200.619 133.313 200.659 133.168L201.268 133.26V133.115C201.334 132.797 201.268 132.479 201.123 132.254C201.03 132.121 200.911 132.028 200.791 131.989C201.229 131.035 202.182 130.465 203.163 130.637H203.242C204.236 130.81 204.991 131.657 205.176 132.704C205.03 132.704 204.898 132.744 204.765 132.85C204.567 133.009 204.421 133.3 204.381 133.618V133.764L204.964 133.87C204.964 134.015 205.03 134.148 205.11 134.227L204.116 141.765H204.024L204.05 141.725Z" fill="#2C9A81"/>
<path d="M243.38 52.1103L237.631 51.1697C237.657 50.5869 237.392 50.0835 236.982 50.004L239.154 33.4057L239.207 33.3925C239.326 33.2998 239.406 33.1541 239.446 32.9819L240.002 33.0745V32.9288C240.068 32.5579 240.002 32.187 239.83 31.9221C239.71 31.7498 239.552 31.6306 239.366 31.6041L238.849 31.5247L239.353 27.7096L239.962 27.8023C240.704 27.9215 241.393 27.352 241.512 26.5174C241.539 26.3187 241.512 26.12 241.486 25.9345L223.019 22.9275L219.204 52.3089C220.238 52.5076 221.006 53.4084 221.178 54.4947H221.112C220.728 54.4285 220.344 54.8258 220.264 55.3955L220.238 55.5412L220.847 55.6339C220.847 55.7796 220.913 55.9121 220.993 55.9916L219.999 63.529H219.906C219.549 63.4628 219.204 63.7939 219.098 64.284L217.668 64.0456L217.125 68.2449C218.065 68.4436 218.781 69.2516 218.966 70.2716C218.608 70.2716 218.264 70.6558 218.198 71.1856V71.3313L218.78 71.4241C218.78 71.5698 218.847 71.7023 218.926 71.7818L217.933 79.3325H217.84C217.482 79.253 217.138 79.5974 217.019 80.1007L215.601 79.8756L215.058 84.088C215.999 84.2867 216.701 85.0948 216.886 86.1016C216.515 86.1016 216.184 86.4857 216.118 87.0156L216.091 87.1613L216.701 87.254C216.701 87.3998 216.767 87.5323 216.846 87.6117L215.853 95.1492H215.76C215.389 95.0697 215.018 95.4538 214.926 95.9969L213.522 95.7717L212.978 99.9842C213.906 100.196 214.608 100.991 214.78 101.998C214.422 101.998 214.078 102.382 214.012 102.912V103.057L214.594 103.163C214.594 103.309 214.661 103.442 214.74 103.521L213.747 111.059H213.654C213.283 110.979 212.952 111.324 212.833 111.827L211.442 111.602L210.899 115.814C211.813 116.026 212.515 116.821 212.687 117.814C212.316 117.814 211.998 118.199 211.919 118.742L211.892 118.887L212.501 118.993C212.501 119.139 212.568 119.272 212.647 119.351L211.654 126.889H211.561C211.203 126.809 210.859 127.14 210.74 127.644L209.362 127.418L208.819 131.631C209.733 131.856 210.422 132.638 210.594 133.631C210.462 133.631 210.329 133.671 210.21 133.777C210.011 133.949 209.865 134.227 209.826 134.545V134.691L210.409 134.797C210.409 134.943 210.475 135.075 210.554 135.141L209.561 142.679H209.468C209.11 142.599 208.766 142.944 208.647 143.447L207.296 143.222L207.07 144.931L230.623 148.772C230.822 148.812 231.034 148.746 231.193 148.613C231.365 148.468 231.471 148.269 231.497 148.044C231.564 147.58 231.259 147.13 230.835 147.063L230.636 147.037C230.663 146.52 230.411 146.083 230.054 146.03H229.961L230.954 138.466C231.047 138.426 231.14 138.321 231.18 138.175L231.789 138.281L231.815 138.135C231.882 137.565 231.63 137.062 231.246 136.996H231.219C231.365 136.572 231.577 136.201 231.829 135.936L231.868 135.896L232.266 132.903L232.703 132.969C232.915 133.009 233.114 132.942 233.273 132.81C233.431 132.677 233.551 132.465 233.577 132.24C233.577 132.201 233.577 132.161 233.577 132.108C233.577 131.922 233.524 131.737 233.418 131.591C233.299 131.406 233.114 131.287 232.902 131.26L232.703 131.234C232.716 130.73 232.478 130.293 232.12 130.24H232.027L233.021 122.689C233.114 122.65 233.206 122.544 233.246 122.398L233.855 122.491V122.345C233.922 122.027 233.855 121.709 233.71 121.484C233.604 121.325 233.471 121.232 233.312 121.206H233.286C233.431 120.782 233.643 120.411 233.895 120.146L233.922 120.106L234.319 117.099L234.743 117.165C234.942 117.205 235.154 117.139 235.313 117.006C235.472 116.874 235.591 116.662 235.617 116.437C235.617 116.397 235.617 116.344 235.617 116.304C235.617 116.119 235.564 115.933 235.458 115.788C235.339 115.602 235.154 115.483 234.942 115.443L234.743 115.417C234.756 115.139 234.69 114.874 234.571 114.688C234.465 114.529 234.319 114.437 234.16 114.41H234.067L235.061 106.859C235.154 106.82 235.246 106.714 235.299 106.568L235.909 106.674V106.528C235.975 106.197 235.909 105.892 235.763 105.667C235.657 105.508 235.511 105.415 235.352 105.389H235.326C235.471 104.965 235.683 104.594 235.935 104.329L235.975 104.289L236.372 101.282L236.809 101.349C237.008 101.388 237.22 101.322 237.379 101.19C237.551 101.057 237.657 100.845 237.684 100.62C237.684 100.58 237.684 100.541 237.684 100.488C237.684 100.302 237.631 100.13 237.525 99.971C237.406 99.7855 237.22 99.6664 237.008 99.6266L236.823 99.6001C236.876 99.057 236.624 98.5668 236.24 98.5138H236.147L237.141 90.9631C237.233 90.9234 237.326 90.8042 237.366 90.6717L237.975 90.7777V90.632C238.041 90.314 237.975 89.9962 237.829 89.771C237.723 89.612 237.578 89.5193 237.419 89.4928H237.392C237.538 89.0689 237.75 88.698 238.002 88.433L238.041 88.4065L238.439 85.3995L238.863 85.4658C239.075 85.5055 239.273 85.4393 239.446 85.3068C239.618 85.1743 239.724 84.9623 239.75 84.7371C239.816 84.2602 239.512 83.8231 239.101 83.7569L238.902 83.7304C238.929 83.2138 238.677 82.7766 238.32 82.7237H238.227L239.22 75.173C239.313 75.12 239.406 75.0139 239.446 74.8815L240.055 74.9875L240.081 74.8418C240.161 74.2722 239.896 73.7688 239.512 73.7026H239.485C239.631 73.2787 239.843 72.9078 240.095 72.6428L240.134 72.6031L240.532 69.6093L240.956 69.6755C241.154 69.702 241.366 69.649 241.525 69.5165C241.684 69.3841 241.803 69.1721 241.83 68.9469C241.83 68.9072 241.83 68.8675 241.83 68.8145C241.83 68.629 241.777 68.4568 241.671 68.2978C241.552 68.1124 241.366 67.9932 241.168 67.9667L240.969 67.9402C240.969 67.662 240.916 67.4103 240.797 67.2249C240.691 67.0659 240.558 66.9731 240.399 66.9466H240.307L241.287 59.3828C241.38 59.343 241.472 59.237 241.525 59.0913L242.135 59.184V59.0383C242.201 58.7072 242.135 58.4025 241.989 58.1773C241.883 58.0183 241.75 57.9256 241.592 57.8991L241.433 57.8726C241.592 57.409 241.817 57.0116 242.095 56.7334L242.479 53.7793L243.035 53.872C243.247 53.9118 243.446 53.8456 243.605 53.7131C243.777 53.5806 243.883 53.3687 243.91 53.1435C243.91 53.1037 243.91 53.064 243.91 53.0242C243.91 52.6003 243.632 52.2295 243.247 52.1632L243.38 52.1103ZM235.313 54.9318C236.174 55.0775 236.809 55.9651 236.929 57.0778H236.849C236.69 57.0381 236.531 57.0778 236.386 57.2103C236.187 57.3825 236.041 57.6607 236.001 57.9786V58.1243L236.584 58.2303C236.584 58.376 236.65 58.5084 236.73 58.5746L235.736 66.1121H235.644C235.485 66.0723 235.326 66.1121 235.193 66.2313C235.021 66.3771 234.902 66.6022 234.836 66.8539L232.637 66.4963C232.637 66.2181 232.584 65.9664 232.451 65.7809C232.345 65.622 232.213 65.5293 232.041 65.5028H231.948L232.941 57.9521C233.034 57.9123 233.127 57.7931 233.167 57.6606L233.776 57.7533V57.6077C233.842 57.2897 233.776 56.9719 233.63 56.7467C233.524 56.5877 233.392 56.4949 233.233 56.4684H233.127C233.524 55.4219 234.359 54.7729 235.22 54.9186H235.286L235.313 54.9318ZM234.531 74.0337C234.531 74.1927 234.597 74.3119 234.677 74.3914L233.683 81.9288H233.59C233.233 81.8626 232.888 82.1938 232.769 82.6971L230.57 82.3394C230.597 81.8228 230.345 81.3857 229.987 81.3328H229.895L230.888 73.7688C230.981 73.729 231.074 73.623 231.127 73.4773L231.736 73.5701V73.4244C231.829 72.868 231.59 72.3646 231.206 72.2852C231.59 71.3314 232.358 70.7353 233.153 70.8677H233.22C234.014 71.0135 234.597 71.8215 234.716 72.8548C234.346 72.8415 234.001 73.2389 233.935 73.7688V73.9145L234.518 74.0072L234.531 74.0337ZM232.451 89.8504C232.451 89.9962 232.517 90.1286 232.597 90.2081L231.603 97.7455H231.511C231.14 97.666 230.769 98.0502 230.676 98.5933L228.49 98.2356C228.543 97.6925 228.292 97.2024 227.921 97.1495H227.828L228.822 89.5988C228.914 89.559 229.007 89.453 229.06 89.3073L229.669 89.4133L229.696 89.2676C229.736 88.9497 229.669 88.6317 229.524 88.4065C229.418 88.2608 229.298 88.168 229.153 88.1283C229.537 87.1745 230.305 86.5785 231.1 86.711H231.166C231.961 86.8567 232.544 87.6647 232.663 88.7112C232.531 88.7112 232.385 88.751 232.266 88.8569C232.067 89.0159 231.921 89.3073 231.882 89.6252V89.771L232.464 89.8769L232.451 89.8504ZM230.371 105.747C230.371 105.892 230.438 106.025 230.517 106.104L229.524 113.642H229.431C229.272 113.602 229.113 113.642 228.967 113.774C228.795 113.92 228.663 114.145 228.61 114.41L226.411 114.052C226.437 113.536 226.185 113.099 225.828 113.046H225.735L226.729 105.495C226.821 105.455 226.914 105.349 226.954 105.203L227.563 105.309L227.59 105.164C227.629 104.846 227.563 104.528 227.417 104.303C227.311 104.157 227.192 104.051 227.046 104.024C227.431 103.071 228.199 102.475 228.994 102.607H229.06C229.855 102.753 230.438 103.561 230.557 104.607C230.424 104.607 230.279 104.647 230.16 104.753C229.961 104.925 229.815 105.203 229.775 105.521V105.667L230.358 105.76L230.371 105.747ZM228.292 121.563C228.292 121.709 228.358 121.841 228.437 121.921L227.444 129.458H227.351C227.192 129.419 227.033 129.458 226.888 129.591C226.715 129.737 226.596 129.949 226.53 130.213L224.331 129.856C224.344 129.352 224.106 128.915 223.748 128.862H223.655L224.649 121.312C224.742 121.272 224.834 121.153 224.874 121.02L225.483 121.126V120.98C225.55 120.663 225.483 120.345 225.338 120.119C225.232 119.974 225.112 119.881 224.967 119.841C225.351 118.887 226.119 118.291 226.914 118.424H226.98C227.775 118.556 228.358 119.378 228.477 120.424C228.331 120.424 228.199 120.464 228.067 120.57C227.868 120.742 227.722 121.02 227.682 121.338V121.484L228.265 121.577L228.292 121.563ZM219.814 119.205C219.721 119.073 219.602 118.98 219.483 118.94C219.92 117.987 220.874 117.43 221.854 117.589H221.933C222.927 117.762 223.682 118.596 223.854 119.656C223.496 119.656 223.152 120.04 223.086 120.57V120.716L223.669 120.808C223.669 120.967 223.735 121.086 223.814 121.166L222.821 128.703H222.728C222.37 128.637 222.026 128.968 221.92 129.458L218.794 128.955C218.794 128.69 218.741 128.438 218.608 128.24C218.502 128.081 218.37 127.988 218.211 127.961H218.118L219.112 120.411C219.218 120.371 219.297 120.265 219.35 120.119L219.959 120.212L219.986 120.066C220.026 119.749 219.959 119.431 219.814 119.205ZM221.88 103.389C221.788 103.256 221.668 103.163 221.549 103.124C221.986 102.17 222.94 101.614 223.92 101.773H224C224.993 101.945 225.748 102.793 225.934 103.839C225.576 103.839 225.232 104.223 225.165 104.753L225.139 104.899L225.748 104.992C225.748 105.137 225.815 105.27 225.894 105.349L224.901 112.887H224.808C224.649 112.847 224.49 112.887 224.357 113.019C224.185 113.165 224.053 113.39 224 113.668L220.873 113.165C220.873 112.887 220.821 112.622 220.688 112.436C220.582 112.277 220.436 112.185 220.277 112.158H220.185L221.178 104.594C221.284 104.554 221.364 104.448 221.417 104.303L222.026 104.409V104.263C222.092 103.945 222.026 103.627 221.88 103.402V103.389ZM223.96 87.4925C223.867 87.36 223.748 87.2673 223.629 87.2275C224.066 86.2738 225.02 85.7174 226 85.8631H226.08C227.073 86.0354 227.828 86.8831 228 87.9296C227.629 87.9296 227.298 88.3006 227.232 88.8437V88.9894L227.815 89.0821C227.815 89.2278 227.881 89.3603 227.961 89.4398L226.967 96.9904H226.874C226.715 96.9507 226.556 96.9905 226.424 97.1097C226.238 97.2686 226.093 97.5336 226.053 97.825L222.94 97.3216C222.993 96.7785 222.741 96.3017 222.37 96.2354H222.278L223.271 88.6715C223.364 88.6317 223.457 88.5257 223.496 88.38L224.106 88.486V88.3403C224.172 88.0224 224.106 87.7044 223.96 87.4792V87.4925ZM226.04 71.6758C225.947 71.5433 225.828 71.4506 225.709 71.4108C226.146 70.457 227.086 69.8875 228.08 70.0597H228.159C229.153 70.2319 229.908 71.0797 230.093 72.1262C229.961 72.1262 229.828 72.1659 229.709 72.2719C229.51 72.4441 229.365 72.7223 229.325 73.0402V73.1859L229.908 73.2787C229.908 73.4244 229.974 73.5569 230.054 73.6364L229.06 81.1737H228.967C228.808 81.134 228.649 81.1738 228.517 81.293C228.345 81.4387 228.212 81.6639 228.159 81.9288L225.033 81.4254C225.046 80.922 224.808 80.4717 224.45 80.4187H224.357L225.351 72.868C225.444 72.8283 225.536 72.7223 225.589 72.5765L226.199 72.6693V72.5236C226.265 72.2057 226.199 71.8877 226.053 71.6625L226.04 71.6758ZM227.709 55.5941H227.643C228.106 54.5609 229.1 53.9383 230.173 54.1105H230.252C231.325 54.2959 232.12 55.2232 232.292 56.3359H232.226C231.842 56.2565 231.458 56.6672 231.391 57.2368V57.3825L231.974 57.4885C231.974 57.6342 232.041 57.7666 232.12 57.8461L231.127 65.3835H231.034C230.676 65.3173 230.332 65.6485 230.226 66.1386L227.099 65.6352C227.099 65.357 227.047 65.1054 226.914 64.9199C226.808 64.761 226.676 64.6682 226.517 64.6417H226.424L227.417 57.091C227.51 57.0513 227.603 56.9453 227.643 56.7996L228.252 56.8924V56.7467C228.345 56.177 228.093 55.6736 227.696 55.6074L227.709 55.5941ZM227.166 39.9629C227.444 37.8036 229.259 36.3068 231.18 36.6247C232.12 36.7837 232.941 37.3268 233.511 38.1746C234.081 39.0224 234.306 40.0556 234.173 41.1021L232.955 50.4412L225.947 49.3019L227.166 39.9629ZM221.827 56.1638C221.933 56.1241 222.013 56.018 222.066 55.8723L222.675 55.9783V55.8326C222.768 55.2763 222.516 54.7596 222.119 54.6933H222.092C222.543 53.6733 223.549 53.0508 224.622 53.223H224.702C225.762 53.4084 226.57 54.3357 226.742 55.4484H226.689C226.305 55.3822 225.921 55.7928 225.854 56.3492V56.495L226.437 56.6009C226.437 56.7598 226.503 56.8791 226.583 56.9586L225.589 64.496H225.497C225.338 64.4563 225.179 64.496 225.033 64.6285C224.861 64.7742 224.742 64.9994 224.675 65.2511L221.483 64.7345C221.483 64.4563 221.43 64.2046 221.297 64.0191C221.191 63.8602 221.046 63.7674 220.9 63.7409H220.807L221.788 56.1902L221.827 56.1638ZM219.761 71.9672C219.867 71.9275 219.946 71.8215 219.986 71.6758L220.595 71.7685V71.6228C220.662 71.3049 220.595 70.9869 220.45 70.7617C220.37 70.6425 220.264 70.563 220.158 70.51C220.595 69.5563 221.549 68.9867 222.543 69.1457H222.622C223.616 69.3179 224.371 70.1657 224.556 71.2122C224.198 71.2122 223.867 71.6096 223.801 72.1262V72.2719L224.384 72.3646C224.384 72.5103 224.45 72.6428 224.53 72.7223L223.536 80.2598H223.443C223.072 80.1803 222.741 80.5246 222.622 81.028L219.43 80.5114C219.456 80.008 219.204 79.5577 218.847 79.5047H218.754L219.734 71.954L219.761 71.9672ZM217.694 87.784C217.8 87.7442 217.88 87.6382 217.933 87.4925L218.542 87.5852L218.569 87.4395C218.635 86.9229 218.436 86.4592 218.105 86.3268C218.542 85.373 219.496 84.8034 220.489 84.9756H220.569C221.562 85.1478 222.317 85.9956 222.503 87.0421C222.145 87.0421 221.814 87.4395 221.748 87.9562V88.1019L222.331 88.2079C222.331 88.3536 222.397 88.486 222.476 88.5522L221.483 96.0897H221.39C221.019 96.0102 220.648 96.3943 220.556 96.9375L217.376 96.4208C217.429 95.8777 217.178 95.3876 216.793 95.3346H216.701L217.694 87.784ZM215.615 103.68C215.721 103.64 215.8 103.534 215.84 103.389L216.449 103.481L216.476 103.336C216.542 102.819 216.343 102.355 216.012 102.223C216.449 101.269 217.403 100.7 218.383 100.859H218.463C219.456 101.031 220.211 101.879 220.397 102.925C220.039 102.925 219.708 103.322 219.642 103.839L219.615 103.985L220.224 104.091C220.224 104.236 220.291 104.369 220.37 104.448L219.377 111.986H219.284C218.926 111.906 218.582 112.251 218.463 112.754L215.27 112.238C215.297 111.721 215.058 111.284 214.687 111.218H214.594L215.588 103.667L215.615 103.68ZM213.535 119.497C213.627 119.457 213.72 119.351 213.76 119.205L214.369 119.298V119.152C214.462 118.636 214.25 118.172 213.932 118.04C214.369 117.086 215.323 116.516 216.303 116.675H216.383C217.376 116.847 218.131 117.695 218.317 118.742C217.959 118.742 217.628 119.139 217.562 119.656L217.535 119.801L218.145 119.907C218.145 120.053 218.211 120.186 218.29 120.252L217.297 127.789H217.204C216.846 127.723 216.502 128.054 216.396 128.544L213.204 128.028C213.204 127.763 213.151 127.498 213.018 127.312C212.912 127.153 212.766 127.061 212.621 127.034H212.528L213.522 119.484L213.535 119.497ZM215.151 143.606C214.793 143.553 214.449 143.884 214.33 144.388L211.137 143.871C211.137 143.593 211.084 143.341 210.952 143.142C210.846 142.983 210.713 142.891 210.554 142.864H210.461L211.455 135.3C211.548 135.261 211.64 135.155 211.693 135.009L212.303 135.102L212.329 134.956C212.396 134.439 212.197 133.976 211.866 133.843C212.303 132.889 213.257 132.32 214.25 132.479H214.33C215.323 132.651 216.078 133.499 216.264 134.545C216.131 134.545 216.012 134.598 215.893 134.691C215.694 134.863 215.548 135.141 215.509 135.459V135.605L216.091 135.698C216.091 135.843 216.158 135.976 216.237 136.055L215.244 143.593H215.151V143.606ZM220.688 144.494C220.33 144.441 219.986 144.785 219.867 145.275L216.74 144.772C216.767 144.255 216.515 143.818 216.158 143.765H216.065L217.058 136.214C217.164 136.175 217.244 136.069 217.284 135.923L217.893 136.016V135.87C217.986 135.34 217.76 134.85 217.403 134.744C217.84 133.79 218.78 133.234 219.774 133.393H219.853C220.847 133.565 221.602 134.413 221.788 135.459C221.43 135.459 221.085 135.843 221.019 136.373V136.519L221.602 136.612C221.602 136.757 221.668 136.89 221.748 136.969L220.754 144.507H220.662L220.688 144.494ZM225.298 145.222C224.94 145.169 224.596 145.5 224.477 146.004L222.278 145.646C222.304 145.129 222.052 144.692 221.695 144.639H221.602L222.596 137.075C222.688 137.036 222.781 136.93 222.821 136.784L223.43 136.877V136.731C223.523 136.175 223.271 135.671 222.9 135.592C223.284 134.638 224.053 134.042 224.848 134.174H224.914C225.709 134.32 226.291 135.128 226.411 136.161C226.04 136.148 225.695 136.545 225.629 137.075V137.221L226.212 137.314C226.212 137.459 226.278 137.592 226.358 137.671L225.364 145.222H225.271H225.298ZM230.093 137.95C230.093 138.095 230.16 138.228 230.239 138.307L229.245 145.845H229.153C228.994 145.805 228.835 145.845 228.689 145.977C228.517 146.123 228.384 146.348 228.331 146.613L226.874 146.375C226.901 145.858 226.649 145.421 226.291 145.368H226.199L227.192 137.817C227.285 137.777 227.378 137.671 227.431 137.526L228.04 137.618V137.473C228.133 136.916 227.894 136.413 227.51 136.333C227.841 135.366 228.477 134.757 229.113 134.863H229.166C229.802 134.969 230.252 135.764 230.332 136.797C229.948 136.744 229.577 137.142 229.497 137.711V137.857L230.08 137.95H230.093ZM232.16 122.146C232.16 122.292 232.226 122.424 232.305 122.504L231.312 130.041H231.219C230.862 129.975 230.517 130.306 230.411 130.796L228.954 130.558C228.954 130.28 228.901 130.028 228.769 129.843C228.663 129.684 228.517 129.591 228.371 129.564H228.278L229.272 122C229.365 121.961 229.457 121.855 229.51 121.709L230.12 121.802V121.656C230.212 121.1 229.974 120.61 229.59 120.517C229.921 119.563 230.57 118.94 231.193 119.046H231.246C231.882 119.152 232.332 119.947 232.398 120.98C232.239 120.954 232.08 121.007 231.948 121.126C231.749 121.298 231.603 121.577 231.564 121.895V122.04L232.147 122.133L232.16 122.146ZM234.24 106.329C234.24 106.475 234.306 106.608 234.385 106.687L233.392 114.225H233.299C232.941 114.158 232.597 114.503 232.478 114.993L231.034 114.754C231.034 114.476 230.981 114.225 230.848 114.026C230.742 113.867 230.61 113.774 230.451 113.748H230.358L231.338 106.197C231.431 106.157 231.524 106.051 231.577 105.906L232.186 105.998L232.213 105.853C232.253 105.521 232.2 105.217 232.041 104.992C231.935 104.846 231.815 104.753 231.67 104.727C232.001 103.76 232.637 103.15 233.273 103.243H233.326C233.948 103.349 234.412 104.157 234.478 105.177C234.319 105.151 234.173 105.204 234.028 105.323C233.829 105.482 233.683 105.773 233.643 106.091V106.237L234.226 106.329H234.24ZM236.319 90.4333C236.319 90.579 236.386 90.7114 236.465 90.7909L235.471 98.3284H235.379C235.008 98.2489 234.637 98.6331 234.544 99.1762L233.1 98.9378C233.127 98.6331 233.074 98.3417 232.928 98.1297C232.822 97.9707 232.69 97.878 232.531 97.8515H232.438L233.431 90.2875C233.524 90.2478 233.617 90.1419 233.67 89.9961L234.279 90.1021L234.306 89.9564C234.346 89.6384 234.293 89.3206 234.134 89.0954C234.028 88.9497 233.908 88.8569 233.749 88.8172C234.081 87.8501 234.716 87.2408 235.352 87.3335H235.405C236.028 87.4395 236.492 88.2476 236.558 89.2676C236.399 89.2411 236.253 89.2941 236.107 89.4133C235.909 89.5722 235.763 89.8637 235.723 90.1816V90.3273L236.306 90.4333H236.319ZM238.386 74.6166C238.386 74.7623 238.452 74.8947 238.532 74.9742L237.538 82.5117H237.445C237.088 82.4322 236.743 82.7766 236.624 83.28L235.167 83.0416C235.167 82.7634 235.114 82.5117 234.981 82.313C234.875 82.154 234.73 82.0613 234.571 82.0348H234.478L235.471 74.4708C235.564 74.4311 235.657 74.3252 235.697 74.1794L236.306 74.2854V74.1397C236.372 73.8085 236.306 73.5039 236.16 73.2787C236.068 73.1329 235.935 73.0402 235.789 73.0005C236.121 72.0334 236.756 71.4241 237.392 71.5301H237.445C238.068 71.6361 238.531 72.4441 238.598 73.4641C238.2 73.4112 237.843 73.7953 237.763 74.3782V74.5239L238.346 74.6166H238.386ZM240.717 57.6606C240.32 57.5944 239.949 57.9918 239.883 58.5746L239.856 58.7204L240.466 58.8263C240.466 58.9721 240.532 59.1045 240.611 59.184L239.618 66.7215H239.525C239.366 66.6817 239.207 66.7215 239.061 66.8407C238.889 66.9864 238.77 67.2116 238.704 67.4633L237.247 67.2249C237.26 66.7215 237.021 66.2843 236.664 66.2313H236.571L237.564 58.6806C237.657 58.6409 237.75 58.535 237.803 58.3893L238.412 58.482V58.3362C238.505 57.7666 238.253 57.2632 237.856 57.197H237.75C238.094 56.1505 238.796 55.475 239.499 55.5809H239.551C240.254 55.7002 240.757 56.5744 240.823 57.6739L240.704 57.6474L240.717 57.6606Z" fill="#2C9A81"/>
<path d="M184.392 165.901L183.465 165.755L184.392 165.901Z" fill="#2C9A81"/>
<path d="M227.325 153.435L227.206 154.349L226.146 154.177L226.266 153.263C226.544 151.17 225.312 149.236 223.523 148.945C221.735 148.653 220.066 150.111 219.788 152.204L219.669 153.118L218.529 152.932L218.649 152.018C218.927 149.925 217.47 147.964 215.416 147.62C213.363 147.289 211.469 148.706 211.191 150.799L211.071 151.713L209.959 151.528L210.078 150.614C210.343 148.574 208.965 146.653 206.978 146.256L204.289 166.947H207.694L209.442 154.535C209.442 154.535 209.508 154.561 209.535 154.561L210.661 154.747C210.661 154.747 210.727 154.747 210.754 154.747L209.27 166.934H216.516L218.066 155.939C218.066 155.939 218.132 155.966 218.158 155.966L219.284 156.151C219.284 156.151 219.351 156.151 219.39 156.151L218.079 166.934H224.173L225.55 157.158C225.55 157.158 225.616 157.171 225.643 157.184L226.769 157.37C226.769 157.37 226.835 157.37 226.875 157.37L225.709 166.934H227.233C227.259 166.722 228.915 154.137 229.418 150.23C228.332 150.667 227.484 151.912 227.286 153.409L227.325 153.435Z" fill="#2C9A81"/>
<path d="M206.845 146.242C205.798 146.07 204.738 146.361 203.93 147.037C203.215 147.633 202.751 148.481 202.619 149.421L202.5 150.335L201.48 150.177L201.599 149.262C201.718 148.322 201.493 147.355 200.963 146.56C200.367 145.659 199.413 145.037 198.367 144.878C196.313 144.547 194.419 145.964 194.141 148.057L194.022 148.971L192.882 148.786L193.002 147.872C193.134 146.825 192.909 145.792 192.353 144.971C191.836 144.202 191.094 143.699 190.26 143.566C189.425 143.434 188.577 143.672 187.888 144.242C187.147 144.865 186.656 145.779 186.524 146.825L186.405 147.739L185.345 147.567L185.464 146.653C185.663 145.103 185.146 143.619 184.166 142.864C183.53 147.66 181.04 166.709 181 167H181.291C181.477 166.152 182.033 165.543 182.603 165.649L182.775 165.675L184.895 150.6C184.895 150.6 184.961 150.627 184.987 150.627L186.113 150.812C186.113 150.812 186.18 150.812 186.206 150.812L184.378 165.927L184.55 165.953C184.961 166.02 185.279 166.43 185.398 166.987H190.114L192.326 151.793C192.326 151.793 192.392 151.819 192.419 151.819L193.545 152.005C193.545 152.005 193.611 152.005 193.637 152.005L191.823 166.973H198.923L200.87 153.184C200.87 153.184 200.936 153.197 200.963 153.21L202.089 153.395C202.089 153.395 202.155 153.395 202.195 153.395L200.552 166.973H204.275L206.964 146.282C206.964 146.282 206.871 146.256 206.831 146.242H206.845Z" fill="#2C9A81"/>
<path d="M150.24 86.1173C150.24 80.0255 154.418 75.0663 159.668 74.7296V19H159.622V24.5408L151.219 43.2602H151.143V54.4796L144.592 65.4082H144.332V71.3622H143V102.372H144.332V165.954H159.653V97.5051C154.403 97.1684 150.224 92.2092 150.224 86.1173H150.24Z" fill="#F4D13E"/>
<path d="M176.398 71.3622H175.081V65.4082H174.821L168.377 54.2959H168.27V43.2602H168.209L159.79 24.4949V19H159.668V74.7296C159.852 74.7296 160.035 74.699 160.234 74.699C165.744 74.699 170.229 79.8112 170.229 86.1173C170.229 92.4235 165.744 97.5357 160.234 97.5357C160.051 97.5357 159.852 97.5204 159.668 97.5051V165.954H170.78V166H175.25L175.081 102.372H176.398V71.3622Z" fill="#DCBD39"/>
<path d="M160.324 85.7807L161.426 86.2704L164.549 76.9337L163.462 76.4592L160.324 85.7807Z" fill="#DCBD39"/>
<path d="M159.562 85.8267L152.965 87.7705L153.256 89.0716L159.669 87.1889V86.2705L159.562 85.8267Z" fill="#F4D13E"/>
<path d="M159.668 86.2703V87.1886L159.852 87.1427L159.668 86.2703Z" fill="#F4D13E"/>
<path d="M64.1027 145.786H61.848V128.209C61.848 122.877 66.3244 119.882 67.3613 119.256V85.3041H66.9828C66.7688 85.3041 66.5878 85.4687 66.5878 85.6827C66.5878 85.8966 66.7688 86.0447 66.9828 86.0447H67.1144C67.1144 86.0447 67.065 86.1599 67.065 86.2257C67.065 86.2916 67.0651 86.341 67.098 86.3903C66.7195 86.522 66.4726 86.8182 66.4726 87.1474C66.4726 87.3614 66.5878 87.5588 66.7523 87.707L54.1293 110.748V87.1474L52.9938 85.2383V72.0886L53.3558 71.8088L52.9938 71.6607V62.4444L53.3558 62.1646L52.9938 62.0165V55.1043L53.3558 54.8245L52.9938 54.6764V40.0126L53.3393 38.9922H53.2571L52.5823 33.9068L52.2861 34.8449C52.2861 34.8449 50.3934 26.3527 49.8668 20.609C50.1301 20.5925 50.3276 20.5102 50.3276 20.428C50.3276 20.3457 50.163 20.2798 49.9491 20.2469C49.9326 20.1317 49.8339 20.0494 49.7022 20.0494C49.5706 20.0494 49.4882 20.1317 49.4718 20.2469C49.2414 20.2798 49.0933 20.3457 49.0933 20.428C49.0933 20.5102 49.2908 20.5925 49.5541 20.609C49.0274 26.3692 47.1348 34.8449 47.1348 34.8449L46.8386 33.9068L46.1802 38.8441L46.0157 38.877L46.4107 39.5024V40.8519H45.6372C45.6372 40.7697 45.5713 40.7038 45.4726 40.7038H45.3245V39.7822H45.5219C45.5219 39.7822 45.6536 39.7328 45.6536 39.6505C45.6536 39.5683 45.6042 39.5189 45.5219 39.5189H45.3245V38.9758C45.3245 38.9758 45.4561 38.8441 45.4561 38.7454C45.4561 38.5972 45.3409 38.482 45.1928 38.482C45.0447 38.482 44.9295 38.5972 44.9295 38.7454C44.9295 38.8441 44.9788 38.9264 45.0611 38.9758V39.5189H44.8637C44.8637 39.5189 44.732 39.5847 44.732 39.6505C44.732 39.7164 44.7814 39.7822 44.8637 39.7822H45.0611V40.7038H44.8965C44.8143 40.7038 44.7484 40.7697 44.7484 40.8519H44.156C44.156 40.7697 44.0901 40.7038 44.0078 40.7038H43.8597V39.7822H44.0572C44.0572 39.7822 44.1889 39.7328 44.1889 39.6505C44.1889 39.5683 44.1395 39.5189 44.0572 39.5189H43.8597V38.9758C43.8597 38.9758 43.9914 38.8441 43.9914 38.7454C43.9914 38.5972 43.8762 38.482 43.7281 38.482C43.5799 38.482 43.4647 38.5972 43.4647 38.7454C43.4647 38.8441 43.5141 38.9264 43.5964 38.9758V39.5189H43.3989C43.3989 39.5189 43.2673 39.5847 43.2673 39.6505C43.2673 39.7164 43.3166 39.7822 43.3989 39.7822H43.5964V40.7038H43.4318C43.3495 40.7038 43.2837 40.7697 43.2837 40.8519H42.6912C42.6912 40.7697 42.6254 40.7038 42.5431 40.7038H42.395V39.7822H42.5925C42.5925 39.7822 42.7241 39.7328 42.7241 39.6505C42.7241 39.5683 42.6748 39.5189 42.5925 39.5189H42.395V38.9758C42.395 38.9758 42.5267 38.8441 42.5267 38.7454C42.5267 38.5972 42.4115 38.482 42.2633 38.482C42.1152 38.482 42 38.5972 42 38.7454C42 38.8441 42.0494 38.9264 42.1317 38.9758V39.5189H41.9342C41.9342 39.5189 41.8025 39.5847 41.8025 39.6505C41.8025 39.7164 41.8519 39.7822 41.9342 39.7822H42.1317V40.7038H41.9836C41.9013 40.7038 41.8354 40.7697 41.8354 40.8519H41.2429C41.2429 40.7697 41.1771 40.7038 41.0948 40.7038H40.9467V39.7822H41.1442C41.1442 39.7822 41.2759 39.7328 41.2759 39.6505C41.2759 39.5683 41.2265 39.5189 41.1442 39.5189H40.9467V38.9758C40.9467 38.9758 41.0784 38.8441 41.0784 38.7454C41.0784 38.5972 40.9632 38.482 40.8151 38.482C40.6669 38.482 40.5517 38.5972 40.5517 38.7454C40.5517 38.8441 40.6011 38.9264 40.6834 38.9758V39.5189H40.4859C40.4859 39.5189 40.3542 39.5847 40.3542 39.6505C40.3542 39.7164 40.4036 39.7822 40.4859 39.7822H40.6834V40.7038H40.5353C40.453 40.7038 40.3872 40.7697 40.3872 40.8519H39.7947C39.7947 40.7697 39.7289 40.7038 39.6466 40.7038H39.4984V39.7822H39.6959C39.6959 39.7822 39.8276 39.7328 39.8276 39.6505C39.8276 39.5683 39.7618 39.5189 39.6959 39.5189H39.4984V38.9758C39.4984 38.9758 39.6301 38.8441 39.6301 38.7454C39.6301 38.5972 39.5149 38.482 39.3668 38.482C39.2187 38.482 39.1035 38.5972 39.1035 38.7454C39.1035 38.8441 39.1528 38.9264 39.2351 38.9758V39.5189H39.0376C39.0376 39.5189 38.906 39.5847 38.906 39.6505C38.906 39.7164 38.9553 39.7822 39.0376 39.7822H39.2351V40.7038H39.087C39.0047 40.7038 38.9389 40.7697 38.9389 40.8519H38.3464C38.3464 40.7697 38.2806 40.7038 38.1818 40.7038H38.0337V39.7822H38.2312C38.2312 39.7822 38.3629 39.7328 38.3629 39.6505C38.3629 39.5683 38.3135 39.5189 38.2312 39.5189H38.0337V38.9758C38.0337 38.9758 38.1654 38.8441 38.1654 38.7454C38.1654 38.5972 38.0502 38.482 37.902 38.482C37.7539 38.482 37.6387 38.5972 37.6387 38.7454C37.6387 38.8441 37.6881 38.9264 37.7704 38.9758V39.5189H37.5729C37.5729 39.5189 37.4412 39.5847 37.4412 39.6505C37.4412 39.7164 37.4906 39.7822 37.5729 39.7822H37.7704V40.7038H37.6223C37.54 40.7038 37.4741 40.7697 37.4741 40.8519H36.8817C36.8817 40.7697 36.8158 40.7038 36.7336 40.7038H36.569V39.7822H36.7665C36.7665 39.7822 36.8981 39.7328 36.8981 39.6505C36.8981 39.5683 36.8323 39.5189 36.7665 39.5189H36.569V38.9758C36.569 38.9758 36.7006 38.8441 36.7006 38.7454C36.7006 38.5972 36.5854 38.482 36.4373 38.482C36.2892 38.482 36.174 38.5972 36.174 38.7454C36.174 38.8441 36.2234 38.9264 36.3056 38.9758V39.5189H36.1082C36.1082 39.5189 35.9765 39.5847 35.9765 39.6505C35.9765 39.7164 36.0423 39.7822 36.1082 39.7822H36.3056V40.7038H36.1575C36.0752 40.7038 35.993 40.7697 35.993 40.8519H35.4005C35.4005 40.7697 35.3346 40.7038 35.2523 40.7038H35.1042V39.7822H35.3017C35.3017 39.7822 35.4334 39.7328 35.4334 39.6505C35.4334 39.5683 35.3676 39.5189 35.3017 39.5189H35.1042V38.9758C35.1042 38.9758 35.2359 38.8441 35.2359 38.7454C35.2359 38.5972 35.1207 38.482 34.9726 38.482C34.8245 38.482 34.7093 38.5972 34.7093 38.7454C34.7093 38.8441 34.7586 38.9264 34.8409 38.9758V39.5189H34.6434C34.6434 39.5189 34.5118 39.5847 34.5118 39.6505C34.5118 39.7164 34.5611 39.7822 34.6434 39.7822H34.8409V40.7038H34.6928C34.6105 40.7038 34.5447 40.7697 34.5447 40.8519H33.8864V39.5024L34.2814 38.877L34.1168 38.8441L33.4585 33.9068L33.1622 34.8449C33.1622 34.8449 31.2696 26.3527 30.743 20.609C31.0063 20.5925 31.2038 20.5102 31.2038 20.428C31.2038 20.3457 31.0557 20.2798 30.8253 20.2469C30.8088 20.1317 30.7101 20.0494 30.5948 20.0494C30.4796 20.0494 30.3809 20.1317 30.348 20.2469C30.1176 20.2798 29.9694 20.3457 29.9694 20.428C29.9694 20.5102 30.1669 20.5925 30.4303 20.609C29.9036 26.3692 28.011 34.8449 28.011 34.8449L27.7148 33.9068L27.04 38.9758H26.9577L27.2868 40.0126V54.6764L26.9248 54.8245L27.2868 55.1043V62.0165L26.9248 62.1646L27.2868 62.4444V71.6607L26.9248 71.8088L27.2868 72.0886V85.2383L26.1677 87.1474V112.031H12.3926V107.423L11.7179 106.666L11.0431 100.807L10.8127 100.955L6.46788 83.79V83.1482L6.64892 82.6544L6.71474 82.424L6.79703 82.0455V81.7493C6.79703 81.7493 6.64892 81.4859 6.64892 81.3707C6.64892 81.2555 6.71474 80.8112 6.71474 80.8112L6.64892 80.5149L6.5337 80.2845L6.5008 79.906L6.27037 79.6098L5.97415 79.5769L5.82603 79.9225L6.00707 80.1035L6.08936 80.2845L5.85893 80.3174L5.51333 80.5808L5.74374 80.6137L5.89185 80.6466L5.92478 80.7947L5.89185 80.9922L5.85893 81.1733L5.62852 81.3543L5.59563 81.5847L5.67792 81.8151L5.71082 82.0784L5.74374 82.3417L5.82603 82.5721L5.90833 82.8355L6.08936 83.1317H5.94122V83.7736L1.57995 100.939L1.34954 100.791L0.674771 106.65L0 107.407V167H33.3762V137.837C33.3762 135.467 36.0259 133.525 39.3009 133.525C42.576 133.525 45.2257 135.451 45.2257 137.837V167H60.8605V154.031C60.8605 151.299 63.8558 149.078 67.6082 148.995V145.786H64.3495H64.1027ZM62.2759 107.983C62.2759 107.242 62.7367 106.633 63.2962 106.633C63.8558 106.633 64.3166 107.242 64.3166 107.983V117.117H62.2923V107.983H62.2759ZM6.5008 111.34H5.82603V108.526H6.5008V111.34ZM16.2273 152.468C13.989 152.468 12.1787 150.658 12.1787 148.403C12.1787 146.148 13.989 144.354 16.2273 144.354C18.4655 144.354 20.2923 146.165 20.2923 148.403C20.2923 150.641 18.482 152.468 16.2273 152.468ZM29.5745 112.377H29.1795V110.567H29.5745V112.377ZM29.5745 104.23H29.1795V102.42H29.5745V104.23ZM29.5745 97.1701H29.1795V95.3762H29.5745V97.1701ZM29.5745 89.2869H29.1795V87.4765H29.5745V89.2869ZM29.5745 78.3919H29.1795V76.5815H29.5745V78.3919ZM29.5745 69.5377H29.1795V67.7438H29.5745V69.5377ZM29.5745 59.6302H29.1795V57.8198H29.5745V59.6302ZM29.5745 51.1874H29.1795V49.377H29.5745V51.1874ZM35.993 106.14H35.565V103.72H35.993V106.14ZM35.993 96.6106H35.565V94.8002H35.993V96.6106ZM35.993 94.4711H35.565V92.6607H35.993V94.4711ZM38.1818 72.2532H34.5941V58.33C34.5941 53.5573 36.3879 51.1215 36.3879 51.1215C36.3879 51.1215 38.1818 53.5408 38.1818 58.33V72.2532ZM40.239 92.6772H40.6669V94.4875H40.239V92.6772ZM40.239 94.8167H40.6669V96.627H40.239V94.8167ZM41.3746 109.579H39.5149V106.6H41.3746V109.579ZM42.214 72.2532H41.5063V58.33C41.5063 53.5573 43.3002 51.1215 43.3002 51.1215C43.3002 51.1215 45.0941 53.5408 45.0941 58.33V72.2532H42.214ZM45.3245 105.909H44.8965V103.49H45.3245V105.909ZM45.3245 96.6106H44.8965V94.8002H45.3245V96.6106ZM45.3245 94.4711H44.8965V92.6607H45.3245V94.4711ZM50.9859 112.393H50.5909V110.583H50.9859V112.393ZM50.9859 104.247H50.5909V102.437H50.9859V104.247ZM50.9859 97.1866H50.5909V95.3927H50.9859V97.1866ZM50.9859 89.3034H50.5909V87.493H50.9859V89.3034ZM50.9859 78.4084H50.5909V76.598H50.9859V78.4084ZM50.9859 69.5541H50.5909V67.7602H50.9859V69.5541ZM50.9859 59.6466H50.5909V57.8363H50.9859V59.6466ZM50.9859 51.2038H50.5909V49.3935H50.9859V51.2038Z" fill="#40BBB2"/>
<path d="M134.74 106.65L134.065 100.791L133.834 100.939L129.49 83.7735V83.1317H129.325L129.506 82.8354L129.572 82.5721L129.654 82.3417L129.687 82.0784L129.72 81.815L129.802 81.5846L129.769 81.3542L129.539 81.1732L129.506 80.9922L129.473 80.7947L129.506 80.6465L129.654 80.6136L129.885 80.5807L129.539 80.3174L129.309 80.2845L129.391 80.1034L129.572 79.9224L129.424 79.5768L129.128 79.6097L128.897 79.9059L128.864 80.2845L128.749 80.5149L128.683 80.8111C128.683 80.8111 128.749 81.2555 128.749 81.3707C128.749 81.4859 128.601 81.7492 128.601 81.7492V82.0454L128.683 82.424L128.749 82.6544L128.93 83.1481V83.79L124.569 100.955L124.338 100.807L123.664 106.666L122.989 107.423V112.031H109.214V87.1473L108.078 85.2382V72.0885L108.44 71.8088L108.078 71.6607V62.4443L108.44 62.1646L108.078 62.0165V55.1042L108.44 54.8245L108.078 54.6763V40.0125L108.424 38.9922H108.342L107.667 33.9067L107.371 34.8448C107.371 34.8448 105.478 26.3527 104.951 20.6089C105.215 20.5925 105.412 20.5102 105.412 20.4279C105.412 20.3456 105.248 20.2798 105.034 20.2469C105.017 20.1317 104.918 20.0494 104.803 20.0494C104.688 20.0494 104.589 20.1317 104.556 20.2469C104.342 20.2798 104.178 20.3456 104.178 20.4279C104.178 20.5102 104.375 20.5925 104.639 20.6089C104.112 26.3691 102.219 34.8448 102.219 34.8448L101.923 33.9067L101.265 38.844L101.1 38.877L101.495 39.5023V40.8519H100.705C100.705 40.7696 100.639 40.7038 100.557 40.7038H100.409V39.7821H100.606C100.606 39.7821 100.738 39.7328 100.738 39.6505C100.738 39.5682 100.672 39.5188 100.606 39.5188H100.409V38.9757C100.409 38.9757 100.541 38.844 100.541 38.7453C100.541 38.5972 100.425 38.482 100.277 38.482C100.129 38.482 100.014 38.5972 100.014 38.7453C100.014 38.844 100.063 38.9263 100.146 38.9757V39.5188H99.9481C99.9481 39.5188 99.8165 39.5846 99.8165 39.6505C99.8165 39.7163 99.8823 39.7821 99.9481 39.7821H100.146V40.7038H99.9975C99.9152 40.7038 99.8494 40.7696 99.8494 40.8519H99.2569C99.2569 40.7696 99.1911 40.7038 99.0923 40.7038H98.9442V39.7821H99.1417C99.1417 39.7821 99.2734 39.7328 99.2734 39.6505C99.2734 39.5682 99.224 39.5188 99.1417 39.5188H98.9442V38.9757C98.9442 38.9757 99.0759 38.844 99.0759 38.7453C99.0759 38.5972 98.9607 38.482 98.8126 38.482C98.6644 38.482 98.5492 38.5972 98.5492 38.7453C98.5492 38.844 98.5986 38.9263 98.6809 38.9757V39.5188H98.4834C98.4834 39.5188 98.3517 39.5846 98.3517 39.6505C98.3517 39.7163 98.4011 39.7821 98.4834 39.7821H98.6809V40.7038H98.5163C98.434 40.7038 98.3682 40.7696 98.3682 40.8519H97.7757C97.7757 40.7531 97.7099 40.6873 97.6276 40.6873H97.4795V39.7657H97.677C97.677 39.7657 97.8086 39.7163 97.8086 39.634C97.8086 39.5517 97.7593 39.5023 97.677 39.5023H97.4795V38.9592C97.4795 38.9592 97.6111 38.8276 97.6111 38.7288C97.6111 38.5807 97.4959 38.4655 97.3478 38.4655C97.1997 38.4655 97.0845 38.5807 97.0845 38.7288C97.0845 38.8276 97.1339 38.9099 97.2162 38.9592V39.5023H97.0187C97.0187 39.5023 96.887 39.5682 96.887 39.634C96.887 39.6998 96.9364 39.7657 97.0187 39.7657H97.2162V40.6873H97.068C96.9858 40.6873 96.9199 40.7531 96.9199 40.8354H96.3274C96.3274 40.7531 96.2616 40.6873 96.1793 40.6873H96.0147V39.7657H96.2122C96.2122 39.7657 96.3439 39.7163 96.3439 39.634C96.3439 39.5517 96.2945 39.5023 96.2122 39.5023H96.0147V38.9592C96.0147 38.9592 96.1464 38.8276 96.1464 38.7288C96.1464 38.5807 96.0312 38.4655 95.8831 38.4655C95.735 38.4655 95.6198 38.5807 95.6198 38.7288C95.6198 38.8276 95.6691 38.9099 95.7514 38.9592V39.5023H95.5539C95.5539 39.5023 95.4223 39.5682 95.4223 39.634C95.4223 39.6998 95.4716 39.7657 95.5539 39.7657H95.7514V40.6873H95.6033C95.521 40.6873 95.4552 40.7531 95.4552 40.8354H94.8627C94.8627 40.7367 94.7969 40.6708 94.7146 40.6708H94.5665V39.7492H94.764C94.764 39.7492 94.8956 39.6998 94.8956 39.6175C94.8956 39.5353 94.8298 39.4859 94.764 39.4859H94.5665V38.9428C94.5665 38.9428 94.6981 38.8111 94.6981 38.7124C94.6981 38.5643 94.5829 38.449 94.4348 38.449C94.2867 38.449 94.1715 38.5643 94.1715 38.7124C94.1715 38.8111 94.2209 38.8934 94.3032 38.9428V39.4859H94.1056C94.1056 39.4859 93.974 39.5517 93.974 39.6175C93.974 39.6834 94.0233 39.7492 94.1056 39.7492H94.3032V40.6708H94.155C94.0727 40.6708 94.0069 40.7367 94.0069 40.819H93.4144C93.4144 40.7202 93.3486 40.6544 93.2663 40.6544H93.1182V39.7327H93.3157C93.3157 39.7327 93.4473 39.6834 93.4473 39.6011C93.4473 39.5188 93.398 39.4694 93.3157 39.4694H93.1182V38.9263C93.1182 38.9263 93.2499 38.7947 93.2499 38.6959C93.2499 38.5478 93.1346 38.4326 92.9865 38.4326C92.8384 38.4326 92.7232 38.5478 92.7232 38.6959C92.7232 38.7947 92.7726 38.877 92.8549 38.9263V39.4694H92.6574C92.6574 39.4694 92.5257 39.5353 92.5257 39.6011C92.5257 39.6669 92.5751 39.7327 92.6574 39.7327H92.8549V40.6544H92.6903C92.608 40.6544 92.5422 40.7202 92.5422 40.8025H91.9497C91.9497 40.7202 91.8839 40.6544 91.8016 40.6544H91.637V39.7327H91.8345C91.8345 39.7327 91.9662 39.6834 91.9662 39.6011C91.9662 39.5188 91.9004 39.4694 91.8345 39.4694H91.637V38.9263C91.637 38.9263 91.7687 38.7947 91.7687 38.6959C91.7687 38.5478 91.6535 38.4326 91.5053 38.4326C91.3572 38.4326 91.242 38.5478 91.242 38.6959C91.242 38.7947 91.2914 38.877 91.3737 38.9263V39.4694H91.1762C91.1762 39.4694 91.0445 39.5353 91.0445 39.6011C91.0445 39.6669 91.1103 39.7327 91.1762 39.7327H91.3737V40.6544H91.2091C91.1268 40.6544 91.061 40.7202 91.061 40.8025H90.4685C90.4685 40.7202 90.4027 40.6544 90.3204 40.6544H90.1723V39.7327H90.3698C90.3698 39.7327 90.5014 39.6834 90.5014 39.6011C90.5014 39.5188 90.4356 39.4694 90.3698 39.4694H90.1723V38.9263C90.1723 38.9263 90.3039 38.7947 90.3039 38.6959C90.3039 38.5478 90.1887 38.4326 90.0406 38.4326C89.8925 38.4326 89.7773 38.5478 89.7773 38.6959C89.7773 38.7947 89.8267 38.877 89.9089 38.9263V39.4694H89.7115C89.7115 39.4694 89.5798 39.5353 89.5798 39.6011C89.5798 39.6669 89.6292 39.7327 89.7115 39.7327H89.9089V40.6544H89.7608C89.6785 40.6544 89.5962 40.7202 89.5962 40.8025H88.938V39.453L89.3329 38.8276L89.1683 38.7947L88.51 33.8574L88.2138 34.7954C88.2138 34.7954 86.3212 26.3033 85.7945 20.5596C86.0579 20.5431 86.2553 20.4608 86.2553 20.3785C86.2553 20.2962 86.0907 20.2304 85.8768 20.1975C85.8603 20.0823 85.7616 20 85.6299 20C85.4983 20 85.416 20.0823 85.3996 20.1975C85.1692 20.2304 85.021 20.2962 85.021 20.3785C85.021 20.4608 85.2185 20.5431 85.4818 20.5596C84.9552 26.3197 83.0625 34.7954 83.0625 34.7954L82.7663 33.8574L82.0916 38.9263H82.0093L82.3549 39.9631V54.6269L81.9928 54.7751L82.3549 55.0549V61.9671L81.9928 62.1152L82.3549 62.395V71.6113L81.9928 71.7594L82.3549 72.0392V85.1889L81.2358 87.0979V110.698L68.6127 87.6575C68.7937 87.5094 68.8925 87.3119 68.8925 87.0979C68.8925 86.7523 68.6292 86.4726 68.2671 86.3409C68.2836 86.2915 68.3 86.2421 68.3 86.1763C68.3 86.1105 68.2836 86.0447 68.2506 85.9953H68.3823C68.5963 85.9953 68.7773 85.8307 68.7773 85.6332C68.7773 85.4357 68.5963 85.2547 68.3823 85.2547H68.0038C68.0532 84.1849 68.7115 84.0862 68.9748 84.1027V84.2178C68.9748 84.3001 69.0406 84.366 69.1394 84.366C69.2381 84.366 69.2875 84.3001 69.2875 84.2178V83.5431C69.2875 83.4608 69.2217 83.395 69.1394 83.395C69.0571 83.395 68.9748 83.4608 68.9748 83.5431V83.6418C67.9544 83.6418 67.9873 82.8683 68.0038 82.6379H68.0367C68.0367 82.6379 68.1684 82.5721 68.1684 82.5063C68.1684 82.4404 68.1025 82.3746 68.0367 82.3746H67.5594V83.6254L67.7734 83.4114L68.333 83.971L67.7734 84.5305L67.5594 84.3166V85.2712C67.5594 85.2712 67.5594 85.2712 67.5594 85.2876V119.24C67.6911 119.158 67.7734 119.108 67.7734 119.108C67.7734 119.108 73.5006 122.169 73.5006 128.193V145.77H67.543V148.979C67.543 148.979 67.6911 148.979 67.7569 148.979C71.608 148.979 74.7185 151.25 74.7185 154.031V167H90.3533V137.837C90.3533 135.467 93.003 133.525 96.2781 133.525C99.5531 133.525 102.203 135.451 102.203 137.837V167H135.579V107.407L134.904 106.65H134.74ZM72.8752 117.1H70.851V107.966C70.851 107.226 71.3118 106.617 71.8713 106.617C72.4309 106.617 72.8917 107.226 72.8917 107.966V117.1H72.8752ZM84.5437 112.36H84.1488V110.55H84.5437V112.36ZM84.5437 104.214H84.1488V102.404H84.5437V104.214ZM84.5437 97.1536H84.1488V95.3597H84.5437V97.1536ZM84.5437 89.2704H84.1488V87.46H84.5437V89.2704ZM84.5437 78.3754H84.1488V76.565H84.5437V78.3754ZM84.5437 69.5212H84.1488V67.7273H84.5437V69.5212ZM84.5437 59.6136H84.1488V57.8033H84.5437V59.6136ZM84.5437 51.1708H84.1488V49.3605H84.5437V51.1708ZM96.9693 58.297C96.9693 53.5243 98.7632 51.0886 98.7632 51.0886C98.7632 51.0886 100.557 53.5078 100.557 58.297V72.2202H96.9693V58.297ZM90.0406 58.297C90.0406 53.5243 91.8345 51.0886 91.8345 51.0886C91.8345 51.0886 93.6284 53.5078 93.6284 58.297V72.2202H90.0406V58.297ZM92.4105 109.546H89.3659V103.161C89.3659 102.634 90.0571 102.223 90.8799 102.223C91.7028 102.223 92.3941 102.65 92.3941 103.161V109.546H92.4105ZM94.2209 100.527H92.1966V93.6481C92.1966 93.0886 92.6574 92.6277 93.217 92.6277C93.7765 92.6277 94.2373 93.0886 94.2373 93.6481V100.527H94.2209ZM97.3149 109.546H94.2702V103.161C94.2702 102.634 94.945 102.223 95.7844 102.223C96.6237 102.223 97.2984 102.65 97.2984 103.161V109.546H97.3149ZM97.5947 93.6646C97.5947 93.105 98.0555 92.6442 98.6151 92.6442C99.1746 92.6442 99.6354 93.105 99.6354 93.6646V100.544H97.6111V93.6646H97.5947ZM102.219 109.546H99.1746V103.161C99.1746 102.634 99.8494 102.223 100.689 102.223C101.528 102.223 102.203 102.65 102.203 103.161V109.546H102.219ZM105.972 112.36H105.577V110.55H105.972V112.36ZM105.972 104.214H105.577V102.404H105.972V104.214ZM105.972 97.1536H105.577V95.3597H105.972V97.1536ZM105.972 89.2704H105.577V87.46H105.972V89.2704ZM105.972 78.3754H105.577V76.565H105.972V78.3754ZM105.972 69.5212H105.577V67.7273H105.972V69.5212ZM105.972 59.6136H105.577V57.8033H105.972V59.6136ZM105.972 51.1708H105.577V49.3605H105.972V51.1708ZM118.924 152.468C116.686 152.468 114.875 150.658 114.875 148.403C114.875 146.148 116.686 144.354 118.924 144.354C121.162 144.354 122.972 146.165 122.972 148.403C122.972 150.641 121.162 152.468 118.924 152.468ZM129.325 111.34H128.65V108.526H129.325V111.34Z" fill="#37ABA3"/>
<path d="M67.0318 83.971L67.361 83.6419V82.3911H67.3281C67.3281 82.3911 67.1964 82.4569 67.1964 82.5228C67.1964 82.5886 67.2622 82.6544 67.3281 82.6544H67.361C67.3939 82.8848 67.4104 83.6419 66.39 83.6583V83.5596C66.39 83.4773 66.3242 83.4115 66.2419 83.4115C66.1596 83.4115 66.0938 83.4773 66.0938 83.5596V84.2344C66.0938 84.3167 66.1596 84.3825 66.2419 84.3825C66.3242 84.3825 66.39 84.3167 66.39 84.2344V84.1191C66.6533 84.1191 67.3116 84.2179 67.361 85.2547V84.3002L67.0318 83.971Z" fill="#F4D13E"/>
</svg>
