<svg width="452" height="148" viewBox="0 0 452 148" fill="none" xmlns="http://www.w3.org/2000/svg">
<path d="M136.794 132.203L137.097 129.374C137.686 128.01 136.508 127.522 136.508 127.522L136.12 125.046L132.752 124.676C131.169 121.712 129.569 111.607 129.569 111.607L129.67 110.26C129.67 108.896 130.765 107.667 130.765 107.667L128.576 106.673L128.273 104.955L124.214 103.726L120.947 91.6347L121.537 90.658L121.132 89.2939L121.924 87.071L120.139 86.33L119.852 83.7366L117.764 82.8777C117.276 79.5433 112.712 68.0751 112.712 68.0751L111.719 66.4752L112.308 64.2523C99.543 59.0149 83.41 58.5603 71.2344 59.2507V86.5658C71.2344 86.5658 71.2681 86.5658 71.2849 86.5658C72.9352 86.5658 74.2656 88.2498 74.2656 90.338V96.4848C74.2656 96.9058 74.2151 97.2931 74.1141 97.6636C73.1373 97.6804 72.1943 97.731 71.2344 97.7646V106.724C72.1606 107.498 72.7837 108.812 72.7837 110.311V117.367C72.7837 118.36 72.5142 119.27 72.0595 119.994C71.7901 119.994 71.5207 119.994 71.2344 119.994V147.208H139C138.107 142.897 136.811 132.169 136.811 132.169L136.794 132.203ZM106.683 92.2241C106.683 90.338 107.913 88.8056 109.445 88.8056C110.978 88.8056 112.19 90.338 112.19 92.2241V100.409C110.371 100.055 108.536 99.735 106.683 99.4487V92.2241ZM97.9937 71.1736H100.671V75.3669H97.9937V71.1736ZM97.7411 90.7759C97.7411 88.8729 99.0041 87.3236 100.57 87.3236C102.136 87.3236 103.399 88.8729 103.399 90.7759V98.994C101.53 98.7582 99.6441 98.5561 97.7411 98.3709V90.7759ZM79.3346 69.6917H82.0122V73.885H79.3346V69.6917ZM80.6145 142.072H73.6257V134.14C73.6257 130.957 75.1919 128.38 77.1285 128.38C79.0651 128.38 80.6313 130.957 80.6313 134.14V142.072H80.6145ZM83.1405 117.956C83.1405 118.714 82.9721 119.438 82.7027 120.061C80.6481 120.044 78.6104 120.028 76.5727 120.028C76.3033 119.404 76.1517 118.714 76.1517 117.956V110.883C76.1517 108.492 77.7179 106.555 79.6546 106.555C81.5912 106.555 83.1573 108.492 83.1573 110.883V117.956H83.1405ZM84.0331 97.4951C84.0331 97.4951 84.0331 97.5962 84.0331 97.6467C81.9449 97.6131 79.8566 97.5962 77.7852 97.613C77.7852 97.5794 77.7852 97.5288 77.7852 97.4951V89.917C77.7852 87.7782 79.183 86.0269 80.9007 86.0269C82.6184 86.0269 84.0331 87.7614 84.0331 89.917V97.4951ZM91.628 142.072H84.6224V134.712C84.6224 131.833 86.1886 129.492 88.1253 129.492C90.0619 129.492 91.628 131.833 91.628 134.712V142.072ZM93.4131 118.327C93.4131 119.034 93.2784 119.691 93.0426 120.28C90.9376 120.213 88.8494 120.162 86.7443 120.129C86.5423 119.573 86.4244 118.967 86.4244 118.327V111.254C86.4244 108.862 87.9905 106.926 89.9272 106.926C91.8638 106.926 93.43 108.862 93.43 111.254V118.327H93.4131ZM94.1541 97.0573C94.1541 97.4109 94.1204 97.7478 94.0362 98.0846C92.0996 97.9499 90.1798 97.8488 88.26 97.7814C88.2263 97.5456 88.2094 97.3099 88.2094 97.0741V90.9275C88.2094 88.8393 89.5399 87.1551 91.1902 87.1551C92.8406 87.1551 94.1709 88.8393 94.1709 90.9275V97.0741L94.1541 97.0573ZM102.187 142.072H95.1982V134.696C95.1982 131.513 96.7644 128.953 98.701 128.953C100.638 128.953 102.204 131.53 102.204 134.696V142.072H102.187ZM103.82 118.882C103.82 119.539 103.703 120.162 103.501 120.718C101.412 120.6 99.3072 120.499 97.2022 120.415C97.0506 119.926 96.9833 119.421 96.9833 118.866V111.809C96.9833 109.418 98.5158 107.481 100.402 107.481C102.288 107.481 103.82 109.418 103.82 111.809V118.866V118.882ZM112.156 142.072H105.168V134.325C105.168 131.142 106.734 128.566 108.654 128.566C110.573 128.566 112.156 131.142 112.156 134.325V142.072ZM113.352 119.623C113.352 120.246 113.251 120.836 113.066 121.375C110.961 121.206 108.822 121.038 106.667 120.903C106.565 120.499 106.515 120.061 106.515 119.623V112.55C106.515 110.159 108.047 108.222 109.933 108.222C111.82 108.222 113.352 110.159 113.352 112.55V119.623ZM114.396 93.9587C114.396 92.0221 115.592 90.4727 117.074 90.4727C118.556 90.4727 119.751 92.0389 119.751 93.9587V102.177C118 101.705 116.215 101.267 114.396 100.863V93.9587ZM114.885 142.072L114.447 135.554C114.245 132.523 115.306 129.946 116.804 129.778C118.32 129.627 119.701 131.951 119.903 134.982L120.375 142.072H114.868H114.885ZM120.964 122.149C119.112 121.947 117.209 121.745 115.289 121.577C115.238 121.341 115.221 121.072 115.205 120.802L114.817 113.763C114.683 111.372 115.912 109.334 117.545 109.199C119.196 109.064 120.627 110.883 120.745 113.275L121.132 120.314C121.166 120.971 121.099 121.594 120.947 122.166L120.964 122.149ZM122.783 142.072L122.345 135.639C122.143 132.675 122.985 130.149 124.197 130.031C125.427 129.896 126.572 132.203 126.774 135.184L127.245 142.072H122.783ZM127.229 122.958C125.78 122.739 124.315 122.554 122.816 122.368C122.816 122.301 122.816 122.234 122.816 122.166L122.463 115.531C122.345 113.291 123.237 111.388 124.467 111.271C125.696 111.17 126.791 112.904 126.925 115.144L127.279 121.779C127.296 122.183 127.279 122.57 127.245 122.941L127.229 122.958ZM128.593 142.072L128.054 136.093C127.784 133.129 128.559 130.586 129.788 130.418C131.001 130.25 132.213 132.523 132.483 135.487L133.072 142.072H128.593Z" fill="#39373D"/>
<path d="M66.5194 120.061C66.0479 119.32 65.7617 118.394 65.7617 117.384V110.327C65.7617 107.936 67.3278 105.999 69.2644 105.999C69.9886 105.999 70.6622 106.269 71.2179 106.74V97.7814C70.3085 97.815 69.3992 97.832 68.5066 97.8825C68.3719 97.4615 68.3045 96.9899 68.3045 96.5016V90.3548C68.3045 88.3003 69.6181 86.6331 71.2348 86.5826V59.2675C60.8106 59.8737 53.2829 61.3052 53.2829 61.3052L53.384 63.0398L52.6935 63.6629L52.4914 65.7511L50.1169 66.1215L42.5724 67.974L39.7938 64.8922C1.70088 79.4423 8.18444 93.7397 8.18444 93.7397L7.34243 99.7854C4.36168 103.558 5.80995 107.683 5.80995 107.683L4.91741 113.662C1.49882 115.817 3.28389 119.943 3.28389 119.943L1.54934 129.492C-0.0336581 130.351 1.29674 132.085 1.29674 132.085L0 147.258H71.2348V120.044C69.6518 120.044 68.0856 120.061 66.5363 120.078L66.5194 120.061ZM60.9116 70.0453H63.5892V74.2386H60.9116V70.0453ZM58.9413 90.3379C58.9413 88.2497 60.2717 86.5657 61.9221 86.5657C63.5724 86.5657 64.9028 88.2497 64.9028 90.3379V96.4847C64.9028 97.0573 64.8018 97.5962 64.6165 98.0677C62.8314 98.1688 61.0969 98.3034 59.3791 98.4382C59.1097 97.8656 58.9581 97.192 58.9581 96.4847V90.3379H58.9413ZM49.4097 91.2641C49.4097 89.1759 50.74 87.4919 52.3904 87.4919C54.0408 87.4919 55.3711 89.1759 55.3711 91.2641V97.4109C55.3711 97.8993 55.3038 98.3708 55.169 98.8087C53.3334 98.9771 51.5652 99.1624 49.8475 99.3476C49.578 98.775 49.4265 98.1182 49.4265 97.4109V91.2641H49.4097ZM43.6671 73.6155L46.2437 73.3628V77.5562L43.6671 77.8087V73.6155ZM41.0905 92.9146C41.0905 90.8264 42.4209 89.1423 44.0713 89.1423C45.7216 89.1423 47.052 90.8264 47.052 92.9146V99.0612C47.052 99.2633 47.0352 99.4655 47.0183 99.6676C44.9806 99.9033 43.0777 100.156 41.2926 100.409C41.1747 99.9875 41.0905 99.5496 41.0905 99.0781V92.9314V92.9146ZM40.619 106.926C42.5388 107.111 43.987 109.132 43.8355 111.456L43.3977 118.31C43.3303 119.236 43.044 120.061 42.5724 120.701C40.7705 120.769 39.0528 120.853 37.4025 120.92C36.712 120.078 36.3247 118.899 36.4089 117.636L36.8467 110.782C36.9983 108.458 38.6823 106.724 40.6021 106.909L40.619 106.926ZM33.2934 93.3356C33.445 91.2642 34.8932 89.7317 36.5268 89.9001C38.1603 90.0853 39.3728 91.9042 39.2212 93.9755L38.7834 100.105C38.7834 100.324 38.7329 100.543 38.6992 100.762C36.6278 101.065 34.7922 101.352 33.2261 101.621C32.9398 100.981 32.805 100.24 32.8556 99.4486L33.2934 93.3187V93.3356ZM14.0112 90.0685L13.0681 90.6916L13.506 87.1719L14.3985 86.6163L13.9943 90.0685H14.0112ZM21.101 85.5048L20.0569 85.8079L20.259 82.3556L21.4041 81.7325L21.1178 85.4879L21.101 85.5048ZM30.3295 77.6066L32.3167 76.7983L31.8283 80.9916L29.9422 81.5473L30.3464 77.5898L30.3295 77.6066ZM39.3391 134.19L38.6823 142.038H31.6599C31.6599 142.038 31.6599 141.886 31.6767 141.819L32.3672 133.483C32.6029 130.654 34.3544 128.532 36.2742 128.734C38.194 128.936 39.5749 131.378 39.3223 134.207L39.3391 134.19ZM48.8371 142.021L41.8483 142.038V134.005C41.8483 131.294 43.4145 129.088 45.3511 129.088C47.2878 129.088 48.8539 131.277 48.8539 134.005V142.021H48.8371ZM46.5805 120.55C46.1258 119.825 45.8563 118.916 45.8563 117.922V110.849C45.8563 108.458 47.4225 106.522 49.3591 106.522C51.2957 106.522 52.8619 108.458 52.8619 110.849V117.922C52.8619 118.832 52.6261 119.674 52.2556 120.364C50.3022 120.432 48.4161 120.499 46.5973 120.566L46.5805 120.55ZM59.5476 142.038H52.5588V133.365C52.5588 130.182 54.1249 127.606 56.0616 127.606C57.9982 127.606 59.5644 130.182 59.5644 133.365V142.038H59.5476ZM62.6798 117.367C62.6798 118.411 62.3767 119.371 61.8883 120.129C60.0864 120.162 58.3182 120.196 56.5668 120.246C56.0111 119.472 55.6911 118.478 55.6911 117.367V110.311C55.6911 107.919 57.2573 105.983 59.1939 105.983C61.1306 105.983 62.6967 107.919 62.6967 110.311V117.367H62.6798ZM63.2693 142.038V133.18C63.2693 129.997 64.8354 127.42 66.7721 127.42C68.7087 127.42 70.2749 129.997 70.2749 133.18V142.038H63.2861H63.2693Z" fill="#3A383E"/>
<path d="M221.619 143.019C221.93 139.365 219.177 137.825 219.177 137.825C218.866 129.583 210.935 124.389 210.935 124.389C209.691 123.068 208.432 122.601 207.265 122.632L204.544 70.351H206.301C206.799 70.351 207.219 69.9311 207.219 69.4335C207.219 68.9359 206.814 68.516 206.301 68.516H204.451L204.326 66.2612C207.701 65.6702 210.267 62.7468 210.267 59.2012C210.267 56.1533 208.354 53.5408 205.664 52.5144C205.679 52.4056 205.695 52.2967 205.695 52.1879V46.3875C205.695 45.6877 205.415 45.0501 204.979 44.5836L204.093 22.9372L203.144 0V146.969H225.304C224.993 143.299 221.634 143.003 221.634 143.003L221.619 143.019Z" fill="#DCBD39"/>
<path d="M184.67 143.019C184.359 139.365 187.111 137.825 187.111 137.825C187.422 129.583 195.353 124.389 195.353 124.389C196.597 123.068 197.857 122.601 199.023 122.648L201.745 70.3666H199.987C199.474 70.3666 199.07 69.9623 199.07 69.4491C199.07 68.9359 199.474 68.5316 199.987 68.5316H201.838L201.962 66.2768C198.588 65.6859 196.022 62.7623 196.022 59.2168C196.022 56.1689 197.935 53.5564 200.625 52.53C200.609 52.4212 200.594 52.3123 200.594 52.2035V46.4031C200.594 45.7033 200.874 45.0657 201.325 44.5992L202.211 22.9683L203.144 0.0311279V147H181C181.311 143.33 184.67 143.035 184.67 143.035V143.019Z" fill="#F4D13E"/>
<path d="M154.746 25.2385L154.23 34.2535C154.23 34.2535 152.645 34.5669 151.815 35.5256L144.68 29.0362L150.193 36.3921C150.193 36.3921 148.755 38.0144 148.828 38.4937H142.874C142.874 38.4937 141.638 29.4234 140.422 26.1049C140.33 25.3491 140.274 24.6117 140.2 23.8742C140.053 22.2703 139.979 20.9982 140.219 19.4128C140.495 17.6798 140.164 15.9284 139.445 14.343C139.445 14.343 139.002 13.3843 139.979 12.776C139.979 12.776 145.584 9.88156 139.537 4.18494C139.537 4.18494 140.071 3.96368 139.813 3.06033L140.164 2.30446L139.463 2.43352L139.205 1.95418L139.592 1.0877L138.136 1.43798C138.136 1.43798 138.965 0 138.744 0L136.679 0.884933L136.495 0.368736C136.495 0.368736 134.983 0.977087 134.633 1.49329L134.32 2.19385C134.32 2.19385 134.098 3.39218 134.098 3.41061C134.098 3.41061 131.904 3.85306 131.112 6.39718C131.112 6.39718 129.176 10.8586 133.213 12.9603C133.545 13.1446 133.176 15.2463 133.195 15.6703C133.25 16.924 134.135 17.9379 134.264 19.0994C134.264 19.0994 134.522 21.2932 134.836 22.7865C135.02 23.6899 134.78 24.8144 134.799 25.7178C134.817 27.7642 134.578 29.8105 134.873 31.82C134.983 32.6312 135.112 33.4608 135.278 34.2719C135.518 35.4702 136.108 36.558 136.311 37.7931C136.44 38.5859 136.993 40.5032 136.679 41.2038C136.679 41.2038 132.863 46.3289 132.863 49.4814C132.863 49.4814 133.785 53.1685 135.887 53.1685C135.887 53.1685 134.965 59.7501 137.195 59.492C137.195 59.492 137.195 60.9299 137.454 61.5936C137.454 61.5936 135.739 66.4607 137.841 66.9769C137.841 66.9769 133.25 82.8868 137.454 84.1958C137.454 84.1958 135.352 89.4499 136.808 91.9572C136.808 91.9572 138.504 99.7186 138.504 100.364V103.793C138.504 103.793 137.325 109.969 137.601 112.605C137.601 112.605 135.757 126.008 137.343 131.004C137.343 131.004 138.246 132.718 136.292 135.336L129.84 135.594L126.153 137.973L126.023 142.047L123 143.614L123.129 144.941L123.922 145.734V146.011L123.793 147.32L155.078 147.393V27.672L154.728 25.2569L154.746 25.2385ZM148.312 46.9557L149.013 47.14C149.013 47.14 148.921 47.14 149.713 48.449L147.962 48.5412C147.962 48.5412 146.911 47.2322 146.026 46.9557C145.731 46.8635 145.86 46.7898 145.86 46.7898C145.86 46.7898 145.86 46.3473 145.602 44.5959H147.501C147.685 44.5959 147.907 44.5222 147.999 44.725C148.091 44.9462 148.257 45.3333 148.589 45.9786H148.146L148.331 46.9373L148.312 46.9557ZM148.128 41.001C147.851 42.8446 147.962 43.0842 148.017 43.1026L145.233 43.1948C145.233 42.3099 144.275 40.577 144.275 40.577L148.128 41.0194V41.001Z" fill="#40BBB2"/>
<path d="M188.999 65.889L187.948 64.7091L180.186 64.8382L175.725 70.627C175.725 70.627 174.803 70.0924 173.494 70.0924L170.729 66.1471C170.729 66.1471 170.858 57.9986 163.631 55.2332C162.912 54.9567 163.115 52.2466 162.359 52.0807C162.488 52.0991 162.783 50.4768 162.802 50.3293C162.894 49.3338 162.525 48.5226 162.193 47.6193C162.193 47.6193 161.806 46.5684 161.972 45.6467L162.58 45.3886L162.488 45.0383L162.267 44.9461C162.267 44.9461 162.396 43.4897 162.304 43.1947L171.116 42.4942L162.267 41.7567C162.267 41.7567 162.23 40.5215 161.917 39.6366L169.678 35.6545L161.345 38.0696C161.345 38.0696 160.681 36.8897 159.981 36.2444L164.793 28.778L158.432 35.2674C158.432 35.2674 156.552 34.5484 156.073 34.4746L155.059 27.635V147.356L182.141 147.412V142.287L179.246 140.719L178.859 136.387L176.499 135.336C176.499 135.336 175.707 129.824 175.19 125.344L176.905 123.113L176.241 115.61L177.292 113.914L176.886 110.503L177.937 109.047C177.937 109.047 177.403 95.6442 176.499 93.8006C176.499 93.8006 179.265 94.9805 180.315 88.6755C180.315 88.6755 181.108 83.1633 180.721 82.3706C180.721 82.3706 184.537 83.4214 187.948 71.1985L187.155 69.355L188.999 65.9444V65.889Z" fill="#37ABA3"/>
<path d="M366.349 72.7806L365.823 70.2613L365.546 68.9186V65.8178H365.338V68.9186L364.536 72.7806L364.231 74.2064H363.304L362.708 73.4174L362.182 74.2064H360.909L355.579 61.762L355.358 61.4159V59.298H355.136V61.0975L353.531 58.6889V55.6158H353.309V58.6335L351.8 60.1424V58.3428H351.579V60.3639L350.831 61.1252L348.035 66.1362L347.398 63.1185V60.0316H347.191V63.1324L346.388 66.9944L345.682 70.3859L345.654 70.4412L343.495 70.2336L342.637 68.9324L341.543 71.258L341.1 69.1677L340.283 65.3056V62.2049H340.076V65.3056L339.273 69.1677L338.428 73.2098H337.778V88.6166C334.054 96.839 329.874 103.553 325.998 108.827H325.901V108.965C323.409 112.329 321.056 115.097 319.035 117.285C315.63 120.953 312.709 123.486 310.882 124.939V116.468L309.581 115.748V113.727L306.923 113.312V110.488H306.784V113.284L294.035 111.291V108.384H293.897V111.263L291.599 114.862H288V142.367H310.328V133.729L324.101 132.373V132.857L319.132 137.605L318.703 146.686H365.892V98.3202L366.875 95.2748V90.3053L367.18 90.25V76.4351L366.418 72.8222L366.349 72.7806ZM322.745 113.824C323.714 112.661 324.711 111.401 325.735 110.045C325.569 110.585 325.029 112.315 324.42 114.115C323.714 113.99 323.077 113.907 322.745 113.879V113.824ZM324.503 114.239C324.89 114.308 325.278 114.405 325.652 114.516C324.918 115.485 324.143 116.426 323.354 117.354C323.714 116.454 324.115 115.333 324.489 114.239H324.503ZM322.745 113.99C323.077 114.018 323.7 114.087 324.378 114.211C323.963 115.457 323.506 116.717 323.105 117.644C322.98 117.783 322.856 117.921 322.745 118.074V113.99ZM322.302 114.35C322.08 115 321.637 116.343 321.111 117.755C320.488 117.548 319.935 117.409 319.644 117.354C320.475 116.454 321.361 115.443 322.288 114.35H322.302ZM321.181 117.907C321.596 118.046 322.039 118.212 322.454 118.392C321.596 119.361 320.738 120.275 319.907 121.119C320.295 120.247 320.751 119.056 321.181 117.907ZM319.423 117.824C319.478 117.658 319.519 117.561 319.519 117.561H319.478C319.478 117.561 319.533 117.492 319.561 117.464C319.824 117.534 320.405 117.672 321.07 117.88C320.599 119.167 320.087 120.496 319.672 121.368C319.589 121.451 319.506 121.534 319.423 121.617V117.838V117.824ZM316.377 124.441C316.377 124.441 316.308 124.496 316.28 124.524C315.92 124.303 315.519 124.095 315.159 123.915C315.602 122.891 316.031 121.88 316.308 121.202L316.391 124.441H316.377ZM316.183 124.607C315.381 125.299 314.619 125.922 313.913 126.476C314.287 125.812 314.702 124.912 315.104 124.012C315.464 124.192 315.837 124.386 316.183 124.607ZM316.294 120.814V120.911C316.031 121.576 315.561 122.725 315.048 123.874C314.453 123.583 313.927 123.375 313.65 123.264C314.453 122.559 315.339 121.742 316.294 120.814ZM313.429 123.472L313.512 126.808C313.512 126.808 313.47 126.836 313.457 126.85C313 126.531 312.515 126.255 312.086 126.019C312.46 125.189 312.792 124.386 313.014 123.86C313.152 123.735 313.29 123.611 313.443 123.486L313.429 123.472ZM312.834 123.984C312.626 124.51 312.321 125.216 311.989 125.964C311.574 125.742 311.228 125.576 311.02 125.479C311.532 125.078 312.141 124.58 312.82 123.984H312.834ZM310.854 125.618C310.854 125.618 310.909 125.576 310.923 125.562C311.117 125.645 311.491 125.839 311.948 126.075C311.574 126.891 311.186 127.736 310.854 128.359V125.632V125.618ZM310.854 128.552C311.214 127.929 311.643 127.016 312.045 126.13C312.46 126.365 312.93 126.642 313.373 126.947C312.377 127.708 311.532 128.289 310.868 128.732V128.566L310.854 128.552ZM310.854 129.674V129.411C311.532 128.968 312.446 128.345 313.526 127.528L313.567 129.48L310.84 129.674H310.854ZM313.623 123.375C313.899 123.486 314.425 123.694 315.021 123.984C314.578 124.981 314.093 125.992 313.706 126.67L313.623 123.375ZM313.761 129.452L313.706 127.376C313.706 127.376 313.789 127.307 313.83 127.279C313.83 127.279 313.858 127.293 313.858 127.307L313.927 127.223C313.927 127.223 313.927 127.223 313.913 127.223C314.675 126.642 315.505 125.978 316.391 125.216L316.488 129.272L313.747 129.466L313.761 129.452ZM316.488 120.801C316.792 120.87 317.374 121.022 318.011 121.23C317.582 122.296 317.111 123.375 316.723 124.15C316.668 124.192 316.613 124.247 316.557 124.289L316.474 120.801H316.488ZM319.243 129.051L316.682 129.231L316.585 125.036C317.429 124.303 318.315 123.5 319.243 122.6V129.051ZM319.243 121.797C318.454 122.572 317.692 123.292 316.959 123.943C317.319 123.195 317.734 122.226 318.121 121.257C318.495 121.382 318.883 121.52 319.243 121.686V121.797ZM319.243 121.562C318.897 121.41 318.523 121.271 318.163 121.147C318.592 120.067 318.994 119.015 319.243 118.337V121.562ZM319.243 118.004C319.007 118.655 318.551 119.859 318.052 121.105C317.402 120.897 316.82 120.745 316.516 120.676C316.543 120.621 316.557 120.579 316.571 120.537C317.415 119.707 318.315 118.793 319.243 117.797V118.004ZM322.551 128.802L319.423 129.023V122.406C320.433 121.423 321.485 120.344 322.551 119.153V128.802ZM322.551 118.295C322.551 118.295 322.551 118.295 322.537 118.309C322.122 118.115 321.651 117.949 321.222 117.797C321.831 116.136 322.343 114.558 322.496 114.115C322.51 114.087 322.537 114.073 322.551 114.045V118.281V118.295ZM325.859 126.559H324.032V128.691L322.745 128.788V118.946C323.063 118.586 323.395 118.212 323.714 117.838C324.447 116.98 325.167 116.08 325.859 115.18V126.559ZM325.859 114.225C325.859 114.225 325.763 114.35 325.721 114.419C325.333 114.308 324.932 114.211 324.531 114.128C325.167 112.26 325.721 110.474 325.859 110.017V114.225ZM325.859 109.893H325.846C325.846 109.893 325.846 109.865 325.859 109.865V109.893ZM329.5 104.688C330.607 103.013 331.729 101.227 332.836 99.3307C332.573 100.23 332.144 101.615 331.687 103.068C330.774 103.733 329.943 104.411 329.514 104.771V104.702L329.5 104.688ZM331.812 103.11C332.282 102.777 332.767 102.445 333.238 102.155C332.31 104.079 331.286 105.961 330.206 107.775C330.718 106.473 331.3 104.743 331.826 103.11H331.812ZM329.5 104.909C329.901 104.577 330.704 103.913 331.618 103.248C330.981 105.228 330.261 107.332 329.708 108.578C329.638 108.688 329.569 108.799 329.514 108.896V104.895L329.5 104.909ZM326.039 109.74C326.441 109.657 327.202 109.533 328.019 109.45C327.645 110.64 327.244 111.858 326.87 112.841C326.593 113.229 326.316 113.602 326.039 113.976V109.74ZM328.143 109.436C328.503 109.408 328.849 109.38 329.209 109.38C328.545 110.432 327.853 111.457 327.133 112.467C327.465 111.554 327.811 110.474 328.143 109.436ZM329.306 126.559H326.039V114.931C327.188 113.436 328.282 111.886 329.306 110.294V126.559ZM329.306 109.228C329.306 109.228 329.292 109.256 329.279 109.27C328.919 109.27 328.545 109.284 328.185 109.325C328.656 107.816 329.085 106.377 329.306 105.588V109.228ZM329.306 105.158C329.14 105.767 328.628 107.498 328.06 109.339C327.23 109.422 326.468 109.56 326.039 109.643C327.078 108.231 328.143 106.736 329.209 105.131V105.158C329.209 105.158 329.251 105.131 329.306 105.089V105.158ZM333.334 126.559H329.486V110.003C330.884 107.83 332.172 105.56 333.334 103.234V126.559ZM333.334 101.919C333.334 101.919 333.334 101.947 333.321 101.961C332.836 102.251 332.338 102.584 331.867 102.93C332.421 101.199 332.891 99.6075 333.127 98.8185C333.196 98.6939 333.265 98.5693 333.348 98.4448V101.919H333.334ZM337.722 126.559H333.514V102.847C333.805 102.265 334.082 101.67 334.359 101.075C335.646 98.2925 336.754 95.3994 337.722 92.4233V126.545V126.559ZM337.722 90.4853C336.657 94.0705 335.369 97.5173 333.847 100.826C333.736 101.061 333.625 101.296 333.514 101.518V98.1126C334.94 95.5794 336.352 92.8662 337.722 89.9454V90.4853Z" fill="#F36C68"/>
<path d="M451.634 56.4742V54.7439H450.679L449.586 49.4837L448.478 44.1958V40.8182H448.188V44.1958L447.08 49.4837L445.987 54.7439H445.018V56.3219H444.948L439.619 44.6526L438.47 46.3829L434.774 35.295V32.222H434.483V34.6167L432.559 30.2979V28H432.269V30.201L431.023 32.1666V30.5055H430.732V32.6096L430.4 33.1356L429.818 34.5752L424.351 45.8154L422.053 43.2268L418.994 50.425H418.205L417.042 44.8879L415.934 39.6001V35.3643H415.644V39.6001L414.536 44.8879L413.374 50.425H412.474V52.1553H413.678V64.2399L395.766 68.9325V67.7836L392.527 68.6418V69.7769L387.626 71.0642L378.116 73.5559V71.8533C378.158 71.7702 378.186 71.6872 378.186 71.5903V71.2996C378.186 70.995 377.95 70.7597 377.646 70.7597C377.341 70.7597 377.106 71.0089 377.106 71.2996V71.5903C377.106 71.6872 377.134 71.7841 377.175 71.8533V72.2685L375.943 72.6285C375.943 72.6285 375.957 72.5316 375.957 72.4762L375.916 72.1855C375.888 71.9363 375.583 71.7702 375.223 71.7564V71.1473H375.583V70.4275H375.223V69.7077H374.933V70.4275H374.504V71.1473H374.933V71.7841C374.504 71.8671 374.199 72.144 374.241 72.4208L374.282 72.7115C374.296 72.8499 374.407 72.9745 374.545 73.0437L373.216 73.4313V73.2929C373.258 73.2098 373.285 73.1268 373.285 73.0299V72.7392C373.285 72.4347 373.05 72.1993 372.746 72.1993C372.441 72.1993 372.206 72.4347 372.206 72.7392V73.0299C372.206 73.1268 372.233 73.2098 372.275 73.2929V75.0786L367.112 76.4352V76.3798V90.1947L387.626 86.208L413.678 81.1416V125.479H401.164V126.559H365.949H365.824V146.659H377.397V138.879L375.237 137.578V133.688C375.237 133.688 379.999 131.418 387.626 131.487C391.267 131.515 395.544 132.082 400.292 133.688V136.72L397.704 138.228V146.88H451.288V125.493H451.122V56.5019H451.634V56.4742Z" fill="#DB625E"/>
<path d="M259.48 0.277832L259.536 0.541848L259.578 0.555757V0.277832H259.48Z" fill="#F36C68"/>
<path d="M259.52 0L259.575 0.236198V0.194513L259.52 0Z" fill="#F36C68"/>
<path d="M303.375 144.165L303.792 144.012V143.776L304 143.595H299.123V122.252L299.387 121.988H299.178V121.446L299.415 121.237L299.526 121.126V120.806L299.776 120.654H299.289V120.056H299.554V119.598H299.262C299.262 119.598 299.567 119.181 299.415 118.694L301.388 116.374C301.388 116.374 301.777 116.013 299.54 116.013V115.651L299.248 115.373V113.859L299.456 113.442L299.567 113.289V113.067L299.123 112.942H299.026V112.539H298.984C298.984 112.539 299.012 112.455 299.012 112.414C299.012 112.316 298.97 112.247 298.9 112.191C299.012 112.191 299.081 112.108 299.081 112.011C299.081 111.955 299.067 111.913 299.026 111.886L298.595 109.523C298.595 109.523 298.65 109.412 298.65 109.357C298.65 109.204 298.525 109.079 298.372 109.079C298.22 109.079 298.081 109.204 298.081 109.357C298.081 109.412 298.108 109.468 298.136 109.523L298.039 110.065L297.872 109.19C297.872 109.19 297.928 109.079 297.928 109.023C297.928 108.856 297.789 108.731 297.636 108.731C297.469 108.731 297.33 108.856 297.33 109.023C297.33 109.093 297.358 109.148 297.386 109.19L296.927 111.691C296.927 111.691 296.872 111.774 296.872 111.83C296.872 111.941 296.955 112.025 297.066 112.025C296.997 112.08 296.941 112.164 296.941 112.261C296.941 112.302 296.941 112.344 296.969 112.386H296.927V112.956H296.636V112.289H296.594C296.594 112.289 296.622 112.205 296.622 112.164C296.622 112.066 296.566 111.983 296.497 111.927C296.608 111.927 296.691 111.844 296.691 111.733C296.691 111.677 296.663 111.636 296.636 111.594L296.177 109.093C296.177 109.093 296.233 108.981 296.233 108.926C296.233 108.759 296.094 108.634 295.941 108.634C295.788 108.634 295.635 108.773 295.635 108.926C295.635 108.995 295.663 109.051 295.691 109.093L295.232 111.594C295.232 111.594 295.176 111.677 295.176 111.733C295.176 111.844 295.26 111.927 295.371 111.927C295.302 111.983 295.246 112.066 295.246 112.164C295.246 112.205 295.26 112.247 295.274 112.289H295.232V112.956H295.093V98.9629C295.232 98.9212 295.329 98.7962 295.329 98.6433C295.329 98.4627 295.176 98.3098 294.996 98.3098C294.815 98.3098 294.662 98.4627 294.662 98.6433C294.662 98.7962 294.76 98.9212 294.899 98.9629V113.192H273.736C273.736 113.192 271.707 113.442 271.707 110.704V60.1114L272.11 59.2082V58.2494L272.055 57.9437V56.179L271.957 55.8316V52.3716L272.152 51.5657L271.749 51.1628H271.054L269.929 49.2174C270.095 49.1896 270.22 49.0368 270.22 48.8561C270.22 48.6755 270.081 48.5226 269.901 48.4948V46.9802H269.803V48.4948C269.623 48.5226 269.484 48.6755 269.484 48.8561C269.484 49.0368 269.609 49.1896 269.776 49.2174L268.65 51.1628H268.525V46.5495L268.97 45.6463V44.5485L270.026 42.6449H268.664V41.9918H268.414V40.2826L268.664 39.574H268.358L268.303 38.1706H268.192L267.928 35.8917L267.83 36.6976V36.5865L267.914 35.7805L267.886 35.586C267.886 35.586 267.886 35.586 267.914 35.5721C267.886 35.5721 267.872 35.5443 267.844 35.5165V35.4887C267.858 35.5165 267.9 35.5443 267.928 35.5582C267.983 35.5165 268.039 35.447 268.039 35.3776C268.039 35.2525 267.928 35.1413 267.803 35.1413C267.677 35.1413 267.58 35.2386 267.566 35.3637C267.525 35.2942 267.455 35.2386 267.358 35.2386C267.233 35.2386 267.122 35.3498 267.122 35.4748C267.122 35.5721 267.177 35.6555 267.261 35.6972L266.969 38.1706H266.885L266.427 39.3794H264.815V37.1701L265.218 35.9612L264.468 35.0024V28.1242L264.523 26.5679L265.385 25.7202V25.3173L265.579 25.1228L264.773 24.1223L264.426 23.7749V22.5243L264.773 21.9268L264.176 21.2737V21.1348C264.343 21.0514 264.468 20.8847 264.468 20.704C264.468 20.4678 264.259 20.0787 263.995 19.9953V19.5924C263.995 19.5924 264.079 19.509 264.079 19.4534C264.079 19.3562 263.995 19.2867 263.884 19.2867C263.773 19.2867 263.689 19.3562 263.689 19.4534C263.689 19.509 263.717 19.5646 263.773 19.5924V19.9953C263.509 20.0787 263.3 20.4678 263.3 20.704C263.3 20.8708 263.398 21.0097 263.537 21.107V21.2737H263.467V21.5238H262.759V19.5646C262.759 19.5646 263.106 18.8559 263.064 18.0639V17.5637L262.759 17.258C262.759 17.258 262.842 14.465 260.771 13.131L260.535 9.55993V9.53211V9.07359C260.535 9.07359 260.521 9.0458 260.494 8.99022V8.9624L260.077 8.14258H259.66C259.66 8.14258 259.688 8.07312 259.688 8.03143C259.688 7.92027 259.604 7.82298 259.493 7.79519V7.60068C259.604 7.57289 259.688 7.4756 259.688 7.36444C259.688 7.25327 259.604 7.15603 259.493 7.12824V6.48902C259.688 6.46123 259.854 6.29451 259.854 6.08608H260.716C260.716 6.08608 260.771 6.05828 260.771 6.03049C260.771 6.0027 260.744 5.9749 260.716 5.9749H259.854C259.827 5.80815 259.688 5.68312 259.535 5.65533V2.11198C259.632 2.11198 259.743 2.11198 259.882 2.07029C259.882 2.07029 259.979 1.80629 260.299 1.90356L260.507 1.93133L260.382 1.61176C260.382 1.61176 260.73 1.38942 260.827 1.25047C260.827 1.25047 260.799 1.27827 260.744 1.30606L259.785 0.48624V0.361145L259.465 0.347278L259.438 0.25V0.347278V0.611294H259.521L259.632 1.08373C259.632 1.08373 259.618 1.08373 259.604 1.08373L259.438 1.15319V10.4909C259.576 10.4909 259.688 10.741 259.688 11.0328V12.3807H259.438V46.7301H260.507V49.7176H259.438V54.0808H260.507V57.0683H259.438V61.7094H260.507V64.28H259.438V67.2536H260.507V69.8243H259.438V73.2842H260.507V75.8549H259.438V79.5232H260.507V82.08H259.438V85.0675H260.507V87.6243H259.438V91.0842H260.507V93.6549H259.438V97.2954H260.507V99.8661H259.438V102.84H260.507V105.41H259.438V108.87H260.507V111.441H259.438V114.331H260.507V116.888H259.438V120.473C260.368 120.473 261.133 121.39 261.133 122.516V126.754H259.438V133.146C260.938 133.146 262.161 134.785 262.161 136.786V144.359H259.438V147.249H303.736V146.277L303.236 145.638V144.22L303.375 144.165ZM259.91 0.444556L260.799 1.29215C260.702 1.33384 260.563 1.36162 260.424 1.31993C260.424 1.31993 260.396 1.29217 260.327 1.26438L259.91 0.569609V0.472331V0.444556ZM259.688 0.583476L259.91 0.62516V0.5557L260.23 1.22269C260.188 1.22269 260.132 1.22269 260.077 1.22269L259.966 1.25047C259.966 1.25047 259.966 1.05593 259.827 1.02814L259.702 0.583476H259.688ZM260.424 12.3251H260.104V10.9772C260.104 10.6715 260.174 10.4353 260.257 10.4353C260.341 10.4353 260.424 10.6854 260.424 10.9772V12.3251ZM263.495 33.8074L262.064 33.46V30.2502C262.064 29.5276 262.383 29.0551 262.786 29.1941C263.175 29.333 263.509 30 263.509 30.6948V33.8074H263.495ZM267.761 35.5721C267.761 35.5721 267.691 35.5304 267.677 35.5026V35.4748C267.705 35.5165 267.733 35.5582 267.789 35.5721L267.664 36.6837V36.5726L267.775 35.5721H267.761ZM264.718 46.6745H266.663V49.662H264.718V46.6745ZM264.718 54.0252H266.663V57.0127H264.718V54.0252ZM264.718 61.6538H266.663V64.2244H264.718V61.6538ZM264.718 67.198H266.663V69.7687H264.718V67.198ZM264.718 73.2286H266.663V75.7993H264.718V73.2286ZM264.718 79.4677H266.663V82.0244H264.718V79.4677ZM264.718 85.0119H266.663V87.5687H264.718V85.0119ZM264.718 91.0425H266.663V93.6132H264.718V91.0425ZM264.718 97.2399H266.663V99.8105H264.718V97.2399ZM264.718 102.784H266.663V105.355H264.718V102.784ZM264.718 108.815H266.663V111.385H264.718V108.815ZM264.718 114.276H266.663V116.832H264.718V114.276ZM266.01 123.447C265.579 123.447 265.218 123.099 265.218 122.655C265.218 122.21 265.565 121.863 266.01 121.863C266.08 121.501 266.399 121.223 266.788 121.223C267.177 121.223 267.497 121.501 267.566 121.863C267.997 121.863 268.358 122.224 268.358 122.655C268.358 123.085 268.011 123.447 267.566 123.447C267.497 123.808 267.177 124.086 266.788 124.086C266.399 124.086 266.093 123.808 266.01 123.447ZM268.886 142.872H266.802V140.913H268.886V142.872ZM270.387 56.0956H269.47V54.1224C269.47 53.6778 269.678 53.3165 269.929 53.3165C270.179 53.3165 270.387 53.6778 270.387 54.1224V56.0956ZM278.196 142.872H276.112V140.913H278.196V142.872ZM278.655 138.342H275.667V131.548H278.655V138.342ZM278.863 124.544H275.459V121.348H278.863V124.544ZM285.797 142.872H283.713V140.913H285.797V142.872ZM286.242 138.342H283.254V131.548H286.242V138.342ZM286.45 124.544H283.046V121.348H286.45V124.544ZM292.842 142.872H290.758V140.913H292.842V142.872ZM293.301 138.342H290.313V131.548H293.301V138.342ZM293.509 124.544H290.105V121.348H293.509V124.544Z" fill="#9A9188"/>
<path d="M256.839 144.318V136.745C256.839 134.73 258.062 133.104 259.563 133.104V126.712H257.853V122.474C257.853 121.349 258.618 120.431 259.549 120.431V116.846H258.673V114.29H259.549V111.399H258.673V108.829H259.549V105.369H258.673V102.798H259.549V99.8246H258.673V97.254H259.549V93.6134H258.673V91.0427H259.549V87.5828H258.673V85.026H259.549V82.0385H258.673V79.4817H259.549V75.8134H258.673V73.2427H259.549V69.7828H258.673V67.2121H259.549V64.2385H258.673V61.6679H259.549V57.0268H258.673V54.0393H259.549V49.6761H258.673V46.6886H259.549V12.3392H259.285V10.9913C259.285 10.6856 259.396 10.4494 259.549 10.4494V1.1117H259.521L259.424 1.1812L259.285 0.77822H259.396L259.298 0.514204H259.187L259.09 0.222412L259.132 0.500295L258.909 0.472519V0.722626L259.173 0.764311L259.201 0.972733C259.201 0.972733 259.132 0.778233 258.965 0.792129C258.965 0.792129 258.59 0.750417 258.326 1.07001C258.326 1.07001 258.104 1.26456 258.104 1.4313C258.104 1.4313 258.632 1.29234 258.854 1.45908C258.854 1.45908 259.034 1.47299 259.09 1.77869C259.09 1.77869 259.187 2.00102 259.465 2.08439V5.65552C259.299 5.68331 259.173 5.82224 259.146 5.97508H258.076C258.076 5.97508 258.02 6.00289 258.02 6.03068C258.02 6.05847 258.048 6.08627 258.076 6.08627H259.132C259.132 6.28081 259.285 6.44755 259.465 6.47534V7.11452C259.354 7.14231 259.285 7.23955 259.285 7.35072C259.285 7.46188 259.368 7.55917 259.465 7.58696V7.78151C259.354 7.8093 259.285 7.90656 259.285 8.03162C259.285 8.0733 259.285 8.11497 259.312 8.14276H258.896L258.479 8.96259V8.9904L258.423 9.07377V9.54621L258.201 13.1173C256.116 14.4513 256.214 17.2443 256.214 17.2443L255.908 17.55V18.0502C255.852 18.8561 256.214 19.5509 256.214 19.5509V21.5101H255.505V21.26H255.436V21.0933C255.575 21.0099 255.672 20.857 255.672 20.6903C255.672 20.4541 255.463 20.065 255.199 19.9817V19.5787C255.199 19.5787 255.283 19.4953 255.283 19.4397C255.283 19.3425 255.199 19.273 255.088 19.273C254.977 19.273 254.894 19.3425 254.894 19.4397C254.894 19.4953 254.921 19.5509 254.977 19.5787V19.9817C254.713 20.065 254.505 20.4541 254.505 20.6903C254.505 20.8709 254.616 21.0377 254.796 21.1211V21.26L254.199 21.9131L254.546 22.5106V23.7612L254.199 24.1086L253.393 25.1091L253.587 25.3036V25.7066L254.435 26.5542L254.491 28.1104V34.9887L253.74 35.9475L254.143 37.1564V39.3657H252.531L252.087 38.1568H252.003L251.753 35.9752L251.67 36.6839V36.5728L251.739 35.8641L251.712 35.6695C251.712 35.6695 251.725 35.6696 251.739 35.6557C251.684 35.6279 251.642 35.5723 251.628 35.5028C251.628 35.5028 251.628 35.475 251.656 35.475C251.656 35.5445 251.698 35.614 251.767 35.6418C251.823 35.6001 251.878 35.5306 251.878 35.4611C251.878 35.3361 251.781 35.2249 251.642 35.2249C251.559 35.2249 251.475 35.2666 251.434 35.35C251.434 35.2249 251.323 35.1276 251.197 35.1276C251.072 35.1276 250.961 35.2249 250.961 35.3638C250.961 35.4611 251.017 35.5445 251.1 35.5862L250.795 38.1707H250.683L250.628 39.5741H250.336L250.586 40.2828V41.992H250.336V42.6451H248.974L250.03 44.5487V45.6465L250.475 46.5497V51.1629H250.35L249.224 49.2176C249.391 49.1898 249.516 49.0369 249.516 48.8563C249.516 48.6757 249.377 48.5228 249.197 48.495V46.9804H249.099V48.495C248.919 48.5228 248.78 48.6757 248.78 48.8563C248.78 49.0369 248.905 49.1898 249.071 49.2176L247.946 51.1629H247.251L246.848 51.5659L247.043 52.3718V55.8318L246.946 56.1792V57.9439L246.89 58.2496V59.2083L247.293 60.1115V110.705C247.293 113.456 245.264 113.192 245.264 113.192H224.088V98.9631C224.227 98.9214 224.324 98.7963 224.324 98.6435C224.324 98.4629 224.171 98.31 223.99 98.31C223.81 98.31 223.657 98.4629 223.657 98.6435C223.657 98.7963 223.754 98.9214 223.893 98.9631V112.956H223.754V112.289H223.712C223.712 112.289 223.74 112.205 223.74 112.164C223.74 112.066 223.698 111.983 223.615 111.927C223.726 111.927 223.81 111.844 223.81 111.733C223.81 111.677 223.782 111.636 223.754 111.594L223.296 109.093C223.296 109.093 223.351 108.982 223.351 108.926C223.351 108.759 223.212 108.634 223.045 108.634C222.879 108.634 222.754 108.773 222.754 108.926C222.754 108.996 222.768 109.051 222.809 109.093L222.351 111.594C222.351 111.594 222.295 111.677 222.295 111.733C222.295 111.844 222.378 111.927 222.49 111.927C222.42 111.983 222.365 112.066 222.365 112.164C222.365 112.205 222.365 112.247 222.392 112.289H222.351V112.956H222.059V112.386H222.017C222.017 112.386 222.045 112.303 222.045 112.261C222.045 112.164 221.989 112.08 221.92 112.025C222.031 112.025 222.114 111.941 222.114 111.83C222.114 111.775 222.101 111.733 222.059 111.691L221.6 109.19C221.6 109.19 221.656 109.079 221.656 109.023C221.656 108.857 221.517 108.732 221.35 108.732C221.183 108.732 221.058 108.857 221.058 109.023C221.058 109.093 221.072 109.148 221.114 109.19L220.947 110.066L220.85 109.524C220.85 109.524 220.906 109.412 220.906 109.357C220.906 109.204 220.78 109.079 220.628 109.079C220.475 109.079 220.35 109.204 220.35 109.357C220.35 109.412 220.377 109.468 220.405 109.524L219.975 111.886C219.975 111.886 219.919 111.955 219.919 112.011C219.919 112.108 220.002 112.192 220.1 112.192C220.03 112.247 219.988 112.317 219.988 112.414C219.988 112.456 219.988 112.497 220.016 112.539H219.975V112.942H219.877L219.433 113.067V113.289L219.53 113.442L219.738 113.859V115.374L219.46 115.651V116.013C217.223 116.013 217.612 116.374 217.612 116.374L219.585 118.695C219.433 119.181 219.738 119.598 219.738 119.598H219.46V120.056H219.724V120.654H219.224L219.474 120.807V121.126L219.585 121.237L219.822 121.446V121.988H219.613L219.877 122.252V143.595H215L215.208 143.776V144.012L215.625 144.165V145.582L215.125 146.221V147.194H259.451V144.304H256.714L256.839 144.318ZM258.701 10.9774C258.701 10.6717 258.77 10.4355 258.868 10.4355C258.965 10.4355 259.021 10.6856 259.021 10.9774V12.3253H258.701V10.9774ZM228.353 143.289H226.269V141.33H228.353V143.289ZM228.812 138.759H225.824V131.965H228.812V138.759ZM229.02 124.961H225.616V121.765H229.02V124.961ZM235.954 143.289H233.87V141.33H235.954V143.289ZM236.413 138.759H233.425V131.965H236.413V138.759ZM236.621 124.961H233.217V121.765H236.621V124.961ZM243.013 143.289H240.929V141.33H243.013V143.289ZM243.472 138.759H240.484V131.965H243.472V138.759ZM243.68 124.961H240.29V121.765H243.68V124.961ZM251.448 35.4889C251.448 35.5723 251.503 35.6557 251.587 35.6974L251.462 36.7117V36.6006L251.559 35.6974C251.489 35.6696 251.434 35.6001 251.42 35.5306C251.42 35.5306 251.42 35.5028 251.434 35.5028L251.448 35.4889ZM249.655 56.0958H248.738V54.1226C248.738 53.678 248.946 53.3167 249.197 53.3167C249.447 53.3167 249.655 53.678 249.655 54.1226V56.0958ZM252.323 143.289H250.239V141.33H252.323V143.289ZM253.115 123.447C253.046 123.808 252.726 124.086 252.337 124.086C251.948 124.086 251.628 123.808 251.559 123.447C251.128 123.447 250.767 123.099 250.767 122.655C250.767 122.21 251.128 121.863 251.559 121.863C251.628 121.501 251.948 121.224 252.337 121.224C252.726 121.224 253.046 121.501 253.115 121.863C253.546 121.863 253.907 122.224 253.907 122.655C253.907 123.085 253.546 123.447 253.115 123.447ZM254.407 116.846H252.462V114.29H254.407V116.846ZM254.407 111.386H252.462V108.815H254.407V111.386ZM254.407 105.355H252.462V102.784H254.407V105.355ZM254.407 99.8107H252.462V97.24H254.407V99.8107ZM254.407 93.6134H252.462V91.0427H254.407V93.6134ZM254.407 87.5828H252.462V85.026H254.407V87.5828ZM254.407 82.0385H252.462V79.4817H254.407V82.0385ZM254.407 75.7995H252.462V73.2288H254.407V75.7995ZM254.407 69.7689H252.462V67.1982H254.407V69.7689ZM254.407 64.2246H252.462V61.6539H254.407V64.2246ZM254.407 57.0129H252.462V54.0254H254.407V57.0129ZM254.407 49.6622H252.462V46.6747H254.407V49.6622ZM255.63 30.695C255.63 30.0002 255.95 29.3193 256.353 29.1943C256.756 29.0692 257.075 29.5417 257.075 30.2503V33.4602L255.644 33.8076V30.695H255.63Z" fill="#A89E94"/>
</svg>
