<svg width="1440" height="1345" viewBox="0 0 1440 1345" fill="none" xmlns="http://www.w3.org/2000/svg">
<path fill-rule="evenodd" clip-rule="evenodd" d="M1127.12 1152.18C1104.69 1284.57 962.006 1449.91 831.198 1419.46C670.672 1382.09 658.898 1143.71 552.113 1018.32C500.509 957.725 444.456 886.029 365.863 873.057C171.1 840.913 -174.622 1082.95 -219.739 890.931C-269.614 678.656 254.294 684.994 270.567 467.471C285.249 271.228 -132.166 266.612 -158.446 71.6335C-176.63 -63.2735 56.4457 -104.772 189.407 -134.665C309.482 -161.661 428.732 -96.8745 551.441 -87.9663C631.86 -82.1282 725.458 -138.291 790.698 -91.0135C867.929 -35.0454 809.179 169.51 904.63 167.982C1129.9 164.375 1307.13 -186.352 1516.16 -102.629C1665.85 -42.6739 1323.67 178.27 1332.22 339.248C1338.95 465.843 1654.54 562.101 1555.69 641.707C1400.32 766.834 1092.25 483.041 963.995 635.804C846.502 775.75 1157.63 972.145 1127.12 1152.18Z" fill="#FFF1F2" fill-opacity="0.1"/>
</svg>
