<svg width="249" height="71" viewBox="0 0 249 71" fill="none" xmlns="http://www.w3.org/2000/svg">
<path d="M22.7184 2.65706C22.7462 1.92112 23.0647 1.22578 23.6025 0.72216C23.8666 0.470558 24.1797 0.277094 24.5234 0.153786C24.8671 0.030678 25.2336 -0.019517 25.597 0.0069046L112.212 4.74081L111.889 10.4702L22.5536 5.59325L22.7132 2.6297" fill="white"/>
<path d="M11.4664 12.5616C11.4986 11.8299 11.8165 11.1404 12.3531 10.6404C12.6123 10.3867 12.9226 10.1907 13.2646 10.0652C13.6046 9.94017 13.9686 9.8885 14.3306 9.91389L111.697 15.2272L111.388 20.954L11.3717 15.486L11.5312 12.5224" fill="white"/>
<path d="M0.17717 22.4717C0.188482 22.1082 0.272483 21.7508 0.42511 21.4206C0.577764 21.0905 0.793465 20.7948 1.06383 20.5504C1.32574 20.2987 1.63664 20.1052 1.97827 19.9822C2.3189 19.8595 2.68245 19.8103 3.04597 19.8373L111.065 25.7325L110.741 31.4618L0 25.4098L0.170334 22.4302" fill="white"/>
<path d="M244.551 26.2393C243.167 27.074 241.719 27.8636 240.194 28.6238C237.115 30.1729 233.938 31.5202 230.684 32.6568C223.091 35.3309 215.128 36.8753 208.767 36.5245L105.426 31.1055C105.178 31.0296 104.914 31.0163 104.659 31.0658L46.9705 27.9833L46.8744 27.9995L46.3528 28.0026C45.1353 27.9302 43.987 27.4231 43.1174 26.5746C42.2479 25.7265 41.7155 24.5935 41.6169 23.3836C41.5204 22.1735 41.8632 20.9675 42.5858 19.9863C43.3083 19.0051 44.3613 18.3143 45.5509 18.0409C64.1017 10.8807 100.83 3.83079 116.386 4.64627L210.219 9.59687C224.867 10.368 238.239 13.3163 243.877 15.7794C244.956 16.1261 245.902 16.7872 246.596 17.6766C247.292 18.566 247.701 19.6432 247.774 20.769C247.846 21.8952 247.577 23.0181 247.004 23.993C246.429 24.9682 245.574 25.7505 244.551 26.2393Z" fill="#CE1C31"/>
<path d="M231.793 32.6052L230.422 32.8196L222.027 32.4422L222.26 27.9128L239.739 28.9965C237.7 30.1357 234.79 31.5798 231.793 32.6052Z" fill="#3A383E"/>
<path d="M220.466 32.5345L215.841 32.5397L216.335 28.465L220.96 28.4599L220.466 32.5345Z" fill="#3A383E"/>
<path d="M66.3571 11.7113C84.4928 7.29777 105.749 3.9739 116.64 4.53118L210.233 9.38257C224.841 10.1389 238.177 13.0512 243.798 15.4874C244.985 15.8637 246.01 16.6188 246.712 17.6346C247.416 18.65 247.757 19.8691 247.683 21.1007L66.3571 11.7113Z" fill="#3A383E"/>
<path d="M72.2959 9.13483L247.806 20.4675C248.14 21.7113 248.08 23.0278 247.632 24.2201L60.3771 12.5756C64.1959 11.5188 68.1721 10.0513 72.2959 9.13483Z" fill="white"/>
<path d="M150.403 0.740471L169.237 1.5686L168.533 12.2859L149.701 11.471L144.472 9.59837L144.976 2.03355L150.403 0.740471Z" fill="#CE1C31"/>
<path d="M161.623 29.4892C160.931 29.4529 160.265 29.2124 159.711 28.7976C159.157 28.383 158.737 27.813 158.506 27.1598C158.275 26.5066 158.244 25.7996 158.415 25.1286C158.585 24.4575 158.953 23.852 159.468 23.3895C159.984 22.9266 160.625 22.6272 161.31 22.5294C161.996 22.4312 162.695 22.539 163.32 22.8385C163.945 23.1381 164.466 23.6165 164.819 24.2126C165.171 24.8091 165.339 25.4965 165.301 26.188C165.249 27.1129 164.833 27.9799 164.144 28.5986C163.454 29.2175 162.548 29.5377 161.623 29.4892Z" fill="white"/>
<path d="M149.571 21.525C151.478 21.2075 153.28 22.4959 153.598 24.4025C153.915 26.3091 152.627 28.1119 150.72 28.4295C148.813 28.7469 147.011 27.4586 146.693 25.5519C146.376 23.6454 147.664 21.8425 149.571 21.525Z" fill="white"/>
<path d="M138.302 27.4558C137.611 27.4195 136.945 27.1788 136.391 26.7639C135.836 26.3494 135.416 25.7795 135.185 25.1264C134.954 24.4732 134.924 23.7661 135.094 23.095C135.265 22.424 135.632 21.8186 136.147 21.356C136.663 20.8932 137.304 20.5938 137.99 20.4959C138.676 20.3976 139.375 20.5052 139.999 20.805C140.624 21.1048 141.144 21.5831 141.498 22.1793C141.85 22.7756 142.019 23.4629 141.979 24.1549C141.929 25.0795 141.513 25.9463 140.824 26.565C140.133 27.1841 139.228 27.5042 138.302 27.4558Z" fill="white"/>
<path d="M125.028 26.8635C124.245 26.8495 123.502 26.6279 122.89 26.2281C122.278 25.8283 121.825 25.2673 121.591 24.6162C121.354 23.9655 121.346 23.2538 121.565 22.5715C121.784 21.8892 122.223 21.2663 122.822 20.7824C123.425 20.298 124.161 19.9742 124.942 19.8512C125.721 19.7287 126.509 19.8125 127.206 20.0923C127.901 20.3725 128.474 20.8361 128.852 21.4244C129.231 22.0126 129.397 22.6994 129.329 23.398C129.287 23.8631 129.14 24.3222 128.901 24.7485C128.66 25.1751 128.332 25.5604 127.931 25.8828C127.531 26.205 127.069 26.4575 126.571 26.6257C126.071 26.7944 125.547 26.8751 125.028 26.8635Z" fill="white"/>
<path d="M161.832 23.4112C162.928 23.2556 164.022 24.2278 164.274 25.5828C164.527 26.9376 163.842 28.1623 162.746 28.3179C161.65 28.4735 160.556 27.5012 160.304 26.1463C160.051 24.7913 160.736 23.5666 161.832 23.4112Z" fill="#3A383E"/>
<path d="M149.735 22.5114C151.096 22.2848 152.385 23.205 152.611 24.5667C152.838 25.9285 151.917 27.2165 150.556 27.4432C149.195 27.6698 147.906 26.7497 147.68 25.3878C147.453 24.0261 148.374 22.7381 149.735 22.5114Z" fill="#3A383E"/>
<path d="M138.075 21.4946C139.436 21.268 140.725 22.188 140.951 23.5501C141.178 24.9119 140.258 26.1997 138.896 26.4263C137.535 26.653 136.246 25.7329 136.019 24.3711C135.793 23.0092 136.714 21.7213 138.075 21.4946Z" fill="#3A383E"/>
<path d="M124.919 20.8787C126.014 20.7234 127.108 21.6955 127.361 23.0504C127.614 24.4053 126.929 25.6301 125.833 25.7856C124.737 25.9412 123.643 24.9688 123.391 23.6139C123.138 22.2591 123.823 21.0343 124.919 20.8787Z" fill="#3A383E"/>
<path d="M144.522 5.92003L144.778 2.08653L150.253 0.800873L169.259 1.64935L168.902 7.01041L144.522 5.92003Z" fill="#3A383E"/>
<path d="M164.242 6.57721C164.289 5.94548 164.061 5.33204 163.607 4.87094C163.155 4.4095 162.514 4.13771 161.824 4.1151L116.12 2.64523C115.779 2.63409 115.436 2.68501 115.111 2.79519C114.786 2.9053 114.485 3.07229 114.227 3.28633C113.968 3.50054 113.756 3.75803 113.604 4.0433C113.451 4.32895 113.362 4.63702 113.337 4.95059C113.31 5.26334 113.351 5.57548 113.458 5.86905C113.564 6.16289 113.734 6.43206 113.958 6.6613C114.182 6.89034 114.454 7.07509 114.76 7.2046C115.066 7.33391 115.4 7.40545 115.74 7.41524L161.445 8.88493C162.135 8.90368 162.817 8.6718 163.341 8.23959C163.864 7.80766 164.189 7.21012 164.242 6.57721Z" fill="white"/>
<path d="M110.734 30.5095C109.148 29.7113 80.2796 37.155 80.2796 37.155L47.2655 70.6613L36.4543 70.1157L50.3268 27.3947L110.734 30.5095Z" fill="#CE1C31"/>
<path d="M100.897 25.1948L99.4305 25.095L98.349 19.4043L96.4964 24.8956L94.2496 24.7428L94.7815 17.4086L96.2037 17.5053L95.7744 23.4259L97.7112 17.6038L99.2518 17.7083L100.329 23.7357L100.759 17.8109L102.181 17.9075L101.706 24.4583C101.676 24.8782 101.312 25.2228 100.889 25.1942L100.897 25.1948ZM92.2412 21.4729L93.6833 21.5711C93.4323 22.6173 92.6466 23.0834 91.3218 22.9934C89.7379 22.8855 88.9708 22.3139 89.0149 21.2536L89.1561 19.3109C89.2698 17.736 90.2757 17.0982 91.8352 17.0987C93.2208 17.0833 94.1297 17.7863 94.0381 19.0503C93.9056 20.4174 92.8796 20.7169 91.4153 20.7592C90.7922 20.7939 90.4614 20.9543 90.4393 21.2691C90.4472 21.5986 90.7405 21.7769 91.3381 21.8174C91.8505 21.8521 92.1395 21.7422 92.2368 21.4767L92.2412 21.4729ZM90.5529 19.4709L90.5143 20C90.895 19.8757 91.2901 19.7847 91.6896 19.7348C92.274 19.6652 92.5861 19.4145 92.6169 18.9944C92.6169 18.5399 92.3932 18.3055 91.9383 18.2745C91.1381 18.22 90.6114 18.6632 90.5529 19.4709ZM88.4159 19.9346C88.238 21.777 87.1835 22.6269 85.262 22.496L85.0551 22.4819L85.1632 20.9916L85.6502 21.0248C86.4549 21.0796 86.8831 20.6867 86.9438 19.8546L87.159 16.8863L88.6265 16.9858L88.4125 19.9341L88.4159 19.9346ZM82.8705 23.2669L83.1 20.1046L81.1735 22.0109L79.438 21.893L81.5781 19.9119L79.8165 16.3871L81.5519 16.505L82.4356 18.4523C82.595 18.7878 82.7699 18.9621 82.9526 18.9746C83.0223 18.9712 83.0864 18.9429 83.1307 18.8932C83.1794 18.8437 83.2038 18.7806 83.2004 18.7114L83.3516 16.6275L84.7948 16.7253L84.2619 24.0637L83.5148 24.0128C83.3302 23.9972 83.1592 23.9104 83.0392 23.7709C82.9182 23.6316 82.8578 23.4507 82.8705 23.2669Z" fill="white"/>
<path d="M77.3085 15.5077C79.039 15.7031 79.8464 16.8146 79.7264 18.8258C79.6063 20.8368 78.6702 21.7688 76.9194 21.6391C75.0955 21.491 74.3078 20.2714 74.5552 17.9682L78.2661 18.2701C78.2675 17.3626 77.9131 16.8717 77.2063 16.8143C76.869 16.787 76.5475 16.9079 76.2474 17.1647C76.1818 17.2309 76.1017 17.279 76.0136 17.3098C75.9266 17.3404 75.8361 17.3499 75.7431 17.338L74.6791 17.2516C75.0661 16.0269 75.8915 15.3965 77.2997 15.5113L77.3085 15.5077ZM78.1833 19.3261L76.0222 19.1507C76.0614 19.9393 76.3987 20.3701 77.0159 20.4203C77.6331 20.4705 78.0269 20.099 78.1833 19.3261ZM72.152 20.0919L72.3014 20.1043L72.4964 16.8306C72.5115 16.5838 72.3773 16.4426 72.0965 16.42L71.6496 16.3837L71.7171 15.2548C72.2232 15.2497 72.7353 15.2953 73.2348 15.3909C73.7763 15.4893 74.0156 15.8575 73.964 16.517L73.5795 22.9683L72.8329 22.9075C72.4546 22.877 72.1598 22.4915 72.1823 22.1028L72.2386 21.1662L71.3692 21.0956L71.389 20.7735C71.3946 20.6775 71.4168 20.5825 71.4545 20.4933C71.4967 20.4042 71.5534 20.3293 71.6234 20.2633C71.6923 20.2016 71.7769 20.1539 71.8683 20.1235C71.9597 20.0932 72.0536 20.0842 72.1476 20.0958L72.152 20.0919ZM68.5468 16.0054C67.9384 15.9557 67.6229 16.1108 67.6004 16.4912C67.5826 16.7922 68.0665 17.0798 69.0428 17.3396C70.2997 17.6813 70.9152 18.311 70.8677 19.2399C70.7917 20.5151 69.7817 21.0379 68.4645 20.9519C67.7257 20.8918 67.1509 20.677 66.7359 20.3074C66.3351 19.9257 66.1364 19.4265 66.1398 18.8094L67.05 18.8831C67.3854 18.9233 67.5935 19.062 67.669 19.3035C67.7514 19.5704 68.035 19.7365 68.5139 19.7755C69.0791 19.8212 69.3683 19.6893 69.3861 19.3842C69.4049 19.0788 69.053 18.8192 68.3104 18.6118C67.3481 18.3318 66.7215 18.0206 66.4263 17.6942C66.3031 17.5451 66.2093 17.3726 66.1518 17.1865C66.0934 17.0006 66.0713 16.8054 66.0877 16.6119C66.1739 15.1612 67.3141 14.7161 68.8328 14.8396C69.6369 14.9049 70.2306 15.134 70.6048 15.5129C71.0188 15.8828 71.2034 16.4145 71.1631 17.0959L69.6888 16.9762C69.6951 16.3255 69.2536 16.0628 68.5468 16.0054ZM65.076 20.1007L65.0469 20.5816L60.3493 20.1996L60.4243 18.937L63.6735 15.8235L60.5388 15.5686L60.6158 14.2849L65.5777 14.6883L65.5073 15.8634L62.2297 19.1089L64.3899 19.2845C64.4868 19.2909 64.5825 19.317 64.6702 19.3616C64.7579 19.4063 64.8363 19.4685 64.901 19.5445C64.9659 19.6212 65.0133 19.7092 65.0442 19.8083C65.0751 19.9034 65.086 20.0048 65.075 20.1051L65.076 20.1007ZM96.2735 24.557L94.2759 24.3945L94.2586 24.6487L96.5039 24.8312L98.1815 19.5152L98.0599 18.8835L96.2735 24.5528L96.2735 24.557ZM100.671 24.9144L99.3882 24.8101L99.4361 25.0695L100.902 25.1888C101.324 25.223 101.685 24.8751 101.712 24.436L102.115 17.6588L101.867 17.6387L101.479 24.161C101.454 24.5956 101.094 24.9487 100.671 24.9144Z" fill="white"/>
<path d="M95.6369 22.0187L95.8892 17.0677L95.6424 17.044L95.3381 23.0269L95.6369 22.0187ZM99.9086 22.6665L98.9226 17.3364L98.7367 17.3196L99.8693 23.4372L99.9086 22.6665ZM90.9058 22.4889C90.0499 22.4114 89.4365 22.1932 89.0535 21.8333C89.3869 22.3684 90.081 22.6794 91.1392 22.7751C92.456 22.8944 93.2264 22.4167 93.4576 21.3164L93.154 21.2892C92.8602 22.2037 92.1137 22.6024 90.9059 22.4932L90.9058 22.4889ZM90.9613 20.1282C90.3433 20.1535 90.0189 20.3165 90.0016 20.6488C90.0091 20.829 90.0951 20.9694 90.2605 21.07C90.2465 21.0259 90.2369 20.9779 90.235 20.9308C90.2523 20.6027 90.5723 20.4353 91.1946 20.4102C92.6485 20.392 93.6615 20.0945 93.7671 18.6539C93.7998 18.0108 93.6031 17.5051 93.2355 17.1469C93.4509 17.4699 93.5548 17.8817 93.5303 18.3671C93.4247 19.8077 92.4117 20.1052 90.9579 20.1235L90.9613 20.1282ZM90.3117 19.038C90.3551 18.1864 90.8655 17.7278 91.6642 17.8004C91.7983 17.808 91.9298 17.85 92.0528 17.9165C91.9553 17.6767 91.7509 17.5428 91.4318 17.5139C90.6321 17.4415 90.1217 17.9002 90.0783 18.7518L90.0497 19.3098C90.1326 19.2829 90.2146 19.2563 90.3019 19.2298L90.3117 19.0339L90.3117 19.038ZM84.9219 21.8528L84.9079 22.117L85.1147 22.1355C87.0244 22.3085 88.0551 21.4323 88.1992 19.4901L88.3576 16.3841L88.1112 16.3618L87.9654 19.2066C87.8232 21.1315 86.8084 22.011 84.9253 21.8575L84.9219 21.8528ZM83.1744 23.423C83.0534 23.4119 82.9374 23.3675 82.836 23.2897C82.8902 23.4039 82.9722 23.5014 83.0727 23.5723C83.175 23.6456 83.2901 23.6904 83.4077 23.7008L84.1503 23.7682L84.5448 16.039L84.2984 16.0167L83.917 23.4903L83.1744 23.423ZM80.8128 21.2671L79.5653 21.154L79.3223 21.3928L81.0461 21.5491L82.6628 19.8472L82.6914 19.2851L80.8137 21.2626L80.8128 21.2671ZM82.3387 18.0166C82.3014 17.9534 82.2639 17.8859 82.2309 17.8145L81.3183 15.7426L81.205 15.7323L81.9975 17.5326C82.1071 17.7692 82.2208 17.9292 82.3343 18.0164L82.3387 18.0166ZM76.5894 21.1925C75.8744 21.128 75.3189 20.8934 74.9209 20.4898C75.322 21.0692 75.9538 21.3961 76.8262 21.4751C78.564 21.6195 79.4922 20.6769 79.597 18.6284C79.6575 17.4362 79.4104 16.5539 78.8512 15.9813C79.2444 16.5474 79.4151 17.3329 79.3636 18.3464C79.2588 20.3948 78.335 21.3377 76.5938 21.1928L76.5894 21.1925ZM76.8399 16.2784C76.5043 16.2481 76.1868 16.3688 75.8893 16.6286C75.8246 16.6955 75.7452 16.7439 75.6579 16.7746C75.5716 16.8052 75.4818 16.8143 75.3893 16.8015L74.6544 16.735C74.6218 16.8175 74.5926 16.9007 74.5687 16.988L75.626 17.0841C75.7194 17.0923 75.8084 17.0877 75.8956 17.0569C75.9819 17.0265 76.0579 16.9775 76.126 16.9111C76.4191 16.651 76.7421 16.5304 77.0776 16.5607C77.3273 16.5835 77.5341 16.6622 77.6979 16.8009C77.5233 16.4898 77.2402 16.3144 76.8442 16.2786L76.8399 16.2784Z" fill="white"/>
<path d="M75.8736 19.523L77.681 19.6741C77.7048 19.5982 77.7263 19.5134 77.7425 19.4288L75.6426 19.2534C75.6701 19.7444 75.8086 20.0928 76.0625 20.2948C75.9515 20.0964 75.8881 19.8401 75.8703 19.5225L75.8736 19.523ZM71.3578 21.4174L71.9577 21.4675L71.9719 21.2182L71.3719 21.1682L71.3578 21.4174ZM71.8268 16.5733L71.6375 16.5574L71.6234 16.8067L72.0567 16.8432C72.1126 16.8476 72.1633 16.8601 72.2139 16.8767C72.1848 16.6975 72.06 16.5926 71.8268 16.5733ZM72.5567 22.922C72.4417 22.9126 72.3294 22.8702 72.2383 22.797C72.2913 22.9046 72.3697 22.9972 72.465 23.0664C72.5612 23.1353 72.6716 23.1785 72.7866 23.1919L73.5134 23.2523L73.8763 16.9414C73.9095 16.4886 73.8014 16.1753 73.5533 15.9947C73.6391 16.166 73.6698 16.3904 73.6496 16.6681L73.2867 22.983L72.5567 22.922ZM67.7694 19.6803L67.7584 19.6549C67.7383 19.5916 67.7106 19.5316 67.666 19.4827C67.6246 19.4302 67.5757 19.389 67.5184 19.3595C67.522 19.3691 67.5257 19.379 67.5284 19.3891C67.5686 19.5116 67.6537 19.6173 67.7651 19.684L67.7694 19.6803ZM68.3086 20.9984C67.5894 20.9386 67.0304 20.7277 66.6274 20.3653C66.6155 20.3562 66.6089 20.3432 66.597 20.3341C66.6746 20.4431 66.7596 20.5448 66.8541 20.6346C67.2571 20.997 67.8161 21.208 68.5343 21.268C69.8104 21.3541 70.7964 20.8406 70.8672 19.5983C70.8913 19.1195 70.7318 18.7241 70.4003 18.4052C70.5795 18.6778 70.6637 19.0037 70.6414 19.3286C70.5697 20.5752 69.5879 21.0849 68.3076 21.0026L68.3086 20.9984Z" fill="white"/>
<path d="M68.4521 18.0584C67.566 17.8417 66.9614 17.5947 66.6222 17.3293C66.6562 17.3837 66.6938 17.4346 66.7371 17.4813C67.0376 17.7896 67.6867 18.0752 68.6883 18.3227C69.0726 18.4119 69.3536 18.5198 69.5395 18.6391C69.4534 18.4072 69.0949 18.21 68.4509 18.0626L68.4521 18.0584ZM70.1481 16.4536C70.1656 16.536 70.1714 16.6214 70.1681 16.7026L71.71 16.783C71.767 16.1444 71.5976 15.6483 71.1982 15.2984C71.4255 15.6189 71.5174 16.0257 71.4728 16.519L70.1482 16.4496L70.1481 16.4536ZM68.7572 15.5364C68.1209 15.5029 67.7912 15.6602 67.7576 16.0283C67.7467 16.1496 67.8343 16.2679 68.0076 16.3825C67.9975 16.3535 67.9967 16.3208 67.9949 16.2884C68.0274 15.9245 68.3618 15.7634 68.9992 15.7966C69.3555 15.8153 69.644 15.8831 69.8495 16.0158C69.6904 15.6987 69.301 15.5608 68.7619 15.5326L68.7572 15.5364ZM64.9812 20.0375L60.3273 19.7939L60.3069 20.0411L65.2198 20.2982L65.2618 19.8332C65.2727 19.708 65.2523 19.5806 65.1993 19.4639C65.1452 19.3515 65.0597 19.2537 64.9508 19.1792C65.0128 19.3 65.0353 19.4351 65.0232 19.5686L64.9812 20.0375ZM60.6361 15.3148L60.6143 15.5612L63.3918 15.7065L63.6565 15.4724L60.6361 15.3148ZM62.0599 18.6787L62.5573 18.7046L65.8132 15.7276L65.9149 14.5916L65.6558 14.5781L65.577 15.4633L62.0645 18.6749L62.0599 18.6787Z" fill="white"/>
<path fill-rule="evenodd" clip-rule="evenodd" d="M60.9826 30.7189C61.1423 30.6749 61.2914 30.6004 61.4187 30.5009C61.546 30.4014 61.6485 30.2793 61.7205 30.1431C61.7913 30.007 61.829 29.8605 61.8305 29.7137C61.832 29.5671 61.7961 29.4244 61.7277 29.2952C61.6347 29.1223 61.485 28.9813 61.2961 28.8902C61.1083 28.7987 60.8907 28.761 60.6711 28.7816C60.452 28.8036 60.2417 28.8806 60.0653 29.0056C59.8899 29.1304 59.7561 29.3012 59.677 29.4889C59.5978 29.6766 59.5885 29.877 59.6416 30.0665C59.7113 30.3179 59.8922 30.5273 60.1441 30.6493C60.395 30.7715 60.6967 30.7964 60.9826 30.7189ZM56.3903 31.9815C56.6065 31.9221 56.7942 31.8131 56.9469 31.6562C57.092 31.5015 57.1934 31.314 57.2265 31.1199C57.2596 30.9257 57.2271 30.7304 57.1354 30.5579C57.0424 30.385 56.8927 30.244 56.7049 30.1525C56.5172 30.0611 56.2995 30.0234 56.0788 30.0444C55.8607 30.066 55.6494 30.1432 55.4741 30.2681C55.2977 30.3931 55.1638 30.5639 55.0847 30.7516C55.0066 30.939 54.9962 31.1397 55.0493 31.3292C55.0828 31.4542 55.1453 31.5698 55.2316 31.6699C55.3179 31.77 55.4263 31.8525 55.5519 31.9122C55.6756 31.9735 55.814 32.0112 55.9583 32.0231C56.1026 32.0349 56.2492 32.0208 56.3903 31.9815Z" fill="white"/>
<path fill-rule="evenodd" clip-rule="evenodd" d="M57.7553 26.4394C55.2087 27.1689 53.0523 28.8678 51.7515 31.1654C50.4523 33.4694 50.1172 36.1805 50.8184 38.7202C51.5196 41.26 53.1986 43.4222 55.4942 44.7276C57.7862 46.0476 60.5157 46.3986 63.0758 45.7193L63.3837 45.6343C61.6012 46.0655 59.7259 45.9635 58.0004 45.349C56.2739 44.7347 54.765 43.6296 53.6584 42.1711C52.552 40.7126 51.9075 38.9651 51.7893 37.1397C51.6721 35.314 52.0959 33.494 53.0044 31.9037C53.9118 30.3137 55.2658 29.0178 56.903 28.1825C58.5402 27.3471 60.3792 27.0013 62.2068 27.1973C64.0326 27.3903 65.7607 28.1119 67.1779 29.2726C68.5932 30.4305 69.6432 31.9785 70.1841 33.721L70.0997 33.4144C69.7514 32.1507 69.1524 30.9628 68.3461 29.9264C67.5388 28.8902 66.528 28.0246 65.3824 27.3781C64.2368 26.7315 62.9707 26.3133 61.6624 26.1559C60.3531 25.9987 59.027 26.0953 57.7498 26.4476L57.7553 26.4394Z" fill="white"/>
<path fill-rule="evenodd" clip-rule="evenodd" d="M58.8164 28.2326L58.5392 28.3091C60.5404 27.8369 62.6591 28.2078 64.4527 29.3355C66.2466 30.4645 67.5722 32.2696 68.1492 34.3694C68.2039 34.5698 68.2539 34.7716 68.2905 34.977L69.4029 34.6696L69.3969 34.651C69.0834 33.5117 68.56 32.4439 67.8551 31.5004C67.1518 30.5631 66.2842 29.7723 65.2998 29.1755C64.3144 28.5789 63.2334 28.1905 62.1196 28.0269C61.0058 27.8633 59.8738 27.9336 58.7976 28.231L58.8164 28.2326ZM67.2063 41.2042C66.3969 42.5125 65.2352 43.5408 63.8745 44.1661C62.5071 44.7933 60.993 45.0029 59.4997 44.7555C58.0081 44.5145 56.599 43.8328 55.4331 42.7877C54.2689 41.7489 53.4049 40.3912 52.9293 38.8723L53.0102 39.1666C53.4804 40.8755 54.4196 42.4144 55.7039 43.5885C56.9908 44.7644 58.5685 45.5255 60.2399 45.7769C61.9092 46.0283 63.5983 45.7582 65.0954 45.0006C66.5925 44.2429 67.8309 43.0313 68.655 41.5179C68.655 41.5179 67.833 41.8596 67.2113 41.1962L67.2063 41.2042Z" fill="white"/>
<path fill-rule="evenodd" clip-rule="evenodd" d="M62.3576 32.4939L56.6595 34.8489C56.4532 34.9327 56.2763 35.075 56.1507 35.2634C56.0235 35.4456 55.9469 35.6673 55.9388 35.8968L55.68 41.3552C55.6791 41.403 55.6877 41.4507 55.7049 41.4953C55.7252 41.5397 55.7539 41.5796 55.79 41.6121C55.8279 41.6435 55.8718 41.6656 55.919 41.6768C55.9665 41.6849 56.0155 41.6828 56.0618 41.6708L66.5672 38.7706L67.3905 39.5926C67.5916 39.7923 67.8388 39.9361 68.1103 40.0089C68.3807 40.0819 68.6653 40.0817 68.9345 40.0085L74.1631 38.565C74.6686 38.4255 75.1674 38.261 75.683 38.1788C76.0844 38.1148 76.4854 37.9039 76.3464 37.4008C76.3253 37.3222 76.2897 37.2483 76.2407 37.1836C76.1908 37.1192 76.1299 37.0651 76.06 37.0246C75.9901 36.9841 75.9136 36.9581 75.834 36.9481C75.7543 36.9381 75.6737 36.9442 75.5974 36.966L69.3823 38.6819C69.1016 38.7593 68.8017 38.7418 68.5283 38.6302C68.2549 38.5185 68.0239 38.3216 67.8691 38.0703C67.6968 37.7854 67.4383 37.5642 67.1341 37.4398C66.8288 37.3155 66.4934 37.2949 66.177 37.3811L59.6272 39.1893C58.9716 38.8825 59.1305 38.197 59.5751 38.0743L70.0314 35.1875C70.4368 34.5877 69.9472 34.0746 69.5025 34.1973C65.9926 35.1664 63.8208 35.7792 60.2559 36.7635C59.6012 36.4563 59.7591 35.7711 60.2047 35.648L67.632 33.5976C68.0374 32.9978 67.5504 32.4905 67.1048 32.6136L64.9484 33.2089L63.5923 30.9567C63.4566 30.7296 63.2512 30.5535 63.0088 30.4551C62.7663 30.3567 62.4998 30.3415 62.2488 30.4119L55.5832 32.2521C55.4614 32.2857 55.3588 32.3668 55.2969 32.478C55.2359 32.5888 55.2196 32.7208 55.2538 32.8443C55.2879 32.9678 55.3688 33.073 55.4786 33.1367C55.5884 33.2003 55.7184 33.2173 55.8392 33.184L62.0062 31.4815C62.1338 31.4462 62.2698 31.4621 62.3871 31.53C62.5037 31.5953 62.5932 31.7012 62.6398 31.8278C62.6816 31.9566 62.6813 32.0971 62.6226 32.2202C62.5708 32.3415 62.4743 32.4417 62.35 32.4893L62.3576 32.4939Z" fill="white"/>
</svg>
