<svg width="249" height="71" viewBox="0 0 249 71" fill="none" xmlns="http://www.w3.org/2000/svg">
<path d="M225.3 68.0042C225.272 68.7401 224.954 69.4355 224.416 69.9391C224.152 70.1907 223.839 70.3842 223.495 70.5075C223.151 70.6306 222.785 70.6808 222.422 70.6544L135.806 65.9204L136.13 60.191L225.465 65.068L225.305 68.0316" fill="white"/>
<path d="M236.552 58.0997C236.52 58.8313 236.202 59.5209 235.665 60.0208C235.406 60.2746 235.096 60.4705 234.754 60.5961C234.414 60.7211 234.05 60.7728 233.688 60.7474L136.321 55.4341L136.631 49.7072L236.647 55.1752L236.487 58.1389" fill="white"/>
<path d="M247.841 48.1895C247.83 48.553 247.746 48.9104 247.593 49.2407C247.441 49.5708 247.225 49.8665 246.955 50.1108C246.693 50.3626 246.382 50.5561 246.04 50.6791C245.7 50.8018 245.336 50.851 244.973 50.8239L136.954 44.9287L137.278 39.1994L248.019 45.2514L247.848 48.2311" fill="white"/>
<path d="M3.46766 44.422C4.85162 43.5872 6.29992 42.7976 7.82433 42.0375C10.9032 40.4884 14.081 39.141 17.3345 38.0045C24.9275 35.3303 32.8908 33.786 39.2512 34.1368L142.592 39.5557C142.84 39.6317 143.105 39.645 143.359 39.5955L201.048 42.6779L201.144 42.6618L201.666 42.6587C202.883 42.7311 204.032 43.2382 204.901 44.0866C205.771 44.9348 206.303 46.0677 206.402 47.2776C206.498 48.4878 206.155 49.6937 205.433 50.6749C204.71 51.6562 203.657 52.3469 202.468 52.6204C183.917 59.7805 147.189 66.8305 131.632 66.015L37.8 61.0644C23.1512 60.2932 9.77928 57.3449 4.14184 54.8818C3.06295 54.5351 2.11684 53.8741 1.42254 52.9846C0.726791 52.0953 0.317187 51.0181 0.24442 49.8923C0.173043 48.7661 0.44127 47.6431 1.01483 46.6682C1.5898 45.693 2.44406 44.9107 3.46766 44.422Z" fill="#CE1C31"/>
<path d="M16.2252 38.056L17.5966 37.8416L25.9916 38.219L25.7589 42.7484L8.2799 41.6648C10.3187 40.5256 13.2281 39.0815 16.2252 38.056Z" fill="#3A383E"/>
<path d="M27.5524 38.1267L32.1771 38.1215L31.6832 42.1962L27.0586 42.2014L27.5524 38.1267Z" fill="#3A383E"/>
<path d="M181.661 58.95C163.526 63.3635 142.269 66.6874 131.378 66.1301L37.7854 61.2787C23.1772 60.5223 9.84153 57.6101 4.22092 55.1739C3.03397 54.7976 2.00897 54.0425 1.30626 53.0266C0.602186 52.0113 0.261769 50.7921 0.335695 49.5606L181.661 58.95Z" fill="#3A383E"/>
<path d="M175.723 61.5264L0.212443 50.1938C-0.121059 48.95 -0.0610096 47.6335 0.386289 46.4411L187.641 58.0857C183.823 59.1424 179.846 60.6099 175.723 61.5264Z" fill="white"/>
<path d="M97.6153 69.9208L78.7811 69.0927L79.4857 58.3754L98.3177 59.1903L103.547 61.0629L103.043 68.6277L97.6153 69.9208Z" fill="#CE1C31"/>
<path d="M86.3957 41.1721C87.0872 41.2083 87.7531 41.4489 88.3076 41.8637C88.862 42.2783 89.2819 42.8482 89.5127 43.5014C89.7435 44.1546 89.7746 44.8617 89.604 45.5327C89.4332 46.2038 89.0658 46.8092 88.5509 47.2718C88.0347 47.7347 87.3934 48.0341 86.7085 48.1319C86.0224 48.2301 85.3233 48.1223 84.6986 47.8227C84.0739 47.5231 83.5529 47.0448 83.1995 46.4486C82.8476 45.8522 82.6792 45.1648 82.7174 44.4732C82.7692 43.5483 83.1855 42.6814 83.8744 42.0627C84.5647 41.4438 85.4707 41.1235 86.3957 41.1721Z" fill="white"/>
<path d="M98.4478 49.1362C96.5407 49.4538 94.7382 48.1654 94.4207 46.2588C94.1033 44.3522 95.3912 42.5493 97.2982 42.2318C99.2052 41.9143 101.008 43.2027 101.325 45.1093C101.643 47.0159 100.355 48.8188 98.4478 49.1362Z" fill="white"/>
<path d="M109.716 43.2054C110.408 43.2418 111.073 43.4825 111.628 43.8973C112.183 44.3119 112.603 44.8817 112.834 45.5348C113.064 46.1881 113.095 46.8951 112.924 47.5662C112.754 48.2372 112.387 48.8427 111.872 49.3052C111.356 49.768 110.714 50.0674 110.029 50.1653C109.343 50.2636 108.644 50.1561 108.019 49.8563C107.395 49.5564 106.874 49.0781 106.521 48.482C106.168 47.8857 106 47.1984 106.04 46.5063C106.09 45.5818 106.506 44.715 107.195 44.0963C107.885 43.4771 108.791 43.157 109.716 43.2054Z" fill="white"/>
<path d="M122.991 43.7977C123.774 43.8117 124.516 44.0334 125.129 44.4331C125.741 44.833 126.193 45.394 126.428 46.0451C126.665 46.6957 126.673 47.4074 126.454 48.0898C126.235 48.7721 125.795 49.395 125.196 49.8788C124.594 50.3633 123.858 50.6871 123.076 50.81C122.297 50.9326 121.51 50.8487 120.813 50.5689C120.117 50.2888 119.544 49.8252 119.167 49.2368C118.788 48.6486 118.622 47.9619 118.689 47.2632C118.732 46.7982 118.878 46.3391 119.118 45.9127C119.358 45.4862 119.687 45.1008 120.088 44.7785C120.487 44.4563 120.95 44.2037 121.447 44.0356C121.947 43.8669 122.472 43.7861 122.991 43.7977Z" fill="white"/>
<path d="M86.1869 47.2501C85.091 47.4057 83.9969 46.4334 83.7443 45.0785C83.4919 43.7236 84.1765 42.4989 85.2723 42.3434C86.3682 42.1878 87.4622 43.16 87.7148 44.515C87.9673 45.87 87.2827 47.0947 86.1869 47.2501Z" fill="#3A383E"/>
<path d="M98.2835 48.1498C96.9223 48.3765 95.6338 47.4563 95.4071 46.0945C95.1802 44.7327 96.1011 43.4447 97.4624 43.218C98.8236 42.9915 100.112 43.9116 100.339 45.2735C100.566 46.6352 99.6446 47.9232 98.2835 48.1498Z" fill="#3A383E"/>
<path d="M109.944 49.1666C108.583 49.3933 107.294 48.4733 107.068 47.1112C106.841 45.7494 107.761 44.4615 109.122 44.235C110.483 44.0083 111.772 44.9283 111.999 46.2901C112.225 47.6521 111.305 48.9399 109.944 49.1666Z" fill="#3A383E"/>
<path d="M123.1 49.7826C122.005 49.9379 120.91 48.9657 120.658 47.6108C120.405 46.256 121.09 45.0311 122.186 44.8756C123.282 44.7201 124.375 45.6925 124.628 47.0473C124.881 48.4021 124.196 49.627 123.1 49.7826Z" fill="#3A383E"/>
<path d="M103.497 64.7412L103.241 68.5747L97.7658 69.8604L78.7594 69.0119L79.1161 63.6508L103.497 64.7412Z" fill="#3A383E"/>
<path d="M83.7763 64.084C83.73 64.7158 83.9577 65.3292 84.4115 65.7903C84.8639 66.2518 85.5044 66.5235 86.1942 66.5462L131.899 68.016C132.24 68.0272 132.582 67.9762 132.908 67.8661C133.233 67.756 133.534 67.589 133.792 67.3749C134.051 67.1607 134.263 66.9032 134.415 66.618C134.567 66.3323 134.657 66.0242 134.682 65.7107C134.709 65.3979 134.667 65.0858 134.561 64.7922C134.455 64.4984 134.285 64.2292 134.061 64C133.837 63.7709 133.565 63.5862 133.259 63.4567C132.953 63.3273 132.619 63.2558 132.278 63.246L86.5737 61.7763C85.8831 61.7576 85.2015 61.9895 84.6773 62.4217C84.1545 62.8536 83.8298 63.4511 83.7763 64.084Z" fill="white"/>
<path d="M137.284 40.1518C138.871 40.9499 167.739 33.5062 167.739 33.5062L200.753 0L211.564 0.545599L197.692 43.2666L137.284 40.1518Z" fill="#CE1C31"/>
<path d="M147.122 45.4665L148.588 45.5663L149.67 51.2569L151.522 45.7657L153.769 45.9184L153.237 53.2527L151.815 53.156L152.244 47.2354L150.307 53.0575L148.767 52.9529L147.69 46.9255L147.259 52.8504L145.837 52.7537L146.313 46.2029C146.342 45.7831 146.707 45.4384 147.129 45.4671L147.122 45.4665ZM155.777 49.1883L154.335 49.0902C154.586 48.044 155.372 47.5778 156.697 47.6678C158.281 47.7757 159.048 48.3474 159.004 49.4077L158.862 51.3503C158.749 52.9253 157.743 53.5631 156.183 53.5625C154.798 53.5779 153.889 52.875 153.98 51.6109C154.113 50.2439 155.139 49.9444 156.603 49.9021C157.226 49.8673 157.557 49.707 157.579 49.3922C157.571 49.0626 157.278 48.8844 156.68 48.8439C156.168 48.8091 155.879 48.9191 155.782 49.1845L155.777 49.1883ZM157.466 51.1903L157.504 50.6612C157.124 50.7856 156.729 50.8765 156.329 50.9264C155.745 50.9961 155.432 51.2468 155.402 51.6669C155.402 52.1213 155.625 52.3558 156.08 52.3867C156.88 52.4412 157.407 51.9981 157.466 51.1903ZM159.603 50.7266C159.781 48.8842 160.835 48.0344 162.757 48.1653L162.964 48.1794L162.855 49.6697L162.368 49.6364C161.564 49.5817 161.135 49.9745 161.075 50.8066L160.86 53.7749L159.392 53.6754L159.606 50.7271L159.603 50.7266ZM165.148 47.3943L164.919 50.5567L166.845 48.6503L168.581 48.7683L166.44 50.7493L168.202 54.2742L166.467 54.1563L165.583 52.209C165.424 51.8734 165.249 51.6992 165.066 51.6866C164.996 51.6901 164.932 51.7184 164.888 51.7681C164.839 51.8176 164.815 51.8807 164.818 51.9499L164.667 54.0338L163.224 53.9359L163.757 46.5975L164.504 46.6485C164.688 46.6641 164.859 46.7508 164.979 46.8904C165.1 47.0297 165.161 47.2106 165.148 47.3943Z" fill="white"/>
<path d="M170.71 55.1536C168.98 54.9582 168.172 53.8467 168.292 51.8355C168.412 49.8244 169.348 48.8924 171.099 49.0222C172.923 49.1703 173.711 50.3899 173.463 52.693L169.752 52.3912C169.751 53.2986 170.106 53.7896 170.812 53.847C171.15 53.8742 171.471 53.7534 171.771 53.4966C171.837 53.4303 171.917 53.3823 172.005 53.3514C172.092 53.3208 172.182 53.3114 172.275 53.3232L173.339 53.4096C172.952 54.6343 172.127 55.2648 170.719 55.15L170.71 55.1536ZM169.835 51.3352L171.996 51.5105C171.957 50.7219 171.62 50.2911 171.003 50.2409C170.385 50.1908 169.992 50.5622 169.835 51.3352ZM175.867 50.5693L175.717 50.5569L175.522 53.8307C175.507 54.0775 175.641 54.2187 175.922 54.2413L176.369 54.2775L176.301 55.4065C175.795 55.4115 175.283 55.3659 174.784 55.2704C174.242 55.1719 174.003 54.8038 174.055 54.1442L174.439 47.6929L175.186 47.7537C175.564 47.7843 175.859 48.1697 175.836 48.5584L175.78 49.4951L176.649 49.5656L176.63 49.8877C176.624 49.9838 176.602 50.0787 176.564 50.168C176.522 50.257 176.465 50.332 176.395 50.398C176.326 50.4596 176.242 50.5074 176.15 50.5377C176.059 50.568 175.965 50.5771 175.871 50.5655L175.867 50.5693ZM179.472 54.6558C180.08 54.7056 180.396 54.5505 180.418 54.17C180.436 53.8691 179.952 53.5815 178.976 53.3216C177.719 52.9799 177.103 52.3502 177.151 51.4213C177.227 50.1461 178.237 49.6233 179.554 49.7094C180.293 49.7695 180.868 49.9842 181.283 50.3539C181.683 50.7355 181.882 51.2348 181.879 51.8519L180.969 51.7782C180.633 51.7379 180.425 51.5992 180.35 51.3578C180.267 51.0908 179.984 50.9248 179.505 50.8858C178.939 50.8401 178.65 50.9719 178.632 51.2771C178.614 51.5824 178.966 51.842 179.708 52.0494C180.67 52.3295 181.297 52.6407 181.592 52.9671C181.715 53.1161 181.809 53.2887 181.867 53.4748C181.925 53.6606 181.947 53.8559 181.931 54.0493C181.845 55.5001 180.704 55.9451 179.186 55.8216C178.382 55.7564 177.788 55.5272 177.414 55.1484C177 54.7784 176.815 54.2467 176.855 53.5653L178.33 53.685C178.323 54.3358 178.765 54.5984 179.472 54.6558ZM182.943 50.5606L182.972 50.0796L187.669 50.4617L187.594 51.7243L184.345 54.8377L187.48 55.0927L187.403 56.3763L182.441 55.9729L182.511 54.7979L185.789 51.5523L183.629 51.3767C183.532 51.3704 183.436 51.3443 183.348 51.2996C183.261 51.255 183.182 51.1927 183.118 51.1167C183.053 51.0401 183.005 50.952 182.974 50.8529C182.944 50.7579 182.933 50.6565 182.944 50.5562L182.943 50.5606ZM151.745 46.1043L153.743 46.2667L153.76 46.0125L151.515 45.83L149.837 51.1461L149.959 51.7777L151.745 46.1084L151.745 46.1043ZM147.347 45.7469L148.63 45.8511L148.582 45.5917L147.117 45.4725C146.694 45.4382 146.333 45.7862 146.307 46.2252L145.904 53.0024L146.151 53.0226L146.54 46.5003C146.565 46.0656 146.925 45.7126 147.347 45.7469Z" fill="white"/>
<path d="M152.382 48.6426L152.129 53.5936L152.376 53.6172L152.68 47.6344L152.382 48.6426ZM148.11 47.9948L149.096 53.3248L149.282 53.3416L148.149 47.224L148.11 47.9948ZM157.113 48.1723C157.969 48.2498 158.582 48.4681 158.965 48.828C158.632 48.2929 157.938 47.9818 156.879 47.8861C155.563 47.7669 154.792 48.2446 154.561 49.3448L154.865 49.3721C155.158 48.4576 155.905 48.0588 157.113 48.1681L157.113 48.1723ZM157.057 50.5331C157.675 50.5077 158 50.3447 158.017 50.0124C158.009 49.8323 157.924 49.6918 157.758 49.5913C157.772 49.6354 157.782 49.6834 157.784 49.7305C157.766 50.0585 157.446 50.226 156.824 50.2511C155.37 50.2693 154.357 50.5668 154.251 52.0074C154.219 52.6504 154.415 53.1562 154.783 53.5144C154.568 53.1913 154.464 52.7795 154.488 52.2941C154.594 50.8536 155.607 50.556 157.061 50.5378L157.057 50.5331ZM157.707 51.6232C157.663 52.4749 157.153 52.9335 156.354 52.8609C156.22 52.8532 156.089 52.8112 155.966 52.7448C156.063 52.9845 156.268 53.1184 156.587 53.1473C157.386 53.2198 157.897 52.7611 157.94 51.9094L157.969 51.3514C157.886 51.3784 157.804 51.405 157.717 51.4315L157.707 51.6274L157.707 51.6232ZM163.097 48.8084L163.111 48.5443L162.904 48.5257C160.994 48.3527 159.963 49.229 159.819 51.1711L159.661 54.2772L159.907 54.2995L160.053 51.4546C160.195 49.5297 161.21 48.6503 163.093 48.8037L163.097 48.8084ZM164.844 47.2383C164.965 47.2493 165.081 47.2937 165.183 47.3715C165.128 47.2573 165.046 47.1598 164.946 47.089C164.844 47.0157 164.728 46.9709 164.611 46.9604L163.868 46.893L163.474 54.6223L163.72 54.6446L164.102 47.1709L164.844 47.2383ZM167.206 49.3941L168.453 49.5072L168.696 49.2684L166.972 49.1122L165.356 50.8141L165.327 51.3762L167.205 49.3986L167.206 49.3941ZM165.68 52.6446C165.717 52.7078 165.755 52.7754 165.788 52.8467L166.7 54.9187L166.814 54.9289L166.021 53.1287C165.911 52.892 165.798 52.732 165.684 52.6448L165.68 52.6446ZM171.429 49.4687C172.144 49.5333 172.7 49.7678 173.098 50.1715C172.697 49.592 172.065 49.2651 171.192 49.1862C169.455 49.0418 168.526 49.9844 168.422 52.0328C168.361 53.2251 168.608 54.1073 169.167 54.6799C168.774 54.1139 168.603 53.3283 168.655 52.3148C168.76 50.2665 169.684 49.3236 171.425 49.4684L171.429 49.4687ZM171.179 54.3828C171.514 54.4132 171.832 54.2925 172.129 54.0327C172.194 53.9657 172.273 53.9173 172.361 53.8866C172.447 53.8561 172.537 53.847 172.629 53.8597L173.364 53.9263C173.397 53.8438 173.426 53.7605 173.45 53.6733L172.393 53.5772C172.299 53.5689 172.21 53.5735 172.123 53.6043C172.037 53.6348 171.961 53.6837 171.893 53.7502C171.599 54.0103 171.276 54.1309 170.941 54.1005C170.691 54.0778 170.484 53.9991 170.321 53.8604C170.495 54.1715 170.778 54.3469 171.174 54.3826L171.179 54.3828Z" fill="white"/>
<path d="M172.145 51.1382L170.338 50.9872C170.314 51.063 170.292 51.1478 170.276 51.2324L172.376 51.4078C172.348 50.9169 172.21 50.5685 171.956 50.3665C172.067 50.5649 172.13 50.8212 172.148 51.1388L172.145 51.1382ZM176.661 49.2439L176.061 49.1937L176.047 49.443L176.647 49.4931L176.661 49.2439ZM176.192 54.0879L176.381 54.1039L176.395 53.8545L175.962 53.8181C175.906 53.8136 175.855 53.8011 175.805 53.7846C175.834 53.9638 175.959 54.0687 176.192 54.0879ZM175.462 47.7392C175.577 47.7487 175.689 47.791 175.78 47.8643C175.727 47.7566 175.649 47.6641 175.554 47.5949C175.457 47.5259 175.347 47.4827 175.232 47.4694L174.505 47.4089L174.142 53.7198C174.109 54.1727 174.217 54.4859 174.465 54.6665C174.379 54.4953 174.349 54.2709 174.369 53.9932L174.732 47.6782L175.462 47.7392ZM180.249 50.981L180.26 51.0063C180.28 51.0697 180.308 51.1297 180.353 51.1786C180.394 51.2311 180.443 51.2722 180.5 51.3018C180.497 51.2921 180.493 51.2823 180.49 51.2722C180.45 51.1496 180.365 51.0439 180.253 50.9772L180.249 50.981ZM179.71 49.6628C180.429 49.7227 180.988 49.9335 181.391 50.2959C181.403 50.305 181.41 50.3181 181.422 50.3272C181.344 50.2181 181.259 50.1165 181.164 50.0266C180.761 49.6642 180.202 49.4532 179.484 49.3932C178.208 49.3072 177.222 49.8207 177.151 51.063C177.127 51.5417 177.287 51.9371 177.618 52.2561C177.439 51.9835 177.355 51.6575 177.377 51.3327C177.449 50.0861 178.431 49.5763 179.711 49.6586L179.71 49.6628Z" fill="white"/>
<path d="M179.566 52.6029C180.453 52.8195 181.057 53.0666 181.396 53.332C181.362 53.2776 181.325 53.2267 181.281 53.1799C180.981 52.8716 180.332 52.5861 179.33 52.3386C178.946 52.2494 178.665 52.1414 178.479 52.0222C178.565 52.2541 178.924 52.4513 179.568 52.5987L179.566 52.6029ZM177.87 54.2076C177.853 54.1253 177.847 54.0399 177.85 53.9587L176.309 53.8782C176.252 54.5168 176.421 55.0129 176.82 55.3629C176.593 55.0423 176.501 54.6356 176.546 54.1422L177.87 54.2116L177.87 54.2076ZM179.261 55.1249C179.898 55.1583 180.227 55.001 180.261 54.6329C180.272 54.5117 180.184 54.3934 180.011 54.2787C180.021 54.3077 180.022 54.3405 180.024 54.3729C179.991 54.7367 179.657 54.8979 179.019 54.8647C178.663 54.8459 178.375 54.7781 178.169 54.6454C178.328 54.9625 178.718 55.1004 179.257 55.1287L179.261 55.1249ZM183.037 50.6238L187.691 50.8673L187.712 50.6201L182.799 50.363L182.757 50.828C182.746 50.9533 182.766 51.0806 182.819 51.1973C182.873 51.3098 182.959 51.4076 183.068 51.4821C183.006 51.3613 182.983 51.2262 182.995 51.0927L183.037 50.6238ZM187.382 55.3465L187.404 55.1L184.627 54.9548L184.362 55.1888L187.382 55.3465ZM185.959 51.9826L185.461 51.9567L182.205 54.9337L182.104 56.0696L182.363 56.0832L182.442 55.198L185.954 51.9864L185.959 51.9826Z" fill="white"/>
<path fill-rule="evenodd" clip-rule="evenodd" d="M187.036 39.9424C186.876 39.9864 186.727 40.0608 186.6 40.1604C186.473 40.2598 186.37 40.3819 186.298 40.5182C186.227 40.6542 186.19 40.8008 186.188 40.9475C186.187 41.0941 186.222 41.2369 186.291 41.3661C186.384 41.5389 186.534 41.68 186.722 41.7711C186.91 41.8626 187.128 41.9003 187.347 41.8796C187.567 41.8576 187.777 41.7807 187.953 41.6556C188.129 41.5309 188.262 41.3601 188.342 41.1723C188.421 40.9847 188.43 40.7843 188.377 40.5947C188.307 40.3434 188.126 40.134 187.874 40.012C187.624 39.8898 187.322 39.8648 187.036 39.9424ZM191.628 38.6797C191.412 38.7391 191.224 38.8482 191.072 39.0051C190.927 39.1598 190.825 39.3472 190.792 39.5414C190.759 39.7356 190.791 39.9308 190.883 40.1034C190.976 40.2763 191.126 40.4173 191.314 40.5088C191.501 40.6001 191.719 40.6378 191.94 40.6169C192.158 40.5953 192.369 40.518 192.544 40.3932C192.721 40.2681 192.855 40.0974 192.934 39.9096C193.012 39.7223 193.022 39.5216 192.969 39.332C192.936 39.2071 192.873 39.0915 192.787 38.9914C192.701 38.8913 192.592 38.8088 192.467 38.7491C192.343 38.6877 192.205 38.6501 192.06 38.6382C191.916 38.6263 191.769 38.6404 191.628 38.6797Z" fill="white"/>
<path fill-rule="evenodd" clip-rule="evenodd" d="M190.263 44.2218C192.81 43.4924 194.966 41.7935 196.267 39.4958C197.566 37.1919 197.901 34.4807 197.2 31.941C196.499 29.4013 194.82 27.239 192.524 25.9336C190.232 24.6137 187.503 24.2627 184.943 24.9419L184.635 25.0269C186.417 24.5957 188.293 24.6977 190.018 25.3123C191.745 25.9265 193.254 27.0316 194.36 28.4902C195.467 29.9487 196.111 31.6962 196.229 33.5215C196.346 35.3472 195.923 37.1673 195.014 38.7576C194.107 40.3476 192.753 41.6434 191.116 42.4787C189.478 43.3141 187.639 43.66 185.812 43.464C183.986 43.2709 182.258 42.5494 180.841 41.3887C179.425 40.2308 178.375 38.6827 177.834 36.9402L177.919 37.2468C178.267 38.5105 178.866 39.6984 179.672 40.7349C180.48 41.7711 181.491 42.6366 182.636 43.2832C183.782 43.9298 185.048 44.348 186.356 44.5054C187.665 44.6625 188.992 44.5659 190.269 44.2137L190.263 44.2218Z" fill="white"/>
<path fill-rule="evenodd" clip-rule="evenodd" d="M189.202 42.4286L189.479 42.3521C187.478 42.8243 185.359 42.4535 183.566 41.3257C181.772 40.1968 180.446 38.3917 179.869 36.2918C179.815 36.0915 179.765 35.8896 179.728 35.6843L178.616 35.9917L178.622 36.0102C178.935 37.1496 179.459 38.2174 180.163 39.1608C180.867 40.0982 181.734 40.8889 182.719 41.4858C183.704 42.0824 184.785 42.4707 185.899 42.6344C187.013 42.798 188.145 42.7277 189.221 42.4302L189.202 42.4286ZM180.812 29.457C181.622 28.1488 182.783 27.1205 184.144 26.4951C185.511 25.8679 187.026 25.6583 188.519 25.9057C190.01 26.1468 191.42 26.8284 192.585 27.8736C193.75 28.9124 194.614 30.27 195.089 31.789L195.008 31.4947C194.538 29.7858 193.599 28.2469 192.315 27.0728C191.028 25.8968 189.45 25.1358 187.779 24.8843C186.109 24.6329 184.42 24.903 182.923 25.6607C181.426 26.4184 180.188 27.63 179.364 29.1434C179.364 29.1434 180.186 28.8017 180.807 29.4651L180.812 29.457Z" fill="white"/>
<path fill-rule="evenodd" clip-rule="evenodd" d="M185.661 38.1674L191.359 35.8124C191.565 35.7286 191.742 35.5862 191.868 35.3979C191.995 35.2156 192.072 34.994 192.08 34.7645L192.339 29.3061C192.339 29.2582 192.331 29.2106 192.314 29.166C192.293 29.1216 192.265 29.0817 192.229 29.0491C192.191 29.0178 192.147 28.9956 192.1 28.9844C192.052 28.9763 192.003 28.9785 191.957 28.9905L181.451 31.8907L180.628 31.0687C180.427 30.8689 180.18 30.7251 179.908 30.6523C179.638 30.5793 179.353 30.5796 179.084 30.6528L173.855 32.0963C173.35 32.2358 172.851 32.4003 172.336 32.4825C171.934 32.5465 171.533 32.7574 171.672 33.2604C171.693 33.339 171.729 33.413 171.778 33.4776C171.828 33.542 171.889 33.5962 171.959 33.6367C172.028 33.6771 172.105 33.7031 172.185 33.7132C172.264 33.7232 172.345 33.7171 172.421 33.6952L178.636 31.9794C178.917 31.9019 179.217 31.9194 179.49 32.0311C179.764 32.1427 179.995 32.3397 180.149 32.5909C180.322 32.8759 180.58 33.097 180.884 33.2214C181.19 33.3457 181.525 33.3664 181.842 33.2801L188.391 31.4719C189.047 31.7787 188.888 32.4643 188.443 32.587L177.987 35.4737C177.582 36.0735 178.071 36.5866 178.516 36.464C182.026 35.4949 184.198 34.882 187.763 33.8978C188.417 34.205 188.259 34.8902 187.814 35.0132L180.387 37.0636C179.981 37.6635 180.468 38.1707 180.914 38.0477L183.07 37.4523L184.426 39.7046C184.562 39.9317 184.767 40.1077 185.01 40.2062C185.252 40.3045 185.519 40.3198 185.77 40.2493L192.435 38.4091C192.557 38.3755 192.66 38.2944 192.722 38.1833C192.783 38.0724 192.799 37.9404 192.765 37.817C192.731 37.6935 192.65 37.5882 192.54 37.5245C192.43 37.4609 192.3 37.444 192.179 37.4773L186.012 39.1798C185.885 39.2151 185.749 39.1992 185.631 39.1312C185.515 39.066 185.425 38.9601 185.379 38.8334C185.337 38.7047 185.337 38.5642 185.396 38.441C185.448 38.3198 185.544 38.2196 185.669 38.172L185.661 38.1674Z" fill="white"/>
</svg>
