<svg width="239" height="69" viewBox="0 0 239 69" fill="none" xmlns="http://www.w3.org/2000/svg">
<path d="M22.276 65.5298C22.3034 66.2379 22.6094 66.9066 23.1263 67.3908C23.3806 67.633 23.6819 67.8191 24.0126 67.9376C24.3433 68.0561 24.6954 68.1042 25.0445 68.0787L108.352 63.5257L108.04 58.0152L22.118 62.7059L22.2716 65.5563" fill="white"/>
<path d="M11.4542 56.0038C11.4849 56.7073 11.7906 57.3706 12.3066 57.8515C12.5563 58.0956 12.8544 58.284 13.1834 58.4047C13.511 58.5252 13.8602 58.5746 14.2091 58.5503L107.856 53.4398L107.559 47.9318L11.3626 53.1909L11.5163 56.0414" fill="white"/>
<path d="M0.596464 46.4721C0.606697 46.8216 0.68767 47.1654 0.834438 47.483C0.981213 47.8005 1.18933 48.085 1.44898 48.32C1.70047 48.562 2.0003 48.7483 2.32826 48.8664C2.65623 48.9846 3.00574 49.0319 3.35493 49.0057L107.248 43.3357L106.936 37.8253L0.426147 43.6463L0.589818 46.5121" fill="white"/>
<path d="M235.464 42.6313C234.137 41.8262 232.75 41.0653 231.288 40.3329C228.337 38.8403 225.29 37.5433 222.17 36.4508C214.889 33.8797 207.249 32.404 201.144 32.7599L101.942 38.2679C101.704 38.342 101.45 38.3556 101.206 38.3083L45.828 41.4387L45.7356 41.4233L45.2347 41.4215C44.0665 41.4948 42.9624 41.9887 42.1257 42.8126C41.2892 43.6363 40.7754 44.7349 40.678 45.9071C40.5819 47.0792 40.9083 48.2465 41.5993 49.195C42.2902 50.1435 43.2989 50.8098 44.4406 51.0718C62.2275 57.9598 97.4618 64.6955 112.395 63.8666L202.469 58.8361C216.531 58.0524 229.373 55.1632 234.79 52.7636C235.826 52.425 236.737 51.7825 237.405 50.9192C238.075 50.0562 238.471 49.0118 238.544 47.9213C238.615 46.8305 238.36 45.7434 237.812 44.8007C237.263 43.8576 236.444 43.102 235.464 42.6313Z" fill="#CE1C31"/>
<path d="M223.52 36.947L222.161 36.7207L213.885 36.8693L214.219 40.9827L231.445 40.4035C229.407 39.3231 226.502 37.9463 223.52 36.947Z" fill="#3A383E"/>
<path d="M212.235 36.8829L208.146 37.044L208.437 41.1369L212.526 40.9758L212.235 36.8829Z" fill="#3A383E"/>
<path d="M63.9396 57.0164C81.3903 61.2619 101.844 64.4528 112.326 63.9062L202.401 59.1489C216.461 58.4074 229.297 55.5858 234.708 53.23C235.851 52.866 236.838 52.1362 237.515 51.1552C238.193 50.1748 238.522 48.9979 238.452 47.8092L63.9396 57.0164Z" fill="#3A383E"/>
<path d="M70.0478 58.8624L238.438 48.5531C238.755 47.3717 238.694 46.1202 238.262 44.9858L58.601 55.5605C62.2685 56.575 66.0875 57.9802 70.0478 58.8624Z" fill="white"/>
<path d="M144.781 67.1161L162.906 66.3392L162.219 56.0586L144.095 56.8226L139.063 58.6139L139.555 65.8705L144.781 67.1161Z" fill="#CE1C31"/>
<path d="M156.108 39.7664C155.428 39.8021 154.772 40.0386 154.227 40.4467C153.682 40.8546 153.269 41.4152 153.042 42.0577C152.815 42.7001 152.784 43.3955 152.952 44.0556C153.12 44.7159 153.482 45.3114 153.988 45.7665C154.496 46.2217 155.127 46.5163 155.8 46.6123C156.475 46.7089 157.163 46.6031 157.777 46.3083C158.392 46.0137 158.904 45.5432 159.252 44.9568C159.598 44.37 159.763 43.6938 159.726 43.0136C159.675 42.1037 159.266 41.2511 158.588 40.6424C157.91 40.0338 157.018 39.7185 156.108 39.7664Z" fill="white"/>
<path d="M144.404 47.5084C146.279 47.8205 148.052 46.5532 148.364 44.6776C148.677 42.8022 147.41 41.0285 145.534 40.7162C143.658 40.4038 141.885 41.6712 141.573 43.5468C141.261 45.4224 142.528 47.196 144.404 47.5084Z" fill="white"/>
<path d="M133.469 41.5815C132.789 41.6172 132.134 41.8539 131.589 42.262C131.044 42.67 130.631 43.2306 130.404 43.873C130.177 44.5156 130.146 45.2108 130.313 45.871C130.481 46.531 130.842 47.1266 131.349 47.5816C131.857 48.0371 132.488 48.3314 133.162 48.4277C133.837 48.5244 134.525 48.4186 135.139 48.1237C135.753 47.8288 136.266 47.3586 136.614 46.7722C136.96 46.1853 137.125 45.5093 137.086 44.8285C137.037 43.9191 136.627 43.0664 135.95 42.4578C135.27 41.8488 134.38 41.5339 133.469 41.5815Z" fill="white"/>
<path d="M120.777 42.2665C120.096 42.3042 119.444 42.5432 118.9 42.952C118.356 43.361 117.945 43.9221 117.721 44.5646C117.496 45.2066 117.467 45.9012 117.636 46.56C117.805 47.219 118.167 47.8129 118.674 48.2666C119.182 48.7204 119.812 49.014 120.486 49.1097C121.161 49.2055 121.847 49.0995 122.462 48.805C123.075 48.5104 123.587 48.0405 123.933 47.4549C124.28 46.8694 124.446 46.1942 124.408 45.5149C124.386 45.0625 124.273 44.6191 124.078 44.2106C123.882 43.8018 123.608 43.4361 123.27 43.1338C122.933 42.8319 122.538 42.5996 122.11 42.4507C121.681 42.3015 121.229 42.2392 120.777 42.2665Z" fill="white"/>
<path d="M155.946 45.2413C157.071 45.4285 158.136 44.6683 158.323 43.5431C158.51 42.4175 157.75 41.3533 156.625 41.166C155.5 40.9788 154.435 41.7391 154.248 42.8645C154.06 43.9898 154.821 45.054 155.946 45.2413Z" fill="#3A383E"/>
<path d="M144.627 46.1493C145.752 46.3366 146.816 45.5761 147.004 44.4508C147.191 43.3255 146.43 42.2611 145.305 42.0739C144.18 41.8866 143.116 42.6471 142.928 43.7724C142.741 44.8976 143.502 45.962 144.627 46.1493Z" fill="#3A383E"/>
<path d="M133.308 47.0567C134.432 47.244 135.497 46.4837 135.684 45.3583C135.872 44.233 135.11 43.1685 133.986 42.9815C132.862 42.7943 131.797 43.5545 131.609 44.6797C131.421 45.805 132.183 46.8694 133.308 47.0567Z" fill="#3A383E"/>
<path d="M120.629 47.7382C121.754 47.9255 122.818 47.165 123.006 46.0398C123.193 44.9145 122.432 43.85 121.307 43.6627C120.182 43.4755 119.118 44.236 118.931 45.3612C118.743 46.4865 119.504 47.5509 120.629 47.7382Z" fill="#3A383E"/>
<path d="M139.691 62.4835L139.958 65.9594L145.063 67.1632L162.751 66.5303L162.381 61.67L139.691 62.4835Z" fill="#3A383E"/>
<path d="M158.079 61.4343C158.119 62.0608 157.894 62.6714 157.454 63.133C157.013 63.5945 156.394 63.8696 155.729 63.8977L111.664 65.7334C111.335 65.7473 111.006 65.6996 110.692 65.5929C110.38 65.4863 110.092 65.3231 109.845 65.1128C109.597 64.9023 109.395 64.6486 109.251 64.3667C109.106 64.0845 109.021 63.7792 109.001 63.4685C108.977 63.1583 109.02 62.8482 109.124 62.5557C109.229 62.2635 109.396 61.995 109.613 61.7656C109.83 61.5362 110.094 61.3506 110.391 61.2198C110.687 61.0889 111.009 61.0152 111.338 61.0027L155.402 59.1671C156.068 59.1428 156.723 59.3673 157.224 59.7918C157.725 60.2162 158.033 60.8067 158.079 61.4343Z" fill="white"/>
<path d="M106.893 38.7954C105.367 39.5746 77.6706 32.4364 77.6706 32.4364L46.071 0.0214844L35.6884 0.582491L48.8833 41.9954L106.893 38.7954Z" fill="#CE1C31"/>
<path d="M59.2043 47.8502L60.596 47.6828L62.6485 52.8492L63.3797 47.3483L65.5118 47.092L66.3533 54.0935L65.004 54.2557L64.3246 48.6036L63.574 54.4315L62.1129 54.6072L60.0026 49.1231L60.6825 54.779L59.3331 54.9413L58.5814 48.6877C58.5331 48.2868 58.811 47.8974 59.212 47.8493L59.2043 47.8502ZM67.99 49.8135L66.6213 49.978C66.6657 48.948 67.3158 48.3692 68.5727 48.2181C70.0763 48.0374 70.899 48.4391 71.0513 49.4455L71.2742 51.3C71.4549 52.8036 70.6296 53.5834 69.1688 53.8606C67.8743 54.1219 66.895 53.6216 66.75 52.4148C66.6237 51.1042 67.53 50.6393 68.8941 50.3385C69.4712 50.1948 69.7511 49.9851 69.715 49.6844C69.6466 49.3758 69.3393 49.2602 68.7726 49.3283C68.2868 49.3867 68.0356 49.5421 67.9935 49.8092L67.99 49.8135ZM69.9366 51.3983L69.876 50.8931C69.5423 51.078 69.1894 51.2338 68.8243 51.352C68.2893 51.5219 68.0428 51.8136 68.0909 52.2146C68.1736 52.6427 68.4262 52.8235 68.858 52.7716C69.6175 52.6803 70.0293 52.1693 69.9366 51.3983ZM71.8526 50.5812C71.6833 48.8142 72.5149 47.8264 74.3386 47.6072L74.5352 47.5836L74.7062 49.0062L74.2436 49.0619C73.4802 49.1536 73.1505 49.6 73.246 50.3942L73.5866 53.2279L72.1948 53.3953L71.8565 50.5808L71.8526 50.5812ZM76.4373 46.4553L76.8002 49.4741L78.2562 47.3357L79.9025 47.1378L78.2601 49.3847L80.5534 52.3905L78.9071 52.5883L77.7239 50.9119C77.5134 50.6244 77.3175 50.4915 77.144 50.5123C77.0793 50.5279 77.0252 50.5657 76.9927 50.6204C76.9563 50.6757 76.9444 50.7397 76.96 50.8043L77.1992 52.7937L75.8305 52.9583L74.9884 45.9529L75.6978 45.8676C75.8734 45.8494 76.0492 45.9008 76.1874 46.0107C76.3257 46.1205 76.4153 46.2802 76.4373 46.4553Z" fill="white"/>
<path d="M82.8984 52.2292C81.2461 52.3769 80.3056 51.5161 80.0827 49.6616C79.8598 47.8071 80.5814 46.7817 82.2416 46.5704C83.9728 46.3623 84.9137 47.3248 85.0658 49.4694L81.5419 49.893C81.6922 50.7197 82.1056 51.1003 82.7764 51.0196C83.0965 50.9812 83.3771 50.8105 83.6159 50.5198C83.6658 50.4473 83.7331 50.3884 83.8099 50.3439C83.8867 50.2995 83.9697 50.2739 84.0588 50.267L85.0689 50.1456C84.9106 51.3341 84.2434 52.0635 82.9056 52.2244L82.8984 52.2292ZM81.4441 48.9152L83.4951 48.6687C83.3274 47.9574 82.9399 47.6285 82.3538 47.699C81.7678 47.7695 81.4615 48.1817 81.4441 48.9152ZM86.9614 47.0826L86.8187 47.0997L87.1816 50.1185C87.209 50.346 87.3582 50.4493 87.6243 50.4174L88.0483 50.3664L88.1735 51.4073C87.7005 51.5072 87.2143 51.5617 86.7302 51.5691C86.2075 51.581 85.9223 51.2907 85.8606 50.6802L85.1456 44.7312L85.8549 44.646C86.2135 44.6028 86.5542 44.8982 86.5972 45.2568L86.701 46.1205L87.5261 46.0213L87.5618 46.3181C87.5724 46.4068 87.5676 46.4973 87.547 46.5859C87.5225 46.6749 87.4812 46.7541 87.4274 46.8271C87.3732 46.8962 87.3021 46.9556 87.2214 47.0005C87.1407 47.0454 87.0539 47.0714 86.9648 47.0783L86.9614 47.0826ZM91.0156 50.127C91.5939 50.0575 91.863 49.8569 91.8209 49.5061C91.7875 49.2285 91.2859 49.0581 90.3292 49.0049C89.096 48.9302 88.4152 48.4723 88.3046 47.6173C88.1633 46.4414 89.0218 45.775 90.2687 45.6055C90.9704 45.5213 91.5441 45.6087 91.9937 45.8675C92.4332 46.1393 92.7023 46.5568 92.8012 47.1198L91.9376 47.2236C91.6162 47.2505 91.3985 47.1633 91.2878 46.9576C91.1664 46.7297 90.8731 46.6319 90.4181 46.6866C89.8822 46.751 89.6333 46.9257 89.6672 47.2071C89.7011 47.4886 90.0736 47.6589 90.803 47.7081C91.7506 47.7819 92.3885 47.9478 92.7187 48.1897C92.8591 48.3023 92.9754 48.4418 93.0609 48.6002C93.1465 48.7585 93.1995 48.9323 93.2167 49.1115C93.3775 50.4493 92.3843 51.0694 90.9423 51.2427C90.179 51.3344 89.5845 51.2377 89.1722 50.9627C88.7226 50.7038 88.4612 50.2541 88.3857 49.6258L89.7852 49.4575C89.8878 50.0513 90.3447 50.2077 91.0156 50.127ZM93.5823 45.743L93.529 45.2997L97.9897 44.7635L98.1301 45.928L95.6069 49.3757L98.5828 49.0177L98.7253 50.2015L94.0142 50.7678L93.884 49.6844L96.4112 46.111L94.3602 46.3575C94.2682 46.3701 94.1747 46.3641 94.0852 46.34C93.9956 46.3158 93.9118 46.2739 93.8387 46.2168C93.7653 46.1592 93.7059 46.0881 93.6605 46.0036C93.6157 45.9229 93.5891 45.8322 93.5819 45.7392L93.5823 45.743ZM63.6412 47.5546L65.5381 47.3267L65.5118 47.092L63.3797 47.3483L62.6954 52.5065L62.9144 53.059L63.6417 47.5585L63.6412 47.5546ZM59.4658 48.0566L60.6841 47.9101L60.596 47.6828L59.2043 47.8502C58.8033 47.8984 58.5231 48.2833 58.5717 48.6882L59.323 54.9378L59.5581 54.9096L58.8352 48.895C58.7869 48.4941 59.0648 48.1048 59.4658 48.0566Z" fill="white"/>
<path d="M64.4653 49.7732L65.004 54.2557L65.2394 54.2288L64.5883 48.8119L64.4653 49.7732ZM60.3464 50.0297L62.1093 54.6089L62.2866 54.5875L60.2625 49.3318L60.3464 50.0297ZM68.8403 48.4259C69.6577 48.3277 70.269 48.4028 70.6859 48.6499C70.288 48.2362 69.5865 48.0937 68.5764 48.2151C67.3195 48.3663 66.6694 48.945 66.6251 49.975L66.9142 49.9403C67.0474 49.0638 67.687 48.5606 68.8398 48.422L68.8403 48.4259ZM69.1582 50.5506C69.7355 50.4069 70.0153 50.1972 69.9792 49.8965C69.9443 49.7364 69.8413 49.6275 69.6701 49.5699C69.6902 49.6066 69.7068 49.6476 69.7158 49.6896C69.7514 49.9865 69.4759 50.1994 68.8948 50.3437C67.5308 50.6445 66.6245 51.1093 66.7507 52.4201C66.8207 53.0022 67.0856 53.4162 67.4871 53.6652C67.2344 53.4179 67.0714 53.0699 67.0185 52.6304C66.8923 51.3196 67.7985 50.8548 69.1626 50.5539L69.1582 50.5506ZM69.9408 51.399C70.0334 52.1702 69.6255 52.6807 68.8622 52.7725C68.7354 52.7916 68.6049 52.7799 68.4793 52.7442C68.6085 52.9399 68.8214 53.0199 69.126 52.9832C69.8894 52.8915 70.2974 52.3809 70.2047 51.6098L70.144 51.1048C70.0706 51.1449 69.9972 51.185 69.9199 51.2256L69.9412 51.4029L69.9408 51.399ZM74.5681 47.8234L74.5394 47.5845L74.3427 47.6081C72.5191 47.8272 71.6872 48.8138 71.8565 50.5808L72.1947 53.3927L72.4298 53.3644L72.1202 50.789C71.9528 49.0374 72.769 48.0515 74.5638 47.8201L74.5681 47.8234ZM75.9654 46.0754C76.0811 46.0615 76.1966 46.0789 76.3043 46.1286C76.2352 46.0371 76.143 45.9657 76.0369 45.9221C75.9297 45.8763 75.8142 45.8589 75.7024 45.8723L74.9931 45.9577L75.8342 52.9552L76.0693 52.927L75.2561 46.1606L75.9654 46.0754ZM78.5238 47.5435L79.7152 47.4004L79.9066 47.1387L78.2604 47.3366L77.0071 49.1769L77.0683 49.6858L78.5242 47.5474L78.5238 47.5435ZM77.5992 50.7523C77.6443 50.8016 77.6898 50.8548 77.7319 50.9124L78.9151 52.5888L79.0231 52.5758L77.9953 51.1193C77.8552 50.9288 77.7233 50.8078 77.6031 50.7518L77.5992 50.7523ZM82.5078 46.783C83.1902 46.701 83.7499 46.802 84.1869 47.0857C83.7194 46.6452 83.0733 46.4765 82.2405 46.5766C80.584 46.7874 79.8587 47.8133 80.0815 49.6678C80.2113 50.7472 80.582 51.4889 81.1977 51.892C80.7392 51.4621 80.4553 50.7923 80.345 49.8747C80.1221 48.0202 80.8437 46.9948 82.504 46.7835L82.5078 46.783ZM83.0426 51.2322C83.3626 51.1938 83.6433 51.0231 83.8821 50.7324C83.932 50.6599 83.9993 50.6009 84.0761 50.5565C84.1528 50.5121 84.2359 50.4865 84.3249 50.4797L85.0266 50.3953C85.0444 50.315 85.0583 50.2351 85.0677 50.1518L84.0577 50.2732C83.969 50.2839 83.8855 50.3056 83.8087 50.3501C83.732 50.3945 83.6686 50.4529 83.6148 50.5259C83.3798 50.8163 83.0953 50.9873 82.7753 51.0257C82.5362 51.0544 82.3293 51.0247 82.154 50.9322C82.3671 51.1765 82.6609 51.2781 83.0387 51.2327L83.0426 51.2322Z" fill="white"/>
<path d="M83.4925 48.6684L81.7267 48.8806C81.7163 48.9562 81.7106 49.039 81.7088 49.1214L83.7599 48.8748C83.6507 48.4226 83.4585 48.1249 83.1798 47.9863C83.3206 48.1493 83.4247 48.376 83.4951 48.6687L83.4925 48.6684ZM87.5196 46.0214L86.9336 46.0919L86.9619 46.327L87.5479 46.2566L87.5196 46.0214ZM87.8856 50.6278L88.0706 50.6056L88.0424 50.3704L87.6183 50.4213C87.5644 50.4278 87.5133 50.4261 87.4618 50.4206C87.5203 50.5817 87.6581 50.6551 87.8856 50.6278ZM86.112 44.853C86.2238 44.8396 86.3393 44.857 86.4393 44.9076C86.3701 44.8176 86.2794 44.7463 86.1754 44.7008C86.0715 44.6551 85.9577 44.6365 85.8447 44.6466L85.1354 44.7318L85.8508 50.6847C85.8946 51.1135 86.0523 51.384 86.3209 51.5042C86.2099 51.3611 86.1424 51.1581 86.1148 50.8955L85.3988 44.9388L86.112 44.853ZM91.2674 46.9399L91.2818 46.9616C91.3119 47.0167 91.3492 47.0669 91.4005 47.1037C91.4485 47.1449 91.5029 47.1736 91.5634 47.1898C91.5578 47.1817 91.5529 47.1731 91.5486 47.1642C91.4889 47.0579 91.3891 46.9761 91.2709 46.9355L91.2674 46.9399ZM90.5262 45.8165C91.2278 45.7322 91.8015 45.8196 92.2512 46.0784C92.2637 46.0848 92.2727 46.0954 92.2853 46.1018C92.1927 46.0151 92.0934 45.9371 91.9877 45.8716C91.5381 45.6127 90.9644 45.5253 90.2627 45.6096C89.0197 45.7785 88.1577 46.4493 88.2987 47.6213C88.3567 48.0719 88.5772 48.4091 88.9494 48.6421C88.7314 48.4227 88.5948 48.1357 88.5621 47.8283C88.4207 46.6523 89.2793 45.9859 90.5257 45.8126L90.5262 45.8165Z" fill="white"/>
<path d="M91.0641 47.9158C91.9009 47.9795 92.4922 48.1157 92.8482 48.3115C92.8075 48.2656 92.7634 48.2239 92.7158 48.1865C92.3857 47.9446 91.7477 47.7789 90.8002 47.705C90.4375 47.6821 90.1647 47.6249 89.9749 47.5422C90.0973 47.7465 90.4569 47.8754 91.0636 47.912L91.0641 47.9158ZM89.8539 49.6922C89.8215 49.6179 89.8002 49.5383 89.7871 49.4617L88.3876 49.6299C88.4608 50.239 88.7092 50.6786 89.1362 50.944C88.8696 50.6788 88.7081 50.3111 88.6515 49.8407L89.8544 49.6961L89.8539 49.6922ZM91.2804 50.3342C91.8588 50.2647 92.1242 50.0647 92.082 49.7138C92.0681 49.5982 91.9664 49.5009 91.7886 49.4205C91.8034 49.4461 91.811 49.4765 91.8185 49.5069C91.8602 49.8539 91.5915 50.0583 91.0132 50.1278C90.6894 50.1667 90.4173 50.1486 90.2067 50.0566C90.4115 50.3292 90.7875 50.3975 91.2771 50.3386L91.2804 50.3342ZM93.794 45.507L98.0197 44.9991L97.9897 44.7635L93.529 45.2997L93.5823 45.743C93.5966 45.8626 93.6395 45.9792 93.7103 46.0802C93.7806 46.1774 93.8761 46.2559 93.9881 46.3089C93.9092 46.2049 93.8629 46.0814 93.8477 45.9541L93.794 45.507ZM98.6138 49.2573L98.5848 49.0219L96.0638 49.3252L95.8723 49.5867L98.6138 49.2573ZM96.6805 46.3215L96.2294 46.3758L93.8859 49.6887L94.0162 50.772L94.2513 50.7437L94.1499 49.8994L96.6771 46.3259L96.6805 46.3215Z" fill="white"/>
<path fill-rule="evenodd" clip-rule="evenodd" d="M63.3689 38.0884C63.2319 38.1408 63.1082 38.2229 63.0065 38.3288C62.9049 38.4346 62.828 38.5617 62.7813 38.7008C62.7347 38.8399 62.7194 38.9876 62.7366 39.1334C62.7538 39.2791 62.8031 39.4193 62.8809 39.5436C62.9857 39.7103 63.1376 39.8421 63.3173 39.9225C63.4969 40.0029 63.6964 40.0284 63.8905 39.9958C64.0836 39.962 64.2626 39.8738 64.4043 39.74C64.5459 39.6063 64.6445 39.4292 64.6913 39.2385C64.7383 39.0479 64.7219 38.8481 64.6511 38.6625C64.5564 38.417 64.3685 38.2188 64.1283 38.1113C63.8881 38.0038 63.6152 37.9955 63.3689 38.0884ZM67.3192 36.5817C67.1336 36.6525 66.9795 36.7712 66.8628 36.9353C66.7517 37.0972 66.6852 37.2887 66.6797 37.4835C66.6743 37.6782 66.7277 37.8705 66.8311 38.037C66.936 38.2036 67.0878 38.3354 67.2675 38.4159C67.4471 38.4963 67.6466 38.5218 67.8407 38.4891C68.0338 38.4553 68.2128 38.3672 68.3545 38.2334C68.4962 38.0996 68.5947 37.9226 68.6416 37.7319C68.6885 37.5412 68.6722 37.3415 68.6013 37.1558C68.5552 37.0339 68.4853 36.9222 68.3956 36.8275C68.3058 36.7327 68.1981 36.657 68.0787 36.6044C67.96 36.5503 67.8316 36.5205 67.7012 36.5165C67.5709 36.5126 67.441 36.5349 67.3192 36.5817Z" fill="white"/>
<path fill-rule="evenodd" clip-rule="evenodd" d="M66.6604 42.0909C69.0067 41.1694 70.8945 39.3597 71.9163 37.0564C72.9359 34.7473 73.0034 32.1368 72.1052 29.7818C71.2069 27.4266 69.416 25.5184 67.1199 24.4805C64.8251 23.4289 62.2058 23.3382 59.8419 24.2132L59.5576 24.3217C61.2075 23.7522 62.9946 23.6818 64.6872 24.1127C66.3797 24.5435 67.9123 25.4607 69.0952 26.7504C70.2781 28.04 71.0501 29.646 71.33 31.3731C71.61 33.1002 71.3751 34.8708 70.661 36.4654C69.947 38.06 68.7824 39.4144 67.3076 40.3556C65.8327 41.2969 64.1206 41.7905 62.3707 41.7669C60.6218 41.7461 58.9172 41.2136 57.4676 40.235C56.019 39.2592 54.8814 37.8792 54.2075 36.2691L54.3159 36.5533C54.7628 37.7251 55.4396 38.8026 56.2999 39.7169C57.1603 40.6312 58.1977 41.3651 59.3435 41.8783C60.4894 42.3914 61.7278 42.6766 62.9828 42.7095C64.2379 42.7424 65.4865 42.532 66.664 42.0828L66.6604 42.0909Z" fill="white"/>
<path fill-rule="evenodd" clip-rule="evenodd" d="M65.5866 40.8599L65.8592 40.7559C63.8895 41.4274 61.7365 41.3051 59.8518 40.4226C57.9662 39.5391 56.4979 37.957 55.7572 36.0109C55.6864 35.8253 55.6214 35.6374 55.5681 35.4452L54.4775 35.8611L54.4842 35.8785C54.8868 36.9342 55.4938 37.8987 56.2738 38.7242C57.0515 39.5438 57.9817 40.2056 59.0154 40.6685C60.0491 41.1314 61.1623 41.3846 62.2916 41.4189C63.4209 41.4533 64.5505 41.2616 65.6062 40.859L65.5866 40.8599ZM56.1734 29.3672C56.8845 28.0261 57.969 26.9148 59.2851 26.1671C60.6069 25.417 62.1083 25.0503 63.6245 25.1232C65.1384 25.1904 66.604 25.6879 67.8535 26.5601C69.101 27.4265 70.0719 28.631 70.6662 30.0322L70.5623 29.7595C69.9582 28.1759 68.8977 26.8064 67.5195 25.8237C66.1388 24.8396 64.4988 24.2842 62.8042 24.2269C61.1109 24.1696 59.4384 24.6134 57.9963 25.5027C56.5542 26.3919 55.4067 27.6871 54.6975 29.2257C54.6975 29.2257 55.4953 28.8085 56.1698 29.3751L56.1734 29.3672Z" fill="white"/>
<path fill-rule="evenodd" clip-rule="evenodd" d="M61.7281 36.2895L67.0843 33.4693C67.2785 33.3686 67.4389 33.2144 67.5446 33.0213C67.6526 32.834 67.708 32.6135 67.6966 32.3919L67.4738 27.1214C67.4705 27.0753 67.4579 27.0304 67.4367 26.9893C67.4134 26.9485 67.3818 26.913 67.3439 26.8853C67.3043 26.8589 67.2592 26.842 67.2121 26.8359C67.165 26.8327 67.1178 26.8394 67.0734 26.8555L57.073 30.6697L56.1978 29.9603C55.9846 29.7879 55.73 29.6742 55.4593 29.6306C55.1886 29.587 54.9112 29.6149 54.6546 29.7117L49.6776 31.61C49.1962 31.7936 48.7235 32.0004 48.228 32.1297C47.8412 32.2306 47.4684 32.4725 47.6476 32.9424C47.6749 33.0159 47.7167 33.0832 47.7703 33.1405C47.8239 33.1978 47.8884 33.2438 47.96 33.2758C48.0316 33.3079 48.1089 33.3254 48.1873 33.3273C48.2657 33.3291 48.3437 33.3155 48.4168 33.2868L54.3335 31.0302C54.6003 30.9284 54.8945 30.9159 55.1711 30.9964C55.4476 31.077 55.6906 31.2435 55.8633 31.47C56.0563 31.7269 56.3274 31.9142 56.636 32.0038C56.9446 32.0935 57.2739 32.0805 57.5744 31.9669L63.8102 29.5885C64.4763 29.8194 64.3812 30.4936 63.9578 30.6551L54.0038 34.4516C53.6607 35.0675 54.1828 35.5129 54.6062 35.3514C57.9474 34.077 60.0138 33.2756 63.4072 31.9814C64.0733 32.2124 63.9783 32.8865 63.5549 33.048L56.4838 35.7448C56.1407 36.3608 56.6605 36.8005 57.084 36.6389L59.1374 35.8557L60.6565 37.8876C60.8091 38.0924 61.0245 38.2416 61.27 38.3124C61.5153 38.3832 61.7771 38.3717 62.0154 38.2796L68.3613 35.8593C68.4767 35.8152 68.5698 35.7272 68.6203 35.6146C68.6708 35.5018 68.6744 35.3736 68.6304 35.2583C68.5864 35.1429 68.4983 35.0497 68.3856 34.9993C68.273 34.9488 68.1448 34.9452 68.0294 34.9892L62.1592 37.2281C62.0373 37.2746 61.9036 37.2724 61.7835 37.2186C61.6639 37.1673 61.567 37.0744 61.511 36.9571C61.4587 36.8375 61.447 36.7023 61.4928 36.5786C61.5328 36.457 61.6188 36.3512 61.7361 36.2931L61.7281 36.2895Z" fill="white"/>
</svg>
