<svg width="26" height="22" viewBox="0 0 26 22" fill="none" xmlns="http://www.w3.org/2000/svg">
<path d="M21.3084 7.50635H0.313399V20.7042H21.3084V7.50635Z" fill="#BC7C46"/>
<path fill-rule="evenodd" clip-rule="evenodd" d="M0.034668 7.50635C0.034668 7.35635 0.15946 7.23475 0.313399 7.23475H21.3084C21.4624 7.23475 21.5871 7.35635 21.5871 7.50635V20.7042C21.5871 20.8542 21.4624 20.9758 21.3084 20.9758H0.313399C0.15946 20.9758 0.034668 20.8542 0.034668 20.7042V7.50635ZM0.59213 7.77796V20.4325H21.0297V7.77796H0.59213Z" fill="#263238"/>
<path d="M21.3084 7.50635H0.313399L3.7493 1.29519H24.7428L21.3084 7.50635Z" fill="#F9C98A"/>
<path fill-rule="evenodd" clip-rule="evenodd" d="M3.50395 1.16632C3.55258 1.0784 3.64681 1.02359 3.7493 1.02359H24.7428C24.8409 1.02359 24.9318 1.07386 24.9821 1.15595C25.0324 1.23804 25.0347 1.33985 24.9882 1.42402L21.5538 7.63518C21.5052 7.72312 21.4109 7.77796 21.3084 7.77796H0.313399C0.215271 7.77796 0.124372 7.72768 0.0740726 7.64558C0.0237728 7.56347 0.0214832 7.46165 0.0680444 7.37748L3.50395 1.16632ZM3.9157 1.5668L0.780293 7.23475H21.142L24.276 1.5668H3.9157Z" fill="#263238"/>
<path fill-rule="evenodd" clip-rule="evenodd" d="M2.296 4.59688H2.14477V4.05367H2.296V4.59688Z" fill="#263238"/>
<path fill-rule="evenodd" clip-rule="evenodd" d="M22.7799 4.59688H2.59543V4.05367H22.7799V4.59688Z" fill="#263238"/>
<path fill-rule="evenodd" clip-rule="evenodd" d="M23.0808 4.59688H22.9296V4.05367H23.0808V4.59688Z" fill="#263238"/>
<path d="M24.7428 1.29519V14.2819L21.3084 20.7042V7.50635L24.7428 1.29519Z" fill="#DDA866"/>
<path d="M24.7428 1.29519V14.2819L21.3084 20.7042V7.50635L24.7428 1.29519Z" fill="black"/>
<path d="M24.7428 1.29519V14.2819L21.3084 20.7042V7.50635L24.7428 1.29519Z" fill="black"/>
<path fill-rule="evenodd" clip-rule="evenodd" d="M24.811 1.03184C24.9348 1.06227 25.0215 1.17077 25.0215 1.29519V14.2819C25.0215 14.3256 25.0107 14.3687 24.99 14.4074L21.5556 20.8297C21.4963 20.9406 21.3668 20.9977 21.2421 20.968C21.1174 20.9382 21.0297 20.8293 21.0297 20.7042V7.50635C21.0297 7.46138 21.0411 7.41711 21.063 7.37752L24.4974 1.16636C24.558 1.05683 24.6872 1.0014 24.811 1.03184ZM21.5871 7.57487V19.5952L24.4641 14.2154V2.37188L21.5871 7.57487Z" fill="#263238"/>
<path d="M8.8457 7.50635H11.8446L15.0718 1.29519H12.0714L8.8457 7.50635Z" fill="white"/>
<path fill-rule="evenodd" clip-rule="evenodd" d="M11.9001 1.02359H15.5253L12.0158 7.77796H8.39225L11.9001 1.02359ZM12.2427 1.5668L9.29914 7.23475H11.6733L14.6182 1.5668H12.2427Z" fill="#263238"/>
<path d="M11.8657 13.0109L10.3943 11.9818L8.8457 13.0109V7.50635H11.8657V13.0109Z" fill="white"/>
<path fill-rule="evenodd" clip-rule="evenodd" d="M8.56696 7.23475H12.1445V13.5402L10.3902 12.3133L8.56696 13.5249V7.23475ZM9.12443 7.77796V12.497L10.3984 11.6504L11.587 12.4817V7.77796H9.12443Z" fill="#263238"/>
</svg>
