<svg width="40" height="25" viewBox="0 0 40 25" fill="none" xmlns="http://www.w3.org/2000/svg">
<path d="M0 4.61525L3.86117 24.9595L21.757 24.7026L24.5525 4.48682L0 4.61525Z" fill="#FFB652"/>
<path d="M8.41932 23.3801L7.26069 22.8363L6.99017 20.56C8.82921 20.4398 8.14879 17.6061 8.14879 17.6061L6.81255 17.6307L6.69232 18.3002L7.37547 18.5106C7.37547 18.5106 6.44912 19.6091 6.42999 19.62C6.41086 19.6309 6.83168 18.6472 6.83168 18.6472L6.22231 18.4696L6.53109 17.6334L4.98444 17.6607C4.98444 17.6607 4.82322 20.3961 6.69505 20.5546C6.7579 21.3661 6.84535 22.5302 6.86721 22.839C6.49284 23.0194 5.71404 23.3965 5.69765 23.3965L8.41385 23.3773L8.41932 23.3801Z" fill="#245472"/>
<path d="M14.0049 20.8357L21.1834 20.6799V21.5626H14.0049V20.8384V20.8357ZM14.0049 22.8496H21.1834V21.967L14.0049 22.1227V22.8469V22.8496Z" fill="#245472"/>
<path d="M3.98584 10.9163C3.98584 10.9163 4.3848 15.1764 4.42852 15.1764H12.8832L13.2603 10.9163H3.98584Z" fill="white"/>
<path d="M4.54492 11.3817L4.59684 12.0293H7.55899V11.4883L4.54492 11.3817Z" fill="#245472"/>
<path d="M4.71387 12.4552V12.7257L8.53952 12.6547V12.4197L4.71387 12.4552Z" fill="#245472"/>
<path d="M4.71387 12.8953V13.1658L8.53952 13.0947V12.8597L4.71387 12.8953Z" fill="#245472"/>
<path d="M9.91943 14.0376H12.4471L12.3678 14.3819L9.91943 14.3191V14.0376Z" fill="#245472"/>
<path d="M10.146 14.4833H12.2228L12.1545 14.7647L10.146 14.7128V14.4833Z" fill="#245472"/>
<path d="M10.752 4.57129L11.3422 9.73319L12.2767 8.74125L13.1075 9.78784L13.6294 8.94346C13.6294 8.94346 14.4246 10.124 14.5175 10.0584C14.6104 9.99279 15.1924 9.04457 15.1924 9.04457L16.3565 10.0611L16.8156 4.48932L10.7547 4.57403L10.752 4.57129Z" fill="#EA5C4C"/>
<path d="M19.9688 0.286929L22.2641 24.9569L38.8319 24.8121L39.8922 0L19.9688 0.286929Z" fill="#8BB7E4"/>
<path d="M26.312 16.9799C24.4675 16.8815 24.3035 19.0129 24.3008 19.7452C24.3008 19.7917 24.3636 19.8054 24.3828 19.7616C24.4811 19.5294 24.6943 19.2042 25.0987 19.1933C25.4922 19.1823 25.7081 19.5212 25.8146 19.7781C25.831 19.819 25.8912 19.8081 25.8966 19.7644C25.913 19.543 25.9977 19.2698 26.2874 19.2069C26.4076 20.218 26.5688 22.1581 26.0333 22.1117C25.3118 22.0488 25.4731 21.2017 25.4731 21.2017H24.9184C24.9184 21.2017 25.0796 22.8194 26.1917 22.6828C27.0252 22.5817 26.812 20.3519 26.6508 19.237C26.9377 19.3436 27.0662 19.6332 27.1236 19.8491C27.1345 19.8928 27.1973 19.8928 27.2055 19.8491C27.2602 19.6004 27.3832 19.2698 27.6564 19.2834C27.9297 19.2998 28.0964 19.6086 28.1811 19.8354C28.1975 19.8791 28.2631 19.871 28.2631 19.8218C28.274 19.1086 28.1401 17.081 26.3092 16.9826L26.312 16.9799Z" fill="#245472"/>
<path d="M32.1401 22.2354V22.9759H38.0672V22.4075L32.1401 22.2354Z" fill="#245472"/>
<path d="M33.6069 21.3552V21.7405L38.0665 21.8143L37.9982 21.3552H33.6069Z" fill="#245472"/>
<path d="M27.3789 0.180291L27.8107 10.914L28.6222 10.0559L29.1496 10.914L29.9312 10.0559L30.5351 10.914L30.9668 10.0559L32.4014 10.914L33.2403 0.0955811L27.3789 0.180291Z" fill="#EA5C4C"/>
<path d="M28.8315 12.025L29.225 16.7579L38.4776 16.8781L38.5979 12.1671L28.8315 12.025Z" fill="white"/>
<path d="M31.9882 12.8643V13.2687L29.4687 13.1977L29.4141 12.714L31.9882 12.867V12.8643ZM29.6299 13.7961V14.0475L33.1441 14.0912V13.7961H29.6299ZM29.6299 14.1896V14.441L33.1441 14.4847V14.1896H29.6299ZM34.964 15.2389V15.7526L37.6993 15.8456V15.2389H34.964ZM35.5925 15.9439V16.1953L37.6993 16.239V15.9439H35.5925Z" fill="#245472"/>
</svg>
