<svg width="24" height="24" viewBox="0 0 24 24" fill="none" xmlns="http://www.w3.org/2000/svg">
<path d="M6.16346 20.3467L5.85254 20.5141V20.1793L6.16346 20.0153V20.3467Z" fill="#4F2E16"/>
<path d="M18.3114 3.63543L16.7129 2.77099L11.5918 0L6.80366 2.57282L6.00625 3.01017L5.92577 3.05458L5.1942 3.44751L0 6.23559L4.69307 8.77083L5.16493 9.02709L5.24541 9.07151L6.00625 9.48152L6.76709 9.89494L11.8259 12.6284L16.9945 9.84369L17.7554 9.43368L17.8322 9.38926L18.5967 8.97925L23.3958 6.39276L18.3114 3.63543Z" fill="#FFDDA8"/>
<path d="M11.8296 12.6221L11.8223 23.6173L6.76709 20.9078L6.74514 20.8975L5.85262 20.4192L5.55267 20.2586L5.16493 20.0536L4.69307 19.8008L0 17.286L0.00365797 6.23962L5.16493 9.0277L5.55633 9.23613L5.85627 9.40013L6.77074 9.89214L11.8296 12.6221Z" fill="#BC7C46"/>
<path d="M18.5925 8.97321L18.1755 9.1953L17.8792 9.3593L17.8171 9.39347L17.7402 9.43447L16.9904 9.84448L11.8291 12.6291V23.6243L16.994 20.8567L17.8792 20.3818L18.1828 20.2178L18.5962 19.9991L23.4026 17.4263V6.38672L18.5925 8.97321Z" fill="#DDA866"/>
<path d="M12.8324 21.2797L12.752 21.3241V20.036L12.8324 19.9916V21.2797Z" fill="#9E1D22"/>
<path d="M13.1118 20.1246L13.0569 20.2134L12.7899 20.046L12.5265 20.5004L12.4644 20.4731L12.7899 19.923L13.1118 20.1246Z" fill="#9E1D22"/>
<path d="M13.6227 20.8524L13.5459 20.8969V19.6087L13.6227 19.5677V20.8524Z" fill="#9E1D22"/>
<path d="M13.9082 19.6974L13.8497 19.7863L13.5863 19.6189L13.3193 20.0733L13.2607 20.0459L13.5863 19.4958L13.9082 19.6974Z" fill="#9E1D22"/>
<path d="M13.9256 20.7326L12.4625 21.5287C12.4405 21.5287 12.4259 21.5287 12.4259 21.5082C12.4252 21.4953 12.4282 21.4826 12.4346 21.471C12.441 21.4597 12.4507 21.4502 12.4625 21.4433L13.9256 20.6472C13.9476 20.6472 13.9659 20.6472 13.9659 20.6677C13.9652 20.6807 13.9611 20.6933 13.9542 20.7046C13.9471 20.7159 13.9374 20.7255 13.9256 20.7326Z" fill="#9E1D22"/>
<path d="M13.9135 21.0818L12.4504 21.8643C12.2967 21.9463 12.1724 21.8643 12.1724 21.7139V20.1491C12.1777 20.0592 12.2056 19.9721 12.2539 19.8942C12.3022 19.8163 12.3695 19.7503 12.4504 19.7015L13.9135 18.9156C14.0671 18.8336 14.1915 18.9156 14.1915 19.066V20.6342C14.1854 20.7238 14.1571 20.8109 14.1088 20.8885C14.0606 20.9664 13.9937 21.0323 13.9135 21.0818ZM12.4504 19.7869C12.3929 19.8217 12.3449 19.8689 12.31 19.9239C12.2751 19.9789 12.2543 20.0408 12.2492 20.1046V21.6729C12.2492 21.7891 12.3406 21.8369 12.4504 21.7789L13.9135 20.9964C13.9713 20.9612 14.0194 20.9137 14.0537 20.858C14.088 20.8024 14.1077 20.7395 14.111 20.6752V19.1104C14.111 18.9908 14.0233 18.943 13.9135 19.001L12.4504 19.7869Z" fill="#9E1D22"/>
<path d="M16.4784 19.7174L14.986 20.5237C14.8287 20.6092 14.7007 20.5408 14.7007 20.37V18.7573C14.7065 18.665 14.7354 18.5752 14.7849 18.4952C14.8345 18.4149 14.9033 18.3469 14.986 18.296L16.4821 17.4931C16.6394 17.4077 16.7637 17.4931 16.7637 17.6468V19.2561C16.7584 19.3487 16.7298 19.4386 16.6802 19.5185C16.6307 19.5988 16.5615 19.6668 16.4784 19.7174ZM14.986 18.3849C14.9247 18.4221 14.8741 18.4727 14.8384 18.5321C14.8027 18.5916 14.783 18.6582 14.7812 18.7265V20.3392C14.7812 20.4588 14.8726 20.5101 14.986 20.452L16.4821 19.6456C16.5422 19.6077 16.5918 19.5568 16.6269 19.4973C16.6618 19.4382 16.6812 19.3716 16.6833 19.304V17.7015C16.6833 17.5819 16.5918 17.5307 16.4821 17.5922L14.986 18.3849Z" fill="#9E1D22"/>
<path d="M15.7314 19.6846C15.7269 19.687 15.7219 19.6884 15.7167 19.6884C15.7116 19.6884 15.7065 19.687 15.702 19.6846C15.6976 19.6822 15.6939 19.6788 15.6913 19.6744C15.6888 19.6703 15.6875 19.6655 15.6875 19.6607V18.5059C15.6926 18.4799 15.7083 18.4563 15.7314 18.4409C15.7353 18.4385 15.7399 18.4368 15.7447 18.4368C15.7494 18.4365 15.7541 18.4375 15.7583 18.4396C15.7625 18.4416 15.766 18.445 15.7683 18.4488C15.7707 18.4526 15.7718 18.457 15.7716 18.4614V19.6163C15.7707 19.6296 15.7666 19.643 15.7596 19.6546C15.7527 19.6665 15.7431 19.6768 15.7314 19.6846Z" fill="#9E1D22"/>
<path d="M15.9133 19.5813L15.5476 19.7829C15.5256 19.7829 15.5073 19.7829 15.5073 19.7624C15.5081 19.7487 15.512 19.7357 15.519 19.7238C15.526 19.7121 15.5357 19.7019 15.5476 19.694L15.9133 19.4958C15.939 19.4958 15.9572 19.4958 15.9572 19.5163C15.9562 19.5297 15.9516 19.5427 15.944 19.5539C15.9363 19.5652 15.9258 19.5748 15.9133 19.5813Z" fill="#9E1D22"/>
<path d="M16.1263 18.1235V18.6634C16.1214 18.7423 16.0967 18.8188 16.0541 18.8872C16.0115 18.9555 15.9523 19.0136 15.8812 19.0563L15.5813 19.2169C15.4459 19.2921 15.3398 19.2169 15.3398 19.0871V18.5472L15.4862 18.4686V19.0461C15.4862 19.07 15.5044 19.0802 15.5264 19.0666C15.5381 19.0594 15.5479 19.0498 15.5549 19.0385C15.5619 19.0273 15.5659 19.0146 15.5666 19.0016V18.4242L16.1263 18.1235Z" fill="#9E1D22"/>
<path d="M11.5615 0.167419L0.313477 6.23901L11.8285 12.3892L23.0875 6.36543L11.5615 0.167419Z" fill="#F9C98A"/>
<path d="M23.3946 6.495V6.58041L11.8247 12.816V12.7306L23.3946 6.495Z" fill="#BC7C46"/>
<path d="M17.8317 9.38269L17.7549 9.42711L5.92529 3.0446L6.00577 3.00018L17.8317 9.38269Z" fill="#BC7C46"/>
<path d="M17.8178 9.39221V9.56989H17.7373V9.43322L17.8178 9.39221Z" fill="#BC7C46"/>
<path d="M18.5941 8.96191L18.5904 19.9912L16.9883 20.8488L16.9919 9.82635L18.5941 8.96191Z" fill="#9E1D22"/>
<path d="M18.5973 8.97271L17.8328 9.38272L17.756 9.42714L16.9952 9.83715L5.20215 3.43756L5.92641 3.04463L6.00688 3.00022L6.79699 2.57312L18.5973 8.97271Z" fill="#9E1D22"/>
<path d="M6.76865 9.88434L6.76499 20.9068L6.74304 20.8966L5.15918 20.0526L5.16284 9.0199L6.76865 9.88434Z" fill="#9E1D22"/>
<path d="M18.31 3.63587L6.76573 9.89537L6.00855 9.48195L5.92441 9.43753L5.24771 9.07194L5.16357 9.02752L14.8679 3.77254L15.5959 3.37619L16.7115 2.77484L17.3334 3.10627L17.7394 3.32836L18.31 3.63587Z" fill="#9E1D22"/>
<path d="M22.7696 10.6709L19.4263 12.475V9.7894L22.7732 7.98877L22.7696 10.6709Z" fill="#D5EEFA"/>
<path d="M22.4505 8.7914L19.7437 10.2538V9.9531L22.4505 8.49414V8.7914Z" fill="#4F2E16"/>
<path d="M22.4505 9.33113L19.7437 10.7935V10.6603L22.4505 9.20129V9.33113Z" fill="#B2AEAB"/>
<path d="M22.4505 9.68648L19.7437 11.1454V11.0122L22.4505 9.55322V9.68648Z" fill="#B2AEAB"/>
<path d="M22.4505 10.0662L19.7437 11.5252V11.3919L22.4505 9.93298V10.0662Z" fill="#B2AEAB"/>
<path d="M22.4505 10.4172L19.7437 11.8761V11.7429L22.4505 10.2839V10.4172Z" fill="#B2AEAB"/>
<path d="M5.8578 9.3996L5.85415 20.5143L5.5542 20.3469L5.55786 9.2356L5.8578 9.3996Z" fill="#4F2E16"/>
</svg>
