<svg width="50" height="50" viewBox="0 0 50 50" fill="none" xmlns="http://www.w3.org/2000/svg">
<g clip-path="url(#clip0_93_1373)">
<path d="M47.5 8.10547V42.5391H2.5V8.10547C2.5 6.52344 3.7793 5.24414 5.36133 5.24414H44.6484C46.2207 5.25391 47.5 6.5332 47.5 8.10547Z" fill="white"/>
<path d="M47.5098 8.11523V42.5488H44.6582V8.11523C44.6582 6.5332 43.3789 5.25391 41.7969 5.25391H44.6484C46.2305 5.25391 47.5098 6.5332 47.5098 8.11523Z" fill="#EDEDED"/>
<path d="M5.3418 39.6973V8.10547C5.3418 7.66602 5.69336 7.31445 6.13281 7.31445H43.8574C44.2969 7.31445 44.6484 7.66602 44.6484 8.10547V39.6875H5.3418V39.6973Z" fill="#D3F0FD"/>
<path d="M32.5977 19.4629V20.5469C32.5977 20.791 32.4023 20.9961 32.1484 20.9961H28.8965C28.6523 20.9961 28.4473 20.8008 28.4473 20.5469V19.4629C28.4473 19.2188 28.6426 19.0137 28.8965 19.0137H32.1582C32.4023 19.0234 32.5977 19.2188 32.5977 19.4629Z" fill="#FC8A8A"/>
<path d="M32.5977 19.4629V20.5469C32.5977 20.791 32.4023 20.9961 32.1484 20.9961H31.25C31.4941 20.9961 31.6992 20.8008 31.6992 20.5469V19.4629C31.6992 19.2188 31.5039 19.0137 31.25 19.0137H32.1484C32.4023 19.0234 32.5977 19.2188 32.5977 19.4629Z" fill="#F96364"/>
<path d="M29.7949 20.9961H28.8965C28.6523 20.9961 28.4473 20.8008 28.4473 20.5566V19.4727C28.4473 19.2285 28.6426 19.0234 28.8965 19.0234H29.7949C29.5508 19.0234 29.3457 19.2187 29.3457 19.4727V20.5566C29.3555 20.791 29.5508 20.9961 29.7949 20.9961Z" fill="#FCB0B0"/>
<path d="M15.166 35.5762C15.166 36.4648 14.4434 37.1875 13.5547 37.1875C12.666 37.1875 11.9434 36.4648 11.9434 35.5762C11.9434 34.6875 12.666 33.9648 13.5547 33.9648C14.4434 33.9746 15.166 34.6973 15.166 35.5762Z" fill="#A8B1B3"/>
<path d="M23.7305 35.5762C23.7305 36.4648 23.0078 37.1875 22.1191 37.1875C21.2305 37.1875 20.5078 36.4648 20.5078 35.5762C20.5078 34.6875 21.2305 33.9648 22.1191 33.9648C23.0078 33.9746 23.7305 34.6973 23.7305 35.5762Z" fill="#A8B1B3"/>
<path d="M15.166 35.5762C15.166 36.4648 14.4434 37.1875 13.5547 37.1875C12.8711 37.1875 12.2656 36.7578 12.041 36.1133C12.8809 36.4062 13.7988 35.9668 14.0918 35.127C14.2188 34.7852 14.209 34.4043 14.0918 34.0527C14.7363 34.2969 15.166 34.9023 15.166 35.5762Z" fill="#7C8B8E"/>
<path d="M23.7305 35.5762C23.7305 36.4648 23.0078 37.1875 22.1191 37.1875C21.4355 37.1875 20.8301 36.7578 20.6055 36.1133C21.4453 36.4062 22.3633 35.9668 22.6562 35.127C22.7832 34.7754 22.7832 34.4043 22.6562 34.0527C23.3008 34.2969 23.7305 34.9023 23.7305 35.5762Z" fill="#7C8B8E"/>
<path d="M26.2402 22.0898L23.2324 31.7578H13.5253C13.1249 31.7578 12.7636 31.4941 12.6464 31.1035L10.2148 23.291C10.0683 22.8027 10.3417 22.2852 10.83 22.1289C10.9179 22.0996 11.0058 22.0898 11.1035 22.0898H26.2402Z" fill="#7BDE9E"/>
<path d="M26.2402 22.0898L23.2324 31.7578H21.5527L24.5703 22.0898H26.2402Z" fill="#51D27F"/>
<path d="M15.2051 31.7578H13.5351C13.1348 31.7578 12.7734 31.4941 12.6562 31.1035L10.2246 23.291C10.0683 22.8027 10.3418 22.2852 10.8398 22.1289C10.9277 22.0996 11.0254 22.0898 11.1133 22.0898H12.7832C12.2754 22.0898 11.8555 22.5098 11.8555 23.0176C11.8555 23.1055 11.8652 23.2031 11.8945 23.291L14.3262 31.1035C14.4433 31.4941 14.7949 31.7578 15.2051 31.7578Z" fill="#A7EABF"/>
<path d="M32.1582 18.623H28.8965C28.4375 18.623 28.0566 18.9941 28.0566 19.4629V19.6191H27.6367C27.0215 19.6191 26.4746 20.0195 26.2891 20.6152L25.9473 21.709H11.0938C10.3711 21.709 9.77539 22.2949 9.77539 23.0273C9.77539 23.1641 9.79492 23.291 9.83398 23.418L12.2656 31.2305C12.4316 31.7773 12.9492 32.1582 13.5254 32.1582H22.6953L22.2754 33.5059C22.2559 33.5547 22.207 33.5937 22.1582 33.5937H13.5547C12.4512 33.5937 11.5527 34.4922 11.5527 35.5957C11.5527 36.6992 12.4512 37.5977 13.5547 37.5977C14.6582 37.5977 15.5566 36.6992 15.5566 35.5957C15.5566 35.1562 15.4004 34.7266 15.127 34.375H20.5469C20.2734 34.7266 20.127 35.1465 20.1172 35.5957C20.1172 36.6992 21.0059 37.5977 22.1094 37.6074C23.2129 37.6074 24.1113 36.7188 24.1211 35.6152C24.1211 34.8438 23.6914 34.1504 22.998 33.8086C23.0078 33.7891 23.0176 33.7598 23.0273 33.7402L27.041 20.8594C27.1191 20.5957 27.3633 20.4102 27.6465 20.4102H28.0664V20.5664C28.0664 21.0254 28.4375 21.4062 28.9062 21.4062H32.1582C32.6172 21.4062 32.998 21.0352 32.998 20.5664V19.4824C32.9883 19.0039 32.6172 18.6328 32.1582 18.623ZM13.0176 30.9863L10.5859 23.1738C10.498 22.8906 10.6543 22.5879 10.9375 22.5C10.9863 22.4805 11.0449 22.4805 11.0938 22.4805H25.7129L22.9492 31.3672H13.5352C13.291 31.3672 13.0859 31.2109 13.0176 30.9863ZM13.5547 36.7969C12.8809 36.7969 12.334 36.25 12.334 35.5762C12.334 34.9023 12.8809 34.3555 13.5547 34.3555C14.2285 34.3555 14.7754 34.9023 14.7754 35.5762C14.7754 36.25 14.2285 36.7969 13.5547 36.7969ZM22.1191 36.7969C21.4453 36.7969 20.8984 36.25 20.8984 35.5762C20.8984 34.9023 21.4453 34.3555 22.1191 34.3555C22.793 34.3555 23.3398 34.9023 23.3398 35.5762C23.3398 36.25 22.793 36.7969 22.1191 36.7969ZM32.2168 20.5469C32.2168 20.5762 32.1875 20.6055 32.1582 20.6055H28.9062C28.877 20.6055 28.8477 20.5859 28.8477 20.5469V19.4629C28.8477 19.4336 28.877 19.4043 28.9062 19.4043H32.168C32.1973 19.4043 32.2266 19.4336 32.2266 19.4629L32.2168 20.5469Z" fill="#333333"/>
<path d="M18.2031 29.9609C17.9883 29.9609 17.8125 29.7852 17.8125 29.5703V24.2773C17.8125 24.0625 17.9883 23.8867 18.2031 23.8867C18.418 23.8867 18.5938 24.0625 18.5938 24.2773V29.5703C18.5938 29.7852 18.418 29.9609 18.2031 29.9609Z" fill="#333333"/>
<path d="M21.25 29.961C21.2304 29.961 21.2109 29.961 21.1816 29.9512C20.9668 29.9121 20.8203 29.7168 20.8593 29.502L21.7382 24.209C21.7675 23.9942 21.9629 23.8477 22.1777 23.8672C22.3925 23.8965 22.539 24.0918 22.5195 24.3067C22.5195 24.3164 22.5195 24.3262 22.5195 24.336L21.6406 29.6289C21.6015 29.8243 21.4355 29.961 21.25 29.961Z" fill="#333333"/>
<path d="M15.1661 29.961C14.9708 29.961 14.8146 29.8243 14.7853 29.6289L13.9161 24.336C13.8868 24.1211 14.0431 23.9258 14.2579 23.8965C14.463 23.8672 14.6486 24.0039 14.6876 24.209L15.5568 29.502C15.5958 29.7168 15.4493 29.9122 15.2345 29.9512C15.2052 29.961 15.1857 29.961 15.1661 29.961Z" fill="#333333"/>
<path d="M39.834 24.668H31.7383C31.5234 24.668 31.3477 24.4922 31.3477 24.2773C31.3477 24.0625 31.5234 23.8867 31.7383 23.8867H39.834C40.0488 23.8867 40.2246 24.0625 40.2246 24.2773C40.2246 24.4922 40.0488 24.668 39.834 24.668Z" fill="#333333"/>
<path d="M39.834 27.9004H30.0684C29.8535 27.9004 29.6777 27.7246 29.6777 27.5098C29.6777 27.2949 29.8535 27.1191 30.0684 27.1191H39.834C40.0488 27.1191 40.2246 27.2949 40.2246 27.5098C40.2246 27.7246 40.0488 27.9004 39.834 27.9004Z" fill="#333333"/>
<path d="M39.834 31.1328H28.3984C28.1836 31.1328 28.0078 30.957 28.0078 30.7422C28.0078 30.5273 28.1836 30.3516 28.3984 30.3516H39.834C40.0488 30.3516 40.2246 30.5273 40.2246 30.7422C40.2246 30.957 40.0488 31.1328 39.834 31.1328Z" fill="#333333"/>
<path d="M39.834 34.3652H26.7187C26.5039 34.3652 26.3281 34.1895 26.3281 33.9746C26.3281 33.7598 26.5039 33.584 26.7187 33.584H39.8242C40.0391 33.584 40.2148 33.7598 40.2148 33.9746C40.2148 34.1895 40.0488 34.3652 39.834 34.3652Z" fill="#333333"/>
<path d="M49.707 42.5488V44.4629C49.707 46.0742 48.3984 47.3828 46.7871 47.3828H3.21289C1.60156 47.373 0.292969 46.0645 0.292969 44.4531V42.5391H49.707V42.5488Z" fill="#D3D9D9"/>
<path d="M6.06445 47.373H3.21289C1.60156 47.373 0.292969 46.0645 0.292969 44.4531V42.5391H3.1543V44.4531C3.1543 46.0645 4.45312 47.373 6.06445 47.373Z" fill="#EDEDED"/>
<path d="M49.707 42.5488V44.4629C49.707 46.0742 48.3984 47.3828 46.7871 47.3828H43.9258C45.5371 47.3828 46.8457 46.0742 46.8457 44.4629V42.5488H49.707Z" fill="#A8B2B4"/>
<path d="M32.0898 42.5488V43.9258C32.0898 44.4043 31.6992 44.7949 31.2207 44.7949H18.7695C18.291 44.7949 17.9004 44.4043 17.9004 43.9258V42.5488H32.0898Z" fill="white"/>
<path d="M32.0996 42.5488V43.9258C32.0996 44.4043 31.709 44.7852 31.2305 44.7852H28.916C29.3945 44.7852 29.7754 44.3945 29.7754 43.9258V42.5488H32.0996Z" fill="#EDEDED"/>
<path d="M7.43164 11.5234H14.4629V12.998C14.4629 14.9414 12.8906 16.5137 10.9473 16.5137C9.00391 16.5137 7.43164 14.9414 7.43164 12.998V11.5234Z" fill="#FEDD8E"/>
<path d="M42.5684 11.5234V12.998C42.5781 14.9414 41.0156 16.5234 39.0723 16.5332C37.1289 16.543 35.5469 14.9805 35.5371 13.0371C35.5371 13.0273 35.5371 13.0078 35.5371 12.998V11.5234H42.5684Z" fill="#FEDD8E"/>
<path d="M21.4844 11.5234H28.5156V12.998C28.5156 14.9414 26.9434 16.5137 25 16.5137C23.0566 16.5137 21.4844 14.9414 21.4844 12.998V11.5234Z" fill="#FEDD8E"/>
<path d="M0.400391 11.5234H7.43164V12.998C7.43164 14.9414 5.85938 16.5137 3.91602 16.5137C1.97266 16.5137 0.400391 14.9414 0.400391 12.998V11.5234Z" fill="#FC8A8A"/>
<path d="M28.5156 11.5234H35.5469V12.998C35.5469 14.9414 33.9746 16.5137 32.0312 16.5137C30.0879 16.5137 28.5156 14.9414 28.5156 12.998V11.5234Z" fill="#FC8A8A"/>
<path d="M14.4531 11.5234H21.4844V12.998C21.4844 14.9414 19.9121 16.5137 17.9688 16.5137C16.0254 16.5137 14.4531 14.9414 14.4531 12.998V11.5234Z" fill="#FC8A8A"/>
<path d="M49.5996 11.5234V12.998C49.5996 14.9414 48.0273 16.5137 46.084 16.5137C44.1406 16.5137 42.5684 14.9414 42.5684 12.998V11.5234H49.5996Z" fill="#FC8A8A"/>
<path d="M9.6582 2.62695L7.43164 11.5234H0.400391L2.96875 4.22852C3.31055 3.27148 4.20898 2.62695 5.23438 2.62695H9.6582Z" fill="#FC8A8A"/>
<path d="M15.8008 2.62695L14.4531 11.5234H7.43164L9.6582 2.62695H15.8008Z" fill="#FEDD8E"/>
<path d="M21.9336 2.62695L21.4844 11.5234H14.4531L15.8008 2.62695H21.9336Z" fill="#FC8A8A"/>
<path d="M28.0664 2.62695L28.5156 11.5234H21.4844L21.9336 2.62695H28.0664Z" fill="#FEDD8E"/>
<path d="M34.1992 2.62695L35.5469 11.5234H28.5156L28.0664 2.62695H34.1992Z" fill="#FC8A8A"/>
<path d="M40.3418 2.62695L42.5684 11.5234H35.5469L34.1992 2.62695H40.3418Z" fill="#FEDD8E"/>
<path d="M47.041 4.22852L49.6094 11.5234H42.5781L40.3418 2.62695H44.7754C45.791 2.62695 46.6992 3.27148 47.041 4.22852Z" fill="#FC8A8A"/>
<path d="M11.7969 16.4062C11.5137 16.4746 11.2305 16.5039 10.9473 16.5039C9.00391 16.5039 7.43164 14.9316 7.43164 12.9883V11.5234H9.13086V12.998C9.13086 14.6094 10.2246 16.0156 11.7969 16.4062Z" fill="#FEE9B4"/>
<path d="M39.9121 16.4062C39.6289 16.4746 39.3457 16.5039 39.0625 16.5039C37.1191 16.5039 35.5469 14.9316 35.5469 12.9883V11.5234H37.2461V12.998C37.2461 14.6094 38.3398 16.0156 39.9121 16.4062Z" fill="#FEE9B4"/>
<path d="M25.8496 16.4062C25.5664 16.4746 25.2832 16.5039 25 16.5039C23.0566 16.5039 21.4844 14.9316 21.4844 12.9883V11.5234H23.1836V12.998C23.1836 14.6094 24.2871 16.0156 25.8496 16.4062Z" fill="#FEE9B4"/>
<path d="M4.76562 16.4062C4.48242 16.4746 4.19922 16.5039 3.91602 16.5039C1.97266 16.5039 0.400391 14.9316 0.400391 12.9883V11.5234H2.09961V12.998C2.09961 14.6094 3.19336 16.0156 4.76562 16.4062Z" fill="#FCB0B0"/>
<path d="M32.8809 16.4062C32.5977 16.4746 32.3145 16.5039 32.0312 16.5039C30.0879 16.5039 28.5156 14.9316 28.5156 12.9883V11.5234H30.2148V12.998C30.2148 14.6094 31.3184 16.0156 32.8809 16.4062Z" fill="#FCB0B0"/>
<path d="M18.8184 16.4062C18.5352 16.4746 18.252 16.5039 17.9687 16.5039C16.0254 16.5039 14.4531 14.9316 14.4531 12.9883V11.5234H16.1523V12.998C16.1523 14.6094 17.2559 16.0156 18.8184 16.4062Z" fill="#FCB0B0"/>
<path d="M46.9434 16.4062C46.6602 16.4746 46.377 16.5039 46.0937 16.5039C44.1504 16.5039 42.5781 14.9316 42.5781 12.9883V11.5234H44.2773V12.998C44.2773 14.6094 45.3711 16.0156 46.9434 16.4062Z" fill="#FCB0B0"/>
<path d="M5.22461 2.62695L2.09961 11.5234H0.400391L2.96875 4.22852C3.30078 3.27148 4.20898 2.62695 5.22461 2.62695Z" fill="#FCB0B0"/>
<path d="M11.3574 2.62695L9.13086 11.5234H7.43164L9.6582 2.62695H11.3574Z" fill="#FEE9B4"/>
<path d="M17.4902 2.62695L16.1523 11.5234H14.4531L15.8008 2.62695H17.4902Z" fill="#FCB0B0"/>
<path d="M23.6328 2.62695L23.1836 11.5234H21.4844L21.9336 2.62695H23.6328Z" fill="#FEE9B4"/>
<path d="M30.2148 11.5234H28.5156L28.0664 2.62695H29.7656L30.2148 11.5234Z" fill="#FCB0B0"/>
<path d="M37.2461 11.5234H35.5469L34.209 2.62695H35.8984L37.2461 11.5234Z" fill="#FEE9B4"/>
<path d="M44.2676 11.5234H42.5684L40.3418 2.62695H42.041L44.2676 11.5234Z" fill="#FCB0B0"/>
<path d="M14.4531 11.5234V12.998C14.4531 14.9414 12.8809 16.5137 10.9375 16.5137C10.6543 16.5137 10.3711 16.4844 10.0879 16.416C10.7031 16.2598 11.2695 15.9375 11.7187 15.4883C12.3828 14.834 12.7539 13.9355 12.7539 13.0078V11.5234H14.4531Z" fill="#FDD367"/>
<path d="M42.5684 11.5234V12.998C42.5684 14.9414 40.9961 16.5137 39.0527 16.5137C38.7695 16.5137 38.4863 16.4844 38.2031 16.416C38.8184 16.2598 39.3848 15.9375 39.834 15.4883C40.498 14.834 40.8691 13.9355 40.8691 13.0078V11.5234H42.5684Z" fill="#FDD367"/>
<path d="M28.5156 11.5234V12.998C28.5156 14.9414 26.9434 16.5137 25 16.5137C24.7168 16.5137 24.4336 16.4844 24.1504 16.416C24.7656 16.2598 25.332 15.9375 25.7812 15.4883C26.4453 14.834 26.8164 13.9355 26.8164 13.0078V11.5234H28.5156Z" fill="#FDD367"/>
<path d="M7.43164 11.5234V12.998C7.43164 14.9414 5.85937 16.5137 3.91602 16.5137C3.63281 16.5137 3.34961 16.4844 3.06641 16.416C3.68164 16.2598 4.24805 15.9375 4.69727 15.4883C5.36133 14.834 5.73242 13.9355 5.73242 13.0078V11.5234H7.43164Z" fill="#F96364"/>
<path d="M35.5469 11.5234V12.998C35.5469 14.9414 33.9746 16.5137 32.0313 16.5137C31.748 16.5137 31.4648 16.4844 31.1816 16.416C31.7969 16.2598 32.3633 15.9375 32.8125 15.4883C33.4766 14.834 33.8477 13.9355 33.8477 13.0078V11.5234H35.5469Z" fill="#F96364"/>
<path d="M21.4844 11.5234V12.998C21.4844 14.9414 19.9121 16.5137 17.9687 16.5137C17.6855 16.5137 17.4023 16.4844 17.1191 16.416C17.7344 16.2598 18.3008 15.9375 18.75 15.4883C19.4141 14.834 19.7852 13.9355 19.7852 13.0078V11.5234H21.4844Z" fill="#F96364"/>
<path d="M49.5996 11.5234V12.998C49.5996 14.9414 48.0273 16.5137 46.084 16.5137C45.8008 16.5137 45.5176 16.4844 45.2344 16.416C45.8496 16.2598 46.416 15.9375 46.8652 15.4883C47.5293 14.834 47.9004 13.9355 47.9004 13.0078V11.5234H49.5996Z" fill="#F96364"/>
<path d="M9.6582 2.62695L7.43164 11.5234H5.73242L7.95898 2.62695H9.6582Z" fill="#F96364"/>
<path d="M15.8008 2.62695L14.4531 11.5234H12.7539L14.1016 2.62695H15.8008Z" fill="#FDD367"/>
<path d="M21.9336 2.62695L21.4844 11.5234H19.7852L20.2344 2.62695H21.9336Z" fill="#F96364"/>
<path d="M28.5156 11.5234H26.8164L26.3672 2.62695H28.0664L28.5156 11.5234Z" fill="#FDD367"/>
<path d="M35.5469 11.5234H33.8477L32.5098 2.62695H34.1992L35.5469 11.5234Z" fill="#F96364"/>
<path d="M42.5684 11.5234H40.8691L38.6426 2.62695H40.3418L42.5684 11.5234Z" fill="#FDD367"/>
<path d="M49.5996 11.5234H47.9004L44.7754 2.62695C45.791 2.62695 46.6992 3.27148 47.041 4.22852L49.5996 11.5234Z" fill="#F96364"/>
<path d="M49.707 42.2559H47.793V16.3965C48.1543 16.2109 48.4863 15.9766 48.7695 15.6934C49.4922 14.9805 49.8926 14.0137 49.8828 12.998V11.5234C49.8828 11.5039 49.873 11.4355 49.8633 11.4258L47.3047 4.13086C46.9238 3.05664 45.9082 2.33398 44.7656 2.33398H5.21484C4.07227 2.33398 3.05664 3.05664 2.67578 4.13086L0.117188 11.4258C0.117188 11.4355 0.107422 11.5039 0.0976562 11.5234V12.998C0.0976562 14.4336 0.908203 15.752 2.19727 16.3965V42.2559H0.292969C0.126953 42.2559 0 42.3828 0 42.5488V44.4629C0 46.2305 1.43555 47.666 3.21289 47.6758H46.7969C48.5645 47.6758 50 46.2402 50.0098 44.4629V42.5488C50 42.3828 49.873 42.2559 49.707 42.2559ZM49.3066 12.998C49.3066 14.7754 47.8613 16.2207 46.084 16.2207C44.3066 16.2207 42.8613 14.7754 42.8613 12.998V11.8164H49.3066V12.998ZM2.79297 42.2461V16.6309C3.53516 16.8555 4.31641 16.8555 5.05859 16.6211V39.6875C5.05859 39.8535 5.18555 39.9805 5.35156 39.9805H44.6582C44.8242 39.9805 44.9512 39.8535 44.9512 39.6875V16.6309C45.6836 16.8652 46.4746 16.8652 47.2168 16.6406V42.2559L2.79297 42.2461ZM31.7969 42.8418V43.9258C31.7969 44.2383 31.543 44.502 31.2207 44.502H18.7695C18.457 44.502 18.1934 44.248 18.1934 43.9258V42.8418H31.7969ZM10.9375 16.8066C12.4707 16.7969 13.8574 15.8789 14.4531 14.4629C15.2734 16.4062 17.5 17.3145 19.4434 16.5039C20.3613 16.1133 21.0938 15.3906 21.4844 14.4629C22.3047 16.4062 24.5312 17.3145 26.4746 16.5039C27.3926 16.1133 28.125 15.3906 28.5156 14.4629C29.3359 16.4062 31.5625 17.3145 33.5059 16.5039C34.4238 16.1133 35.1562 15.3906 35.5469 14.4629C36.3672 16.4062 38.5938 17.3145 40.5371 16.5039C41.4551 16.1133 42.1875 15.3906 42.5781 14.4629C42.9297 15.293 43.5645 15.9766 44.3652 16.3867V39.4043H5.63477V16.3867C5.98633 16.2012 6.31836 15.9668 6.60156 15.6836C6.95312 15.332 7.23633 14.9219 7.43164 14.4629C8.01758 15.8789 9.4043 16.8066 10.9375 16.8066ZM7.72461 12.998V11.8164H14.1699V12.998C14.1699 14.7754 12.7246 16.2207 10.9473 16.2207C9.16016 16.2207 7.72461 14.7754 7.72461 12.998ZM14.7461 12.998V11.8164H21.1914V12.998C21.1914 14.7754 19.7461 16.2207 17.9688 16.2207C16.1914 16.2207 14.7559 14.7754 14.7461 12.998ZM28.8086 12.998V11.8164H35.2539V12.998C35.2539 14.7754 33.8086 16.2207 32.0312 16.2207C30.2539 16.2207 28.8086 14.7754 28.8086 12.998ZM35.8398 12.998V11.8164H42.2852V12.998C42.2852 14.7754 40.8398 16.2207 39.0625 16.2207C37.2754 16.2207 35.8398 14.7754 35.8398 12.998ZM44.7754 2.91992C45.6641 2.91992 46.4648 3.48633 46.7578 4.32617L49.1895 11.2305H42.8027L40.7129 2.91992H44.7754ZM40.1074 2.91992L42.1973 11.2305H35.791L34.541 2.91992H40.1074ZM33.9551 2.91992L35.2051 11.2305H28.7988L28.3789 2.91992H33.9551ZM22.207 2.91992H27.7832L28.2031 11.2305H21.7871L22.207 2.91992ZM21.7773 11.8164H28.2227V12.998C28.2227 14.7754 26.7773 16.2207 25 16.2207C23.2227 16.2207 21.7773 14.7754 21.7773 12.998V11.8164ZM16.0449 2.91992H21.6211L21.2012 11.2305H14.7949L16.0449 2.91992ZM9.89258 2.91992H15.459L14.1992 11.2305H7.80273L9.89258 2.91992ZM3.24219 4.32617C3.53516 3.48633 4.33594 2.91992 5.22461 2.91992H9.28711L7.19727 11.2305H0.810547L3.24219 4.32617ZM0.693359 12.998V11.8164H7.13867V12.998C7.13867 14.7754 5.69336 16.2207 3.91602 16.2207C2.13867 16.2207 0.693359 14.7754 0.693359 12.998ZM49.4141 44.4531C49.4141 45.8984 48.2422 47.0801 46.7871 47.0801H3.21289C1.75781 47.0801 0.585938 45.9082 0.585938 44.4531V42.832H17.6172V43.916C17.6172 44.5508 18.1348 45.0684 18.7793 45.0781H31.2402C31.875 45.0781 32.3926 44.5605 32.4023 43.916V42.832H49.4141V44.4531Z" fill="#333333"/>
</g>
<defs>
<clipPath id="clip0_93_1373">
<rect width="50" height="50" fill="white"/>
</clipPath>
</defs>
</svg>
