<svg width="50" height="51" viewBox="0 0 50 51" fill="none" xmlns="http://www.w3.org/2000/svg">
<g id="shopping-world-online-ecommerce-svgrepo-com 1" clip-path="url(#clip0_93_1573)">
<g id="_x30_17_Shoping_World">
<g id="Group">
<g id="Group_2">
<g id="Group_3">
<g id="Group_4">
<path id="Vector" d="M44.3015 42.8011C51.3731 35.7295 51.3731 24.2642 44.3015 17.1926C37.2299 10.121 25.7646 10.121 18.693 17.1926C11.6214 24.2643 11.6213 35.7296 18.6929 42.8012C25.7645 49.8728 37.2298 49.8727 44.3015 42.8011Z" fill="#A5E1FB"/>
</g>
<g id="Group_5">
<path id="Vector_2" d="M47.9621 37.5418C43.7982 46.6311 33.0461 50.6274 23.9568 46.4634C20.338 44.8006 17.5224 42.0969 15.7129 38.8692C17.0334 40.0429 18.5494 41.049 20.2402 41.8244C29.3295 45.9883 40.0814 41.9921 44.2453 32.9029C46.7465 27.4325 46.2994 21.3683 43.5677 16.4918C49.3385 21.6479 51.3506 30.1433 47.9621 37.5418Z" fill="#7AD2FA"/>
</g>
<g id="Group_6">
<path id="Vector_3" d="M47.2839 21.1295C45.9636 19.9558 44.4474 18.9497 42.7568 18.1742C33.6675 14.0103 22.9156 18.0065 18.7517 27.0958C16.2505 32.5661 16.6976 38.6304 19.4292 43.5068C13.6586 38.3509 11.6465 29.8555 15.0349 22.4568C19.1988 13.3676 29.9507 9.37138 39.04 13.5353C42.6588 15.198 45.4746 17.9018 47.2839 21.1295Z" fill="#D4F0FC"/>
</g>
<g id="Group_7">
<path id="Vector_4" d="M32.7588 30.8354C34.033 29.5347 36.384 29.4361 37.7724 30.6802C38.4108 31.235 38.8289 32.0345 39.4966 32.5977C40.1547 33.1659 41.2212 33.4408 41.8635 32.8828C42.5132 32.2716 42.303 31.1606 41.885 30.3611C41.4648 29.5688 40.8998 28.7587 40.9846 27.8587C41.0979 26.6668 42.4955 25.8992 43.6821 26.1138C44.8466 26.322 45.7705 27.2589 46.3914 28.3143C46.9988 29.3341 47.3695 30.4913 47.883 31.5631C48.2263 32.2385 48.6873 32.916 49.3146 33.2621C49.2041 33.8387 49.0677 34.4236 48.902 35.0001C47.8641 38.6122 45.8071 41.6473 43.1205 43.8772C42.5819 43.4143 42.1177 42.7754 41.7441 42.2335C41.1352 41.4108 40.6538 40.4745 40.3037 39.5207C40.0597 38.8028 39.8659 38.0756 39.4517 37.4274C38.611 36.1193 36.7857 35.5158 35.3372 36.1029C34.873 36.2617 34.4312 36.5615 33.9381 36.5461C33.4447 36.5308 33.0093 36.2319 32.6667 35.857C31.43 34.4983 31.4543 32.159 32.7588 30.8354Z" fill="#7BDE9E"/>
</g>
<g id="Group_8">
<path id="Vector_5" d="M49.314 33.262C49.2042 33.8398 49.0689 34.425 48.9008 34.9992C47.8621 38.6125 45.8066 41.6482 43.1186 43.8755C42.581 43.4147 42.1165 42.7747 41.7434 42.2334C41.1362 41.4105 40.6535 40.4743 40.3023 39.5197C40.2109 39.2454 40.1268 38.9748 40.0317 38.7041C41.7616 37.1168 43.2063 35.1674 44.245 32.9036C45.0606 31.1224 45.5616 29.2792 45.7701 27.4358C46.0041 27.7064 46.209 28.0064 46.3918 28.3136C46.9989 29.3339 47.3683 30.4897 47.884 31.5613C48.2277 32.2379 48.6886 32.9146 49.314 33.262Z" fill="#51D27F"/>
</g>
<g id="Group_9">
<path id="Vector_6" d="M14.8999 37.2423C15.1293 37.1845 15.3626 37.1033 15.5766 36.9942C16.3979 36.5861 16.9913 35.8362 17.5578 35.1134C18.117 34.3916 18.7177 33.6406 19.5502 33.2538C20.3825 32.8671 21.5193 32.972 22.0472 33.7216C22.9302 34.9934 21.5278 36.8944 22.2912 38.2382C23.3996 38.6621 24.6133 37.089 25.6699 37.6283C26.3028 37.9551 26.3806 38.8264 26.311 39.5356C26.234 40.2461 26.1266 41.0608 26.6129 41.5864C27.1112 42.1408 28.0148 42.0735 28.6985 41.7707C29.3813 41.4603 29.983 40.9702 30.7063 40.7765C31.9161 40.448 33.2599 41.0592 34.0033 42.0679C34.7544 43.0757 34.985 44.4 34.882 45.6517C34.8253 46.3437 34.7151 47.0897 34.5376 47.8461C34.4262 47.8706 34.3135 47.8876 34.2009 47.9046C25.9124 49.1558 18.0955 44.5767 14.8999 37.2423Z" fill="#7BDE9E"/>
</g>
<g id="Group_10">
<path id="Vector_7" d="M19.4193 43.4878C17.5103 41.7798 15.9522 39.6586 14.8989 37.2411C15.1293 37.1863 15.3634 37.1022 15.5755 36.9925C16.1972 36.6853 16.6873 36.1806 17.1372 35.6393C17.2944 38.4005 18.0808 41.0886 19.4193 43.4878Z" fill="#A7EABF"/>
</g>
<g id="Group_11">
<path id="Vector_8" d="M19.4192 43.4879C19.3681 43.4403 19.3168 43.3965 19.2656 43.3452C19.3168 43.3965 19.3644 43.4403 19.4155 43.4806C19.4155 43.4879 19.4192 43.4879 19.4192 43.4879Z" fill="#FCB0B0"/>
</g>
<g id="Group_12">
<path id="Vector_9" d="M34.8826 45.6531C34.8241 46.3443 34.7144 47.0904 34.5388 47.8475C34.4254 47.8695 34.312 47.8877 34.2022 47.906C28.6468 48.7435 23.3034 46.9624 19.4194 43.4879C19.4194 43.4879 19.4158 43.4879 19.4158 43.4806C18.9185 42.5882 18.4979 41.6556 18.1577 40.6974C18.8196 41.1144 19.5109 41.491 20.2387 41.8239C24.8104 43.9195 29.8025 43.9488 34.1657 42.303C34.7875 43.2758 34.9776 44.4937 34.8826 45.6531Z" fill="#51D27F"/>
</g>
<g id="Group_13">
<path id="Vector_10" d="M13.4624 28.3948C14.0624 21.6249 18.4783 15.5643 25.0769 13.0698C25.0305 13.3029 24.9936 13.5414 24.9785 13.7738C24.8451 15.5268 25.8252 17.3206 27.3819 18.1455C27.7232 18.3274 28.093 18.4701 28.4203 18.6874C29.3481 19.3147 29.7733 20.6074 29.3939 21.6641C29.0071 22.7228 27.8594 23.4469 26.7406 23.3285C25.9559 23.2524 25.2628 22.8205 24.5359 22.5238C23.8109 22.2345 22.9144 22.0946 22.2878 22.5656C21.7045 22.9933 21.5352 23.8112 21.614 24.5297C21.7003 25.2461 21.9828 25.9322 22.1225 26.6419C22.2619 27.3516 22.2304 28.1555 21.7603 28.7095C21.2617 29.3028 20.3882 29.448 19.6209 29.3198C18.8609 29.1896 18.1513 28.8411 17.409 28.6037C16.3978 28.2748 15.3141 28.1704 14.2555 28.2718C13.987 28.2981 13.7228 28.3391 13.4624 28.3948Z" fill="#7BDE9E"/>
</g>
<g id="Group_14">
<path id="Vector_11" d="M27.553 18.2341C23.7933 19.986 20.6151 23.0326 18.7535 27.0958C18.4902 27.6701 18.2599 28.2516 18.066 28.8368C17.8466 28.7563 17.6308 28.6722 17.4077 28.6027C16.3982 28.2735 15.3157 28.1711 14.2551 28.2735C13.9881 28.2991 13.7211 28.3393 13.4614 28.3942C14.0612 21.6245 18.4793 15.5643 25.0771 13.0701C25.0295 13.3042 24.993 13.5418 24.9783 13.7723C24.8467 15.5278 25.8269 17.3199 27.3813 18.1464C27.4359 18.1755 27.4945 18.2048 27.553 18.2341Z" fill="#A7EABF"/>
</g>
</g>
<g id="Group_15">
<g id="Group_16">
<path id="Vector_12" d="M45.1176 8.7801C45.1176 14.027 37.5197 23.6338 37.5197 23.6338C37.5197 23.6338 29.9219 14.0271 29.9219 8.7801C29.9219 4.58352 33.3231 1.18225 37.5197 1.18225C41.7163 1.18225 45.1176 4.58352 45.1176 8.7801Z" fill="#FC8A8A"/>
</g>
<g id="Group_17">
<path id="Vector_13" d="M37.7483 4.35178C37.7483 7.67971 34.6925 12.7573 32.4571 16.0309C31.0632 13.5025 29.9204 10.8151 29.9204 8.78059C29.9204 4.73684 33.0809 1.43401 37.0618 1.19543C37.5056 2.15833 37.7483 3.22581 37.7483 4.35178Z" fill="#FCB0B0"/>
</g>
<g id="Group_18">
<path id="Vector_14" d="M45.1155 8.78071C45.1155 14.0258 37.5179 23.6328 37.5179 23.6328C37.5179 23.6328 36.7183 22.624 35.6426 21.0834C37.3296 18.8439 42.7505 11.3048 42.7505 6.87603C42.7505 5.03003 42.0975 3.34302 41.0008 2.02856C43.4453 3.28862 45.1155 5.83784 45.1155 8.78071Z" fill="#F96364"/>
</g>
<g id="Group_19">
<path id="Vector_15" d="M42.4072 8.78008C42.4072 11.4801 40.2194 13.6679 37.5194 13.6679C34.8194 13.6679 32.6289 11.4801 32.6289 8.78008C32.6289 6.08008 34.8194 3.88965 37.5194 3.88965C40.2194 3.88965 42.4072 6.08008 42.4072 8.78008Z" fill="white"/>
</g>
<g id="Group_20">
<path id="Vector_16" d="M42.4067 8.7804C42.4067 11.4797 40.2192 13.6671 37.52 13.6671C35.395 13.6671 33.5825 12.3116 32.9106 10.4132C33.6919 10.9366 34.6294 11.2452 35.645 11.2452C38.3442 11.2452 40.5318 9.05774 40.5318 6.35461C40.5318 5.7804 40.4342 5.23362 40.2545 4.72571C41.5513 5.60461 42.4067 7.0929 42.4067 8.7804Z" fill="#EDEDED"/>
</g>
<g id="Group_21">
<path id="Vector_17" d="M37.5199 14.0586C34.6077 14.0586 32.2388 11.6908 32.2388 8.78018C32.2388 5.86797 34.6077 3.49902 37.5199 3.49902C40.4306 3.49902 42.7983 5.86797 42.7983 8.78018C42.7984 11.6908 40.4306 14.0586 37.5199 14.0586ZM37.5199 4.28037C35.0389 4.28037 33.0201 6.29912 33.0201 8.78018C33.0201 11.2598 35.0389 13.2773 37.5199 13.2773C39.9995 13.2773 42.0171 11.2598 42.0171 8.78018C42.0171 6.29912 39.9995 4.28037 37.5199 4.28037Z" fill="#333333"/>
</g>
</g>
</g>
<g id="Group_22">
<g id="Group_23">
<g id="Group_24">
<path id="Vector_18" d="M23.1053 50.401H1.78101C0.935995 50.401 0.287167 49.6512 0.40621 48.812L3.26891 28.9994C3.37008 28.315 3.95328 27.8091 4.64967 27.8091H20.2426C20.9331 27.8091 21.5221 28.315 21.6174 28.9994L24.4801 48.812C24.6051 49.6512 23.9504 50.401 23.1053 50.401Z" fill="#FEDD8E"/>
</g>
<g id="Group_25">
<path id="Vector_19" d="M6.51207 27.8082C5.8151 27.8082 5.23199 28.3147 5.12975 29L2.26754 48.8123C2.14908 49.651 2.79723 50.4014 3.64283 50.4014H1.78189C0.936288 50.4014 0.288046 49.651 0.406601 48.8123L3.26881 29C3.37105 28.3147 3.95416 27.8082 4.65113 27.8082H6.51207Z" fill="#FEE9B4"/>
</g>
<g id="Group_26">
<path id="Vector_20" d="M18.376 27.8082C19.0729 27.8082 19.6561 28.3147 19.7583 29L22.6205 48.8123C22.739 49.651 22.0908 50.4014 21.2452 50.4014H23.1062C23.9518 50.4014 24.6 49.651 24.4814 48.8123L21.6192 29C21.517 28.3147 20.9339 27.8082 20.2369 27.8082H18.376Z" fill="#FDD367"/>
</g>
</g>
<g id="Group_27">
<g id="Group_28">
<g id="Group_29">
<path id="Vector_21" d="M5.53223 31.1083C5.53223 30.1862 6.2833 29.4425 7.19805 29.4425C8.12022 29.4425 8.87129 30.1862 8.87129 31.1083C8.87129 32.0305 8.12022 32.7741 7.19805 32.7741C6.2833 32.7741 5.53223 32.0305 5.53223 31.1083Z" fill="#FDD367"/>
</g>
<g id="Group_30">
<path id="Vector_22" d="M16.0161 31.1083C16.0161 30.1862 16.7672 29.4425 17.6819 29.4425C18.6041 29.4425 19.3552 30.1862 19.3552 31.1083C19.3552 32.0305 18.6041 32.7741 17.6819 32.7741C16.7673 32.7741 16.0161 32.0305 16.0161 31.1083Z" fill="#FDD367"/>
</g>
</g>
<g id="Group_31">
<g id="Group_32">
<g id="Group_33">
<path id="Vector_23" d="M18.4531 26.3478V30.9872C18.4531 31.4102 18.108 31.7515 17.6852 31.7515C17.2621 31.7515 16.9171 31.4102 16.9171 30.9872V26.3478C16.9171 25.1494 16.4533 24.0253 15.6074 23.1831C14.7652 22.3372 13.641 21.8697 12.4427 21.8697C9.97549 21.8697 7.96826 23.8806 7.96826 26.3478V30.9872C7.96826 31.4102 7.62324 31.7515 7.204 31.7515C6.78096 31.7515 6.43604 31.4102 6.43604 30.9872V26.3478C6.43604 23.0347 9.12959 20.3374 12.4427 20.3374C14.0529 20.3374 15.5592 20.9607 16.6908 22.0997C17.8261 23.2276 18.4531 24.7376 18.4531 26.3478Z" fill="white"/>
<path id="Vector_24" d="M43.2095 15.6969C44.4975 13.2763 45.5082 10.7504 45.5082 8.78025C45.5082 4.37537 41.9246 0.79187 37.5199 0.79187C33.115 0.79187 29.5314 4.37546 29.5314 8.78025C29.5314 9.62205 29.7166 10.5657 30.0283 11.559C26.6941 11.8184 23.483 12.9779 20.6984 14.9806C18.5419 16.5313 16.7857 18.4871 15.4932 20.7182C14.5695 20.2153 13.5282 19.9467 12.443 19.9467C8.91555 19.9467 6.04573 22.818 6.04573 26.3477V27.4185H4.64944C3.75598 27.4185 3.01292 28.0594 2.88245 28.9436L0.0192645 48.7569C-0.0535871 49.27 0.0993426 49.7885 0.438503 50.1791C0.776491 50.5685 1.26594 50.7917 1.78089 50.7917H23.1052C23.6244 50.7917 24.1165 50.5662 24.4552 50.1729C24.7924 49.7815 24.9423 49.2646 24.8664 48.7561L24.6387 47.1798C25.8749 47.6707 27.171 48.0363 28.5153 48.256C29.5242 48.4209 30.534 48.5021 31.5365 48.5021C35.3787 48.5021 39.116 47.3054 42.2979 45.0174C46.3102 42.1319 48.9584 37.8579 49.7553 32.9819C50.8564 26.2412 48.1425 19.7487 43.2095 15.6969ZM37.5199 1.57312C41.4941 1.57312 44.727 4.80613 44.727 8.78025C44.727 13.2386 38.9313 21.1369 37.5199 22.9939C36.1084 21.1369 30.3127 13.2386 30.3127 8.78025C30.3127 4.80603 33.5457 1.57312 37.5199 1.57312ZM24.5947 13.6918C24.5933 13.7084 24.5898 13.7277 24.5887 13.744C24.4442 15.6479 25.5176 17.6 27.198 18.4899C27.3254 18.5578 27.4563 18.6208 27.5878 18.6837C27.8087 18.7889 28.017 18.8885 28.2016 19.011C28.9817 19.5385 29.3441 20.646 29.0267 21.5302C28.7017 22.4198 27.7144 23.0379 26.7782 22.9398C26.2747 22.891 25.7983 22.6693 25.2932 22.4343C25.0907 22.3401 24.8884 22.2463 24.6805 22.1612C24.0698 21.9178 22.9158 21.6051 22.0564 22.2505C21.4273 22.7121 21.1168 23.5802 21.2255 24.5767C21.2793 25.0212 21.401 25.4472 21.5185 25.8589C21.6032 26.1545 21.6829 26.4342 21.7386 26.7176C21.8064 27.0623 21.8643 27.6431 21.6577 28.1266C21.3299 27.6964 20.8142 27.4187 20.2424 27.4187H18.8436V26.3479C18.8436 24.6324 18.1768 23.0253 16.9679 21.8244C16.7174 21.5723 16.4458 21.3498 16.163 21.146C18.1019 17.7974 21.0796 15.1852 24.5947 13.6918ZM6.82698 26.3478C6.82698 23.2491 9.34622 20.728 12.443 20.728C13.9483 20.728 15.3586 21.3128 16.4157 22.3771C17.4777 23.4315 18.0624 24.8418 18.0624 26.3478V30.9873C18.0624 31.1932 17.8931 31.3607 17.6852 31.3607C17.4773 31.3607 17.3079 31.1932 17.3079 30.9873V26.3478C17.3079 25.0435 16.8021 23.8214 15.8847 22.9077C14.9676 21.9864 13.7454 21.4791 12.4431 21.4791C9.76018 21.4791 7.57776 23.663 7.57776 26.3478V30.9873C7.57776 31.1932 7.41028 31.3607 7.20432 31.3607C6.99641 31.3607 6.82708 31.1932 6.82708 30.9873L6.82698 26.3478ZM14.0124 27.1421C14.2344 25.7831 14.624 24.4957 15.129 23.2752C15.1976 23.3355 15.2669 23.3948 15.332 23.4601C16.1026 24.2273 16.5267 25.2527 16.5267 26.3479V27.4187H13.9744C13.9866 27.3265 13.9973 27.2344 14.0124 27.1421ZM13.241 27.0162C13.2192 27.1504 13.2032 27.2844 13.1853 27.4186H8.35891V26.3478C8.35891 24.0941 10.1911 22.2603 12.443 22.2603C13.1667 22.2603 13.859 22.4507 14.4692 22.8015C13.9046 24.1394 13.4813 25.5468 13.241 27.0162ZM23.8635 49.6631C23.6732 49.884 23.3966 50.0106 23.1051 50.0106H1.78079C1.49202 50.0106 1.21809 49.8855 1.02854 49.6673C0.837819 49.4475 0.751589 49.1557 0.792409 48.8676L3.6554 29.0566C3.72864 28.5599 4.14671 28.1998 4.64954 28.1998H6.04573V30.9872C6.04573 31.6239 6.56526 32.1419 7.20423 32.1419C7.84094 32.1419 8.35891 31.6238 8.35891 30.9872V28.1998H16.5266V30.9872C16.5266 31.6239 17.0461 32.1419 17.6851 32.1419C18.3241 32.1419 18.8436 31.6238 18.8436 30.9872V28.1998H20.2424C20.7379 28.1998 21.1625 28.5668 21.2308 29.0551L24.0934 48.8695C24.1363 49.155 24.0524 49.4441 23.8635 49.6631ZM34.4925 45.6198C34.4403 46.2581 34.339 46.8921 34.2048 47.5122C32.3839 47.7918 30.5115 47.7904 28.6411 47.4847C27.1867 47.2471 25.8047 46.834 24.5082 46.2765L23.3949 38.5702C23.6488 38.4851 23.8951 38.3725 24.1283 38.2615C24.7475 37.9666 25.1473 37.7999 25.4906 37.9754C25.9899 38.2333 25.9586 39.1256 25.9224 39.4936L25.9148 39.5623C25.8347 40.2977 25.7347 41.2129 26.3222 41.8473C26.9875 42.5886 28.104 42.4619 28.8598 42.1261C29.139 41.9995 29.4007 41.8473 29.6536 41.7C30.0431 41.4738 30.4109 41.2601 30.8083 41.1533C31.7917 40.887 33.0026 41.3688 33.69 42.3015C34.3148 43.1399 34.5997 44.3182 34.4925 45.6198ZM43.1422 43.3515C42.748 42.9591 42.3902 42.4827 42.0579 42.0012C41.5029 41.2509 41.023 40.3464 40.6732 39.395C40.6304 39.2687 40.5889 39.1417 40.5477 39.015C40.3508 38.4138 40.1479 37.7916 39.7802 37.216C38.8265 35.7321 36.8105 35.085 35.2106 35.7332C35.0569 35.7858 34.9054 35.8526 34.7543 35.9193C34.4701 36.0452 34.1902 36.1669 33.9502 36.1554C33.5409 36.1428 33.1831 35.843 32.9553 35.5943C31.846 34.3752 31.8841 32.2797 33.0381 31.109C34.1696 29.9523 36.3016 29.8875 37.5162 30.9751C37.7992 31.2212 38.0404 31.527 38.2959 31.851C38.5789 32.2103 38.8716 32.5818 39.2412 32.8935C40.0205 33.5665 41.294 33.8945 42.1313 33.1675C42.9533 32.3938 42.699 31.0747 42.2301 30.1779C42.1607 30.0478 42.0878 29.917 42.0146 29.7853C41.6541 29.1395 41.3138 28.5292 41.3734 27.8959C41.4092 27.5213 41.6221 27.1684 41.9731 26.9025C42.4339 26.5531 43.0629 26.3974 43.6134 26.4985C44.8353 26.7167 45.6672 27.8539 46.0556 28.5142C46.4198 29.125 46.7052 29.8112 46.9818 30.475C47.1542 30.8892 47.3327 31.318 47.5349 31.7399C47.9363 32.5305 48.3765 33.0898 48.8735 33.4433C48.1072 37.3242 46.1065 40.7759 43.1422 43.3515ZM49.0247 32.5394C48.7472 32.2593 48.4821 31.8802 48.2351 31.3943C48.0458 30.9987 47.8715 30.5799 47.7026 30.1748C47.4156 29.4858 47.1193 28.7732 46.7279 28.1164C45.9416 26.7797 44.8842 25.9321 43.7512 25.7295C42.9814 25.5906 42.1395 25.7955 41.5013 26.2796C40.9738 26.6794 40.6522 27.2271 40.5957 27.8222C40.5133 28.6977 40.9482 29.4778 41.332 30.166C41.403 30.2927 41.4731 30.4185 41.5387 30.5418C41.9069 31.246 42.067 32.1551 41.607 32.588C41.1381 32.995 40.2786 32.7569 39.7481 32.2992C39.4361 32.036 39.1801 31.7113 38.9092 31.3676C38.6426 31.0293 38.3671 30.6795 38.0325 30.3891C36.5059 29.0204 33.91 29.1009 32.4806 30.5612C31.0508 32.012 31.0028 34.6094 32.378 36.1208C32.851 36.6377 33.3862 36.92 33.9256 36.9367C34.3567 36.9417 34.7355 36.7818 35.07 36.6338C35.2009 36.5758 35.331 36.5177 35.4839 36.4648C36.7447 35.9537 38.3782 36.4793 39.1224 37.6375C39.4356 38.1284 39.6149 38.677 39.8048 39.2576C39.8472 39.3873 39.8895 39.517 39.9368 39.6554C40.3202 40.6992 40.8223 41.6448 41.4223 42.4551C41.7564 42.9398 42.1255 43.429 42.5421 43.8529C42.3137 44.0345 42.0801 44.2114 41.8415 44.383C39.7704 45.8722 37.453 46.8739 35.0261 47.3661C35.1356 46.8118 35.2247 46.2505 35.2714 45.6839C35.3939 44.1923 35.0547 42.8255 34.3173 41.8367C33.4338 40.637 31.9079 40.0453 30.6048 40.3993C30.1077 40.5324 29.6771 40.7827 29.2609 41.0249C29.0137 41.1687 28.7798 41.3045 28.5399 41.4136C27.9852 41.6593 27.2646 41.7275 26.8991 41.3209C26.5497 40.9432 26.6218 40.2845 26.6912 39.6473L26.6992 39.5737C26.8114 38.4365 26.5093 37.622 25.847 37.2802C25.1348 36.9163 24.4218 37.2562 23.7924 37.5556C23.6175 37.6389 23.4465 37.7187 23.281 37.7832L22.0129 29.0063C22.0272 28.9909 22.0444 28.9784 22.0579 28.9623C22.5386 28.3954 22.6977 27.5443 22.5054 26.5663C22.4432 26.2509 22.3551 25.9422 22.27 25.6443C22.1556 25.2441 22.0477 24.8661 22.0019 24.4873C21.9416 23.938 22.0461 23.2273 22.5222 22.8778C23.1009 22.4429 24.0214 22.7389 24.388 22.8854C24.5814 22.9644 24.7726 23.0537 24.9637 23.1426C25.5062 23.3947 26.0665 23.6556 26.6994 23.7167C27.9938 23.8555 29.3114 23.0289 29.7615 21.796C30.2018 20.5691 29.7192 19.094 28.6365 18.362C28.4034 18.2071 28.1601 18.0912 27.9247 17.9786C27.8038 17.9206 27.6828 17.863 27.5646 17.8001C26.1493 17.0505 25.246 15.4067 25.3681 13.7992C25.3767 13.6674 25.3971 13.5208 25.4229 13.3664C26.9695 12.7989 28.6053 12.4401 30.2917 12.3251C32.1802 17.4698 36.9622 23.5585 37.2136 23.8761C37.2876 23.97 37.4005 24.0246 37.5199 24.0246C37.6394 24.0246 37.7523 23.97 37.8263 23.8761C38.0124 23.6409 40.6853 20.2397 42.8265 16.4013C47.401 20.2234 49.9371 26.2501 49.0247 32.5394Z" fill="#333333"/>
</g>
</g>
</g>
</g>
</g>
</g>
</g>
</g>
<defs>
<clipPath id="clip0_93_1573">
<rect width="50" height="50" fill="white" transform="translate(0 0.791748)"/>
</clipPath>
</defs>
</svg>
