<svg width="50" height="50" viewBox="0 0 50 50" fill="none" xmlns="http://www.w3.org/2000/svg">
<path d="M25.2142 49.5964C35.0504 49.5964 43.0241 41.6226 43.0241 31.7865C43.0241 21.9503 35.0504 13.9766 25.2142 13.9766C15.3781 13.9766 7.4043 21.9503 7.4043 31.7865C7.4043 41.6226 15.3781 49.5964 25.2142 49.5964Z" fill="#7AD2FA"/>
<path d="M41.4121 39.204C35.329 52.4931 16.7673 53.0887 9.68823 40.5124C10.9869 41.6646 12.4808 42.6606 14.1407 43.4222C23.0847 47.5134 33.6594 43.5882 37.7506 34.6441C40.2111 29.2641 39.7718 23.2981 37.0866 18.5039C42.7596 23.5715 44.7417 31.9297 41.4121 39.204Z" fill="#4BC3F7"/>
<path d="M40.7383 23.0623C39.4396 21.9101 37.9457 20.9142 36.2858 20.1526C27.3418 16.0614 16.7671 19.9866 12.6759 28.9306C10.2153 34.3107 10.6547 40.2766 13.3399 45.0708C7.66689 40.0032 5.68475 31.645 9.01435 24.3707C13.1153 15.4267 23.6899 11.4917 32.634 15.5927C36.1881 17.2233 38.9612 19.8889 40.7383 23.0623Z" fill="#A5E1FB"/>
<path d="M26.4526 32.615C27.7024 31.3359 30.0165 31.2382 31.3835 32.4588C32.0084 33.0056 32.4185 33.7867 33.0825 34.3433C33.7269 34.8998 34.7815 35.1732 35.4064 34.6264C36.041 34.0211 35.836 32.9275 35.4259 32.1463C35.0158 31.3652 34.4592 30.5743 34.5374 29.6857C34.6448 28.514 36.0215 27.7622 37.1932 27.9672C39.6343 28.4066 40.513 31.6093 41.3235 33.3278C41.6652 33.9918 42.1144 34.6557 42.7295 34.9975C41.9093 39.3035 39.6831 42.9065 36.6367 45.4354C36.1094 44.9765 35.6505 44.3516 35.2794 43.8146C33.6683 41.6274 33.8246 40.319 33.0239 39.0887C32.1939 37.7998 30.3973 37.2042 28.9718 37.79C28.259 38.0341 27.4388 38.7469 26.3452 37.5557C25.1442 36.218 25.1735 33.9136 26.4526 32.615Z" fill="#7BDE9E"/>
<path d="M42.7406 34.9953C41.9595 39.1353 39.8211 42.7969 36.638 45.4332C36.1107 44.984 35.6518 44.3494 35.2808 43.8221C34.2946 42.4746 33.9333 41.342 33.6013 40.3558C35.3003 38.7935 36.7259 36.8798 37.7413 34.6535C38.542 32.9057 39.04 31.0896 39.245 29.2734C40.7975 31.0115 41.0026 34.0286 42.7406 34.9953Z" fill="#51D27F"/>
<path d="M8.88879 38.912C11.1346 38.3261 11.5935 35.8655 13.4682 34.9965C14.2884 34.6157 15.4015 34.7231 15.9288 35.4554C16.7978 36.7052 15.421 38.58 16.1729 39.8981C17.2665 40.318 18.4577 38.7655 19.4927 39.3025C20.1176 39.6247 20.1957 40.484 20.1274 41.1773C20.0493 41.8803 19.9419 42.6809 20.4203 43.1984C20.9085 43.7452 21.7971 43.6769 22.4708 43.384C23.1445 43.0813 23.7304 42.5931 24.4432 42.4075C26.4741 41.8607 28.8273 43.7452 28.5539 47.2018C28.4953 47.8853 28.3879 48.6176 28.2122 49.3597C20.5082 50.7657 12.2477 46.6159 8.88879 38.912Z" fill="#7BDE9E"/>
<path d="M13.3315 45.0536C11.4568 43.3741 9.9238 41.2846 8.88879 38.9119C9.84569 38.658 10.4413 38.121 11.0857 37.3398C11.242 40.0543 12.0133 42.7004 13.3315 45.0536Z" fill="#A7EABF"/>
<path d="M13.3315 45.0547C13.2827 45.0058 13.2339 44.9668 13.1851 44.918C13.2339 44.9668 13.2827 45.0156 13.3315 45.0547Z" fill="#FCB0B0"/>
<path d="M28.2021 49.3505C23.154 50.2684 17.5396 48.833 13.3312 45.0641C13.3312 45.0641 13.3312 45.0641 13.3312 45.0543C12.843 44.1755 12.4329 43.2577 12.0912 42.3203C12.7454 42.7304 13.4191 43.1015 14.1417 43.4237C18.643 45.4839 23.5544 45.5132 27.8409 43.8924C28.8368 45.4742 28.6513 47.4758 28.2021 49.3505Z" fill="#51D27F"/>
<path d="M7.47302 30.2127C8.05887 23.5535 12.4039 17.5875 18.8971 15.1367C18.4382 17.2263 19.5025 19.2475 21.1624 20.1262C21.4944 20.302 21.8655 20.4484 22.1877 20.6633C23.0958 21.2784 23.5156 22.5478 23.1446 23.5925C22.7638 24.6373 21.6311 25.3501 20.5375 25.2329C19.7662 25.1548 19.0827 24.7349 18.3699 24.442C16.4463 23.6804 15.3137 24.6959 15.4992 26.4144C15.6554 27.6447 16.6123 29.3729 15.6457 30.5251C15.1575 31.111 14.2982 31.2477 13.5366 31.1207C12.0817 30.8766 10.8905 29.8221 8.25416 30.0955C7.99053 30.115 7.72689 30.1541 7.47302 30.2127Z" fill="#7BDE9E"/>
<path d="M21.3382 20.2122C17.6376 21.9307 14.513 24.9283 12.6773 28.9316C12.4137 29.4979 12.1891 30.0642 12.0036 30.6403C11.7888 30.5622 11.574 30.4743 11.3592 30.406C10.1875 30.0252 8.85954 29.9373 7.47302 30.2009C8.05887 23.5417 12.4137 17.5758 18.8971 15.125C18.4382 17.3122 19.5513 19.3138 21.3382 20.2122Z" fill="#A7EABF"/>
<path d="M36.9207 16.29C33.1907 19.6782 27.4103 19.4048 24.0124 15.6749C20.6242 11.9352 20.8976 6.15479 24.6275 2.76661C28.3574 -0.631334 34.1379 -0.348172 37.5358 3.38176C40.924 7.11168 40.6506 12.8921 36.9207 16.29Z" fill="#FC8A8A"/>
<path d="M38.0158 15.0976L30.5266 27.5567L23.1644 14.5703C23.4183 14.9511 23.7015 15.3222 24.0237 15.6639C27.4216 19.3938 33.1923 19.677 36.9222 16.279C37.3225 15.9178 37.6936 15.5174 38.0158 15.0976Z" fill="#FC8A8A"/>
<path d="M36.9218 16.2773C33.1919 19.6752 27.4115 19.3921 24.0135 15.6621C23.6718 15.2813 23.3593 14.8908 23.0957 14.4709C26.5522 17.3318 31.6589 17.2928 35.0666 14.1975C38.4255 11.1413 38.9821 6.16157 36.5898 2.48047C36.9218 2.7441 37.2343 3.04679 37.5272 3.36901C40.9349 7.11847 40.6615 12.8891 36.9218 16.2773Z" fill="#F96364"/>
<path d="M38.4439 4.5725C34.9873 1.71159 29.8807 1.75065 26.4827 4.8459C23.1238 7.89233 22.5673 12.8721 24.9497 16.5629C24.6177 16.2895 24.3151 15.9869 24.0124 15.6744C20.6242 11.9347 20.8976 6.1543 24.6275 2.76612C28.3574 -0.631821 34.1379 -0.358423 37.5358 3.38127C37.8775 3.76207 38.1802 4.1624 38.4439 4.5725Z" fill="#FCB0B0"/>
<path d="M36.8429 17.8015L38.327 15.3409C41.1098 11.7281 40.9634 6.56288 37.8193 3.11611C34.2846 -0.770044 28.2504 -1.06297 24.3544 2.47167C21.0737 5.43999 20.3902 10.117 22.2747 13.8177C14.766 15.048 8.53643 20.9358 7.23779 28.8448C5.6267 38.7555 12.3738 48.1389 22.2747 49.75C32.0486 51.4001 41.5492 44.7116 43.1798 34.7229C44.2539 28.1418 41.6273 21.795 36.8429 17.8015ZM30.5254 26.7846L25.0672 17.1473C28.2797 19.559 32.781 19.725 36.2082 17.3328L30.5254 26.7846ZM24.8915 3.04776C28.4554 -0.184191 33.9917 0.0696785 37.253 3.64338C40.4752 7.18779 40.2701 12.7143 36.6671 15.9951C33.1032 19.2368 27.5571 18.9732 24.3154 15.3995C21.0639 11.8258 21.3178 6.29924 24.8915 3.04776ZM8.01893 28.9815C9.01488 22.8691 13.0963 18.0261 18.4178 15.7608C18.4178 18.1139 19.4723 19.6762 20.9858 20.4769C21.2494 20.6233 21.7181 20.8382 21.972 20.9944C22.7336 21.5119 23.0949 22.5957 22.7824 23.4647C22.4602 24.3337 21.4935 24.9489 20.5757 24.8512C19.902 24.7829 19.3259 24.4314 18.5155 24.0799C16.2892 23.1816 14.8929 24.4802 15.1077 26.4623C15.2444 27.6829 16.172 29.2842 15.3421 30.2704C14.932 30.7586 14.1704 30.8367 13.6041 30.7391C12.1882 30.495 10.9873 29.4404 8.21422 29.7041C8.11657 29.7138 8.01893 29.7236 7.91153 29.7431C7.94082 29.4892 7.97987 29.2354 8.01893 28.9815ZM27.8696 49.0079C26.0827 49.2911 24.2373 49.2813 22.4016 48.9786C16.504 48.0119 11.7879 44.1844 9.42498 39.146C11.3192 38.4528 12.0027 36.0996 13.6138 35.338C14.2485 35.0451 15.1761 35.0841 15.5862 35.67C16.3185 36.7245 14.9808 38.5992 15.801 40.0834C15.8498 40.1615 15.9182 40.2201 15.9963 40.2592C17.2656 40.7376 18.4862 39.2534 19.2868 39.644C19.775 39.8979 19.7457 40.7669 19.7067 41.1282L19.6969 41.1965C19.6188 41.9191 19.5212 42.8271 20.0973 43.4521C20.7515 44.1844 21.8548 44.0574 22.5969 43.7255C23.339 43.3837 23.8467 42.9541 24.5107 42.7686C25.4773 42.5049 26.6686 42.9834 27.3423 43.8914C28.4261 45.317 28.2699 47.2601 27.8696 49.0079ZM36.6574 44.9069C36.2765 44.5261 35.925 44.0574 35.6028 43.5888C34.0503 41.4797 34.2065 40.2103 33.3668 38.8922C32.4294 37.4275 30.4376 36.7929 28.8655 37.4275C28.1039 37.6814 27.5571 38.2868 26.649 37.3006C25.5554 36.0996 25.5945 34.0491 26.7272 32.8969C27.8403 31.7643 29.9298 31.696 31.121 32.77C31.746 33.3363 32.1463 34.0979 32.8103 34.6545C33.5816 35.3185 34.8314 35.6407 35.6614 34.9279C36.4718 34.1663 36.218 32.8677 35.759 31.9791C35.3392 31.198 34.851 30.4754 34.9096 29.7333C35.0072 28.7862 36.1594 28.1906 37.1065 28.3566C38.9519 28.6886 39.8405 30.8953 40.4166 32.2623C40.856 33.3363 41.3442 34.5178 42.2815 35.1915C41.5199 39.0972 39.4792 42.4561 36.6574 44.9069ZM42.4475 34.2835C41.8519 33.6683 41.5004 32.7895 41.1586 31.9596C40.5923 30.6219 39.5768 28.0051 37.2725 27.5852C35.8664 27.3313 34.2944 28.2589 34.1577 29.6552C34.0796 30.5535 34.5678 31.4323 35.0853 32.3306C35.4466 33.0239 35.6028 33.9124 35.1537 34.3323C34.6947 34.7326 33.855 34.4983 33.3375 34.0491C32.7517 33.5609 32.3123 32.77 31.6483 32.1646C30.1446 30.8172 27.5864 30.8953 26.1804 32.3306C24.7743 33.7562 24.7255 36.3144 26.0827 37.8083C26.5514 38.3161 27.0787 38.5992 27.6059 38.609C28.2211 38.6188 28.7288 38.2673 29.1487 38.1403C30.3887 37.6326 31.9901 38.1501 32.7224 39.2925C33.4156 40.3568 33.4254 41.9288 34.9877 44.0281C35.3099 44.4968 35.6712 44.9753 36.0715 45.3951C33.9429 47.0843 31.4237 48.2853 28.7093 48.8419C29.0901 46.9476 29.1584 44.9753 28.0063 43.413C27.1372 42.2315 25.6238 41.6457 24.3447 41.9972C23.5928 42.1925 22.8996 42.7295 22.304 42.9931C21.7572 43.2372 21.0541 43.3056 20.6929 42.9053C20.3218 42.5049 20.439 41.7531 20.4976 41.1965C20.605 40.0736 20.3121 39.273 19.6579 38.9312C18.4764 38.3258 17.2656 39.6928 16.4259 39.5561C15.9475 38.3844 17.1875 36.5781 16.2404 35.2208C15.5667 34.2639 14.2192 34.2054 13.3014 34.635C11.4559 35.4845 10.7822 37.8865 9.13205 38.4333C8.12634 36.002 7.65766 33.3168 7.85294 30.5438C10.46 30.0263 11.9734 31.2566 13.4771 31.5104C14.6684 31.6862 15.4983 31.3249 15.9475 30.7781C17.0899 29.4502 16.0353 27.5364 15.8889 26.3647C15.7327 24.8903 16.631 24.1482 18.2225 24.7927C18.8767 25.0563 19.6481 25.5347 20.4976 25.6128C21.7767 25.7495 23.0753 24.9391 23.5147 23.7186C23.9444 22.5078 23.4757 21.053 22.4016 20.3304C22.1868 20.1839 22.0599 20.1254 21.3471 19.7739C19.9606 19.0415 19.072 17.4207 19.1892 15.8389C19.1989 15.7119 19.2185 15.5655 19.238 15.419C20.3511 15.0089 21.5033 14.7258 22.6945 14.55C22.7336 14.6183 22.7726 14.6867 22.8215 14.755L30.1739 27.7317C30.2423 27.8489 30.3692 27.927 30.5059 27.927H30.5157C30.6524 27.927 30.7793 27.8586 30.8476 27.7414L36.423 18.4654C40.8755 22.2442 43.3361 28.132 42.4475 34.2835Z" fill="#333333"/>
<path d="M25.3308 6.20312H34.2162L32.7907 10.8021H26.7466L25.3308 6.20312Z" fill="#FEDD8E"/>
<path d="M28.0843 10.8021H26.7466L25.3308 6.20312H26.6685L28.0843 10.8021Z" fill="#FEE9B4"/>
<path d="M34.2175 6.20312L32.7919 10.8021H31.464L32.8896 6.20312H34.2175Z" fill="#FDD367"/>
<path d="M27.1177 14.2771C26.6197 14.2771 26.2096 13.867 26.2096 13.369C26.2096 12.871 26.6197 12.4609 27.1177 12.4609C27.6254 12.4609 28.0257 12.8613 28.0257 13.369C28.016 13.867 27.6156 14.2771 27.1177 14.2771Z" fill="white"/>
<path d="M31.629 14.2771C31.131 14.2771 30.7209 13.867 30.7209 13.369C30.7209 12.871 31.131 12.4609 31.629 12.4609C32.1368 12.4609 32.5371 12.8613 32.5371 13.369C32.5371 13.867 32.127 14.2771 31.629 14.2771Z" fill="white"/>
<path d="M36.0811 4.375H34.8898C34.5871 4.375 34.3137 4.57028 34.2259 4.86321L33.9329 5.81034H25.8579C25.3404 5.81034 24.9694 6.29855 25.1158 6.81605L26.2876 10.6436C26.395 10.9658 26.6879 11.1904 27.0296 11.1904H32.2535L31.9801 12.0692H27.1077C26.395 12.0692 25.8091 12.655 25.8091 13.3678C25.8091 14.0806 26.395 14.6665 27.1077 14.6665C27.8205 14.6665 28.4064 14.0806 28.4064 13.3678C28.4064 13.1823 28.3673 13.0066 28.299 12.8503H30.4373C30.369 13.0066 30.3299 13.1823 30.3299 13.3678C30.3299 14.0806 30.9158 14.6665 31.6286 14.6665C32.3414 14.6665 32.9272 14.0806 32.9272 13.3678C32.9272 13.0651 32.8198 12.8015 32.6538 12.5769L34.9582 5.15614H36.0811C36.2959 5.15614 36.4716 4.98038 36.4716 4.76557C36.4716 4.55076 36.2959 4.375 36.0811 4.375ZM32.5074 10.4093H27.0394L25.8579 6.59148H33.6888L32.5074 10.4093ZM27.1175 13.8853C26.8343 13.8853 26.6 13.651 26.6 13.3678C26.6 13.0847 26.8343 12.8503 27.1175 12.8503C27.4104 12.8503 27.635 13.0749 27.635 13.3678C27.6252 13.651 27.4007 13.8853 27.1175 13.8853ZM31.6286 13.8853C31.3454 13.8853 31.1111 13.651 31.1111 13.3678C31.1111 13.0847 31.3454 12.8503 31.6286 12.8503C31.9215 12.8503 32.1461 13.0749 32.1461 13.3678C32.1461 13.651 31.9117 13.8853 31.6286 13.8853Z" fill="#333333"/>
<mask id="mask0_358_219" style="mask-type:alpha" maskUnits="userSpaceOnUse" x="13" y="17" width="11" height="16">
<path d="M14.4742 24.995L18.3874 32.0252L21.3517 26.9303L23.2044 25.4482L23.8528 21.8354L21.7222 18.6858L17.9242 17.5742L14.3114 19.0564L13.1072 22.2986L14.4742 24.995Z" fill="black"/>
</mask>
<g mask="url(#mask0_358_219)">
<path d="M15.8185 42.0255C20.4844 42.0255 24.2668 38.2431 24.2668 33.5772C24.2668 28.9113 20.4844 25.1289 15.8185 25.1289C11.1527 25.1289 7.37024 28.9113 7.37024 33.5772C7.37024 38.2431 11.1527 42.0255 15.8185 42.0255Z" fill="#7AD2FA"/>
<path d="M23.5021 37.0966C20.6166 43.4004 11.8116 43.683 8.45361 37.7173C9.06963 38.2638 9.77829 38.7363 10.5657 39.0975C14.8084 41.0382 19.8245 39.1763 21.7652 34.9336C22.9324 32.3815 22.724 29.5515 21.4503 27.2773C24.1413 29.6812 25.0816 33.646 23.5021 37.0966Z" fill="#4BC3F7"/>
<path d="M23.1824 29.4425C22.5664 28.896 21.8578 28.4235 21.0704 28.0623C16.8277 26.1216 11.8115 27.9835 9.87083 32.2262C8.70363 34.7783 8.91206 37.6083 10.1858 39.8825C7.49475 37.4786 6.55451 33.5138 8.13393 30.0632C10.0793 25.8205 15.0954 23.9539 19.3381 25.8992C21.0241 26.6727 22.3395 27.9372 23.1824 29.4425Z" fill="#A5E1FB"/>
<path d="M16.4059 33.9707C16.9988 33.3639 18.0965 33.3176 18.745 33.8966C19.0414 34.1559 19.2359 34.5265 19.5509 34.7905C19.8566 35.0545 20.3568 35.1842 20.6533 34.9248C20.9543 34.6376 20.857 34.1189 20.6625 33.7483C20.468 33.3778 20.204 33.0026 20.241 32.5811C20.292 32.0253 20.9451 31.6687 21.5009 31.766C22.6588 31.9744 23.0757 33.4936 23.4601 34.3088C23.6222 34.6237 23.8353 34.9387 24.1271 35.1008C23.738 37.1434 22.682 38.8525 21.2369 40.0521C20.9867 39.8345 20.769 39.538 20.593 39.2833C19.8288 38.2458 19.9029 37.6251 19.5231 37.0415C19.1294 36.4301 18.2772 36.1476 17.6009 36.4255C17.2628 36.5413 16.8738 36.8794 16.355 36.3143C15.7853 35.6798 15.7992 34.5867 16.4059 33.9707Z" fill="#7BDE9E"/>
<path d="M7.40283 32.8311C7.68074 29.6722 9.74186 26.8423 12.822 25.6797C12.6043 26.6709 13.1091 27.6296 13.8965 28.0465C14.054 28.1299 14.23 28.1994 14.3829 28.3013C14.8136 28.5931 15.0128 29.1952 14.8368 29.6908C14.6561 30.1864 14.1189 30.5245 13.6001 30.4689C13.2342 30.4319 12.91 30.2327 12.5719 30.0937C11.6594 29.7325 11.1221 30.2142 11.2101 31.0293C11.2842 31.6129 11.7381 32.4328 11.2796 32.9793C11.048 33.2572 10.6404 33.3221 10.2791 33.2618C9.58901 33.1461 9.02394 32.6458 7.77337 32.7755C7.64831 32.7848 7.52326 32.8033 7.40283 32.8311Z" fill="#7BDE9E"/>
<path d="M13.9799 28.0889C12.2245 28.9041 10.7423 30.326 9.87155 32.2251C9.74649 32.4937 9.63996 32.7623 9.55196 33.0356C9.45006 32.9986 9.34816 32.9569 9.24626 32.9245C8.69046 32.7438 8.06054 32.7021 7.40283 32.8272C7.68074 29.6683 9.74649 26.8383 12.822 25.6758C12.6043 26.7133 13.1323 27.6628 13.9799 28.0889Z" fill="#A7EABF"/>
<path d="M21.3716 26.2256C19.6022 27.8328 16.8602 27.7031 15.2484 25.9338C13.6412 24.1599 13.7709 21.4179 15.5402 19.8107C17.3095 18.1988 20.0515 18.3331 21.6634 20.1025C23.2706 21.8718 23.1409 24.6138 21.3716 26.2256Z" fill="#FC8A8A"/>
<path d="M21.8911 25.6603L18.3385 31.5704L14.8462 25.4102C14.9666 25.5908 15.1009 25.7668 15.2538 25.9289C16.8656 27.6982 19.603 27.8326 21.3723 26.2207C21.5622 26.0493 21.7382 25.8594 21.8911 25.6603Z" fill="#FC8A8A"/>
<path d="M21.3721 26.2243C19.6028 27.8362 16.8608 27.7019 15.249 25.9325C15.0869 25.7519 14.9387 25.5666 14.8136 25.3675C16.4532 26.7246 18.8756 26.706 20.4921 25.2378C22.0854 23.788 22.3494 21.4259 21.2147 19.6797C21.3721 19.8047 21.5204 19.9483 21.6593 20.1012C23.2758 21.8798 23.1461 24.6171 21.3721 26.2243Z" fill="#F96364"/>
<path d="M22.0941 20.6692C20.4545 19.3121 18.0321 19.3306 16.4202 20.7988C14.8269 22.2439 14.5629 24.6061 15.693 26.3569C15.5356 26.2272 15.392 26.0837 15.2484 25.9354C13.6412 24.1615 13.7709 21.4195 15.5402 19.8123C17.3095 18.2004 20.0515 18.3301 21.6634 20.1041C21.8255 20.2847 21.9691 20.4746 22.0941 20.6692Z" fill="#FCB0B0"/>
<path d="M21.3347 26.9443L22.0387 25.7771C23.3588 24.0634 23.2893 21.6132 21.7979 19.9782C20.1212 18.1347 17.2588 17.9958 15.4107 19.6725C13.8544 21.0805 13.5302 23.2991 14.4241 25.0545C10.8623 25.6381 7.90729 28.4311 7.29127 32.1828C6.52703 36.884 9.72756 41.3351 14.4241 42.0993C19.0605 42.8821 23.5672 39.7094 24.3407 34.9711C24.8502 31.8493 23.6043 28.8387 21.3347 26.9443ZM18.338 31.2055L15.7488 26.634C17.2727 27.778 19.4079 27.8567 21.0336 26.722L18.338 31.2055ZM15.6655 19.9457C17.356 18.4126 19.9822 18.5331 21.5292 20.2283C23.0577 21.9096 22.9604 24.5312 21.2513 26.0874C19.5607 27.6252 16.9299 27.5001 15.3922 25.8049C13.8498 24.1097 13.9702 21.4881 15.6655 19.9457ZM7.66181 32.2476C8.13424 29.3482 10.0703 27.0508 12.5946 25.9763C12.5946 27.0925 13.0948 27.8336 13.8128 28.2134C13.9378 28.2829 14.1601 28.3848 14.2806 28.4589C14.6418 28.7044 14.8132 29.2185 14.665 29.6307C14.5121 30.0429 14.0536 30.3347 13.6182 30.2884C13.2986 30.256 13.0254 30.0892 12.6409 29.9225C11.5849 29.4964 10.9226 30.1124 11.0244 31.0526C11.0893 31.6316 11.5293 32.3912 11.1356 32.859C10.9411 33.0906 10.5798 33.1277 10.3112 33.0813C9.63956 32.9656 9.06985 32.4653 7.75444 32.5904C7.70812 32.595 7.66181 32.5996 7.61086 32.6089C7.62475 32.4885 7.64328 32.3681 7.66181 32.2476ZM17.0781 41.7473C16.2305 41.8817 15.3551 41.877 14.4844 41.7334C11.6868 41.2749 9.44966 39.4593 8.32878 37.0693C9.22733 36.7404 9.55156 35.6242 10.3158 35.2629C10.6169 35.1239 11.0569 35.1425 11.2514 35.4204C11.5988 35.9206 10.9642 36.8099 11.3533 37.5139C11.3765 37.551 11.4089 37.5788 11.4459 37.5973C12.0481 37.8242 12.627 37.1202 13.0068 37.3055C13.2384 37.4259 13.2245 37.8381 13.206 38.0095L13.2014 38.0419C13.1643 38.3847 13.118 38.8154 13.3913 39.1119C13.7016 39.4593 14.225 39.399 14.577 39.2416C14.929 39.0795 15.1699 38.8757 15.4848 38.7877C15.9434 38.6626 16.5084 38.8895 16.828 39.3203C17.3421 39.9965 17.268 40.9183 17.0781 41.7473ZM21.2467 39.802C21.0661 39.6214 20.8993 39.399 20.7465 39.1767C20.01 38.1763 20.0841 37.5741 19.6858 36.9488C19.2412 36.2541 18.2963 35.953 17.5506 36.2541C17.1893 36.3745 16.9299 36.6617 16.4992 36.1939C15.9804 35.6242 15.9989 34.6515 16.5362 34.105C17.0642 33.5677 18.0554 33.5353 18.6205 34.0447C18.9169 34.3134 19.1068 34.6747 19.4218 34.9387C19.7877 35.2536 20.3806 35.4065 20.7743 35.0684C21.1587 34.7071 21.0383 34.0911 20.8206 33.6696C20.6214 33.299 20.3898 32.9563 20.4176 32.6043C20.4639 32.155 21.0105 31.8725 21.4598 31.9512C22.3352 32.1087 22.7566 33.1555 23.0299 33.8039C23.2383 34.3134 23.4699 34.8738 23.9146 35.1934C23.5533 37.0461 22.5853 38.6394 21.2467 39.802ZM23.9933 34.7627C23.7108 34.4709 23.544 34.054 23.3819 33.6603C23.1133 33.0258 22.6316 31.7845 21.5385 31.5853C20.8715 31.4649 20.1258 31.9049 20.061 32.5672C20.0239 32.9933 20.2555 33.4102 20.501 33.8363C20.6724 34.1652 20.7465 34.5867 20.5334 34.7858C20.3157 34.9757 19.9174 34.8646 19.6719 34.6515C19.394 34.4199 19.1856 34.0447 18.8706 33.7576C18.1573 33.1184 16.9438 33.1555 16.2768 33.8363C15.6099 34.5126 15.5867 35.7261 16.2305 36.4347C16.4528 36.6756 16.703 36.8099 16.9531 36.8145C17.2449 36.8192 17.4857 36.6524 17.6849 36.5922C18.2731 36.3514 19.0327 36.5968 19.3801 37.1388C19.709 37.6436 19.7136 38.3893 20.4547 39.3851C20.6075 39.6075 20.7789 39.8344 20.9688 40.0336C19.9591 40.8349 18.7641 41.4046 17.4765 41.6686C17.6571 40.77 17.6895 39.8344 17.143 39.0933C16.7308 38.5329 16.0128 38.255 15.4061 38.4217C15.0494 38.5144 14.7206 38.7691 14.438 38.8942C14.1787 39.01 13.8452 39.0424 13.6738 38.8525C13.4978 38.6626 13.5534 38.3059 13.5812 38.0419C13.6321 37.5093 13.4932 37.1295 13.1828 36.9674C12.6224 36.6802 12.0481 37.3287 11.6497 37.2638C11.4228 36.708 12.011 35.8511 11.5617 35.2073C11.2421 34.7534 10.603 34.7256 10.1676 34.9294C9.29218 35.3324 8.97259 36.4718 8.18982 36.7312C7.71276 35.5779 7.49043 34.3041 7.58307 32.9887C8.81974 32.7432 9.53766 33.3268 10.2509 33.4473C10.816 33.5306 11.2097 33.3593 11.4228 33.0999C11.9647 32.47 11.4645 31.5621 11.395 31.0063C11.3209 30.3069 11.747 29.9549 12.502 30.2606C12.8123 30.3857 13.1782 30.6126 13.5812 30.6497C14.1879 30.7145 14.8039 30.3301 15.0124 29.7511C15.2162 29.1768 14.9938 28.4867 14.4844 28.1439C14.3825 28.0744 14.3222 28.0466 13.9841 27.8799C13.3264 27.5325 12.9049 26.7637 12.9605 26.0133C12.9651 25.9531 12.9744 25.8836 12.9837 25.8141C13.5117 25.6196 14.0582 25.4853 14.6233 25.4019C14.6418 25.4343 14.6604 25.4668 14.6835 25.4992L18.1712 31.6548C18.2036 31.7104 18.2639 31.7474 18.3287 31.7474H18.3333C18.3982 31.7474 18.4584 31.715 18.4908 31.6594L21.1355 27.2593C23.2476 29.0517 24.4148 31.8447 23.9933 34.7627Z" fill="#333333"/>
<path d="M15.8739 21.4414H20.0888L19.4126 23.623H16.5455L15.8739 21.4414Z" fill="#FEDD8E"/>
<path d="M17.1801 23.623H16.5455L15.8739 21.4414H16.5084L17.1801 23.623Z" fill="#FEE9B4"/>
<path d="M20.0892 21.4414L19.413 23.623H18.7831L19.4593 21.4414H20.0892Z" fill="#FDD367"/>
<path d="M16.7214 25.2717C16.4852 25.2717 16.2906 25.0771 16.2906 24.8409C16.2906 24.6047 16.4852 24.4102 16.7214 24.4102C16.9623 24.4102 17.1522 24.6001 17.1522 24.8409C17.1475 25.0771 16.9576 25.2717 16.7214 25.2717Z" fill="white"/>
<path d="M18.8614 25.2717C18.6252 25.2717 18.4307 25.0771 18.4307 24.8409C18.4307 24.6047 18.6252 24.4102 18.8614 24.4102C19.1023 24.4102 19.2922 24.6001 19.2922 24.8409C19.2922 25.0771 19.0976 25.2717 18.8614 25.2717Z" fill="white"/>
<path d="M20.9733 20.5742H20.4083C20.2647 20.5742 20.135 20.6669 20.0933 20.8058L19.9543 21.2551H16.1239C15.8784 21.2551 15.7024 21.4867 15.7719 21.7322L16.3277 23.5478C16.3786 23.7006 16.5176 23.8072 16.6797 23.8072H19.1577L19.028 24.224H16.7168C16.3786 24.224 16.1007 24.5019 16.1007 24.8401C16.1007 25.1782 16.3786 25.4561 16.7168 25.4561C17.0549 25.4561 17.3328 25.1782 17.3328 24.8401C17.3328 24.752 17.3142 24.6687 17.2818 24.5946H18.2962C18.2638 24.6687 18.2452 24.752 18.2452 24.8401C18.2452 25.1782 18.5231 25.4561 18.8613 25.4561C19.1994 25.4561 19.4773 25.1782 19.4773 24.8401C19.4773 24.6965 19.4263 24.5714 19.3476 24.4649L20.4407 20.9448H20.9733C21.0752 20.9448 21.1586 20.8614 21.1586 20.7595C21.1586 20.6576 21.0752 20.5742 20.9733 20.5742ZM19.2781 23.4366H16.6843L16.1239 21.6256H19.8385L19.2781 23.4366ZM16.7214 25.0855C16.5871 25.0855 16.4759 24.9744 16.4759 24.8401C16.4759 24.7057 16.5871 24.5946 16.7214 24.5946C16.8603 24.5946 16.9669 24.7011 16.9669 24.8401C16.9622 24.9744 16.8557 25.0855 16.7214 25.0855ZM18.8613 25.0855C18.7269 25.0855 18.6158 24.9744 18.6158 24.8401C18.6158 24.7057 18.7269 24.5946 18.8613 24.5946C19.0002 24.5946 19.1067 24.7011 19.1067 24.8401C19.1067 24.9744 18.9956 25.0855 18.8613 25.0855Z" fill="#333333"/>
</g>
<mask id="mask1_358_219" style="mask-type:alpha" maskUnits="userSpaceOnUse" x="18" y="26" width="10" height="12">
<path d="M20.0371 31.9882L23.1042 37.4984L25.4276 33.505L26.8797 32.3434L27.388 29.5117L25.718 27.0431L22.7412 26.1719L19.9096 27.3336L18.9657 29.8748L20.0371 31.9882Z" fill="black"/>
</mask>
<g mask="url(#mask1_358_219)">
<path d="M21.091 45.337C24.748 45.337 27.7126 42.3724 27.7126 38.7154C27.7126 35.0584 24.748 32.0938 21.091 32.0938C17.434 32.0938 14.4694 35.0584 14.4694 38.7154C14.4694 42.3724 17.434 45.337 21.091 45.337Z" fill="#7AD2FA"/>
<path d="M27.1133 41.4735C24.8516 46.4144 17.9504 46.6358 15.3185 41.96C15.8013 42.3884 16.3567 42.7587 16.9739 43.0418C20.2992 44.5629 24.2308 43.1035 25.7519 39.7782C26.6667 37.7779 26.5034 35.5598 25.5051 33.7773C27.6142 35.6615 28.3512 38.769 27.1133 41.4735Z" fill="#4BC3F7"/>
<path d="M26.8627 35.4747C26.3799 35.0463 25.8245 34.676 25.2073 34.3929C21.882 32.8718 17.9504 34.3311 16.4293 37.6565C15.5145 39.6568 15.6778 41.8749 16.6762 43.6573C14.567 41.7732 13.83 38.6657 15.068 35.9611C16.5927 32.6358 20.5243 31.1728 23.8496 32.6975C25.171 33.3038 26.202 34.2948 26.8627 35.4747Z" fill="#A5E1FB"/>
<path d="M21.5514 39.0257C22.0161 38.5501 22.8765 38.5138 23.3847 38.9676C23.6171 39.1709 23.7695 39.4613 24.0164 39.6682C24.256 39.8752 24.6481 39.9768 24.8804 39.7735C25.1164 39.5484 25.0401 39.1418 24.8877 38.8514C24.7352 38.561 24.5283 38.267 24.5573 37.9366C24.5972 37.501 25.1091 37.2214 25.5447 37.2977C26.4523 37.461 26.779 38.6518 27.0804 39.2907C27.2074 39.5375 27.3744 39.7844 27.6031 39.9115C27.2982 41.5124 26.4705 42.852 25.3378 43.7922C25.1418 43.6216 24.9712 43.3893 24.8332 43.1896C24.2342 42.3764 24.2923 41.89 23.9946 41.4326C23.686 40.9534 23.0181 40.7319 22.4881 40.9497C22.223 41.0405 21.9181 41.3055 21.5115 40.8626C21.065 40.3653 21.0759 39.5085 21.5514 39.0257Z" fill="#7BDE9E"/>
<path d="M14.4949 38.1286C14.7127 35.6527 16.3282 33.4346 18.7423 32.5234C18.5717 33.3003 18.9674 34.0518 19.5845 34.3785C19.708 34.4439 19.8459 34.4983 19.9657 34.5782C20.3033 34.8069 20.4594 35.2788 20.3215 35.6673C20.1799 36.0557 19.7588 36.3207 19.3522 36.2771C19.0654 36.2481 18.8113 36.092 18.5463 35.9831C17.8311 35.6999 17.41 36.0775 17.479 36.7164C17.537 37.1738 17.8928 37.8164 17.5334 38.2448C17.3519 38.4626 17.0324 38.5134 16.7493 38.4662C16.2084 38.3755 15.7655 37.9834 14.7853 38.085C14.6873 38.0923 14.5893 38.1068 14.4949 38.1286Z" fill="#7BDE9E"/>
<path d="M19.6499 34.4148C18.274 35.0537 17.1123 36.1682 16.4298 37.6567C16.3318 37.8672 16.2483 38.0778 16.1793 38.292C16.0995 38.2629 16.0196 38.2302 15.9397 38.2048C15.5041 38.0632 15.0104 38.0306 14.4949 38.1286C14.7127 35.6527 16.3318 33.4346 18.7423 32.5234C18.5717 33.3366 18.9855 34.0808 19.6499 34.4148Z" fill="#A7EABF"/>
<path d="M25.4434 32.9543C24.0566 34.214 21.9075 34.1123 20.6441 32.7256C19.3844 31.3352 19.4861 29.1861 20.8729 27.9263C22.2596 26.663 24.4087 26.7683 25.6721 28.1551C26.9318 29.5418 26.8301 31.691 25.4434 32.9543Z" fill="#FC8A8A"/>
<path d="M25.8505 32.5124L23.0661 37.1447L20.3289 32.3164C20.4232 32.458 20.5285 32.5959 20.6483 32.723C21.9117 34.1098 24.0572 34.215 25.4439 32.9517C25.5928 32.8174 25.7307 32.6685 25.8505 32.5124Z" fill="#FC8A8A"/>
<path d="M25.4438 32.9499C24.0571 34.2132 21.9079 34.108 20.6446 32.7212C20.5175 32.5796 20.4014 32.4344 20.3033 32.2783C21.5885 33.342 23.4871 33.3275 24.7541 32.1767C26.0029 31.0404 26.2098 29.1889 25.3204 27.8203C25.4438 27.9183 25.56 28.0309 25.6689 28.1507C26.9359 29.5447 26.8342 31.6902 25.4438 32.9499Z" fill="#F96364"/>
<path d="M26.0097 28.5992C24.7246 27.5355 22.8259 27.5501 21.5626 28.7009C20.3138 29.8335 20.1069 31.685 20.9927 33.0572C20.8692 32.9556 20.7567 32.843 20.6441 32.7269C19.3844 31.3365 19.4861 29.1873 20.8729 27.9276C22.2596 26.6643 24.4087 26.7659 25.6721 28.1563C25.7991 28.2979 25.9117 28.4467 26.0097 28.5992Z" fill="#FCB0B0"/>
<path d="M25.4144 33.5169L25.9662 32.6021C27.0008 31.2589 26.9464 29.3385 25.7774 28.057C24.4633 26.6121 22.2197 26.5032 20.7713 27.8174C19.5515 28.921 19.2974 30.6599 19.998 32.0358C17.2063 32.4932 14.8902 34.6823 14.4074 37.6228C13.8084 41.3075 16.3169 44.7962 19.998 45.3952C23.6319 46.0087 27.1642 43.522 27.7704 39.8082C28.1698 37.3614 27.1932 35.0017 25.4144 33.5169ZM23.0656 36.8568L21.0363 33.2737C22.2306 34.1704 23.9042 34.2321 25.1784 33.3427L23.0656 36.8568ZM20.9709 28.0316C22.296 26.83 24.3544 26.9243 25.5669 28.253C26.7649 29.5708 26.6886 31.6256 25.349 32.8453C24.024 34.0506 21.962 33.9526 20.7567 32.6239C19.5479 31.2952 19.6422 29.2405 20.9709 28.0316ZM14.6978 37.6736C15.0681 35.4011 16.5855 33.6004 18.5641 32.7582C18.5641 33.6331 18.9561 34.214 19.5188 34.5116C19.6168 34.5661 19.7911 34.646 19.8855 34.704C20.1686 34.8964 20.303 35.2994 20.1868 35.6225C20.067 35.9456 19.7076 36.1743 19.3663 36.138C19.1159 36.1126 18.9017 35.9819 18.6004 35.8512C17.7727 35.5172 17.2535 36 17.3334 36.737C17.3842 37.1908 17.7291 37.7861 17.4205 38.1528C17.268 38.3343 16.9849 38.3634 16.7743 38.3271C16.2479 38.2363 15.8014 37.8442 14.7704 37.9423C14.7341 37.9459 14.6978 37.9495 14.6579 37.9568C14.6688 37.8624 14.6833 37.768 14.6978 37.6736ZM22.0782 45.1193C21.4138 45.2246 20.7277 45.221 20.0452 45.1084C17.8525 44.749 16.0991 43.326 15.2206 41.4527C15.9248 41.195 16.179 40.3201 16.778 40.0369C17.0139 39.928 17.3588 39.9425 17.5113 40.1604C17.7835 40.5524 17.2862 41.2494 17.5911 41.8012C17.6093 41.8303 17.6347 41.8521 17.6637 41.8666C18.1357 42.0445 18.5895 41.4927 18.8871 41.6379C19.0687 41.7323 19.0578 42.0554 19.0433 42.1897L19.0396 42.2151C19.0106 42.4837 18.9743 42.8214 19.1885 43.0537C19.4317 43.326 19.8419 43.2788 20.1178 43.1553C20.3937 43.0283 20.5825 42.8685 20.8293 42.7996C21.1887 42.7016 21.6316 42.8794 21.8821 43.2171C22.2851 43.7471 22.227 44.4695 22.0782 45.1193ZM25.3454 43.5946C25.2038 43.453 25.0731 43.2788 24.9533 43.1045C24.3761 42.3204 24.4342 41.8484 24.122 41.3583C23.7735 40.8138 23.0329 40.5778 22.4485 40.8138C22.1653 40.9082 21.962 41.1333 21.6244 40.7666C21.2178 40.3201 21.2323 39.5577 21.6534 39.1294C22.0673 38.7082 22.8442 38.6828 23.2871 39.0822C23.5194 39.2927 23.6682 39.5759 23.9151 39.7828C24.2019 40.0297 24.6666 40.1495 24.9751 39.8845C25.2764 39.6013 25.1821 39.1185 25.0114 38.7881C24.8553 38.4977 24.6738 38.229 24.6956 37.9531C24.7319 37.601 25.1603 37.3796 25.5124 37.4413C26.1985 37.5647 26.5289 38.3851 26.7431 38.8934C26.9064 39.2927 27.088 39.732 27.4365 39.9825C27.1533 41.4346 26.3946 42.6834 25.3454 43.5946ZM27.4982 39.6449C27.2767 39.4161 27.146 39.0894 27.019 38.7808C26.8084 38.2835 26.4309 37.3106 25.5741 37.1545C25.0514 37.0601 24.4669 37.405 24.4161 37.9241C24.387 38.2581 24.5685 38.5848 24.7609 38.9188C24.8953 39.1765 24.9533 39.5069 24.7864 39.663C24.6157 39.8118 24.3035 39.7247 24.1111 39.5577C23.8933 39.3762 23.7299 39.0822 23.4831 38.8571C22.924 38.3561 21.9729 38.3851 21.4501 38.9188C20.9274 39.4488 20.9092 40.4 21.4138 40.9554C21.5881 41.1442 21.7841 41.2494 21.9801 41.2531C22.2089 41.2567 22.3976 41.126 22.5537 41.0788C23.0148 40.89 23.6101 41.0824 23.8824 41.5072C24.1402 41.9029 24.1438 42.4874 24.7246 43.2679C24.8444 43.4421 24.9788 43.62 25.1276 43.7761C24.3362 44.4042 23.3996 44.8507 22.3904 45.0576C22.532 44.3533 22.5574 43.62 22.129 43.0392C21.8059 42.5999 21.2432 42.3821 20.7676 42.5128C20.4881 42.5854 20.2304 42.785 20.0089 42.8831C19.8056 42.9738 19.5442 42.9992 19.4099 42.8504C19.272 42.7016 19.3155 42.422 19.3373 42.2151C19.3772 41.7976 19.2683 41.4999 19.0251 41.3729C18.5858 41.1478 18.1357 41.656 17.8235 41.6052C17.6456 41.1696 18.1066 40.498 17.7545 39.9934C17.504 39.6376 17.003 39.6158 16.6618 39.7755C15.9757 40.0914 15.7252 40.9844 15.1117 41.1877C14.7377 40.2838 14.5635 39.2855 14.6361 38.2545C15.6054 38.062 16.1681 38.5195 16.7271 38.6139C17.17 38.6792 17.4786 38.5449 17.6456 38.3416C18.0703 37.8479 17.6783 37.1363 17.6238 36.7007C17.5657 36.1525 17.8997 35.8766 18.4914 36.1162C18.7347 36.2142 19.0215 36.3921 19.3373 36.4212C19.8129 36.472 20.2957 36.1707 20.4591 35.7169C20.6188 35.2667 20.4445 34.7258 20.0452 34.4572C19.9653 34.4027 19.9181 34.3809 19.6531 34.2503C19.1376 33.978 18.8073 33.3754 18.8508 32.7872C18.8545 32.7401 18.8617 32.6856 18.869 32.6311C19.2828 32.4787 19.7112 32.3734 20.1541 32.3081C20.1686 32.3335 20.1832 32.3589 20.2013 32.3843L22.9349 37.2089C22.9603 37.2525 23.0075 37.2815 23.0583 37.2815H23.062C23.1128 37.2815 23.16 37.2561 23.1854 37.2126L25.2583 33.7638C26.9137 35.1687 27.8285 37.3578 27.4982 39.6449Z" fill="#333333"/>
<path d="M21.1343 29.2031H24.4378L23.9078 30.913H21.6607L21.1343 29.2031Z" fill="#FEDD8E"/>
<path d="M22.158 30.913H21.6607L21.1343 29.2031H21.6316L22.158 30.913Z" fill="#FEE9B4"/>
<path d="M24.4383 29.2031L23.9083 30.913H23.4146L23.9446 29.2031H24.4383Z" fill="#FDD367"/>
<path d="M21.7987 32.2065C21.6135 32.2065 21.4611 32.054 21.4611 31.8689C21.4611 31.6837 21.6135 31.5312 21.7987 31.5312C21.9875 31.5312 22.1363 31.6801 22.1363 31.8689C22.1327 32.054 21.9838 32.2065 21.7987 32.2065Z" fill="white"/>
<path d="M23.4759 32.2065C23.2908 32.2065 23.1383 32.054 23.1383 31.8689C23.1383 31.6837 23.2908 31.5312 23.4759 31.5312C23.6647 31.5312 23.8135 31.6801 23.8135 31.8689C23.8135 32.054 23.6611 32.2065 23.4759 32.2065Z" fill="white"/>
<path d="M25.1311 28.5234H24.6883C24.5757 28.5234 24.4741 28.596 24.4414 28.705L24.3325 29.0571H21.3302C21.1378 29.0571 20.9999 29.2386 21.0543 29.431L21.49 30.8541C21.5299 30.9739 21.6388 31.0574 21.7659 31.0574H23.7081L23.6064 31.3841H21.7949C21.5299 31.3841 21.3121 31.6019 21.3121 31.8669C21.3121 32.1319 21.5299 32.3498 21.7949 32.3498C22.0599 32.3498 22.2777 32.1319 22.2777 31.8669C22.2777 31.798 22.2632 31.7326 22.2378 31.6745H23.0328C23.0074 31.7326 22.9929 31.798 22.9929 31.8669C22.9929 32.1319 23.2107 32.3498 23.4757 32.3498C23.7408 32.3498 23.9586 32.1319 23.9586 31.8669C23.9586 31.7544 23.9186 31.6564 23.8569 31.5729L24.7137 28.8139H25.1311C25.211 28.8139 25.2764 28.7485 25.2764 28.6686C25.2764 28.5888 25.211 28.5234 25.1311 28.5234ZM23.8025 30.767H21.7695L21.3302 29.3475H24.2417L23.8025 30.767ZM21.7985 32.0593C21.6933 32.0593 21.6061 31.9722 21.6061 31.8669C21.6061 31.7616 21.6933 31.6745 21.7985 31.6745C21.9075 31.6745 21.991 31.758 21.991 31.8669C21.9873 31.9722 21.9038 32.0593 21.7985 32.0593ZM23.4757 32.0593C23.3705 32.0593 23.2833 31.9722 23.2833 31.8669C23.2833 31.7616 23.3705 31.6745 23.4757 31.6745C23.5846 31.6745 23.6681 31.758 23.6681 31.8669C23.6681 31.9722 23.581 32.0593 23.4757 32.0593Z" fill="#333333"/>
</g>
</svg>
