<svg width="50" height="50" viewBox="0 0 50 50" fill="none" xmlns="http://www.w3.org/2000/svg">
<g clip-path="url(#clip0_93_967)">
<path d="M0.391602 36.3204V39.6927C0.391602 40.5313 1.06748 41.2073 1.90605 41.2073H48.0872C48.9256 41.2073 49.6102 40.5313 49.6102 39.6927V36.3204H0.391602Z" fill="#D3D9D9"/>
<path d="M44.458 41.2043H48.1018C48.9354 41.2043 49.6101 40.5296 49.6101 39.696V36.3205H45.9743V39.696C45.9742 40.5295 45.2994 41.2043 44.458 41.2043Z" fill="#A8B2B4"/>
<path d="M5.54365 41.2043H1.8999C1.06631 41.2043 0.391602 40.5296 0.391602 39.696V36.3205H4.02734V39.696C4.02744 40.5295 4.70225 41.2043 5.54365 41.2043Z" fill="#EDEDED"/>
<path d="M49.6141 4.86476V36.3204H0.395508V4.86476C0.395508 4.03126 1.07021 3.34845 1.90381 3.34845H48.0897C48.9233 3.34855 49.6141 4.03126 49.6141 4.86476Z" fill="#D4F0FC"/>
<path d="M40.2753 14.1317H37.6664C37.4922 15.6177 35.9283 16.7739 34.0125 16.7739C32.7292 16.7739 31.6022 16.2498 30.9473 15.4555V32.2974H40.2754V20.1906L42.4877 22.403L45.5153 19.3754L40.2753 14.1317Z" fill="#FC8A8A"/>
<path d="M27.7568 29.2031V32.2974H40.275V20.1906L42.491 22.3992L45.515 19.3753L40.275 14.1315H38.9447C39.0374 14.7541 39.0818 15.3915 39.0818 16.04C39.0817 22.718 34.1679 28.247 27.7568 29.2031Z" fill="#F96364"/>
<path d="M19.0636 15.4561V32.2972H9.73477V20.1908L7.52363 22.4019L4.49609 19.3744L9.73486 14.1317H12.3444C12.5163 15.6162 14.0828 16.7725 15.997 16.7725C17.2821 16.7725 18.4073 16.2492 19.0636 15.4561Z" fill="#FEDD8E"/>
<path d="M19.0637 23.0464V32.2971H9.73486V29.2031C13.6766 28.6132 17.0519 26.2966 19.0637 23.0464Z" fill="#FDD367"/>
<path d="M38.7635 18.7399L35.2346 22.2687L32.6562 19.6902V33.801H18.0615V19.6901L15.4829 22.2686L11.9585 18.7398L18.0616 12.6281H21.1023C21.3053 14.3601 23.1323 15.7077 25.3567 15.7077C27.5897 15.7077 29.4124 14.3601 29.6155 12.6281H32.6562L38.7635 18.7399Z" fill="#BE90BE"/>
<path d="M18.0654 30.1944V33.8009H32.6557V19.6901L35.2386 22.2643L38.7631 18.7398L32.6557 12.6281H31.1052C31.2132 13.3537 31.2649 14.0966 31.2649 14.8525C31.2649 22.6358 25.5377 29.08 18.0654 30.1944Z" fill="#A76BA7"/>
<path d="M45.7225 19.1681L40.4826 13.9244C40.4276 13.8694 40.3533 13.8386 40.2755 13.8386H37.6664C37.5176 13.8386 37.3929 13.95 37.3753 14.0977C37.2941 14.789 36.8778 15.3918 36.2589 15.8191L32.8633 12.4209C32.8083 12.3659 32.734 12.3351 32.6562 12.3351H29.6152C29.4664 12.3351 29.3417 12.4465 29.3241 12.5942C29.3237 12.5977 29.3227 12.601 29.3223 12.6044L25.6537 10.3584V9.07862C26.4885 8.93898 27.1263 8.21261 27.1263 7.34054C27.1263 6.367 26.3343 5.57501 25.3607 5.57501C24.3871 5.57501 23.5951 6.367 23.5951 7.34054C23.5951 7.50226 23.7264 7.63351 23.8881 7.63351C24.0498 7.63351 24.1811 7.50226 24.1811 7.34054C24.1811 6.69005 24.7102 6.16095 25.3606 6.16095C26.0111 6.16095 26.5402 6.69005 26.5402 7.34054C26.5402 7.98947 26.0111 8.5171 25.3606 8.5171C25.1989 8.5171 25.0677 8.64835 25.0677 8.81007V10.3585L21.3953 12.6068C21.3948 12.6026 21.3936 12.5985 21.3931 12.5942C21.3755 12.4465 21.2508 12.3351 21.102 12.3351H18.0614C17.9836 12.3351 17.9092 12.3659 17.8543 12.4209L14.206 16.0742C13.3405 15.6553 12.7338 14.9455 12.6343 14.0976C12.6167 13.9499 12.492 13.8385 12.3432 13.8385H9.73447C9.65664 13.8385 9.58223 13.8693 9.52734 13.9243L4.2875 19.168C4.17305 19.2824 4.17305 19.4679 4.2875 19.5822L7.31504 22.6098C7.42949 22.7242 7.61484 22.7242 7.7293 22.6098L9.4415 20.8976V32.2972C9.4415 32.4589 9.57275 32.5901 9.73447 32.5901H17.7685V33.8006C17.7685 33.9623 17.8997 34.0936 18.0614 34.0936H32.6561C32.8178 34.0936 32.949 33.9623 32.949 33.8006V32.5901H40.2753C40.437 32.5901 40.5683 32.4589 40.5683 32.2972V20.8979L42.2801 22.6101C42.3351 22.6651 42.4094 22.6959 42.4872 22.6959C42.565 22.6959 42.6395 22.6651 42.6943 22.6101L45.7223 19.5825C45.8369 19.468 45.8369 19.2825 45.7225 19.1681ZM25.3607 10.8659L29.1743 13.2008C28.6833 14.4973 27.1597 15.415 25.3565 15.415C23.5564 15.415 22.0353 14.4984 21.5438 13.2029L25.3607 10.8659ZM10.0275 32.0044V20.1905C10.0275 20.0719 9.95615 19.9651 9.84668 19.9196C9.73721 19.8746 9.61133 19.8994 9.52734 19.9833L7.52217 21.9885L4.90889 19.3752L9.85576 14.4245H12.0955C12.286 15.3012 12.9083 16.0387 13.771 16.5098L11.7511 18.5325C11.6366 18.647 11.6366 18.8324 11.7511 18.9468L15.2754 22.4757C15.3304 22.5307 15.4047 22.5615 15.4825 22.5615C15.5604 22.5615 15.6348 22.5307 15.6896 22.4757L17.7685 20.3973V32.0044H10.0275ZM32.8633 19.4828C32.7797 19.3989 32.653 19.3745 32.5439 19.4192C32.4345 19.4646 32.3631 19.5714 32.3631 19.6901V33.5079H18.3545V19.6901C18.3545 19.5714 18.2831 19.4646 18.1736 19.4192C18.0642 19.3745 17.9383 19.3989 17.8543 19.4828L15.4825 21.8542L12.3722 18.7397L18.1828 12.921H20.8525C21.2142 14.6943 23.0969 16.0009 25.3565 16.0009C27.6185 16.0009 29.5026 14.6943 29.8647 12.921H32.5349L38.3489 18.7397L35.2344 21.8542L32.8633 19.4828ZM42.4874 21.9886L40.4826 19.9834C40.3987 19.8995 40.2728 19.8747 40.1633 19.9197C40.0538 19.9651 39.9824 20.072 39.9824 20.1906V32.0045H32.9491V20.3973L35.0271 22.4757C35.0821 22.5307 35.1564 22.5615 35.2343 22.5615C35.3121 22.5615 35.3865 22.5307 35.4414 22.4757L38.9703 18.9468C39.0848 18.8323 39.0848 18.6469 38.9703 18.5325L36.6755 16.236C37.3084 15.7725 37.7573 15.1453 37.914 14.4246H40.1541L45.101 19.3753L42.4874 21.9886Z" fill="#333333"/>
<path d="M32.3315 46.6551H17.6694L20.1386 41.2036H29.8623L32.3315 46.6551Z" fill="white"/>
<path d="M48.087 2.95441H1.90615C0.855469 2.95441 0.000976562 3.8132 0.000976562 4.86837V36.3203V39.6928C0.000976562 40.7435 0.855566 41.598 1.90615 41.598H19.5311L17.4173 46.2645H16.135C15.919 46.2645 15.7443 46.4392 15.7443 46.6551C15.7443 46.871 15.919 47.0457 16.135 47.0457H17.6693H32.3314H33.8662C34.0821 47.0457 34.2568 46.871 34.2568 46.6551C34.2568 46.4392 34.0821 46.2645 33.8662 46.2645H32.5834L30.4699 41.598H48.087C49.1422 41.598 50.001 40.7434 50.001 39.6928V36.3203V4.86837C50.001 3.8132 49.1422 2.95441 48.087 2.95441ZM0.782324 4.86837C0.782324 4.24386 1.28662 3.73566 1.90625 3.73566H48.0871C48.7116 3.73566 49.2198 4.24386 49.2198 4.86837V35.9297H0.782422L0.782324 4.86837ZM31.7257 46.2645H18.2752L20.3889 41.598H29.6124L31.7257 46.2645ZM49.2196 39.6928C49.2196 40.3123 48.7114 40.8167 48.0869 40.8167H29.8887C29.8798 40.8161 29.8715 40.8129 29.8624 40.8129H20.1388C20.1297 40.8129 20.1214 40.8161 20.1125 40.8167H1.90615C1.28662 40.8166 0.782227 40.3123 0.782227 39.6928V36.711H49.2196V39.6928Z" fill="#333333"/>
<path d="M23.3035 38.7639C23.3035 39.1517 22.9932 39.4618 22.6055 39.4618C22.2249 39.4618 21.9077 39.1517 21.9077 38.7639C21.9077 38.3832 22.2249 38.0659 22.6055 38.0659C22.9933 38.0659 23.3035 38.3831 23.3035 38.7639Z" fill="#7C8B8E"/>
<path d="M25.699 38.7639C25.699 39.1517 25.3887 39.4618 25.001 39.4618C24.6204 39.4618 24.3032 39.1517 24.3032 38.7639C24.3032 38.3832 24.6204 38.0659 25.001 38.0659C25.3887 38.0659 25.699 38.3831 25.699 38.7639Z" fill="#7C8B8E"/>
<path d="M28.0945 38.7639C28.0945 39.1517 27.7842 39.4618 27.3965 39.4618C27.0159 39.4618 26.6987 39.1517 26.6987 38.7639C26.6987 38.3832 27.0159 38.0659 27.3965 38.0659C27.7842 38.0659 28.0945 38.3831 28.0945 38.7639Z" fill="#7C8B8E"/>
</g>
<defs>
<clipPath id="clip0_93_967">
<rect width="50" height="50" fill="white" transform="translate(0.000976562)"/>
</clipPath>
</defs>
</svg>
