<svg width="394" height="184" viewBox="0 0 394 184" fill="none" xmlns="http://www.w3.org/2000/svg">
<g clip-path="url(#clip0_93_1073)">
<path fill-rule="evenodd" clip-rule="evenodd" d="M18.8859 140.388H375.131C385.514 140.388 394.017 148.039 394.017 157.384C394.017 166.728 385.514 174.379 375.131 174.379H18.8859C8.50298 174.379 0 166.728 0 157.384C0 148.039 8.50298 140.388 18.8859 140.388Z" fill="#F4E3E4"/>
<path fill-rule="evenodd" clip-rule="evenodd" d="M41.9632 151.943H352.037C361.075 151.943 368.474 159.163 368.474 167.971C368.474 176.78 361.075 184 352.037 184H41.9632C32.9255 184 25.5264 176.797 25.5264 167.971C25.5264 159.163 32.9255 151.943 41.9632 151.943Z" fill="#FFF1F2"/>
<path d="M354.158 58.2762H46.1367V152.409H354.158V58.2762Z" fill="#571715"/>
<path d="M354.176 58.2762H276.58V152.409H354.176V58.2762Z" fill="#4F110F"/>
<path d="M306.469 58.2762H93.8433V152.409H306.469V58.2762Z" fill="#3B0D0C"/>
<path d="M358.556 50.521H41.7559V58.2762H358.556V50.521Z" fill="#FFF1F2"/>
<path fill-rule="evenodd" clip-rule="evenodd" d="M99.8975 47.2738L199.898 4.28351L299.881 47.2738L299.899 152.409H99.8975V47.2738Z" fill="#822522"/>
<g style="mix-blend-mode:multiply" opacity="0.3">
<path fill-rule="evenodd" clip-rule="evenodd" d="M99.8975 47.6192L197.863 5.26797L199.639 4.508L201.416 5.26797L299.881 47.6365V51.7818H294.776L199.639 10.8814L104.485 51.7818H99.8975V47.6192Z" fill="#571715"/>
</g>
<path d="M253.761 74.5811H146.172V145.984H253.761V74.5811Z" fill="#571715"/>
<path d="M250.502 76.7401H149.415V143.825H250.502V76.7401Z" fill="#210706"/>
<path fill-rule="evenodd" clip-rule="evenodd" d="M90.5146 47.2738L198.121 0.759974L199.898 0L201.674 0.759974L309.798 47.2738H295.035L199.898 6.37342L104.744 47.2738H90.5146Z" fill="#F4F4F4"/>
<path opacity="0.3" fill-rule="evenodd" clip-rule="evenodd" d="M149.415 76.7919L216.352 143.842H250.502V76.7401H149.415V76.7919Z" fill="black"/>
<path d="M293.724 74.5811H257.953V144.827H293.724V74.5811Z" fill="#571715"/>
<path d="M269.405 76.3083H259.384V88.2951H269.405V76.3083Z" fill="#DEDEDE"/>
<path d="M269.405 90.0051H259.384V101.992H269.405V90.0051Z" fill="#BCBCBC"/>
<path d="M269.405 103.702H259.384V115.689H269.405V103.702Z" fill="#DEDEDE"/>
<path d="M269.405 117.416H259.384V129.403H269.405V117.416Z" fill="#CFCFCF"/>
<path d="M269.405 131.13H259.384V143.117H269.405V131.13Z" fill="#DEDEDE"/>
<path d="M280.857 76.3083H270.836V88.2951H280.857V76.3083Z" fill="#DEDEDE"/>
<path d="M280.857 90.0051H270.836V101.992H280.857V90.0051Z" fill="#F4F4F4"/>
<path d="M280.857 103.702H270.836V115.689H280.857V103.702Z" fill="#DEDEDE"/>
<path d="M280.857 117.416H270.836V129.403H280.857V117.416Z" fill="#F4F4F4"/>
<path d="M280.857 131.13H270.836V143.117H280.857V131.13Z" fill="#BCBCBC"/>
<path d="M292.31 76.3083H282.289V88.2951H292.31V76.3083Z" fill="#F4F4F4"/>
<path d="M292.31 90.0051H282.289V101.992H292.31V90.0051Z" fill="#DEDEDE"/>
<path d="M292.31 103.702H282.289V115.689H292.31V103.702Z" fill="#CFCFCF"/>
<path d="M292.31 117.416H282.289V129.403H292.31V117.416Z" fill="#DEDEDE"/>
<path d="M292.31 131.13H282.289V143.117H292.31V131.13Z" fill="#DEDEDE"/>
<path d="M250.502 76.7401H149.415V92.9932H250.502V76.7401Z" fill="#F4F4F4"/>
<path fill-rule="evenodd" clip-rule="evenodd" d="M155.02 84.5298H196.828V86.2743H155.02V84.5298ZM196.828 86.8098V88.6061H155.02V86.8098H196.828ZM196.828 89.1242V90.8687H155.02V89.1242H196.828ZM203.071 84.5298H244.879V86.2743H203.071V84.5298ZM244.879 86.8098V88.6061H203.071V86.8098H244.879ZM244.879 89.1242V90.8687H203.071V89.1242H244.879Z" fill="#DEDEDE"/>
<path fill-rule="evenodd" clip-rule="evenodd" d="M155.02 77.5864H196.828V79.3309H155.02V77.5864ZM196.828 79.8664V81.6626H155.02V79.8664H196.828ZM196.828 82.1808V83.9253H155.02V82.1808H196.828ZM203.071 77.5864H244.879V79.3309H203.071V77.5864ZM244.879 79.8664V81.6626H203.071V79.8664H244.879ZM244.879 82.1808V83.9253H203.071V82.1808H244.879Z" fill="#DEDEDE"/>
<path opacity="0.15" fill-rule="evenodd" clip-rule="evenodd" d="M149.415 76.7919L165.61 93.0105H250.502V76.7401H149.415V76.7919Z" fill="black"/>
<path d="M255.676 70.3839H144.24V77.7246H255.676V70.3839Z" fill="white"/>
<path d="M141.688 74.5811H105.917V144.827H141.688V74.5811Z" fill="#571715"/>
<path d="M117.369 76.3083H107.348V88.2951H117.369V76.3083Z" fill="#DEDEDE"/>
<path d="M117.369 90.0051H107.348V101.992H117.369V90.0051Z" fill="#CFCFCF"/>
<path d="M117.369 103.702H107.348V115.689H117.369V103.702Z" fill="#DEDEDE"/>
<path d="M117.369 117.416H107.348V129.403H117.369V117.416Z" fill="#BCBCBC"/>
<path d="M117.369 131.13H107.348V143.117H117.369V131.13Z" fill="#DEDEDE"/>
<path d="M128.821 76.3083H118.8V88.2951H128.821V76.3083Z" fill="#F4F4F4"/>
<path d="M128.821 90.0051H118.8V101.992H128.821V90.0051Z" fill="#DEDEDE"/>
<path d="M128.821 103.702H118.8V115.689H128.821V103.702Z" fill="#DEDEDE"/>
<path d="M128.821 117.416H118.8V129.403H128.821V117.416Z" fill="#F4F4F4"/>
<path d="M128.821 131.13H118.8V143.117H128.821V131.13Z" fill="#DEDEDE"/>
<path d="M140.274 76.3083H130.253V88.2951H140.274V76.3083Z" fill="#BCBCBC"/>
<path d="M140.274 90.0051H130.253V101.992H140.274V90.0051Z" fill="#F4F4F4"/>
<path d="M140.274 103.702H130.253V115.689H140.274V103.702Z" fill="#DEDEDE"/>
<path d="M140.274 117.416H130.253V129.403H140.274V117.416Z" fill="#CFCFCF"/>
<path d="M140.274 131.13H130.253V143.117H140.274V131.13Z" fill="#BCBCBC"/>
<path d="M264.041 39.8295H135.737V63.9414H264.041V39.8295Z" fill="white"/>
<path fill-rule="evenodd" clip-rule="evenodd" d="M141.36 44.5621C141.929 44.4758 142.567 44.4239 143.275 44.4239C143.551 44.4239 143.844 44.4239 144.137 44.4412C144.43 44.4585 144.706 44.493 144.982 44.5621L147.397 57.2399L150.294 44.5621C150.605 44.5103 150.898 44.4758 151.157 44.4585C151.415 44.4412 151.691 44.4239 151.967 44.4239C152.433 44.4239 152.933 44.4758 153.485 44.5621L156.503 57.568L158.918 44.5621C159.401 44.4758 159.901 44.4239 160.419 44.4239C160.729 44.4239 161.039 44.4239 161.333 44.4758C161.626 44.5103 161.919 44.5448 162.195 44.5621L158.142 61.4024C157.573 61.4888 157.004 61.5406 156.383 61.5406C155.762 61.5406 155.141 61.4888 154.434 61.4024L151.743 50.1756L148.846 61.4024C148.466 61.437 148.138 61.4715 147.845 61.4888C147.552 61.5233 147.242 61.5406 146.897 61.5406C146.414 61.5406 145.896 61.4888 145.327 61.4024L141.326 44.5621H141.36ZM169.732 55.8581C169.542 55.8235 169.335 55.8063 169.129 55.7717C168.904 55.7545 168.715 55.7372 168.542 55.7372C167.783 55.7372 167.18 55.8754 166.731 56.1517C166.283 56.4281 166.058 56.8599 166.058 57.4817C166.058 57.8962 166.145 58.2071 166.317 58.4144C166.49 58.6389 166.697 58.7943 166.938 58.898C167.18 59.0016 167.438 59.0707 167.714 59.088C167.99 59.1052 168.232 59.1225 168.421 59.1225C168.663 59.1225 168.887 59.1053 169.129 59.0707C169.37 59.0362 169.56 59.0016 169.732 58.9671V55.8754V55.8581ZM169.732 53.44C169.732 53.06 169.663 52.7664 169.542 52.5246C169.422 52.2828 169.249 52.11 169.025 51.9719C168.801 51.8337 168.542 51.7473 168.214 51.6955C167.887 51.6437 167.542 51.6264 167.145 51.6264C166.3 51.6264 165.403 51.7819 164.454 52.11C164.23 51.6955 164.075 51.3155 163.954 50.9701C163.851 50.6074 163.799 50.1756 163.799 49.6747C164.489 49.4501 165.179 49.2774 165.852 49.1565C166.541 49.0529 167.18 49.0011 167.766 49.0011C169.387 49.0011 170.646 49.3983 171.56 50.1756C172.475 50.9528 172.923 52.1964 172.923 53.9236V60.9534C172.371 61.1261 171.716 61.2815 170.939 61.4543C170.163 61.6097 169.284 61.6961 168.301 61.6961C167.507 61.6961 166.783 61.627 166.11 61.4888C165.455 61.3506 164.886 61.1088 164.403 60.7806C163.92 60.4525 163.558 60.0379 163.299 59.5198C163.04 59.0016 162.919 58.3798 162.919 57.6198C162.919 56.8599 163.075 56.2381 163.402 55.7372C163.73 55.2363 164.127 54.8218 164.644 54.5109C165.144 54.2 165.714 53.9927 166.334 53.8545C166.955 53.7163 167.576 53.6473 168.197 53.6473C168.646 53.6473 169.146 53.6645 169.698 53.7163V53.44H169.732ZM175.907 49.2947C176.148 49.2429 176.355 49.2083 176.579 49.191C176.786 49.1738 177.028 49.1565 177.269 49.1565C177.511 49.1565 177.735 49.1565 177.959 49.2083C178.183 49.2429 178.408 49.2774 178.632 49.3292C178.684 49.4156 178.718 49.5192 178.753 49.6747C178.787 49.8301 178.822 49.9856 178.856 50.141C178.891 50.2965 178.908 50.4692 178.942 50.6419C178.96 50.7974 178.977 50.9355 178.994 51.0564C179.339 50.5728 179.753 50.141 180.253 49.761C180.753 49.381 181.374 49.191 182.116 49.191C182.271 49.191 182.444 49.191 182.65 49.2083C182.857 49.2083 182.995 49.2429 183.099 49.2774C183.133 49.4329 183.151 49.6229 183.168 49.8128C183.168 50.0201 183.185 50.2274 183.185 50.4519C183.185 50.711 183.185 51.0046 183.151 51.3155C183.133 51.6264 183.082 51.92 183.013 52.2137C182.84 52.1791 182.65 52.1619 182.444 52.1619H182.064C181.805 52.1619 181.495 52.1964 181.167 52.2482C180.84 52.3 180.529 52.4555 180.236 52.68C179.943 52.9218 179.701 53.2673 179.494 53.7336C179.304 54.2 179.201 54.8563 179.201 55.7026V61.4715C178.925 61.5233 178.632 61.5579 178.356 61.5579C178.08 61.5579 177.804 61.5752 177.545 61.5752C177.287 61.5752 177.011 61.5752 176.735 61.5579C176.459 61.5579 176.183 61.5061 175.89 61.4715V49.3465L175.907 49.2947ZM187.6 56.3763C187.669 57.3089 187.997 57.9998 188.584 58.4144C189.17 58.8289 189.963 59.0534 190.929 59.0534C191.464 59.0534 191.999 59.0016 192.551 58.898C193.102 58.7943 193.637 58.6562 194.137 58.4662C194.31 58.7771 194.448 59.1571 194.586 59.5889C194.706 60.0207 194.775 60.487 194.793 60.9879C193.568 61.4543 192.206 61.6961 190.671 61.6961C189.549 61.6961 188.584 61.5406 187.79 61.2297C186.98 60.9188 186.324 60.487 185.824 59.9343C185.324 59.3816 184.944 58.7253 184.703 57.948C184.461 57.188 184.341 56.3417 184.341 55.4436C184.341 54.5454 184.461 53.7163 184.72 52.9391C184.979 52.1619 185.341 51.471 185.824 50.901C186.324 50.3137 186.928 49.8647 187.652 49.5365C188.377 49.2083 189.222 49.0356 190.188 49.0356C191.033 49.0356 191.774 49.191 192.43 49.4847C193.085 49.7783 193.637 50.1928 194.103 50.6937C194.568 51.2119 194.913 51.8164 195.138 52.5418C195.379 53.25 195.483 54.01 195.483 54.8218C195.483 55.1154 195.483 55.409 195.448 55.7026C195.431 55.9963 195.396 56.2208 195.362 56.3935H187.6V56.3763ZM192.344 54.0618C192.309 53.3191 192.102 52.7146 191.723 52.2482C191.343 51.7819 190.809 51.5573 190.119 51.5573C189.342 51.5573 188.739 51.7819 188.342 52.2137C187.928 52.6455 187.687 53.2673 187.618 54.0618H192.344ZM198.052 44.303C198.311 44.2512 198.587 44.2339 198.88 44.2167C199.156 44.2167 199.432 44.1994 199.691 44.1994C199.95 44.1994 200.226 44.1994 200.502 44.2167C200.778 44.2167 201.071 44.2685 201.347 44.303V50.7455C201.45 50.6074 201.605 50.4346 201.778 50.2446C201.95 50.0547 202.175 49.8647 202.451 49.6747C202.709 49.5019 203.037 49.3465 203.416 49.2256C203.796 49.1047 204.227 49.0356 204.71 49.0356C206.055 49.0356 207.073 49.4156 207.763 50.1583C208.453 50.901 208.798 52.0928 208.798 53.6991V61.4543C208.522 61.5061 208.228 61.5406 207.952 61.5406C207.676 61.5406 207.401 61.5579 207.142 61.5579C206.883 61.5579 206.607 61.5579 206.331 61.5406C206.055 61.5406 205.762 61.4888 205.486 61.4543V54.5972C205.486 53.7509 205.348 53.1118 205.089 52.6455C204.831 52.1964 204.365 51.9719 203.727 51.9719C203.468 51.9719 203.192 52.0064 202.916 52.0928C202.64 52.1791 202.382 52.3173 202.157 52.5418C201.933 52.7664 201.743 53.0773 201.588 53.4918C201.433 53.8891 201.364 54.4245 201.364 55.0808V61.4543C201.088 61.5061 200.795 61.5406 200.519 61.5406C200.243 61.5406 199.967 61.5579 199.708 61.5579C199.449 61.5579 199.174 61.5579 198.898 61.5406C198.622 61.5406 198.346 61.4888 198.07 61.4543V44.303H198.052ZM216.921 61.7133C215.938 61.7133 215.093 61.5579 214.368 61.2297C213.644 60.9016 213.04 60.4697 212.575 59.8998C212.092 59.3298 211.747 58.6562 211.505 57.8962C211.264 57.1362 211.143 56.3072 211.143 55.409C211.143 54.5109 211.264 53.6818 211.505 52.9046C211.747 52.1273 212.109 51.4537 212.575 50.8837C213.058 50.3137 213.644 49.8647 214.368 49.5365C215.093 49.2083 215.938 49.0529 216.921 49.0529C217.904 49.0529 218.767 49.2083 219.491 49.5365C220.215 49.8647 220.836 50.3137 221.319 50.8837C221.802 51.4537 222.164 52.1273 222.389 52.9046C222.63 53.6818 222.733 54.5281 222.733 55.409C222.733 56.2899 222.613 57.119 222.389 57.8962C222.147 58.6562 221.802 59.3298 221.319 59.8998C220.836 60.4697 220.233 60.9188 219.491 61.2297C218.749 61.5579 217.904 61.7133 216.921 61.7133ZM216.921 59.1916C217.801 59.1916 218.422 58.8634 218.801 58.2244C219.181 57.568 219.37 56.6353 219.37 55.4263C219.37 54.2172 219.181 53.2673 218.801 52.6282C218.422 51.9719 217.783 51.661 216.921 51.661C216.059 51.661 215.438 51.9891 215.058 52.6282C214.679 53.2845 214.489 54.2172 214.489 55.4263C214.489 56.6353 214.679 57.5853 215.058 58.2244C215.438 58.8807 216.059 59.1916 216.921 59.1916ZM225.148 49.3292C225.717 49.2429 226.269 49.191 226.804 49.191C227.339 49.191 227.908 49.2429 228.46 49.3292V55.7545C228.46 56.3935 228.511 56.929 228.615 57.3435C228.718 57.758 228.874 58.0862 229.081 58.328C229.288 58.5698 229.546 58.7425 229.857 58.8462C230.167 58.9498 230.529 59.0016 230.961 59.0016C231.53 59.0016 232.013 58.9498 232.409 58.8462V49.3638C232.978 49.2774 233.513 49.2256 234.048 49.2256C234.582 49.2256 235.152 49.2774 235.704 49.3638V61.0052C235.203 61.1779 234.548 61.3506 233.72 61.5061C232.909 61.6615 232.047 61.7479 231.167 61.7479C230.374 61.7479 229.615 61.6788 228.874 61.5579C228.149 61.437 227.494 61.1606 226.942 60.7634C226.39 60.3488 225.942 59.7616 225.614 58.9843C225.286 58.2071 225.131 57.1708 225.131 55.8754V49.3638L225.148 49.3292ZM241.068 56.169C240.188 55.9272 239.515 55.5472 239.015 55.0636C238.532 54.5627 238.273 53.8373 238.273 52.8527C238.273 51.661 238.705 50.7455 239.55 50.0719C240.395 49.3983 241.55 49.0701 243.016 49.0701C243.62 49.0701 244.224 49.122 244.81 49.2256C245.397 49.3292 246 49.5019 246.604 49.7265C246.569 50.1237 246.5 50.5555 246.362 50.9873C246.242 51.4192 246.087 51.7991 245.914 52.1446C245.535 51.9891 245.121 51.851 244.672 51.7301C244.224 51.6091 243.741 51.5573 243.241 51.5573C242.706 51.5573 242.292 51.6437 241.999 51.7991C241.706 51.9719 241.55 52.2309 241.55 52.5937C241.55 52.9391 241.654 53.1809 241.861 53.3191C242.068 53.4573 242.378 53.5954 242.758 53.7163L244.086 54.1136C244.517 54.2345 244.914 54.39 245.259 54.5627C245.604 54.7354 245.914 54.9599 246.155 55.2363C246.397 55.4954 246.604 55.8235 246.742 56.2208C246.88 56.6181 246.949 57.0844 246.949 57.6544C246.949 58.2244 246.828 58.7771 246.587 59.278C246.345 59.7789 246 60.2107 245.535 60.5734C245.069 60.9361 244.517 61.2297 243.862 61.437C243.206 61.6443 242.465 61.7479 241.637 61.7479C241.257 61.7479 240.912 61.7479 240.602 61.7133C240.291 61.6961 239.998 61.6443 239.705 61.5924C239.412 61.5406 239.136 61.4715 238.86 61.3852C238.584 61.3161 238.273 61.2125 237.946 61.0743C237.98 60.6597 238.049 60.2279 238.17 59.7961C238.291 59.3643 238.446 58.9498 238.618 58.5353C239.136 58.7425 239.619 58.898 240.084 58.9843C240.55 59.0707 241.016 59.1398 241.516 59.1398C241.74 59.1398 241.964 59.1225 242.223 59.088C242.482 59.0534 242.723 58.9843 242.93 58.8807C243.154 58.7771 243.327 58.6389 243.482 58.4835C243.637 58.3107 243.706 58.1035 243.706 57.8444C243.706 57.4644 243.586 57.2053 243.361 57.0326C243.137 56.8771 242.827 56.7217 242.413 56.6008L240.964 56.1863L241.068 56.169ZM252.123 56.4108C252.192 57.3435 252.52 58.0344 253.106 58.4489C253.693 58.8634 254.486 59.088 255.452 59.088C255.987 59.088 256.521 59.0362 257.073 58.9325C257.625 58.8289 258.16 58.6907 258.66 58.5007C258.832 58.8116 258.97 59.1916 259.108 59.6234C259.229 60.0552 259.298 60.5216 259.315 61.0225C258.091 61.4888 256.728 61.7306 255.193 61.7306C254.072 61.7306 253.106 61.5752 252.313 61.2643C251.502 60.9534 250.847 60.5216 250.347 59.9689C249.846 59.4161 249.467 58.7598 249.226 57.9826C248.984 57.2226 248.863 56.3763 248.863 55.4781C248.863 54.5799 248.984 53.7509 249.243 52.9736C249.484 52.1964 249.864 51.5055 250.347 50.9355C250.847 50.3483 251.45 49.8992 252.175 49.571C252.899 49.2429 253.744 49.0701 254.71 49.0701C255.555 49.0701 256.297 49.2256 256.952 49.5192C257.608 49.8128 258.16 50.2274 258.625 50.7283C259.091 51.2464 259.436 51.851 259.66 52.5764C259.902 53.2845 260.005 54.0445 260.005 54.8563C260.005 55.1499 260.005 55.4436 259.971 55.7372C259.953 56.0308 259.919 56.2553 259.884 56.4281H252.123V56.4108ZM256.866 54.0963C256.832 53.3536 256.625 52.7491 256.245 52.2828C255.866 51.8164 255.331 51.5919 254.641 51.5919C253.865 51.5919 253.261 51.8164 252.865 52.2482C252.468 52.68 252.227 53.3018 252.14 54.0963H256.866Z" fill="#CFCFCF"/>
<path fill-rule="evenodd" clip-rule="evenodd" d="M140.567 43.5257C141.136 43.4394 141.774 43.3876 142.481 43.3876C142.757 43.3876 143.05 43.3876 143.343 43.4048C143.637 43.4048 143.913 43.4567 144.206 43.5257L146.62 56.2035L149.518 43.5257C149.828 43.4739 150.122 43.4394 150.38 43.4221C150.639 43.4048 150.915 43.3876 151.191 43.3876C151.657 43.3876 152.157 43.4394 152.709 43.5257L155.727 56.5317L158.142 43.5257C158.625 43.4394 159.125 43.3876 159.642 43.3876C159.953 43.3876 160.263 43.3876 160.556 43.4394C160.85 43.4739 161.143 43.5085 161.419 43.5257L157.366 60.3661C156.796 60.4524 156.227 60.5042 155.606 60.5042C154.985 60.5042 154.364 60.4524 153.657 60.3661L150.967 49.1392L148.069 60.3661C147.69 60.4006 147.362 60.4352 147.069 60.4524C146.776 60.487 146.465 60.5042 146.12 60.5042C145.637 60.5042 145.12 60.4524 144.551 60.3661L140.549 43.5257H140.567ZM168.939 54.8217C168.749 54.7872 168.542 54.7699 168.335 54.7354C168.111 54.7181 167.921 54.7008 167.749 54.7008C166.99 54.7008 166.386 54.839 165.938 55.1153C165.489 55.3917 165.265 55.8235 165.265 56.4453C165.265 56.8598 165.351 57.1707 165.524 57.378C165.696 57.6025 165.903 57.758 166.144 57.8616C166.386 57.9652 166.645 58.0343 166.921 58.0516C167.197 58.0689 167.438 58.0861 167.628 58.0861C167.869 58.0861 168.093 58.0689 168.335 58.0343C168.576 57.9998 168.766 57.9652 168.939 57.9307V54.839V54.8217ZM168.939 52.4036C168.939 52.0236 168.87 51.73 168.749 51.4882C168.628 51.2464 168.456 51.0737 168.231 50.9355C168.007 50.7973 167.748 50.7109 167.421 50.6591C167.093 50.6073 166.748 50.59 166.351 50.59C165.506 50.59 164.609 50.7455 163.661 51.0909C163.437 50.6764 163.281 50.2964 163.178 49.9337C163.074 49.571 163.005 49.1392 163.005 48.6383C163.695 48.4138 164.385 48.241 165.058 48.1201C165.748 48.0165 166.386 47.9647 166.972 47.9647C168.594 47.9647 169.853 48.3619 170.767 49.1392C171.681 49.9164 172.129 51.1773 172.129 52.8872V59.917C171.577 60.0897 170.922 60.2452 170.146 60.4006C169.37 60.5561 168.49 60.6424 167.507 60.6424C166.714 60.6424 165.989 60.5733 165.317 60.4352C164.661 60.297 164.092 60.0552 163.609 59.727C163.126 59.3988 162.764 58.9843 162.505 58.4661C162.247 57.948 162.126 57.3089 162.126 56.5662C162.126 55.8235 162.281 55.1844 162.609 54.6835C162.919 54.1826 163.333 53.7681 163.851 53.4745C164.351 53.1636 164.92 52.9563 165.541 52.8181C166.162 52.68 166.783 52.6109 167.404 52.6109C167.852 52.6109 168.352 52.6282 168.904 52.68V52.4036H168.939ZM175.113 48.2583C175.355 48.2065 175.562 48.1719 175.786 48.1547C175.993 48.1374 176.234 48.1201 176.476 48.1201C176.717 48.1201 176.941 48.1201 177.166 48.1719C177.39 48.2065 177.614 48.241 177.838 48.2928C177.89 48.3792 177.924 48.4828 177.959 48.6383C177.993 48.7937 178.028 48.9492 178.062 49.1046C178.097 49.2774 178.114 49.4328 178.149 49.6055C178.183 49.7783 178.183 49.8992 178.2 50.0201C178.545 49.5364 178.959 49.1046 179.459 48.7246C179.96 48.3447 180.581 48.1547 181.322 48.1547C181.477 48.1547 181.65 48.1547 181.857 48.1719C182.064 48.1719 182.202 48.2065 182.305 48.241C182.34 48.3965 182.357 48.5692 182.374 48.7765C182.374 48.9837 182.392 49.191 182.392 49.4155C182.392 49.6746 182.392 49.9682 182.357 50.2791C182.34 50.59 182.288 50.8837 182.236 51.16C182.064 51.1255 181.874 51.1082 181.667 51.1082H181.288C181.029 51.1082 180.719 51.1427 180.391 51.1946C180.063 51.2464 179.753 51.4018 179.459 51.6264C179.166 51.8682 178.925 52.2136 178.718 52.68C178.528 53.1463 178.425 53.8027 178.425 54.649V60.4179C178.149 60.4697 177.855 60.487 177.58 60.5042C177.304 60.5042 177.028 60.5215 176.769 60.5215C176.51 60.5215 176.234 60.5215 175.958 60.5042C175.682 60.5042 175.406 60.4524 175.113 60.4179V48.2928V48.2583ZM186.807 55.3399C186.876 56.2726 187.204 56.9635 187.79 57.378C188.376 57.7925 189.17 58.0171 190.136 58.0171C190.67 58.0171 191.205 57.9652 191.757 57.8616C192.309 57.758 192.843 57.6198 193.326 57.4298C193.499 57.7407 193.654 58.1207 193.775 58.5525C193.896 58.9843 193.965 59.4506 193.982 59.9515C192.757 60.4179 191.395 60.6597 189.86 60.6597C188.739 60.6597 187.773 60.5042 186.979 60.1933C186.169 59.8824 185.513 59.4506 185.013 58.8979C184.513 58.3452 184.134 57.6889 183.892 56.9116C183.651 56.1517 183.53 55.3053 183.53 54.4072C183.53 53.509 183.651 52.68 183.909 51.9027C184.151 51.1255 184.53 50.4346 185.013 49.8646C185.496 49.2946 186.117 48.8283 186.841 48.5001C187.566 48.1719 188.411 47.9992 189.377 47.9992C190.222 47.9992 190.964 48.1547 191.619 48.4483C192.274 48.7419 192.826 49.1565 193.292 49.6746C193.758 50.1928 194.103 50.7973 194.327 51.5055C194.568 52.2136 194.672 52.9736 194.672 53.7854C194.672 54.079 194.672 54.3726 194.637 54.6663C194.62 54.9599 194.585 55.1844 194.551 55.3571H186.79L186.807 55.3399ZM191.55 53.0254C191.515 52.2827 191.308 51.6782 190.929 51.2118C190.55 50.7455 190.015 50.521 189.325 50.521C188.549 50.521 187.945 50.7455 187.549 51.1773C187.152 51.6091 186.91 52.2309 186.824 53.0254H191.55ZM197.259 43.2667C197.518 43.2148 197.793 43.1976 198.087 43.1803C198.363 43.1803 198.639 43.163 198.897 43.163C199.156 43.163 199.432 43.163 199.708 43.1803C199.984 43.1803 200.277 43.2321 200.553 43.2667V49.7092C200.657 49.571 200.812 49.3983 200.984 49.2083C201.157 49.0183 201.381 48.8283 201.657 48.6383C201.916 48.4656 202.243 48.3101 202.623 48.1892C203.002 48.0683 203.433 47.9992 203.916 47.9992C205.262 47.9992 206.279 48.3792 206.969 49.1219C207.659 49.8646 208.004 51.0564 208.004 52.6627V60.4179C207.728 60.4697 207.435 60.487 207.159 60.5042C206.883 60.5042 206.607 60.5215 206.348 60.5215C206.09 60.5215 205.814 60.5215 205.538 60.5042C205.262 60.5042 204.968 60.4524 204.692 60.4179V53.5608C204.692 52.7145 204.554 52.0754 204.296 51.6091C204.037 51.16 203.571 50.9355 202.933 50.9355C202.675 50.9355 202.399 50.97 202.123 51.0564C201.847 51.1255 201.588 51.2809 201.364 51.5055C201.139 51.73 200.95 52.0409 200.795 52.4554C200.639 52.87 200.57 53.3881 200.57 54.0445V60.4179C200.294 60.4697 200.001 60.487 199.725 60.5042C199.449 60.5042 199.173 60.5215 198.915 60.5215C198.656 60.5215 198.38 60.5215 198.104 60.5042C197.828 60.5042 197.552 60.4524 197.276 60.4179V43.2667H197.259ZM216.127 60.677C215.144 60.677 214.299 60.5215 213.575 60.1933C212.85 59.8652 212.247 59.4334 211.781 58.8634C211.298 58.2934 210.953 57.6198 210.712 56.8598C210.47 56.0998 210.35 55.2708 210.35 54.3726C210.35 53.4745 210.47 52.6454 210.712 51.8682C210.953 51.0909 211.315 50.4173 211.781 49.8473C212.264 49.2774 212.85 48.8283 213.575 48.5001C214.299 48.1719 215.144 48.0165 216.127 48.0165C217.111 48.0165 217.973 48.1719 218.697 48.5001C219.439 48.8283 220.043 49.2774 220.526 49.8473C221.009 50.4173 221.371 51.0909 221.595 51.8682C221.836 52.6454 221.94 53.4918 221.94 54.3726C221.94 55.2535 221.819 56.0826 221.595 56.8598C221.353 57.6198 221.009 58.2934 220.526 58.8634C220.043 59.4334 219.439 59.8824 218.697 60.1933C217.973 60.5215 217.111 60.677 216.127 60.677ZM216.127 58.1552C217.007 58.1552 217.628 57.8271 218.007 57.188C218.387 56.5317 218.577 55.599 218.577 54.3899C218.577 53.1809 218.387 52.2309 218.007 51.5918C217.628 50.9355 216.99 50.6246 216.127 50.6246C215.265 50.6246 214.644 50.9528 214.265 51.5918C213.885 52.2482 213.696 53.1809 213.696 54.3899C213.696 55.599 213.885 56.5489 214.265 57.188C214.644 57.8443 215.265 58.1552 216.127 58.1552ZM224.355 48.2928C224.924 48.2065 225.476 48.1547 226.01 48.1547C226.545 48.1547 227.114 48.2065 227.666 48.2928V54.7181C227.666 55.3572 227.718 55.8926 227.821 56.3071C227.925 56.7216 228.08 57.0498 228.287 57.2916C228.494 57.5334 228.753 57.7062 229.063 57.8098C229.374 57.9134 229.736 57.9652 230.167 57.9652C230.736 57.9652 231.219 57.9134 231.616 57.8098V48.3274C232.185 48.241 232.72 48.1892 233.254 48.1892C233.789 48.1892 234.358 48.241 234.91 48.3274V59.9688C234.41 60.1415 233.754 60.3142 232.926 60.4697C232.116 60.6251 231.254 60.7115 230.374 60.7115C229.58 60.7115 228.822 60.6424 228.08 60.5215C227.356 60.4006 226.7 60.1243 226.148 59.727C225.596 59.3125 225.148 58.7252 224.82 57.948C224.493 57.1707 224.337 56.1344 224.337 54.839V48.3274L224.355 48.2928ZM240.274 55.1326C239.394 54.8908 238.722 54.5108 238.221 54.0272C237.739 53.5263 237.48 52.8009 237.48 51.8164C237.48 50.6246 237.911 49.7092 238.756 49.0355C239.601 48.3619 240.757 48.0338 242.223 48.0338C242.827 48.0338 243.43 48.0856 244.017 48.1892C244.603 48.2928 245.207 48.4656 245.81 48.6901C245.776 49.0874 245.707 49.5192 245.569 49.951C245.448 50.3828 245.293 50.7628 245.12 51.0909C244.741 50.9355 244.327 50.7973 243.879 50.6764C243.43 50.5555 242.947 50.5037 242.447 50.5037C241.912 50.5037 241.498 50.59 241.205 50.7455C240.912 50.9182 240.757 51.1773 240.757 51.54C240.757 51.9027 240.86 52.1273 241.067 52.2654C241.274 52.4036 241.585 52.5418 241.964 52.6627L243.292 53.06C243.723 53.1809 244.12 53.3363 244.482 53.509C244.827 53.6818 245.138 53.9063 245.379 54.1826C245.638 54.4417 245.828 54.7699 245.966 55.1672C246.104 55.5644 246.172 56.0308 246.172 56.6007C246.172 57.1707 246.052 57.7234 245.81 58.2243C245.569 58.7252 245.224 59.157 244.758 59.5197C244.293 59.8824 243.741 60.1761 243.085 60.3833C242.43 60.5906 241.688 60.6942 240.86 60.6942C240.481 60.6942 240.136 60.6942 239.825 60.6597C239.515 60.6424 239.205 60.5906 238.929 60.5388C238.635 60.487 238.359 60.4179 238.066 60.3315C237.79 60.2452 237.48 60.1588 237.152 60.0206C237.187 59.6061 237.256 59.1743 237.376 58.7425C237.497 58.3107 237.652 57.8962 237.825 57.4816C238.342 57.6889 238.825 57.8443 239.291 57.9307C239.756 58.0171 240.222 58.0861 240.722 58.0861C240.947 58.0861 241.171 58.0689 241.429 58.0343C241.688 57.9998 241.93 57.9307 242.137 57.8271C242.361 57.7234 242.533 57.5853 242.689 57.4298C242.844 57.2744 242.913 57.0498 242.913 56.7907C242.913 56.4108 242.792 56.1517 242.568 55.9789C242.344 55.8235 242.033 55.668 241.619 55.5471L240.17 55.1326H240.274ZM251.329 55.3744C251.398 56.3071 251.726 56.998 252.313 57.4125C252.899 57.8271 253.692 58.0516 254.658 58.0516C255.193 58.0516 255.728 57.9998 256.279 57.8962C256.831 57.7925 257.366 57.6543 257.866 57.4644C258.039 57.7752 258.194 58.1552 258.315 58.587C258.435 59.0188 258.504 59.4852 258.522 59.9861C257.297 60.4524 255.935 60.6942 254.4 60.6942C253.278 60.6942 252.313 60.5388 251.519 60.2279C250.709 59.917 250.053 59.4852 249.553 58.9325C249.053 58.3798 248.673 57.7234 248.432 56.9462C248.19 56.1862 248.07 55.3399 248.07 54.4417C248.07 53.5436 248.19 52.7145 248.449 51.9373C248.691 51.16 249.07 50.4691 249.553 49.8992C250.036 49.3292 250.657 48.8628 251.381 48.5347C252.106 48.2065 252.951 48.0338 253.917 48.0338C254.762 48.0338 255.503 48.1892 256.159 48.4828C256.814 48.7765 257.366 49.191 257.832 49.7092C258.297 50.2273 258.642 50.8319 258.867 51.54C259.108 52.2482 259.212 53.0081 259.212 53.8199C259.212 54.1136 259.212 54.4072 259.177 54.7008C259.16 54.9944 259.125 55.219 259.091 55.3917H251.329V55.3744ZM256.073 53.06C256.038 52.3173 255.831 51.7127 255.452 51.2464C255.072 50.78 254.537 50.5555 253.848 50.5555C253.071 50.5555 252.468 50.78 252.071 51.2118C251.674 51.6436 251.433 52.2654 251.347 53.06H256.073Z" fill="#571715"/>
<g style="mix-blend-mode:multiply" opacity="0.3">
<path d="M264.041 63.9414H135.737V67.534H264.041V63.9414Z" fill="#571715"/>
</g>
<path d="M185.548 101.301H168.352V115.913H185.548V101.301Z" fill="#586384"/>
<path d="M185.582 101.301H168.352V104.531H185.582V101.301Z" fill="#6080A4"/>
<path d="M185.996 101.077H167.938V103.667H185.996V101.077Z" fill="#7996C6"/>
<path d="M167.162 101.301H149.966V115.913H167.162V101.301Z" fill="#586384"/>
<path d="M167.196 101.301H149.966V104.531H167.196V101.301Z" fill="#6080A4"/>
<path d="M167.593 101.077H149.535V103.667H167.593V101.077Z" fill="#7996C6"/>
<path d="M185.548 115.395H168.352V130.007H185.548V115.395Z" fill="#586384"/>
<path d="M185.582 115.395H168.352V118.625H185.582V115.395Z" fill="#6080A4"/>
<path d="M185.996 115.171H167.938V117.761H185.996V115.171Z" fill="#7996C6"/>
<path d="M167.162 115.395H149.966V130.007H167.162V115.395Z" fill="#586384"/>
<path d="M167.196 115.395H149.966V118.625H167.196V115.395Z" fill="#6080A4"/>
<path d="M167.593 115.171H149.535V117.761H167.593V115.171Z" fill="#7996C6"/>
<path d="M185.548 129.213H168.352V143.825H185.548V129.213Z" fill="#586384"/>
<path d="M185.582 129.213H168.352V132.443H185.582V129.213Z" fill="#6080A4"/>
<path d="M185.996 128.971H167.938V131.562H185.996V128.971Z" fill="#7996C6"/>
<path d="M167.162 129.213H149.966V143.825H167.162V129.213Z" fill="#586384"/>
<path d="M167.196 129.213H149.966V132.443H167.196V129.213Z" fill="#6080A4"/>
<path d="M167.593 128.971H149.535V131.562H167.593V128.971Z" fill="#7996C6"/>
<path d="M347.052 70.6776H311.281V140.923H347.052V70.6776Z" fill="#3B0D0C"/>
<path d="M322.734 72.3875H312.713V84.3744H322.734V72.3875Z" fill="#CFCFCF"/>
<path d="M322.734 86.1016H312.713V98.0884H322.734V86.1016Z" fill="#BCBCBC"/>
<path d="M322.734 99.7984H312.713V111.785H322.734V99.7984Z" fill="#B0B0B0"/>
<path d="M322.734 113.512H312.713V125.499H322.734V113.512Z" fill="#CFCFCF"/>
<path d="M322.734 127.209H312.713V139.196H322.734V127.209Z" fill="#B0B0B0"/>
<path d="M334.186 72.3875H324.165V84.3744H334.186V72.3875Z" fill="#B0B0B0"/>
<path d="M334.186 86.1016H324.165V98.0884H334.186V86.1016Z" fill="#CFCFCF"/>
<path d="M334.186 99.7984H324.165V111.785H334.186V99.7984Z" fill="#DEDEDE"/>
<path d="M334.186 113.512H324.165V125.499H334.186V113.512Z" fill="#CFCFCF"/>
<path d="M334.186 127.209H324.165V139.196H334.186V127.209Z" fill="#BCBCBC"/>
<path d="M345.638 72.3875H335.618V84.3744H345.638V72.3875Z" fill="#CFCFCF"/>
<path d="M345.638 86.1016H335.618V98.0884H345.638V86.1016Z" fill="#DEDEDE"/>
<path d="M345.638 99.7984H335.618V111.785H345.638V99.7984Z" fill="#CFCFCF"/>
<path d="M345.638 113.512H335.618V125.499H345.638V113.512Z" fill="#B0B0B0"/>
<path d="M345.638 127.209H335.618V139.196H345.638V127.209Z" fill="#CFCFCF"/>
<path d="M89.0138 70.6776H53.2427V140.923H89.0138V70.6776Z" fill="#3B0D0C"/>
<path d="M87.5999 127.209H77.5791V139.196H87.5999V127.209Z" fill="#CFCFCF"/>
<path d="M87.5999 113.512H77.5791V125.499H87.5999V113.512Z" fill="#BCBCBC"/>
<path d="M87.5999 99.7984H77.5791V111.785H87.5999V99.7984Z" fill="#B0B0B0"/>
<path d="M87.5999 86.1016H77.5791V98.0884H87.5999V86.1016Z" fill="#CFCFCF"/>
<path d="M87.5999 72.3875H77.5791V84.3744H87.5999V72.3875Z" fill="#B0B0B0"/>
<path d="M76.1472 127.209H66.1265V139.196H76.1472V127.209Z" fill="#B0B0B0"/>
<path d="M76.1472 113.512H66.1265V125.499H76.1472V113.512Z" fill="#CFCFCF"/>
<path d="M76.1472 99.7984H66.1265V111.785H76.1472V99.7984Z" fill="#DEDEDE"/>
<path d="M76.1472 86.1016H66.1265V98.0884H76.1472V86.1016Z" fill="#CFCFCF"/>
<path d="M76.1472 72.3875H66.1265V84.3744H76.1472V72.3875Z" fill="#BCBCBC"/>
<path d="M64.6951 127.209H54.6743V139.196H64.6951V127.209Z" fill="#CFCFCF"/>
<path d="M64.6951 113.512H54.6743V125.499H64.6951V113.512Z" fill="#DEDEDE"/>
<path d="M64.6951 99.7984H54.6743V111.785H64.6951V99.7984Z" fill="#CFCFCF"/>
<path d="M64.6951 86.1016H54.6743V98.0884H64.6951V86.1016Z" fill="#B0B0B0"/>
<path d="M64.6951 72.3875H54.6743V84.3744H64.6951V72.3875Z" fill="#CFCFCF"/>
<path style="mix-blend-mode:multiply" opacity="0.5" fill-rule="evenodd" clip-rule="evenodd" d="M117.282 164.932L70.559 165.536L68.541 171.668L68.5755 171.702H151.242L128.269 148.73L123.767 153.722L117.282 164.932Z" fill="url(#paint0_linear_93_1073)"/>
<path d="M75.2503 164.983H68.541V171.702H75.2503V164.983Z" fill="#76AED8"/>
<path d="M75.2503 164.983H68.541V168.87H75.2503V164.983Z" fill="#689FC4"/>
<path d="M128.338 164.983H121.628V171.702H128.338V164.983Z" fill="#76AED8"/>
<path d="M128.338 164.983H121.628V168.87H128.338V164.983Z" fill="#689FC4"/>
<path d="M128.321 164.983H68.541V167.851H128.321V164.983Z" fill="#91AAE7"/>
<path d="M107.779 148.989H89.0825V164.88H107.779V148.989Z" fill="#76AED8"/>
<path d="M107.813 148.989H89.0825V152.496H107.813V148.989Z" fill="#689FC4"/>
<path d="M108.245 148.748H88.6343V151.563H108.245V148.748Z" fill="#91AAE7"/>
<path d="M106.71 152.858H100.345V155.743H106.71V152.858Z" fill="#F2E2DF"/>
<path d="M101.484 153.221H100.811V155.38H101.484V153.221Z" fill="#868281"/>
<path d="M102.691 153.221H102.019V155.38H102.691V153.221Z" fill="#868281"/>
<path d="M103.933 153.221H103.26V155.38H103.933V153.221Z" fill="#868281"/>
<path d="M105.071 153.221H104.398V155.38H105.071V153.221Z" fill="#868281"/>
<path d="M106.244 153.221H105.571V155.38H106.244V153.221Z" fill="#868281"/>
<path d="M127.786 148.989H109.09V164.88H127.786V148.989Z" fill="#76AED8"/>
<path d="M127.821 148.989H109.09V152.496H127.821V148.989Z" fill="#689FC4"/>
<path d="M128.234 148.748H108.624V151.563H128.234V148.748Z" fill="#91AAE7"/>
<path d="M126.699 152.858H120.335V155.743H126.699V152.858Z" fill="#F2E2DF"/>
<path d="M121.473 153.221H120.801V155.38H121.473V153.221Z" fill="#868281"/>
<path d="M122.681 153.221H122.008V155.38H122.681V153.221Z" fill="#868281"/>
<path d="M123.923 153.221H123.25V155.38H123.923V153.221Z" fill="#868281"/>
<path d="M125.078 153.221H124.405V155.38H125.078V153.221Z" fill="#868281"/>
<path d="M126.234 153.221H125.561V155.38H126.234V153.221Z" fill="#868281"/>
<path d="M87.7895 148.989H69.0933V164.88H87.7895V148.989Z" fill="#76AED8"/>
<path d="M87.824 148.989H69.0933V152.496H87.824V148.989Z" fill="#689FC4"/>
<path d="M88.2378 148.748H68.6274V151.563H88.2378V148.748Z" fill="#91AAE7"/>
<path d="M86.7027 152.858H80.3384V155.743H86.7027V152.858Z" fill="#F2E2DF"/>
<path d="M81.4769 153.221H80.8042V155.38H81.4769V153.221Z" fill="#868281"/>
<path d="M82.7015 153.221H82.0288V155.38H82.7015V153.221Z" fill="#868281"/>
<path d="M83.9432 153.221H83.2705V155.38H83.9432V153.221Z" fill="#868281"/>
<path d="M85.0813 153.221H84.4087V155.38H85.0813V153.221Z" fill="#868281"/>
<path d="M86.2371 153.221H85.5645V155.38H86.2371V153.221Z" fill="#868281"/>
<path d="M107.779 132.719H89.0825V148.609H107.779V132.719Z" fill="#76AED8"/>
<path d="M107.813 132.719H89.0825V136.225H107.813V132.719Z" fill="#689FC4"/>
<path d="M108.245 132.46H88.6343V135.275H108.245V132.46Z" fill="#91AAE7"/>
<path d="M106.71 136.571H100.345V139.455H106.71V136.571Z" fill="#F2E2DF"/>
<path d="M101.484 136.951H100.811V139.11H101.484V136.951Z" fill="#868281"/>
<path d="M102.691 136.951H102.019V139.11H102.691V136.951Z" fill="#868281"/>
<path d="M103.933 136.951H103.26V139.11H103.933V136.951Z" fill="#868281"/>
<path d="M105.071 136.951H104.398V139.11H105.071V136.951Z" fill="#868281"/>
<path d="M106.244 136.951H105.571V139.11H106.244V136.951Z" fill="#868281"/>
<path d="M127.786 132.719H109.09V148.609H127.786V132.719Z" fill="#76AED8"/>
<path d="M127.821 132.719H109.09V136.225H127.821V132.719Z" fill="#689FC4"/>
<path d="M128.234 132.46H108.624V135.275H128.234V132.46Z" fill="#91AAE7"/>
<path d="M126.699 136.571H120.335V139.455H126.699V136.571Z" fill="#F2E2DF"/>
<path d="M121.473 136.951H120.801V139.11H121.473V136.951Z" fill="#868281"/>
<path d="M122.681 136.951H122.008V139.11H122.681V136.951Z" fill="#868281"/>
<path d="M123.923 136.951H123.25V139.11H123.923V136.951Z" fill="#868281"/>
<path d="M125.078 136.951H124.405V139.11H125.078V136.951Z" fill="#868281"/>
<path d="M126.234 136.951H125.561V139.11H126.234V136.951Z" fill="#868281"/>
<path d="M87.7895 132.719H69.0933V148.609H87.7895V132.719Z" fill="#76AED8"/>
<path d="M87.824 132.719H69.0933V136.225H87.824V132.719Z" fill="#689FC4"/>
<path d="M88.2378 132.46H68.6274V135.275H88.2378V132.46Z" fill="#91AAE7"/>
<path d="M86.7027 136.571H80.3384V139.455H86.7027V136.571Z" fill="#F2E2DF"/>
<path d="M81.4769 136.951H80.8042V139.11H81.4769V136.951Z" fill="#868281"/>
<path d="M82.7015 136.951H82.0288V139.11H82.7015V136.951Z" fill="#868281"/>
<path d="M83.9432 136.951H83.2705V139.11H83.9432V136.951Z" fill="#868281"/>
<path d="M85.0813 136.951H84.4087V139.11H85.0813V136.951Z" fill="#868281"/>
<path d="M86.2371 136.951H85.5645V139.11H86.2371V136.951Z" fill="#868281"/>
<path d="M250.346 115.119H233.15V129.731H250.346V115.119Z" fill="#586384"/>
<path d="M250.381 115.119H233.15V118.349H250.381V115.119Z" fill="#6080A4"/>
<path d="M250.794 114.877H232.736V117.468H250.794V114.877Z" fill="#7996C6"/>
<path d="M231.96 115.119H214.765V129.731H231.96V115.119Z" fill="#586384"/>
<path d="M231.995 115.119H214.765V118.349H231.995V115.119Z" fill="#6080A4"/>
<path d="M232.392 114.877H214.333V117.468H232.392V114.877Z" fill="#7996C6"/>
<path d="M250.346 129.213H233.15V143.825H250.346V129.213Z" fill="#586384"/>
<path d="M250.381 129.213H233.15V132.443H250.381V129.213Z" fill="#6080A4"/>
<path d="M250.794 128.971H232.736V131.562H250.794V128.971Z" fill="#7996C6"/>
<path d="M231.96 129.213H214.765V143.825H231.96V129.213Z" fill="#586384"/>
<path d="M231.995 129.213H214.765V132.443H231.995V129.213Z" fill="#6080A4"/>
<path d="M232.392 128.971H214.333V131.562H232.392V128.971Z" fill="#7996C6"/>
<path style="mix-blend-mode:multiply" opacity="0.5" fill-rule="evenodd" clip-rule="evenodd" d="M188.187 153.325L166.179 166.365L165.041 169.854L165.058 169.871H212.281L192.809 150.026L188.187 153.325Z" fill="url(#paint1_linear_93_1073)"/>
<path fill-rule="evenodd" clip-rule="evenodd" d="M174.199 130.56H185.807C188.256 130.56 190.101 132.684 190.274 135.275L191.722 157.556H168.283L169.732 135.275C169.87 132.684 171.75 130.56 174.199 130.56ZM174.872 131.994C172.733 131.994 171.388 133.859 171.233 136.173L169.973 155.57L189.98 155.622L188.67 136.001C188.514 133.704 187.428 131.994 185.272 131.994H174.872Z" fill="#571715"/>
<path d="M169.766 151.373H190.256C191.17 151.373 191.912 152.116 191.912 153.031V163.325C191.912 164.241 191.17 164.983 190.256 164.983H169.766C168.852 164.983 168.11 164.241 168.11 163.325V153.031C168.11 152.116 168.852 151.373 169.766 151.373Z" fill="#4D0C0A"/>
<path d="M187.911 152.807H172.664V166.227H187.911V152.807Z" fill="#332E2D"/>
<path d="M184.271 161.097H176.32V162.859H184.271V161.097Z" fill="#403A39"/>
<path d="M193.292 164.586H167.317V165.778H193.292V164.586Z" fill="#282323"/>
<path d="M195.948 138.143H181.184V150.682H195.948V138.143Z" fill="#76AED8"/>
<path d="M195.965 138.143H181.184V140.906H195.965V138.143Z" fill="#689FC4"/>
<path d="M196.31 137.935H180.822V140.163H196.31V137.935Z" fill="#91AAE7"/>
<path d="M195.085 141.182H190.066V143.462H195.085V141.182Z" fill="#F2E2DF"/>
<path d="M190.963 141.476H190.429V143.169H190.963V141.476Z" fill="#868281"/>
<path d="M191.929 141.476H191.395V143.169H191.929V141.476Z" fill="#868281"/>
<path d="M192.912 141.476H192.377V143.169H192.912V141.476Z" fill="#868281"/>
<path d="M193.809 141.476H193.274V143.169H193.809V141.476Z" fill="#868281"/>
<path d="M194.723 141.476H194.188V143.169H194.723V141.476Z" fill="#868281"/>
<path d="M180.167 138.143H165.403V150.682H180.167V138.143Z" fill="#76AED8"/>
<path d="M180.184 138.143H165.403V140.906H180.184V138.143Z" fill="#689FC4"/>
<path d="M180.529 137.935H165.041V140.163H180.529V137.935Z" fill="#91AAE7"/>
<path d="M179.321 141.182H174.285V143.462H179.321V141.182Z" fill="#F2E2DF"/>
<path d="M175.182 141.476H174.647V143.169H175.182V141.476Z" fill="#868281"/>
<path d="M176.131 141.476H175.596V143.169H176.131V141.476Z" fill="#868281"/>
<path d="M177.114 141.476H176.579V143.169H177.114V141.476Z" fill="#868281"/>
<path d="M178.028 141.476H177.493V143.169H178.028V141.476Z" fill="#868281"/>
<path d="M178.942 141.476H178.407V143.169H178.942V141.476Z" fill="#868281"/>
<path d="M175.924 151.649H173.492V167.229H175.924V151.649Z" fill="#403A39"/>
<path d="M187.083 151.649H184.651V167.229H187.083V151.649Z" fill="#403A39"/>
<path d="M166.489 160.493H168.128C168.645 160.493 169.059 160.907 169.059 161.425V168.939C169.059 169.457 168.645 169.871 168.128 169.871H166.489C165.972 169.871 165.558 169.457 165.558 168.939V161.408C165.558 160.89 165.972 160.475 166.489 160.475V160.493Z" fill="#332E2D"/>
<path d="M171.957 160.493H170.319C169.804 160.493 169.387 160.91 169.387 161.425V168.956C169.387 169.471 169.804 169.889 170.319 169.889H171.957C172.471 169.889 172.888 169.471 172.888 168.956V161.425C172.888 160.91 172.471 160.493 171.957 160.493Z" fill="#332E2D"/>
<path d="M188.635 160.493H190.273C190.791 160.493 191.205 160.907 191.205 161.425V168.956C191.205 169.474 190.791 169.889 190.273 169.889H188.635C188.118 169.889 187.704 169.474 187.704 168.956V161.443C187.704 160.924 188.118 160.51 188.635 160.51V160.493Z" fill="#332E2D"/>
<path d="M194.103 160.493H192.464C191.95 160.493 191.533 160.91 191.533 161.425V168.956C191.533 169.471 191.95 169.889 192.464 169.889H194.103C194.617 169.889 195.034 169.471 195.034 168.956V161.425C195.034 160.91 194.617 160.493 194.103 160.493Z" fill="#332E2D"/>
<path d="M184.271 157.608H176.32V159.612H184.271V157.608Z" fill="#403A39"/>
<path d="M184.271 154.136H176.32V156.226H184.271V154.136Z" fill="#403A39"/>
<path fill-rule="evenodd" clip-rule="evenodd" d="M173.492 151.649H175.923L176.872 153.411L172.491 153.463L173.492 151.649Z" fill="#756D6C"/>
<path fill-rule="evenodd" clip-rule="evenodd" d="M184.651 151.649H187.1L187.997 153.446L183.823 153.463L184.651 151.649Z" fill="#756D6C"/>
<path d="M168.628 151.321H165.144V154.81H168.628V151.321Z" fill="#76AED8"/>
<path d="M168.628 151.321H165.144V153.342H168.628V151.321Z" fill="#689FC4"/>
<path d="M196.258 151.321H192.774V154.81H196.258V151.321Z" fill="#76AED8"/>
<path d="M196.258 151.321H192.774V153.342H196.258V151.321Z" fill="#689FC4"/>
<path d="M196.258 150.699H165.144V152.807H196.258V150.699Z" fill="#91AAE7"/>
</g>
<defs>
<linearGradient id="paint0_linear_93_1073" x1="103.795" y1="145.241" x2="135.063" y2="280.428" gradientUnits="userSpaceOnUse">
<stop stop-color="#595555"/>
<stop offset="0.12" stop-color="#625F5F"/>
<stop offset="0.31" stop-color="#7D7A7A"/>
<stop offset="0.57" stop-color="#A8A5A5"/>
<stop offset="0.87" stop-color="#E2E2E2"/>
<stop offset="1" stop-color="white"/>
</linearGradient>
<linearGradient id="paint1_linear_93_1073" x1="186.065" y1="158.61" x2="192.654" y2="187.157" gradientUnits="userSpaceOnUse">
<stop stop-color="#595555"/>
<stop offset="0.12" stop-color="#625F5F"/>
<stop offset="0.31" stop-color="#7D7A7A"/>
<stop offset="0.57" stop-color="#A8A5A5"/>
<stop offset="0.87" stop-color="#E2E2E2"/>
<stop offset="1" stop-color="white"/>
</linearGradient>
<clipPath id="clip0_93_1073">
<rect width="394" height="184" fill="white"/>
</clipPath>
</defs>
</svg>
