<svg width="36" height="36" viewBox="0 0 36 36" fill="none" xmlns="http://www.w3.org/2000/svg">
<path d="M18 12.2299C14.8114 12.2299 12.2271 14.8019 12.2271 18.0041C12.2271 21.2063 14.7986 23.7783 18 23.7783C21.2014 23.7783 23.7729 21.2063 23.7729 18.0041C23.7729 14.8019 21.2014 12.2299 18 12.2299ZM18 21.7592C15.93 21.7592 14.2457 20.0746 14.2457 18.0041C14.2457 15.9336 15.93 14.2489 18 14.2489C20.07 14.2489 21.7543 15.9336 21.7543 18.0041C21.7543 20.0746 20.07 21.7592 18 21.7592ZM25.3543 11.9984C25.3543 12.3565 25.2121 12.7 24.9589 12.9532C24.7057 13.2064 24.3623 13.3487 24.0043 13.3487C23.6462 13.3487 23.3029 13.2064 23.0497 12.9532C22.7965 12.7 22.6543 12.3565 22.6543 11.9984C22.6543 11.6403 22.7965 11.2968 23.0497 11.0436C23.3029 10.7903 23.6462 10.6481 24.0043 10.6481C24.3623 10.6481 24.7057 10.7903 24.9589 11.0436C25.2121 11.2968 25.3543 11.6403 25.3543 11.9984ZM29.1729 13.3616C29.0829 11.5612 28.6714 9.9665 27.36 8.6419C26.0486 7.33017 24.4414 6.91865 22.6414 6.82863C20.7771 6.72574 15.21 6.72574 13.3586 6.82863C11.5586 6.91865 9.96429 7.33017 8.64 8.6419C7.31571 9.95364 6.91714 11.5612 6.82714 13.3616C6.72429 15.2263 6.72429 20.7947 6.82714 22.6466C6.91714 24.447 7.32857 26.0417 8.64 27.3663C9.96429 28.678 11.5586 29.0895 13.3586 29.1795C15.2229 29.2824 20.79 29.2824 22.6414 29.1795C24.4414 29.0895 26.0357 28.678 27.36 27.3663C28.6714 26.0545 29.0829 24.447 29.1729 22.6466C29.2757 20.7819 29.2757 15.2263 29.1729 13.3616ZM26.7686 24.6399C26.3829 25.6301 25.6243 26.3889 24.6343 26.7747C23.1557 27.3663 19.6329 27.2248 18 27.2248C16.3671 27.2248 12.8443 27.3534 11.3657 26.7747C10.3757 26.3889 9.61714 25.6301 9.23143 24.6399C8.64 23.161 8.78143 19.6373 8.78143 18.0041C8.78143 16.3708 8.65286 12.8472 9.23143 11.3683C9.61714 10.378 10.3757 9.61927 11.3657 9.23347C12.8443 8.6419 16.3671 8.78337 18 8.78337C19.6329 8.78337 23.1557 8.65476 24.6343 9.23347C25.6243 9.61927 26.3829 10.378 26.7686 11.3683C27.36 12.8472 27.2186 16.3708 27.2186 18.0041C27.2186 19.6373 27.36 23.161 26.7686 24.6399Z" fill="#222222"/>
</svg>
