<svg width="302" height="76" viewBox="0 0 302 76" fill="none" xmlns="http://www.w3.org/2000/svg">
<path d="M100.105 23.3457H107.054L114.12 50.2185L120.973 23.3457H131.64V58.6175H124.884V30.1467L117.721 58.6175H110.403L103.241 30.1467V58.6175H96.4844V27.1262C96.4844 25.0995 98.0718 23.3457 100.085 23.3457H100.105ZM142.249 38.3313H135.396C136.228 33.2452 139.771 30.7508 146.063 30.7508C153.593 30.7508 157.407 33.2452 157.562 38.3313V47.6657C157.562 55.2462 153.032 58.6175 145.656 59.1242C139.113 59.6503 134.583 56.5908 134.583 50.5108C134.738 43.9242 139.481 42.1703 146.372 41.4883C149.315 41.118 150.806 40.2411 150.806 38.7406C150.651 37.1816 149.218 36.4021 146.372 36.4021C143.953 36.4021 142.617 37.0257 142.249 38.3119V38.3313ZM150.902 47.3539V44.8206C149.141 45.5416 147.302 46.1067 145.443 46.477C142.714 47.0031 141.32 48.2893 141.32 50.316C141.475 52.4985 142.617 53.5313 144.766 53.5313C148.579 53.5313 150.902 51.2513 150.902 47.3539ZM160.853 44.4503C161.066 35.5837 165.731 31.1795 174.869 31.1795H175.856V38.3313H173.533C169.719 38.3313 167.822 40.358 167.822 44.3529V58.6175H160.872V44.4503H160.853ZM185.884 26.717V41.917L194.325 32.1734H202.572L193.144 42.3457L202.668 58.637H194.421L189.582 49.6144C188.711 48.0554 187.839 47.276 186.949 47.276C186.233 47.4319 185.865 47.8995 185.865 48.6206V58.637H179.012V23.3457H182.574C184.374 23.3457 185.865 24.9047 185.865 26.717H185.884Z" fill="#3A383E"/>
<path d="M214.324 59.2411C206.077 58.9878 201.953 54.1549 201.953 44.8206C201.953 35.4862 206.135 30.8093 214.42 30.7703C223.074 30.7703 227.139 36.1098 226.636 46.8472H209.019C209.271 51.0565 211.071 53.1806 214.42 53.1806C216.027 53.1806 217.518 52.4985 218.854 51.2124C219.144 50.8811 219.512 50.6278 219.899 50.4719C220.305 50.2965 220.731 50.2185 221.157 50.238H226.21C224.719 56.0452 221.002 59.2606 214.304 59.2606L214.324 59.2411ZM209.116 41.917H219.376C218.97 38.2924 217.266 36.4216 214.324 36.4216C211.381 36.4216 209.639 38.2924 209.116 41.917ZM237.419 36.1098H236.702V51.3098C236.702 52.4595 237.38 53.0637 238.716 53.0637H240.826V58.3057C238.425 58.5201 236.006 58.5006 233.605 58.2472C231.03 57.9939 229.791 56.3765 229.849 53.317V23.3457H233.411C235.212 23.3457 236.702 25.0021 236.702 26.8144V31.1795H240.826V32.6801C240.826 33.1283 240.749 33.5765 240.594 34.0052C240.419 34.4144 240.168 34.8042 239.858 35.116C239.548 35.4278 239.161 35.6811 238.755 35.8565C238.348 36.0319 237.903 36.1098 237.438 36.1098H237.419ZM255.597 53.6288C258.481 53.6288 259.933 52.7908 259.933 51.037C259.933 49.6339 257.571 48.5036 252.867 47.6657C246.847 46.5744 243.749 43.8852 243.691 39.5785C243.691 33.6739 248.337 30.8678 254.571 30.7703C258.075 30.7703 260.862 31.5498 262.915 33.1088C264.928 34.7262 266.012 36.9478 266.147 39.7929H261.83C260.224 39.7344 259.198 39.1693 258.791 38.078C258.326 36.8893 256.933 36.2072 254.668 36.2072C251.996 36.2072 250.641 36.9283 250.641 38.3313C250.641 39.7344 252.403 40.8257 255.945 41.4883C260.591 42.4237 263.611 43.6124 265.121 45.0154C265.741 45.6613 266.228 46.4243 266.554 47.2604C266.879 48.0966 267.037 48.9893 267.019 49.8872C267.019 56.6298 261.772 59.1242 254.551 59.1242C250.738 59.1242 247.853 58.2862 245.995 56.6883C243.943 55.1293 242.897 52.7519 242.897 49.5754H249.905C250.06 52.5765 252.209 53.6288 255.558 53.6288H255.597ZM270.852 33.4011V31.1795H293.153V37.0452L278.673 52.6544H293.56V58.6175H270.019V53.1806L284.597 36.9478H274.336C272.323 36.9478 270.832 35.4472 270.832 33.4206L270.852 33.4011Z" fill="#3A383E"/>
<path d="M122.155 24.5344H131.64V23.3457H120.974L114.546 48.5426L115.301 51.4072L122.155 24.5344ZM101.286 24.5344H107.364L107.055 23.3457H100.105C98.0913 23.3457 96.5039 25.0995 96.5039 27.1262V58.6175H97.6848V28.3149C97.6848 26.2883 99.2916 24.5344 101.305 24.5344H101.286Z" fill="#2E2D32"/>
<path d="M124.884 36.0319V58.6175H126.065V31.3354L124.884 36.0319ZM104.422 34.8431L110.404 58.6175H111.294L104.441 31.3354V34.8431H104.422ZM147.244 31.959C151.329 31.959 154.31 32.6995 156.207 34.1806C154.484 31.9006 151.116 30.7703 146.063 30.7703C139.771 30.7703 136.229 33.2647 135.396 38.3508H136.848C138.01 34.0831 141.475 31.9785 147.244 31.9785V31.959ZM147.554 42.6965C150.496 42.3262 151.987 41.4493 151.987 39.9488C151.909 39.1303 151.464 38.5262 150.651 38.1365C150.729 38.3313 150.787 38.5457 150.806 38.7601C150.806 40.2606 149.315 41.1375 146.373 41.5078C139.462 42.1898 134.719 43.9631 134.583 50.5303C134.583 53.4534 135.648 55.6749 137.468 57.1365C136.384 55.7529 135.764 53.9406 135.764 51.719C135.919 45.1324 140.662 43.3785 147.573 42.6965H147.554ZM150.903 47.3539C150.903 51.2513 148.58 53.5313 144.766 53.5313C144.127 53.5508 143.488 53.4144 142.908 53.1611C143.43 54.2134 144.437 54.7201 145.947 54.7201C149.761 54.7201 152.084 52.4401 152.084 48.5426V46.0093C151.696 46.1652 151.309 46.3211 150.903 46.477V47.3734V47.3539ZM175.837 32.3683V31.1795H174.85C165.732 31.1795 161.047 35.5837 160.834 44.4503V58.6175H162.015V45.639C162.228 36.8308 166.835 32.4267 175.818 32.3683H175.837ZM183.774 24.5344C184.355 24.5344 184.916 24.6903 185.4 25.0021C185.11 24.5149 184.704 24.0862 184.2 23.7939C183.716 23.5016 183.155 23.3457 182.574 23.3457H179.012V58.6175H180.193V24.5344H183.755H183.774ZM195.525 33.3621H201.488L202.591 32.1734H194.344L187.085 40.5529V43.1057L195.525 33.3621ZM189.059 48.718C189.253 48.9908 189.447 49.2831 189.601 49.5754L194.441 58.598H194.983L190.782 50.7642C190.202 49.7313 189.621 49.0493 189.059 48.6985V48.718ZM215.62 31.959C219.027 31.959 221.737 32.797 223.731 34.4534C221.699 31.998 218.601 30.7703 214.439 30.7703C206.134 30.8288 201.972 35.4862 201.972 44.8206C201.972 50.2575 203.366 54.1549 206.173 56.5324C204.159 54.1354 203.172 50.6278 203.153 46.0288C203.153 36.6944 207.315 32.0175 215.62 31.9785V31.959ZM215.62 54.3498C217.207 54.3498 218.717 53.6678 220.053 52.3816C220.343 52.0503 220.711 51.797 221.098 51.6411C221.505 51.4657 221.931 51.3878 222.357 51.4072H225.861C225.996 51.0175 226.112 50.6278 226.209 50.2185H221.157C220.731 50.2185 220.285 50.277 219.898 50.4524C219.502 50.6234 219.146 50.8756 218.853 51.1929C217.517 52.479 216.026 53.1611 214.42 53.1611C213.219 53.1611 212.213 52.8883 211.419 52.3426C212.329 53.6872 213.723 54.3498 215.6 54.3498H215.62Z" fill="#2E2D32"/>
<path d="M219.376 41.917H210.529C210.432 42.3067 210.355 42.716 210.297 43.1057H220.557C220.286 40.7867 219.512 39.2083 218.215 38.3508C218.815 39.2472 219.221 40.436 219.376 41.917ZM240.807 31.1795H237.864V32.3683H240.807V31.1795ZM239.877 54.2524H240.807V53.0637H238.697C238.445 53.0637 238.174 53.0247 237.922 52.9662C238.096 53.8042 238.735 54.2524 239.877 54.2524ZM231.03 24.5344H234.592C235.154 24.5344 235.696 24.6903 236.18 24.9826C235.58 24.0278 234.554 23.3457 233.411 23.3457H229.849V53.317C229.811 55.4801 230.43 56.9026 231.689 57.6626C231.224 56.8831 231.011 55.8308 231.03 54.5057V24.5344ZM258.733 37.9611L258.791 38.078C258.9 38.3703 259.066 38.6379 259.279 38.8653C259.492 39.0927 259.747 39.2755 260.03 39.4031C260.03 39.3642 259.991 39.3252 259.972 39.2667C259.74 38.7016 259.294 38.2339 258.733 37.9611ZM255.752 31.959C259.256 31.959 262.043 32.7385 264.095 34.2975C264.154 34.3365 264.192 34.3949 264.25 34.4339C263.863 33.9467 263.399 33.4985 262.915 33.1088C260.863 31.5498 258.075 30.7703 254.571 30.7703C248.337 30.8678 243.691 33.6739 243.691 39.5785C243.71 41.839 244.601 43.6513 246.305 45.0349C245.375 43.8462 244.911 42.4237 244.891 40.7672C244.891 34.8626 249.518 32.0565 255.752 31.959Z" fill="#2E2D32"/>
<path d="M257.147 42.6964C261.232 43.5148 264.078 44.5476 265.704 45.7364C265.529 45.483 265.336 45.2687 265.123 45.0348C263.632 43.6318 260.593 42.443 255.947 41.5076C254.185 41.1764 252.849 40.7282 251.978 40.202C252.462 41.2738 254.166 42.1312 257.128 42.6964H257.147ZM250.139 50.7835C250.023 50.3938 249.965 50.0041 249.945 49.5948H242.938C242.938 52.6543 243.905 54.9928 245.861 56.5518C244.699 55.0902 244.138 53.1415 244.138 50.7835H250.158H250.139ZM256.779 54.8174C259.664 54.8174 261.116 53.9794 261.116 52.2256C261.116 51.641 260.69 51.0759 259.838 50.5887C259.896 50.7251 259.915 50.881 259.935 51.0369C259.935 52.7907 258.483 53.6287 255.598 53.6287C253.972 53.6287 252.636 53.3753 251.668 52.7907C252.52 54.2718 254.34 54.8174 256.779 54.8174ZM272.034 32.3682H293.155V31.1794H270.853V33.401C270.853 34.0051 270.989 34.6092 271.279 35.1548C271.569 35.681 271.995 36.1292 272.518 36.441C272.194 35.8791 272.027 35.2394 272.034 34.5897V32.3487V32.3682ZM293.581 53.843V52.6543H280.978L279.874 53.843H293.581ZM285.798 38.1169H283.553L270.04 53.161V58.5979H271.221V54.3497L285.798 38.1169Z" fill="#2E2D32"/>
<path fill-rule="evenodd" clip-rule="evenodd" d="M47.0017 52.5371C46.4016 52.5371 45.8014 52.7125 45.2981 53.0633C44.9175 53.3147 44.5977 53.6486 44.3621 54.0407C44.1265 54.4327 43.9811 54.8729 43.9365 55.3289C43.892 55.7849 43.9494 56.2452 44.1046 56.6759C44.2598 57.1066 44.5089 57.4969 44.8335 57.8181C45.2594 58.2469 45.8208 58.5392 46.4016 58.6756C47.0017 58.7925 47.6212 58.734 48.1826 58.5002C48.744 58.2663 49.228 57.8766 49.5571 57.3504C49.9574 56.7584 50.138 56.0435 50.0672 55.3309C49.9964 54.6183 49.6788 53.9535 49.1699 53.453C48.5891 52.8684 47.8148 52.5371 47.0017 52.5371ZM60.1271 52.5371C59.5269 52.5371 58.9268 52.7125 58.4235 53.0633C58.0429 53.3147 57.7231 53.6486 57.4875 54.0407C57.2519 54.4327 57.1065 54.8729 57.0619 55.3289C57.0173 55.7849 57.0748 56.2452 57.23 56.6759C57.3852 57.1066 57.6343 57.4969 57.9589 57.8181C58.3848 58.2469 58.9462 58.5392 59.527 58.6756C60.1271 58.7925 60.7466 58.734 61.308 58.5002C61.8694 58.2663 62.3534 57.8766 62.6825 57.3504C62.9657 56.9284 63.1404 56.4422 63.1911 55.9355C63.2418 55.4287 63.1668 54.9173 62.9728 54.4469C62.818 54.0766 62.5857 53.7258 62.3146 53.4335C62.0243 53.1412 61.6952 52.9269 61.308 52.771C60.9402 52.6151 60.5336 52.5371 60.1271 52.5371Z" fill="#3A383E"/>
<path fill-rule="evenodd" clip-rule="evenodd" d="M52.1537 67.9126C59.9941 67.8346 67.4667 64.6582 72.984 59.0459C78.5013 53.4531 81.5793 45.8726 81.5793 37.9997C81.5793 30.1269 78.4819 22.5464 72.984 16.9536C67.4748 11.347 59.9874 8.15988 52.1537 8.08691H51.2051C56.6256 8.2623 61.8913 10.0356 66.3245 13.1926C70.7577 16.3495 74.1842 20.7341 76.1975 25.8202C78.1967 30.9029 78.6754 36.4631 77.5747 41.8161C76.474 47.1692 73.8419 52.0813 70.0027 55.9474C66.162 59.8121 61.2822 62.4616 55.9644 63.5696C50.6465 64.6776 45.1229 64.1957 40.0737 62.1833C35.021 60.1761 30.6652 56.7269 27.5291 52.2449C24.3948 47.7809 22.6312 42.4889 22.457 37.0254V37.9802C22.4573 41.9079 23.2269 45.797 24.7217 49.4251C26.2165 53.0531 28.4072 56.3489 31.1686 59.1238C33.9255 61.9032 37.1996 64.1083 40.8037 65.613C44.4078 67.1177 48.2713 67.8925 52.1731 67.8931L52.1537 67.9126Z" fill="#9E1D22"/>
<path fill-rule="evenodd" clip-rule="evenodd" d="M50.3715 63.1193H51.2813C44.8154 62.8854 38.698 60.1378 34.2067 55.4608C29.7154 50.7839 27.2181 44.5285 27.2181 38.0198C27.2181 37.3962 27.2375 36.7726 27.2762 36.149H23.6367V36.2075C23.6367 39.7347 24.3336 43.2424 25.6694 46.5162C27.006 49.7832 28.9734 52.7506 31.4577 55.2465C33.9419 57.7452 36.891 59.7267 40.1363 61.0775C43.3816 62.4284 46.8596 63.1222 50.3715 63.1193ZM35.7748 19.0588C39.3322 15.9378 43.6962 13.8966 48.3599 13.1722C53.0236 12.4479 57.7958 13.07 62.1224 14.9665C66.4394 16.8567 70.1563 19.9357 72.8085 23.8721C75.4608 27.798 76.9573 32.3982 77.1256 37.1429V36.227C77.1256 30.9265 75.5768 25.7429 72.6536 21.3388C69.7504 16.9168 65.606 13.4641 60.7479 11.4198C55.8926 9.37609 50.5494 8.80707 45.3768 9.78288C40.208 10.7767 35.4457 13.2906 31.6707 16.9931C31.6707 16.9931 34.4584 16.6619 35.7748 19.0783V19.0588Z" fill="#3A383E"/>
<path fill-rule="evenodd" clip-rule="evenodd" d="M44.2356 45.4438L62.8977 43.1638C63.5753 43.0858 64.2141 42.813 64.7368 42.3648C65.2595 41.9361 65.666 41.3515 65.879 40.7084L71.0672 25.0602C71.1087 24.9214 71.1219 24.7756 71.1059 24.6315C71.0834 24.4856 71.0306 24.3462 70.951 24.2223C70.8651 24.1006 70.7525 24.0006 70.6219 23.9299C70.4883 23.8679 70.3432 23.8347 70.196 23.8325H36.9373L35.1756 20.7925C34.7461 20.0482 34.1306 19.43 33.3902 18.9993C32.6499 18.5686 31.8105 18.3403 30.9554 18.3371H14.4228C12.8354 18.3371 11.2286 18.4151 9.64115 18.2397C8.42153 18.1033 7.06641 18.3956 7.06641 19.9741C7.06641 20.4612 7.26 20.9289 7.60846 21.2797C7.95692 21.6305 8.42153 21.8253 8.90551 21.8253H28.5742C29.4671 21.8256 30.3355 22.1187 31.0481 22.6602C31.7607 23.2016 32.2786 23.9621 32.5235 24.8264C32.7945 25.8007 33.3753 26.6387 34.169 27.2428C34.9627 27.8469 35.9306 28.1782 36.9373 28.1782H57.6514C59.3356 29.6007 58.3096 31.4715 56.8964 31.4715H23.8506C22.1664 32.894 23.1924 34.7648 24.6056 34.7648C35.7177 34.7648 42.6095 34.7258 53.8764 34.7258C55.5606 36.1484 54.5346 37.9997 53.1214 37.9997H29.6003C27.916 39.4223 28.9421 41.293 30.3553 41.293H37.189L39.3572 48.932C39.5701 49.692 40.0347 50.3741 40.6736 50.8417C41.3124 51.3094 42.0674 51.5823 42.8612 51.5823H63.9624C64.3475 51.5823 64.7168 51.4283 64.9891 51.1542C65.2614 50.8801 65.4144 50.5083 65.4144 50.1207C65.4144 49.7331 65.2614 49.3613 64.9891 49.0873C64.7168 48.8132 64.3475 48.6592 63.9624 48.6592H44.4486C44.042 48.6592 43.6549 48.5033 43.3645 48.211C43.0714 47.9303 42.8979 47.546 42.8805 47.1392C42.853 46.7346 42.9852 46.3354 43.2483 46.0284C43.5 45.7166 43.8678 45.5023 44.2744 45.4633L44.2356 45.4438Z" fill="#9E1D22"/>
</svg>
