<svg width="36" height="36" viewBox="0 0 36 36" fill="none" xmlns="http://www.w3.org/2000/svg">
<path d="M30.4601 18.0001C30.4601 11.1215 24.8801 5.5415 18.0015 5.5415C11.123 5.5415 5.54297 11.1215 5.54297 18.0001C5.54297 24.2229 10.0944 29.3658 16.0473 30.3044V21.6001H12.8844V18.0001H16.0473V15.2615C16.0473 12.1372 17.9115 10.4144 20.753 10.4144C22.1158 10.4144 23.543 10.6586 23.543 10.6586V13.7186H21.9744C20.4315 13.7186 19.943 14.6829 19.943 15.6601V18.0001H23.4015L22.8487 21.6001H19.943V30.3044C25.8958 29.3658 30.4473 24.2101 30.4473 18.0001H30.4601Z" fill="#222222"/>
</svg>
