<svg width="36" height="36" viewBox="0 0 36 36" fill="none" xmlns="http://www.w3.org/2000/svg">
<path d="M29.6854 12.1145C29.547 11.5949 29.2746 11.1208 28.8956 10.7394C28.5165 10.358 28.0441 10.0828 27.5254 9.94116C25.6226 9.42676 17.9983 9.42676 17.9983 9.42676C17.9983 9.42676 10.374 9.42676 8.47116 9.94116C7.41687 10.2241 6.59402 11.06 6.31116 12.1145C5.79688 14.0307 5.79688 18.0173 5.79688 18.0173C5.79688 18.0173 5.79688 22.0168 6.31116 23.9201C6.59402 24.9747 7.41687 25.772 8.47116 26.0549C10.374 26.5693 17.9983 26.5693 17.9983 26.5693C17.9983 26.5693 25.6226 26.5693 27.5254 26.0549C28.0418 25.9214 28.5137 25.6536 28.893 25.2786C29.2724 24.9037 29.5458 24.435 29.6854 23.9201C30.1997 22.004 30.1997 18.0173 30.1997 18.0173C30.1997 18.0173 30.1997 14.0178 29.6854 12.1145ZM15.5169 21.6439V14.3908L21.894 18.0173L15.5169 21.6439Z" fill="#222222"/>
</svg>
