<svg width="9" height="12" viewBox="0 0 9 12" fill="none" xmlns="http://www.w3.org/2000/svg">
<path d="M4.49951 0C2.01439 0 -0.000488281 2.01488 -0.000488281 4.5C-0.000488281 5.47856 0.320324 6.3765 0.853574 7.11188C0.863137 7.1295 0.864637 7.14919 0.875512 7.16606L3.87551 11.6661C4.01464 11.8748 4.24901 12 4.49951 12C4.75001 12 4.98439 11.8748 5.12351 11.6661L8.12351 7.16606C8.13457 7.14919 8.13589 7.1295 8.14545 7.11188C8.6787 6.3765 8.99951 5.47856 8.99951 4.5C8.99951 2.01488 6.98464 0 4.49951 0ZM4.49951 6C3.67114 6 2.99951 5.32838 2.99951 4.5C2.99951 3.67163 3.67114 3 4.49951 3C5.32789 3 5.99951 3.67163 5.99951 4.5C5.99951 5.32838 5.32789 6 4.49951 6Z" fill="black"/>
</svg>
