<svg width="1439" height="779" viewBox="0 0 1439 779" fill="none" xmlns="http://www.w3.org/2000/svg">
<g opacity="0.4">
<path d="M712.574 308.363C714.121 308.123 714.293 300.324 713.399 300.221C710.272 299.911 709.069 308.879 712.574 308.363Z" stroke="#B2B2B2" stroke-miterlimit="10"/>
<path d="M380.932 421.986C383.51 421.058 400.008 424.494 400.008 419.271C400.008 415.904 382.994 411.472 380.932 413.087C381.138 415.389 382.032 417.382 383.578 419.099C383.578 420.783 376.429 418.928 375.811 420.646C376.979 422.467 378.698 422.913 380.932 421.986Z" stroke="#B2B2B2" stroke-miterlimit="10"/>
<path d="M530.856 525.266C523.914 525.644 517.246 516.745 509.65 515.68C502.913 514.752 502.501 514.031 496.554 516.47C503.188 513.756 485.865 505.75 485.762 505.75C482.875 504.995 479.885 512.828 477.273 511.729C477.788 511.935 480.4 505.476 477.754 503.036C474.695 500.219 470.398 506.472 470.158 506.334C470.57 506.575 477.547 488.915 469.058 484.277C460.878 478.917 454.141 479.948 446.717 476.203C439.774 472.698 439.155 464.143 429.394 464.761C433.347 464.486 421.729 454.351 424.926 455.622C419.77 453.561 409.7 457.958 403.032 456.447C400.385 455.863 398.667 449.06 394.851 449.06C388.974 449.06 390.59 459.573 389.627 461.669C386.912 467.613 385.812 446.07 388.562 447.823C386.568 446.551 372.82 456.069 371.411 457.134C368.317 459.436 367.08 463.902 363.918 464.864C369.28 463.284 346.732 460.776 351.441 462.562C337.177 457.134 343.708 455.278 339.824 442.703C338.724 439.13 342.436 437.481 339.411 434.217C336.559 431.125 324.323 430.506 320.611 432.843C317.999 434.286 320.954 422.982 322.123 421.814C326.763 417.107 328.241 406.146 321.058 405.94C309.097 405.631 315.008 416.213 307.584 419.89C285.209 430.987 284.246 399.55 284.934 386.322C284.625 386.116 284.35 385.944 284.075 385.806C284.35 385.944 284.659 386.116 284.934 386.287C286.171 363.027 302.91 369.349 316.933 370.964C313.255 370.552 316.383 364.986 320.611 364.573C324.082 364.23 327.829 365.776 332.125 367.081C339.171 369.177 337.418 367.081 342.642 375.98C344.705 379.519 345.529 388.452 350.17 389.929C350.582 390.067 349.895 357.358 352.541 353.476C355.909 348.528 363.918 342.412 366.427 339.183C372.201 331.761 366.633 340.11 367.355 331.521C367.424 330.627 365.018 318.396 368.97 318.396C367.458 318.396 370.311 329.872 370.173 329.975C374.092 327.26 371.548 323.275 371.72 320.183C371.857 317.709 384.472 313.483 385.503 311.249C385.949 310.322 379.419 311.387 379.419 311.043C379.419 307.745 389.662 308.295 391.174 307.264C390.452 307.745 393.408 297.506 395.505 295.342C400.11 290.532 411.659 291.597 415.199 284.313C414.752 285.206 416.711 288.882 419.22 288.127C410.112 290.772 405.781 295.617 416.677 294.002C422.211 293.177 430.666 287.749 434.825 284.588C435.065 284.416 432.934 281.702 433.244 279.846C433.037 281.014 426.369 286.306 424.788 285.996C414.168 284.038 419.255 276.926 415.13 274.177C413.996 274.727 412.827 274.933 411.59 274.83C410.456 271.016 424.445 268.165 411.006 266.412C401.726 265.21 397.12 278.678 390.727 278.678C393.82 278.678 407.912 261.602 414.58 259.987C417.296 259.334 454.897 256.62 451.735 248.306C450.876 247.825 449.982 247.378 449.054 246.966C446.442 244.561 455.825 242.19 445.445 240.987C445.205 239.853 445.102 238.685 445.17 237.483C444.173 236.796 433.69 241.159 433.656 241.125C432.866 237.311 443.383 236.899 444.552 234.872C444.483 235.009 422.039 224.083 424.101 221.438C428.26 216.043 428.225 222.056 425.51 213.707C424.788 211.439 414.752 197.387 415.474 196.734C410.593 201.132 413.343 211.165 404.853 211.199C395.505 211.233 396.398 200.445 396.398 194.295C396.398 191.58 373.129 184.64 371.376 184.709C358.212 185.087 363.608 185.911 362.818 196.322C362.68 198.108 360.721 205.53 360.928 206.595C362.474 214.669 369.177 217.28 365.086 227.622C363.849 230.783 356.356 231.642 355.806 233.497C355.085 235.937 358.693 238.445 358.144 241.365C357.903 242.568 359.381 253.7 358.59 253.356C353.641 251.02 355.806 255.624 350.273 250.676C344.017 245.076 348.382 237.002 344.739 232.741C343.295 231.058 325.148 224.186 321.126 222.331C314.321 219.239 311.021 218.414 303.632 219.582C305.213 219.342 302.154 210.34 301.466 209.206C297.514 202.506 293.286 209.962 295.658 196.769C296.242 193.436 311.056 177.562 311.159 178.009C311.021 177.356 299.06 172.821 299.129 172.58C300.813 168.561 311.09 179.761 313.874 171.309C312.602 175.192 330.166 167.495 325.766 164.335C323.945 163.029 313.633 164.438 314.252 159.49C313.84 162.754 336.318 163.853 327.416 155.882C327.107 155.608 335.596 155.986 337.315 155.986C338.518 155.986 334.05 151.863 334.462 151.485C335.768 150.213 340.271 157.772 346.148 151.175C350.685 146.09 343.742 145.575 343.502 140.593C343.502 140.043 350.513 138.154 348.176 134.615C346.389 131.935 337.04 128.705 333.947 129.702C331.816 130.389 334.737 140.868 328.894 144.269C328.104 143.514 327.519 142.586 327.141 141.555C324.701 141.727 329.375 150.66 326.213 149.217C322.776 147.602 322.81 141.383 322.295 140.937C321.057 139.837 319.408 135.817 317.277 133.962C315.627 132.519 313.187 140.937 312.396 141.074C309.44 141.624 312.809 133.447 313.015 133.069C314.458 130.354 305.419 131.248 305.591 131.385C302.738 128.877 307.55 127.503 308.065 126.747C307.412 127.743 301.122 116.474 301.122 116.542C296.964 107.06 299.782 116.542 298.682 105.891C299.198 110.873 317.999 97.6112 311.468 95.481C304.525 93.179 295.348 92.6293 293.905 97.886C293.08 100.875 293.561 112.866 292.324 117.642C291.946 119.154 286.79 121.627 288.612 127.743C289.299 130.114 302.978 133.172 296.551 138.394C296.895 136.814 297.789 136.058 299.198 136.058C299.404 136.436 292.186 149.595 292.942 149.045C292.77 149.183 285.243 141.555 284.693 140.593C284.315 139.906 293.836 138.463 294.317 137.982C298.029 134.409 288.921 134.477 288.921 133.928C288.921 132.931 293.802 133.55 292.083 132.175C286.721 127.949 280.156 130.32 276.719 134.787C275.001 137.02 290.089 142.758 271.942 145.094C263.658 146.159 260.29 142.036 253.107 140.318C251.01 139.803 251.147 137.604 247.332 137.26C246.026 137.123 237.055 141.074 239.771 142.311C241.764 143.204 249.188 138.119 250.357 139.425C245.476 134.065 244.583 154.439 241.42 152.79C240.046 152.069 240.905 147.155 236.609 145.747C230.731 143.788 217.43 149.835 213.065 145.06C210.934 142.723 218.667 142.208 218.048 140.834C215.883 135.817 203.647 135.474 199.179 134.443C195.192 133.515 191.514 130.904 187.562 130.457C182.784 129.942 180.962 133.344 176.529 133.344C175.875 133.344 177.422 127.434 175.394 127.159C173.951 129.53 172.163 131.591 169.998 133.344C165.736 133.034 166.32 122.589 161.268 123.38C164.705 122.864 154.05 130.973 154.772 130.561C153.294 131.42 141.848 138.463 140.749 138.394C138.102 138.257 155.734 127.4 155.7 127.846C155.872 125.716 140.439 132.244 138.721 133.172C136.693 134.237 138.652 130.457 135.73 131.523C128.375 134.168 133.599 136.47 131.847 138.394C132.534 137.638 86.271 127.468 83.212 127.228C78.7094 126.85 50.5598 123.655 48.7725 121.731C45.7135 118.398 37.602 121.937 33.9243 125.991C30.9684 129.221 9.03991 134.065 7.97442 138.875C5.74032 148.908 29.1468 150.763 30.9341 156.226C31.0716 156.638 4.60608 155.23 1.68457 162.136C2.68132 159.765 9.07428 169.729 9.72732 169.969C12.7176 171.069 28.8375 167.667 28.9062 167.736C33.4088 172.237 23.6131 178.284 21.2072 180.517C18.32 183.197 18.0107 178.868 14.5736 183.438C13.13 185.327 9.65858 187.217 8.00879 188.763C8.73057 188.076 13.3363 198.28 13.4394 198.418C16.2234 200.857 24.7817 200.823 23.785 199.826C26.4659 202.506 23.5444 208.141 26.0191 209.447C27.7032 210.34 33.5462 209.653 36.7771 210.958C33.9243 209.79 45.6104 205.873 44.923 207.935C43.3419 212.779 24.1287 236.143 21.3103 233.051C24.713 236.761 59.3243 213.398 59.3243 207.866C58.3619 207.076 57.3308 206.492 56.1278 206.114C55.3717 204.121 74.8599 187.904 74.1725 194.226C74.2412 193.573 62.5208 203.09 65.2361 205.564C66.0266 206.286 78.95 201.819 80.9779 201.063C83.3495 200.204 76.2691 194.501 81.081 193.642C82.662 193.367 88.8144 196.975 89.055 196.872C87.5771 196.665 86.649 197.215 86.3053 198.589C86.924 200.445 113.871 199.242 115.555 200.754C114.73 200.033 132.878 215.665 132.706 211.302C131.915 209.653 131.709 208.004 132.122 206.32C140.749 212.608 128.1 214.291 128.135 213.913C128.135 214.36 134.699 223.602 134.493 223.705C135.696 223.052 132.775 215.322 134.768 216.043C135.215 217.04 135.387 218.07 135.284 219.136C137.483 221.919 137.861 212.814 137.586 213.501C138.068 212.264 138.274 225.423 136.865 225.217C134.871 224.942 148.345 224.049 144.392 226.007C145.629 225.389 139.477 221.747 142.88 221.438C148.104 220.991 144.014 225.904 140.508 226.179C140.611 226.179 140.508 233.429 141.127 233.841C142.192 234.597 147.004 230.096 149.444 230.542C152.263 231.058 151.472 239.922 152.813 241.778C153.775 243.118 160.512 249.886 161.405 250.986C165.358 255.899 171.098 259.06 175.566 262.427C175.085 262.083 193.301 277.441 183.3 277.441C182.921 277.441 172.438 249.165 160.752 257.376C163.193 255.658 176.425 274.624 177.285 277.029C182.165 291.013 174.157 307.298 179.588 322.553C183.3 332.998 193.13 339.629 199.763 346.81C204.025 351.414 206.637 356.602 210.281 362.752C214.921 370.586 215.952 372.613 215.058 377.114C215.024 377.32 236.024 399.275 235.234 399.859C237.193 398.416 214.439 357.255 215.093 357.186C223.341 356.327 224.063 369.212 225.576 371.582C229.769 378.11 237.468 384.226 242.108 390.136C250.013 400.271 251.044 410.922 258.125 418.172C262.833 423.016 273.763 427.242 280.053 429.201C288.302 431.812 297.032 429.338 303.666 435.866C306.622 438.752 311.502 438.89 313.599 441.02C319.442 446.345 321.848 443.665 327.313 449.3C330.991 453.08 332.091 456.55 334.187 458.646C337.659 462.081 343.57 468.609 348.829 468.987C353.744 469.331 352.438 463.146 355.085 463.799C366.839 466.582 364.708 482.318 359.965 491.938C354.81 502.418 348.279 504.204 354.053 514.752C354.466 515.508 348.348 525.438 348.932 528.495C350.066 534.405 363.196 551.79 366.255 557.837C372.098 569.416 379.591 570.584 387.909 580.033C395.505 588.656 393.099 595.528 391.792 607.381C389.868 624.561 389.387 641.499 385.743 658.197C384.3 664.828 371.651 699.461 376.257 706.092C378.388 709.184 379.282 697.4 381.378 696.781C383.887 696.06 380.072 722.618 378.01 721.141C376.91 720.385 379.213 712.586 376.326 713.823C378.938 712.689 370.929 724.852 370.929 724.955C371.239 721.519 375.02 729.146 375.157 730.383C375.398 732.479 379.763 728.975 379.557 732.032C379.866 727.429 366.427 737.358 372.785 736.396C373.851 735.778 374.813 735.056 375.673 734.197C376.601 734.025 369.039 742.099 374.126 742.89C375.123 743.027 375.638 737.702 377.047 739.11C380.003 742.099 371.411 748.387 373.439 750.929C373.851 751.445 378.044 749.005 378.869 750.723C379.144 751.273 376.016 753.678 376.532 753.85C378.216 754.468 382.066 752.166 382.822 754.64C383.612 757.251 375.329 754.812 378.147 758.797C379.213 760.309 385.915 753.953 387.152 758.11C386.774 756.908 379.66 761.855 379.419 762.164C379.178 762.474 387.977 759.588 388.218 760.137C388.837 761.512 378.422 765.532 378.147 764.363C378.457 765.703 384.437 769.414 385.365 768.452C387.015 766.803 383.234 767.593 384.575 765.875C385.503 764.638 393.511 760.172 393.958 759.004C392.48 759.966 391.724 761.34 391.758 763.127C392.961 763.333 394.164 763.401 395.367 763.333C394.336 762.199 392.961 768.555 393.339 768.383C392.308 767.421 391.724 766.253 391.655 764.81C389.868 764.02 390.796 768.555 390.555 768.383C389.936 767.009 388.974 766.459 387.668 766.734C389.146 764.707 385.846 773.056 385.846 770.136C385.846 768.555 390.899 774.774 390.796 774.705C391.449 773.674 391.93 772.541 392.205 771.304C392.033 771.338 399.801 776.87 400.591 777.11C402.138 777.557 399.457 773.434 400.351 773.571C402.482 773.915 412.827 771.166 412.484 771.063C406.881 769.002 400.007 759.004 398.942 758.763C398.082 758.557 394.886 759.21 395.401 757.045C395.848 755.121 398.838 757.801 399.629 756.942C400.007 756.53 396.089 749.555 397.017 747.528C398.426 744.401 400.901 743.542 402.482 740.656C404.613 736.774 409.837 733.819 410.181 729.49C410.456 726.123 405.266 726.02 405.541 725.058C406.503 721.313 408.909 712.139 412.759 707.26C414.237 705.405 419.255 700.492 419.186 700.457C417.983 699.461 408.428 700.286 413.446 692.693C411.865 695.063 424.857 690.631 424.204 690.975C425.991 689.944 423.964 683.966 424.857 683.004C429.291 678.296 445.617 685.099 447.473 672.524C447.886 669.741 440.221 660.052 440.049 660.224C442.661 657.544 454.725 663.316 461.393 656.307C463.043 654.555 471.326 639.919 471.292 640.365C470.467 642.53 469.367 644.557 468.027 646.447C468.13 643.526 477.754 635.521 479.025 632.154C480.813 627.344 478.613 621.056 481.156 616.658C486.175 607.862 497.448 609.58 503.704 605.595C511.746 600.51 514.049 593.192 516.524 583.709C518.036 577.868 516.49 563.094 519.48 558.456C519.205 558.868 550.929 523.995 531.097 525.094L530.856 525.266Z" stroke="#B2B2B2" stroke-miterlimit="10"/>
<path d="M376.532 412.503C381.103 406.215 329.203 395.083 335.699 404.566C332.606 400.031 356.39 406.078 357.525 406.696C361.58 408.929 371.032 420.061 376.566 412.503H376.532Z" stroke="#B2B2B2" stroke-miterlimit="10"/>
<path d="M360.068 421.024C360.79 422.363 367.493 424.322 368.214 422.57C368.936 420.817 359.209 419.34 360.068 421.024Z" stroke="#B2B2B2" stroke-miterlimit="10"/>
<path d="M405.507 421.401C407.088 424.116 411.659 422.501 412.037 421.401C412.759 419.477 403.891 418.687 405.507 421.401Z" stroke="#B2B2B2" stroke-miterlimit="10"/>
<path d="M430.804 755.671C432.935 756.839 437.334 751.033 435.409 750.62C433.45 750.242 428.81 754.537 430.804 755.671Z" stroke="#B2B2B2" stroke-miterlimit="10"/>
<path d="M436.096 756.049C437.506 756.839 443.314 754.159 442.627 752.75C441.218 749.83 434.687 755.259 436.096 756.049Z" stroke="#B2B2B2" stroke-miterlimit="10"/>
<path d="M308.099 502.212C306.347 505.132 309.852 507.949 310.574 506.678C311.468 505.132 309.852 499.326 308.099 502.212Z" stroke="#B2B2B2" stroke-miterlimit="10"/>
<path d="M466.79 131.935C467.202 124.926 456.479 128.327 454.863 128.637C453.248 128.946 466.274 140.49 466.79 131.935Z" stroke="#B2B2B2" stroke-miterlimit="10"/>
<path d="M586.88 127.159C585.609 127.915 569.833 125.476 569.695 125.75C570.142 124.685 575.401 118.604 574.748 118.363C578.219 119.669 588.187 131.488 588.633 120.528C588.908 114.034 579.731 114.034 578.253 108.846C577.841 107.369 590.421 112.901 587.912 105.101C586.502 100.669 574.129 108.228 574.61 103.486C574.438 105.136 578.872 97.6799 578.116 98.5045C582.069 94.1754 599.941 109.121 588.358 94.1067C587.877 93.4883 598.773 93.6944 599.323 91.4611C599.804 89.5371 588.496 89.5714 591.074 85.311C594.305 79.9855 602.416 87.7161 597.192 76.859C597.364 77.2025 584.096 72.7016 586.124 70.7089C587.912 68.9223 603.757 70.5371 603.172 68.3038C601.66 62.6347 593.961 68.613 593.308 63.7342C592.964 61.1917 598.017 63.5968 598.738 62.4286C601.591 57.962 586.571 61.5696 587.121 61.9819C583.065 58.8553 603.722 39.5805 604.341 40.4051C600.526 35.3544 597.089 43.8065 594.408 41.1266C592.002 38.7215 609.359 36.2821 609.84 35.9729C611.318 35.0109 600.423 32.7432 599.941 33.5678C601.832 30.3038 627.266 30.7161 627.266 23.7071C627.266 14.293 603.138 23.3291 600.423 24.1881C598.326 24.8752 595.233 22.1266 593.789 22.6763C588.943 24.5317 584.474 32.3653 579.285 33.1555C584.371 32.3996 590.146 20.0995 581.828 18.6221C580.522 18.3816 566.499 28.7921 565.605 25.6655C564.918 23.1573 574.06 22.0579 573.854 19.9964C573.407 15.6329 543.986 22.4358 543.917 21.8174C543.47 15.8391 584.887 18.2441 589.046 12.6438C591.349 9.55155 536.39 0.65281 531.406 1.92406C530.169 2.23328 522.676 4.91321 521.851 5.01628C522.023 5.01628 517.83 4.60399 516.661 4.74142C507.347 5.80652 498.17 5.18807 488.855 6.97469C487.721 7.18084 492.911 10.6854 492.876 10.9946C492.773 11.51 484.696 11.8535 485.796 13.3309C485.555 13.0217 497.276 21.6799 496.485 21.8517C489.921 23.2604 477.856 8.21158 471.189 13.0904C469.573 14.293 476.035 18.2441 476.035 19.1718C476.035 22.7794 462.802 15.0488 463.18 15.0488C462.183 15.0488 462.561 22.9512 460.705 24.1194C466.411 20.5805 453.659 15.5642 451.666 15.3581C443.967 14.5335 441.561 21.302 441.149 21.4394C438.158 22.4702 433.793 18.8626 429.944 20.443C427.194 21.5425 432.384 26.1808 428.569 28.2767C427.572 28.8264 400.832 29.4792 404.406 37.7939C407.121 44.1157 421.523 37.519 408.703 47.9638C405.231 50.8156 395.092 49.6474 390.692 52.6365C370.242 66.5859 409.631 57.3779 409.218 65.1772C409.184 66.0362 388.321 66.0705 388.699 68.0289C389.249 70.8463 403.341 77.3743 407.053 77.7179C414.649 78.4394 421.935 72.7704 432.075 77.6492C440.942 81.9096 449.913 90.7053 452.56 100.6C455.653 112.179 448.298 113.656 460.465 113.656C459.64 113.656 470.467 125.132 470.845 124.788C470.432 125.166 457.303 119.635 457.303 122.933C457.303 130.732 475.622 125.063 470.742 138.944C470.02 141.04 464.211 138.085 462.493 142.311C460.809 146.4 460.602 147.774 460.431 151.21C460.156 156.844 468.576 176.291 474.832 184.812C479.816 191.649 482.771 192.714 489.817 195.875C500.885 200.857 498.341 201.476 504.563 192.233C507.003 188.626 503.256 185.087 504.219 182.304C504.734 180.826 509.512 180.861 510.234 177.7C511.162 173.611 510.577 166.946 511.127 165.159C512.468 165.022 513.774 165.159 515.046 165.675C515.561 165.365 522.47 156.123 523.26 156.123C524.326 157.188 524.498 158.425 523.776 159.834C525.082 164.025 540.892 150.007 541.202 149.767C547.217 145.369 546.357 145.094 551.719 142.723C563.715 137.432 577.085 133.034 586.777 127.297L586.88 127.159Z" stroke="#B2B2B2" stroke-miterlimit="10"/>
<path d="M184.193 78.8174C187.63 76.9277 187.596 78.9549 190.208 76.1031C190.93 77.4431 191.892 78.5769 193.026 79.5733C197.117 79.5733 198.766 70.7776 201.344 70.2623C204.025 69.7469 202.135 78.0615 208.012 72.3581C210.246 70.1936 209.731 68.2008 211.93 65.7957C212.549 65.1429 199.488 65.5552 197.667 66.1737C192.717 67.8572 183.953 78.8861 184.159 78.7831L184.193 78.8174Z" stroke="#B2B2B2" stroke-miterlimit="10"/>
<path d="M210.35 75.3473C204.438 75.7939 213.581 79.6764 213.306 78.7143C210.865 78.7143 208.562 79.4015 206.466 80.7071C205.4 82.2189 212.378 81.6691 211.621 81.944C208.975 82.0814 206.638 82.9404 204.541 84.4521C208.322 89.9838 214.749 84.7614 217.739 82.8373C216.193 83.8337 226.916 86.4449 227.638 85.3454C226.607 86.8916 216.536 88.3002 216.708 89.9151C217.258 95.1718 236.85 88.1972 239.737 86.9259C249.464 82.6999 252.316 86.1013 247.745 77.718C248.123 78.4051 237.262 70.9151 235.543 71.8084C230.457 74.4539 238.534 79.6764 237.434 81.4973C234.547 86.2731 224.717 76.1375 222.414 75.519C216.468 73.9729 215.333 74.9006 210.384 75.2785L210.35 75.3473Z" stroke="#B2B2B2" stroke-miterlimit="10"/>
<path d="M276.478 116.989C283.662 122.349 291.979 102.284 287.477 102.009C286.171 103.143 285.896 104.552 286.652 106.235C287.133 105.17 280.775 103.005 280.912 103.246C279.537 101.116 289.986 99.123 283.215 94.519C278.197 91.0832 278.781 97.4738 278.85 97.4394C279.743 96.9928 263.83 95.6185 268.882 100.154C270.601 100.635 272.319 100.978 274.072 101.184C280.053 106.373 263.658 103.59 265.342 103.28C260.565 104.139 275 115.924 276.478 117.024V116.989Z" stroke="#B2B2B2" stroke-miterlimit="10"/>
<path d="M176.254 113.519C178.281 115.752 180.172 118.054 181.925 120.494C186.221 120.494 190.758 114.206 192.889 112.626C198.457 108.468 206.362 104.38 211.965 99.7414C214.061 98.0235 186.324 90.0524 182.715 91.1862C171.064 94.8282 181.203 92.3544 177.422 98.745C176.254 100.703 169.998 111.011 170.789 111.973C172.507 112.866 174.329 113.347 176.254 113.485V113.519Z" stroke="#B2B2B2" stroke-miterlimit="10"/>
<path d="M197.461 81.7378C200.657 82.1157 203.819 79.0235 203.647 77.2712C203.475 75.519 195.879 81.5316 197.461 81.7378Z" stroke="#B2B2B2" stroke-miterlimit="10"/>
<path d="M385.022 120.494C387.153 120.253 388.287 119.085 388.39 116.989C389.18 119.532 375.088 112.145 373.817 111.732C370.689 110.667 372.648 107.816 367.596 106.647C364.124 105.857 358.831 111.011 358.969 111.045C354.26 109.396 356.253 111.354 350.926 111.354C347.008 111.354 353.641 89.9837 336.662 100.222C326.454 106.373 334.943 109.671 335.39 116.199C335.459 117.298 327.76 113.931 328.069 108.984C328.344 104.483 333.981 100.463 333.981 97.6112C333.981 92.3888 315.524 103.967 314.63 108.022C313.427 113.519 321.333 124.514 324.598 120.184C323.773 121.284 315.936 119.154 316.143 121.215C317.277 132.485 357.903 125.441 358.797 127.743C357.662 126.987 356.975 125.922 356.734 124.582C357.284 122.727 371.033 133.103 371.136 133.996C369.555 134.924 368.249 136.161 367.252 137.673C369.864 139.872 372.786 135.474 377.151 140.009C382.066 145.128 381.997 144.063 383.166 151.828C383.406 153.443 398.117 148.702 395.436 155.505C392.686 162.514 388.871 153.752 386.946 154.371C385.09 154.989 379.969 155.161 377.288 155.986C376.841 156.123 378.697 161.036 378.904 160.933C374.779 162.96 368.008 161.139 364.812 163.888C353.126 173.92 377.357 167.839 380.656 168.87C384.059 169.935 404.2 194.673 409.459 187.458C410.765 185.671 400.557 174.608 398.667 175.157C406.4 172.924 417.777 185.705 413.721 172.752C411.899 166.98 398.186 162.514 404.166 155.298C406.675 152.275 417.089 165.056 418.842 165.022C418.945 165.022 429.085 154.268 429.085 154.336C429.016 147.156 400.763 143.273 401.691 136.298C403.444 135.508 405.266 135.061 407.156 134.958C405.885 133.687 404.338 132.828 402.551 132.45C402.069 128.19 407.088 128.396 399.904 128.396C405.094 128.396 392.652 122.727 392.205 122.59C390.727 122.074 385.022 120.459 385.056 120.459L385.022 120.494Z" stroke="#B2B2B2" stroke-miterlimit="10"/>
<path d="M141.986 238.685C138.72 240.575 146.076 249.646 148.035 248.271C148.654 247.859 146.797 235.868 141.986 238.685Z" stroke="#B2B2B2" stroke-miterlimit="10"/>
<path d="M259.328 85.6202C260.565 84.0741 256.681 80.7757 255.616 83.49C254.55 86.2043 258.056 87.2007 259.328 85.6202Z" stroke="#B2B2B2" stroke-miterlimit="10"/>
<path d="M354.775 189.485C356.012 189.279 358.487 184.434 355.291 184.64C352.094 184.846 352.85 189.794 354.775 189.485Z" stroke="#B2B2B2" stroke-miterlimit="10"/>
<path d="M372.442 148.186C382.1 146.4 363.127 139.459 366.255 142.139C368.283 143.857 360.79 150.316 372.442 148.186Z" stroke="#B2B2B2" stroke-miterlimit="10"/>
<path d="M339.24 185.224C342.058 187.148 346.32 181.926 345.942 180.38C345.598 178.834 335.803 182.888 339.24 185.224Z" stroke="#B2B2B2" stroke-miterlimit="10"/>
<path d="M305.281 85.9982C306.896 91.0145 347.282 93.076 351.956 89.6745C370.654 76.1374 312.396 82.906 313.186 78.5081C314.114 77.3056 315.18 76.2405 316.417 75.3128C317.861 73.4232 284.727 66.7233 287.236 70.6745C294.076 81.3599 300.572 71.3273 305.281 85.9982Z" stroke="#B2B2B2" stroke-miterlimit="10"/>
<path d="M264.62 129.392C265.583 128.19 270.12 131.901 270.292 129.186C270.395 127.297 256.853 117.711 255.65 114.653C254.756 112.385 254.79 102.215 254.722 102.147C256.337 100.703 256.165 99.1917 254.206 97.6113C251.113 96.7523 248.501 97.3708 246.438 99.5353C248.294 100.841 249.944 102.387 251.388 104.174C251.388 103.28 242.554 100.085 241.661 101.837C240.423 104.311 245.682 113.382 243.998 114.241C243.689 114.412 232.071 101.185 231.418 104.174C232.621 105.239 233.618 106.476 234.409 107.85C234.305 108.331 227.981 108.056 228.325 108.949C223.651 96.6492 219.835 111.389 215.608 107.403C215.161 106.991 222.86 101.15 213.821 101.116C210.315 101.116 201.413 106.132 200.175 109.087C194.917 121.593 206.706 112.42 211.621 116.199C211.896 116.405 201.206 119.154 201.206 120.666C201.206 127.194 226.469 119.978 226.469 125.51C226.469 126.884 203.716 125.476 204.54 129.186C206.878 139.391 235.818 137.364 241.661 136.539C246.954 135.817 246.266 135.233 251.113 135.268C253.072 135.268 269.261 140.834 267.301 134.237C265.755 129.083 262.043 135.783 260.771 132.279C261.905 131.076 263.177 130.114 264.655 129.358L264.62 129.392Z" stroke="#B2B2B2" stroke-miterlimit="10"/>
<path d="M416.643 262.702C416.986 264.248 427.263 268.886 427.607 266.79C427.951 264.66 416.333 261.396 416.643 262.702Z" stroke="#B2B2B2" stroke-miterlimit="10"/>
<path d="M314.286 63.15C311.09 61.3978 307.103 65.1085 310.402 66.4484C313.221 67.6166 317.483 64.9023 314.286 63.15Z" stroke="#B2B2B2" stroke-miterlimit="10"/>
<path d="M286.721 60.6076C307.515 60.6076 282.974 49.0289 281.6 51.2966C280.328 53.3924 284.28 60.6076 286.721 60.6076Z" stroke="#B2B2B2" stroke-miterlimit="10"/>
<path d="M288.852 41.4359C289.058 41.5389 305.247 49.029 304.422 46.4865C304.834 47.7921 296.929 49.7161 297.341 50.1628C302.531 55.8662 310.677 59.5769 318.033 57.5154C318.514 57.378 333.293 44.2189 332.881 46.4865C332.296 49.7505 321.985 36.0416 321.401 35.6293C321.16 35.4576 298.957 23.6727 296.826 25.2876C297.204 26.5245 298.098 27.2803 299.472 27.5896C299.541 28.7921 294.076 27.8301 293.595 28.8264C294.592 29.6167 295.554 30.4069 296.517 31.2659C295.451 33.3274 289.23 30.2695 289.471 34.3581C290.811 35.9729 292.426 37.1755 294.282 38.0344C294.489 40.2677 282.665 38.0344 288.852 41.4702V41.4359Z" stroke="#B2B2B2" stroke-miterlimit="10"/>
<path d="M350.376 97.8174C345.942 108.365 368.421 105.926 368.421 103.624C368.421 100.085 351.648 94.7939 350.376 97.8174Z" stroke="#B2B2B2" stroke-miterlimit="10"/>
<path d="M301.054 61.5697C300.71 60.4015 287.306 62.1881 289.402 63.906C292.942 66.8264 301.432 62.7378 301.054 61.5697Z" stroke="#B2B2B2" stroke-miterlimit="10"/>
<path d="M219.56 61.3978C220.454 59.0615 213.717 59.4738 214.267 60.2296C215.505 61.9819 218.701 63.7342 219.56 61.3978Z" stroke="#B2B2B2" stroke-miterlimit="10"/>
<path d="M297.136 82.528C294.283 80.1917 285.896 85.7921 287.065 86.7884C291.636 90.7053 307.55 91.0832 297.136 82.528Z" stroke="#B2B2B2" stroke-miterlimit="10"/>
<path d="M256.303 66.9983C257.712 65.0742 250.632 58.8554 250.288 61.7758C249.944 64.6963 254.79 69.0597 256.303 66.9983Z" stroke="#B2B2B2" stroke-miterlimit="10"/>
<path d="M271.873 70.2966C267.68 68.51 273.661 76.6872 273.008 76.4811C270.98 74.9006 268.78 73.8698 266.305 73.3545C264.793 74.557 268.471 78.2333 267.268 78.8518C265.377 79.7794 260.737 70.8463 258.091 70.6745C252.454 70.331 260.084 78.6456 260.359 78.8174C265.068 81.6691 268.78 79.4702 273.489 80.7415C272.836 80.5697 278.713 95.6872 284.247 82.3219C288.268 72.5642 276.651 72.3237 271.908 70.2966H271.873Z" stroke="#B2B2B2" stroke-miterlimit="10"/>
<path d="M234.203 60.4359C237.227 59.9205 221.657 56.2098 221.657 62.1881C221.657 72.2894 234.237 60.4359 234.203 60.4359Z" stroke="#B2B2B2" stroke-miterlimit="10"/>
<path d="M225.541 56.7251C226.984 57.3436 237.021 57.2405 237.021 55.179C237.021 47.689 220.351 56.0036 220.763 56.3472C222.344 56.6908 223.925 56.8282 225.541 56.7251Z" stroke="#B2B2B2" stroke-miterlimit="10"/>
<path d="M279.297 41.6419C280.535 39.3056 271.839 37.4846 274.004 39.5117C275.242 40.6799 278.06 43.9783 279.297 41.6419Z" stroke="#B2B2B2" stroke-miterlimit="10"/>
<path d="M255.065 50.7468C257.918 49.8192 259.671 50.7125 260.358 53.4611C260.015 54.3201 253.828 54.0452 254 54.6293C254.275 55.4883 288.027 68.4412 270.807 51.3309C268.642 49.2007 264.689 47.1736 262.696 46.9331C247.573 45.1808 256.337 49.8192 255.1 50.7468H255.065Z" stroke="#B2B2B2" stroke-miterlimit="10"/>
<path d="M351.957 174.539C352.335 172.512 334.703 160.452 333.74 160.59C332.091 160.83 323.842 171.825 324.907 175.329C325.973 178.799 352.129 173.646 351.957 174.539Z" stroke="#B2B2B2" stroke-miterlimit="10"/>
<path d="M310.231 22.264C316.59 17.7631 311.331 24.1537 311.4 24.2224C312.671 24.2912 313.909 24.4973 315.146 24.8065C308.1 33.0868 328.344 31.7468 328.241 30.2007C329.135 43.0506 354.054 25.8716 357.044 28.0018C362.784 32.0904 341.955 36.1103 342.402 36.7975C342.402 36.7975 349.139 42.4666 348.28 42.5353C344.293 42.8445 323.567 28.1049 327.073 41.2297C327.898 44.2875 344.155 50.5063 344.155 53.4611C344.155 53.4611 323.636 47.3454 323.12 56.1754C322.811 61.7414 334.428 55.179 334.6 55.5226C332.778 51.5027 336.387 68.0977 336.387 64.9024C336.387 68.6474 320.474 55.1447 321.127 62.566C322.57 63.9403 324.151 65.1429 325.801 66.208C325.801 67.5136 312.121 68.613 315.318 71.877C318.996 75.6221 360.584 76.8246 362.681 71.7053C364.674 66.8264 347.111 68.0289 346.286 66.689C348.761 70.5714 362.028 59.6799 362.956 59.1646C369.555 55.5226 372.305 60.8825 375.81 50.5407C376.876 47.4485 364.365 47.3798 364.468 47.2767C371.755 42.123 381.344 44.2188 387.978 40.8861C391.965 38.8933 415.852 26.5588 416.093 24.7378C416.368 22.7794 404.888 24.2568 404.235 23.9476C409.734 26.3526 429.291 13.3997 429.532 13.4684C427.985 12.9874 405.369 5.29115 404.991 11.0977C405.919 9.72334 407.122 8.72696 408.635 8.03979C404.166 9.82641 381.997 8.62388 378.973 8.79567C368.799 9.3454 358.934 7.45571 349.998 9.92949C348.176 10.4449 306.519 24.085 305.729 22.5733C307.206 23.3635 308.684 23.2604 310.162 22.2297L310.231 22.264Z" stroke="#B2B2B2" stroke-miterlimit="10"/>
<path d="M451.46 254.524C450.257 255.28 445.824 257.995 442.971 264.351C442.558 265.279 434.756 273.078 437.918 274.933C445.067 279.125 451.632 268.543 452.423 277.888C452.182 274.796 462.803 279.056 463.25 278.163C463.043 278.575 460.122 270.02 461.531 270.673C463.421 271.532 447.439 260.503 447.68 262.324C447.508 261.018 450.257 255.28 451.495 254.49L451.46 254.524Z" stroke="#B2B2B2" stroke-miterlimit="10"/>
<path d="M4.05653 242.19C6.18752 241.228 7.04679 240.06 6.18752 238.891C5.29388 237.723 2.44111 242.946 4.05653 242.19Z" stroke="#B2B2B2" stroke-miterlimit="10"/>
<path d="M19.0766 233.463C16.6019 232.501 14.0928 236.418 13.7835 236.383C12.6836 236.212 21.4482 234.425 19.0766 233.463Z" stroke="#B2B2B2" stroke-miterlimit="10"/>
<path d="M60.8024 211.955C56.7466 217.074 53.4127 226.866 62.0741 218.174C63.3802 216.868 65.2018 206.423 60.8024 211.955Z" stroke="#B2B2B2" stroke-miterlimit="10"/>
<path d="M7.59585 199.242C5.94606 198.246 4.74308 198.693 4.05566 200.582C5.53361 202.266 7.38963 202.884 9.62372 202.438C15.6042 200.239 7.56148 198.899 7.59585 199.242Z" stroke="#B2B2B2" stroke-miterlimit="10"/>
<path d="M688.996 317.537C688.687 315.338 684.665 318.19 685.524 318.843C687.277 320.148 689.305 319.736 688.996 317.537Z" stroke="#B2B2B2" stroke-miterlimit="10"/>
<path d="M778.738 339.526C778.601 338.083 767.293 339.595 767.533 339.664C766.09 339.389 779.047 343.271 778.738 339.526Z" stroke="#B2B2B2" stroke-miterlimit="10"/>
<path d="M808.606 341.141C809.534 339.835 810.497 338.599 811.528 337.396C811.494 337.259 802.935 339.698 802.488 340.591C800.907 343.546 808.95 343.168 808.606 341.141Z" stroke="#B2B2B2" stroke-miterlimit="10"/>
<path d="M614.687 171.069C627.301 170.382 615.443 151.279 609.428 154.783C608.054 155.573 599.255 160.486 597.674 160.005C597.124 158.734 596.196 158.013 594.855 157.841C586.984 167.118 595.13 155.161 584.338 155.161C582.069 155.161 585.472 158.356 584.888 158.288C582.722 158.047 579.388 157.394 578.873 161.517C578.632 163.304 587.844 162.892 587.534 162.548C587.259 162.273 586.641 165.846 586.916 165.64C586.675 165.812 579.526 165.949 580.144 167.255C580.351 167.702 586.641 167.908 587.775 169.179C589.768 171.481 585.609 174.367 585.163 173.886C592.724 182.166 606.576 171.515 614.687 171.034V171.069Z" stroke="#B2B2B2" stroke-miterlimit="10"/>
<path d="M638.093 252.703C648.576 252.703 651.463 245.145 650.432 237.208C650.088 234.459 655.725 234.013 649.401 230.611C648.679 230.233 641.152 231.882 641.152 232.363C640.946 237.964 641.564 233.016 635.549 236.315C635.378 236.418 635.515 252.738 638.093 252.738V252.703Z" stroke="#B2B2B2" stroke-miterlimit="10"/>
<path d="M670.264 200.273C671.261 199.174 672.429 194.982 670.917 195.429C669.37 195.875 669.817 200.754 670.264 200.273Z" stroke="#B2B2B2" stroke-miterlimit="10"/>
<path d="M650.123 210.409C649.367 209.584 646.274 214.326 647.477 214.291C649.058 214.222 650.879 211.268 650.123 210.409Z" stroke="#B2B2B2" stroke-miterlimit="10"/>
<path d="M649.092 216.215C652.941 212.848 649.332 229.168 649.332 227.072C649.332 224.152 654.385 228.515 653.801 228.618C654.935 227.725 655.691 226.557 656.103 225.183C657.856 225.492 654.935 232.192 654.969 232.604C655.279 235.25 661.706 230.989 662.084 231.642C666.277 238.96 658.716 242.018 658.991 246.863C656.516 247.618 655.072 249.096 654.694 251.329C655.588 252.119 664.524 252.703 664.559 252.738C664.765 253.94 650.673 256.826 654.11 261.465C653.972 261.293 679.476 255.899 680.988 254.353C682.122 253.184 678.376 253.803 678.513 252.703C679.166 247.618 683.153 249.989 680.988 244.423C681.16 244.904 676.898 241.984 676.038 240.575C673.22 235.765 670.402 225.423 663.493 225.939C663.493 225.939 667.927 218.552 667.48 217.383C665.521 212.436 661.878 218.071 659.128 214.772C658.2 213.673 664.799 209.275 662.874 207.454C661.465 206.148 649.435 215.94 649.161 216.181L649.092 216.215Z" stroke="#B2B2B2" stroke-miterlimit="10"/>
<path d="M721.34 232.157C720.583 231.985 731.342 229.237 726.22 225.767C721.855 222.778 720.893 232.054 721.34 232.157Z" stroke="#B2B2B2" stroke-miterlimit="10"/>
<path d="M749.936 213.879C747.702 213.948 746.636 218.758 747.22 219.582C747.702 220.235 752.17 213.844 749.936 213.879Z" stroke="#B2B2B2" stroke-miterlimit="10"/>
<path d="M762.412 212.608C763.993 211.92 765.368 210.924 766.537 209.618C769.424 206.457 757.979 212.848 762.412 212.608Z" stroke="#B2B2B2" stroke-miterlimit="10"/>
<path d="M765.78 206.904C766.262 205.942 762.378 206.354 763.237 207.248C763.89 207.901 765.299 207.901 765.78 206.904Z" stroke="#B2B2B2" stroke-miterlimit="10"/>
<path d="M748.457 38.8246C751.826 41.6763 758.356 38.3779 762.515 40.9548C762.343 40.8517 754.163 43.9783 754.197 44.047C756.191 49.3038 785.475 46.6238 783.447 38.5153C783.206 37.519 764.405 34.9078 765.162 34.6329C763.959 35.9385 763.718 37.3472 764.44 38.8933C762.893 40.0271 755.332 33.8083 753.647 34.0488C753.269 34.1175 751.585 36.4882 751.07 37.5533C750.038 36.7974 749.042 36.0416 748.079 35.217C744.608 35.217 747.942 38.4123 748.423 38.7902L748.457 38.8246Z" stroke="#B2B2B2" stroke-miterlimit="10"/>
<path d="M723.985 46.6583C718.005 45.2839 727.148 55.9349 728.557 56.7595C731.306 58.34 733.541 51.6058 735.568 50.8156C737.871 49.9223 734.709 54.5263 736.634 54.3545C737.974 53.5299 739.384 52.9458 740.862 52.5679C742.58 55.2478 728.282 60.4358 730.275 60.9169C733.884 61.8102 737.768 59.5082 741.48 60.4015C741.343 60.4015 730.585 63.1501 730.516 63.906C730.172 67.4105 736.84 67.2731 738.387 67.8915C738.043 68.7505 737.39 69.3002 736.428 69.5407C735.534 70.7433 741.411 71.3617 742.339 70.812C743.577 70.0905 747.289 62.9783 748.561 61.3292C749.248 60.4015 754.954 46.8301 758.494 52.3961C757.566 50.8843 759.937 64.2839 758.666 64.0091C760.178 64.3183 773.651 66.5859 773.101 60.3328C773.376 63.5624 759.112 49.9223 759.387 50.1284C754.954 46.4865 748.32 45.9024 745.192 45.1122C747.048 45.5588 742.271 39.1682 739.968 38.4123C736.668 37.3129 740.724 50.1971 740.93 49.1664C743.955 35.9386 731.719 46.3147 731.822 46.2803C731.891 46.246 728.557 43.1194 728.11 43.085C729.175 42.5009 730.275 42.0199 731.478 41.7451C730.482 42.2604 708.725 43.1537 723.951 46.6926L723.985 46.6583Z" stroke="#B2B2B2" stroke-miterlimit="10"/>
<path d="M720.343 54.5262C721.202 55.3508 722.164 56.038 723.161 56.6564C721.855 56.7939 720.411 49.8879 717.868 50.6438C717.627 52.4991 718.452 53.8047 720.343 54.5262Z" stroke="#B2B2B2" stroke-miterlimit="10"/>
<path d="M1430 177.253C1428.1 177.184 1426.46 177.734 1425.05 178.937C1425.84 179.899 1437.32 182.579 1437.32 179.967C1435.22 178.181 1432.78 177.288 1430 177.253Z" stroke="#B2B2B2" stroke-miterlimit="10"/>
<path d="M1235.53 298.949C1234.94 294.998 1226.11 311.868 1230.54 309.429C1229.79 309.841 1234.22 306.92 1234.12 307.573C1233.36 306.474 1232.57 305.409 1231.75 304.344C1231.68 305.271 1257.18 305.065 1255.91 294.002C1256.6 299.98 1234.63 290.085 1237.24 288.367C1237.45 288.23 1235.42 298.297 1235.49 298.915L1235.53 298.949Z" stroke="#B2B2B2" stroke-miterlimit="10"/>
<path d="M1188.51 353.338C1189.78 355.881 1190.95 349.799 1191.6 352.823C1191.7 353.27 1189.92 362.374 1192.84 361.722C1195.24 361.206 1199.57 352.514 1195.83 350.933C1195.04 350.59 1185.28 346.913 1188.47 353.304L1188.51 353.338Z" stroke="#B2B2B2" stroke-miterlimit="10"/>
<path d="M1202.53 352.307C1203.39 348.494 1208.65 353.029 1208.65 347.016C1208.65 343.821 1202.29 347.085 1202.08 347.566C1201.26 349.49 1201.67 356.052 1202.53 352.307Z" stroke="#B2B2B2" stroke-miterlimit="10"/>
<path d="M1211.26 339.251C1211.26 339.251 1191.84 340.11 1193.35 346.948C1193.56 347.841 1209.71 345.436 1210.85 345.161C1207.2 345.986 1214.32 347.738 1215.14 347.669C1217.89 347.463 1215.8 343.684 1216.31 343.34C1219.37 341.45 1228.69 345.024 1231.88 340.694C1234.39 337.293 1240.06 313.895 1235.66 311.353C1230.13 308.192 1227.38 325.955 1224.8 329.597C1222.77 332.449 1211.84 333.239 1211.26 339.251Z" stroke="#B2B2B2" stroke-miterlimit="10"/>
<path d="M1110.97 419.477C1111.79 417.794 1112.51 416.076 1113.1 414.324C1112.62 412.537 1102.65 413.877 1104.64 417.725C1104.88 418.172 1110.45 425.971 1110.97 419.477Z" stroke="#B2B2B2" stroke-miterlimit="10"/>
<path d="M1152.31 403.844C1154.24 402.367 1158.78 392.506 1157.26 390.273C1152.14 382.817 1147.95 407.177 1152.31 403.844Z" stroke="#B2B2B2" stroke-miterlimit="10"/>
<path d="M1148.67 430.85C1145.96 439.817 1175 451.843 1168.98 458.749C1178.64 447.651 1157.92 443.15 1155.79 438.099C1153.48 432.637 1163.24 425.799 1155.85 421.47C1150.77 418.481 1148.81 430.472 1148.67 430.884V430.85Z" stroke="#B2B2B2" stroke-miterlimit="10"/>
<path d="M1143.62 458.989C1141.49 461.085 1139.8 463.524 1138.53 466.239C1138.05 465.277 1148.74 458.508 1146.78 454.213C1145.03 455.244 1144 456.825 1143.58 458.989H1143.62Z" stroke="#B2B2B2" stroke-miterlimit="10"/>
<path d="M1150.9 444.009C1151.25 445.83 1152.07 449.575 1154.69 448.647C1157.26 447.754 1150.66 442.703 1150.9 444.009Z" stroke="#B2B2B2" stroke-miterlimit="10"/>
<path d="M1167.54 459.505C1166.61 458.199 1164.24 460.604 1164.58 461.566C1165.07 462.872 1168.47 460.776 1167.54 459.505Z" stroke="#B2B2B2" stroke-miterlimit="10"/>
<path d="M1171.42 461.703C1171.42 461.703 1154.24 472.835 1157.16 472.561C1160.25 472.286 1161.25 468.231 1164.21 470.327C1166.78 472.148 1165.38 479.157 1171.05 479.157C1166.78 479.157 1175.55 470.087 1175.17 471.667C1176.68 465.345 1170.94 460.879 1171.39 461.703H1171.42Z" stroke="#B2B2B2" stroke-miterlimit="10"/>
<path d="M1157.26 450.606C1155.75 452.702 1155.82 454.66 1157.5 456.55C1164.89 454.935 1154.89 462.184 1160.56 463.524C1165.51 464.693 1165.86 448.716 1157.26 450.606Z" stroke="#B2B2B2" stroke-miterlimit="10"/>
<path d="M1276.29 524.888C1276.29 530.007 1263.13 526.812 1262.99 528.358C1262.27 535.779 1283.23 528.599 1278.9 523.204C1277.46 522.758 1276.6 523.308 1276.32 524.888H1276.29Z" stroke="#B2B2B2" stroke-miterlimit="10"/>
<path d="M1281.62 524.373C1285.16 523.342 1278.87 518.875 1278.15 518.703C1279.21 518.944 1280.48 524.716 1281.62 524.373Z" stroke="#B2B2B2" stroke-miterlimit="10"/>
<path d="M1258.97 533.409C1262.16 533.615 1248.83 522.345 1245.73 520.593C1238.86 516.711 1225.56 510.629 1218.68 511.042C1216.69 511.179 1213.91 517.295 1211.47 516.848C1206.59 515.955 1209.37 510.732 1205.9 509.289C1202.91 508.052 1202.91 504.72 1197.48 505.51C1196.58 505.647 1191.46 509.702 1193.25 510.114C1194.25 510.32 1204.63 516.127 1204.7 514.306C1204.7 515.13 1198.3 515.096 1197.75 515.199C1194.9 515.714 1208.58 522.414 1209.4 522.861C1215.45 525.816 1219.82 525.197 1223.32 531.313C1226.66 537.154 1218.41 537.119 1219.85 539.902C1222.43 544.987 1241.47 540.486 1243.5 540.486C1249.07 540.555 1248.96 540.315 1255.94 543.785C1255.77 543.682 1273.02 552.409 1271.17 549.351C1270.41 548.08 1255.5 533.203 1259 533.443L1258.97 533.409Z" stroke="#B2B2B2" stroke-miterlimit="10"/>
<path d="M994.518 460.432C991.974 460.741 991.905 475.618 994.861 476.821C1003.14 480.154 1001.12 459.608 994.518 460.432Z" stroke="#B2B2B2" stroke-miterlimit="10"/>
<path d="M869.237 555.741C869.237 555.741 863.703 565.362 862.741 566.324C860.266 568.832 853.701 570.378 851.708 572.646C846.277 578.933 849.955 581.716 848.993 590.958C848.305 597.452 840.64 623.805 858.273 615.25C868.446 610.302 866.35 581.304 870.131 571.787C870.612 570.55 873.361 574.604 873.293 569.313C873.224 564.331 870.371 560.277 869.237 555.707V555.741Z" stroke="#B2B2B2" stroke-miterlimit="10"/>
<path d="M886.559 447.857C887.866 449.369 890.478 447.617 890.615 446.998C890.753 446.414 885.081 446.174 886.559 447.857Z" stroke="#B2B2B2" stroke-miterlimit="10"/>
<path d="M1308.67 545.331C1309.01 547.255 1311.66 548.423 1312.72 547.77C1313.79 547.083 1308.29 543.338 1308.67 545.331Z" stroke="#B2B2B2" stroke-miterlimit="10"/>
<path d="M1296.09 533.409C1295.98 533.89 1298.84 536.913 1299.46 536.398C1300.07 535.917 1296.26 532.515 1296.09 533.409Z" stroke="#B2B2B2" stroke-miterlimit="10"/>
<path d="M1309.35 541.139C1310.32 540.452 1303.89 536.604 1303.79 537.841C1303.68 539.009 1308.39 541.826 1309.35 541.139Z" stroke="#B2B2B2" stroke-miterlimit="10"/>
<path d="M1288.56 527.98C1288.32 529.148 1292.1 535.298 1293.51 534.302C1296.09 532.481 1288.8 526.812 1288.56 527.98Z" stroke="#B2B2B2" stroke-miterlimit="10"/>
<path d="M1312.79 540.967C1311.9 543.098 1315.44 546.774 1315.99 546.877C1316.5 546.98 1313.48 539.318 1312.79 540.967Z" stroke="#B2B2B2" stroke-miterlimit="10"/>
<path d="M1315.88 549.591C1316.06 550.072 1318.36 552.409 1319.49 551.515C1320.63 550.656 1315.58 548.732 1315.88 549.591Z" stroke="#B2B2B2" stroke-miterlimit="10"/>
<path d="M1189.61 555.776C1190.5 556.566 1194.9 555.57 1194.73 554.436C1194.56 553.268 1188.27 554.608 1189.61 555.776Z" stroke="#B2B2B2" stroke-miterlimit="10"/>
<path d="M1283.27 630.298C1283.27 630.298 1281.14 617.517 1282.24 618.033C1274.71 614.494 1263.74 598.827 1258.31 590.546C1254.22 584.259 1252.99 577.628 1249.69 569.863C1247.97 565.843 1244.5 568.866 1243.29 566.221C1241.54 562.373 1243.22 554.333 1239.51 550.828C1236.66 548.148 1235.11 570.034 1235.08 570.103C1231.09 581.476 1233.46 581.682 1223.22 578.04C1220.26 577.009 1211.43 572.44 1210.64 568.557C1209.99 565.293 1217.69 559.761 1216.69 557.7C1217.45 559.246 1198.13 552.203 1197.72 552.374C1197.24 553.646 1197.72 554.608 1199.23 555.295C1193.9 549.076 1185.17 571.271 1187.78 570.928C1189.06 570.756 1179.91 569.485 1182.42 570.928C1175.86 567.114 1176.89 563.335 1169.05 568.969C1163.97 572.646 1165.75 577.559 1162.73 580.857C1161.94 581.716 1161.39 576.391 1160.18 577.215C1155.99 580.067 1159.26 583.709 1155.41 586.836C1150.7 590.684 1148.33 590.924 1143.14 593.501C1136.37 596.868 1131.52 597.864 1125.61 603.43C1125.02 602.64 1124.89 601.713 1125.16 600.716C1125.16 602.125 1123.48 606.523 1123.3 608.859C1123.1 611.333 1125.54 620.232 1124.89 621.64C1123.82 621.194 1123.03 620.438 1122.51 619.407C1123 620.403 1123.37 621.434 1123.65 622.499C1122.69 621.743 1121.76 620.953 1120.83 620.163C1119.7 622.98 1128.22 637.926 1129.01 641.259C1129.42 643.011 1129.35 659.159 1128.6 657.647C1134.03 668.78 1141.9 661.186 1150.9 658.541C1158.26 656.376 1163.04 654.796 1170.15 652.15C1175.65 650.089 1187.34 645.966 1193.32 646.928C1197.03 647.512 1215.45 661.942 1211.23 663.832C1212.5 663.248 1220.06 653.868 1220.54 654.28C1222.91 656.514 1216.69 662.458 1216.38 663.866C1215.25 669.261 1222.6 659.606 1220.64 661.186C1223.29 659.056 1222.05 667.783 1221.78 667.062C1221.5 666.34 1230.51 678.572 1231.33 679.293C1236.42 683.622 1248.96 679.602 1248.86 679.534C1249.07 680.53 1249.07 681.492 1248.86 682.488C1247.73 681.08 1253.05 684.275 1254.33 685.477C1251.75 683.004 1269.14 677.575 1268.62 678.125C1271.31 675.136 1272.82 661.324 1274.91 656.823C1276.5 653.421 1281.75 631.535 1283.3 630.264L1283.27 630.298Z" stroke="#B2B2B2" stroke-miterlimit="10"/>
<path d="M1214.59 669.123C1215.56 670.085 1218.82 669.81 1219.37 668.436C1219.89 667.096 1213.73 668.264 1214.59 669.123Z" stroke="#B2B2B2" stroke-miterlimit="10"/>
<path d="M1254.57 696.06C1252.23 695.579 1249.96 694.892 1247.76 693.93C1248.96 693.552 1248 712.208 1257.94 706.986C1262.99 704.306 1264.91 694.823 1254.57 696.06Z" stroke="#B2B2B2" stroke-miterlimit="10"/>
<path d="M1340.12 728.631C1340.73 728.837 1342.76 728.253 1341.63 726.707C1340.49 725.161 1338.67 728.184 1340.12 728.631Z" stroke="#B2B2B2" stroke-miterlimit="10"/>
<path d="M1380.05 679.602C1377.68 683.931 1372.49 673.074 1372.01 673.109C1371.5 673.864 1371.5 674.689 1371.91 675.514C1372.32 674.895 1364.07 663.694 1362.35 663.694C1362.15 663.694 1368.27 675.788 1368.82 677.3C1370.67 682.66 1364.62 682.454 1364.83 685.374C1364.83 685.134 1369.19 697.984 1368.99 697.571C1374.14 707.054 1384.9 670.635 1380.02 679.568L1380.05 679.602Z" stroke="#B2B2B2" stroke-miterlimit="10"/>
<path d="M1365.65 695.201C1360.7 691.318 1330.84 717.98 1339.84 724.061C1349.12 730.315 1369.98 698.568 1365.65 695.201Z" stroke="#B2B2B2" stroke-miterlimit="10"/>
<path d="M1385.28 579.414C1386.24 579.792 1389.44 578.624 1389.44 577.009C1389.44 575.394 1383.8 578.83 1385.28 579.414Z" stroke="#B2B2B2" stroke-miterlimit="10"/>
<path d="M1379.81 584.568C1381.33 586.114 1384.32 586.011 1384.42 583.228C1384.52 580.411 1378.47 583.228 1379.81 584.568Z" stroke="#B2B2B2" stroke-miterlimit="10"/>
<path d="M867.484 34.7703C865.937 35.1139 864.7 35.9041 863.703 37.1067C865.353 40.7486 880.648 33.4647 880.717 32.434C880.957 27.6582 868.378 33.396 867.484 34.8047V34.7703Z" stroke="#B2B2B2" stroke-miterlimit="10"/>
<path d="M889.515 36.8662C889.515 34.8047 883.397 37.0723 884.565 37.519C885.631 37.8969 889.515 38.9277 889.515 36.8662Z" stroke="#B2B2B2" stroke-miterlimit="10"/>
<path d="M861.813 33.7396C863.978 32.7776 866.212 32.2965 868.515 32.3309C869.306 30.2007 854.87 32.3309 855.317 33.4991C857.207 35.5262 859.373 35.5949 861.813 33.7739V33.7396Z" stroke="#B2B2B2" stroke-miterlimit="10"/>
<path d="M867.827 136.951C871.264 140.421 873.361 135.371 875.148 134.649C877.588 133.653 861.503 130.526 867.827 136.951Z" stroke="#B2B2B2" stroke-miterlimit="10"/>
<path d="M893.158 97.9548C892.436 97.9204 879.857 112.213 879.719 112.935C879.651 113.313 886.525 118.982 886.078 119.291C885.494 118.054 885.7 117.161 886.765 116.611C886.112 116.439 903.813 131.385 904.569 122.864C904.776 120.597 896.802 115.684 896.458 112.523C896.08 108.949 899.586 106.029 900.926 103.108C902.232 100.188 906.907 94.4159 908.934 92.5262C914.193 87.6817 952.207 71.7396 950.523 70.2965C946.502 66.8264 912.578 77.924 907.044 81.3598C903.951 83.2839 893.227 97.9548 893.124 97.9548H893.158Z" stroke="#B2B2B2" stroke-miterlimit="10"/>
<path d="M1265.22 89.812C1268.87 90.6366 1272.06 89.9494 1274.78 87.7505C1275.6 78.8174 1236.32 87.7505 1265.22 89.812Z" stroke="#B2B2B2" stroke-miterlimit="10"/>
<path d="M1235.04 94.3473C1235.04 92.4232 1228.62 95.0688 1231.26 96.0308C1232.67 96.5462 1235.04 96.2713 1235.04 94.3473Z" stroke="#B2B2B2" stroke-miterlimit="10"/>
<path d="M1067.83 59.7143C1070.2 61.1917 1091.38 57.6528 1092.1 53.5298C1092.82 49.3382 1079.83 48.17 1080.24 51.3996C1077.9 32.8119 1070.89 61.6383 1067.83 59.7143Z" stroke="#B2B2B2" stroke-miterlimit="10"/>
<path d="M1049.55 41.5046C1048.34 42.604 1047.45 43.9096 1046.83 45.387C1052.78 51.0561 1067.21 55.454 1068.45 45.4558C1069.51 36.8319 1049.55 39.237 1049.55 41.5046Z" stroke="#B2B2B2" stroke-miterlimit="10"/>
<path d="M1043.32 37.8969C1047.17 39.6835 1039.96 39.8553 1039.51 40.0958C1037.45 41.1265 1047.17 40.5768 1048.93 39.8553C1050.27 39.3056 1063.53 35.3544 1061.2 32.4339C1051.64 20.5804 1041.5 37.0379 1043.36 37.8969H1043.32Z" stroke="#B2B2B2" stroke-miterlimit="10"/>
<path d="M1118.73 92.0108C1116.02 97.9891 1123.51 93.7631 1123.58 92.8011C1122.24 90.9801 1120.62 90.7396 1118.73 92.0108Z" stroke="#B2B2B2" stroke-miterlimit="10"/>
<path d="M892.23 32.0561C894.155 34.1519 905.635 34.3925 906.151 30.6474C906.323 29.3762 896.596 27.6583 895.977 27.7613C897.661 27.4865 893.262 33.1899 892.23 32.0561Z" stroke="#B2B2B2" stroke-miterlimit="10"/>
<path d="M1040.27 28.7234C1040.75 26.7993 1032.91 27.6239 1034.97 29.5136C1035.69 30.1664 1039.82 30.6818 1040.27 28.7234Z" stroke="#B2B2B2" stroke-miterlimit="10"/>
<path d="M1392.74 122.246C1393.25 122.658 1403.67 121.937 1401.6 119.497C1396.72 113.691 1386.28 121.971 1387.07 122.383C1388.96 122.28 1390.85 122.246 1392.74 122.246Z" stroke="#B2B2B2" stroke-miterlimit="10"/>
<path d="M1219.85 86.3074C1223.84 88.5064 1227.93 89.812 1232.71 88.8843C1235.77 88.3002 1244.02 83.5244 1240.89 82.3906C1242.37 82.906 1246.66 92.7668 1249.21 85.1736C1251.3 78.8174 1245.32 80.3291 1239.89 78.5769C1239.41 78.4395 1229.75 78.1989 1229.68 78.1989C1231.19 77.8897 1210.78 81.3599 1219.85 86.3418V86.3074Z" stroke="#B2B2B2" stroke-miterlimit="10"/>
<path d="M1244.5 102.868C1250.75 101.356 1228.31 93.8661 1232.71 100.806C1234.12 103.04 1242.4 103.383 1244.5 102.868Z" stroke="#B2B2B2" stroke-miterlimit="10"/>
<path d="M785.578 196.253C778.772 198.109 766.983 202.678 760.831 196.494C759.284 194.948 758.081 182.338 759.765 179.143C760.453 177.837 787.812 151.966 765.608 159.284C760.831 160.864 756.672 171.241 754.129 174.814C750.967 179.212 746.155 179.83 744.642 185.98C741.996 196.734 750.176 193.264 750.245 200.582C750.279 206.148 741.549 211.955 740.724 219.307C741.618 220.063 742.339 219.72 742.889 218.277C741.515 218.655 732.922 231.195 728.797 229.649C727.972 229.34 719.174 202.025 718.074 202.713C716.218 203.812 714.499 208.966 711.268 209.687C713.64 209.172 693.396 214.6 698.036 207.557C698.379 207.007 701.163 205.702 700.682 204.465C699.995 202.644 696.317 206.251 696.317 204.534C696.317 204.19 696.833 200.514 697.004 200.376C696.695 200.617 703.535 202.85 702.16 198.143C701.713 196.562 695.733 199.62 697.211 190.447C697.039 191.615 703.707 176.429 706.353 182.235C705.357 181.96 704.669 181.376 704.222 180.483C706.697 176.772 709.103 180.62 709.584 175.673C709.825 173.268 712.574 177.081 712.884 176.841C716.974 173.474 717.043 171.584 721.958 169.66C723.401 169.076 719.139 166.224 719.861 165.915C728.522 162.136 731.272 146.915 740.518 143.17C740.552 143.136 741.068 139.769 741.068 139.769C737.803 136.711 730.757 144.579 727.698 144.407C728.591 144.441 739.555 133.859 739.555 133.893C739.212 135.096 738.902 136.298 738.627 137.501C738.352 137.26 745.33 137.295 745.33 137.192C745.948 133.893 742.03 135.405 741.927 134.718C741.755 133.756 750.004 127.64 750.314 127.503C754.369 125.751 753.751 128.877 756.706 130.801C758.322 131.832 756.844 126.3 756.638 126.438C756.397 126.609 762 128.705 761.896 128.259C760.934 127.743 760.178 127.022 759.662 126.06C761.175 125.854 762.687 125.922 764.165 126.232C763.924 125.098 763.374 124.101 762.515 123.242C762.412 121.799 768.427 121.971 768.221 121.112C767.739 119.291 762.928 129.049 766.743 127.881C763.856 128.774 773.754 121.456 771.761 123.139C771.726 123.139 778.051 116.096 778.635 119.772C778.669 119.944 772.586 127.022 774.648 126.609C776.538 124.548 778.463 122.487 780.354 120.459C781.35 119.807 780.388 124.651 780.972 124.651C782.553 124.651 784.994 114.447 787.881 119.944C788.018 120.15 785.853 124.479 787.262 124.514C785.509 124.445 799.704 117.23 798.226 125.338C798.054 126.266 791.112 128.156 790.871 127.194C792.177 132.21 796.611 127.64 798.467 129.667C799.223 130.423 805.994 127.159 806.372 130.389C805.479 131.007 804.482 131.351 803.416 131.42C805.754 128.499 833.388 140.181 836 144.854C849.576 169.179 805.169 148.049 802.11 149.561C806.475 147.396 817.165 170.931 819.124 172.477C827.029 178.731 825.551 166.327 821.014 168.87C819.089 166.808 819.502 165.159 822.251 163.888C823.764 164.884 825.276 165.846 826.788 166.843C827.957 165.915 835.381 170.45 835.69 168.183C837.546 154.817 837.581 162.892 846.93 155.402C847.445 154.989 856.828 155.573 848.717 149.732C851.982 152.069 847.755 138.429 847.926 139.15C847.308 136.539 864.562 140.971 861.159 145.06C860.231 146.159 849.404 146.194 856.45 150.935C863.909 155.986 863.05 148.392 867.14 146.606C870.096 145.335 891.234 138.463 891.096 136.848C891.337 139.356 889.171 140.318 887.865 141.383C886.628 142.414 902.851 139.7 902.713 139.7C912.784 138.772 908.247 139.185 912.612 140.971C923.748 145.472 912.234 124.479 910.206 125.647C917.837 121.25 942.962 143.307 949.148 142.242C957.982 140.799 942.721 130.939 942.79 131.076C943.408 132.656 943.924 119.772 943.718 122.487C944.439 112.694 958.428 96.8897 966.815 110.736C966.712 110.564 965.921 127.915 966.231 129.564C967.33 135.302 969.839 139.322 968.327 144.338C965.956 152.309 951.76 154.13 951.898 153.718C950.936 156.467 961.59 157.051 962.759 156.776C967.09 155.779 971.352 150.042 974.445 146.09C977.126 142.723 970.355 138.669 977.47 137.432C982.488 136.573 981.251 139.837 985.031 141.452C979.463 139.081 992.215 153.89 990.324 147.774C986.784 136.058 976.232 140.112 970.561 132.416C968.43 129.53 971.421 104.174 976.782 105.96C982.007 107.747 975.304 115.787 977.779 118.57C977.917 118.741 990.428 121.284 990.359 121.353C991.287 120.253 979.566 116.302 980.838 113.794C982.419 110.667 985.856 113.931 988.125 113.313C989.259 112.969 984.103 109.396 984.481 109.018C988.846 104.723 1003.66 117.642 1005.93 114.481C1011.6 106.647 982.075 104.655 1011.7 98.4015C1013.8 97.9548 1021.22 98.6077 1022.5 97.4395C1024.66 95.4811 1019.85 92.7668 1019.92 92.6637C1020.91 92.6637 1021.91 92.595 1022.91 92.4576C1022.84 92.0796 1018.54 90.0525 1018.96 89.6058C1020.09 89.7089 1021.22 89.812 1022.36 89.812C1024.28 87.2008 1021.98 87.4069 1026.48 85.3111C1027.86 84.6926 1046.93 78.1646 1047.1 79.6077C1046.07 79.2984 1045.28 78.7143 1044.7 77.7867C1044.8 77.6149 1057.11 74.8662 1057.55 75.3473C1057.14 76.1375 1056.76 76.9621 1056.42 77.7867C1056.97 77.9928 1068.48 75.4503 1068.07 76.8247C1067.14 76.1718 1066.28 75.4503 1065.49 74.6257C1065.84 80.604 1075.46 67.8572 1073.43 69.3346C1077.39 66.4485 1088.28 57.3436 1092.96 64.4901C1094.36 66.6547 1088.11 67.7198 1087.22 68.0633C1088.52 67.548 1098.87 70.3653 1098.87 69.5407C1097.73 70.7776 1096.77 72.1176 1095.98 73.595C1103.27 75.4503 1109.49 69.2315 1117.74 73.1483C1124.2 76.2062 1122.27 78.8518 1122.96 81.944C1125.37 92.3201 1096.15 95.0001 1092.27 104.964C1092.65 103.968 1110.69 101.081 1110.48 99.1917C1109.66 98.9856 1108.87 98.7451 1108.08 98.4702C1106.81 96.9585 1121.04 96.718 1122.07 96.8898C1124.2 97.2677 1122.51 102.49 1123.92 102.353C1129.39 101.837 1136.23 97.7487 1144.96 100.016C1146.09 100.326 1143.48 101.631 1143.79 102.696C1144.37 104.655 1161.25 105.376 1163 105.067C1164.17 104.861 1164.86 97.8518 1168.16 97.1646C1172.66 96.2026 1193.7 108.709 1187.68 112.248C1186.17 112.317 1184.76 112.042 1183.42 111.389C1185.83 111.217 1189.43 122.521 1194.18 122.796C1197.37 123.002 1199.37 113.794 1201.19 114.206C1202.63 114.515 1223.7 118.432 1223.7 118.535C1222.84 118.192 1222.09 117.676 1221.43 117.024C1222.7 116.062 1230.34 117.47 1230.3 116.955C1230.51 119.738 1228 110.496 1230.13 111.664C1229.06 112.145 1228 112.145 1226.93 111.595C1223.63 107.025 1257.04 103.109 1255.91 109.774C1255.74 110.805 1248.31 108.743 1249.65 110.942C1251.2 111.251 1252.68 111.732 1254.12 112.42C1253.12 113.21 1252.09 113.897 1250.99 114.55C1251.16 113.931 1266.63 106.647 1270.45 113.004C1272.16 115.855 1265.67 113.794 1266.25 115.512C1268.21 121.387 1287.63 121.112 1291.58 121.421C1304.58 122.452 1303.58 123.517 1310.52 129.427C1310.49 129.392 1318.39 136.23 1316.67 137.054C1318.63 136.092 1316.09 131.832 1320.9 132.279C1322.62 132.45 1329.94 133.447 1332 133.137C1334.24 132.794 1349.57 128.705 1349.19 131.626C1348.74 135.233 1346.03 131.66 1344.65 132.279C1342.9 133.103 1350.6 139.906 1352.21 138.91C1355.72 136.745 1353.18 131.11 1352.8 131.282C1357.09 129.289 1369.23 129.015 1376.31 130.561C1389.09 133.309 1411.85 145.506 1415.25 156.638C1415.87 158.7 1414.29 147.637 1414.01 151.863C1414.25 148.083 1432.54 159.043 1432.4 158.975C1434.5 159.799 1425.25 162.96 1426.59 162.136C1426.25 162.342 1428.86 163.888 1427.73 163.888C1426.25 163.544 1424.74 163.201 1423.26 162.857L1423.5 162.96C1424.26 163.544 1420.61 169.248 1420.51 169.42C1421.33 170.072 1421.92 170.863 1422.26 171.825C1417.86 176.085 1394.7 159.421 1397.51 157.875C1392.53 160.59 1396.38 163.441 1393.56 165.09C1391.6 166.224 1378.13 171.515 1377.3 168.767C1379.47 175.879 1395.04 175.295 1385.04 184.846C1383.8 186.049 1368.4 190 1364.9 192.027C1360.98 194.295 1356.13 200.685 1352.83 201.579C1353.49 201.407 1334.58 195.326 1336.23 201.957C1336.61 200.514 1336.33 199.242 1335.41 198.143C1334.44 198.143 1325.85 202.919 1324.82 204.156C1317.88 212.47 1322.79 211.646 1324.3 216.147C1323.62 214.119 1321.69 228.069 1324.2 225.595C1324 225.836 1297.29 256.723 1298.05 257.582C1293.1 252.154 1292.48 231.917 1294.54 225.458C1297.77 215.322 1301.41 216.215 1308.84 209.79C1314.54 204.877 1331.32 190.893 1331.94 184.881C1332.35 180.758 1312.41 198.28 1311.66 196.562C1311.83 196.94 1311.52 188.385 1312.41 189.004C1305.3 184.125 1285.88 199.174 1291.58 205.599C1292.41 206.492 1274.33 209 1275.88 207.729C1276.87 207.591 1277.84 207.282 1278.76 206.801C1279.66 205.289 1253.29 204.671 1250.34 205.083C1238.45 206.767 1234.01 212.986 1225.28 221.128C1222.53 223.671 1212.08 230.611 1211.5 234.185C1211.88 231.814 1221.81 239.166 1218.1 240.025C1217.86 240.094 1221.36 236.487 1221.23 237.002C1221.12 237.345 1220.54 242.156 1221.23 242.121C1227.14 241.743 1228.31 232.707 1234.53 242.568C1237.73 247.618 1233.98 254.696 1232.54 260.537C1229.75 271.807 1226.11 279.297 1218.61 288.745C1215.38 292.799 1211.09 299.396 1206.04 301.526C1200.64 303.828 1199.95 298.159 1195.04 302.076C1191.84 304.584 1186.31 311.868 1184.9 315.338C1181.01 324.89 1182.15 314.479 1183.69 325.062C1184.42 330.078 1191.5 334.785 1187.96 340.385C1187.61 340.901 1176.58 346.467 1175.72 345.127C1173.66 341.863 1177.82 334.716 1177.16 332.552C1176.3 329.803 1171.63 328.91 1171.6 328.807C1172.56 330.731 1166.13 319.702 1170.87 322.76C1160.6 316.163 1167.44 324.546 1154.69 323.79C1153.76 323.722 1158.33 313.792 1157.92 313.449C1156.16 311.937 1140.11 322.931 1139.97 324.374C1139.94 324.581 1147.4 331.555 1148.19 331.968C1143.24 329.562 1165.92 327.845 1159.67 332.689C1155.65 335.781 1147.74 335.884 1146.78 342.55C1146.71 343.031 1157.5 357.702 1156.89 358.389C1157.92 357.221 1151.25 357.736 1151.11 357.736C1159.15 357.736 1154.75 367.528 1152.83 366.154C1153.79 366.875 1157.13 366.532 1158.23 366.875C1157.06 366.532 1147.3 388.177 1145.16 390.788C1141.76 394.98 1108.49 411.506 1109.21 412.262C1105.5 408.414 1108.42 404.291 1100.04 407.555C1087.97 412.262 1094.91 422.054 1098.45 428.823C1105.54 442.326 1110.21 445.383 1097.9 457.1C1097.49 457.512 1089.38 465.277 1088.66 464.796C1089.11 465.105 1083.26 454.969 1082.75 454.385C1081.34 452.805 1073.64 442.669 1070.24 443.837C1058.72 447.754 1071.51 469.297 1074.5 473.248C1076.87 476.34 1091 494.928 1085.81 497.573C1078.62 501.25 1063.84 470.774 1062.71 466.445C1060.75 458.955 1062.95 449.06 1060.96 440.608C1054.84 414.908 1056.87 438.752 1047.96 431.331C1043.7 427.792 1044.77 405.459 1036.69 401.027C1033.12 399.069 1018.16 412.778 1015.9 415.045C1003.32 427.517 997.783 430.713 994.655 447.308C983.416 506.781 967.365 405.425 964.134 403.776C967.674 405.562 947.258 417.45 950.214 402.986C952.276 402.883 954.132 402.195 955.747 400.924C955.747 404.6 941.93 391.476 942.79 391.888C937.222 389.174 935.675 389.242 928.285 389.036C921.342 388.83 914.159 389.895 907.25 387.696C904.81 386.906 902.542 383.367 901.888 383.195C900.376 382.749 894.499 383.092 893.296 382.543C887.521 379.966 870.749 364.47 867.93 365.982C863.256 368.524 872.158 387.112 875.732 389.792C875.801 389.826 877.004 384.948 878.688 385.463C882.332 386.562 876.179 394.224 882.332 394.774C889.927 395.461 894.739 383.883 898.589 384.226C896.664 384.02 911.822 401.921 912.131 403.982C912.475 406.25 902.61 417.897 901.717 418.825C893.433 427.483 879.238 434.595 866.968 439.955C860.128 442.91 850.401 447.857 845.864 442.91C842.496 439.268 842.977 428.514 840.743 423.669C835.897 413.156 829.538 404.257 824.657 394.156C822.904 390.548 814.518 371.651 811.803 370.002C811.356 372.201 810.565 374.262 809.397 376.186C806.613 376.186 803.76 364.436 802.729 364.814C803.348 364.573 821.22 413.602 822.458 417.107C825.345 425.25 832.253 431.262 837.203 437.275C840.399 441.157 845.967 452.358 845.624 452.152M785.578 196.253C786.128 195.326 786.815 194.329 787.468 193.608C786.781 194.329 786.128 195.326 785.578 196.253ZM785.578 196.253C786.678 195.944 792.246 198.074 793.243 199.277C794.72 201.029 774.201 203.262 775.095 202.85C761.896 209.172 774.648 208.931 771.314 212.711C767.361 218.998 766.571 214.222 764.921 215.562C764.371 216.009 754.61 216.765 758.219 224.049C761.759 231.986 754.747 233.91 750.348 235.524C750.726 235.387 738.868 236.658 736.015 237.036C729.829 237.826 733.094 238.685 730.103 234.356C728.832 232.535 721.58 239.338 720.239 238.342C719.964 237.345 719.93 236.383 720.205 235.387C718.521 234.906 713.262 235.25 713.846 230.852C713.949 230.027 718.383 233.257 718.727 231.23C719.414 227.45 716.561 229.958 715.496 228.275C714.98 227.45 720.377 218.311 717.558 215.219C715.668 213.123 712.506 220.235 712.506 220.269C710.512 222.297 708.519 218.655 708.209 227.107C708.106 229.855 713.434 236.005 712.093 238.651C711.096 240.678 699.72 242.774 697.623 244.148C694.77 245.969 691.024 250.745 687.003 254.799C685.318 256.517 681.366 261.259 679.75 261.98C676.52 263.458 669.852 262.599 668.786 263.183C666.449 264.488 670.951 268.062 668.855 269.848C666.724 271.669 660.537 266.103 659.059 268.817C655.141 276.101 661.018 270.57 664.455 276.101C669.199 283.694 676.554 292.731 665.555 298.331C660.434 300.942 647.889 294.174 643.73 296.441C635.893 300.702 642.011 300.324 640.327 307.608C636.89 322.45 637.268 328.635 649.435 332.586C657.959 335.369 666.964 333.617 674.079 324.1C679.716 316.541 683.084 303.45 691.677 298.09C689.718 299.293 709.619 295.857 708.003 295.754C716.527 296.201 711.2 294.964 718.486 300.633C718.246 300.461 746.636 326.436 738.559 326.436C743.096 326.436 741.515 314.96 742.03 314.685C744.024 314.411 745.708 314.995 747.117 316.403C744.127 315.476 715.874 285.344 729.622 285.962C731.513 286.031 746.292 302.729 751.001 305.409M751.001 305.409C751.07 305.031 751.173 304.653 751.31 304.309M751.001 305.409C746.395 302.694 763.34 331.246 763.34 324.615C763.34 318.74 755.675 339.183 765.712 333.651C765.712 332.139 765.505 330.696 764.99 329.253C765.918 329.459 766.846 329.425 767.774 329.116C769.217 327.329 764.749 327.57 765.643 326.608C766.708 325.474 771.348 328.36 770.695 324.546C769.87 319.908 767.361 324.649 765.677 322.691C766.227 323.309 764.955 313.449 764.131 313.792C765.712 314.273 767.327 314.582 768.977 314.72C771.623 313.517 785.818 313.655 789.256 310.185C788.362 311.078 783.584 302.591 783.894 300.942C784.341 298.606 789.634 291.734 790.699 290.223C792.315 287.921 793.071 282.629 796.473 281.049C798.604 280.053 808.091 280.43 808.606 283.317C806.991 284.656 805.238 285.722 803.313 286.546C803.141 285.55 807.61 292.043 807.506 291.906C807.266 291.597 819.708 288.676 819.88 288.436C820.602 287.199 808.744 287.886 814.449 281.805C815.79 280.396 829.091 275.414 830.019 277.441C830.226 277.922 820.67 286.924 821.014 288.47C822.286 294.449 840.537 297.678 839.952 304.206C839.128 313.002 828.644 309.91 822.492 309.807C819.88 309.772 817.783 306.852 815.24 306.68C806.819 306.165 801.904 308.089 793.964 310.322C783.791 313.174 772.483 318.43 784.306 330.456C789.84 336.09 795.236 333.754 801.526 333.823C803.554 333.823 816.133 331.109 817.818 332.208C819.708 333.411 814.174 348.15 813.487 349.731M813.487 349.731C814.174 350.04 814.862 350.383 815.584 350.693H815.515C815.48 351.105 815.412 351.517 815.377 351.964C815.412 351.517 815.48 351.105 815.515 350.658L813.487 349.731ZM813.487 349.731C807.335 364.402 795.374 361.378 779.907 358.492C775.782 357.736 772.517 355.743 768.427 355.194C761.793 354.3 765.23 348.872 756.466 353.476C753.579 354.987 754.404 360.863 754.094 361C748.87 363.096 726.357 355.434 720.583 349.456C714.671 343.34 724.604 338.427 720.205 332.208C717.524 328.429 699.239 331.796 694.014 332.38C686.556 333.204 681.916 335.403 675.213 337.293C668.82 339.114 663.63 338.564 657.65 340.145C652.597 341.485 654.66 339.355 650.192 341.725C654.9 339.251 640.121 352.72 641.908 349.834C639.674 353.407 637.921 357.392 635.825 361C634.209 363.817 634.622 367.494 631.941 371.548C630.188 374.194 626.648 374.537 624.654 376.633C619.533 382.062 614.515 390.204 611.696 397.42C608.259 406.147 610.287 407.521 610.012 415.148C609.737 422.226 607.503 429.751 607.744 436.794C607.984 444.49 611.49 447.548 615.202 453.595C623.657 467.304 633.659 479.982 649.813 481.562C658.578 482.421 667.068 480.119 675.145 478.024C676.21 477.749 687.037 471.667 688.171 473.145C688.79 473.832 696.386 477.611 697.348 478.092C698.757 478.779 698.207 482.215 700.063 483.074C701.644 483.796 703.982 481.116 705.494 482.078C714.087 487.506 710.753 482.799 715.152 492.694C715.977 494.859 713.468 501.868 713.502 502.968C713.674 511.866 717.043 513.172 722.233 522.208C726.495 529.629 731.925 544.197 730.791 552.649C729.554 561.754 722.886 569.622 722.473 579.552C721.82 586.251 731.341 601.987 732.819 608.962C735.465 621.468 739.315 629.096 743.508 640.984C749.179 657.098 744.333 660.602 762.412 658.369C779.838 656.239 789.737 650.776 798.845 633.459C799.979 631.295 802.316 619.166 802.076 619.544C808.194 610.543 812.009 615.421 813.728 603.705C814.931 595.356 809.74 595.391 814.243 587.42C817.886 580.995 827.82 579.998 831.703 574.226C839.712 562.201 831.428 548.939 829.126 536.741C826.685 523.72 833.319 514.34 842.255 504.651C845.967 500.631 890.099 454.145 876.385 449.06C866.899 445.555 856.416 459.058 845.624 452.152M845.624 452.152C845.624 452.152 845.589 452.221 845.555 452.221C845.555 452.221 845.589 452.152 845.624 452.152Z" stroke="#B2B2B2" stroke-miterlimit="10"/>
<path d="M924.883 32.7088C928.491 27.6582 909.175 30.4412 913.575 34.255C915.637 36.0416 923.233 35.0452 924.883 32.7088Z" stroke="#B2B2B2" stroke-miterlimit="10"/>
<path d="M904.707 35.1827C902.92 35.9386 901.098 36.6257 899.242 37.2098C896.836 39.9241 911.41 39.4774 912.372 36.3509C912.956 34.4612 904.535 34.6673 904.707 35.1827Z" stroke="#B2B2B2" stroke-miterlimit="10"/>
<path d="M904.123 28.2079C905.085 28.2079 911.615 25.5967 911.409 25.3562C909.897 23.2603 899.139 27.349 898.933 26.6618C900.376 27.933 902.095 28.4484 904.123 28.2079Z" stroke="#B2B2B2" stroke-miterlimit="10"/>
<path d="M1239.07 255.555C1241.57 261.74 1234.12 279.64 1238 284.622C1235.35 281.221 1243.95 285 1244.02 285C1243.98 285 1240.58 274.727 1240.78 274.28C1243.91 267.306 1247.04 270.57 1248.07 269.195C1249.96 266.653 1238.93 238.582 1240.48 237.586C1236.14 240.438 1237.76 252.291 1239.07 255.555Z" stroke="#B2B2B2" stroke-miterlimit="10"/>
<path d="M956.229 103.899C958.463 104.071 960.491 103.555 962.347 102.353C964.925 97.4395 950.936 103.005 956.229 103.899Z" stroke="#B2B2B2" stroke-miterlimit="10"/>
<path d="M993.693 104.414C993.453 102.353 989.122 105.033 990.634 105.823C992.525 106.853 993.934 106.476 993.693 104.414Z" stroke="#B2B2B2" stroke-miterlimit="10"/>
<path d="M933.476 32.0561C934.679 31.4376 935.847 30.8192 937.05 30.1664C938.219 26.2152 926.43 31.094 926.877 31.6438C929.008 32.6058 931.207 32.7089 933.476 32.0217V32.0561Z" stroke="#B2B2B2" stroke-miterlimit="10"/>
<path d="M1326.4 595.047C1326.64 596.593 1336.54 604.873 1337.95 603.843C1339.36 602.812 1326.16 593.432 1326.4 595.047Z" stroke="#B2B2B2" stroke-miterlimit="10"/>
<path d="M361.959 389.723C359.725 385.566 362.44 398.004 363.471 395.702C363.471 395.702 361.409 388.658 361.959 389.723Z" stroke="#B2B2B2" stroke-miterlimit="10"/>
<path d="M427.16 458.233C430.116 458.852 431.044 457.89 429.978 455.279C427.916 453.354 426.163 457.237 427.16 458.233Z" stroke="#B2B2B2" stroke-miterlimit="10"/>
<path d="M1101.89 515.955C1101.89 514.787 1098.87 515.371 1099.76 516.986C1100.69 518.669 1101.89 517.123 1101.89 515.955Z" stroke="#B2B2B2" stroke-miterlimit="10"/>
<path d="M1126.16 540.899C1127.7 541.311 1129.29 541.345 1130.87 541.036C1132.96 539.318 1119.56 536.982 1119.9 537.154C1120.25 535.23 1121.59 534.233 1123.92 534.165C1120.45 536.501 1089.86 526.228 1091.89 533.443C1092.72 536.398 1124.85 542.926 1126.16 540.864V540.899Z" stroke="#B2B2B2" stroke-miterlimit="10"/>
<path d="M1162.45 541.036C1165.48 541.036 1165.92 540.624 1163.76 539.731C1162.18 539.49 1147.57 541.036 1147.85 541.655C1149.74 545.812 1159.81 541.174 1162.45 541.002V541.036Z" stroke="#B2B2B2" stroke-miterlimit="10"/>
<path d="M1138.77 539.49C1137.64 542.273 1134.89 538.528 1133.44 540.418C1130.49 544.335 1143.51 544.266 1144.65 541.552C1145.3 539.971 1139.29 538.184 1138.77 539.49Z" stroke="#B2B2B2" stroke-miterlimit="10"/>
<path d="M1104.13 500.459C1113.03 509.564 1108.7 517.398 1123.37 518.188C1135.57 518.807 1136.26 509.083 1144.2 499.188C1143.69 499.841 1138.94 488.709 1139.01 487.644C1139.25 482.902 1144.89 483.59 1145.85 480.463C1146.85 477.233 1134.51 475.069 1133.89 475.206C1129.9 476.065 1131.93 483.109 1125.09 482.559C1124.89 482.524 1113.17 495.993 1113.1 496.096C1113.99 494 1097.94 494.137 1104.13 500.494V500.459Z" stroke="#B2B2B2" stroke-miterlimit="10"/>
<path d="M1057.59 496.989C1057.35 498.295 1058.65 502.04 1060.06 500.494C1061.47 498.948 1057.83 495.752 1057.59 496.989Z" stroke="#B2B2B2" stroke-miterlimit="10"/>
<path d="M1063.36 508.087C1063.12 508.74 1064.43 511.316 1065.25 510.526C1066.08 509.736 1064.12 506.025 1063.36 508.087Z" stroke="#B2B2B2" stroke-miterlimit="10"/>
<path d="M1092.68 522.414C1092.34 516.986 1095.4 518.429 1095.36 514.924C1095.36 513.412 1090.41 508.774 1090.31 511.591C1091.27 512.519 1092.1 513.55 1092.78 514.684C1091.75 517.26 1079.65 498.844 1079.04 498.157C1076.22 494.996 1051.81 476.168 1050.71 478.779C1049.92 480.6 1069.51 508.705 1072.06 512.244C1074.84 516.161 1093.78 539.696 1092.68 522.448V522.414Z" stroke="#B2B2B2" stroke-miterlimit="10"/>
<path d="M1151.97 548.011C1151.97 544.506 1144.99 546.362 1144.65 545.812C1144.1 544.953 1151.97 551.206 1151.97 548.011Z" stroke="#B2B2B2" stroke-miterlimit="10"/>
<path d="M1144.06 514.684C1143.48 515.714 1151.49 527.396 1148.19 528.77C1151.28 527.499 1148.53 514.546 1151.59 516.058C1157.37 518.91 1150.94 526.949 1158.74 520.868C1154.62 524.063 1158.95 499.497 1162.07 506.438C1162.49 507.365 1144.51 512.107 1148.98 504.754C1153.89 496.714 1164.82 505.922 1169.12 496.989C1166.51 502.349 1155.82 495.787 1152.28 498.192C1146.71 501.937 1147.12 509.221 1144.03 514.684H1144.06Z" stroke="#B2B2B2" stroke-miterlimit="10"/>
<path d="M1181.19 517.638C1181.32 518.119 1190.67 520.49 1191.67 520.49C1196.03 520.49 1179.05 510.664 1181.19 517.638Z" stroke="#B2B2B2" stroke-miterlimit="10"/>
<path d="M1181.8 497.367C1181.8 488.675 1174.62 506.575 1181.22 505.235C1185.72 504.342 1181.8 497.195 1181.8 497.367Z" stroke="#B2B2B2" stroke-miterlimit="10"/>
<path d="M1168.54 545.778C1170.56 543.098 1177.37 542.754 1178.26 540.143C1178.78 538.631 1167.82 543.51 1166.78 543.613C1165.2 543.888 1160.7 547.255 1163.52 548.939C1165.75 548.939 1167.44 547.873 1168.54 545.812V545.778Z" stroke="#B2B2B2" stroke-miterlimit="10"/>
<path d="M1173.07 517.913C1173.56 519.975 1176.96 521.143 1177.92 519.322C1178.85 517.501 1172.56 515.508 1173.07 517.913Z" stroke="#B2B2B2" stroke-miterlimit="10"/>
<path d="M708.278 311.731C707.213 313.792 709.653 325.371 714.156 319.667C717.868 314.96 711.097 306.371 708.278 311.731Z" stroke="#B2B2B2" stroke-miterlimit="10"/>
<path d="M733.953 325.611C734.778 325.405 724.879 324.718 725.773 327.363C726.117 328.394 733.403 332.861 734.434 332.929C734.228 332.929 736.806 326.505 737.15 325.886C736.325 325.027 735.259 324.958 733.953 325.646V325.611Z" stroke="#B2B2B2" stroke-miterlimit="10"/>
</g>
</svg>
