<svg width="56" height="49" viewBox="0 0 56 49" fill="none" xmlns="http://www.w3.org/2000/svg">
<g id="Box">
<g id="Group">
<g id="Vector">
<path d="M45.8946 16.8516H0.674563V45.6468H45.8946V16.8516Z" fill="#BC7C46"/>
<path fill-rule="evenodd" clip-rule="evenodd" d="M0.0742188 16.8516C0.0742188 16.5243 0.343002 16.259 0.674563 16.259H45.8946C46.2262 16.259 46.4949 16.5243 46.4949 16.8516V45.6468C46.4949 45.974 46.2262 46.2393 45.8946 46.2393H0.674563C0.343002 46.2393 0.0742188 45.974 0.0742188 45.6468V16.8516ZM1.27491 17.4441V45.0542H45.2942V17.4441H1.27491Z" fill="#263238"/>
<path d="M45.8946 16.8516H0.674563L8.07497 3.29992H53.2917L45.8946 16.8516Z" fill="#F9C98A"/>
<path fill-rule="evenodd" clip-rule="evenodd" d="M7.54651 3.01874C7.65126 2.82693 7.85421 2.70733 8.07497 2.70733H53.2917C53.5031 2.70733 53.6988 2.81701 53.8072 2.99612C53.9155 3.17522 53.9205 3.39737 53.8202 3.58101L46.4231 17.1326C46.3184 17.3245 46.1154 17.4441 45.8946 17.4441H0.674563C0.46321 17.4441 0.267428 17.3344 0.15909 17.1553C0.0507521 16.9762 0.0458209 16.754 0.146107 16.5704L7.54651 3.01874ZM8.43337 3.89252L1.68018 16.259H45.5361L52.2863 3.89252H8.43337Z" fill="#263238"/>
<path fill-rule="evenodd" clip-rule="evenodd" d="M4.94478 10.5036H4.61906V9.31843H4.94478V10.5036Z" fill="#263238"/>
<path fill-rule="evenodd" clip-rule="evenodd" d="M49.0639 10.5036H5.58971V9.31843H49.0639V10.5036Z" fill="#263238"/>
<path fill-rule="evenodd" clip-rule="evenodd" d="M49.7121 10.5036H49.3863V9.31843H49.7121V10.5036Z" fill="#263238"/>
<path d="M53.2917 3.29992V31.6346L45.8946 45.6468V16.8516L53.2917 3.29992Z" fill="#DDA866"/>
<path d="M53.2917 3.29992V31.6346L45.8946 45.6468V16.8516L53.2917 3.29992Z" fill="black"/>
<path d="M53.2917 3.29992V31.6346L45.8946 45.6468V16.8516L53.2917 3.29992Z" fill="black"/>
<path fill-rule="evenodd" clip-rule="evenodd" d="M53.4386 2.72533C53.7052 2.79173 53.8921 3.02847 53.8921 3.29992V31.6346C53.8921 31.7299 53.8688 31.8238 53.8241 31.9084L46.427 45.9206C46.2992 46.1627 46.0204 46.2873 45.7518 46.2223C45.4832 46.1574 45.2942 45.9197 45.2942 45.6468V16.8516C45.2942 16.7534 45.3189 16.6568 45.3661 16.5705L52.7632 3.01884C52.8937 2.77987 53.1719 2.65894 53.4386 2.72533ZM46.4949 17.001V43.2272L52.6914 31.4894V5.64908L46.4949 17.001Z" fill="#263238"/>
<path d="M19.0518 16.8516H25.5109L32.4618 3.29992H25.9995L19.0518 16.8516Z" fill="white"/>
<path fill-rule="evenodd" clip-rule="evenodd" d="M25.6304 2.70733H33.4387L25.8798 17.4441H18.0752L25.6304 2.70733ZM26.3685 3.89252L20.0285 16.259H25.1419L31.4849 3.89252H26.3685Z" fill="#263238"/>
<path d="M25.5565 28.8615L22.3872 26.6163L19.0518 28.8615V16.8516H25.5565V28.8615Z" fill="white"/>
<path fill-rule="evenodd" clip-rule="evenodd" d="M18.4515 16.259H26.1568V30.0163L22.3784 27.3395L18.4515 29.983V16.259ZM19.6522 17.4441V27.7401L22.396 25.8931L24.9561 27.7068V17.4441H19.6522Z" fill="#263238"/>
</g>
</g>
</g>
</svg>
