<svg width="120" height="71" viewBox="0 0 120 71" fill="none" xmlns="http://www.w3.org/2000/svg">
<g id="Group 260">
<g id="Group">
<g id="Group_2">
<g id="Group_3">
<path id="Vector" d="M49.6107 34.2497C49.9156 34.1069 67.3179 14.3817 76.1294 16.0947C84.9409 17.8012 72.3271 34.068 72.3271 34.068L49.6171 34.2497H49.6107Z" fill="#8BB7E4"/>
<path id="Vector_2" d="M97.7211 32.4005C97.5134 32.4459 89.3703 21.9864 92.8092 19.9489C96.2417 17.9115 105.371 26.9436 105.371 26.9436C105.371 26.9436 101.575 31.531 97.7211 32.394V32.4005Z" fill="#8BB7E4"/>
<path id="Vector_3" d="M116.255 10.19C115.074 9.9824 113.724 10.2679 112.654 10.6832C108.04 12.4805 106.438 16.8668 104.523 21.0065C103.557 23.0893 102.22 25.1721 99.9035 25.8469C98.9107 26.1324 97.8726 26.2038 96.8409 26.2752C91.4424 26.645 86.0504 27.0148 80.652 27.1965C75.7077 27.3652 70.7569 27.2939 65.8126 26.9889C64.0348 26.8786 62.2569 26.7423 60.4855 26.5736C51.8233 25.7561 42.8432 23.1022 34.129 24.4973C27.3355 25.5874 21.2623 29.2274 15.3771 32.7962C11.6722 35.0477 7.61032 37.7859 6.84467 42.0553C5.59238 48.9851 12.1458 52.9172 17.7519 54.8897C25.2851 57.537 34.2004 57.9263 42.1359 57.9133C52.1478 57.8939 62.1466 57.0698 72.0611 55.7072C76.8627 55.0454 81.6382 54.2408 86.4073 53.3843C91.1375 52.5408 95.9001 51.7622 100.552 50.5553C104.504 49.5301 108.76 48.0897 111.661 45.0725C116.728 39.8103 117.682 32.2446 118.325 25.3019C118.584 22.4729 119.071 19.6763 119.194 16.8343C119.272 15.1538 119.324 13.1877 118.461 11.6824C117.955 10.787 117.15 10.3458 116.248 10.19H116.255Z" fill="#CBE3F8"/>
<path id="Vector_4" d="M95.4915 45.0271C79.0819 48.0573 58.9999 50.1141 42.2983 50.1401C33.4544 50.1596 23.5075 49.7248 15.1113 46.766C12.2563 45.7603 9.18074 44.3004 6.81242 42.2695C5.73532 49.063 12.2044 52.9367 17.7521 54.8832C25.2853 57.537 34.2006 57.9264 42.1361 57.9069C57.1117 57.8809 71.9185 56.0576 86.6411 53.3389C93.8823 52.0023 106.314 50.6332 111.667 45.066C113.367 43.3012 114.613 41.1989 115.548 38.9214C109.688 42.6004 102.006 43.8073 95.498 45.0141L95.4915 45.0271Z" fill="white"/>
<path id="Vector_5" d="M48.6769 51.5936C44.7838 52.0283 48.372 66.2058 52.8361 65.6348C53.6861 65.5245 90.1193 64.4345 88.4128 56.207C86.6999 47.9795 48.6834 51.5871 48.6834 51.5871L48.6769 51.5936Z" fill="#162A45"/>
<path id="Vector_6" d="M52.0506 44.5342C52.0506 44.5342 70.1731 73.6419 79.8086 70.19C89.4441 66.7445 77.3495 44.3915 77.3495 44.3915L52.0506 44.5277V44.5342Z" fill="#8BB7E4"/>
<path id="Vector_7" d="M42.0359 36.6959C42.2825 35.6837 42.5096 34.5417 41.9581 33.6528C41.4325 32.8028 40.3684 32.4784 39.3951 32.2253C35.7355 31.2715 32.076 30.3177 28.4165 29.3639C26.8852 28.9616 25.3474 28.5658 23.8161 28.1635C23.7512 28.144 23.6798 28.131 23.6085 28.1116C20.7924 29.5196 18.0607 31.1677 15.3745 32.8028C13.3111 34.0551 11.1374 35.4631 9.48287 37.202C9.55424 37.3123 9.6321 37.4226 9.71645 37.5265C10.7222 38.8307 12.247 39.6093 13.7523 40.2581C20.1241 42.9898 27.1901 44.0994 34.0939 43.457C36.3195 43.2494 38.7203 42.7627 40.1997 41.0822C41.2573 39.8818 41.6661 38.2597 42.0424 36.7024L42.0359 36.6959Z" fill="#162A45"/>
<g id="Group_4">
<path id="Vector_8" d="M59.8535 38.0779C60.113 40.3748 59.0359 41.5946 56.7325 41.8477C54.4355 42.1072 52.1126 40.9133 51.8531 38.6164C51.5935 36.3195 53.326 34.9439 55.6294 34.6843C57.9264 34.4248 59.5939 35.7744 59.8535 38.0714V38.0779Z" fill="#162A45"/>
<path id="Vector_9" d="M71.1962 37.9004C71.4558 40.1973 70.3787 41.4172 68.0752 41.6702C65.7783 41.9298 63.4554 40.7359 63.1959 38.4389C62.9363 36.142 64.6687 34.7664 66.9722 34.5068C69.2691 34.2473 70.9367 35.5969 71.1962 37.8939V37.9004Z" fill="#162A45"/>
<path id="Vector_10" d="M82.1962 37.9004C82.4558 40.1973 81.3787 41.4172 79.0752 41.6702C76.7783 41.9298 74.4554 40.7359 74.1958 38.4389C73.9363 36.142 75.6687 34.7664 77.9722 34.5068C80.2756 34.2473 81.9367 35.5969 82.1962 37.8939V37.9004Z" fill="#162A45"/>
</g>
</g>
</g>
<g id="Group_5">
<path id="Vector_11" d="M26.7587 12.805C26.7587 12.805 27.6152 7.06914 21.0229 7.06914C21.0229 7.06914 21.4511 0.32105 13.6518 0.476775C5.8526 0.632501 6.08621 7.41953 6.08621 7.41953C6.08621 7.41953 0.31139 7.73098 -6.10352e-05 12.805H26.7587Z" fill="white"/>
<path id="Vector_12" d="M117.882 69.6512C117.882 69.6512 118.686 64.2851 112.516 64.2851C112.516 64.2851 112.918 57.9653 105.612 58.1145C98.3059 58.2638 98.5265 64.6161 98.5265 64.6161C98.5265 64.6161 93.1215 64.908 92.8295 69.6577H117.882V69.6512Z" fill="white"/>
<path id="Vector_13" d="M95.3693 10.7158C95.3693 10.7158 95.8105 7.75055 92.404 7.75055C92.404 7.75055 92.6246 4.2662 88.5952 4.34406C84.5658 4.42192 84.6826 7.93223 84.6826 7.93223C84.6826 7.93223 81.6979 8.09445 81.5357 10.7158H95.3628H95.3693Z" fill="white"/>
</g>
</g>
<g id="Group 257">
<path id="Vector_14" fill-rule="evenodd" clip-rule="evenodd" d="M103.588 38.2103C103.733 38.2103 103.878 38.2527 103.999 38.3374C104.091 38.3981 104.168 38.4788 104.225 38.5735C104.282 38.6682 104.317 38.7745 104.328 38.8846C104.339 38.9947 104.325 39.1059 104.287 39.2099C104.25 39.314 104.19 39.4082 104.111 39.4858C104.009 39.5893 103.873 39.6599 103.733 39.6929C103.588 39.7211 103.438 39.707 103.303 39.6505C103.167 39.594 103.05 39.4999 102.971 39.3728C102.874 39.2299 102.83 39.0572 102.847 38.8851C102.864 38.713 102.941 38.5524 103.064 38.4315C103.204 38.2903 103.391 38.2103 103.588 38.2103ZM100.418 38.2103C100.563 38.2103 100.708 38.2527 100.829 38.3374C100.921 38.3981 100.998 38.4788 101.055 38.5735C101.112 38.6682 101.147 38.7745 101.158 38.8846C101.169 38.9947 101.155 39.1059 101.117 39.2099C101.08 39.314 101.02 39.4082 100.941 39.4858C100.838 39.5893 100.703 39.6599 100.563 39.6929C100.418 39.7211 100.268 39.707 100.132 39.6505C99.9969 39.594 99.88 39.4999 99.8005 39.3728C99.7321 39.2709 99.6899 39.1535 99.6777 39.0311C99.6654 38.9087 99.6835 38.7852 99.7304 38.6716C99.7678 38.5821 99.8239 38.4974 99.8893 38.4268C99.9595 38.3562 100.039 38.3045 100.132 38.2668C100.221 38.2292 100.319 38.2103 100.418 38.2103Z" fill="#3A383E"/>
<path id="Vector_15" fill-rule="evenodd" clip-rule="evenodd" d="M102.346 41.9231C100.452 41.9043 98.6474 41.1371 97.3149 39.7817C95.9823 38.4309 95.2389 36.6001 95.2389 34.6986C95.2389 32.7972 95.987 30.9664 97.3149 29.6156C98.6454 28.2615 100.454 27.4917 102.346 27.4741H102.575C101.266 27.5165 99.994 27.9448 98.9233 28.7072C97.8526 29.4697 97.025 30.5287 96.5387 31.7571C96.0559 32.9846 95.9403 34.3275 96.2061 35.6204C96.472 36.9132 97.1077 38.0996 98.0349 39.0333C98.9625 39.9667 100.141 40.6066 101.425 40.8742C102.71 41.1418 104.044 41.0254 105.263 40.5394C106.484 40.0546 107.536 39.2216 108.293 38.1391C109.05 37.061 109.476 35.7829 109.518 34.4633V34.6939C109.518 35.6425 109.332 36.5818 108.971 37.4581C108.61 38.3343 108.081 39.1303 107.414 39.8005C106.748 40.4718 105.957 41.0043 105.087 41.3677C104.217 41.7311 103.283 41.9183 102.341 41.9184L102.346 41.9231Z" fill="#9E1D22"/>
<path id="Vector_16" fill-rule="evenodd" clip-rule="evenodd" d="M102.773 40.7652H102.553C104.115 40.7087 105.592 40.0451 106.677 38.9155C107.762 37.7859 108.365 36.2752 108.365 34.7032C108.365 34.5526 108.36 34.402 108.351 34.2513H109.23V34.2655C109.23 35.1173 109.062 35.9645 108.739 36.7552C108.416 37.5443 107.941 38.2609 107.341 38.8637C106.741 39.4672 106.029 39.9458 105.245 40.272C104.461 40.5983 103.621 40.7659 102.773 40.7652ZM106.298 30.1237C105.439 29.37 104.385 28.877 103.259 28.702C102.132 28.5271 100.98 28.6773 99.935 29.1354C98.8923 29.5919 97.9946 30.3355 97.3541 31.2862C96.7135 32.2344 96.3521 33.3455 96.3114 34.4914V34.2702C96.3114 32.99 96.6855 31.7381 97.3915 30.6744C98.0927 29.6064 99.0936 28.7725 100.267 28.2788C101.44 27.7852 102.73 27.6478 103.979 27.8834C105.228 28.1235 106.378 28.7306 107.29 29.6248C107.29 29.6248 106.616 29.5448 106.298 30.1284V30.1237Z" fill="#3A383E"/>
<path id="Vector_17" fill-rule="evenodd" clip-rule="evenodd" d="M104.257 36.4963L99.7496 35.9456C99.5859 35.9268 99.4317 35.8609 99.3054 35.7527C99.1792 35.6491 99.081 35.5079 99.0296 35.3526L97.7765 31.5733C97.7665 31.5398 97.7633 31.5045 97.7672 31.4697C97.7726 31.4345 97.7853 31.4008 97.8046 31.3709C97.8253 31.3415 97.8525 31.3174 97.884 31.3003C97.9163 31.2853 97.9514 31.2773 97.9869 31.2768H106.02L106.445 30.5426C106.549 30.3628 106.697 30.2135 106.876 30.1095C107.055 30.0054 107.258 29.9503 107.464 29.9495H111.457C111.841 29.9495 112.229 29.9684 112.612 29.926C112.907 29.8931 113.234 29.9637 113.234 30.3449C113.234 30.4625 113.187 30.5755 113.103 30.6602C113.019 30.7449 112.907 30.792 112.79 30.792H108.039C107.824 30.7921 107.614 30.8628 107.442 30.9936C107.27 31.1244 107.145 31.3081 107.086 31.5168C107.02 31.7521 106.88 31.9545 106.688 32.1004C106.496 32.2463 106.263 32.3263 106.02 32.3263H101.017C100.61 32.6699 100.858 33.1217 101.199 33.1217H109.18C109.587 33.4653 109.339 33.9171 108.998 33.9171C106.314 33.9171 104.65 33.9077 101.928 33.9077C101.522 34.2513 101.769 34.6984 102.111 34.6984H107.792C108.198 35.042 107.951 35.4938 107.609 35.4938H105.959L105.435 37.3388C105.384 37.5223 105.271 37.6871 105.117 37.8C104.963 37.913 104.78 37.9789 104.589 37.9789H99.4924C99.3994 37.9789 99.3102 37.9417 99.2445 37.8755C99.1787 37.8093 99.1418 37.7195 99.1418 37.6259C99.1418 37.5322 99.1787 37.4425 99.2445 37.3763C99.3102 37.3101 99.3994 37.2729 99.4924 37.2729H104.205C104.304 37.2729 104.397 37.2352 104.467 37.1646C104.538 37.0968 104.58 37.004 104.584 36.9058C104.591 36.8081 104.559 36.7117 104.495 36.6375C104.434 36.5622 104.346 36.5104 104.247 36.501L104.257 36.4963Z" fill="#9E1D22"/>
</g>
</g>
</svg>
