<svg width="196" height="145" viewBox="0 0 196 145" fill="none" xmlns="http://www.w3.org/2000/svg">
<path d="M111.502 66.7092C111.016 66.6227 78.8611 45.2754 67.0235 51.0494C55.1833 56.8141 79.2378 75.0784 79.2378 75.0784L111.493 66.7117L111.502 66.7092Z" fill="#8BB7E4"/>
<path d="M42.616 82.3588C42.9275 82.3443 50.4964 64.428 44.8488 62.8464C39.2104 61.2623 29.7016 77.5301 29.7016 77.5301C29.7016 77.5301 36.8234 82.5902 42.6135 82.3496L42.616 82.3588Z" fill="#8BB7E4"/>
<path d="M7.9128 57.9189C9.50763 57.1762 11.5288 57.0683 13.2038 57.2503C20.4248 58.0456 24.3619 63.6535 28.6468 68.7937C30.8079 71.3784 33.4933 73.8228 37.0326 73.8995C38.548 73.9271 40.0464 73.634 41.5357 73.3434C49.3272 71.8174 57.1096 70.294 64.8297 68.5014C71.9011 66.8628 78.8906 64.8816 85.7821 62.5718C88.26 61.7403 90.7279 60.872 93.1744 59.9602C105.141 55.512 116.86 48.3405 129.74 47.0084C139.782 45.9735 149.772 48.8261 159.468 51.649C165.574 53.4331 172.371 55.7713 175.077 61.5315C179.484 70.8773 171.689 78.9388 164.493 83.8633C154.821 90.4761 142.334 94.4135 131.082 97.4086C116.885 101.183 102.401 103.812 87.8323 105.646C80.7759 106.532 73.7021 107.205 66.6178 107.802C59.5936 108.403 52.548 109.108 45.4961 109.164C39.5064 109.212 32.9268 108.787 27.6704 105.612C18.4899 100.079 14.265 89.7183 10.7181 80.1225C9.2759 76.2116 7.52416 72.4329 6.27018 68.4519C5.52163 66.0997 4.70145 63.333 5.35286 60.8718C5.73011 59.4105 6.7029 58.4797 7.922 57.9165L7.9128 57.9189Z" fill="#CBE3F8"/>
<path d="M50.5678 99.4076C74.9753 97.4705 104.218 92.7594 127.898 86.4537C140.44 83.1227 154.372 78.7292 165.149 71.3473C168.813 68.8377 172.617 65.6006 175.203 61.8229C179.309 71.0421 171.612 78.9888 164.488 83.8544C154.82 90.4763 142.332 94.4137 131.078 97.3997C109.844 103.05 88.1659 106.089 66.2677 107.827C55.4973 108.682 37.3578 111.463 27.6569 105.606C24.5774 103.75 22.0133 101.244 19.8242 98.3706C29.5254 101.36 40.8718 100.153 50.5537 99.3917L50.5678 99.4076Z" fill="white"/>
<path d="M119.413 90.9357C125.096 90.0734 125.395 111.529 118.851 112.415C117.604 112.582 65.5546 124.873 64.8488 112.564C64.1521 100.253 119.402 90.929 119.402 90.929L119.413 90.9357Z" fill="#162A45"/>
<path d="M111.951 82.212C111.951 82.212 97.3206 130.348 82.3537 129.114C67.3891 127.89 76.0418 91.6171 76.0418 91.6171L111.949 82.2028L111.951 82.212Z" fill="#8BB7E4"/>
<path d="M123.168 67.2997C122.434 65.9587 121.678 64.4264 122.122 62.9571C122.544 61.5529 123.929 60.689 125.213 59.9607C130.037 57.2192 134.861 54.4776 139.686 51.7361C141.703 50.5844 143.732 49.4395 145.75 48.2878C145.834 48.2356 145.931 48.1901 146.024 48.1354C150.55 49.0615 155.048 50.3599 159.476 51.6572C162.876 52.6485 166.491 53.8185 169.496 55.6547C169.437 55.8382 169.369 56.0241 169.288 56.2032C168.358 58.4336 166.493 60.1161 164.606 61.6074C156.613 67.8987 147.02 72.1545 136.991 73.8659C133.758 74.4168 130.171 74.6388 127.436 72.8189C125.481 71.5192 124.286 69.3755 123.161 67.3113L123.168 67.2997Z" fill="#162A45"/>
<path d="M98.4404 76.0249C98.9449 79.3789 100.935 80.6987 104.295 80.1826C107.649 79.6782 110.488 77.104 109.984 73.75C109.479 70.3961 106.501 69.1044 103.138 69.6113C99.7844 70.1158 97.9335 72.6618 98.4379 76.0157L98.4404 76.0249Z" fill="#162A45"/>
<path d="M82.2978 80.0806C82.8023 83.4346 84.7921 84.7544 88.1527 84.2383C91.5067 83.7338 94.3454 81.1597 93.841 77.8057C93.3366 74.4518 90.3589 73.1601 86.9957 73.667C83.6418 74.1714 81.7909 76.7175 82.2954 80.0714L82.2978 80.0806Z" fill="#162A45"/>
<path d="M66.708 84.2578C67.2124 87.6118 69.2022 88.9316 72.5629 88.4155C75.9169 87.9111 78.7557 85.3369 78.2512 81.9829C77.7468 78.629 74.7691 77.3373 71.4059 77.8442C68.0428 78.3511 66.2011 80.8947 66.7055 84.2487L66.708 84.2578Z" fill="#162A45"/>
<path d="M135.748 27.6379C135.748 27.6379 132.356 19.8339 141.699 17.3304C141.699 17.3304 138.53 7.92915 149.642 5.18804C160.755 2.44694 163.001 12.1547 163.001 12.1547C163.001 12.1547 171.304 10.4031 173.672 17.4761L135.748 27.6379Z" fill="#CBE3F8"/>
<path d="M28.1902 142.809C28.1902 142.809 25.0121 135.509 33.7575 133.166C33.7575 133.166 30.7873 124.362 41.1987 121.799C51.6101 119.236 53.7098 128.322 53.7098 128.322C53.7098 128.322 61.4809 126.684 63.6984 133.304L28.1926 142.818L28.1902 142.809Z" fill="#CBE3F8"/>
<path d="M37.7182 50.7318C37.7182 50.7318 35.9668 46.6967 40.7947 45.4031C40.7947 45.4031 39.1588 40.5486 44.8991 39.1288C50.6394 37.709 51.8069 42.7284 51.8069 42.7284C51.8069 42.7284 56.0987 41.8248 57.3241 45.4784L37.7274 50.7293L37.7182 50.7318Z" fill="#CBE3F8"/>
<path fill-rule="evenodd" clip-rule="evenodd" d="M36.5034 92.8206C36.298 92.8756 36.1087 92.9907 35.9686 93.1569C35.8613 93.2779 35.7825 93.4215 35.7378 93.5773C35.6931 93.7331 35.6837 93.8971 35.7103 94.0573C35.7369 94.2175 35.7987 94.3698 35.8914 94.503C35.984 94.6362 36.1051 94.7469 36.2456 94.8271C36.4307 94.9348 36.6497 94.9833 36.861 94.9768C37.0772 94.9618 37.2838 94.8849 37.4546 94.7534C37.6253 94.6218 37.7552 94.4441 37.8196 94.2338C37.9023 93.9944 37.8986 93.7331 37.809 93.4957C37.7194 93.2583 37.5497 93.0598 37.3296 92.9352C37.0772 92.7884 36.7817 92.746 36.5034 92.8206ZM40.9962 91.6167C40.7908 91.6718 40.6014 91.7868 40.4613 91.9531C40.3541 92.074 40.2753 92.2177 40.2306 92.3735C40.1859 92.5293 40.1765 92.6933 40.2031 92.8535C40.2296 93.0136 40.2915 93.1659 40.3841 93.2991C40.4768 93.4323 40.5978 93.5431 40.7384 93.6233C40.9235 93.7309 41.1425 93.7795 41.3538 93.7729C41.5699 93.7579 41.7766 93.6811 41.9473 93.5495C42.1181 93.418 42.248 93.2402 42.3124 93.0299C42.3706 92.8595 42.3858 92.677 42.3567 92.4989C42.3276 92.3208 42.255 92.1526 42.1455 92.0094C42.0585 91.8969 41.9468 91.7981 41.8272 91.7229C41.701 91.6495 41.5687 91.6063 41.4219 91.5885C41.2817 91.5688 41.1354 91.5794 40.9962 91.6167Z" fill="#3A383E"/>
<path fill-rule="evenodd" clip-rule="evenodd" d="M39.6717 97.6113C42.3483 96.8655 44.6148 95.0929 45.9886 92.6658C47.3642 90.2453 47.7225 87.3682 47.0005 84.6734C46.2784 81.9786 44.5229 79.6679 42.128 78.2577C39.728 76.8439 36.8727 76.4397 34.1846 77.1332L33.8599 77.2202C35.7314 76.7831 37.6965 76.9071 39.5035 77.5811C41.3105 78.2551 42.8856 79.4417 44.0412 80.998C45.1917 82.5544 45.8655 84.4138 45.9797 86.3471C46.0939 88.2803 45.6435 90.2031 44.6839 91.8786C43.7237 93.5538 42.2964 94.9082 40.5778 95.7752C38.8591 96.6423 36.9242 96.9839 35.0113 96.7582C33.0977 96.5346 31.2903 95.7534 29.8058 94.5069C28.3235 93.2663 27.2345 91.6167 26.6737 89.7625L26.7613 90.0893C27.1216 91.4337 27.7418 92.6944 28.5862 93.7991C29.4306 94.9039 30.4828 95.8311 31.6825 96.5277C32.8811 97.2262 34.204 97.6807 35.5757 97.8652C36.9474 98.0497 38.3409 97.9605 39.6765 97.6029L39.6717 97.6113Z" fill="#9E1D22"/>
<path fill-rule="evenodd" clip-rule="evenodd" d="M38.6307 96.132L38.9421 96.0486C36.7074 96.5616 34.3614 96.1821 32.3951 94.9932C30.4288 93.8042 29.0002 91.8921 28.4033 89.6641C28.3461 89.4507 28.2955 89.2355 28.2516 89.0185L27.0058 89.3523L27.0111 89.3723C27.3346 90.5796 27.8949 91.7164 28.6524 92.7145C29.4096 93.7102 30.3552 94.5455 31.4345 95.1719C32.514 95.7994 33.7052 96.2072 34.9399 96.3719C36.1747 96.5366 37.4288 96.4551 38.6307 96.132ZM29.5931 82.389C30.5246 80.9945 31.8311 79.8955 33.3611 79.2198C34.891 78.5441 36.5816 78.3194 38.2365 78.5717C39.8876 78.8228 41.4422 79.5358 42.7111 80.64C43.9791 81.7405 44.9132 83.1779 45.406 84.7866L45.322 84.4731C44.8358 82.6587 43.8303 81.0264 42.4257 79.787C41.0264 78.5397 39.2911 77.7379 37.4407 77.4838C35.5913 77.2295 33.7102 77.5248 32.0291 78.3333C30.351 79.1475 28.9514 80.4448 27.9988 82.0584C27.9988 82.0584 28.9227 81.6893 29.5949 82.3957L29.5931 82.389Z" fill="#3A383E"/>
<path fill-rule="evenodd" clip-rule="evenodd" d="M34.9043 90.6454L41.0832 88.1533C41.308 88.0645 41.5016 87.9125 41.6394 87.7111C41.779 87.5164 41.8646 87.279 41.8785 87.0394L42.2191 81.2072C42.2206 81.1559 42.2118 81.1048 42.1931 81.0569C42.172 81.009 42.1411 80.9662 42.1025 80.931C42.062 80.8973 42.0142 80.8734 41.9631 80.8612C41.9116 80.8522 41.8589 80.8541 41.8083 80.8669L30.424 83.9173L29.5422 83.0383C29.3269 82.8229 29.0595 82.6678 28.7665 82.5882C28.4736 82.5087 28.1654 82.5076 27.8724 82.5849L22.2133 84.1012C21.67 84.2468 21.1271 84.4209 20.5676 84.5064C20.1377 84.5716 19.7006 84.796 19.8454 85.3363C19.8901 85.503 19.9992 85.6454 20.1507 85.7335C20.3021 85.8216 20.479 85.8457 20.6447 85.8013L27.3772 83.9973C27.6829 83.9155 28.007 83.9362 28.3006 84.0562C28.5942 84.1761 28.8412 84.3889 29.0043 84.6623C29.1864 84.971 29.4621 85.2045 29.7892 85.3385C30.1163 85.4725 30.478 85.4971 30.8226 85.4048L37.9129 83.5049C38.6199 83.8374 38.4403 84.5719 37.9566 84.7015L26.6451 87.7324C26.1991 88.3738 26.7219 88.92 27.2056 88.7904C31.0092 87.7713 33.3647 87.1258 37.2213 86.0924C37.9283 86.4249 37.7469 87.1527 37.2631 87.2823L29.2119 89.4396C28.7659 90.081 29.2887 90.6273 29.7724 90.4977L32.1116 89.8709L33.5544 92.2868C33.697 92.5274 33.9186 92.7183 34.1802 92.8198C34.4417 92.9213 34.7252 92.9454 34.9969 92.8726L42.2198 90.9373C42.3516 90.9019 42.4639 90.8154 42.5319 90.6966C42.6 90.5778 42.6183 90.4365 42.5827 90.3038C42.5472 90.1711 42.4607 90.0579 42.3424 89.9891C42.224 89.9202 42.0835 89.9014 41.9517 89.9367L35.2721 91.7265C35.133 91.7638 34.9862 91.7459 34.8599 91.6725C34.7339 91.6033 34.6392 91.4877 34.596 91.35C34.5495 91.214 34.5581 91.0653 34.62 90.936C34.6776 90.8062 34.7838 90.6991 34.9194 90.6485L34.9043 90.6454Z" fill="#9E1D22"/>
</svg>
