<svg width="137" height="143" viewBox="0 0 137 143" fill="none" xmlns="http://www.w3.org/2000/svg">
<path d="M136.261 129.764V71.4455C136.261 63.7839 130.104 57.5481 122.444 57.4652C99.4537 57.215 52.0357 57.2019 13.2378 60.4725C7.94306 60.9188 3.82525 65.2585 3.63305 70.5686L0.00890904 126.952C-0.26096 134.41 5.63403 140.64 13.0943 140.782L122.909 142.869C130.242 143.009 136.262 137.101 136.262 129.764H136.261Z" fill="url(#paint0_linear_93_1919)"/>
<path d="M122.945 77.7563C123.043 82.7188 122.895 90.5924 122.775 95.6787C122.712 98.3252 120.39 100.342 117.761 100.034L98.8399 97.8156C96.3189 97.5207 94.543 95.1968 94.9195 92.6859L97.2417 77.1901C97.5721 74.99 99.4612 73.3625 101.685 73.3625H118.452C120.895 73.3625 122.896 75.3112 122.944 77.755L122.945 77.7563Z" fill="white"/>
<path opacity="0.37" d="M73.5007 107.123L57.7179 108.826C55.509 109.064 53.6251 107.243 53.7871 105.027L57.2374 58.0682C63.8538 57.8589 70.3794 57.7048 76.6772 57.5981V103.585C76.6772 105.404 75.3081 106.928 73.5007 107.124V107.123Z" fill="white"/>
<path d="M67.0321 98.9835C66.9834 99.8288 66.2844 100.479 65.4484 100.479C65.4169 100.479 65.3866 100.479 65.355 100.477C64.4796 100.427 63.8108 99.6748 63.8621 98.7992L66.2423 57.8154C67.3099 57.7891 68.3683 57.7654 69.4267 57.7417L67.0321 98.9835Z" fill="white"/>
<path d="M114.195 92.5491C114.471 92.5491 114.706 92.3344 114.723 92.0527L115.542 79.1441C115.56 78.8532 115.339 78.6017 115.047 78.5832C114.74 78.5595 114.504 78.7873 114.486 79.0783L113.667 91.9868C113.649 92.2778 113.87 92.5293 114.162 92.5477C114.174 92.5477 114.184 92.5477 114.195 92.5477V92.5491Z" fill="url(#paint1_linear_93_1919)"/>
<path d="M112.512 92.5491C112.796 92.5491 113.032 92.3239 113.041 92.0369L113.47 78.8808C113.479 78.5885 113.25 78.3436 112.958 78.3344C112.621 78.3173 112.421 78.5543 112.412 78.8466L111.983 92.0027C111.973 92.295 112.203 92.5398 112.495 92.5491H112.512Z" fill="url(#paint2_linear_93_1919)"/>
<path d="M110.226 92.5478C109.934 92.5347 109.709 92.2858 109.723 91.9948C109.933 87.5748 110.333 79.1455 110.339 78.8585C110.342 78.5688 110.578 78.3345 110.869 78.3345C111.16 78.3345 111.398 78.5715 111.398 78.8638C111.398 79.0823 110.883 89.8816 110.779 92.0449C110.766 92.3293 110.532 92.5492 110.251 92.5492C110.243 92.5492 110.234 92.5492 110.226 92.5492V92.5478Z" fill="url(#paint3_linear_93_1919)"/>
<path d="M106.724 93.0783C107.292 93.0783 107.762 92.628 107.78 92.0566C108.228 79.31 108.149 79.023 108.098 78.8321C107.945 78.2672 107.358 77.9354 106.798 78.0895C106.281 78.2317 105.957 78.7333 106.027 79.2507C106.061 80.017 105.824 87.4325 105.665 91.9816C105.644 92.5662 106.101 93.0573 106.685 93.0757C106.697 93.0757 106.711 93.0757 106.723 93.0757L106.724 93.0783Z" fill="url(#paint4_linear_93_1919)"/>
<path d="M104.43 92.5492C104.722 92.5492 104.959 92.3122 104.959 92.0199V79.1113C104.959 78.819 104.722 78.582 104.43 78.582C104.137 78.582 103.9 78.819 103.9 79.1113V92.0199C103.9 92.3122 104.137 92.5492 104.43 92.5492Z" fill="url(#paint5_linear_93_1919)"/>
<path d="M102.578 92.5492C102.865 92.5492 103.101 92.3201 103.107 92.0317C103.209 87.5459 103.446 80.22 103.658 79.3391C103.751 79.1732 103.75 78.9612 103.638 78.7901C103.477 78.5438 103.15 78.478 102.905 78.6387C102.616 78.8283 102.343 79.0073 102.049 92.0081C102.042 92.3004 102.274 92.5426 102.566 92.5492H102.578Z" fill="url(#paint6_linear_93_1919)"/>
<path d="M117.044 93.7236C117.603 93.7236 118.07 93.2851 118.099 92.7203L118.805 79.1652C118.835 78.5806 118.386 78.0843 117.802 78.0527C117.248 78.0132 116.721 78.4713 116.689 79.0559L115.984 92.611C115.954 93.1956 116.403 93.692 116.986 93.7236C117.004 93.7236 117.023 93.7236 117.041 93.7236H117.044Z" fill="url(#paint7_linear_93_1919)"/>
<path d="M107.37 50.8437V9.88758C107.37 4.50638 103.047 0.128485 97.6663 0.0692353C81.5202 -0.107198 48.221 -0.115092 20.9734 2.18117C17.2558 2.49453 14.3636 5.5426 14.228 9.27139L11.682 48.8674C11.4925 54.1051 15.6327 58.4803 20.8721 58.5804L97.9914 60.0459C103.141 60.1433 107.37 55.9945 107.37 50.8424V50.8437Z" fill="url(#paint8_linear_93_1919)"/>
<path d="M98.0182 14.3195C98.0867 17.8047 97.984 23.3333 97.8984 26.9068C97.8537 28.7646 96.2226 30.1813 94.377 29.9654L81.0889 28.4078C79.3183 28.1997 78.0716 26.5684 78.3362 24.8054L79.9673 13.9232C80.199 12.3787 81.5259 11.2358 83.0872 11.2358H94.8627C96.578 11.2358 97.984 12.6052 98.0169 14.3208L98.0182 14.3195Z" fill="white"/>
<path opacity="0.37" d="M63.2931 34.9422L52.2087 36.1378C50.658 36.305 49.335 35.0265 49.4482 33.4702L51.8717 0.493081C56.5187 0.345615 61.1013 0.237647 65.5232 0.162598V32.4577C65.5232 33.7349 64.5608 34.8053 63.2918 34.9422H63.2931Z" fill="white"/>
<path d="M58.7496 29.2268C58.7154 29.8206 58.2243 30.2775 57.6372 30.2775C57.6148 30.2775 57.5938 30.2775 57.5714 30.2749C56.9566 30.2393 56.4867 29.7126 56.5235 29.0978L58.1954 0.315512C58.9444 0.297079 59.6882 0.27996 60.432 0.26416L58.7496 29.2268Z" fill="white"/>
<path d="M91.8726 24.708C92.0675 24.708 92.2307 24.5566 92.2439 24.3591L92.8192 15.2939C92.8323 15.0885 92.677 14.912 92.4716 14.9002C92.2557 14.8831 92.0912 15.0437 92.078 15.2478L91.5027 24.313C91.4896 24.5171 91.6449 24.6935 91.8503 24.7067C91.8582 24.7067 91.8661 24.7067 91.874 24.7067L91.8726 24.708Z" fill="url(#paint9_linear_93_1919)"/>
<path d="M90.6892 24.7079C90.8893 24.7079 91.0538 24.5499 91.0604 24.3485L91.3619 15.1094C91.3684 14.904 91.2078 14.7315 91.0025 14.725C90.7655 14.7131 90.626 14.879 90.6181 15.0844L90.3166 24.3234C90.31 24.5288 90.4706 24.7013 90.676 24.7079H90.6878H90.6892Z" fill="url(#paint10_linear_93_1919)"/>
<path d="M89.085 24.7066C88.8796 24.6974 88.7216 24.5222 88.7309 24.3182C88.8783 21.2148 89.1587 15.2951 89.164 15.0923C89.1653 14.8895 89.3311 14.7236 89.5352 14.7236C89.7392 14.7236 89.9064 14.8895 89.9064 15.0949C89.9064 15.2477 89.5444 22.833 89.472 24.3511C89.4628 24.5512 89.2982 24.7053 89.1008 24.7053C89.0955 24.7053 89.0889 24.7053 89.0837 24.7053L89.085 24.7066Z" fill="url(#paint11_linear_93_1919)"/>
<path d="M86.6258 25.0792C87.0246 25.0792 87.3537 24.7632 87.3682 24.3616C87.6828 15.4096 87.6276 15.2082 87.5907 15.0752C87.4827 14.6776 87.0707 14.4445 86.6784 14.5538C86.3151 14.6539 86.0873 15.0067 86.1374 15.3701C86.1611 15.9086 85.9952 21.116 85.8833 24.3103C85.8688 24.7197 86.19 25.0647 86.5994 25.0792C86.6086 25.0792 86.6179 25.0792 86.6258 25.0792Z" fill="url(#paint12_linear_93_1919)"/>
<path d="M85.0158 24.708C85.2211 24.708 85.387 24.5421 85.387 24.3367V15.2714C85.387 15.066 85.2211 14.9001 85.0158 14.9001C84.8104 14.9001 84.6445 15.066 84.6445 15.2714V24.3367C84.6445 24.5421 84.8104 24.708 85.0158 24.708Z" fill="url(#paint13_linear_93_1919)"/>
<path d="M83.7144 24.7079C83.9158 24.7079 84.0817 24.5472 84.0856 24.3445C84.1567 21.195 84.3226 16.0495 84.4714 15.4307C84.5372 15.3135 84.5359 15.166 84.4582 15.0449C84.3463 14.8724 84.1159 14.825 83.9435 14.9382C83.7407 15.0712 83.5485 15.1963 83.3419 24.3274C83.3379 24.5328 83.4998 24.7026 83.7052 24.7079H83.7144Z" fill="url(#paint14_linear_93_1919)"/>
<path d="M93.8724 25.5334C94.2647 25.5334 94.5938 25.2253 94.6148 24.829L95.1111 15.3095C95.1322 14.8987 94.8176 14.5498 94.4068 14.5288C94.0172 14.5011 93.6473 14.8224 93.6262 15.2332L93.1299 24.7526C93.1088 25.1634 93.4235 25.5124 93.8342 25.5334C93.8474 25.5334 93.8605 25.5334 93.8737 25.5334H93.8724Z" fill="url(#paint15_linear_93_1919)"/>
<defs>
<linearGradient id="paint0_linear_93_1919" x1="68.1312" y1="57.3669" x2="68.1312" y2="142.872" gradientUnits="userSpaceOnUse">
<stop stop-color="#F9C98A"/>
<stop offset="1" stop-color="#DDA866"/>
</linearGradient>
<linearGradient id="paint1_linear_93_1919" x1="108.205" y1="76.2659" x2="142.082" y2="125.485" gradientUnits="userSpaceOnUse">
<stop stop-color="#09005D"/>
<stop offset="1" stop-color="#1A0F91"/>
</linearGradient>
<linearGradient id="paint2_linear_93_1919" x1="106.988" y1="77.1046" x2="140.865" y2="126.324" gradientUnits="userSpaceOnUse">
<stop stop-color="#09005D"/>
<stop offset="1" stop-color="#1A0F91"/>
</linearGradient>
<linearGradient id="paint3_linear_93_1919" x1="105.519" y1="78.1159" x2="139.396" y2="127.335" gradientUnits="userSpaceOnUse">
<stop stop-color="#09005D"/>
<stop offset="1" stop-color="#1A0F91"/>
</linearGradient>
<linearGradient id="paint4_linear_93_1919" x1="102.978" y1="79.8656" x2="136.855" y2="129.084" gradientUnits="userSpaceOnUse">
<stop stop-color="#09005D"/>
<stop offset="1" stop-color="#1A0F91"/>
</linearGradient>
<linearGradient id="paint5_linear_93_1919" x1="101.3" y1="81.0192" x2="135.178" y2="130.237" gradientUnits="userSpaceOnUse">
<stop stop-color="#09005D"/>
<stop offset="1" stop-color="#1A0F91"/>
</linearGradient>
<linearGradient id="paint6_linear_93_1919" x1="100.261" y1="81.7354" x2="134.138" y2="130.953" gradientUnits="userSpaceOnUse">
<stop stop-color="#09005D"/>
<stop offset="1" stop-color="#1A0F91"/>
</linearGradient>
<linearGradient id="paint7_linear_93_1919" x1="109.949" y1="75.0665" x2="143.827" y2="124.286" gradientUnits="userSpaceOnUse">
<stop stop-color="#09005D"/>
<stop offset="1" stop-color="#1A0F91"/>
</linearGradient>
<linearGradient id="paint8_linear_93_1919" x1="59.5227" y1="0" x2="59.5227" y2="60.0475" gradientUnits="userSpaceOnUse">
<stop stop-color="#F9C98A"/>
<stop offset="1" stop-color="#DDA866"/>
</linearGradient>
<linearGradient id="paint9_linear_93_1919" x1="87.6666" y1="13.2728" x2="111.458" y2="47.8379" gradientUnits="userSpaceOnUse">
<stop stop-color="#09005D"/>
<stop offset="1" stop-color="#1A0F91"/>
</linearGradient>
<linearGradient id="paint10_linear_93_1919" x1="86.8109" y1="13.8612" x2="110.602" y2="48.4264" gradientUnits="userSpaceOnUse">
<stop stop-color="#09005D"/>
<stop offset="1" stop-color="#1A0F91"/>
</linearGradient>
<linearGradient id="paint11_linear_93_1919" x1="85.7781" y1="14.5722" x2="109.569" y2="49.1373" gradientUnits="userSpaceOnUse">
<stop stop-color="#09005D"/>
<stop offset="1" stop-color="#1A0F91"/>
</linearGradient>
<linearGradient id="paint12_linear_93_1919" x1="83.9942" y1="15.8007" x2="107.785" y2="50.3657" gradientUnits="userSpaceOnUse">
<stop stop-color="#09005D"/>
<stop offset="1" stop-color="#1A0F91"/>
</linearGradient>
<linearGradient id="paint13_linear_93_1919" x1="82.8173" y1="16.6105" x2="106.608" y2="51.1757" gradientUnits="userSpaceOnUse">
<stop stop-color="#09005D"/>
<stop offset="1" stop-color="#1A0F91"/>
</linearGradient>
<linearGradient id="paint14_linear_93_1919" x1="82.086" y1="17.1134" x2="105.877" y2="51.6784" gradientUnits="userSpaceOnUse">
<stop stop-color="#09005D"/>
<stop offset="1" stop-color="#1A0F91"/>
</linearGradient>
<linearGradient id="paint15_linear_93_1919" x1="88.891" y1="12.43" x2="112.682" y2="46.9951" gradientUnits="userSpaceOnUse">
<stop stop-color="#09005D"/>
<stop offset="1" stop-color="#1A0F91"/>
</linearGradient>
</defs>
</svg>
