<svg width="310" height="233" viewBox="0 0 310 233" fill="none" xmlns="http://www.w3.org/2000/svg">
<path d="M176.695 106.829C175.923 106.68 124.659 71.2812 105.978 80.546C87.2925 89.7957 125.675 120.03 125.675 120.03L176.681 106.833L176.695 106.829Z" fill="#A83237"/>
<path d="M67.7289 131.386C68.2224 131.367 79.9667 102.179 70.9932 99.5067C62.0342 96.8308 47.192 123.294 47.192 123.294C47.192 123.294 58.551 131.677 67.7248 131.371L67.7289 131.386Z" fill="#A83237"/>
<path d="M12.3836 90.8898C14.9009 89.6991 18.1029 89.5531 20.7603 89.876C32.2164 91.2858 38.5355 100.517 45.3993 108.989C48.8611 113.249 53.1517 117.287 58.7624 117.466C61.1646 117.534 63.5355 117.077 65.8918 116.624C78.2197 114.246 90.533 111.872 102.744 109.057C113.929 106.484 124.979 103.349 135.869 99.6749C139.785 98.3524 143.684 96.9695 147.549 95.5152C166.452 88.4206 184.926 76.8684 205.322 74.8841C221.224 73.343 237.097 78.1593 252.505 82.9225C262.208 85.9325 273.013 89.8593 277.384 99.3211C284.499 114.673 272.259 127.74 260.922 135.686C245.687 146.355 225.95 152.606 208.158 157.335C185.71 163.294 162.791 167.376 139.725 170.155C128.553 171.497 117.351 172.491 106.131 173.361C95.0065 174.238 83.8494 175.285 72.6733 175.27C63.1805 175.258 52.746 174.463 44.3701 169.192C29.7415 160.003 22.8994 142.994 17.1425 127.247C14.8016 120.828 11.972 114.622 9.9284 108.092C8.70887 104.234 7.36997 99.6962 8.36778 95.6806C8.94513 93.2964 10.4739 91.7886 12.3982 90.8859L12.3836 90.8898Z" fill="white"/>
<path d="M80.578 159.39C119.236 156.59 165.518 149.326 202.962 139.371C222.793 134.112 244.814 127.137 261.789 115.226C267.562 111.177 273.546 105.94 277.59 99.8003C284.229 114.941 272.141 127.821 260.919 135.672C245.687 146.356 225.951 152.607 208.155 157.321C174.579 166.242 140.264 170.885 105.58 173.397C88.5217 174.633 59.8104 178.908 44.3524 169.181C39.4452 166.1 35.3461 161.962 31.8359 157.23C47.254 162.265 65.2206 160.462 80.5554 159.364L80.578 159.39Z" fill="#C6C6C6"/>
<path d="M189.571 146.573C198.566 145.248 199.342 180.345 188.982 181.695C187.009 181.948 104.685 201.265 103.393 181.123C102.116 160.978 189.553 146.562 189.553 146.562L189.571 146.573Z" fill="#144361"/>
<path d="M177.621 132.192C177.621 132.192 155.109 210.698 131.37 208.455C107.634 206.228 120.838 147.032 120.838 147.032L177.617 132.177L177.621 132.192Z" fill="#A83237"/>
<path d="M195.193 107.973C194.011 105.768 192.792 103.251 193.475 100.854C194.124 98.5641 196.307 97.1721 198.331 96.0004C205.939 91.5893 213.547 87.1782 221.154 82.7672C224.336 80.914 227.536 79.0721 230.717 77.219C230.85 77.1348 231.002 77.0618 231.15 76.9738C238.336 78.5568 245.483 80.7483 252.52 82.9368C257.922 84.6094 263.669 86.5776 268.458 89.6261C268.367 89.9252 268.261 90.2283 268.137 90.5201C266.694 94.1538 263.761 96.8776 260.791 99.2881C248.211 109.457 233.066 116.273 217.195 118.92C212.079 119.773 206.396 120.082 202.036 117.064C198.919 114.909 196.994 111.384 195.182 107.991L195.193 107.973Z" fill="#144361"/>
<path d="M156.119 121.87C156.966 127.363 160.138 129.551 165.458 128.758C170.766 127.984 175.23 123.816 174.383 118.323C173.536 112.83 168.798 110.673 163.475 111.451C158.166 112.225 155.268 116.362 156.115 121.855L156.119 121.87Z" fill="#144361"/>
<path d="M130.586 128.258C131.433 133.751 134.605 135.94 139.924 135.146C145.233 134.372 149.696 130.205 148.85 124.711C148.003 119.218 143.265 117.061 137.942 117.839C132.633 118.614 129.735 122.75 130.582 128.243L130.586 128.258Z" fill="#144361"/>
<path d="M105.94 134.855C106.786 140.348 109.959 142.537 115.278 141.743C120.587 140.969 125.05 136.802 124.203 131.309C123.356 125.815 118.619 123.658 113.295 124.436C107.972 125.215 105.089 129.347 105.936 134.84L105.94 134.855Z" fill="#144361"/>
<path d="M214.322 44.7004C214.322 44.7004 208.836 31.8856 223.609 27.932C223.609 27.932 218.454 12.5083 236.028 8.19282C253.603 3.8774 257.3 19.7886 257.3 19.7886C257.3 19.7886 270.435 17.0491 274.288 28.6529L214.322 44.7004Z" fill="#C6C6C6"/>
<path d="M45.4662 231.442C45.4662 231.442 40.3263 219.456 54.1545 215.755C54.1545 215.755 49.3229 201.311 65.7885 197.276C82.2541 193.241 85.71 208.134 85.71 208.134C85.71 208.134 98.0038 205.571 101.612 216.433L45.4702 231.457L45.4662 231.442Z" fill="#C6C6C6"/>
<path d="M59.2652 80.9913C59.2652 80.9913 56.4325 74.3654 64.0663 72.3225C64.0663 72.3225 61.4052 64.3582 70.4834 62.1227C79.5615 59.8871 81.4827 68.1141 81.4827 68.1141C81.4827 68.1141 88.2723 66.7011 90.2659 72.6951L59.2798 80.9874L59.2652 80.9913Z" fill="#C6C6C6"/>
</svg>
