<svg width="352" height="175" viewBox="0 0 352 175" fill="none" xmlns="http://www.w3.org/2000/svg">
<path fill-rule="evenodd" clip-rule="evenodd" d="M287.799 13.4732L287.126 26.569H279.001V32.5106H273.208V37.5091H274.353C275.216 56.7352 273.868 87.4268 271.51 115.235H260.247V155.991H257V165.638H288.487V0.431274L287.813 13.4597L287.799 13.4732ZM266.579 153.633H261.419V151.127H266.579V153.633ZM267.172 148.5H261.392V145.981H267.172V148.5ZM267.765 143.367H261.365V140.834H267.765V143.367ZM268.358 138.234H261.352V135.701H268.358V138.234ZM268.937 133.114H261.325V130.568H268.937V133.114ZM269.53 127.981H261.298V125.434H269.53V127.981ZM270.123 122.847H261.284V120.288H270.123V122.847ZM282.572 53.7307C283.138 53.7307 283.717 53.7307 284.296 53.7307C284.323 54.7681 284.35 55.7785 284.364 56.816C283.798 56.816 283.219 56.816 282.653 56.816H280.942C280.915 55.7785 280.888 54.7681 280.861 53.7307C281.427 53.7307 282.006 53.7307 282.572 53.7307ZM280.955 48.6244C281.521 48.6244 282.087 48.6244 282.653 48.6244C283.219 48.6244 283.784 48.6244 284.35 48.6244C284.35 49.6484 284.377 50.6858 284.391 51.7097C283.825 51.7097 283.259 51.7097 282.693 51.7097H280.996C280.969 50.6858 280.955 49.6619 280.955 48.6379V48.6244ZM282.531 58.8504C283.111 58.8504 283.69 58.8504 284.269 58.8504C284.296 59.8609 284.337 60.8984 284.364 61.9223C283.784 61.9223 283.205 61.9223 282.626 61.9358C282.046 61.9358 281.467 61.9358 280.888 61.9358C280.847 60.9118 280.82 59.8744 280.793 58.8504C281.373 58.8504 281.952 58.8504 282.531 58.8504ZM282.531 63.9568C283.111 63.9568 283.704 63.9568 284.283 63.9568C284.323 64.9942 284.35 66.0181 284.391 67.0421C283.811 67.0421 283.219 67.0421 282.639 67.0421C282.06 67.0421 281.467 67.0421 280.888 67.069C280.847 66.0451 280.807 65.0076 280.78 63.9836C281.359 63.9836 281.952 63.9702 282.531 63.9568ZM282.531 69.0765C283.124 69.0765 283.717 69.0765 284.296 69.0495C284.337 70.087 284.364 71.1109 284.404 72.1214C283.811 72.1214 283.232 72.1483 282.639 72.1483C282.046 72.1483 281.467 72.1483 280.874 72.1753C280.834 71.1379 280.793 70.1274 280.753 69.1035C281.346 69.09 281.925 69.09 282.518 69.0765H282.531ZM284.431 77.2412C283.838 77.2412 283.246 77.2412 282.653 77.2412C282.06 77.2412 281.467 77.2681 280.874 77.2681C280.834 76.2577 280.793 75.2202 280.766 74.1962C281.359 74.1693 281.952 74.1693 282.545 74.1693C283.138 74.1693 283.731 74.1693 284.323 74.1424C284.364 75.1663 284.391 76.2037 284.431 77.2142V77.2412ZM278.436 43.4912H280.12C280.12 44.5151 280.12 45.5525 280.133 46.5765H276.765C276.765 45.5525 276.765 44.5151 276.751 43.4912H278.436ZM278.247 48.6109H279.945C279.958 49.6349 279.972 50.6723 279.999 51.6827C279.433 51.6827 278.867 51.6827 278.301 51.6827C277.735 51.6827 277.169 51.6827 276.603 51.6827C276.576 50.6588 276.563 49.6214 276.549 48.5974H278.247V48.6109ZM278.112 53.7307C278.678 53.7307 279.257 53.7307 279.837 53.7307C279.864 54.7546 279.891 55.792 279.918 56.816H276.482C276.455 55.792 276.428 54.7681 276.401 53.7442C276.981 53.7442 277.546 53.7442 278.126 53.7442L278.112 53.7307ZM278.031 58.8504H279.769C279.796 59.8744 279.837 60.9118 279.864 61.9358H276.401C276.361 60.9118 276.334 59.8744 276.293 58.8504H278.031ZM277.978 63.9702H279.729C279.769 64.9942 279.81 66.0316 279.837 67.0555H276.334C276.293 66.0316 276.253 64.9942 276.213 63.9702H277.964H277.978ZM277.951 69.09H279.716C279.756 70.1139 279.796 71.1513 279.837 72.1753H276.307C276.266 71.1513 276.226 70.1139 276.186 69.09H277.951ZM277.924 74.2097H279.702C279.743 75.2337 279.783 76.2711 279.823 77.2815H276.266C276.226 76.2711 276.186 75.2337 276.145 74.2097H277.924ZM277.897 79.3295H279.689C279.729 80.3534 279.756 81.3909 279.796 82.4014H276.213C276.172 81.3774 276.145 80.3534 276.105 79.3295H277.897ZM277.856 84.4492H279.662C279.689 85.4732 279.716 86.5106 279.743 87.5211C279.136 87.5211 278.53 87.5211 277.937 87.5211C277.331 87.5211 276.738 87.5211 276.132 87.5211C276.105 86.5106 276.078 85.4866 276.037 84.4492H277.843H277.856ZM277.775 89.569C278.382 89.569 278.988 89.569 279.594 89.569C279.621 90.593 279.635 91.6034 279.648 92.6409H275.997C275.984 91.6169 275.957 90.593 275.93 89.569H277.749H277.775ZM277.641 94.6888H279.487C279.487 95.7127 279.5 96.7367 279.5 97.7606H275.822C275.822 96.7367 275.822 95.7127 275.795 94.6888H277.641ZM275.593 99.8085H279.311C279.311 100.846 279.311 101.856 279.311 102.88H275.579C275.579 101.856 275.579 100.832 275.593 99.8085ZM275.323 104.928H279.109C279.109 105.952 279.109 106.976 279.096 108H275.283C275.296 106.976 275.31 105.952 275.323 104.928ZM275 110.048H278.88C278.88 111.072 278.853 112.096 278.853 113.12H274.933C274.96 112.096 274.987 111.059 275 110.048ZM274.623 115.168H278.611C278.611 116.192 278.584 117.216 278.557 118.24H274.515C274.542 117.216 274.582 116.178 274.609 115.168H274.623ZM274.205 120.288H278.314C278.301 121.312 278.274 122.335 278.247 123.373H274.084C274.124 122.335 274.165 121.312 274.192 120.288H274.205ZM273.76 125.394H277.991C277.964 126.431 277.937 127.455 277.924 128.479H273.639C273.68 127.455 273.72 126.418 273.76 125.394ZM273.289 130.514H277.641C277.614 131.538 277.587 132.575 277.546 133.599C276.819 133.599 276.078 133.599 275.35 133.599C274.623 133.599 273.882 133.599 273.154 133.599C273.195 132.575 273.235 131.538 273.275 130.5L273.289 130.514ZM276.024 154.091H273.801C273.06 154.091 272.319 154.091 271.591 154.118C271.591 153.094 271.591 152.07 271.605 151.047C272.359 151.047 273.1 151.047 273.855 151.047H276.105C276.078 152.07 276.037 153.108 276.01 154.118L276.024 154.091ZM276.401 148.985H274.151C273.397 148.985 272.656 148.985 271.901 148.985C271.915 147.948 271.942 146.924 271.955 145.9C272.71 145.9 273.464 145.9 274.219 145.9H276.482C276.455 146.924 276.415 147.961 276.388 148.985H276.401ZM276.792 143.865H274.542C273.787 143.865 273.046 143.865 272.292 143.865C272.319 142.841 272.359 141.804 272.386 140.78C273.141 140.78 273.895 140.78 274.636 140.78H276.9C276.873 141.804 276.832 142.841 276.805 143.865H276.792ZM277.183 138.746H272.723C272.763 137.722 272.79 136.684 272.831 135.66H275.054C275.795 135.66 276.536 135.66 277.277 135.66C277.25 136.684 277.21 137.735 277.183 138.759V138.746ZM281.763 153.943C281.022 153.984 280.281 154.024 279.54 154.065C278.799 154.091 278.072 154.091 277.331 154.091C277.371 153.081 277.398 152.057 277.439 151.02C278.193 151.02 278.934 151.02 279.689 150.993C280.443 150.966 281.184 150.912 281.939 150.871C281.871 151.895 281.817 152.933 281.75 153.943H281.763ZM282.222 148.824C281.467 148.864 280.726 148.931 279.972 148.958C279.217 148.985 278.476 148.985 277.722 148.985C277.762 147.961 277.789 146.924 277.829 145.9C278.584 145.9 279.338 145.9 280.093 145.859C280.847 145.832 281.602 145.765 282.356 145.738C282.316 146.762 282.262 147.786 282.208 148.81L282.222 148.824ZM282.612 143.69C281.858 143.731 281.103 143.785 280.362 143.825C279.608 143.852 278.867 143.865 278.112 143.865C278.153 142.841 278.18 141.804 278.22 140.78C278.975 140.78 279.729 140.753 280.47 140.726C281.225 140.686 281.979 140.645 282.734 140.618C282.693 141.642 282.666 142.666 282.626 143.69H282.612ZM282.949 138.571C282.208 138.597 281.454 138.651 280.713 138.678C279.972 138.705 279.231 138.732 278.476 138.732C278.503 137.708 278.543 136.671 278.57 135.647C279.311 135.647 280.052 135.633 280.793 135.593C281.534 135.566 282.275 135.512 283.016 135.485C283.003 136.509 282.976 137.533 282.949 138.571ZM283.232 133.451C282.504 133.491 281.777 133.532 281.036 133.559C280.308 133.585 279.567 133.612 278.84 133.612C278.867 132.588 278.894 131.551 278.921 130.527C279.648 130.527 280.376 130.5 281.09 130.473C281.817 130.446 282.545 130.406 283.259 130.379C283.259 131.403 283.232 132.427 283.219 133.451H283.232ZM283.461 128.331C282.747 128.358 282.033 128.398 281.319 128.425C280.605 128.466 279.891 128.479 279.177 128.493C279.204 127.469 279.217 126.431 279.244 125.407C279.945 125.407 280.659 125.38 281.359 125.353C282.06 125.327 282.774 125.286 283.475 125.259C283.475 126.283 283.475 127.307 283.461 128.344V128.331ZM281.561 123.319C280.874 123.359 280.174 123.359 279.487 123.373C279.5 122.335 279.513 121.312 279.527 120.288C280.214 120.288 280.901 120.261 281.588 120.234C282.275 120.193 282.963 120.166 283.65 120.139C283.65 121.15 283.65 122.174 283.65 123.198C282.963 123.238 282.262 123.265 281.561 123.292V123.319ZM281.777 118.186C281.103 118.213 280.43 118.226 279.756 118.253C279.756 117.229 279.783 116.192 279.796 115.181C280.457 115.181 281.13 115.154 281.79 115.127C282.451 115.087 283.124 115.06 283.784 115.033C283.784 116.044 283.784 117.068 283.798 118.105C283.124 118.132 282.451 118.159 281.777 118.186ZM281.966 113.066C281.319 113.093 280.659 113.106 280.012 113.12C280.012 112.096 280.012 111.059 280.039 110.048C280.686 110.048 281.332 110.021 281.979 109.994C282.626 109.967 283.272 109.94 283.919 109.927C283.919 110.937 283.919 111.961 283.946 112.985C283.299 113.012 282.639 113.039 281.979 113.066H281.966ZM282.141 107.933C281.507 107.96 280.874 107.987 280.228 108C280.228 106.976 280.228 105.952 280.228 104.928C280.861 104.928 281.494 104.901 282.114 104.874C282.747 104.847 283.38 104.82 284.013 104.82C284.013 105.844 284.027 106.855 284.04 107.892C283.407 107.892 282.774 107.919 282.141 107.946V107.933ZM282.302 102.826C281.683 102.853 281.063 102.853 280.443 102.88V99.7951C281.063 99.7681 281.683 99.7681 282.302 99.7412C282.922 99.7142 283.542 99.7007 284.162 99.6872C284.162 100.725 284.162 101.735 284.162 102.759C283.542 102.786 282.922 102.8 282.289 102.826H282.302ZM282.464 97.7067C281.844 97.7337 281.238 97.7337 280.618 97.7606C280.618 96.7367 280.618 95.7127 280.605 94.6888C281.225 94.6618 281.831 94.6483 282.451 94.6348C283.057 94.6214 283.677 94.608 284.296 94.608C284.296 95.6184 284.296 96.6423 284.31 97.6798C283.69 97.6798 283.084 97.7068 282.464 97.7202V97.7067ZM282.585 92.587C281.979 92.6005 281.373 92.6274 280.766 92.6274C280.753 91.6034 280.726 90.593 280.713 89.5556C281.319 89.5556 281.925 89.5286 282.531 89.5151C283.138 89.5016 283.744 89.4882 284.364 89.4747C284.377 90.5122 284.404 91.5226 284.418 92.5465C283.811 92.5465 283.205 92.56 282.599 92.5735L282.585 92.587ZM282.653 87.4672C282.046 87.4806 281.454 87.4942 280.847 87.5211C280.82 86.4972 280.793 85.4732 280.766 84.4357C281.373 84.4357 281.979 84.4088 282.572 84.3954C283.178 84.3819 283.784 84.3684 284.377 84.3684C284.404 85.3923 284.431 86.4298 284.458 87.4403C283.852 87.4403 283.259 87.4537 282.653 87.4672ZM282.68 82.3474C282.087 82.3474 281.481 82.3744 280.888 82.3744C280.861 81.3504 280.82 80.3265 280.78 79.3025C281.373 79.3025 281.979 79.2756 282.572 79.2621C283.165 79.2621 283.771 79.2621 284.364 79.2352C284.391 80.2591 284.431 81.2966 284.458 82.3071C283.865 82.3071 283.259 82.307 282.666 82.3339L282.68 82.3474ZM282.828 46.5495H281.144C281.144 45.5256 281.144 44.4882 281.144 43.4642H284.512C284.512 44.4882 284.512 45.5256 284.512 46.5495H282.828Z" fill="#3A383E"/>
<path fill-rule="evenodd" clip-rule="evenodd" d="M320 156.005H316.753V115.249H305.489C303.145 87.4402 301.784 56.7486 302.646 37.5225H303.792V32.524H297.998V26.5824H289.874L289.2 13.4865L288.5 0L288.473 0.45812V165.665H320V156.018V156.005ZM303.845 133.72C303.118 133.72 302.377 133.72 301.649 133.72C300.922 133.72 300.181 133.72 299.453 133.72C299.426 132.696 299.399 131.659 299.359 130.635H303.711C303.751 131.672 303.792 132.71 303.832 133.734L303.845 133.72ZM303.374 128.587H299.089C299.062 127.563 299.036 126.525 299.009 125.502H303.253C303.293 126.539 303.333 127.563 303.374 128.587ZM302.916 123.467H298.753C298.726 122.43 298.712 121.406 298.685 120.382H302.795C302.835 121.406 302.875 122.43 302.902 123.467H302.916ZM302.485 118.334H298.443C298.429 117.31 298.402 116.272 298.402 115.262H302.39C302.417 116.286 302.458 117.31 302.485 118.334ZM302.08 113.214H298.16C298.16 112.19 298.133 111.153 298.119 110.142H302C302.027 111.166 302.053 112.19 302.067 113.214H302.08ZM301.73 108.094H297.917C297.917 107.07 297.904 106.046 297.904 105.022H301.69C301.69 106.046 301.717 107.07 301.73 108.094ZM301.42 102.975H297.688C297.688 101.951 297.688 100.927 297.688 99.9027H301.407C301.407 100.94 301.407 101.951 301.407 102.975H301.42ZM301.178 97.8548H297.5C297.5 96.8308 297.5 95.8069 297.527 94.783H301.205C301.191 95.8069 301.191 96.8308 301.178 97.8548ZM300.989 92.7351H297.338C297.351 91.7111 297.378 90.6871 297.392 89.6632C297.998 89.6632 298.604 89.6632 299.211 89.6632H301.043C301.016 90.6871 301.003 91.7111 300.976 92.7351H300.989ZM300.854 87.6153C300.262 87.6153 299.655 87.6153 299.049 87.6153C298.443 87.6153 297.85 87.6153 297.244 87.6153C297.271 86.5914 297.298 85.5674 297.324 84.5434H300.949C300.922 85.5674 300.881 86.6048 300.854 87.6153ZM300.774 82.4956H297.19C297.217 81.4716 297.257 80.4476 297.298 79.4237H300.895C300.854 80.4476 300.814 81.4851 300.787 82.4956H300.774ZM300.72 77.3757H297.163C297.203 76.3653 297.244 75.3279 297.284 74.3039H300.841C300.801 75.3279 300.76 76.3653 300.72 77.3757ZM300.679 72.256H297.149C297.19 71.232 297.23 70.1946 297.271 69.1707H300.8C300.76 70.1946 300.72 71.232 300.679 72.256ZM300.639 67.1363H297.136C297.176 66.1123 297.217 65.0749 297.244 64.0509H300.747C300.706 65.0749 300.666 66.1123 300.625 67.1363H300.639ZM300.585 62.003H297.122C297.163 60.9791 297.19 59.9417 297.217 58.9177H300.693C300.652 59.9417 300.625 60.9791 300.585 62.003ZM300.504 56.8833H297.068C297.095 55.8593 297.122 54.8218 297.149 53.7979C297.729 53.7979 298.295 53.7979 298.874 53.7979C299.453 53.7979 300.019 53.7979 300.598 53.7979C300.571 54.8218 300.545 55.8458 300.518 56.8698L300.504 56.8833ZM300.383 51.7635C299.817 51.7635 299.251 51.7635 298.685 51.7635C298.119 51.7635 297.554 51.7635 296.988 51.7635C297.015 50.7395 297.028 49.7156 297.042 48.6916H300.45C300.437 49.7156 300.423 50.753 300.396 51.7769L300.383 51.7635ZM296.866 43.5584H300.235C300.235 44.5824 300.235 45.6198 300.221 46.6437H296.853C296.853 45.6198 296.853 44.5824 296.866 43.5584ZM296.112 72.2425C295.519 72.2425 294.94 72.2156 294.347 72.2156C293.754 72.2156 293.175 72.2156 292.582 72.1886C292.622 71.1647 292.649 70.1407 292.69 69.1168C293.283 69.1168 293.875 69.1302 294.455 69.1437C295.048 69.1437 295.627 69.1438 296.22 69.1707C296.179 70.1946 296.139 71.2186 296.098 72.2425H296.112ZM296.22 74.2904C296.179 75.3144 296.139 76.3383 296.112 77.3623C295.519 77.3623 294.926 77.3354 294.333 77.3354C293.741 77.3354 293.148 77.3354 292.555 77.3354C292.595 76.3114 292.622 75.2874 292.663 74.2635C293.256 74.2635 293.848 74.2904 294.441 74.2904C295.034 74.2904 295.627 74.2905 296.22 74.3174V74.2904ZM296.112 67.1228C295.533 67.1228 294.94 67.1093 294.36 67.0958C293.781 67.0958 293.202 67.0958 292.609 67.0958C292.649 66.0584 292.676 65.0344 292.717 64.0105C293.296 64.0105 293.889 64.0105 294.468 64.0105C295.048 64.0105 295.64 64.0105 296.22 64.0375C296.179 65.0614 296.139 66.0988 296.112 67.1228ZM296.112 61.9895C295.533 61.9895 294.953 61.9895 294.374 61.9895C293.795 61.9895 293.215 61.976 292.636 61.976C292.663 60.9521 292.703 59.9147 292.73 58.9042C293.309 58.9042 293.889 58.9042 294.468 58.9042C295.048 58.9042 295.627 58.9042 296.206 58.9042C296.179 59.9282 296.139 60.9656 296.112 61.9895ZM296.085 56.8698H294.374C293.808 56.8698 293.229 56.8698 292.663 56.8698C292.69 55.8458 292.717 54.8218 292.73 53.7844C293.309 53.7844 293.875 53.7844 294.455 53.7844C295.034 53.7844 295.6 53.7844 296.179 53.7844C296.152 54.8084 296.125 55.8324 296.098 56.8698H296.085ZM296.018 51.75H294.32C293.754 51.75 293.188 51.75 292.622 51.75C292.636 50.7261 292.649 49.7021 292.663 48.6647C293.229 48.6647 293.795 48.6647 294.36 48.6647C294.926 48.6647 295.492 48.6647 296.058 48.6647C296.045 49.6886 296.031 50.7261 296.004 51.7366L296.018 51.75ZM292.542 43.5449H295.91C295.91 44.5689 295.91 45.6063 295.896 46.6302H292.528C292.528 45.6063 292.528 44.5689 292.528 43.5449H292.542ZM292.663 79.3294C293.256 79.3294 293.862 79.3294 294.455 79.3563C295.048 79.3563 295.654 79.3832 296.247 79.3967C296.206 80.4206 296.179 81.4446 296.139 82.4686C295.546 82.4686 294.94 82.4416 294.347 82.4416C293.754 82.4416 293.148 82.4146 292.555 82.4146C292.582 81.3907 292.622 80.3668 292.649 79.3428L292.663 79.3294ZM292.663 84.4491C293.269 84.4491 293.875 84.4626 294.468 84.4761C295.074 84.4895 295.681 84.5031 296.274 84.5165C296.247 85.5405 296.22 86.5779 296.193 87.6018C295.586 87.5749 294.994 87.5614 294.387 87.548C293.781 87.5345 293.175 87.521 292.582 87.521C292.609 86.5105 292.636 85.4865 292.663 84.4491ZM292.69 89.5554C293.296 89.5554 293.916 89.5689 294.522 89.5958C295.128 89.6093 295.735 89.6363 296.341 89.6363C296.314 90.6602 296.301 91.6707 296.287 92.7081C295.681 92.7081 295.074 92.6812 294.468 92.6677C293.862 92.6542 293.256 92.6407 292.649 92.6407C292.649 91.6168 292.676 90.6063 292.703 89.5689L292.69 89.5554ZM292.771 94.6752C293.39 94.6752 293.997 94.6887 294.616 94.7021C295.236 94.7156 295.842 94.7291 296.462 94.756C296.462 95.78 296.449 96.8039 296.449 97.8278C295.829 97.8009 295.223 97.8009 294.603 97.774C293.983 97.747 293.377 97.7336 292.757 97.7336C292.757 96.7096 292.757 95.6856 292.771 94.6617V94.6752ZM292.905 99.7814C293.525 99.7814 294.145 99.8084 294.765 99.8354C295.384 99.8623 296.004 99.8623 296.624 99.8892V102.975C296.004 102.948 295.384 102.948 294.765 102.921C294.145 102.894 293.525 102.88 292.892 102.853C292.892 101.829 292.892 100.819 292.892 99.7814H292.905ZM293.027 104.901C293.66 104.901 294.293 104.928 294.913 104.955C295.546 104.982 296.179 104.996 296.799 105.009C296.799 106.033 296.799 107.057 296.799 108.081C296.166 108.081 295.533 108.04 294.886 108.013C294.253 107.987 293.619 107.973 292.973 107.96C292.973 106.936 292.986 105.925 293 104.888L293.027 104.901ZM293.148 110.021C293.795 110.021 294.441 110.061 295.088 110.088C295.735 110.115 296.381 110.129 297.028 110.142C297.028 111.153 297.028 112.19 297.055 113.214C296.395 113.214 295.748 113.187 295.101 113.16C294.455 113.133 293.795 113.106 293.134 113.079C293.134 112.055 293.148 111.018 293.161 110.021H293.148ZM293.269 115.127C293.929 115.154 294.603 115.181 295.263 115.222C295.923 115.249 296.597 115.262 297.257 115.275C297.257 116.299 297.284 117.323 297.298 118.347C296.624 118.32 295.95 118.307 295.277 118.28C294.603 118.253 293.929 118.226 293.256 118.199C293.256 117.162 293.256 116.151 293.269 115.127ZM293.404 120.26C294.091 120.274 294.778 120.314 295.465 120.355C296.152 120.382 296.839 120.395 297.513 120.409C297.527 121.433 297.54 122.457 297.567 123.494C296.88 123.494 296.179 123.467 295.492 123.44C294.792 123.413 294.104 123.373 293.404 123.346C293.404 122.322 293.404 121.284 293.404 120.287V120.26ZM293.565 125.367C294.266 125.407 294.98 125.434 295.681 125.461C296.381 125.488 297.095 125.502 297.796 125.515C297.809 126.552 297.836 127.576 297.863 128.6C297.149 128.6 296.435 128.573 295.721 128.533C295.007 128.506 294.293 128.466 293.579 128.439C293.579 127.401 293.565 126.377 293.565 125.353V125.367ZM293.768 130.487C294.495 130.514 295.223 130.554 295.95 130.581C296.678 130.608 297.405 130.635 298.119 130.635C298.146 131.659 298.173 132.696 298.2 133.72C297.473 133.72 296.732 133.693 296.004 133.666C295.277 133.639 294.536 133.585 293.808 133.558C293.795 132.534 293.781 131.497 293.768 130.487ZM294.01 135.606C294.751 135.647 295.492 135.687 296.233 135.714C296.974 135.741 297.715 135.768 298.456 135.768C298.483 136.792 298.51 137.829 298.551 138.853C297.809 138.853 297.055 138.826 296.314 138.799C295.573 138.772 294.832 138.719 294.077 138.692C294.051 137.654 294.024 136.63 294.01 135.606ZM294.306 140.74C295.061 140.766 295.815 140.82 296.556 140.847C297.311 140.874 298.065 140.901 298.806 140.901C298.833 141.925 298.874 142.963 298.914 143.987C298.16 143.987 297.405 143.987 296.664 143.946C295.91 143.906 295.169 143.852 294.414 143.811C294.374 142.787 294.347 141.75 294.306 140.74ZM294.67 145.873C295.425 145.9 296.179 145.967 296.934 145.994C297.688 146.021 298.443 146.034 299.197 146.034C299.238 147.058 299.265 148.096 299.305 149.12C298.551 149.12 297.809 149.12 297.055 149.093C296.3 149.052 295.559 148.999 294.805 148.958C294.751 147.934 294.697 146.91 294.657 145.886L294.67 145.873ZM297.486 154.186C296.745 154.145 296.004 154.105 295.263 154.064C295.209 153.054 295.142 152.03 295.088 150.993C295.842 151.033 296.583 151.087 297.338 151.114C298.092 151.141 298.833 151.141 299.588 151.141C299.628 152.165 299.655 153.202 299.696 154.213C298.955 154.213 298.214 154.213 297.486 154.186ZM299.75 135.768C300.491 135.768 301.232 135.768 301.973 135.768H304.196C304.236 136.792 304.277 137.829 304.304 138.853H299.844C299.817 137.829 299.777 136.778 299.75 135.755V135.768ZM300.127 140.901H302.377C303.131 140.901 303.886 140.901 304.627 140.901C304.654 141.939 304.694 142.963 304.721 143.987C303.967 143.987 303.212 143.987 302.471 143.987H300.221C300.194 142.963 300.154 141.925 300.127 140.901ZM300.518 146.021H302.781C303.536 146.021 304.29 146.021 305.045 146.021C305.071 147.045 305.085 148.082 305.098 149.106C304.344 149.106 303.603 149.106 302.848 149.106H300.598C300.571 148.082 300.531 147.045 300.504 146.021H300.518ZM303.199 154.213H300.976C300.949 153.202 300.908 152.178 300.881 151.141H303.131C303.886 151.141 304.627 151.141 305.381 151.141C305.381 152.165 305.381 153.202 305.395 154.213C304.654 154.213 303.926 154.186 303.185 154.186L303.199 154.213ZM315.58 153.647H310.42V151.141H315.58V153.647ZM315.607 148.514H309.827V145.994H315.607V148.514ZM315.634 143.38H309.248V140.847H315.634V143.38ZM315.661 138.247H308.655V135.714H315.661V138.247ZM315.688 133.127H308.076V130.581H315.688V133.127ZM315.715 127.994H307.483V125.448H315.715V127.994ZM315.742 122.861H306.904V120.301H315.742V122.861Z" fill="#3A383E"/>
<path d="M223.587 142.931C223.613 142.414 223.362 141.977 223.004 141.924H222.911L223.905 134.373C224.011 134.333 224.09 134.227 224.143 134.082L224.752 134.174V134.029C224.832 133.512 224.633 133.035 224.289 132.916C224.726 131.962 225.68 131.393 226.66 131.565H226.739C226.739 131.565 226.845 131.618 226.898 131.631L227.442 127.418L225.653 127.127C225.653 126.862 225.6 126.597 225.468 126.412C225.362 126.253 225.216 126.16 225.07 126.134H224.978L225.971 118.583C226.064 118.543 226.157 118.437 226.196 118.291L226.806 118.397L226.832 118.252C226.898 117.735 226.686 117.258 226.355 117.139C226.792 116.185 227.746 115.616 228.726 115.788H228.806C228.806 115.788 228.899 115.841 228.938 115.841L229.482 111.628L227.706 111.337C227.706 111.059 227.654 110.794 227.534 110.608C227.428 110.449 227.283 110.357 227.124 110.33H227.031L228.024 102.779C228.13 102.74 228.21 102.634 228.263 102.488L228.872 102.594V102.448C228.938 102.13 228.872 101.812 228.726 101.587C228.647 101.455 228.541 101.375 228.409 101.336C228.846 100.382 229.799 99.8121 230.78 99.9843H230.859C230.859 99.9843 230.939 100.037 230.978 100.037L231.522 95.8249L229.773 95.5467C229.799 95.242 229.747 94.9506 229.601 94.7386C229.495 94.5797 229.362 94.4869 229.203 94.4604H229.111L230.104 86.9097C230.197 86.87 230.29 86.764 230.343 86.6183L230.952 86.7242L230.978 86.5785C231.045 86.0487 230.846 85.5851 230.502 85.4658C230.952 84.5121 231.892 83.9424 232.873 84.1014H232.952C232.952 84.1014 233.018 84.1411 233.058 84.1543L233.601 79.9419L231.866 79.6637C231.892 79.1471 231.641 78.7099 231.283 78.657H231.19L232.184 71.1063C232.29 71.0665 232.369 70.9606 232.422 70.8149L233.032 70.9075V70.7618C233.124 70.2452 232.912 69.7684 232.568 69.6491C233.005 68.6954 233.959 68.1257 234.939 68.2847H235.019C235.019 68.2847 235.072 68.3245 235.111 68.3245L235.655 64.1252L233.933 63.847C233.946 63.3436 233.707 62.9065 233.35 62.8535H233.257L234.25 55.3028C234.356 55.2631 234.436 55.1571 234.476 55.0113L235.085 55.1041V54.9584C235.178 54.3888 234.926 53.8854 234.529 53.8192H234.489C234.952 52.7992 235.946 52.1633 237.019 52.3488H237.098C237.098 52.3488 237.151 52.3885 237.178 52.3885L240.993 23.0071L222.5 20C222.408 20.159 222.355 20.3577 222.328 20.5564C222.222 21.391 222.739 22.1593 223.481 22.2785L224.09 22.3712L223.587 26.1995L223.15 26.1333C222.699 26.067 222.275 26.5307 222.183 27.193V27.3388L222.712 27.4315C222.712 27.6435 222.779 27.8289 222.885 27.9481L220.712 44.5199C220.302 44.4669 219.917 44.8643 219.798 45.4339L213.983 44.4934C213.559 44.4272 213.161 44.7584 213.108 45.222C213.082 45.4472 213.135 45.6724 213.254 45.8578C213.373 46.0433 213.559 46.1625 213.758 46.2022L214.168 46.2685L213.784 49.1695C213.996 49.5272 214.115 50.0041 214.155 50.534H214.102C213.718 50.4678 213.334 50.8651 213.254 51.4348V51.5805L213.837 51.6865C213.837 51.8322 213.903 51.9646 213.983 52.0441L212.989 59.5815H212.897C212.738 59.5418 212.579 59.5815 212.446 59.7008C212.274 59.8465 212.155 60.0716 212.088 60.3233L211.89 60.2969C211.466 60.2307 211.068 60.5618 211.015 61.0254C210.989 61.2506 211.042 61.4758 211.161 61.6613C211.28 61.8467 211.466 61.966 211.665 62.0057L211.943 62.0455L211.559 64.9995L211.585 65.0524C211.784 65.3969 211.903 65.8473 211.93 66.3242C211.797 66.3242 211.665 66.3771 211.559 66.4699C211.36 66.6288 211.214 66.9203 211.174 67.2382V67.3839L211.757 67.4766C211.757 67.6356 211.824 67.7548 211.903 67.8343L210.91 75.3718H210.817C210.658 75.332 210.499 75.3717 210.353 75.4909C210.181 75.6367 210.048 75.8618 209.995 76.1268L209.797 76.1003C209.373 76.0341 208.975 76.3652 208.922 76.8289C208.856 77.3058 209.161 77.7429 209.585 77.8091L209.863 77.8621L209.479 80.8162L209.505 80.8692C209.704 81.2136 209.823 81.664 209.85 82.1409C209.717 82.1409 209.585 82.1938 209.466 82.2866C209.267 82.4588 209.121 82.737 209.081 83.0549V83.2006L209.664 83.2933C209.664 83.4523 209.731 83.5716 209.81 83.651L208.817 91.1885H208.724C208.565 91.1487 208.406 91.1884 208.273 91.3077C208.088 91.4666 207.942 91.7183 207.902 92.023L207.717 91.9965C207.518 91.9568 207.306 92.023 207.147 92.1555C206.975 92.2879 206.869 92.4999 206.843 92.7251C206.816 92.9503 206.869 93.1754 206.988 93.3609C207.108 93.5463 207.293 93.6656 207.505 93.7053L207.783 93.7451L207.399 96.6991L207.426 96.7521C207.624 97.0965 207.744 97.5337 207.77 98.0238C207.412 98.0238 207.081 98.408 207.015 98.9378L206.988 99.0835L207.598 99.1763C207.598 99.322 207.664 99.4545 207.744 99.534L206.75 107.071H206.657C206.3 107.005 205.955 107.35 205.836 107.84L205.637 107.813C205.213 107.747 204.816 108.078 204.763 108.542C204.697 109.019 204.988 109.456 205.412 109.522L205.69 109.562L205.306 112.516L205.333 112.569C205.531 112.913 205.651 113.364 205.677 113.841C205.319 113.841 204.988 114.225 204.922 114.755V114.9L205.505 114.993C205.505 115.152 205.571 115.271 205.651 115.351L204.657 122.888H204.564C204.405 122.848 204.246 122.888 204.101 123.007C203.928 123.153 203.809 123.378 203.743 123.63L203.544 123.59C203.12 123.524 202.723 123.855 202.67 124.319C202.604 124.782 202.908 125.233 203.319 125.299L203.597 125.352L203.213 128.306L203.24 128.346C203.438 128.69 203.558 129.141 203.584 129.617C203.226 129.617 202.895 130.015 202.829 130.531L202.802 130.677L203.412 130.783C203.412 130.929 203.478 131.061 203.558 131.128L202.564 138.665H202.471C202.114 138.599 201.769 138.93 201.65 139.433L201.451 139.407C201.027 139.341 200.63 139.672 200.577 140.135C200.551 140.361 200.603 140.599 200.723 140.784C200.842 140.97 201.027 141.089 201.226 141.116L225.057 144.997L225.282 143.288L223.481 142.997L223.587 142.931ZM225.004 118.08C225.004 118.225 225.07 118.358 225.15 118.437L224.156 125.975H224.064C223.706 125.908 223.362 126.24 223.256 126.73L220.143 126.226C220.156 125.723 219.917 125.286 219.56 125.233H219.467L220.46 117.682C220.553 117.642 220.646 117.536 220.699 117.391L221.308 117.497V117.351C221.401 116.821 221.176 116.344 220.831 116.225C221.282 115.271 222.222 114.715 223.203 114.874H223.295C224.289 115.046 225.044 115.894 225.216 116.94C225.07 116.94 224.938 116.98 224.805 117.086C224.607 117.258 224.461 117.536 224.421 117.854V118L225.004 118.093V118.08ZM211.082 114.834C210.976 114.675 210.83 114.582 210.671 114.556H210.645C211.029 113.602 211.797 113.006 212.592 113.138H212.658C213.453 113.271 214.036 114.092 214.155 115.125C213.771 115.072 213.4 115.47 213.334 116.039V116.185L213.917 116.291C213.917 116.437 213.983 116.569 214.062 116.649L213.069 124.186H212.976C212.817 124.147 212.658 124.186 212.526 124.319C212.353 124.464 212.234 124.676 212.168 124.941L210.048 124.597C210.048 124.332 209.996 124.067 209.863 123.882C209.757 123.723 209.625 123.63 209.466 123.603H209.373L210.366 116.053C210.459 116.013 210.552 115.907 210.592 115.761L211.201 115.867V115.722C211.267 115.404 211.201 115.086 211.055 114.861L211.082 114.834ZM213.148 99.0173C213.042 98.8584 212.897 98.7656 212.751 98.7391H212.724C213.108 97.7853 213.877 97.1892 214.672 97.3217H214.738C215.533 97.4674 216.116 98.2755 216.235 99.3087C215.851 99.2557 215.48 99.6664 215.413 100.223V100.369L215.996 100.474C215.996 100.62 216.063 100.753 216.142 100.832L215.162 108.37H215.069C214.91 108.33 214.751 108.37 214.619 108.489C214.446 108.635 214.314 108.86 214.261 109.138L212.155 108.793C212.181 108.277 211.93 107.84 211.572 107.787H211.479L212.473 100.236C212.565 100.196 212.658 100.09 212.698 99.9446L213.307 100.051L213.334 99.9048C213.373 99.5869 213.307 99.269 213.161 99.0438L213.148 99.0173ZM214.831 82.8429H214.804C215.188 81.8759 215.957 81.293 216.751 81.4255H216.818C217.612 81.5712 218.195 82.3793 218.314 83.4125C217.93 83.3595 217.559 83.7702 217.493 84.3266L217.467 84.4723L218.076 84.5782C218.076 84.724 218.142 84.8565 218.222 84.9359L217.228 92.4734H217.136C216.977 92.4336 216.818 92.4734 216.685 92.6058C216.5 92.7648 216.354 93.0165 216.314 93.3212L214.208 92.9768C214.234 92.6721 214.181 92.3807 214.036 92.1687C213.93 92.0098 213.797 91.917 213.638 91.8905H213.546L214.539 84.3266C214.645 84.2868 214.725 84.1809 214.778 84.0352L215.387 84.1412V83.9954C215.48 83.4258 215.228 82.9224 214.831 82.8562V82.8429ZM217.308 67.3044C217.202 67.1455 217.069 67.0527 216.91 67.0262H216.884C217.268 66.0724 218.036 65.4763 218.831 65.6088H218.897C219.692 65.7545 220.275 66.5626 220.394 67.5958C220.249 67.5693 220.09 67.6224 219.957 67.7416C219.758 67.9138 219.613 68.1919 219.573 68.5098L219.546 68.6556L220.156 68.7615C220.156 68.9073 220.222 69.0397 220.302 69.106L219.308 76.6434H219.215C218.858 76.5772 218.513 76.9216 218.394 77.4118L216.288 77.0673C216.314 76.5507 216.063 76.1135 215.705 76.0606H215.612L216.606 68.4967C216.698 68.4569 216.791 68.3509 216.831 68.2052L217.44 68.3112V68.1655C217.506 67.8476 217.44 67.5296 217.294 67.3044H217.308ZM221.507 67.7813C221.944 66.8275 222.898 66.2712 223.878 66.4302H223.958C224.951 66.6024 225.706 67.4502 225.892 68.4967C225.534 68.4967 225.203 68.8808 225.137 69.4107L225.11 69.5564L225.719 69.6491C225.719 69.7948 225.786 69.9273 225.865 70.0067L224.872 77.5442H224.779C224.421 77.4647 224.077 77.8091 223.958 78.3125L220.805 77.7959C220.805 77.5177 220.752 77.266 220.619 77.0673C220.513 76.9084 220.368 76.8156 220.209 76.7891H220.116L221.11 69.2252C221.202 69.1855 221.295 69.0795 221.335 68.9338L221.944 69.0398V68.8941C222.037 68.3642 221.812 67.8873 221.467 67.768L221.507 67.7813ZM223.653 85.479C223.653 85.638 223.719 85.7572 223.799 85.8367L222.805 93.3742H222.712C222.342 93.2947 221.971 93.6788 221.878 94.222L218.738 93.7053C218.791 93.1622 218.54 92.6721 218.156 92.6191H218.063L219.056 85.0552C219.162 85.0155 219.242 84.9094 219.295 84.7637L219.904 84.8697V84.724C219.97 84.3929 219.904 84.0881 219.758 83.8629C219.666 83.7305 219.56 83.6377 219.427 83.598C219.864 82.6442 220.818 82.0879 221.798 82.2469H221.878C222.871 82.4191 223.626 83.2669 223.812 84.3134C223.454 84.3134 223.123 84.6975 223.057 85.2274V85.3731L223.64 85.4658L223.653 85.479ZM221.573 101.375C221.573 101.521 221.639 101.653 221.719 101.733L220.725 109.27H220.633C220.275 109.191 219.931 109.535 219.811 110.039L216.659 109.522C216.672 109.244 216.606 108.979 216.473 108.793C216.367 108.635 216.235 108.542 216.076 108.515H215.983L216.977 100.965C217.083 100.925 217.162 100.819 217.215 100.673L217.824 100.766V100.62C217.917 100.104 217.692 99.6134 217.361 99.4942C217.798 98.5404 218.738 97.9841 219.732 98.1431H219.811C220.805 98.3153 221.56 99.1631 221.745 100.21C221.388 100.21 221.057 100.594 220.99 101.124V101.269L221.573 101.362V101.375ZM214.91 116.781C215.003 116.742 215.096 116.636 215.135 116.49L215.745 116.583L215.771 116.437C215.811 116.119 215.758 115.801 215.599 115.576C215.519 115.443 215.4 115.364 215.281 115.311C215.718 114.357 216.672 113.787 217.652 113.96H217.732C218.725 114.132 219.48 114.98 219.666 116.026C219.308 116.026 218.977 116.41 218.911 116.94V117.086L219.493 117.192C219.493 117.338 219.56 117.47 219.639 117.536L218.646 125.074H218.553C218.195 124.994 217.851 125.339 217.745 125.829L214.592 125.312C214.605 124.809 214.367 124.372 214.009 124.319H213.917L214.91 116.755V116.781ZM227.084 102.276C227.084 102.422 227.15 102.554 227.23 102.634L226.236 110.171H226.143C225.984 110.131 225.825 110.171 225.68 110.304C225.508 110.449 225.375 110.675 225.322 110.953L222.209 110.449C222.236 109.933 221.984 109.496 221.626 109.443H221.533L222.527 101.892C222.62 101.852 222.712 101.746 222.765 101.6L223.375 101.693L223.401 101.547C223.467 101.004 223.256 100.527 222.898 100.421C223.335 99.4809 224.276 98.9113 225.269 99.0703H225.349C226.342 99.2425 227.097 100.09 227.283 101.137C227.137 101.137 227.004 101.177 226.872 101.283C226.673 101.455 226.528 101.733 226.488 102.051L226.461 102.197L227.071 102.289L227.084 102.276ZM229.164 86.3799C229.164 86.5256 229.23 86.658 229.309 86.7375L228.316 94.2749H228.223C227.839 94.1954 227.481 94.5796 227.389 95.1227L224.289 94.6194C224.342 94.063 224.103 93.5993 223.719 93.5331H223.626L224.62 85.9824C224.713 85.9427 224.805 85.8367 224.858 85.691L225.468 85.797V85.6512C225.561 85.1214 225.335 84.6313 224.991 84.5253C225.428 83.5715 226.382 83.0151 227.362 83.1741H227.442C228.435 83.3463 229.19 84.1808 229.376 85.2406C229.23 85.2406 229.097 85.2804 228.965 85.3864C228.766 85.5586 228.621 85.8367 228.581 86.1546V86.3004L229.164 86.3931V86.3799ZM231.23 70.5632C231.23 70.7089 231.296 70.8413 231.376 70.9208L230.382 78.4582H230.29C229.932 78.392 229.588 78.7232 229.468 79.2266L226.355 78.7232C226.382 78.2066 226.13 77.7694 225.772 77.7164H225.68L226.673 70.1657C226.779 70.126 226.859 70.02 226.912 69.8743L227.521 69.967L227.548 69.8214C227.614 69.2915 227.389 68.8013 227.044 68.6953C227.481 67.7416 228.422 67.1852 229.415 67.3442H229.495C230.488 67.5164 231.243 68.3642 231.429 69.4107C231.058 69.3842 230.714 69.7816 230.634 70.3247V70.4704L231.217 70.5632H231.23ZM233.562 53.6072C233.403 53.5807 233.244 53.6337 233.098 53.753C232.899 53.9252 232.754 54.2033 232.714 54.5212V54.667L233.297 54.7729C233.297 54.9186 233.363 55.0511 233.442 55.1306L232.449 62.668H232.356C231.998 62.6018 231.654 62.933 231.548 63.4231L228.435 62.9197C228.448 62.4164 228.21 61.9792 227.852 61.9262H227.759L228.753 54.3755C228.846 54.3358 228.938 54.2298 228.991 54.0841L229.601 54.1769L229.627 54.0311C229.667 53.7132 229.601 53.3953 229.455 53.1701C229.349 53.0111 229.217 52.9184 229.058 52.8919H228.991C229.455 51.8586 230.449 51.236 231.522 51.4082H231.614C232.687 51.5937 233.482 52.521 233.654 53.6337H233.575L233.562 53.6072ZM224.342 36.4526C224.726 33.4986 227.19 31.4453 229.839 31.8824C232.489 32.3196 234.33 35.0617 233.946 38.0157L232.714 47.4342L223.11 45.8711L224.342 36.4393V36.4526ZM223.216 53.435C223.322 53.3953 223.401 53.2893 223.454 53.1436L224.064 53.2496V53.1039C224.156 52.5343 223.905 52.0308 223.507 51.9646H223.454C223.918 50.9446 224.911 50.3087 225.984 50.4809H226.064C227.124 50.6664 227.932 51.5937 228.104 52.7064H228.051C227.654 52.6402 227.283 53.0376 227.203 53.6072V53.753L227.786 53.8589C227.786 54.0046 227.852 54.1371 227.932 54.2033L226.938 61.7407H226.845C226.686 61.701 226.528 61.7408 226.382 61.86C226.21 62.0057 226.09 62.2309 226.024 62.4958L222.871 61.9792C222.885 61.4758 222.646 61.0387 222.289 60.9857H222.196L223.189 53.4218L223.216 53.435ZM218.99 51.2228L218.831 51.1963C219.229 50.1631 220.063 49.5139 220.924 49.6596H220.99C221.865 49.8186 222.487 50.7062 222.606 51.8189L222.487 51.7924C222.103 51.7261 221.719 52.1368 221.653 52.7064L221.626 52.8522L222.236 52.9448C222.236 53.1038 222.302 53.223 222.381 53.3025L221.388 60.84H221.295C221.136 60.8002 220.977 60.8399 220.845 60.9724C220.672 61.1181 220.553 61.3434 220.487 61.595L218.367 61.2506C218.381 60.7472 218.142 60.3101 217.785 60.2571H217.692L218.685 52.7064C218.778 52.6667 218.871 52.5475 218.911 52.415L219.52 52.5077V52.362C219.613 51.7924 219.361 51.289 218.964 51.2228H218.99ZM214.884 52.0838C214.976 52.0441 215.069 51.9381 215.122 51.7924L215.731 51.8984L215.758 51.7527C215.798 51.4347 215.745 51.1168 215.586 50.8916C215.48 50.7326 215.334 50.64 215.188 50.6135L214.95 50.5737C215.307 49.5404 215.996 48.8648 216.712 48.9708H216.765C217.467 49.09 217.97 49.9643 218.036 51.0638H218.01C217.626 50.9976 217.241 51.395 217.175 51.9646L217.149 52.1104L217.758 52.2163C217.758 52.362 217.824 52.4945 217.904 52.5607L216.91 60.0981H216.818C216.46 60.0319 216.116 60.3631 216.01 60.8532L214.579 60.6281C214.579 60.3631 214.526 60.0981 214.393 59.9127C214.287 59.7537 214.155 59.661 213.996 59.6345H213.903L214.897 52.0838H214.884ZM212.817 67.8873C212.91 67.8475 213.003 67.7415 213.042 67.5958L213.652 67.6886V67.5429C213.744 66.9732 213.493 66.4699 213.095 66.4036H213.003C213.334 65.4366 213.983 64.814 214.605 64.92H214.658C215.294 65.026 215.745 65.8208 215.811 66.8673C215.466 66.8805 215.135 67.2647 215.069 67.7813V67.927L215.652 68.0197C215.652 68.1654 215.718 68.2979 215.798 68.3774L214.804 75.9149H214.711C214.34 75.8486 214.009 76.1798 213.89 76.6832L212.473 76.4448C212.473 76.1666 212.42 75.9016 212.287 75.7161C212.181 75.5572 212.049 75.4645 211.89 75.438H211.797L212.791 67.874L212.817 67.8873ZM210.751 83.704C210.843 83.6643 210.936 83.5582 210.989 83.4125L211.598 83.5185L211.625 83.3728C211.704 82.79 211.453 82.2999 211.055 82.2336H210.949C211.28 81.2533 211.916 80.644 212.552 80.75H212.605C213.228 80.856 213.691 81.664 213.758 82.6972C213.413 82.7105 213.095 83.0946 213.016 83.6113V83.757L213.599 83.8497C213.599 83.9954 213.665 84.1279 213.744 84.2074L212.751 91.7448H212.658C212.499 91.7051 212.34 91.7448 212.208 91.8773C212.022 92.0362 211.877 92.3012 211.837 92.5926L210.419 92.3674C210.472 91.8243 210.221 91.3341 209.85 91.2811H209.757L210.751 83.7173V83.704ZM208.671 99.6002C208.777 99.5604 208.856 99.4544 208.909 99.3087L209.519 99.4014L209.545 99.2557C209.625 98.6861 209.36 98.1828 208.975 98.1165H208.87C209.201 97.1363 209.837 96.5269 210.472 96.6329H210.525C211.161 96.7521 211.612 97.5336 211.678 98.5801C211.333 98.5934 211.016 98.9776 210.936 99.4942L210.91 99.6399L211.519 99.7326C211.519 99.8783 211.585 100.011 211.665 100.09L210.671 107.628H210.578C210.221 107.562 209.876 107.906 209.757 108.396L208.34 108.171C208.366 107.654 208.114 107.217 207.757 107.164H207.664L208.658 99.6002H208.671ZM206.604 115.417C206.697 115.377 206.79 115.271 206.843 115.125L207.452 115.231V115.086C207.545 114.516 207.293 114.013 206.896 113.947H206.803C207.134 112.966 207.77 112.357 208.406 112.463H208.459C209.095 112.582 209.545 113.364 209.611 114.41C209.267 114.423 208.949 114.808 208.87 115.324V115.47L209.452 115.563C209.452 115.722 209.519 115.841 209.598 115.92L208.605 123.458H208.512C208.154 123.378 207.81 123.723 207.691 124.213L206.26 123.988C206.273 123.484 206.035 123.047 205.677 122.994H205.584L206.578 115.443L206.604 115.417ZM206.459 139.235C206.101 139.168 205.757 139.513 205.637 140.016L204.22 139.791C204.22 139.513 204.167 139.261 204.034 139.062C203.928 138.903 203.796 138.811 203.637 138.784H203.544L204.538 131.22C204.644 131.181 204.723 131.075 204.776 130.929L205.386 131.022V130.876C205.452 130.558 205.386 130.24 205.24 130.015C205.134 129.856 204.988 129.763 204.842 129.737H204.736C205.068 128.77 205.717 128.147 206.339 128.253H206.392C207.028 128.372 207.479 129.154 207.545 130.2C207.426 130.2 207.306 130.253 207.187 130.346C206.988 130.505 206.843 130.796 206.803 131.114V131.26L207.386 131.353C207.386 131.498 207.452 131.631 207.532 131.697L206.538 139.248H206.445L206.459 139.235ZM210.976 139.95C210.618 139.897 210.274 140.228 210.154 140.732L208.048 140.387C208.048 140.109 207.995 139.857 207.863 139.659C207.757 139.5 207.611 139.407 207.465 139.38H207.373L208.366 131.83C208.472 131.79 208.552 131.684 208.591 131.538L209.201 131.631V131.485C209.267 131.167 209.201 130.849 209.055 130.624C208.949 130.465 208.803 130.373 208.658 130.346H208.631C209.015 129.392 209.784 128.796 210.578 128.929H210.645C211.439 129.074 212.022 129.882 212.141 130.916C211.757 130.863 211.386 131.273 211.32 131.83V131.975L211.903 132.068C211.903 132.214 211.969 132.346 212.049 132.426L211.055 139.963H210.963L210.976 139.95ZM216.539 140.838C216.38 140.811 216.222 140.864 216.089 140.983C215.917 141.129 215.784 141.354 215.731 141.619L212.579 141.102C212.579 140.824 212.526 140.573 212.393 140.374C212.287 140.215 212.141 140.122 211.996 140.096H211.903L212.897 132.532C212.989 132.492 213.082 132.386 213.122 132.24L213.731 132.333V132.187C213.797 131.869 213.731 131.552 213.585 131.326C213.493 131.194 213.387 131.114 213.267 131.061C213.705 130.108 214.658 129.551 215.639 129.71H215.718C216.712 129.882 217.467 130.73 217.652 131.777C217.294 131.777 216.963 132.174 216.897 132.691V132.836L217.48 132.942C217.48 133.088 217.546 133.221 217.626 133.3L216.632 140.838H216.539ZM222.05 141.725C221.891 141.699 221.732 141.752 221.586 141.871C221.414 142.016 221.282 142.242 221.229 142.52L218.116 142.017C218.116 141.738 218.063 141.487 217.93 141.288C217.824 141.129 217.692 141.036 217.533 141.01H217.44L218.434 133.459C218.526 133.419 218.619 133.313 218.659 133.168L219.268 133.26V133.115C219.334 132.797 219.268 132.479 219.123 132.254C219.03 132.121 218.911 132.028 218.791 131.989C219.229 131.035 220.182 130.465 221.163 130.637H221.242C222.236 130.81 222.991 131.657 223.176 132.704C223.03 132.704 222.898 132.744 222.765 132.85C222.567 133.009 222.421 133.3 222.381 133.618V133.764L222.964 133.87C222.964 134.015 223.03 134.148 223.11 134.227L222.116 141.765H222.024L222.05 141.725Z" fill="#2C9A81"/>
<path d="M261.38 52.1103L255.631 51.1697C255.657 50.5869 255.392 50.0835 254.982 50.004L257.154 33.4057L257.207 33.3925C257.326 33.2998 257.406 33.1541 257.446 32.9819L258.002 33.0745V32.9288C258.068 32.5579 258.002 32.187 257.83 31.9221C257.71 31.7498 257.552 31.6306 257.366 31.6041L256.849 31.5247L257.353 27.7096L257.962 27.8023C258.704 27.9215 259.393 27.352 259.512 26.5174C259.539 26.3187 259.512 26.12 259.486 25.9345L241.019 22.9275L237.204 52.3089C238.238 52.5076 239.006 53.4084 239.178 54.4947H239.112C238.728 54.4285 238.344 54.8258 238.264 55.3955L238.238 55.5412L238.847 55.6339C238.847 55.7796 238.913 55.9121 238.993 55.9916L237.999 63.529H237.906C237.549 63.4628 237.204 63.7939 237.098 64.284L235.668 64.0456L235.125 68.2449C236.065 68.4436 236.781 69.2516 236.966 70.2716C236.608 70.2716 236.264 70.6558 236.198 71.1856V71.3313L236.78 71.4241C236.78 71.5698 236.847 71.7023 236.926 71.7818L235.933 79.3325H235.84C235.482 79.253 235.138 79.5974 235.019 80.1007L233.601 79.8756L233.058 84.088C233.999 84.2867 234.701 85.0948 234.886 86.1016C234.515 86.1016 234.184 86.4857 234.118 87.0156L234.091 87.1613L234.701 87.254C234.701 87.3998 234.767 87.5323 234.846 87.6117L233.853 95.1492H233.76C233.389 95.0697 233.018 95.4538 232.926 95.9969L231.522 95.7717L230.978 99.9842C231.906 100.196 232.608 100.991 232.78 101.998C232.422 101.998 232.078 102.382 232.012 102.912V103.057L232.594 103.163C232.594 103.309 232.661 103.442 232.74 103.521L231.747 111.059H231.654C231.283 110.979 230.952 111.324 230.833 111.827L229.442 111.602L228.899 115.814C229.813 116.026 230.515 116.821 230.687 117.814C230.316 117.814 229.998 118.199 229.919 118.742L229.892 118.887L230.501 118.993C230.501 119.139 230.568 119.272 230.647 119.351L229.654 126.889H229.561C229.203 126.809 228.859 127.14 228.74 127.644L227.362 127.418L226.819 131.631C227.733 131.856 228.422 132.638 228.594 133.631C228.462 133.631 228.329 133.671 228.21 133.777C228.011 133.949 227.865 134.227 227.826 134.545V134.691L228.409 134.797C228.409 134.943 228.475 135.075 228.554 135.141L227.561 142.679H227.468C227.11 142.599 226.766 142.944 226.647 143.447L225.296 143.222L225.07 144.931L248.623 148.772C248.822 148.812 249.034 148.746 249.193 148.613C249.365 148.468 249.471 148.269 249.497 148.044C249.564 147.58 249.259 147.13 248.835 147.063L248.636 147.037C248.663 146.52 248.411 146.083 248.054 146.03H247.961L248.954 138.466C249.047 138.426 249.14 138.321 249.18 138.175L249.789 138.281L249.815 138.135C249.882 137.565 249.63 137.062 249.246 136.996H249.219C249.365 136.572 249.577 136.201 249.829 135.936L249.868 135.896L250.266 132.903L250.703 132.969C250.915 133.009 251.114 132.942 251.273 132.81C251.431 132.677 251.551 132.465 251.577 132.24C251.577 132.201 251.577 132.161 251.577 132.108C251.577 131.922 251.524 131.737 251.418 131.591C251.299 131.406 251.114 131.287 250.902 131.26L250.703 131.234C250.716 130.73 250.478 130.293 250.12 130.24H250.027L251.021 122.689C251.114 122.65 251.206 122.544 251.246 122.398L251.855 122.491V122.345C251.922 122.027 251.855 121.709 251.71 121.484C251.604 121.325 251.471 121.232 251.312 121.206H251.286C251.431 120.782 251.643 120.411 251.895 120.146L251.922 120.106L252.319 117.099L252.743 117.165C252.942 117.205 253.154 117.139 253.313 117.006C253.472 116.874 253.591 116.662 253.617 116.437C253.617 116.397 253.617 116.344 253.617 116.304C253.617 116.119 253.564 115.933 253.458 115.788C253.339 115.602 253.154 115.483 252.942 115.443L252.743 115.417C252.756 115.139 252.69 114.874 252.571 114.688C252.465 114.529 252.319 114.437 252.16 114.41H252.067L253.061 106.859C253.154 106.82 253.246 106.714 253.299 106.568L253.909 106.674V106.528C253.975 106.197 253.909 105.892 253.763 105.667C253.657 105.508 253.511 105.415 253.352 105.389H253.326C253.471 104.965 253.683 104.594 253.935 104.329L253.975 104.289L254.372 101.282L254.809 101.349C255.008 101.388 255.22 101.322 255.379 101.19C255.551 101.057 255.657 100.845 255.684 100.62C255.684 100.58 255.684 100.541 255.684 100.488C255.684 100.302 255.631 100.13 255.525 99.971C255.406 99.7855 255.22 99.6664 255.008 99.6266L254.823 99.6001C254.876 99.057 254.624 98.5668 254.24 98.5138H254.147L255.141 90.9631C255.233 90.9234 255.326 90.8042 255.366 90.6717L255.975 90.7777V90.632C256.041 90.314 255.975 89.9962 255.829 89.771C255.723 89.612 255.578 89.5193 255.419 89.4928H255.392C255.538 89.0689 255.75 88.698 256.002 88.433L256.041 88.4065L256.439 85.3995L256.863 85.4658C257.075 85.5055 257.273 85.4393 257.446 85.3068C257.618 85.1743 257.724 84.9623 257.75 84.7371C257.816 84.2602 257.512 83.8231 257.101 83.7569L256.902 83.7304C256.929 83.2138 256.677 82.7766 256.32 82.7237H256.227L257.22 75.173C257.313 75.12 257.406 75.0139 257.446 74.8815L258.055 74.9875L258.081 74.8418C258.161 74.2722 257.896 73.7688 257.512 73.7026H257.485C257.631 73.2787 257.843 72.9078 258.095 72.6428L258.134 72.6031L258.532 69.6093L258.956 69.6755C259.154 69.702 259.366 69.649 259.525 69.5165C259.684 69.3841 259.803 69.1721 259.83 68.9469C259.83 68.9072 259.83 68.8675 259.83 68.8145C259.83 68.629 259.777 68.4568 259.671 68.2978C259.552 68.1124 259.366 67.9932 259.168 67.9667L258.969 67.9402C258.969 67.662 258.916 67.4103 258.797 67.2249C258.691 67.0659 258.558 66.9731 258.399 66.9466H258.307L259.287 59.3828C259.38 59.343 259.472 59.237 259.525 59.0913L260.135 59.184V59.0383C260.201 58.7072 260.135 58.4025 259.989 58.1773C259.883 58.0183 259.75 57.9256 259.592 57.8991L259.433 57.8726C259.592 57.409 259.817 57.0116 260.095 56.7334L260.479 53.7793L261.035 53.872C261.247 53.9118 261.446 53.8456 261.605 53.7131C261.777 53.5806 261.883 53.3687 261.91 53.1435C261.91 53.1037 261.91 53.064 261.91 53.0242C261.91 52.6003 261.632 52.2295 261.247 52.1632L261.38 52.1103ZM253.313 54.9318C254.174 55.0775 254.809 55.9651 254.929 57.0778H254.849C254.69 57.0381 254.531 57.0778 254.386 57.2103C254.187 57.3825 254.041 57.6607 254.001 57.9786V58.1243L254.584 58.2303C254.584 58.376 254.65 58.5084 254.73 58.5746L253.736 66.1121H253.644C253.485 66.0723 253.326 66.1121 253.193 66.2313C253.021 66.3771 252.902 66.6022 252.836 66.8539L250.637 66.4963C250.637 66.2181 250.584 65.9664 250.451 65.7809C250.345 65.622 250.213 65.5293 250.041 65.5028H249.948L250.941 57.9521C251.034 57.9123 251.127 57.7931 251.167 57.6606L251.776 57.7533V57.6077C251.842 57.2897 251.776 56.9719 251.63 56.7467C251.524 56.5877 251.392 56.4949 251.233 56.4684H251.127C251.524 55.4219 252.359 54.7729 253.22 54.9186H253.286L253.313 54.9318ZM252.531 74.0337C252.531 74.1927 252.597 74.3119 252.677 74.3914L251.683 81.9288H251.59C251.233 81.8626 250.888 82.1938 250.769 82.6971L248.57 82.3394C248.597 81.8228 248.345 81.3857 247.987 81.3328H247.895L248.888 73.7688C248.981 73.729 249.074 73.623 249.127 73.4773L249.736 73.5701V73.4244C249.829 72.868 249.59 72.3646 249.206 72.2852C249.59 71.3314 250.358 70.7353 251.153 70.8677H251.22C252.014 71.0135 252.597 71.8215 252.716 72.8548C252.346 72.8415 252.001 73.2389 251.935 73.7688V73.9145L252.518 74.0072L252.531 74.0337ZM250.451 89.8504C250.451 89.9962 250.517 90.1286 250.597 90.2081L249.603 97.7455H249.511C249.14 97.666 248.769 98.0502 248.676 98.5933L246.49 98.2356C246.543 97.6925 246.292 97.2024 245.921 97.1495H245.828L246.822 89.5988C246.914 89.559 247.007 89.453 247.06 89.3073L247.669 89.4133L247.696 89.2676C247.736 88.9497 247.669 88.6317 247.524 88.4065C247.418 88.2608 247.298 88.168 247.153 88.1283C247.537 87.1745 248.305 86.5785 249.1 86.711H249.166C249.961 86.8567 250.544 87.6647 250.663 88.7112C250.531 88.7112 250.385 88.751 250.266 88.8569C250.067 89.0159 249.921 89.3073 249.882 89.6252V89.771L250.464 89.8769L250.451 89.8504ZM248.371 105.747C248.371 105.892 248.438 106.025 248.517 106.104L247.524 113.642H247.431C247.272 113.602 247.113 113.642 246.967 113.774C246.795 113.92 246.663 114.145 246.61 114.41L244.411 114.052C244.437 113.536 244.185 113.099 243.828 113.046H243.735L244.729 105.495C244.821 105.455 244.914 105.349 244.954 105.203L245.563 105.309L245.59 105.164C245.629 104.846 245.563 104.528 245.417 104.303C245.311 104.157 245.192 104.051 245.046 104.024C245.431 103.071 246.199 102.475 246.994 102.607H247.06C247.855 102.753 248.438 103.561 248.557 104.607C248.424 104.607 248.279 104.647 248.16 104.753C247.961 104.925 247.815 105.203 247.775 105.521V105.667L248.358 105.76L248.371 105.747ZM246.292 121.563C246.292 121.709 246.358 121.841 246.437 121.921L245.444 129.458H245.351C245.192 129.419 245.033 129.458 244.888 129.591C244.715 129.737 244.596 129.949 244.53 130.213L242.331 129.856C242.344 129.352 242.106 128.915 241.748 128.862H241.655L242.649 121.312C242.742 121.272 242.834 121.153 242.874 121.02L243.483 121.126V120.98C243.55 120.663 243.483 120.345 243.338 120.119C243.232 119.974 243.112 119.881 242.967 119.841C243.351 118.887 244.119 118.291 244.914 118.424H244.98C245.775 118.556 246.358 119.378 246.477 120.424C246.331 120.424 246.199 120.464 246.067 120.57C245.868 120.742 245.722 121.02 245.682 121.338V121.484L246.265 121.577L246.292 121.563ZM237.814 119.205C237.721 119.073 237.602 118.98 237.483 118.94C237.92 117.987 238.874 117.43 239.854 117.589H239.933C240.927 117.762 241.682 118.596 241.854 119.656C241.496 119.656 241.152 120.04 241.086 120.57V120.716L241.669 120.808C241.669 120.967 241.735 121.086 241.814 121.166L240.821 128.703H240.728C240.37 128.637 240.026 128.968 239.92 129.458L236.794 128.955C236.794 128.69 236.741 128.438 236.608 128.24C236.502 128.081 236.37 127.988 236.211 127.961H236.118L237.112 120.411C237.218 120.371 237.297 120.265 237.35 120.119L237.959 120.212L237.986 120.066C238.026 119.749 237.959 119.431 237.814 119.205ZM239.88 103.389C239.788 103.256 239.668 103.163 239.549 103.124C239.986 102.17 240.94 101.614 241.92 101.773H242C242.993 101.945 243.748 102.793 243.934 103.839C243.576 103.839 243.232 104.223 243.165 104.753L243.139 104.899L243.748 104.992C243.748 105.137 243.815 105.27 243.894 105.349L242.901 112.887H242.808C242.649 112.847 242.49 112.887 242.357 113.019C242.185 113.165 242.053 113.39 242 113.668L238.873 113.165C238.873 112.887 238.821 112.622 238.688 112.436C238.582 112.277 238.436 112.185 238.277 112.158H238.185L239.178 104.594C239.284 104.554 239.364 104.448 239.417 104.303L240.026 104.409V104.263C240.092 103.945 240.026 103.627 239.88 103.402V103.389ZM241.96 87.4925C241.867 87.36 241.748 87.2673 241.629 87.2275C242.066 86.2738 243.02 85.7174 244 85.8631H244.08C245.073 86.0354 245.828 86.8831 246 87.9296C245.629 87.9296 245.298 88.3006 245.232 88.8437V88.9894L245.815 89.0821C245.815 89.2278 245.881 89.3603 245.961 89.4398L244.967 96.9904H244.874C244.715 96.9507 244.556 96.9905 244.424 97.1097C244.238 97.2686 244.093 97.5336 244.053 97.825L240.94 97.3216C240.993 96.7785 240.741 96.3017 240.37 96.2354H240.278L241.271 88.6715C241.364 88.6317 241.457 88.5257 241.496 88.38L242.106 88.486V88.3403C242.172 88.0224 242.106 87.7044 241.96 87.4792V87.4925ZM244.04 71.6758C243.947 71.5433 243.828 71.4506 243.709 71.4108C244.146 70.457 245.086 69.8875 246.08 70.0597H246.159C247.153 70.2319 247.908 71.0797 248.093 72.1262C247.961 72.1262 247.828 72.1659 247.709 72.2719C247.51 72.4441 247.365 72.7223 247.325 73.0402V73.1859L247.908 73.2787C247.908 73.4244 247.974 73.5569 248.054 73.6364L247.06 81.1737H246.967C246.808 81.134 246.649 81.1738 246.517 81.293C246.345 81.4387 246.212 81.6639 246.159 81.9288L243.033 81.4254C243.046 80.922 242.808 80.4717 242.45 80.4187H242.357L243.351 72.868C243.444 72.8283 243.536 72.7223 243.589 72.5765L244.199 72.6693V72.5236C244.265 72.2057 244.199 71.8877 244.053 71.6625L244.04 71.6758ZM245.709 55.5941H245.643C246.106 54.5609 247.1 53.9383 248.173 54.1105H248.252C249.325 54.2959 250.12 55.2232 250.292 56.3359H250.226C249.842 56.2565 249.458 56.6672 249.391 57.2368V57.3825L249.974 57.4885C249.974 57.6342 250.041 57.7666 250.12 57.8461L249.127 65.3835H249.034C248.676 65.3173 248.332 65.6485 248.226 66.1386L245.099 65.6352C245.099 65.357 245.047 65.1054 244.914 64.9199C244.808 64.761 244.676 64.6682 244.517 64.6417H244.424L245.417 57.091C245.51 57.0513 245.603 56.9453 245.643 56.7996L246.252 56.8924V56.7467C246.345 56.177 246.093 55.6736 245.696 55.6074L245.709 55.5941ZM245.166 39.9629C245.444 37.8036 247.259 36.3068 249.18 36.6247C250.12 36.7837 250.941 37.3268 251.511 38.1746C252.081 39.0224 252.306 40.0556 252.173 41.1021L250.955 50.4412L243.947 49.3019L245.166 39.9629ZM239.827 56.1638C239.933 56.1241 240.013 56.018 240.066 55.8723L240.675 55.9783V55.8326C240.768 55.2763 240.516 54.7596 240.119 54.6933H240.092C240.543 53.6733 241.549 53.0508 242.622 53.223H242.702C243.762 53.4084 244.57 54.3357 244.742 55.4484H244.689C244.305 55.3822 243.921 55.7928 243.854 56.3492V56.495L244.437 56.6009C244.437 56.7598 244.503 56.8791 244.583 56.9586L243.589 64.496H243.497C243.338 64.4563 243.179 64.496 243.033 64.6285C242.861 64.7742 242.742 64.9994 242.675 65.2511L239.483 64.7345C239.483 64.4563 239.43 64.2046 239.297 64.0191C239.191 63.8602 239.046 63.7674 238.9 63.7409H238.807L239.788 56.1902L239.827 56.1638ZM237.761 71.9672C237.867 71.9275 237.946 71.8215 237.986 71.6758L238.595 71.7685V71.6228C238.662 71.3049 238.595 70.9869 238.45 70.7617C238.37 70.6425 238.264 70.563 238.158 70.51C238.595 69.5563 239.549 68.9867 240.543 69.1457H240.622C241.616 69.3179 242.371 70.1657 242.556 71.2122C242.198 71.2122 241.867 71.6096 241.801 72.1262V72.2719L242.384 72.3646C242.384 72.5103 242.45 72.6428 242.53 72.7223L241.536 80.2598H241.443C241.072 80.1803 240.741 80.5246 240.622 81.028L237.43 80.5114C237.456 80.008 237.204 79.5577 236.847 79.5047H236.754L237.734 71.954L237.761 71.9672ZM235.694 87.784C235.8 87.7442 235.88 87.6382 235.933 87.4925L236.542 87.5852L236.569 87.4395C236.635 86.9229 236.436 86.4592 236.105 86.3268C236.542 85.373 237.496 84.8034 238.489 84.9756H238.569C239.562 85.1478 240.317 85.9956 240.503 87.0421C240.145 87.0421 239.814 87.4395 239.748 87.9562V88.1019L240.331 88.2079C240.331 88.3536 240.397 88.486 240.476 88.5522L239.483 96.0897H239.39C239.019 96.0102 238.648 96.3943 238.556 96.9375L235.376 96.4208C235.429 95.8777 235.178 95.3876 234.793 95.3346H234.701L235.694 87.784ZM233.615 103.68C233.721 103.64 233.8 103.534 233.84 103.389L234.449 103.481L234.476 103.336C234.542 102.819 234.343 102.355 234.012 102.223C234.449 101.269 235.403 100.7 236.383 100.859H236.463C237.456 101.031 238.211 101.879 238.397 102.925C238.039 102.925 237.708 103.322 237.642 103.839L237.615 103.985L238.224 104.091C238.224 104.236 238.291 104.369 238.37 104.448L237.377 111.986H237.284C236.926 111.906 236.582 112.251 236.463 112.754L233.27 112.238C233.297 111.721 233.058 111.284 232.687 111.218H232.594L233.588 103.667L233.615 103.68ZM231.535 119.497C231.627 119.457 231.72 119.351 231.76 119.205L232.369 119.298V119.152C232.462 118.636 232.25 118.172 231.932 118.04C232.369 117.086 233.323 116.516 234.303 116.675H234.383C235.376 116.847 236.131 117.695 236.317 118.742C235.959 118.742 235.628 119.139 235.562 119.656L235.535 119.801L236.145 119.907C236.145 120.053 236.211 120.186 236.29 120.252L235.297 127.789H235.204C234.846 127.723 234.502 128.054 234.396 128.544L231.204 128.028C231.204 127.763 231.151 127.498 231.018 127.312C230.912 127.153 230.766 127.061 230.621 127.034H230.528L231.522 119.484L231.535 119.497ZM233.151 143.606C232.793 143.553 232.449 143.884 232.33 144.388L229.137 143.871C229.137 143.593 229.084 143.341 228.952 143.142C228.846 142.983 228.713 142.891 228.554 142.864H228.461L229.455 135.3C229.548 135.261 229.64 135.155 229.693 135.009L230.303 135.102L230.329 134.956C230.396 134.439 230.197 133.976 229.866 133.843C230.303 132.889 231.257 132.32 232.25 132.479H232.33C233.323 132.651 234.078 133.499 234.264 134.545C234.131 134.545 234.012 134.598 233.893 134.691C233.694 134.863 233.548 135.141 233.509 135.459V135.605L234.091 135.698C234.091 135.843 234.158 135.976 234.237 136.055L233.244 143.593H233.151V143.606ZM238.688 144.494C238.33 144.441 237.986 144.785 237.867 145.275L234.74 144.772C234.767 144.255 234.515 143.818 234.158 143.765H234.065L235.058 136.214C235.164 136.175 235.244 136.069 235.284 135.923L235.893 136.016V135.87C235.986 135.34 235.76 134.85 235.403 134.744C235.84 133.79 236.78 133.234 237.774 133.393H237.853C238.847 133.565 239.602 134.413 239.788 135.459C239.43 135.459 239.085 135.843 239.019 136.373V136.519L239.602 136.612C239.602 136.757 239.668 136.89 239.748 136.969L238.754 144.507H238.662L238.688 144.494ZM243.298 145.222C242.94 145.169 242.596 145.5 242.477 146.004L240.278 145.646C240.304 145.129 240.052 144.692 239.695 144.639H239.602L240.596 137.075C240.688 137.036 240.781 136.93 240.821 136.784L241.43 136.877V136.731C241.523 136.175 241.271 135.671 240.9 135.592C241.284 134.638 242.053 134.042 242.848 134.174H242.914C243.709 134.32 244.291 135.128 244.411 136.161C244.04 136.148 243.695 136.545 243.629 137.075V137.221L244.212 137.314C244.212 137.459 244.278 137.592 244.358 137.671L243.364 145.222H243.271H243.298ZM248.093 137.95C248.093 138.095 248.16 138.228 248.239 138.307L247.245 145.845H247.153C246.994 145.805 246.835 145.845 246.689 145.977C246.517 146.123 246.384 146.348 246.331 146.613L244.874 146.375C244.901 145.858 244.649 145.421 244.291 145.368H244.199L245.192 137.817C245.285 137.777 245.378 137.671 245.431 137.526L246.04 137.618V137.473C246.133 136.916 245.894 136.413 245.51 136.333C245.841 135.366 246.477 134.757 247.113 134.863H247.166C247.802 134.969 248.252 135.764 248.332 136.797C247.948 136.744 247.577 137.142 247.497 137.711V137.857L248.08 137.95H248.093ZM250.16 122.146C250.16 122.292 250.226 122.424 250.305 122.504L249.312 130.041H249.219C248.862 129.975 248.517 130.306 248.411 130.796L246.954 130.558C246.954 130.28 246.901 130.028 246.769 129.843C246.663 129.684 246.517 129.591 246.371 129.564H246.278L247.272 122C247.365 121.961 247.457 121.855 247.51 121.709L248.12 121.802V121.656C248.212 121.1 247.974 120.61 247.59 120.517C247.921 119.563 248.57 118.94 249.193 119.046H249.246C249.882 119.152 250.332 119.947 250.398 120.98C250.239 120.954 250.08 121.007 249.948 121.126C249.749 121.298 249.603 121.577 249.564 121.895V122.04L250.147 122.133L250.16 122.146ZM252.24 106.329C252.24 106.475 252.306 106.608 252.385 106.687L251.392 114.225H251.299C250.941 114.158 250.597 114.503 250.478 114.993L249.034 114.754C249.034 114.476 248.981 114.225 248.848 114.026C248.742 113.867 248.61 113.774 248.451 113.748H248.358L249.338 106.197C249.431 106.157 249.524 106.051 249.577 105.906L250.186 105.998L250.213 105.853C250.253 105.521 250.2 105.217 250.041 104.992C249.935 104.846 249.815 104.753 249.67 104.727C250.001 103.76 250.637 103.15 251.273 103.243H251.326C251.948 103.349 252.412 104.157 252.478 105.177C252.319 105.151 252.173 105.204 252.028 105.323C251.829 105.482 251.683 105.773 251.643 106.091V106.237L252.226 106.329H252.24ZM254.319 90.4333C254.319 90.579 254.386 90.7114 254.465 90.7909L253.471 98.3284H253.379C253.008 98.2489 252.637 98.6331 252.544 99.1762L251.1 98.9378C251.127 98.6331 251.074 98.3417 250.928 98.1297C250.822 97.9707 250.69 97.878 250.531 97.8515H250.438L251.431 90.2875C251.524 90.2478 251.617 90.1419 251.67 89.9961L252.279 90.1021L252.306 89.9564C252.346 89.6384 252.293 89.3206 252.134 89.0954C252.028 88.9497 251.908 88.8569 251.749 88.8172C252.081 87.8501 252.716 87.2408 253.352 87.3335H253.405C254.028 87.4395 254.492 88.2476 254.558 89.2676C254.399 89.2411 254.253 89.2941 254.107 89.4133C253.909 89.5722 253.763 89.8637 253.723 90.1816V90.3273L254.306 90.4333H254.319ZM256.386 74.6166C256.386 74.7623 256.452 74.8947 256.532 74.9742L255.538 82.5117H255.445C255.088 82.4322 254.743 82.7766 254.624 83.28L253.167 83.0416C253.167 82.7634 253.114 82.5117 252.981 82.313C252.875 82.154 252.73 82.0613 252.571 82.0348H252.478L253.471 74.4708C253.564 74.4311 253.657 74.3252 253.697 74.1794L254.306 74.2854V74.1397C254.372 73.8085 254.306 73.5039 254.16 73.2787C254.068 73.1329 253.935 73.0402 253.789 73.0005C254.121 72.0334 254.756 71.4241 255.392 71.5301H255.445C256.068 71.6361 256.531 72.4441 256.598 73.4641C256.2 73.4112 255.843 73.7953 255.763 74.3782V74.5239L256.346 74.6166H256.386ZM258.717 57.6606C258.32 57.5944 257.949 57.9918 257.883 58.5746L257.856 58.7204L258.466 58.8263C258.466 58.9721 258.532 59.1045 258.611 59.184L257.618 66.7215H257.525C257.366 66.6817 257.207 66.7215 257.061 66.8407C256.889 66.9864 256.77 67.2116 256.704 67.4633L255.247 67.2249C255.26 66.7215 255.021 66.2843 254.664 66.2313H254.571L255.564 58.6806C255.657 58.6409 255.75 58.535 255.803 58.3893L256.412 58.482V58.3362C256.505 57.7666 256.253 57.2632 255.856 57.197H255.75C256.094 56.1505 256.796 55.475 257.499 55.5809H257.551C258.254 55.7002 258.757 56.5744 258.823 57.6739L258.704 57.6474L258.717 57.6606Z" fill="#2C9A81"/>
<path d="M202.392 165.901L201.465 165.755L202.392 165.901Z" fill="#2C9A81"/>
<path d="M245.325 153.435L245.206 154.349L244.146 154.177L244.266 153.263C244.544 151.17 243.312 149.236 241.523 148.945C239.735 148.653 238.066 150.111 237.788 152.204L237.669 153.118L236.529 152.932L236.649 152.018C236.927 149.925 235.47 147.964 233.416 147.62C231.363 147.289 229.469 148.706 229.191 150.799L229.071 151.713L227.959 151.528L228.078 150.614C228.343 148.574 226.965 146.653 224.978 146.256L222.289 166.947H225.694L227.442 154.535C227.442 154.535 227.508 154.561 227.535 154.561L228.661 154.747C228.661 154.747 228.727 154.747 228.754 154.747L227.27 166.934H234.516L236.066 155.939C236.066 155.939 236.132 155.966 236.158 155.966L237.284 156.151C237.284 156.151 237.351 156.151 237.39 156.151L236.079 166.934H242.173L243.55 157.158C243.55 157.158 243.616 157.171 243.643 157.184L244.769 157.37C244.769 157.37 244.835 157.37 244.875 157.37L243.709 166.934H245.233C245.259 166.722 246.915 154.137 247.418 150.23C246.332 150.667 245.484 151.912 245.286 153.409L245.325 153.435Z" fill="#2C9A81"/>
<path d="M224.845 146.242C223.798 146.07 222.738 146.361 221.93 147.037C221.215 147.633 220.751 148.481 220.619 149.421L220.5 150.335L219.48 150.177L219.599 149.262C219.718 148.322 219.493 147.355 218.963 146.56C218.367 145.659 217.413 145.037 216.367 144.878C214.313 144.547 212.419 145.964 212.141 148.057L212.022 148.971L210.882 148.786L211.002 147.872C211.134 146.825 210.909 145.792 210.353 144.971C209.836 144.202 209.094 143.699 208.26 143.566C207.425 143.434 206.577 143.672 205.888 144.242C205.147 144.865 204.656 145.779 204.524 146.825L204.405 147.739L203.345 147.567L203.464 146.653C203.663 145.103 203.146 143.619 202.166 142.864C201.53 147.66 199.04 166.709 199 167H199.291C199.477 166.152 200.033 165.543 200.603 165.649L200.775 165.675L202.895 150.6C202.895 150.6 202.961 150.627 202.987 150.627L204.113 150.812C204.113 150.812 204.18 150.812 204.206 150.812L202.378 165.927L202.55 165.953C202.961 166.02 203.279 166.43 203.398 166.987H208.114L210.326 151.793C210.326 151.793 210.392 151.819 210.419 151.819L211.545 152.005C211.545 152.005 211.611 152.005 211.637 152.005L209.823 166.973H216.923L218.87 153.184C218.87 153.184 218.936 153.197 218.963 153.21L220.089 153.395C220.089 153.395 220.155 153.395 220.195 153.395L218.552 166.973H222.275L224.964 146.282C224.964 146.282 224.871 146.256 224.831 146.242H224.845Z" fill="#2C9A81"/>
<path d="M168.24 86.1173C168.24 80.0255 172.418 75.0663 177.668 74.7296V19H177.622V24.5408L169.219 43.2602H169.143V54.4796L162.592 65.4082H162.332V71.3622H161V102.372H162.332V165.954H177.653V97.5051C172.403 97.1684 168.224 92.2092 168.224 86.1173H168.24Z" fill="#F4D13E"/>
<path d="M194.398 71.3622H193.081V65.4082H192.821L186.377 54.2959H186.27V43.2602H186.209L177.79 24.4949V19H177.668V74.7296C177.852 74.7296 178.035 74.699 178.234 74.699C183.744 74.699 188.229 79.8112 188.229 86.1173C188.229 92.4235 183.744 97.5357 178.234 97.5357C178.051 97.5357 177.852 97.5204 177.668 97.5051V165.954H188.78V166H193.25L193.081 102.372H194.398V71.3622Z" fill="#DCBD39"/>
<path d="M178.324 85.7807L179.426 86.2704L182.549 76.9337L181.462 76.4592L178.324 85.7807Z" fill="#DCBD39"/>
<path d="M177.562 85.8267L170.965 87.7705L171.256 89.0716L177.669 87.1889V86.2705L177.562 85.8267Z" fill="#F4D13E"/>
<path d="M177.668 86.2703V87.1886L177.852 87.1427L177.668 86.2703Z" fill="#F4D13E"/>
<path d="M82.1027 145.786H79.848V128.209C79.848 122.877 84.3244 119.882 85.3613 119.256V85.3041H84.9828C84.7688 85.3041 84.5878 85.4687 84.5878 85.6827C84.5878 85.8966 84.7688 86.0447 84.9828 86.0447H85.1144C85.1144 86.0447 85.065 86.1599 85.065 86.2257C85.065 86.2916 85.0651 86.341 85.098 86.3903C84.7195 86.522 84.4726 86.8182 84.4726 87.1474C84.4726 87.3614 84.5878 87.5588 84.7523 87.707L72.1293 110.748V87.1474L70.9938 85.2383V72.0886L71.3558 71.8088L70.9938 71.6607V62.4444L71.3558 62.1646L70.9938 62.0165V55.1043L71.3558 54.8245L70.9938 54.6764V40.0126L71.3393 38.9922H71.2571L70.5823 33.9068L70.2861 34.8449C70.2861 34.8449 68.3934 26.3527 67.8668 20.609C68.1301 20.5925 68.3276 20.5102 68.3276 20.428C68.3276 20.3457 68.163 20.2798 67.9491 20.2469C67.9326 20.1317 67.8339 20.0494 67.7022 20.0494C67.5706 20.0494 67.4882 20.1317 67.4718 20.2469C67.2414 20.2798 67.0933 20.3457 67.0933 20.428C67.0933 20.5102 67.2908 20.5925 67.5541 20.609C67.0274 26.3692 65.1348 34.8449 65.1348 34.8449L64.8386 33.9068L64.1802 38.8441L64.0157 38.877L64.4107 39.5024V40.8519H63.6372C63.6372 40.7697 63.5713 40.7038 63.4726 40.7038H63.3245V39.7822H63.5219C63.5219 39.7822 63.6536 39.7328 63.6536 39.6505C63.6536 39.5683 63.6042 39.5189 63.5219 39.5189H63.3245V38.9758C63.3245 38.9758 63.4561 38.8441 63.4561 38.7454C63.4561 38.5972 63.3409 38.482 63.1928 38.482C63.0447 38.482 62.9295 38.5972 62.9295 38.7454C62.9295 38.8441 62.9788 38.9264 63.0611 38.9758V39.5189H62.8637C62.8637 39.5189 62.732 39.5847 62.732 39.6505C62.732 39.7164 62.7814 39.7822 62.8637 39.7822H63.0611V40.7038H62.8965C62.8143 40.7038 62.7484 40.7697 62.7484 40.8519H62.156C62.156 40.7697 62.0901 40.7038 62.0078 40.7038H61.8597V39.7822H62.0572C62.0572 39.7822 62.1889 39.7328 62.1889 39.6505C62.1889 39.5683 62.1395 39.5189 62.0572 39.5189H61.8597V38.9758C61.8597 38.9758 61.9914 38.8441 61.9914 38.7454C61.9914 38.5972 61.8762 38.482 61.7281 38.482C61.5799 38.482 61.4647 38.5972 61.4647 38.7454C61.4647 38.8441 61.5141 38.9264 61.5964 38.9758V39.5189H61.3989C61.3989 39.5189 61.2673 39.5847 61.2673 39.6505C61.2673 39.7164 61.3166 39.7822 61.3989 39.7822H61.5964V40.7038H61.4318C61.3495 40.7038 61.2837 40.7697 61.2837 40.8519H60.6912C60.6912 40.7697 60.6254 40.7038 60.5431 40.7038H60.395V39.7822H60.5925C60.5925 39.7822 60.7241 39.7328 60.7241 39.6505C60.7241 39.5683 60.6748 39.5189 60.5925 39.5189H60.395V38.9758C60.395 38.9758 60.5267 38.8441 60.5267 38.7454C60.5267 38.5972 60.4115 38.482 60.2633 38.482C60.1152 38.482 60 38.5972 60 38.7454C60 38.8441 60.0494 38.9264 60.1317 38.9758V39.5189H59.9342C59.9342 39.5189 59.8025 39.5847 59.8025 39.6505C59.8025 39.7164 59.8519 39.7822 59.9342 39.7822H60.1317V40.7038H59.9836C59.9013 40.7038 59.8354 40.7697 59.8354 40.8519H59.2429C59.2429 40.7697 59.1771 40.7038 59.0948 40.7038H58.9467V39.7822H59.1442C59.1442 39.7822 59.2759 39.7328 59.2759 39.6505C59.2759 39.5683 59.2265 39.5189 59.1442 39.5189H58.9467V38.9758C58.9467 38.9758 59.0784 38.8441 59.0784 38.7454C59.0784 38.5972 58.9632 38.482 58.8151 38.482C58.6669 38.482 58.5517 38.5972 58.5517 38.7454C58.5517 38.8441 58.6011 38.9264 58.6834 38.9758V39.5189H58.4859C58.4859 39.5189 58.3542 39.5847 58.3542 39.6505C58.3542 39.7164 58.4036 39.7822 58.4859 39.7822H58.6834V40.7038H58.5353C58.453 40.7038 58.3872 40.7697 58.3872 40.8519H57.7947C57.7947 40.7697 57.7289 40.7038 57.6466 40.7038H57.4984V39.7822H57.6959C57.6959 39.7822 57.8276 39.7328 57.8276 39.6505C57.8276 39.5683 57.7618 39.5189 57.6959 39.5189H57.4984V38.9758C57.4984 38.9758 57.6301 38.8441 57.6301 38.7454C57.6301 38.5972 57.5149 38.482 57.3668 38.482C57.2187 38.482 57.1035 38.5972 57.1035 38.7454C57.1035 38.8441 57.1528 38.9264 57.2351 38.9758V39.5189H57.0376C57.0376 39.5189 56.906 39.5847 56.906 39.6505C56.906 39.7164 56.9553 39.7822 57.0376 39.7822H57.2351V40.7038H57.087C57.0047 40.7038 56.9389 40.7697 56.9389 40.8519H56.3464C56.3464 40.7697 56.2806 40.7038 56.1818 40.7038H56.0337V39.7822H56.2312C56.2312 39.7822 56.3629 39.7328 56.3629 39.6505C56.3629 39.5683 56.3135 39.5189 56.2312 39.5189H56.0337V38.9758C56.0337 38.9758 56.1654 38.8441 56.1654 38.7454C56.1654 38.5972 56.0502 38.482 55.902 38.482C55.7539 38.482 55.6387 38.5972 55.6387 38.7454C55.6387 38.8441 55.6881 38.9264 55.7704 38.9758V39.5189H55.5729C55.5729 39.5189 55.4412 39.5847 55.4412 39.6505C55.4412 39.7164 55.4906 39.7822 55.5729 39.7822H55.7704V40.7038H55.6223C55.54 40.7038 55.4741 40.7697 55.4741 40.8519H54.8817C54.8817 40.7697 54.8158 40.7038 54.7336 40.7038H54.569V39.7822H54.7665C54.7665 39.7822 54.8981 39.7328 54.8981 39.6505C54.8981 39.5683 54.8323 39.5189 54.7665 39.5189H54.569V38.9758C54.569 38.9758 54.7006 38.8441 54.7006 38.7454C54.7006 38.5972 54.5854 38.482 54.4373 38.482C54.2892 38.482 54.174 38.5972 54.174 38.7454C54.174 38.8441 54.2234 38.9264 54.3056 38.9758V39.5189H54.1082C54.1082 39.5189 53.9765 39.5847 53.9765 39.6505C53.9765 39.7164 54.0423 39.7822 54.1082 39.7822H54.3056V40.7038H54.1575C54.0752 40.7038 53.993 40.7697 53.993 40.8519H53.4005C53.4005 40.7697 53.3346 40.7038 53.2523 40.7038H53.1042V39.7822H53.3017C53.3017 39.7822 53.4334 39.7328 53.4334 39.6505C53.4334 39.5683 53.3676 39.5189 53.3017 39.5189H53.1042V38.9758C53.1042 38.9758 53.2359 38.8441 53.2359 38.7454C53.2359 38.5972 53.1207 38.482 52.9726 38.482C52.8245 38.482 52.7093 38.5972 52.7093 38.7454C52.7093 38.8441 52.7586 38.9264 52.8409 38.9758V39.5189H52.6434C52.6434 39.5189 52.5118 39.5847 52.5118 39.6505C52.5118 39.7164 52.5611 39.7822 52.6434 39.7822H52.8409V40.7038H52.6928C52.6105 40.7038 52.5447 40.7697 52.5447 40.8519H51.8864V39.5024L52.2814 38.877L52.1168 38.8441L51.4585 33.9068L51.1622 34.8449C51.1622 34.8449 49.2696 26.3527 48.743 20.609C49.0063 20.5925 49.2038 20.5102 49.2038 20.428C49.2038 20.3457 49.0557 20.2798 48.8253 20.2469C48.8088 20.1317 48.7101 20.0494 48.5948 20.0494C48.4796 20.0494 48.3809 20.1317 48.348 20.2469C48.1176 20.2798 47.9694 20.3457 47.9694 20.428C47.9694 20.5102 48.1669 20.5925 48.4303 20.609C47.9036 26.3692 46.011 34.8449 46.011 34.8449L45.7148 33.9068L45.04 38.9758H44.9577L45.2868 40.0126V54.6764L44.9248 54.8245L45.2868 55.1043V62.0165L44.9248 62.1646L45.2868 62.4444V71.6607L44.9248 71.8088L45.2868 72.0886V85.2383L44.1677 87.1474V112.031H30.3926V107.423L29.7179 106.666L29.0431 100.807L28.8127 100.955L24.4679 83.79V83.1482L24.6489 82.6544L24.7147 82.424L24.797 82.0455V81.7493C24.797 81.7493 24.6489 81.4859 24.6489 81.3707C24.6489 81.2555 24.7147 80.8112 24.7147 80.8112L24.6489 80.5149L24.5337 80.2845L24.5008 79.906L24.2704 79.6098L23.9741 79.5769L23.826 79.9225L24.0071 80.1035L24.0894 80.2845L23.8589 80.3174L23.5133 80.5808L23.7437 80.6137L23.8919 80.6466L23.9248 80.7947L23.8919 80.9922L23.8589 81.1733L23.6285 81.3543L23.5956 81.5847L23.6779 81.8151L23.7108 82.0784L23.7437 82.3417L23.826 82.5721L23.9083 82.8355L24.0894 83.1317H23.9412V83.7736L19.5799 100.939L19.3495 100.791L18.6748 106.65L18 107.407V167H51.3762V137.837C51.3762 135.467 54.0259 133.525 57.3009 133.525C60.576 133.525 63.2257 135.451 63.2257 137.837V167H78.8605V154.031C78.8605 151.299 81.8558 149.078 85.6082 148.995V145.786H82.3495H82.1027ZM80.2759 107.983C80.2759 107.242 80.7367 106.633 81.2962 106.633C81.8558 106.633 82.3166 107.242 82.3166 107.983V117.117H80.2923V107.983H80.2759ZM24.5008 111.34H23.826V108.526H24.5008V111.34ZM34.2273 152.468C31.989 152.468 30.1787 150.658 30.1787 148.403C30.1787 146.148 31.989 144.354 34.2273 144.354C36.4655 144.354 38.2923 146.165 38.2923 148.403C38.2923 150.641 36.482 152.468 34.2273 152.468ZM47.5745 112.377H47.1795V110.567H47.5745V112.377ZM47.5745 104.23H47.1795V102.42H47.5745V104.23ZM47.5745 97.1701H47.1795V95.3762H47.5745V97.1701ZM47.5745 89.2869H47.1795V87.4765H47.5745V89.2869ZM47.5745 78.3919H47.1795V76.5815H47.5745V78.3919ZM47.5745 69.5377H47.1795V67.7438H47.5745V69.5377ZM47.5745 59.6302H47.1795V57.8198H47.5745V59.6302ZM47.5745 51.1874H47.1795V49.377H47.5745V51.1874ZM53.993 106.14H53.565V103.72H53.993V106.14ZM53.993 96.6106H53.565V94.8002H53.993V96.6106ZM53.993 94.4711H53.565V92.6607H53.993V94.4711ZM56.1818 72.2532H52.5941V58.33C52.5941 53.5573 54.3879 51.1215 54.3879 51.1215C54.3879 51.1215 56.1818 53.5408 56.1818 58.33V72.2532ZM58.239 92.6772H58.6669V94.4875H58.239V92.6772ZM58.239 94.8167H58.6669V96.627H58.239V94.8167ZM59.3746 109.579H57.5149V106.6H59.3746V109.579ZM60.214 72.2532H59.5063V58.33C59.5063 53.5573 61.3002 51.1215 61.3002 51.1215C61.3002 51.1215 63.0941 53.5408 63.0941 58.33V72.2532H60.214ZM63.3245 105.909H62.8965V103.49H63.3245V105.909ZM63.3245 96.6106H62.8965V94.8002H63.3245V96.6106ZM63.3245 94.4711H62.8965V92.6607H63.3245V94.4711ZM68.9859 112.393H68.5909V110.583H68.9859V112.393ZM68.9859 104.247H68.5909V102.437H68.9859V104.247ZM68.9859 97.1866H68.5909V95.3927H68.9859V97.1866ZM68.9859 89.3034H68.5909V87.493H68.9859V89.3034ZM68.9859 78.4084H68.5909V76.598H68.9859V78.4084ZM68.9859 69.5541H68.5909V67.7602H68.9859V69.5541ZM68.9859 59.6466H68.5909V57.8363H68.9859V59.6466ZM68.9859 51.2038H68.5909V49.3935H68.9859V51.2038Z" fill="#40BBB2"/>
<path d="M152.74 106.65L152.065 100.791L151.834 100.939L147.49 83.7735V83.1317H147.325L147.506 82.8354L147.572 82.5721L147.654 82.3417L147.687 82.0784L147.72 81.815L147.802 81.5846L147.769 81.3542L147.539 81.1732L147.506 80.9922L147.473 80.7947L147.506 80.6465L147.654 80.6136L147.885 80.5807L147.539 80.3174L147.309 80.2845L147.391 80.1034L147.572 79.9224L147.424 79.5768L147.128 79.6097L146.897 79.9059L146.864 80.2845L146.749 80.5149L146.683 80.8111C146.683 80.8111 146.749 81.2555 146.749 81.3707C146.749 81.4859 146.601 81.7492 146.601 81.7492V82.0454L146.683 82.424L146.749 82.6544L146.93 83.1481V83.79L142.569 100.955L142.338 100.807L141.664 106.666L140.989 107.423V112.031H127.214V87.1473L126.078 85.2382V72.0885L126.44 71.8088L126.078 71.6607V62.4443L126.44 62.1646L126.078 62.0165V55.1042L126.44 54.8245L126.078 54.6763V40.0125L126.424 38.9922H126.342L125.667 33.9067L125.371 34.8448C125.371 34.8448 123.478 26.3527 122.951 20.6089C123.215 20.5925 123.412 20.5102 123.412 20.4279C123.412 20.3456 123.248 20.2798 123.034 20.2469C123.017 20.1317 122.918 20.0494 122.803 20.0494C122.688 20.0494 122.589 20.1317 122.556 20.2469C122.342 20.2798 122.178 20.3456 122.178 20.4279C122.178 20.5102 122.375 20.5925 122.639 20.6089C122.112 26.3691 120.219 34.8448 120.219 34.8448L119.923 33.9067L119.265 38.844L119.1 38.877L119.495 39.5023V40.8519H118.705C118.705 40.7696 118.639 40.7038 118.557 40.7038H118.409V39.7821H118.606C118.606 39.7821 118.738 39.7328 118.738 39.6505C118.738 39.5682 118.672 39.5188 118.606 39.5188H118.409V38.9757C118.409 38.9757 118.541 38.844 118.541 38.7453C118.541 38.5972 118.425 38.482 118.277 38.482C118.129 38.482 118.014 38.5972 118.014 38.7453C118.014 38.844 118.063 38.9263 118.146 38.9757V39.5188H117.948C117.948 39.5188 117.816 39.5846 117.816 39.6505C117.816 39.7163 117.882 39.7821 117.948 39.7821H118.146V40.7038H117.998C117.915 40.7038 117.849 40.7696 117.849 40.8519H117.257C117.257 40.7696 117.191 40.7038 117.092 40.7038H116.944V39.7821H117.142C117.142 39.7821 117.273 39.7328 117.273 39.6505C117.273 39.5682 117.224 39.5188 117.142 39.5188H116.944V38.9757C116.944 38.9757 117.076 38.844 117.076 38.7453C117.076 38.5972 116.961 38.482 116.813 38.482C116.664 38.482 116.549 38.5972 116.549 38.7453C116.549 38.844 116.599 38.9263 116.681 38.9757V39.5188H116.483C116.483 39.5188 116.352 39.5846 116.352 39.6505C116.352 39.7163 116.401 39.7821 116.483 39.7821H116.681V40.7038H116.516C116.434 40.7038 116.368 40.7696 116.368 40.8519H115.776C115.776 40.7531 115.71 40.6873 115.628 40.6873H115.479V39.7657H115.677C115.677 39.7657 115.809 39.7163 115.809 39.634C115.809 39.5517 115.759 39.5023 115.677 39.5023H115.479V38.9592C115.479 38.9592 115.611 38.8276 115.611 38.7288C115.611 38.5807 115.496 38.4655 115.348 38.4655C115.2 38.4655 115.084 38.5807 115.084 38.7288C115.084 38.8276 115.134 38.9099 115.216 38.9592V39.5023H115.019C115.019 39.5023 114.887 39.5682 114.887 39.634C114.887 39.6998 114.936 39.7657 115.019 39.7657H115.216V40.6873H115.068C114.986 40.6873 114.92 40.7531 114.92 40.8354H114.327C114.327 40.7531 114.262 40.6873 114.179 40.6873H114.015V39.7657H114.212C114.212 39.7657 114.344 39.7163 114.344 39.634C114.344 39.5517 114.295 39.5023 114.212 39.5023H114.015V38.9592C114.015 38.9592 114.146 38.8276 114.146 38.7288C114.146 38.5807 114.031 38.4655 113.883 38.4655C113.735 38.4655 113.62 38.5807 113.62 38.7288C113.62 38.8276 113.669 38.9099 113.751 38.9592V39.5023H113.554C113.554 39.5023 113.422 39.5682 113.422 39.634C113.422 39.6998 113.472 39.7657 113.554 39.7657H113.751V40.6873H113.603C113.521 40.6873 113.455 40.7531 113.455 40.8354H112.863C112.863 40.7367 112.797 40.6708 112.715 40.6708H112.566V39.7492H112.764C112.764 39.7492 112.896 39.6998 112.896 39.6175C112.896 39.5353 112.83 39.4859 112.764 39.4859H112.566V38.9428C112.566 38.9428 112.698 38.8111 112.698 38.7124C112.698 38.5643 112.583 38.449 112.435 38.449C112.287 38.449 112.171 38.5643 112.171 38.7124C112.171 38.8111 112.221 38.8934 112.303 38.9428V39.4859H112.106C112.106 39.4859 111.974 39.5517 111.974 39.6175C111.974 39.6834 112.023 39.7492 112.106 39.7492H112.303V40.6708H112.155C112.073 40.6708 112.007 40.7367 112.007 40.819H111.414C111.414 40.7202 111.349 40.6544 111.266 40.6544H111.118V39.7327H111.316C111.316 39.7327 111.447 39.6834 111.447 39.6011C111.447 39.5188 111.398 39.4694 111.316 39.4694H111.118V38.9263C111.118 38.9263 111.25 38.7947 111.25 38.6959C111.25 38.5478 111.135 38.4326 110.987 38.4326C110.838 38.4326 110.723 38.5478 110.723 38.6959C110.723 38.7947 110.773 38.877 110.855 38.9263V39.4694H110.657C110.657 39.4694 110.526 39.5353 110.526 39.6011C110.526 39.6669 110.575 39.7327 110.657 39.7327H110.855V40.6544H110.69C110.608 40.6544 110.542 40.7202 110.542 40.8025H109.95C109.95 40.7202 109.884 40.6544 109.802 40.6544H109.637V39.7327H109.835C109.835 39.7327 109.966 39.6834 109.966 39.6011C109.966 39.5188 109.9 39.4694 109.835 39.4694H109.637V38.9263C109.637 38.9263 109.769 38.7947 109.769 38.6959C109.769 38.5478 109.653 38.4326 109.505 38.4326C109.357 38.4326 109.242 38.5478 109.242 38.6959C109.242 38.7947 109.291 38.877 109.374 38.9263V39.4694H109.176C109.176 39.4694 109.045 39.5353 109.045 39.6011C109.045 39.6669 109.11 39.7327 109.176 39.7327H109.374V40.6544H109.209C109.127 40.6544 109.061 40.7202 109.061 40.8025H108.469C108.469 40.7202 108.403 40.6544 108.32 40.6544H108.172V39.7327H108.37C108.37 39.7327 108.501 39.6834 108.501 39.6011C108.501 39.5188 108.436 39.4694 108.37 39.4694H108.172V38.9263C108.172 38.9263 108.304 38.7947 108.304 38.6959C108.304 38.5478 108.189 38.4326 108.041 38.4326C107.892 38.4326 107.777 38.5478 107.777 38.6959C107.777 38.7947 107.827 38.877 107.909 38.9263V39.4694H107.711C107.711 39.4694 107.58 39.5353 107.58 39.6011C107.58 39.6669 107.629 39.7327 107.711 39.7327H107.909V40.6544H107.761C107.679 40.6544 107.596 40.7202 107.596 40.8025H106.938V39.453L107.333 38.8276L107.168 38.7947L106.51 33.8574L106.214 34.7954C106.214 34.7954 104.321 26.3033 103.795 20.5596C104.058 20.5431 104.255 20.4608 104.255 20.3785C104.255 20.2962 104.091 20.2304 103.877 20.1975C103.86 20.0823 103.762 20 103.63 20C103.498 20 103.416 20.0823 103.4 20.1975C103.169 20.2304 103.021 20.2962 103.021 20.3785C103.021 20.4608 103.219 20.5431 103.482 20.5596C102.955 26.3197 101.063 34.7954 101.063 34.7954L100.766 33.8574L100.092 38.9263H100.009L100.355 39.9631V54.6269L99.9928 54.7751L100.355 55.0549V61.9671L99.9928 62.1152L100.355 62.395V71.6113L99.9928 71.7594L100.355 72.0392V85.1889L99.2358 87.0979V110.698L86.6127 87.6575C86.7937 87.5094 86.8925 87.3119 86.8925 87.0979C86.8925 86.7523 86.6292 86.4726 86.2671 86.3409C86.2836 86.2915 86.3 86.2421 86.3 86.1763C86.3 86.1105 86.2836 86.0447 86.2506 85.9953H86.3823C86.5963 85.9953 86.7773 85.8307 86.7773 85.6332C86.7773 85.4357 86.5963 85.2547 86.3823 85.2547H86.0038C86.0532 84.1849 86.7115 84.0862 86.9748 84.1027V84.2178C86.9748 84.3001 87.0406 84.366 87.1394 84.366C87.2381 84.366 87.2875 84.3001 87.2875 84.2178V83.5431C87.2875 83.4608 87.2217 83.395 87.1394 83.395C87.0571 83.395 86.9748 83.4608 86.9748 83.5431V83.6418C85.9544 83.6418 85.9873 82.8683 86.0038 82.6379H86.0367C86.0367 82.6379 86.1684 82.5721 86.1684 82.5063C86.1684 82.4404 86.1025 82.3746 86.0367 82.3746H85.5594V83.6254L85.7734 83.4114L86.333 83.971L85.7734 84.5305L85.5594 84.3166V85.2712C85.5594 85.2712 85.5594 85.2712 85.5594 85.2876V119.24C85.6911 119.158 85.7734 119.108 85.7734 119.108C85.7734 119.108 91.5006 122.169 91.5006 128.193V145.77H85.543V148.979C85.543 148.979 85.6911 148.979 85.7569 148.979C89.608 148.979 92.7185 151.25 92.7185 154.031V167H108.353V137.837C108.353 135.467 111.003 133.525 114.278 133.525C117.553 133.525 120.203 135.451 120.203 137.837V167H153.579V107.407L152.904 106.65H152.74ZM90.8752 117.1H88.851V107.966C88.851 107.226 89.3118 106.617 89.8713 106.617C90.4309 106.617 90.8917 107.226 90.8917 107.966V117.1H90.8752ZM102.544 112.36H102.149V110.55H102.544V112.36ZM102.544 104.214H102.149V102.404H102.544V104.214ZM102.544 97.1536H102.149V95.3597H102.544V97.1536ZM102.544 89.2704H102.149V87.46H102.544V89.2704ZM102.544 78.3754H102.149V76.565H102.544V78.3754ZM102.544 69.5212H102.149V67.7273H102.544V69.5212ZM102.544 59.6136H102.149V57.8033H102.544V59.6136ZM102.544 51.1708H102.149V49.3605H102.544V51.1708ZM114.969 58.297C114.969 53.5243 116.763 51.0886 116.763 51.0886C116.763 51.0886 118.557 53.5078 118.557 58.297V72.2202H114.969V58.297ZM108.041 58.297C108.041 53.5243 109.835 51.0886 109.835 51.0886C109.835 51.0886 111.628 53.5078 111.628 58.297V72.2202H108.041V58.297ZM110.41 109.546H107.366V103.161C107.366 102.634 108.057 102.223 108.88 102.223C109.703 102.223 110.394 102.65 110.394 103.161V109.546H110.41ZM112.221 100.527H110.197V93.6481C110.197 93.0886 110.657 92.6277 111.217 92.6277C111.777 92.6277 112.237 93.0886 112.237 93.6481V100.527H112.221ZM115.315 109.546H112.27V103.161C112.27 102.634 112.945 102.223 113.784 102.223C114.624 102.223 115.298 102.65 115.298 103.161V109.546H115.315ZM115.595 93.6646C115.595 93.105 116.056 92.6442 116.615 92.6442C117.175 92.6442 117.635 93.105 117.635 93.6646V100.544H115.611V93.6646H115.595ZM120.219 109.546H117.175V103.161C117.175 102.634 117.849 102.223 118.689 102.223C119.528 102.223 120.203 102.65 120.203 103.161V109.546H120.219ZM123.972 112.36H123.577V110.55H123.972V112.36ZM123.972 104.214H123.577V102.404H123.972V104.214ZM123.972 97.1536H123.577V95.3597H123.972V97.1536ZM123.972 89.2704H123.577V87.46H123.972V89.2704ZM123.972 78.3754H123.577V76.565H123.972V78.3754ZM123.972 69.5212H123.577V67.7273H123.972V69.5212ZM123.972 59.6136H123.577V57.8033H123.972V59.6136ZM123.972 51.1708H123.577V49.3605H123.972V51.1708ZM136.924 152.468C134.686 152.468 132.875 150.658 132.875 148.403C132.875 146.148 134.686 144.354 136.924 144.354C139.162 144.354 140.972 146.165 140.972 148.403C140.972 150.641 139.162 152.468 136.924 152.468ZM147.325 111.34H146.65V108.526H147.325V111.34Z" fill="#37ABA3"/>
<path d="M85.0318 83.971L85.361 83.6419V82.3911H85.3281C85.3281 82.3911 85.1964 82.4569 85.1964 82.5228C85.1964 82.5886 85.2622 82.6544 85.3281 82.6544H85.361C85.3939 82.8848 85.4104 83.6419 84.39 83.6583V83.5596C84.39 83.4773 84.3242 83.4115 84.2419 83.4115C84.1596 83.4115 84.0938 83.4773 84.0938 83.5596V84.2344C84.0938 84.3167 84.1596 84.3825 84.2419 84.3825C84.3242 84.3825 84.39 84.3167 84.39 84.2344V84.1191C84.6533 84.1191 85.3116 84.2179 85.361 85.2547V84.3002L85.0318 83.971Z" fill="#F4D13E"/>
<rect y="164" width="352" height="11" fill="#3A383E"/>
</svg>
