<svg width="465" height="158" viewBox="0 0 465 158" fill="none" xmlns="http://www.w3.org/2000/svg">
<path d="M140.794 132.203L141.097 129.374C141.686 128.01 140.508 127.522 140.508 127.522L140.12 125.046L136.752 124.676C135.169 121.712 133.569 111.607 133.569 111.607L133.67 110.26C133.67 108.896 134.765 107.667 134.765 107.667L132.576 106.673L132.273 104.955L128.214 103.726L124.947 91.6347L125.537 90.658L125.132 89.2939L125.924 87.071L124.139 86.33L123.852 83.7366L121.764 82.8777C121.276 79.5433 116.712 68.0751 116.712 68.0751L115.719 66.4752L116.308 64.2523C103.543 59.0149 87.41 58.5603 75.2344 59.2507V86.5658C75.2344 86.5658 75.2681 86.5658 75.2849 86.5658C76.9352 86.5658 78.2656 88.2498 78.2656 90.338V96.4848C78.2656 96.9058 78.2151 97.2931 78.1141 97.6636C77.1373 97.6804 76.1943 97.731 75.2344 97.7646V106.724C76.1606 107.498 76.7837 108.812 76.7837 110.311V117.367C76.7837 118.36 76.5142 119.27 76.0595 119.994C75.7901 119.994 75.5207 119.994 75.2344 119.994V147.208H143C142.107 142.897 140.811 132.169 140.811 132.169L140.794 132.203ZM110.683 92.2241C110.683 90.338 111.913 88.8056 113.445 88.8056C114.978 88.8056 116.19 90.338 116.19 92.2241V100.409C114.371 100.055 112.536 99.735 110.683 99.4487V92.2241ZM101.994 71.1736H104.671V75.3669H101.994V71.1736ZM101.741 90.7759C101.741 88.8729 103.004 87.3236 104.57 87.3236C106.136 87.3236 107.399 88.8729 107.399 90.7759V98.994C105.53 98.7582 103.644 98.5561 101.741 98.3709V90.7759ZM83.3346 69.6917H86.0122V73.885H83.3346V69.6917ZM84.6145 142.072H77.6257V134.14C77.6257 130.957 79.1919 128.38 81.1285 128.38C83.0651 128.38 84.6313 130.957 84.6313 134.14V142.072H84.6145ZM87.1405 117.956C87.1405 118.714 86.9721 119.438 86.7027 120.061C84.6481 120.044 82.6104 120.028 80.5727 120.028C80.3033 119.404 80.1517 118.714 80.1517 117.956V110.883C80.1517 108.492 81.7179 106.555 83.6546 106.555C85.5912 106.555 87.1573 108.492 87.1573 110.883V117.956H87.1405ZM88.0331 97.4951C88.0331 97.4951 88.0331 97.5962 88.0331 97.6467C85.9449 97.6131 83.8566 97.5962 81.7852 97.613C81.7852 97.5794 81.7852 97.5288 81.7852 97.4951V89.917C81.7852 87.7782 83.183 86.0269 84.9007 86.0269C86.6184 86.0269 88.0331 87.7614 88.0331 89.917V97.4951ZM95.628 142.072H88.6224V134.712C88.6224 131.833 90.1886 129.492 92.1253 129.492C94.0619 129.492 95.628 131.833 95.628 134.712V142.072ZM97.4131 118.327C97.4131 119.034 97.2784 119.691 97.0426 120.28C94.9376 120.213 92.8494 120.162 90.7443 120.129C90.5423 119.573 90.4244 118.967 90.4244 118.327V111.254C90.4244 108.862 91.9905 106.926 93.9272 106.926C95.8638 106.926 97.43 108.862 97.43 111.254V118.327H97.4131ZM98.1541 97.0573C98.1541 97.4109 98.1204 97.7478 98.0362 98.0846C96.0996 97.9499 94.1798 97.8488 92.26 97.7814C92.2263 97.5456 92.2094 97.3099 92.2094 97.0741V90.9275C92.2094 88.8393 93.5399 87.1551 95.1902 87.1551C96.8406 87.1551 98.1709 88.8393 98.1709 90.9275V97.0741L98.1541 97.0573ZM106.187 142.072H99.1982V134.696C99.1982 131.513 100.764 128.953 102.701 128.953C104.638 128.953 106.204 131.53 106.204 134.696V142.072H106.187ZM107.82 118.882C107.82 119.539 107.703 120.162 107.501 120.718C105.412 120.6 103.307 120.499 101.202 120.415C101.051 119.926 100.983 119.421 100.983 118.866V111.809C100.983 109.418 102.516 107.481 104.402 107.481C106.288 107.481 107.82 109.418 107.82 111.809V118.866V118.882ZM116.156 142.072H109.168V134.325C109.168 131.142 110.734 128.566 112.654 128.566C114.573 128.566 116.156 131.142 116.156 134.325V142.072ZM117.352 119.623C117.352 120.246 117.251 120.836 117.066 121.375C114.961 121.206 112.822 121.038 110.667 120.903C110.565 120.499 110.515 120.061 110.515 119.623V112.55C110.515 110.159 112.047 108.222 113.933 108.222C115.82 108.222 117.352 110.159 117.352 112.55V119.623ZM118.396 93.9587C118.396 92.0221 119.592 90.4727 121.074 90.4727C122.556 90.4727 123.751 92.0389 123.751 93.9587V102.177C122 101.705 120.215 101.267 118.396 100.863V93.9587ZM118.885 142.072L118.447 135.554C118.245 132.523 119.306 129.946 120.804 129.778C122.32 129.627 123.701 131.951 123.903 134.982L124.375 142.072H118.868H118.885ZM124.964 122.149C123.112 121.947 121.209 121.745 119.289 121.577C119.238 121.341 119.221 121.072 119.205 120.802L118.817 113.763C118.683 111.372 119.912 109.334 121.545 109.199C123.196 109.064 124.627 110.883 124.745 113.275L125.132 120.314C125.166 120.971 125.099 121.594 124.947 122.166L124.964 122.149ZM126.783 142.072L126.345 135.639C126.143 132.675 126.985 130.149 128.197 130.031C129.427 129.896 130.572 132.203 130.774 135.184L131.245 142.072H126.783ZM131.229 122.958C129.78 122.739 128.315 122.554 126.816 122.368C126.816 122.301 126.816 122.234 126.816 122.166L126.463 115.531C126.345 113.291 127.237 111.388 128.467 111.271C129.696 111.17 130.791 112.904 130.925 115.144L131.279 121.779C131.296 122.183 131.279 122.57 131.245 122.941L131.229 122.958ZM132.593 142.072L132.054 136.093C131.784 133.129 132.559 130.586 133.788 130.418C135.001 130.25 136.213 132.523 136.483 135.487L137.072 142.072H132.593Z" fill="#39373D"/>
<path d="M70.5194 120.061C70.0479 119.32 69.7617 118.394 69.7617 117.384V110.327C69.7617 107.936 71.3278 105.999 73.2644 105.999C73.9886 105.999 74.6622 106.269 75.2179 106.74V97.7814C74.3085 97.815 73.3992 97.832 72.5066 97.8825C72.3719 97.4615 72.3045 96.9899 72.3045 96.5016V90.3548C72.3045 88.3003 73.6181 86.6331 75.2348 86.5826V59.2675C64.8106 59.8737 57.2829 61.3052 57.2829 61.3052L57.384 63.0398L56.6935 63.6629L56.4914 65.7511L54.1169 66.1215L46.5724 67.974L43.7938 64.8922C5.70088 79.4423 12.1844 93.7397 12.1844 93.7397L11.3424 99.7854C8.36168 103.558 9.80995 107.683 9.80995 107.683L8.91741 113.662C5.49882 115.817 7.28389 119.943 7.28389 119.943L5.54934 129.492C3.96634 130.351 5.29674 132.085 5.29674 132.085L4 147.258H75.2348V120.044C73.6518 120.044 72.0856 120.061 70.5363 120.078L70.5194 120.061ZM64.9116 70.0453H67.5892V74.2386H64.9116V70.0453ZM62.9413 90.3379C62.9413 88.2497 64.2717 86.5657 65.9221 86.5657C67.5724 86.5657 68.9028 88.2497 68.9028 90.3379V96.4847C68.9028 97.0573 68.8018 97.5962 68.6165 98.0677C66.8314 98.1688 65.0969 98.3034 63.3791 98.4382C63.1097 97.8656 62.9581 97.192 62.9581 96.4847V90.3379H62.9413ZM53.4097 91.2641C53.4097 89.1759 54.74 87.4919 56.3904 87.4919C58.0408 87.4919 59.3711 89.1759 59.3711 91.2641V97.4109C59.3711 97.8993 59.3038 98.3708 59.169 98.8087C57.3334 98.9771 55.5652 99.1624 53.8475 99.3476C53.578 98.775 53.4265 98.1182 53.4265 97.4109V91.2641H53.4097ZM47.6671 73.6155L50.2437 73.3628V77.5562L47.6671 77.8087V73.6155ZM45.0905 92.9146C45.0905 90.8264 46.4209 89.1423 48.0713 89.1423C49.7216 89.1423 51.052 90.8264 51.052 92.9146V99.0612C51.052 99.2633 51.0352 99.4655 51.0183 99.6676C48.9806 99.9033 47.0777 100.156 45.2926 100.409C45.1747 99.9875 45.0905 99.5496 45.0905 99.0781V92.9314V92.9146ZM44.619 106.926C46.5388 107.111 47.987 109.132 47.8355 111.456L47.3977 118.31C47.3303 119.236 47.044 120.061 46.5724 120.701C44.7705 120.769 43.0528 120.853 41.4025 120.92C40.712 120.078 40.3247 118.899 40.4089 117.636L40.8467 110.782C40.9983 108.458 42.6823 106.724 44.6021 106.909L44.619 106.926ZM37.2934 93.3356C37.445 91.2642 38.8932 89.7317 40.5268 89.9001C42.1603 90.0853 43.3728 91.9042 43.2212 93.9755L42.7834 100.105C42.7834 100.324 42.7329 100.543 42.6992 100.762C40.6278 101.065 38.7922 101.352 37.2261 101.621C36.9398 100.981 36.805 100.24 36.8556 99.4486L37.2934 93.3187V93.3356ZM18.0112 90.0685L17.0681 90.6916L17.506 87.1719L18.3985 86.6163L17.9943 90.0685H18.0112ZM25.101 85.5048L24.0569 85.8079L24.259 82.3556L25.4041 81.7325L25.1178 85.4879L25.101 85.5048ZM34.3295 77.6066L36.3167 76.7983L35.8283 80.9916L33.9422 81.5473L34.3464 77.5898L34.3295 77.6066ZM43.3391 134.19L42.6823 142.038H35.6599C35.6599 142.038 35.6599 141.886 35.6767 141.819L36.3672 133.483C36.6029 130.654 38.3544 128.532 40.2742 128.734C42.194 128.936 43.5749 131.378 43.3223 134.207L43.3391 134.19ZM52.8371 142.021L45.8483 142.038V134.005C45.8483 131.294 47.4145 129.088 49.3511 129.088C51.2878 129.088 52.8539 131.277 52.8539 134.005V142.021H52.8371ZM50.5805 120.55C50.1258 119.825 49.8563 118.916 49.8563 117.922V110.849C49.8563 108.458 51.4225 106.522 53.3591 106.522C55.2957 106.522 56.8619 108.458 56.8619 110.849V117.922C56.8619 118.832 56.6261 119.674 56.2556 120.364C54.3022 120.432 52.4161 120.499 50.5973 120.566L50.5805 120.55ZM63.5476 142.038H56.5588V133.365C56.5588 130.182 58.1249 127.606 60.0616 127.606C61.9982 127.606 63.5644 130.182 63.5644 133.365V142.038H63.5476ZM66.6798 117.367C66.6798 118.411 66.3767 119.371 65.8883 120.129C64.0864 120.162 62.3182 120.196 60.5668 120.246C60.0111 119.472 59.6911 118.478 59.6911 117.367V110.311C59.6911 107.919 61.2573 105.983 63.1939 105.983C65.1306 105.983 66.6967 107.919 66.6967 110.311V117.367H66.6798ZM67.2693 142.038V133.18C67.2693 129.997 68.8354 127.42 70.7721 127.42C72.7087 127.42 74.2749 129.997 74.2749 133.18V142.038H67.2861H67.2693Z" fill="#3A383E"/>
<path d="M225.619 143.019C225.93 139.365 223.177 137.825 223.177 137.825C222.866 129.583 214.935 124.389 214.935 124.389C213.691 123.068 212.432 122.601 211.265 122.632L208.544 70.351H210.301C210.799 70.351 211.219 69.9311 211.219 69.4335C211.219 68.9359 210.814 68.516 210.301 68.516H208.451L208.326 66.2612C211.701 65.6702 214.267 62.7468 214.267 59.2012C214.267 56.1533 212.354 53.5408 209.664 52.5144C209.679 52.4056 209.695 52.2967 209.695 52.1879V46.3875C209.695 45.6877 209.415 45.0501 208.979 44.5836L208.093 22.9372L207.144 0V146.969H229.304C228.993 143.299 225.634 143.003 225.634 143.003L225.619 143.019Z" fill="#DCBD39"/>
<path d="M188.67 143.019C188.359 139.365 191.111 137.825 191.111 137.825C191.422 129.583 199.353 124.389 199.353 124.389C200.597 123.068 201.857 122.601 203.023 122.648L205.745 70.3666H203.987C203.474 70.3666 203.07 69.9623 203.07 69.4491C203.07 68.9359 203.474 68.5316 203.987 68.5316H205.838L205.962 66.2768C202.588 65.6859 200.022 62.7623 200.022 59.2168C200.022 56.1689 201.935 53.5564 204.625 52.53C204.609 52.4212 204.594 52.3123 204.594 52.2035V46.4031C204.594 45.7033 204.874 45.0657 205.325 44.5992L206.211 22.9683L207.144 0.0311279V147H185C185.311 143.33 188.67 143.035 188.67 143.035V143.019Z" fill="#F4D13E"/>
<path d="M158.746 25.2385L158.23 34.2535C158.23 34.2535 156.645 34.5669 155.815 35.5256L148.68 29.0362L154.193 36.3921C154.193 36.3921 152.755 38.0144 152.828 38.4937H146.874C146.874 38.4937 145.638 29.4234 144.422 26.1049C144.33 25.3491 144.274 24.6117 144.2 23.8742C144.053 22.2703 143.979 20.9982 144.219 19.4128C144.495 17.6798 144.164 15.9284 143.445 14.343C143.445 14.343 143.002 13.3843 143.979 12.776C143.979 12.776 149.584 9.88156 143.537 4.18494C143.537 4.18494 144.071 3.96368 143.813 3.06033L144.164 2.30446L143.463 2.43352L143.205 1.95418L143.592 1.0877L142.136 1.43798C142.136 1.43798 142.965 0 142.744 0L140.679 0.884933L140.495 0.368736C140.495 0.368736 138.983 0.977087 138.633 1.49329L138.32 2.19385C138.32 2.19385 138.098 3.39218 138.098 3.41061C138.098 3.41061 135.904 3.85306 135.112 6.39718C135.112 6.39718 133.176 10.8586 137.213 12.9603C137.545 13.1446 137.176 15.2463 137.195 15.6703C137.25 16.924 138.135 17.9379 138.264 19.0994C138.264 19.0994 138.522 21.2932 138.836 22.7865C139.02 23.6899 138.78 24.8144 138.799 25.7178C138.817 27.7642 138.578 29.8105 138.873 31.82C138.983 32.6312 139.112 33.4608 139.278 34.2719C139.518 35.4702 140.108 36.558 140.311 37.7931C140.44 38.5859 140.993 40.5032 140.679 41.2038C140.679 41.2038 136.863 46.3289 136.863 49.4814C136.863 49.4814 137.785 53.1685 139.887 53.1685C139.887 53.1685 138.965 59.7501 141.195 59.492C141.195 59.492 141.195 60.9299 141.454 61.5936C141.454 61.5936 139.739 66.4607 141.841 66.9769C141.841 66.9769 137.25 82.8868 141.454 84.1958C141.454 84.1958 139.352 89.4499 140.808 91.9572C140.808 91.9572 142.504 99.7186 142.504 100.364V103.793C142.504 103.793 141.325 109.969 141.601 112.605C141.601 112.605 139.757 126.008 141.343 131.004C141.343 131.004 142.246 132.718 140.292 135.336L133.84 135.594L130.153 137.973L130.023 142.047L127 143.614L127.129 144.941L127.922 145.734V146.011L127.793 147.32L159.078 147.393V27.672L158.728 25.2569L158.746 25.2385ZM152.312 46.9557L153.013 47.14C153.013 47.14 152.921 47.14 153.713 48.449L151.962 48.5412C151.962 48.5412 150.911 47.2322 150.026 46.9557C149.731 46.8635 149.86 46.7898 149.86 46.7898C149.86 46.7898 149.86 46.3473 149.602 44.5959H151.501C151.685 44.5959 151.907 44.5222 151.999 44.725C152.091 44.9462 152.257 45.3333 152.589 45.9786H152.146L152.331 46.9373L152.312 46.9557ZM152.128 41.001C151.851 42.8446 151.962 43.0842 152.017 43.1026L149.233 43.1948C149.233 42.3099 148.275 40.577 148.275 40.577L152.128 41.0194V41.001Z" fill="#40BBB2"/>
<path d="M192.999 65.889L191.948 64.7091L184.186 64.8382L179.725 70.627C179.725 70.627 178.803 70.0924 177.494 70.0924L174.729 66.1471C174.729 66.1471 174.858 57.9986 167.631 55.2332C166.912 54.9567 167.115 52.2466 166.359 52.0807C166.488 52.0991 166.783 50.4768 166.802 50.3293C166.894 49.3338 166.525 48.5226 166.193 47.6193C166.193 47.6193 165.806 46.5684 165.972 45.6467L166.58 45.3886L166.488 45.0383L166.267 44.9461C166.267 44.9461 166.396 43.4897 166.304 43.1947L175.116 42.4942L166.267 41.7567C166.267 41.7567 166.23 40.5215 165.917 39.6366L173.678 35.6545L165.345 38.0696C165.345 38.0696 164.681 36.8897 163.981 36.2444L168.793 28.778L162.432 35.2674C162.432 35.2674 160.552 34.5484 160.073 34.4746L159.059 27.635V147.356L186.141 147.412V142.287L183.246 140.719L182.859 136.387L180.499 135.336C180.499 135.336 179.707 129.824 179.19 125.344L180.905 123.113L180.241 115.61L181.292 113.914L180.886 110.503L181.937 109.047C181.937 109.047 181.403 95.6442 180.499 93.8006C180.499 93.8006 183.265 94.9805 184.315 88.6755C184.315 88.6755 185.108 83.1633 184.721 82.3706C184.721 82.3706 188.537 83.4214 191.948 71.1985L191.155 69.355L192.999 65.9444V65.889Z" fill="#37ABA3"/>
<path d="M370.349 72.7806L369.823 70.2613L369.546 68.9186V65.8178H369.338V68.9186L368.536 72.7806L368.231 74.2064H367.304L366.708 73.4174L366.182 74.2064H364.909L359.579 61.762L359.358 61.4159V59.298H359.136V61.0975L357.531 58.6889V55.6158H357.309V58.6335L355.8 60.1424V58.3428H355.579V60.3639L354.831 61.1252L352.035 66.1362L351.398 63.1185V60.0316H351.191V63.1324L350.388 66.9944L349.682 70.3859L349.654 70.4412L347.495 70.2336L346.637 68.9324L345.543 71.258L345.1 69.1677L344.283 65.3056V62.2049H344.076V65.3056L343.273 69.1677L342.428 73.2098H341.778V88.6166C338.054 96.839 333.874 103.553 329.998 108.827H329.901V108.965C327.409 112.329 325.056 115.097 323.035 117.285C319.63 120.953 316.709 123.486 314.882 124.939V116.468L313.581 115.748V113.727L310.923 113.312V110.488H310.784V113.284L298.035 111.291V108.384H297.897V111.263L295.599 114.862H292V142.367H314.328V133.729L328.101 132.373V132.857L323.132 137.605L322.703 146.686H369.892V98.3202L370.875 95.2748V90.3053L371.18 90.25V76.4351L370.418 72.8222L370.349 72.7806ZM326.745 113.824C327.714 112.661 328.711 111.401 329.735 110.045C329.569 110.585 329.029 112.315 328.42 114.115C327.714 113.99 327.077 113.907 326.745 113.879V113.824ZM328.503 114.239C328.89 114.308 329.278 114.405 329.652 114.516C328.918 115.485 328.143 116.426 327.354 117.354C327.714 116.454 328.115 115.333 328.489 114.239H328.503ZM326.745 113.99C327.077 114.018 327.7 114.087 328.378 114.211C327.963 115.457 327.506 116.717 327.105 117.644C326.98 117.783 326.856 117.921 326.745 118.074V113.99ZM326.302 114.35C326.08 115 325.637 116.343 325.111 117.755C324.488 117.548 323.935 117.409 323.644 117.354C324.475 116.454 325.361 115.443 326.288 114.35H326.302ZM325.181 117.907C325.596 118.046 326.039 118.212 326.454 118.392C325.596 119.361 324.738 120.275 323.907 121.119C324.295 120.247 324.751 119.056 325.181 117.907ZM323.423 117.824C323.478 117.658 323.519 117.561 323.519 117.561H323.478C323.478 117.561 323.533 117.492 323.561 117.464C323.824 117.534 324.405 117.672 325.07 117.88C324.599 119.167 324.087 120.496 323.672 121.368C323.589 121.451 323.506 121.534 323.423 121.617V117.838V117.824ZM320.377 124.441C320.377 124.441 320.308 124.496 320.28 124.524C319.92 124.303 319.519 124.095 319.159 123.915C319.602 122.891 320.031 121.88 320.308 121.202L320.391 124.441H320.377ZM320.183 124.607C319.381 125.299 318.619 125.922 317.913 126.476C318.287 125.812 318.702 124.912 319.104 124.012C319.464 124.192 319.837 124.386 320.183 124.607ZM320.294 120.814V120.911C320.031 121.576 319.561 122.725 319.048 123.874C318.453 123.583 317.927 123.375 317.65 123.264C318.453 122.559 319.339 121.742 320.294 120.814ZM317.429 123.472L317.512 126.808C317.512 126.808 317.47 126.836 317.457 126.85C317 126.531 316.515 126.255 316.086 126.019C316.46 125.189 316.792 124.386 317.014 123.86C317.152 123.735 317.29 123.611 317.443 123.486L317.429 123.472ZM316.834 123.984C316.626 124.51 316.321 125.216 315.989 125.964C315.574 125.742 315.228 125.576 315.02 125.479C315.532 125.078 316.141 124.58 316.82 123.984H316.834ZM314.854 125.618C314.854 125.618 314.909 125.576 314.923 125.562C315.117 125.645 315.491 125.839 315.948 126.075C315.574 126.891 315.186 127.736 314.854 128.359V125.632V125.618ZM314.854 128.552C315.214 127.929 315.643 127.016 316.045 126.13C316.46 126.365 316.93 126.642 317.373 126.947C316.377 127.708 315.532 128.289 314.868 128.732V128.566L314.854 128.552ZM314.854 129.674V129.411C315.532 128.968 316.446 128.345 317.526 127.528L317.567 129.48L314.84 129.674H314.854ZM317.623 123.375C317.899 123.486 318.425 123.694 319.021 123.984C318.578 124.981 318.093 125.992 317.706 126.67L317.623 123.375ZM317.761 129.452L317.706 127.376C317.706 127.376 317.789 127.307 317.83 127.279C317.83 127.279 317.858 127.293 317.858 127.307L317.927 127.223C317.927 127.223 317.927 127.223 317.913 127.223C318.675 126.642 319.505 125.978 320.391 125.216L320.488 129.272L317.747 129.466L317.761 129.452ZM320.488 120.801C320.792 120.87 321.374 121.022 322.011 121.23C321.582 122.296 321.111 123.375 320.723 124.15C320.668 124.192 320.613 124.247 320.557 124.289L320.474 120.801H320.488ZM323.243 129.051L320.682 129.231L320.585 125.036C321.429 124.303 322.315 123.5 323.243 122.6V129.051ZM323.243 121.797C322.454 122.572 321.692 123.292 320.959 123.943C321.319 123.195 321.734 122.226 322.121 121.257C322.495 121.382 322.883 121.52 323.243 121.686V121.797ZM323.243 121.562C322.897 121.41 322.523 121.271 322.163 121.147C322.592 120.067 322.994 119.015 323.243 118.337V121.562ZM323.243 118.004C323.007 118.655 322.551 119.859 322.052 121.105C321.402 120.897 320.82 120.745 320.516 120.676C320.543 120.621 320.557 120.579 320.571 120.537C321.415 119.707 322.315 118.793 323.243 117.797V118.004ZM326.551 128.802L323.423 129.023V122.406C324.433 121.423 325.485 120.344 326.551 119.153V128.802ZM326.551 118.295C326.551 118.295 326.551 118.295 326.537 118.309C326.122 118.115 325.651 117.949 325.222 117.797C325.831 116.136 326.343 114.558 326.496 114.115C326.51 114.087 326.537 114.073 326.551 114.045V118.281V118.295ZM329.859 126.559H328.032V128.691L326.745 128.788V118.946C327.063 118.586 327.395 118.212 327.714 117.838C328.447 116.98 329.167 116.08 329.859 115.18V126.559ZM329.859 114.225C329.859 114.225 329.763 114.35 329.721 114.419C329.333 114.308 328.932 114.211 328.531 114.128C329.167 112.26 329.721 110.474 329.859 110.017V114.225ZM329.859 109.893H329.846C329.846 109.893 329.846 109.865 329.859 109.865V109.893ZM333.5 104.688C334.607 103.013 335.729 101.227 336.836 99.3307C336.573 100.23 336.144 101.615 335.687 103.068C334.774 103.733 333.943 104.411 333.514 104.771V104.702L333.5 104.688ZM335.812 103.11C336.282 102.777 336.767 102.445 337.238 102.155C336.31 104.079 335.286 105.961 334.206 107.775C334.718 106.473 335.3 104.743 335.826 103.11H335.812ZM333.5 104.909C333.901 104.577 334.704 103.913 335.618 103.248C334.981 105.228 334.261 107.332 333.708 108.578C333.638 108.688 333.569 108.799 333.514 108.896V104.895L333.5 104.909ZM330.039 109.74C330.441 109.657 331.202 109.533 332.019 109.45C331.645 110.64 331.244 111.858 330.87 112.841C330.593 113.229 330.316 113.602 330.039 113.976V109.74ZM332.143 109.436C332.503 109.408 332.849 109.38 333.209 109.38C332.545 110.432 331.853 111.457 331.133 112.467C331.465 111.554 331.811 110.474 332.143 109.436ZM333.306 126.559H330.039V114.931C331.188 113.436 332.282 111.886 333.306 110.294V126.559ZM333.306 109.228C333.306 109.228 333.292 109.256 333.279 109.27C332.919 109.27 332.545 109.284 332.185 109.325C332.656 107.816 333.085 106.377 333.306 105.588V109.228ZM333.306 105.158C333.14 105.767 332.628 107.498 332.06 109.339C331.23 109.422 330.468 109.56 330.039 109.643C331.078 108.231 332.143 106.736 333.209 105.131V105.158C333.209 105.158 333.251 105.131 333.306 105.089V105.158ZM337.334 126.559H333.486V110.003C334.884 107.83 336.172 105.56 337.334 103.234V126.559ZM337.334 101.919C337.334 101.919 337.334 101.947 337.321 101.961C336.836 102.251 336.338 102.584 335.867 102.93C336.421 101.199 336.891 99.6075 337.127 98.8185C337.196 98.6939 337.265 98.5693 337.348 98.4448V101.919H337.334ZM341.722 126.559H337.514V102.847C337.805 102.265 338.082 101.67 338.359 101.075C339.646 98.2925 340.754 95.3994 341.722 92.4233V126.545V126.559ZM341.722 90.4853C340.657 94.0705 339.369 97.5173 337.847 100.826C337.736 101.061 337.625 101.296 337.514 101.518V98.1126C338.94 95.5794 340.352 92.8662 341.722 89.9454V90.4853Z" fill="#F36C68"/>
<path d="M455.634 56.4742V54.7439H454.679L453.586 49.4837L452.478 44.1958V40.8182H452.188V44.1958L451.08 49.4837L449.987 54.7439H449.018V56.3219H448.948L443.619 44.6526L442.47 46.3829L438.774 35.295V32.222H438.483V34.6167L436.559 30.2979V28H436.269V30.201L435.023 32.1666V30.5055H434.732V32.6096L434.4 33.1356L433.818 34.5752L428.351 45.8154L426.053 43.2268L422.994 50.425H422.205L421.042 44.8879L419.934 39.6001V35.3643H419.644V39.6001L418.536 44.8879L417.374 50.425H416.474V52.1553H417.678V64.2399L399.766 68.9325V67.7836L396.527 68.6418V69.7769L391.626 71.0642L382.116 73.5559V71.8533C382.158 71.7702 382.186 71.6872 382.186 71.5903V71.2996C382.186 70.995 381.95 70.7597 381.646 70.7597C381.341 70.7597 381.106 71.0089 381.106 71.2996V71.5903C381.106 71.6872 381.134 71.7841 381.175 71.8533V72.2685L379.943 72.6285C379.943 72.6285 379.957 72.5316 379.957 72.4762L379.916 72.1855C379.888 71.9363 379.583 71.7702 379.223 71.7564V71.1473H379.583V70.4275H379.223V69.7077H378.933V70.4275H378.504V71.1473H378.933V71.7841C378.504 71.8671 378.199 72.144 378.241 72.4208L378.282 72.7115C378.296 72.8499 378.407 72.9745 378.545 73.0437L377.216 73.4313V73.2929C377.258 73.2098 377.285 73.1268 377.285 73.0299V72.7392C377.285 72.4347 377.05 72.1993 376.746 72.1993C376.441 72.1993 376.206 72.4347 376.206 72.7392V73.0299C376.206 73.1268 376.233 73.2098 376.275 73.2929V75.0786L371.112 76.4352V76.3798V90.1947L391.626 86.208L417.678 81.1416V125.479H405.164V126.559H369.949H369.824V146.659H381.397V138.879L379.237 137.578V133.688C379.237 133.688 383.999 131.418 391.626 131.487C395.267 131.515 399.544 132.082 404.292 133.688V136.72L401.704 138.228V146.88H455.288V125.493H455.122V56.5019H455.634V56.4742Z" fill="#DB625E"/>
<path d="M263.48 0.277832L263.536 0.541848L263.578 0.555757V0.277832H263.48Z" fill="#F36C68"/>
<path d="M263.52 0L263.575 0.236198V0.194513L263.52 0Z" fill="#F36C68"/>
<path d="M307.375 144.165L307.792 144.012V143.776L308 143.595H303.123V122.252L303.387 121.988H303.178V121.446L303.415 121.237L303.526 121.126V120.806L303.776 120.654H303.289V120.056H303.554V119.598H303.262C303.262 119.598 303.567 119.181 303.415 118.694L305.388 116.374C305.388 116.374 305.777 116.013 303.54 116.013V115.651L303.248 115.373V113.859L303.456 113.442L303.567 113.289V113.067L303.123 112.942H303.026V112.539H302.984C302.984 112.539 303.012 112.455 303.012 112.414C303.012 112.316 302.97 112.247 302.9 112.191C303.012 112.191 303.081 112.108 303.081 112.011C303.081 111.955 303.067 111.913 303.026 111.886L302.595 109.523C302.595 109.523 302.65 109.412 302.65 109.357C302.65 109.204 302.525 109.079 302.372 109.079C302.22 109.079 302.081 109.204 302.081 109.357C302.081 109.412 302.108 109.468 302.136 109.523L302.039 110.065L301.872 109.19C301.872 109.19 301.928 109.079 301.928 109.023C301.928 108.856 301.789 108.731 301.636 108.731C301.469 108.731 301.33 108.856 301.33 109.023C301.33 109.093 301.358 109.148 301.386 109.19L300.927 111.691C300.927 111.691 300.872 111.774 300.872 111.83C300.872 111.941 300.955 112.025 301.066 112.025C300.997 112.08 300.941 112.164 300.941 112.261C300.941 112.302 300.941 112.344 300.969 112.386H300.927V112.956H300.636V112.289H300.594C300.594 112.289 300.622 112.205 300.622 112.164C300.622 112.066 300.566 111.983 300.497 111.927C300.608 111.927 300.691 111.844 300.691 111.733C300.691 111.677 300.663 111.636 300.636 111.594L300.177 109.093C300.177 109.093 300.233 108.981 300.233 108.926C300.233 108.759 300.094 108.634 299.941 108.634C299.788 108.634 299.635 108.773 299.635 108.926C299.635 108.995 299.663 109.051 299.691 109.093L299.232 111.594C299.232 111.594 299.176 111.677 299.176 111.733C299.176 111.844 299.26 111.927 299.371 111.927C299.302 111.983 299.246 112.066 299.246 112.164C299.246 112.205 299.26 112.247 299.274 112.289H299.232V112.956H299.093V98.9629C299.232 98.9212 299.329 98.7962 299.329 98.6433C299.329 98.4627 299.176 98.3098 298.996 98.3098C298.815 98.3098 298.662 98.4627 298.662 98.6433C298.662 98.7962 298.76 98.9212 298.899 98.9629V113.192H277.736C277.736 113.192 275.707 113.442 275.707 110.704V60.1114L276.11 59.2082V58.2494L276.055 57.9437V56.179L275.957 55.8316V52.3716L276.152 51.5657L275.749 51.1628H275.054L273.929 49.2174C274.095 49.1896 274.22 49.0368 274.22 48.8561C274.22 48.6755 274.081 48.5226 273.901 48.4948V46.9802H273.803V48.4948C273.623 48.5226 273.484 48.6755 273.484 48.8561C273.484 49.0368 273.609 49.1896 273.776 49.2174L272.65 51.1628H272.525V46.5495L272.97 45.6463V44.5485L274.026 42.6449H272.664V41.9918H272.414V40.2826L272.664 39.574H272.358L272.303 38.1706H272.192L271.928 35.8917L271.83 36.6976V36.5865L271.914 35.7805L271.886 35.586C271.886 35.586 271.886 35.586 271.914 35.5721C271.886 35.5721 271.872 35.5443 271.844 35.5165V35.4887C271.858 35.5165 271.9 35.5443 271.928 35.5582C271.983 35.5165 272.039 35.447 272.039 35.3776C272.039 35.2525 271.928 35.1413 271.803 35.1413C271.677 35.1413 271.58 35.2386 271.566 35.3637C271.525 35.2942 271.455 35.2386 271.358 35.2386C271.233 35.2386 271.122 35.3498 271.122 35.4748C271.122 35.5721 271.177 35.6555 271.261 35.6972L270.969 38.1706H270.885L270.427 39.3794H268.815V37.1701L269.218 35.9612L268.468 35.0024V28.1242L268.523 26.5679L269.385 25.7202V25.3173L269.579 25.1228L268.773 24.1223L268.426 23.7749V22.5243L268.773 21.9268L268.176 21.2737V21.1348C268.343 21.0514 268.468 20.8847 268.468 20.704C268.468 20.4678 268.259 20.0787 267.995 19.9953V19.5924C267.995 19.5924 268.079 19.509 268.079 19.4534C268.079 19.3562 267.995 19.2867 267.884 19.2867C267.773 19.2867 267.689 19.3562 267.689 19.4534C267.689 19.509 267.717 19.5646 267.773 19.5924V19.9953C267.509 20.0787 267.3 20.4678 267.3 20.704C267.3 20.8708 267.398 21.0097 267.537 21.107V21.2737H267.467V21.5238H266.759V19.5646C266.759 19.5646 267.106 18.8559 267.064 18.0639V17.5637L266.759 17.258C266.759 17.258 266.842 14.465 264.771 13.131L264.535 9.55993V9.53211V9.07359C264.535 9.07359 264.521 9.0458 264.494 8.99022V8.9624L264.077 8.14258H263.66C263.66 8.14258 263.688 8.07312 263.688 8.03143C263.688 7.92027 263.604 7.82298 263.493 7.79519V7.60068C263.604 7.57289 263.688 7.4756 263.688 7.36444C263.688 7.25327 263.604 7.15603 263.493 7.12824V6.48902C263.688 6.46123 263.854 6.29451 263.854 6.08608H264.716C264.716 6.08608 264.771 6.05828 264.771 6.03049C264.771 6.0027 264.744 5.9749 264.716 5.9749H263.854C263.827 5.80815 263.688 5.68312 263.535 5.65533V2.11198C263.632 2.11198 263.743 2.11198 263.882 2.07029C263.882 2.07029 263.979 1.80629 264.299 1.90356L264.507 1.93133L264.382 1.61176C264.382 1.61176 264.73 1.38942 264.827 1.25047C264.827 1.25047 264.799 1.27827 264.744 1.30606L263.785 0.48624V0.361145L263.465 0.347278L263.438 0.25V0.347278V0.611294H263.521L263.632 1.08373C263.632 1.08373 263.618 1.08373 263.604 1.08373L263.438 1.15319V10.4909C263.576 10.4909 263.688 10.741 263.688 11.0328V12.3807H263.438V46.7301H264.507V49.7176H263.438V54.0808H264.507V57.0683H263.438V61.7094H264.507V64.28H263.438V67.2536H264.507V69.8243H263.438V73.2842H264.507V75.8549H263.438V79.5232H264.507V82.08H263.438V85.0675H264.507V87.6243H263.438V91.0842H264.507V93.6549H263.438V97.2954H264.507V99.8661H263.438V102.84H264.507V105.41H263.438V108.87H264.507V111.441H263.438V114.331H264.507V116.888H263.438V120.473C264.368 120.473 265.133 121.39 265.133 122.516V126.754H263.438V133.146C264.938 133.146 266.161 134.785 266.161 136.786V144.359H263.438V147.249H307.736V146.277L307.236 145.638V144.22L307.375 144.165ZM263.91 0.444556L264.799 1.29215C264.702 1.33384 264.563 1.36162 264.424 1.31993C264.424 1.31993 264.396 1.29217 264.327 1.26438L263.91 0.569609V0.472331V0.444556ZM263.688 0.583476L263.91 0.62516V0.5557L264.23 1.22269C264.188 1.22269 264.132 1.22269 264.077 1.22269L263.966 1.25047C263.966 1.25047 263.966 1.05593 263.827 1.02814L263.702 0.583476H263.688ZM264.424 12.3251H264.104V10.9772C264.104 10.6715 264.174 10.4353 264.257 10.4353C264.341 10.4353 264.424 10.6854 264.424 10.9772V12.3251ZM267.495 33.8074L266.064 33.46V30.2502C266.064 29.5276 266.383 29.0551 266.786 29.1941C267.175 29.333 267.509 30 267.509 30.6948V33.8074H267.495ZM271.761 35.5721C271.761 35.5721 271.691 35.5304 271.677 35.5026V35.4748C271.705 35.5165 271.733 35.5582 271.789 35.5721L271.664 36.6837V36.5726L271.775 35.5721H271.761ZM268.718 46.6745H270.663V49.662H268.718V46.6745ZM268.718 54.0252H270.663V57.0127H268.718V54.0252ZM268.718 61.6538H270.663V64.2244H268.718V61.6538ZM268.718 67.198H270.663V69.7687H268.718V67.198ZM268.718 73.2286H270.663V75.7993H268.718V73.2286ZM268.718 79.4677H270.663V82.0244H268.718V79.4677ZM268.718 85.0119H270.663V87.5687H268.718V85.0119ZM268.718 91.0425H270.663V93.6132H268.718V91.0425ZM268.718 97.2399H270.663V99.8105H268.718V97.2399ZM268.718 102.784H270.663V105.355H268.718V102.784ZM268.718 108.815H270.663V111.385H268.718V108.815ZM268.718 114.276H270.663V116.832H268.718V114.276ZM270.01 123.447C269.579 123.447 269.218 123.099 269.218 122.655C269.218 122.21 269.565 121.863 270.01 121.863C270.08 121.501 270.399 121.223 270.788 121.223C271.177 121.223 271.497 121.501 271.566 121.863C271.997 121.863 272.358 122.224 272.358 122.655C272.358 123.085 272.011 123.447 271.566 123.447C271.497 123.808 271.177 124.086 270.788 124.086C270.399 124.086 270.093 123.808 270.01 123.447ZM272.886 142.872H270.802V140.913H272.886V142.872ZM274.387 56.0956H273.47V54.1224C273.47 53.6778 273.678 53.3165 273.929 53.3165C274.179 53.3165 274.387 53.6778 274.387 54.1224V56.0956ZM282.196 142.872H280.112V140.913H282.196V142.872ZM282.655 138.342H279.667V131.548H282.655V138.342ZM282.863 124.544H279.459V121.348H282.863V124.544ZM289.797 142.872H287.713V140.913H289.797V142.872ZM290.242 138.342H287.254V131.548H290.242V138.342ZM290.45 124.544H287.046V121.348H290.45V124.544ZM296.842 142.872H294.758V140.913H296.842V142.872ZM297.301 138.342H294.313V131.548H297.301V138.342ZM297.509 124.544H294.105V121.348H297.509V124.544Z" fill="#9A9188"/>
<path d="M260.839 144.318V136.745C260.839 134.73 262.062 133.104 263.563 133.104V126.712H261.853V122.474C261.853 121.349 262.618 120.431 263.549 120.431V116.846H262.673V114.29H263.549V111.399H262.673V108.829H263.549V105.369H262.673V102.798H263.549V99.8246H262.673V97.254H263.549V93.6134H262.673V91.0427H263.549V87.5828H262.673V85.026H263.549V82.0385H262.673V79.4817H263.549V75.8134H262.673V73.2427H263.549V69.7828H262.673V67.2121H263.549V64.2385H262.673V61.6679H263.549V57.0268H262.673V54.0393H263.549V49.6761H262.673V46.6886H263.549V12.3392H263.285V10.9913C263.285 10.6856 263.396 10.4494 263.549 10.4494V1.1117H263.521L263.424 1.1812L263.285 0.77822H263.396L263.298 0.514204H263.187L263.09 0.222412L263.132 0.500295L262.909 0.472519V0.722626L263.173 0.764311L263.201 0.972733C263.201 0.972733 263.132 0.778233 262.965 0.792129C262.965 0.792129 262.59 0.750417 262.326 1.07001C262.326 1.07001 262.104 1.26456 262.104 1.4313C262.104 1.4313 262.632 1.29234 262.854 1.45908C262.854 1.45908 263.034 1.47299 263.09 1.77869C263.09 1.77869 263.187 2.00102 263.465 2.08439V5.65552C263.299 5.68331 263.173 5.82224 263.146 5.97508H262.076C262.076 5.97508 262.02 6.00289 262.02 6.03068C262.02 6.05847 262.048 6.08627 262.076 6.08627H263.132C263.132 6.28081 263.285 6.44755 263.465 6.47534V7.11452C263.354 7.14231 263.285 7.23955 263.285 7.35072C263.285 7.46188 263.368 7.55917 263.465 7.58696V7.78151C263.354 7.8093 263.285 7.90656 263.285 8.03162C263.285 8.0733 263.285 8.11497 263.312 8.14276H262.896L262.479 8.96259V8.9904L262.423 9.07377V9.54621L262.201 13.1173C260.116 14.4513 260.214 17.2443 260.214 17.2443L259.908 17.55V18.0502C259.852 18.8561 260.214 19.5509 260.214 19.5509V21.5101H259.505V21.26H259.436V21.0933C259.575 21.0099 259.672 20.857 259.672 20.6903C259.672 20.4541 259.463 20.065 259.199 19.9817V19.5787C259.199 19.5787 259.283 19.4953 259.283 19.4397C259.283 19.3425 259.199 19.273 259.088 19.273C258.977 19.273 258.894 19.3425 258.894 19.4397C258.894 19.4953 258.921 19.5509 258.977 19.5787V19.9817C258.713 20.065 258.505 20.4541 258.505 20.6903C258.505 20.8709 258.616 21.0377 258.796 21.1211V21.26L258.199 21.9131L258.546 22.5106V23.7612L258.199 24.1086L257.393 25.1091L257.587 25.3036V25.7066L258.435 26.5542L258.491 28.1104V34.9887L257.74 35.9475L258.143 37.1564V39.3657H256.531L256.087 38.1568H256.003L255.753 35.9752L255.67 36.6839V36.5728L255.739 35.8641L255.712 35.6695C255.712 35.6695 255.725 35.6696 255.739 35.6557C255.684 35.6279 255.642 35.5723 255.628 35.5028C255.628 35.5028 255.628 35.475 255.656 35.475C255.656 35.5445 255.698 35.614 255.767 35.6418C255.823 35.6001 255.878 35.5306 255.878 35.4611C255.878 35.3361 255.781 35.2249 255.642 35.2249C255.559 35.2249 255.475 35.2666 255.434 35.35C255.434 35.2249 255.323 35.1276 255.197 35.1276C255.072 35.1276 254.961 35.2249 254.961 35.3638C254.961 35.4611 255.017 35.5445 255.1 35.5862L254.795 38.1707H254.683L254.628 39.5741H254.336L254.586 40.2828V41.992H254.336V42.6451H252.974L254.03 44.5487V45.6465L254.475 46.5497V51.1629H254.35L253.224 49.2176C253.391 49.1898 253.516 49.0369 253.516 48.8563C253.516 48.6757 253.377 48.5228 253.197 48.495V46.9804H253.099V48.495C252.919 48.5228 252.78 48.6757 252.78 48.8563C252.78 49.0369 252.905 49.1898 253.071 49.2176L251.946 51.1629H251.251L250.848 51.5659L251.043 52.3718V55.8318L250.946 56.1792V57.9439L250.89 58.2496V59.2083L251.293 60.1115V110.705C251.293 113.456 249.264 113.192 249.264 113.192H228.088V98.9631C228.227 98.9214 228.324 98.7963 228.324 98.6435C228.324 98.4629 228.171 98.31 227.99 98.31C227.81 98.31 227.657 98.4629 227.657 98.6435C227.657 98.7963 227.754 98.9214 227.893 98.9631V112.956H227.754V112.289H227.712C227.712 112.289 227.74 112.205 227.74 112.164C227.74 112.066 227.698 111.983 227.615 111.927C227.726 111.927 227.81 111.844 227.81 111.733C227.81 111.677 227.782 111.636 227.754 111.594L227.296 109.093C227.296 109.093 227.351 108.982 227.351 108.926C227.351 108.759 227.212 108.634 227.045 108.634C226.879 108.634 226.754 108.773 226.754 108.926C226.754 108.996 226.768 109.051 226.809 109.093L226.351 111.594C226.351 111.594 226.295 111.677 226.295 111.733C226.295 111.844 226.378 111.927 226.49 111.927C226.42 111.983 226.365 112.066 226.365 112.164C226.365 112.205 226.365 112.247 226.392 112.289H226.351V112.956H226.059V112.386H226.017C226.017 112.386 226.045 112.303 226.045 112.261C226.045 112.164 225.989 112.08 225.92 112.025C226.031 112.025 226.114 111.941 226.114 111.83C226.114 111.775 226.101 111.733 226.059 111.691L225.6 109.19C225.6 109.19 225.656 109.079 225.656 109.023C225.656 108.857 225.517 108.732 225.35 108.732C225.183 108.732 225.058 108.857 225.058 109.023C225.058 109.093 225.072 109.148 225.114 109.19L224.947 110.066L224.85 109.524C224.85 109.524 224.906 109.412 224.906 109.357C224.906 109.204 224.78 109.079 224.628 109.079C224.475 109.079 224.35 109.204 224.35 109.357C224.35 109.412 224.377 109.468 224.405 109.524L223.975 111.886C223.975 111.886 223.919 111.955 223.919 112.011C223.919 112.108 224.002 112.192 224.1 112.192C224.03 112.247 223.988 112.317 223.988 112.414C223.988 112.456 223.988 112.497 224.016 112.539H223.975V112.942H223.877L223.433 113.067V113.289L223.53 113.442L223.738 113.859V115.374L223.46 115.651V116.013C221.223 116.013 221.612 116.374 221.612 116.374L223.585 118.695C223.433 119.181 223.738 119.598 223.738 119.598H223.46V120.056H223.724V120.654H223.224L223.474 120.807V121.126L223.585 121.237L223.822 121.446V121.988H223.613L223.877 122.252V143.595H219L219.208 143.776V144.012L219.625 144.165V145.582L219.125 146.221V147.194H263.451V144.304H260.714L260.839 144.318ZM262.701 10.9774C262.701 10.6717 262.77 10.4355 262.868 10.4355C262.965 10.4355 263.021 10.6856 263.021 10.9774V12.3253H262.701V10.9774ZM232.353 143.289H230.269V141.33H232.353V143.289ZM232.812 138.759H229.824V131.965H232.812V138.759ZM233.02 124.961H229.616V121.765H233.02V124.961ZM239.954 143.289H237.87V141.33H239.954V143.289ZM240.413 138.759H237.425V131.965H240.413V138.759ZM240.621 124.961H237.217V121.765H240.621V124.961ZM247.013 143.289H244.929V141.33H247.013V143.289ZM247.472 138.759H244.484V131.965H247.472V138.759ZM247.68 124.961H244.29V121.765H247.68V124.961ZM255.448 35.4889C255.448 35.5723 255.503 35.6557 255.587 35.6974L255.462 36.7117V36.6006L255.559 35.6974C255.489 35.6696 255.434 35.6001 255.42 35.5306C255.42 35.5306 255.42 35.5028 255.434 35.5028L255.448 35.4889ZM253.655 56.0958H252.738V54.1226C252.738 53.678 252.946 53.3167 253.197 53.3167C253.447 53.3167 253.655 53.678 253.655 54.1226V56.0958ZM256.323 143.289H254.239V141.33H256.323V143.289ZM257.115 123.447C257.046 123.808 256.726 124.086 256.337 124.086C255.948 124.086 255.628 123.808 255.559 123.447C255.128 123.447 254.767 123.099 254.767 122.655C254.767 122.21 255.128 121.863 255.559 121.863C255.628 121.501 255.948 121.224 256.337 121.224C256.726 121.224 257.046 121.501 257.115 121.863C257.546 121.863 257.907 122.224 257.907 122.655C257.907 123.085 257.546 123.447 257.115 123.447ZM258.407 116.846H256.462V114.29H258.407V116.846ZM258.407 111.386H256.462V108.815H258.407V111.386ZM258.407 105.355H256.462V102.784H258.407V105.355ZM258.407 99.8107H256.462V97.24H258.407V99.8107ZM258.407 93.6134H256.462V91.0427H258.407V93.6134ZM258.407 87.5828H256.462V85.026H258.407V87.5828ZM258.407 82.0385H256.462V79.4817H258.407V82.0385ZM258.407 75.7995H256.462V73.2288H258.407V75.7995ZM258.407 69.7689H256.462V67.1982H258.407V69.7689ZM258.407 64.2246H256.462V61.6539H258.407V64.2246ZM258.407 57.0129H256.462V54.0254H258.407V57.0129ZM258.407 49.6622H256.462V46.6747H258.407V49.6622ZM259.63 30.695C259.63 30.0002 259.95 29.3193 260.353 29.1943C260.756 29.0692 261.075 29.5417 261.075 30.2503V33.4602L259.644 33.8076V30.695H259.63Z" fill="#A89E94"/>
<rect y="147" width="465" height="11" fill="#3A383E"/>
</svg>
