<svg width="1439" height="510" viewBox="0 0 1439 510" fill="none" xmlns="http://www.w3.org/2000/svg">
<g opacity="0.25">
<path d="M712.574 308.364C714.121 308.123 714.292 300.324 713.399 300.221C710.271 299.911 709.068 308.879 712.574 308.364Z" stroke="#B2B2B2" stroke-miterlimit="10"/>
<path d="M380.931 421.986C383.509 421.058 400.007 424.494 400.007 419.271C400.007 415.904 382.993 411.472 380.931 413.087C381.137 415.389 382.031 417.382 383.577 419.1C383.577 420.783 376.428 418.928 375.81 420.646C376.978 422.467 378.697 422.913 380.931 421.986Z" stroke="#B2B2B2" stroke-miterlimit="10"/>
<path d="M530.856 525.266C523.913 525.644 517.245 516.745 509.649 515.68C502.913 514.753 502.5 514.031 496.554 516.471C503.188 513.756 485.865 505.751 485.762 505.751C482.874 504.995 479.884 512.829 477.272 511.729C477.788 511.935 480.4 505.476 477.753 503.037C474.694 500.219 470.398 506.472 470.157 506.335C470.57 506.575 477.547 488.915 469.057 484.277C460.877 478.917 454.141 479.948 446.716 476.203C439.774 472.698 439.155 464.143 429.394 464.762C433.346 464.487 421.729 454.351 424.925 455.622C419.77 453.561 409.699 457.959 403.031 456.447C400.385 455.863 398.666 449.06 394.851 449.06C388.974 449.06 390.589 459.574 389.627 461.669C386.911 467.613 385.812 446.071 388.561 447.823C386.568 446.552 372.819 456.069 371.41 457.134C368.317 459.436 367.079 463.903 363.917 464.865C369.279 463.284 346.732 460.776 351.441 462.563C337.177 457.134 343.707 455.279 339.823 442.704C338.724 439.131 342.436 437.481 339.411 434.217C336.558 431.125 324.322 430.507 320.61 432.843C317.998 434.286 320.954 422.982 322.123 421.814C326.763 417.107 328.241 406.147 321.057 405.941C309.096 405.631 315.008 416.214 307.584 419.89C285.208 430.988 284.246 399.55 284.933 386.322C284.624 386.116 284.349 385.944 284.074 385.807C284.349 385.944 284.658 386.116 284.933 386.288C286.171 363.027 302.909 369.349 316.933 370.964C313.255 370.552 316.383 364.986 320.61 364.574C324.082 364.23 327.828 365.776 332.124 367.082C339.17 369.178 337.418 367.082 342.642 375.98C344.704 379.519 345.529 388.452 350.169 389.93C350.581 390.067 349.894 357.358 352.541 353.476C355.909 348.528 363.917 342.413 366.426 339.183C372.201 331.762 366.633 340.111 367.354 331.521C367.423 330.628 365.017 318.396 368.97 318.396C367.458 318.396 370.31 329.872 370.173 329.975C374.091 327.261 371.548 323.275 371.72 320.183C371.857 317.709 384.471 313.483 385.502 311.25C385.949 310.322 379.419 311.387 379.419 311.044C379.419 307.745 389.661 308.295 391.173 307.264C390.452 307.745 393.407 297.507 395.504 295.342C400.11 290.532 411.658 291.597 415.198 284.313C414.752 285.206 416.711 288.883 419.22 288.127C410.112 290.772 405.781 295.617 416.676 294.002C422.21 293.178 430.665 287.749 434.824 284.588C435.065 284.416 432.934 281.702 433.243 279.847C433.037 281.015 426.369 286.306 424.788 285.997C414.167 284.038 419.254 276.926 415.13 274.178C413.996 274.727 412.827 274.933 411.59 274.83C410.455 271.017 424.444 268.165 411.005 266.413C401.725 265.21 397.119 278.678 390.727 278.678C393.82 278.678 407.912 261.602 414.58 259.988C417.295 259.335 454.897 256.621 451.735 248.306C450.875 247.825 449.982 247.378 449.054 246.966C446.441 244.561 455.825 242.19 445.445 240.988C445.204 239.854 445.101 238.686 445.17 237.483C444.173 236.796 433.69 241.159 433.656 241.125C432.865 237.311 443.382 236.899 444.551 234.872C444.482 235.009 422.038 224.084 424.101 221.438C428.259 216.044 428.225 222.056 425.51 213.707C424.788 211.44 414.752 197.387 415.473 196.735C410.593 201.132 413.342 211.165 404.853 211.199C395.504 211.234 396.398 200.445 396.398 194.295C396.398 191.581 373.129 184.64 371.376 184.709C358.212 185.087 363.608 185.912 362.817 196.322C362.68 198.109 360.721 205.53 360.927 206.595C362.474 214.669 369.176 217.281 365.086 227.622C363.849 230.783 356.356 231.642 355.806 233.498C355.084 235.937 358.693 238.445 358.143 241.366C357.902 242.568 359.38 253.7 358.59 253.357C353.64 251.02 355.806 255.624 350.272 250.677C344.017 245.076 348.382 237.002 344.738 232.742C343.295 231.058 325.147 224.187 321.126 222.331C314.32 219.239 311.021 218.414 303.631 219.583C305.212 219.342 302.153 210.34 301.466 209.206C297.513 202.507 293.285 209.962 295.657 196.769C296.241 193.436 311.055 177.563 311.158 178.009C311.021 177.357 299.06 172.821 299.128 172.581C300.813 168.561 311.09 179.762 313.874 171.31C312.602 175.192 330.165 167.496 325.766 164.335C323.944 163.029 313.633 164.438 314.252 159.49C313.839 162.754 336.318 163.854 327.416 155.883C327.106 155.608 335.596 155.986 337.314 155.986C338.517 155.986 334.049 151.863 334.462 151.485C335.768 150.214 340.27 157.772 346.148 151.176C350.685 146.091 343.742 145.575 343.501 140.593C343.501 140.044 350.513 138.154 348.176 134.615C346.388 131.935 337.039 128.706 333.946 129.702C331.815 130.389 334.737 140.868 328.894 144.27C328.103 143.514 327.519 142.586 327.141 141.555C324.7 141.727 329.375 150.66 326.213 149.217C322.776 147.603 322.81 141.384 322.294 140.937C321.057 139.838 319.407 135.818 317.276 133.962C315.626 132.519 313.186 140.937 312.396 141.074C309.44 141.624 312.808 133.447 313.014 133.069C314.458 130.355 305.418 131.248 305.59 131.386C302.737 128.877 307.549 127.503 308.065 126.747C307.412 127.744 301.122 116.474 301.122 116.543C296.963 107.06 299.782 116.543 298.682 105.892C299.197 110.874 317.998 97.6116 311.468 95.4814C304.525 93.1794 295.348 92.6296 293.904 97.8864C293.079 100.876 293.56 112.867 292.323 117.642C291.945 119.154 286.789 121.628 288.611 127.744C289.298 130.114 302.978 133.172 296.551 138.395C296.894 136.814 297.788 136.058 299.197 136.058C299.403 136.436 292.186 149.595 292.942 149.046C292.77 149.183 285.243 141.555 284.693 140.593C284.315 139.906 293.835 138.463 294.317 137.982C298.029 134.409 288.92 134.478 288.92 133.928C288.92 132.932 293.801 133.55 292.082 132.176C286.721 127.95 280.156 130.32 276.719 134.787C275 137.02 290.089 142.758 271.941 145.094C263.658 146.159 260.29 142.037 253.106 140.319C251.009 139.803 251.147 137.604 247.332 137.261C246.026 137.123 237.055 141.074 239.77 142.311C241.764 143.205 249.188 138.12 250.356 139.425C245.476 134.065 244.582 154.44 241.42 152.791C240.045 152.069 240.904 147.156 236.608 145.747C230.731 143.789 217.429 149.836 213.064 145.06C210.933 142.724 218.667 142.208 218.048 140.834C215.883 135.818 203.647 135.474 199.178 134.443C195.191 133.516 191.514 130.904 187.561 130.458C182.784 129.942 180.962 133.344 176.528 133.344C175.875 133.344 177.422 127.434 175.394 127.159C173.95 129.53 172.163 131.592 169.998 133.344C165.736 133.035 166.32 122.59 161.267 123.38C164.704 122.865 154.05 130.973 154.771 130.561C153.293 131.42 141.848 138.463 140.748 138.395C138.102 138.257 155.734 127.4 155.699 127.847C155.871 125.716 140.439 132.244 138.72 133.172C136.692 134.237 138.651 130.458 135.73 131.523C128.375 134.169 133.599 136.47 131.846 138.395C132.533 137.639 86.2705 127.469 83.2115 127.228C78.7089 126.85 50.5593 123.655 48.772 121.731C45.713 118.398 37.6015 121.937 33.9238 125.991C30.968 129.221 9.03942 134.065 7.97393 138.876C5.73983 148.908 29.1463 150.763 30.9336 156.226C31.0711 156.639 4.6056 155.23 1.68408 162.136C2.68083 159.765 9.07379 169.729 9.72684 169.97C12.7171 171.069 28.837 167.668 28.9057 167.736C33.4083 172.237 23.6126 178.284 21.2067 180.518C18.3195 183.197 18.0102 178.868 14.5731 183.438C13.1295 185.328 9.65809 187.217 8.0083 188.763C8.73008 188.076 13.3358 198.281 13.4389 198.418C16.2229 200.857 24.7812 200.823 23.7845 199.827C26.4654 202.507 23.5439 208.141 26.0186 209.447C27.7027 210.34 33.5458 209.653 36.7766 210.959C33.9238 209.791 45.6099 205.874 44.9225 207.935C43.3414 212.78 24.1282 236.143 21.3098 233.051C24.7125 236.762 59.3238 213.398 59.3238 207.867C58.3614 207.076 57.3303 206.492 56.1273 206.114C55.3712 204.121 74.8594 187.904 74.172 194.226C74.2407 193.574 62.5203 203.091 65.2356 205.565C66.0261 206.286 78.9495 201.82 80.9774 201.064C83.349 200.205 76.2686 194.501 81.0805 193.642C82.6616 193.367 88.8139 196.975 89.0545 196.872C87.5766 196.666 86.6486 197.216 86.3049 198.59C86.9235 200.445 113.87 199.243 115.554 200.754C114.729 200.033 132.877 215.666 132.705 211.302C131.915 209.653 131.709 208.004 132.121 206.32C140.748 212.608 128.1 214.291 128.134 213.914C128.134 214.36 134.699 223.603 134.493 223.706C135.696 223.053 132.774 215.322 134.768 216.044C135.214 217.04 135.386 218.071 135.283 219.136C137.483 221.919 137.861 212.814 137.586 213.501C138.067 212.264 138.273 225.423 136.864 225.217C134.871 224.942 148.344 224.049 144.391 226.008C145.629 225.389 139.476 221.747 142.879 221.438C148.103 220.991 144.013 225.904 140.508 226.179C140.611 226.179 140.508 233.429 141.126 233.841C142.192 234.597 147.004 230.096 149.444 230.543C152.262 231.058 151.472 239.923 152.812 241.778C153.775 243.118 160.511 249.886 161.405 250.986C165.358 255.899 171.097 259.06 175.566 262.427C175.084 262.084 193.301 277.442 183.299 277.442C182.921 277.442 172.438 249.165 160.752 257.376C163.192 255.659 176.425 274.624 177.284 277.029C182.165 291.013 174.156 307.299 179.587 322.554C183.299 332.999 193.129 339.63 199.763 346.81C204.025 351.414 206.637 356.603 210.28 362.753C214.92 370.586 215.951 372.613 215.058 377.114C215.023 377.32 236.024 399.275 235.233 399.859C237.192 398.416 214.439 357.255 215.092 357.187C223.341 356.328 224.063 369.212 225.575 371.583C229.768 378.111 237.467 384.226 242.107 390.136C250.013 400.272 251.044 410.923 258.124 418.172C262.833 423.017 273.763 427.243 280.053 429.201C288.302 431.812 297.032 429.338 303.665 435.867C306.621 438.753 311.502 438.89 313.599 441.02C319.442 446.346 321.848 443.666 327.313 449.301C330.99 453.08 332.09 456.55 334.187 458.646C337.658 462.082 343.57 468.61 348.829 468.988C353.744 469.331 352.438 463.147 355.084 463.8C366.839 466.583 364.708 482.319 359.965 491.939C354.809 502.418 348.279 504.205 354.053 514.753C354.465 515.508 348.347 525.438 348.932 528.496C350.066 534.405 363.196 551.791 366.255 557.838C372.098 569.416 379.59 570.584 387.908 580.033C395.504 588.657 393.098 595.528 391.792 607.382C389.867 624.561 389.386 641.499 385.743 658.197C384.299 664.829 371.651 699.461 376.256 706.093C378.387 709.185 379.281 697.4 381.378 696.782C383.887 696.06 380.072 722.619 378.009 721.141C376.909 720.385 379.212 712.586 376.325 713.823C378.937 712.689 370.929 724.852 370.929 724.955C371.238 721.519 375.019 729.147 375.157 730.384C375.397 732.48 379.762 728.975 379.556 732.033C379.865 727.429 366.426 737.358 372.785 736.396C373.85 735.778 374.813 735.056 375.672 734.197C376.6 734.026 369.039 742.1 374.125 742.89C375.122 743.027 375.638 737.702 377.047 739.111C380.003 742.1 371.41 748.387 373.438 750.93C373.85 751.445 378.044 749.006 378.869 750.724C379.144 751.273 376.016 753.678 376.531 753.85C378.216 754.469 382.065 752.167 382.821 754.64C383.612 757.252 375.328 754.812 378.147 758.798C379.212 760.31 385.915 753.953 387.152 758.111C386.774 756.908 379.659 761.856 379.419 762.165C379.178 762.474 387.977 759.588 388.217 760.138C388.836 761.512 378.422 765.532 378.147 764.364C378.456 765.704 384.437 769.414 385.365 768.452C387.014 766.803 383.234 767.593 384.574 765.876C385.502 764.639 393.511 760.172 393.957 759.004C392.479 759.966 391.723 761.34 391.758 763.127C392.961 763.333 394.164 763.402 395.367 763.333C394.335 762.199 392.961 768.555 393.339 768.384C392.308 767.422 391.723 766.253 391.655 764.81C389.867 764.02 390.795 768.555 390.555 768.384C389.936 767.009 388.974 766.46 387.668 766.734C389.145 764.707 385.846 773.056 385.846 770.136C385.846 768.555 390.898 774.774 390.795 774.706C391.448 773.675 391.929 772.541 392.204 771.304C392.033 771.338 399.8 776.87 400.591 777.111C402.138 777.557 399.457 773.434 400.35 773.572C402.481 773.915 412.827 771.167 412.483 771.064C406.881 769.002 400.007 759.004 398.941 758.763C398.082 758.557 394.885 759.21 395.401 757.045C395.848 755.121 398.838 757.801 399.629 756.942C400.007 756.53 396.088 749.555 397.016 747.528C398.426 744.402 400.9 743.543 402.481 740.657C404.612 736.774 409.837 733.819 410.18 729.49C410.455 726.123 405.265 726.02 405.54 725.058C406.503 721.313 408.909 712.14 412.758 707.261C414.236 705.405 419.254 700.492 419.185 700.458C417.983 699.461 408.427 700.286 413.446 692.693C411.865 695.064 424.857 690.631 424.204 690.975C425.991 689.944 423.963 683.966 424.857 683.004C429.29 678.297 445.617 685.1 447.473 672.525C447.885 669.742 440.22 660.053 440.049 660.225C442.661 657.545 454.725 663.317 461.393 656.308C463.043 654.555 471.326 639.919 471.291 640.366C470.467 642.53 469.367 644.557 468.026 646.447C468.129 643.527 477.753 635.521 479.025 632.154C480.812 627.344 478.612 621.056 481.156 616.659C486.174 607.863 497.448 609.581 503.703 605.595C511.746 600.51 514.049 593.192 516.523 583.709C518.036 577.868 516.489 563.094 519.479 558.456C519.204 558.868 550.929 523.995 531.097 525.094L530.856 525.266Z" stroke="#B2B2B2" stroke-miterlimit="10"/>
<path d="M376.531 412.503C381.103 406.215 329.203 395.083 335.699 404.566C332.605 400.031 356.39 406.078 357.524 406.696C361.58 408.93 371.032 420.062 376.566 412.503H376.531Z" stroke="#B2B2B2" stroke-miterlimit="10"/>
<path d="M360.068 421.024C360.79 422.364 367.492 424.322 368.214 422.57C368.936 420.817 359.209 419.34 360.068 421.024Z" stroke="#B2B2B2" stroke-miterlimit="10"/>
<path d="M405.506 421.402C407.087 424.116 411.659 422.501 412.037 421.402C412.758 419.478 403.891 418.687 405.506 421.402Z" stroke="#B2B2B2" stroke-miterlimit="10"/>
<path d="M308.099 502.212C306.347 505.132 309.852 507.95 310.574 506.678C311.468 505.132 309.852 499.326 308.099 502.212Z" stroke="#B2B2B2" stroke-miterlimit="10"/>
<path d="M466.789 131.935C467.201 124.926 456.478 128.328 454.862 128.637C453.247 128.946 466.273 140.49 466.789 131.935Z" stroke="#B2B2B2" stroke-miterlimit="10"/>
<path d="M586.88 127.159C585.609 127.915 569.833 125.476 569.695 125.751C570.142 124.685 575.401 118.604 574.748 118.364C578.219 119.669 588.187 131.488 588.633 120.528C588.908 114.034 579.731 114.034 578.253 108.846C577.841 107.369 590.421 112.901 587.912 105.101C586.502 100.669 574.129 108.228 574.61 103.487C574.438 105.136 578.872 97.6801 578.116 98.5047C582.069 94.1755 599.941 109.121 588.358 94.1068C587.877 93.4884 598.773 93.6945 599.323 91.4613C599.804 89.5372 588.496 89.5716 591.074 85.3112C594.305 79.9857 602.416 87.7162 597.192 76.8591C597.364 77.2027 584.096 72.7018 586.124 70.709C587.912 68.9224 603.757 70.5372 603.172 68.3039C601.66 62.6349 593.961 68.6132 593.308 63.7343C592.964 61.1918 598.017 63.5969 598.738 62.4287C601.591 57.9622 586.571 61.5698 587.121 61.9821C583.065 58.8555 603.722 39.5806 604.341 40.4052C600.526 35.3546 597.089 43.8066 594.408 41.1267C592.002 38.7217 609.359 36.2822 609.84 35.973C611.318 35.011 600.423 32.7434 599.941 33.5679C601.832 30.3039 627.266 30.7162 627.266 23.7072C627.266 14.2931 603.138 23.3292 600.423 24.1882C598.326 24.8754 595.233 22.1267 593.789 22.6764C588.943 24.5318 584.474 32.3654 579.285 33.1556C584.371 32.3998 590.146 20.0996 581.828 18.6222C580.522 18.3817 566.499 28.7922 565.605 25.6656C564.918 23.1575 574.06 22.058 573.854 19.9965C573.407 15.633 543.986 22.4359 543.917 21.8175C543.47 15.8392 584.887 18.2443 589.046 12.6439C591.349 9.55167 536.39 0.652933 531.406 1.92418C530.169 2.2334 522.676 4.91333 521.851 5.0164C522.023 5.0164 517.83 4.60411 516.661 4.74154C507.347 5.80664 498.17 5.1882 488.855 6.97481C487.721 7.18096 492.911 10.6855 492.876 10.9947C492.773 11.5101 484.696 11.8537 485.796 13.3311C485.555 13.0218 497.276 21.6801 496.485 21.8518C489.921 23.2605 477.856 8.2117 471.189 13.0905C469.573 14.2931 476.035 18.2443 476.035 19.1719C476.035 22.7795 462.802 15.049 463.18 15.049C462.183 15.049 462.561 22.9513 460.705 24.1195C466.411 20.5806 453.659 15.5643 451.666 15.3582C443.967 14.5336 441.561 21.3021 441.149 21.4396C438.158 22.4703 433.793 18.8627 429.944 20.4432C427.194 21.5426 432.384 26.181 428.569 28.2768C427.572 28.8265 400.832 29.4793 404.406 37.794C407.121 44.1159 421.523 37.5191 408.703 47.964C405.231 50.8157 395.092 49.6475 390.692 52.6367C370.242 66.586 409.631 57.3781 409.218 65.1773C409.184 66.0363 388.321 66.0707 388.699 68.0291C389.249 70.8464 403.341 77.3745 407.053 77.718C414.649 78.4396 421.935 72.7705 432.075 77.6493C440.942 81.9097 449.913 90.7054 452.56 100.6C455.653 112.179 448.298 113.657 460.465 113.657C459.64 113.657 470.467 125.132 470.845 124.789C470.432 125.166 457.303 119.635 457.303 122.933C457.303 130.732 475.622 125.063 470.742 138.944C470.02 141.04 464.211 138.085 462.493 142.311C460.809 146.4 460.602 147.774 460.431 151.21C460.156 156.845 468.576 176.291 474.832 184.812C479.816 191.649 482.771 192.714 489.817 195.875C500.885 200.857 498.341 201.476 504.563 192.233C507.003 188.626 503.256 185.087 504.219 182.304C504.734 180.827 509.512 180.861 510.234 177.7C511.162 173.611 510.577 166.946 511.127 165.159C512.468 165.022 513.774 165.159 515.046 165.675C515.561 165.365 522.47 156.123 523.26 156.123C524.326 157.188 524.498 158.425 523.776 159.834C525.082 164.025 540.892 150.007 541.202 149.767C547.217 145.369 546.357 145.094 551.719 142.723C563.715 137.432 577.085 133.034 586.777 127.297L586.88 127.159Z" stroke="#B2B2B2" stroke-miterlimit="10"/>
<path d="M184.193 78.8175C187.63 76.9279 187.595 78.955 190.208 76.1033C190.929 77.4432 191.892 78.577 193.026 79.5734C197.116 79.5734 198.766 70.7778 201.344 70.2624C204.025 69.747 202.134 78.0617 208.012 72.3582C210.246 70.1937 209.73 68.2009 211.93 65.7958C212.549 65.143 199.488 65.5553 197.666 66.1738C192.717 67.8573 183.952 78.8863 184.158 78.7832L184.193 78.8175Z" stroke="#B2B2B2" stroke-miterlimit="10"/>
<path d="M210.349 75.3474C204.437 75.794 213.58 79.6765 213.305 78.7145C210.864 78.7145 208.561 79.4016 206.465 80.7072C205.399 82.219 212.377 81.6693 211.62 81.9441C208.974 82.0816 206.637 82.9405 204.54 84.4523C208.321 89.9839 214.748 84.7615 217.738 82.8374C216.192 83.8338 226.915 86.445 227.637 85.3456C226.606 86.8917 216.535 88.3004 216.707 89.9152C217.257 95.172 236.849 88.1973 239.736 86.926C249.463 82.7 252.315 86.1014 247.744 77.7181C248.122 78.4052 237.261 70.9152 235.542 71.8085C230.456 74.4541 238.533 79.6765 237.433 81.4975C234.546 86.2732 224.716 76.1376 222.413 75.5192C216.467 73.973 215.332 74.9007 210.383 75.2787L210.349 75.3474Z" stroke="#B2B2B2" stroke-miterlimit="10"/>
<path d="M276.478 116.989C283.662 122.349 291.979 102.284 287.477 102.009C286.171 103.143 285.896 104.552 286.652 106.235C287.133 105.17 280.775 103.005 280.912 103.246C279.537 101.116 289.986 99.123 283.215 94.519C278.197 91.0832 278.781 97.4738 278.85 97.4394C279.743 96.9928 263.83 95.6185 268.882 100.154C270.601 100.635 272.319 100.978 274.072 101.184C280.053 106.373 263.658 103.59 265.342 103.28C260.565 104.139 275 115.924 276.478 117.024V116.989Z" stroke="#B2B2B2" stroke-miterlimit="10"/>
<path d="M176.253 113.519C178.281 115.753 180.171 118.055 181.924 120.494C186.221 120.494 190.757 114.206 192.888 112.626C198.457 108.469 206.362 104.38 211.964 99.7417C214.061 98.0238 186.324 90.0528 182.715 91.1866C171.063 94.8285 181.202 92.3548 177.422 98.7454C176.253 100.704 169.998 111.011 170.788 111.973C172.507 112.867 174.328 113.348 176.253 113.485V113.519Z" stroke="#B2B2B2" stroke-miterlimit="10"/>
<path d="M197.46 81.7379C200.657 82.1158 203.819 79.0236 203.647 77.2713C203.475 75.5191 195.879 81.5318 197.46 81.7379Z" stroke="#B2B2B2" stroke-miterlimit="10"/>
<path d="M385.021 120.494C387.152 120.253 388.286 119.085 388.389 116.989C389.18 119.532 375.088 112.145 373.816 111.732C370.688 110.667 372.648 107.816 367.595 106.647C364.124 105.857 358.831 111.011 358.968 111.045C354.259 109.396 356.253 111.354 350.925 111.354C347.007 111.354 353.641 89.9837 336.661 100.222C326.453 106.373 334.943 109.671 335.39 116.199C335.458 117.298 327.759 113.931 328.069 108.984C328.344 104.483 333.981 100.463 333.981 97.6112C333.981 92.3888 315.523 103.967 314.63 108.022C313.427 113.519 321.332 124.514 324.597 120.184C323.772 121.284 315.936 119.154 316.142 121.215C317.276 132.485 357.903 125.441 358.796 127.743C357.662 126.987 356.975 125.922 356.734 124.582C357.284 122.727 371.032 133.103 371.135 133.996C369.554 134.924 368.248 136.161 367.251 137.673C369.864 139.872 372.785 135.474 377.15 140.009C382.065 145.128 381.996 144.063 383.165 151.828C383.406 153.443 398.116 148.702 395.435 155.505C392.686 162.514 388.871 153.752 386.946 154.371C385.09 154.989 379.969 155.161 377.288 155.986C376.841 156.123 378.697 161.036 378.903 160.933C374.779 162.96 368.008 161.139 364.811 163.888C353.125 173.92 377.356 167.839 380.656 168.87C384.059 169.935 404.2 194.673 409.459 187.458C410.765 185.671 400.557 174.608 398.666 175.157C406.4 172.924 417.776 185.705 413.721 172.752C411.899 166.98 398.185 162.514 404.166 155.298C406.675 152.275 417.089 165.056 418.842 165.022C418.945 165.022 429.084 154.268 429.084 154.336C429.016 147.156 400.763 143.273 401.691 136.298C403.444 135.508 405.265 135.061 407.156 134.958C405.884 133.687 404.337 132.828 402.55 132.45C402.069 128.19 407.087 128.396 399.904 128.396C405.094 128.396 392.651 122.727 392.205 122.59C390.727 122.074 385.021 120.459 385.055 120.459L385.021 120.494Z" stroke="#B2B2B2" stroke-miterlimit="10"/>
<path d="M141.986 238.686C138.72 240.575 146.076 249.646 148.035 248.271C148.654 247.859 146.797 235.868 141.986 238.686Z" stroke="#B2B2B2" stroke-miterlimit="10"/>
<path d="M259.327 85.6205C260.565 84.0744 256.681 80.776 255.615 83.4903C254.55 86.2046 258.056 87.2009 259.327 85.6205Z" stroke="#B2B2B2" stroke-miterlimit="10"/>
<path d="M354.775 189.485C356.012 189.279 358.487 184.434 355.29 184.64C352.094 184.846 352.85 189.794 354.775 189.485Z" stroke="#B2B2B2" stroke-miterlimit="10"/>
<path d="M372.442 148.186C382.1 146.4 363.127 139.459 366.255 142.139C368.283 143.857 360.79 150.317 372.442 148.186Z" stroke="#B2B2B2" stroke-miterlimit="10"/>
<path d="M339.239 185.224C342.058 187.148 346.32 181.926 345.942 180.38C345.598 178.834 335.802 182.888 339.239 185.224Z" stroke="#B2B2B2" stroke-miterlimit="10"/>
<path d="M305.281 85.9983C306.896 91.0146 347.282 93.0761 351.956 89.6746C370.654 76.1376 312.396 82.9061 313.186 78.5083C314.114 77.3057 315.18 76.2406 316.417 75.313C317.861 73.4233 284.727 66.7235 287.236 70.6746C294.076 81.36 300.572 71.3274 305.281 85.9983Z" stroke="#B2B2B2" stroke-miterlimit="10"/>
<path d="M264.62 129.392C265.583 128.19 270.12 131.9 270.292 129.186C270.395 127.297 256.853 117.711 255.65 114.653C254.756 112.385 254.79 102.215 254.722 102.146C256.337 100.703 256.165 99.1916 254.206 97.6112C251.113 96.7522 248.501 97.3706 246.438 99.5352C248.294 100.841 249.944 102.387 251.388 104.174C251.388 103.28 242.554 100.085 241.661 101.837C240.423 104.311 245.682 113.381 243.998 114.24C243.689 114.412 232.071 101.184 231.418 104.174C232.621 105.239 233.618 106.476 234.409 107.85C234.305 108.331 227.981 108.056 228.325 108.949C223.651 96.6491 219.835 111.389 215.608 107.403C215.161 106.991 222.86 101.15 213.821 101.116C210.315 101.116 201.413 106.132 200.175 109.087C194.917 121.593 206.706 112.419 211.621 116.199C211.896 116.405 201.206 119.154 201.206 120.665C201.206 127.193 226.469 119.978 226.469 125.51C226.469 126.884 203.716 125.476 204.54 129.186C206.878 139.391 235.818 137.363 241.661 136.539C246.954 135.817 246.266 135.233 251.113 135.268C253.072 135.268 269.261 140.834 267.301 134.237C265.755 129.083 262.043 135.783 260.771 132.278C261.905 131.076 263.177 130.114 264.655 129.358L264.62 129.392Z" stroke="#B2B2B2" stroke-miterlimit="10"/>
<path d="M416.642 262.702C416.986 264.248 427.263 268.886 427.607 266.791C427.95 264.66 416.333 261.396 416.642 262.702Z" stroke="#B2B2B2" stroke-miterlimit="10"/>
<path d="M314.286 63.1502C311.089 61.3979 307.102 65.1086 310.402 66.4485C313.22 67.6167 317.482 64.9024 314.286 63.1502Z" stroke="#B2B2B2" stroke-miterlimit="10"/>
<path d="M286.721 60.6078C307.515 60.6078 282.974 49.0292 281.6 51.2968C280.328 53.3926 284.28 60.6078 286.721 60.6078Z" stroke="#B2B2B2" stroke-miterlimit="10"/>
<path d="M288.852 41.436C289.058 41.539 305.247 49.0291 304.422 46.4866C304.834 47.7922 296.929 49.7163 297.341 50.1629C302.531 55.8664 310.677 59.577 318.033 57.5155C318.514 57.3781 333.293 44.219 332.881 46.4866C332.296 49.7506 321.985 36.0418 321.401 35.6295C321.16 35.4577 298.957 23.6729 296.826 25.2877C297.204 26.5246 298.098 27.2805 299.472 27.5897C299.541 28.7922 294.076 27.8302 293.595 28.8266C294.592 29.6168 295.554 30.407 296.517 31.266C295.451 33.3275 289.23 30.2696 289.471 34.3582C290.811 35.973 292.426 37.1756 294.282 38.0345C294.489 40.2678 282.665 38.0345 288.852 41.4703V41.436Z" stroke="#B2B2B2" stroke-miterlimit="10"/>
<path d="M350.375 97.8175C345.941 108.365 368.42 105.926 368.42 103.624C368.42 100.085 351.647 94.794 350.375 97.8175Z" stroke="#B2B2B2" stroke-miterlimit="10"/>
<path d="M301.053 61.5695C300.71 60.4014 287.305 62.188 289.402 63.9059C292.942 66.8263 301.431 62.7377 301.053 61.5695Z" stroke="#B2B2B2" stroke-miterlimit="10"/>
<path d="M219.56 61.3978C220.454 59.0615 213.717 59.4738 214.267 60.2296C215.505 61.9819 218.701 63.7342 219.56 61.3978Z" stroke="#B2B2B2" stroke-miterlimit="10"/>
<path d="M297.135 82.5279C294.282 80.1916 285.896 85.7919 287.065 86.7883C291.636 90.7051 307.549 91.0831 297.135 82.5279Z" stroke="#B2B2B2" stroke-miterlimit="10"/>
<path d="M256.303 66.9983C257.712 65.0742 250.632 58.8554 250.288 61.7758C249.944 64.6963 254.79 69.0597 256.303 66.9983Z" stroke="#B2B2B2" stroke-miterlimit="10"/>
<path d="M271.872 70.2965C267.679 68.5099 273.66 76.6871 273.007 76.4809C270.979 74.9005 268.779 73.8697 266.304 73.3544C264.792 74.5569 268.47 78.2332 267.267 78.8516C265.376 79.7793 260.736 70.8462 258.09 70.6744C252.453 70.3308 260.083 78.6455 260.358 78.8173C265.067 81.669 268.779 79.4701 273.488 80.7413C272.835 80.5695 278.712 95.6871 284.246 82.3218C288.267 72.5641 276.65 72.3236 271.907 70.2965H271.872Z" stroke="#B2B2B2" stroke-miterlimit="10"/>
<path d="M234.202 60.436C237.227 59.9206 221.657 56.2099 221.657 62.1882C221.657 72.2895 234.236 60.436 234.202 60.436Z" stroke="#B2B2B2" stroke-miterlimit="10"/>
<path d="M225.541 56.7252C226.984 57.3437 237.021 57.2406 237.021 55.1791C237.021 47.6891 220.351 56.0037 220.763 56.3473C222.344 56.6909 223.925 56.8283 225.541 56.7252Z" stroke="#B2B2B2" stroke-miterlimit="10"/>
<path d="M279.296 41.6419C280.534 39.3056 271.838 37.4846 274.003 39.5117C275.241 40.6799 278.059 43.9783 279.296 41.6419Z" stroke="#B2B2B2" stroke-miterlimit="10"/>
<path d="M255.065 50.7471C257.918 49.8194 259.671 50.7127 260.358 53.4614C260.015 54.3203 253.828 54.0455 254 54.6295C254.275 55.4885 288.027 68.4415 270.807 51.3312C268.642 49.201 264.689 47.1739 262.696 46.9333C247.573 45.1811 256.337 49.8194 255.1 50.7471H255.065Z" stroke="#B2B2B2" stroke-miterlimit="10"/>
<path d="M351.956 174.539C352.335 172.512 334.702 160.452 333.74 160.59C332.09 160.83 323.841 171.825 324.907 175.329C325.972 178.799 352.128 173.646 351.956 174.539Z" stroke="#B2B2B2" stroke-miterlimit="10"/>
<path d="M310.23 22.2643C316.589 17.7634 311.33 24.154 311.399 24.2227C312.67 24.2914 313.908 24.4975 315.145 24.8068C308.099 33.0871 328.343 31.7471 328.24 30.201C329.134 43.0509 354.053 25.8719 357.043 28.0021C362.783 32.0907 341.954 36.1106 342.401 36.7977C342.401 36.7977 349.138 42.4668 348.279 42.5355C344.292 42.8447 323.566 28.1051 327.072 41.2299C327.897 44.2878 344.154 50.5066 344.154 53.4614C344.154 53.4614 323.635 47.3456 323.119 56.1757C322.81 61.7417 334.427 55.1793 334.599 55.5229C332.777 51.503 336.386 68.0979 336.386 64.9026C336.386 68.6476 320.473 55.1449 321.126 62.5663C322.569 63.9406 324.15 65.1431 325.8 66.2082C325.8 67.5138 312.121 68.6133 315.317 71.8773C318.995 75.6223 360.583 76.8248 362.68 71.7055C364.673 66.8267 347.11 68.0292 346.285 66.6892C348.76 70.5717 362.027 59.6802 362.955 59.1648C369.554 55.5229 372.304 60.8827 375.809 50.5409C376.875 47.4487 364.364 47.38 364.467 47.2769C371.754 42.1232 381.343 44.2191 387.977 40.8863C391.964 38.8936 415.851 26.559 416.092 24.738C416.367 22.7796 404.887 24.257 404.234 23.9478C409.733 26.3529 429.29 13.3999 429.531 13.4686C427.984 12.9876 405.368 5.2914 404.99 11.0979C405.918 9.72358 407.121 8.7272 408.634 8.04004C404.165 9.82666 381.996 8.62413 378.972 8.79592C368.798 9.34564 358.933 7.45595 349.997 9.92973C348.175 10.4451 306.518 24.0852 305.728 22.5735C307.205 23.3637 308.683 23.2607 310.161 22.2299L310.23 22.2643Z" stroke="#B2B2B2" stroke-miterlimit="10"/>
<path d="M451.459 254.525C450.257 255.28 445.823 257.995 442.97 264.351C442.557 265.279 434.755 273.078 437.917 274.933C445.067 279.125 451.631 268.543 452.422 277.888C452.181 274.796 462.802 279.056 463.249 278.163C463.042 278.575 460.121 270.02 461.53 270.673C463.42 271.532 447.438 260.503 447.679 262.324C447.507 261.018 450.256 255.28 451.494 254.49L451.459 254.525Z" stroke="#B2B2B2" stroke-miterlimit="10"/>
<path d="M4.05555 242.19C6.18654 241.228 7.04581 240.06 6.18654 238.892C5.2929 237.724 2.44013 242.946 4.05555 242.19Z" stroke="#B2B2B2" stroke-miterlimit="10"/>
<path d="M19.0756 233.463C16.6009 232.501 14.0918 236.418 13.7825 236.384C12.6826 236.212 21.4472 234.425 19.0756 233.463Z" stroke="#B2B2B2" stroke-miterlimit="10"/>
<path d="M60.8019 211.955C56.7462 217.074 53.4122 226.866 62.0736 218.174C63.3797 216.868 65.2014 206.423 60.8019 211.955Z" stroke="#B2B2B2" stroke-miterlimit="10"/>
<path d="M7.59585 199.243C5.94606 198.246 4.74308 198.693 4.05566 200.583C5.53361 202.266 7.38963 202.884 9.62372 202.438C15.6042 200.239 7.56148 198.899 7.59585 199.243Z" stroke="#B2B2B2" stroke-miterlimit="10"/>
<path d="M688.996 317.537C688.687 315.338 684.665 318.19 685.524 318.843C687.277 320.148 689.305 319.736 688.996 317.537Z" stroke="#B2B2B2" stroke-miterlimit="10"/>
<path d="M778.738 339.526C778.601 338.083 767.293 339.595 767.533 339.664C766.09 339.389 779.047 343.272 778.738 339.526Z" stroke="#B2B2B2" stroke-miterlimit="10"/>
<path d="M808.606 341.141C809.534 339.836 810.496 338.599 811.527 337.396C811.493 337.259 802.935 339.698 802.488 340.592C800.907 343.546 808.95 343.168 808.606 341.141Z" stroke="#B2B2B2" stroke-miterlimit="10"/>
<path d="M614.686 171.069C627.3 170.381 615.442 151.278 609.427 154.783C608.053 155.573 599.254 160.486 597.673 160.005C597.123 158.734 596.195 158.013 594.854 157.841C586.983 167.117 595.129 155.161 584.337 155.161C582.068 155.161 585.471 158.356 584.887 158.287C582.721 158.047 579.387 157.394 578.872 161.517C578.631 163.304 587.843 162.891 587.533 162.548C587.258 162.273 586.64 165.846 586.915 165.64C586.674 165.812 579.525 165.949 580.144 167.255C580.35 167.702 586.64 167.908 587.774 169.179C589.767 171.481 585.608 174.367 585.162 173.886C592.723 182.166 606.575 171.515 614.686 171.034V171.069Z" stroke="#B2B2B2" stroke-miterlimit="10"/>
<path d="M638.093 252.704C648.576 252.704 651.463 245.145 650.432 237.208C650.088 234.46 655.725 234.013 649.401 230.611C648.679 230.233 641.152 231.883 641.152 232.364C640.946 237.964 641.564 233.016 635.549 236.315C635.378 236.418 635.515 252.738 638.093 252.738V252.704Z" stroke="#B2B2B2" stroke-miterlimit="10"/>
<path d="M670.264 200.273C671.261 199.174 672.429 194.982 670.917 195.429C669.37 195.875 669.817 200.754 670.264 200.273Z" stroke="#B2B2B2" stroke-miterlimit="10"/>
<path d="M650.122 210.409C649.366 209.584 646.273 214.326 647.476 214.291C649.057 214.223 650.878 211.268 650.122 210.409Z" stroke="#B2B2B2" stroke-miterlimit="10"/>
<path d="M649.091 216.215C652.941 212.848 649.332 229.168 649.332 227.072C649.332 224.152 654.384 228.515 653.8 228.618C654.934 227.725 655.69 226.557 656.103 225.183C657.856 225.492 654.934 232.192 654.969 232.604C655.278 235.249 661.705 230.989 662.083 231.642C666.277 238.96 658.715 242.018 658.99 246.862C656.515 247.618 655.072 249.096 654.694 251.329C655.587 252.119 664.524 252.703 664.558 252.738C664.764 253.94 650.672 256.826 654.109 261.465C653.972 261.293 679.475 255.899 680.987 254.353C682.122 253.184 678.375 253.803 678.513 252.703C679.166 247.618 683.153 249.989 680.987 244.423C681.159 244.904 676.897 241.984 676.038 240.575C673.22 235.765 670.401 225.423 663.493 225.938C663.493 225.938 667.926 218.551 667.48 217.383C665.52 212.436 661.877 218.07 659.128 214.772C658.2 213.673 664.799 209.275 662.874 207.454C661.465 206.148 649.435 215.94 649.16 216.181L649.091 216.215Z" stroke="#B2B2B2" stroke-miterlimit="10"/>
<path d="M721.339 232.158C720.583 231.986 731.341 229.237 726.219 225.767C721.854 222.778 720.892 232.054 721.339 232.158Z" stroke="#B2B2B2" stroke-miterlimit="10"/>
<path d="M749.935 213.879C747.701 213.948 746.636 218.758 747.22 219.582C747.701 220.235 752.169 213.845 749.935 213.879Z" stroke="#B2B2B2" stroke-miterlimit="10"/>
<path d="M762.411 212.608C763.993 211.921 765.367 210.924 766.536 209.619C769.423 206.458 757.978 212.848 762.411 212.608Z" stroke="#B2B2B2" stroke-miterlimit="10"/>
<path d="M765.78 206.904C766.261 205.942 762.377 206.355 763.236 207.248C763.889 207.901 765.299 207.901 765.78 206.904Z" stroke="#B2B2B2" stroke-miterlimit="10"/>
<path d="M748.457 38.8246C751.826 41.6763 758.356 38.3779 762.515 40.9548C762.343 40.8517 754.163 43.9783 754.197 44.047C756.191 49.3038 785.475 46.6238 783.447 38.5153C783.206 37.519 764.405 34.9078 765.162 34.6329C763.959 35.9385 763.718 37.3472 764.44 38.8933C762.893 40.0271 755.332 33.8083 753.647 34.0488C753.269 34.1175 751.585 36.4882 751.07 37.5533C750.038 36.7974 749.042 36.0416 748.079 35.217C744.608 35.217 747.942 38.4123 748.423 38.7902L748.457 38.8246Z" stroke="#B2B2B2" stroke-miterlimit="10"/>
<path d="M723.985 46.6583C718.005 45.2839 727.148 55.9349 728.557 56.7595C731.306 58.34 733.541 51.6058 735.568 50.8156C737.871 49.9223 734.709 54.5263 736.634 54.3545C737.974 53.5299 739.384 52.9458 740.862 52.5679C742.58 55.2478 728.282 60.4358 730.275 60.9169C733.884 61.8102 737.768 59.5082 741.48 60.4015C741.343 60.4015 730.585 63.1501 730.516 63.906C730.172 67.4105 736.84 67.2731 738.387 67.8915C738.043 68.7505 737.39 69.3002 736.428 69.5407C735.534 70.7433 741.411 71.3617 742.339 70.812C743.577 70.0905 747.289 62.9783 748.561 61.3292C749.248 60.4015 754.954 46.8301 758.494 52.3961C757.566 50.8843 759.937 64.2839 758.666 64.0091C760.178 64.3183 773.651 66.5859 773.101 60.3328C773.376 63.5624 759.112 49.9223 759.387 50.1284C754.954 46.4865 748.32 45.9024 745.192 45.1122C747.048 45.5588 742.271 39.1682 739.968 38.4123C736.668 37.3129 740.724 50.1971 740.93 49.1664C743.955 35.9386 731.719 46.3147 731.822 46.2803C731.891 46.246 728.557 43.1194 728.11 43.085C729.175 42.5009 730.275 42.0199 731.478 41.7451C730.482 42.2604 708.725 43.1537 723.951 46.6926L723.985 46.6583Z" stroke="#B2B2B2" stroke-miterlimit="10"/>
<path d="M720.342 54.5262C721.201 55.3508 722.164 56.038 723.16 56.6564C721.854 56.7939 720.411 49.8879 717.867 50.6438C717.627 52.4991 718.452 53.8047 720.342 54.5262Z" stroke="#B2B2B2" stroke-miterlimit="10"/>
<path d="M1429.99 177.253C1428.1 177.185 1426.45 177.734 1425.05 178.937C1425.84 179.899 1437.32 182.579 1437.32 179.968C1435.22 178.181 1432.78 177.288 1429.99 177.253Z" stroke="#B2B2B2" stroke-miterlimit="10"/>
<path d="M1235.52 298.949C1234.94 294.998 1226.11 311.868 1230.54 309.429C1229.79 309.841 1234.22 306.92 1234.12 307.573C1233.36 306.474 1232.57 305.409 1231.74 304.344C1231.68 305.271 1257.18 305.065 1255.91 294.002C1256.59 299.98 1234.63 290.085 1237.24 288.367C1237.45 288.23 1235.42 298.297 1235.49 298.915L1235.52 298.949Z" stroke="#B2B2B2" stroke-miterlimit="10"/>
<path d="M1188.51 353.338C1189.78 355.881 1190.95 349.799 1191.6 352.823C1191.7 353.27 1189.91 362.374 1192.84 361.722C1195.24 361.206 1199.57 352.514 1195.83 350.933C1195.04 350.59 1185.27 346.913 1188.47 353.304L1188.51 353.338Z" stroke="#B2B2B2" stroke-miterlimit="10"/>
<path d="M1202.53 352.308C1203.39 348.494 1208.65 353.029 1208.65 347.016C1208.65 343.821 1202.29 347.085 1202.08 347.566C1201.26 349.49 1201.67 356.053 1202.53 352.308Z" stroke="#B2B2B2" stroke-miterlimit="10"/>
<path d="M1211.26 339.252C1211.26 339.252 1191.84 340.111 1193.35 346.948C1193.56 347.841 1209.71 345.436 1210.85 345.161C1207.2 345.986 1214.32 347.738 1215.14 347.669C1217.89 347.463 1215.8 343.684 1216.31 343.34C1219.37 341.451 1228.69 345.024 1231.88 340.695C1234.39 337.293 1240.06 313.895 1235.66 311.353C1230.13 308.192 1227.38 325.955 1224.8 329.597C1222.77 332.449 1211.84 333.239 1211.26 339.252Z" stroke="#B2B2B2" stroke-miterlimit="10"/>
<path d="M1110.97 419.477C1111.79 417.794 1112.51 416.076 1113.1 414.324C1112.62 412.537 1102.65 413.877 1104.64 417.725C1104.88 418.172 1110.45 425.971 1110.97 419.477Z" stroke="#B2B2B2" stroke-miterlimit="10"/>
<path d="M1152.31 403.845C1154.24 402.367 1158.78 392.506 1157.26 390.273C1152.14 382.818 1147.95 407.177 1152.31 403.845Z" stroke="#B2B2B2" stroke-miterlimit="10"/>
<path d="M1148.67 430.85C1145.96 439.817 1175 451.843 1168.98 458.749C1178.64 447.651 1157.92 443.15 1155.79 438.099C1153.48 432.637 1163.24 425.799 1155.85 421.47C1150.77 418.481 1148.81 430.472 1148.67 430.884V430.85Z" stroke="#B2B2B2" stroke-miterlimit="10"/>
<path d="M1143.62 458.989C1141.49 461.085 1139.8 463.524 1138.53 466.239C1138.05 465.277 1148.74 458.508 1146.78 454.213C1145.03 455.244 1144 456.825 1143.58 458.989H1143.62Z" stroke="#B2B2B2" stroke-miterlimit="10"/>
<path d="M1150.9 444.009C1151.25 445.83 1152.07 449.575 1154.69 448.648C1157.26 447.754 1150.66 442.704 1150.9 444.009Z" stroke="#B2B2B2" stroke-miterlimit="10"/>
<path d="M1167.54 459.505C1166.61 458.199 1164.24 460.604 1164.58 461.566C1165.06 462.872 1168.47 460.776 1167.54 459.505Z" stroke="#B2B2B2" stroke-miterlimit="10"/>
<path d="M1171.42 461.704C1171.42 461.704 1154.24 472.836 1157.16 472.561C1160.25 472.286 1161.25 468.232 1164.21 470.327C1166.78 472.148 1165.37 479.157 1171.05 479.157C1166.78 479.157 1175.55 470.087 1175.17 471.667C1176.68 465.345 1170.94 460.879 1171.39 461.704H1171.42Z" stroke="#B2B2B2" stroke-miterlimit="10"/>
<path d="M1157.26 450.606C1155.75 452.702 1155.82 454.66 1157.5 456.55C1164.89 454.935 1154.89 462.184 1160.56 463.524C1165.51 464.693 1165.86 448.716 1157.26 450.606Z" stroke="#B2B2B2" stroke-miterlimit="10"/>
<path d="M1258.97 533.409C1262.16 533.615 1248.83 522.346 1245.73 520.594C1238.86 516.711 1225.56 510.63 1218.68 511.042C1216.69 511.179 1213.91 517.295 1211.47 516.849C1206.59 515.955 1209.37 510.733 1205.9 509.29C1202.91 508.053 1202.91 504.72 1197.48 505.51C1196.58 505.648 1191.46 509.702 1193.25 510.114C1194.25 510.321 1204.63 516.127 1204.69 514.306C1204.69 515.131 1198.3 515.096 1197.75 515.199C1194.9 515.715 1208.58 522.415 1209.4 522.861C1215.45 525.816 1219.82 525.198 1223.32 531.313C1226.66 537.154 1218.41 537.12 1219.85 539.903C1222.43 544.988 1241.47 540.487 1243.5 540.487C1249.07 540.556 1248.96 540.315 1255.94 543.785C1255.77 543.682 1273.02 552.409 1271.17 549.351C1270.41 548.08 1255.49 533.203 1259 533.443L1258.97 533.409Z" stroke="#B2B2B2" stroke-miterlimit="10"/>
<path d="M994.518 460.432C991.974 460.742 991.905 475.619 994.861 476.821C1003.14 480.154 1001.12 459.608 994.518 460.432Z" stroke="#B2B2B2" stroke-miterlimit="10"/>
<path d="M886.559 447.857C887.865 449.369 890.477 447.617 890.615 446.998C890.752 446.414 885.081 446.174 886.559 447.857Z" stroke="#B2B2B2" stroke-miterlimit="10"/>
<path d="M867.483 34.7707C865.936 35.1143 864.699 35.9045 863.702 37.107C865.352 40.749 880.647 33.4651 880.716 32.4343C880.956 27.6586 868.377 33.3964 867.483 34.805V34.7707Z" stroke="#B2B2B2" stroke-miterlimit="10"/>
<path d="M889.515 36.8663C889.515 34.8048 883.397 37.0724 884.565 37.5191C885.631 37.897 889.515 38.9278 889.515 36.8663Z" stroke="#B2B2B2" stroke-miterlimit="10"/>
<path d="M861.812 33.7399C863.977 32.7779 866.211 32.2969 868.514 32.3313C869.305 30.2011 854.869 32.3313 855.316 33.4994C857.206 35.5266 859.372 35.5953 861.812 33.7743V33.7399Z" stroke="#B2B2B2" stroke-miterlimit="10"/>
<path d="M867.827 136.951C871.264 140.421 873.361 135.371 875.148 134.649C877.588 133.653 861.503 130.526 867.827 136.951Z" stroke="#B2B2B2" stroke-miterlimit="10"/>
<path d="M893.158 97.9549C892.436 97.9205 879.857 112.213 879.719 112.935C879.651 113.313 886.525 118.982 886.078 119.291C885.494 118.054 885.7 117.161 886.765 116.611C886.112 116.44 903.813 131.385 904.569 122.864C904.776 120.597 896.802 115.684 896.458 112.523C896.08 108.949 899.586 106.029 900.926 103.109C902.232 100.188 906.907 94.416 908.934 92.5263C914.193 87.6818 952.207 71.7397 950.523 70.2966C946.502 66.8265 912.578 77.9241 907.044 81.3599C903.951 83.284 893.227 97.9549 893.124 97.9549H893.158Z" stroke="#B2B2B2" stroke-miterlimit="10"/>
<path d="M1265.22 89.812C1268.86 90.6366 1272.06 89.9494 1274.78 87.7505C1275.6 78.8174 1236.32 87.7505 1265.22 89.812Z" stroke="#B2B2B2" stroke-miterlimit="10"/>
<path d="M1235.04 94.3473C1235.04 92.4232 1228.62 95.0688 1231.26 96.0308C1232.67 96.5462 1235.04 96.2713 1235.04 94.3473Z" stroke="#B2B2B2" stroke-miterlimit="10"/>
<path d="M1067.83 59.7145C1070.2 61.1919 1091.37 57.6531 1092.1 53.5301C1092.82 49.3384 1079.83 48.1702 1080.24 51.3999C1077.9 32.8122 1070.89 61.6386 1067.83 59.7145Z" stroke="#B2B2B2" stroke-miterlimit="10"/>
<path d="M1049.54 41.5048C1048.34 42.6043 1047.45 43.9099 1046.83 45.3873C1052.78 51.0564 1067.21 55.4542 1068.45 45.456C1069.51 36.8321 1049.54 39.2372 1049.54 41.5048Z" stroke="#B2B2B2" stroke-miterlimit="10"/>
<path d="M1043.32 37.8971C1047.17 39.6837 1039.96 39.8555 1039.51 40.096C1037.45 41.1268 1047.17 40.577 1048.93 39.8555C1050.27 39.3058 1063.53 35.3546 1061.2 32.4342C1051.64 20.5807 1041.5 37.0382 1043.36 37.8971H1043.32Z" stroke="#B2B2B2" stroke-miterlimit="10"/>
<path d="M1118.73 92.0111C1116.02 97.9894 1123.51 93.7633 1123.58 92.8013C1122.24 90.9803 1120.62 90.7398 1118.73 92.0111Z" stroke="#B2B2B2" stroke-miterlimit="10"/>
<path d="M892.23 32.0563C894.155 34.1522 905.635 34.3927 906.15 30.6477C906.322 29.3764 896.595 27.6585 895.976 27.7616C897.661 27.4867 893.261 33.1902 892.23 32.0563Z" stroke="#B2B2B2" stroke-miterlimit="10"/>
<path d="M1040.26 28.7232C1040.75 26.7992 1032.91 27.6238 1034.97 29.5135C1035.69 30.1663 1039.82 30.6817 1040.26 28.7232Z" stroke="#B2B2B2" stroke-miterlimit="10"/>
<path d="M1392.74 122.246C1393.25 122.658 1403.67 121.937 1401.6 119.497C1396.72 113.691 1386.28 121.971 1387.07 122.383C1388.96 122.28 1390.85 122.246 1392.74 122.246Z" stroke="#B2B2B2" stroke-miterlimit="10"/>
<path d="M1219.85 86.3073C1223.84 88.5062 1227.93 89.8118 1232.71 88.8842C1235.77 88.3001 1244.01 83.5243 1240.89 82.3905C1242.36 82.9059 1246.66 92.7666 1249.2 85.1735C1251.3 78.8173 1245.32 80.329 1239.89 78.5768C1239.41 78.4393 1229.75 78.1988 1229.68 78.1988C1231.19 77.8896 1210.78 81.3598 1219.85 86.3417V86.3073Z" stroke="#B2B2B2" stroke-miterlimit="10"/>
<path d="M1244.5 102.868C1250.75 101.356 1228.31 93.8664 1232.71 100.807C1234.12 103.04 1242.4 103.384 1244.5 102.868Z" stroke="#B2B2B2" stroke-miterlimit="10"/>
<path d="M785.578 196.253C778.772 198.109 766.983 202.678 760.831 196.494C759.284 194.948 758.081 182.338 759.765 179.143C760.453 177.837 787.812 151.966 765.608 159.284C760.831 160.865 756.672 171.241 754.129 174.814C750.967 179.212 746.155 179.83 744.642 185.98C741.996 196.734 750.176 193.264 750.245 200.582C750.279 206.148 741.549 211.955 740.724 219.308C741.618 220.063 742.339 219.72 742.889 218.277C741.515 218.655 732.922 231.195 728.797 229.649C727.972 229.34 719.174 202.025 718.074 202.713C716.218 203.812 714.499 208.966 711.268 209.687C713.64 209.172 693.396 214.601 698.036 207.557C698.379 207.007 701.163 205.702 700.682 204.465C699.995 202.644 696.317 206.252 696.317 204.534C696.317 204.19 696.833 200.514 697.004 200.376C696.695 200.617 703.535 202.85 702.16 198.143C701.713 196.563 695.733 199.62 697.211 190.447C697.039 191.615 703.707 176.429 706.353 182.235C705.357 181.96 704.669 181.376 704.222 180.483C706.697 176.772 709.103 180.62 709.584 175.673C709.825 173.268 712.574 177.082 712.884 176.841C716.974 173.474 717.043 171.584 721.958 169.66C723.401 169.076 719.139 166.224 719.861 165.915C728.522 162.136 731.272 146.915 740.518 143.17C740.552 143.136 741.068 139.769 741.068 139.769C737.803 136.711 730.757 144.579 727.698 144.407C728.591 144.441 739.555 133.859 739.555 133.893C739.212 135.096 738.902 136.299 738.627 137.501C738.352 137.261 745.33 137.295 745.33 137.192C745.948 133.893 742.03 135.405 741.927 134.718C741.755 133.756 750.004 127.64 750.314 127.503C754.369 125.751 753.751 128.877 756.706 130.801C758.322 131.832 756.844 126.3 756.638 126.438C756.397 126.61 762 128.705 761.896 128.259C760.934 127.743 760.178 127.022 759.662 126.06C761.175 125.854 762.687 125.922 764.165 126.232C763.924 125.098 763.374 124.101 762.515 123.242C762.412 121.799 768.427 121.971 768.221 121.112C767.739 119.291 762.928 129.049 766.743 127.881C763.856 128.774 773.754 121.456 771.761 123.139C771.726 123.139 778.051 116.096 778.635 119.772C778.669 119.944 772.586 127.022 774.648 126.61C776.538 124.548 778.463 122.487 780.354 120.459C781.35 119.807 780.388 124.651 780.972 124.651C782.553 124.651 784.994 114.447 787.881 119.944C788.018 120.15 785.853 124.479 787.262 124.514C785.509 124.445 799.704 117.23 798.226 125.338C798.054 126.266 791.112 128.156 790.871 127.194C792.177 132.21 796.611 127.64 798.467 129.667C799.223 130.423 805.994 127.159 806.372 130.389C805.479 131.007 804.482 131.351 803.416 131.42C805.754 128.499 833.388 140.181 836 144.854C849.576 169.179 805.169 148.049 802.11 149.561C806.475 147.396 817.165 170.931 819.124 172.478C827.029 178.731 825.551 166.327 821.014 168.87C819.089 166.809 819.502 165.159 822.251 163.888C823.764 164.884 825.276 165.846 826.788 166.843C827.957 165.915 835.381 170.45 835.69 168.183C837.546 154.818 837.581 162.892 846.93 155.402C847.445 154.989 856.828 155.573 848.717 149.733C851.982 152.069 847.755 138.429 847.926 139.15C847.308 136.539 864.562 140.971 861.159 145.06C860.231 146.159 849.404 146.194 856.45 150.935C863.909 155.986 863.05 148.393 867.14 146.606C870.096 145.335 891.234 138.463 891.096 136.848C891.337 139.356 889.171 140.318 887.865 141.384C886.628 142.414 902.851 139.7 902.713 139.7C912.784 138.772 908.247 139.185 912.612 140.971C923.748 145.472 912.234 124.479 910.206 125.648C917.837 121.25 942.962 143.308 949.148 142.243C957.982 140.799 942.721 130.939 942.79 131.076C943.408 132.657 943.924 119.772 943.718 122.487C944.439 112.695 958.428 96.8899 966.815 110.736C966.712 110.564 965.921 127.915 966.231 129.564C967.33 135.302 969.839 139.322 968.327 144.338C965.956 152.309 951.76 154.13 951.898 153.718C950.936 156.467 961.59 157.051 962.759 156.776C967.09 155.78 971.352 150.042 974.445 146.091C977.126 142.724 970.355 138.669 977.47 137.432C982.488 136.573 981.251 139.837 985.031 141.452C979.463 139.082 992.215 153.89 990.324 147.774C986.784 136.058 976.232 140.112 970.561 132.416C968.43 129.53 971.421 104.174 976.782 105.96C982.007 107.747 975.304 115.787 977.779 118.57C977.917 118.742 990.428 121.284 990.359 121.353C991.287 120.253 979.566 116.302 980.838 113.794C982.419 110.667 985.856 113.931 988.125 113.313C989.259 112.969 984.103 109.396 984.481 109.018C988.846 104.724 1003.66 117.642 1005.93 114.481C1011.6 106.648 982.075 104.655 1011.7 98.4016C1013.8 97.955 1021.22 98.6078 1022.5 97.4396C1024.66 95.4812 1019.85 92.7669 1019.92 92.6638C1020.91 92.6638 1021.91 92.5951 1022.91 92.4577C1022.84 92.0797 1018.54 90.0526 1018.96 89.606C1020.09 89.709 1021.22 89.8121 1022.36 89.8121C1024.28 87.2009 1021.98 87.4071 1026.48 85.3112C1027.86 84.6928 1046.93 78.1647 1047.1 79.6078C1046.07 79.2986 1045.28 78.7145 1044.7 77.7868C1044.8 77.615 1057.11 74.8664 1057.55 75.3474C1057.14 76.1376 1056.76 76.9622 1056.42 77.7868C1056.97 77.9929 1068.48 75.4505 1068.07 76.8248C1067.14 76.172 1066.28 75.4504 1065.49 74.6259C1065.84 80.6042 1075.46 67.8573 1073.43 69.3347C1077.39 66.4486 1088.28 57.3438 1092.96 64.4902C1094.36 66.6548 1088.11 67.7199 1087.22 68.0635C1088.52 67.5481 1098.87 70.3655 1098.87 69.5409C1097.73 70.7778 1096.77 72.1177 1095.98 73.5951C1103.27 75.4505 1109.49 69.2316 1117.74 73.1485C1124.2 76.2063 1122.27 78.8519 1122.96 81.9441C1125.37 92.3203 1096.15 95.0002 1092.27 104.964C1092.65 103.968 1110.69 101.082 1110.48 99.1919C1109.66 98.9857 1108.87 98.7452 1108.08 98.4703C1106.81 96.9586 1121.04 96.7181 1122.07 96.8899C1124.2 97.2678 1122.51 102.49 1123.92 102.353C1129.39 101.837 1136.23 97.7488 1144.96 100.016C1146.09 100.326 1143.48 101.631 1143.79 102.696C1144.37 104.655 1161.25 105.376 1163 105.067C1164.17 104.861 1164.86 97.8519 1168.16 97.1647C1172.66 96.2027 1193.7 108.709 1187.68 112.248C1186.17 112.317 1184.76 112.042 1183.42 111.389C1185.83 111.217 1189.43 122.521 1194.18 122.796C1197.37 123.002 1199.37 113.794 1201.19 114.206C1202.63 114.516 1223.7 118.432 1223.7 118.535C1222.84 118.192 1222.09 117.676 1221.43 117.024C1222.7 116.062 1230.34 117.47 1230.3 116.955C1230.51 119.738 1228 110.496 1230.13 111.664C1229.06 112.145 1228 112.145 1226.93 111.595C1223.63 107.025 1257.04 103.109 1255.91 109.774C1255.74 110.805 1248.31 108.743 1249.65 110.942C1251.2 111.252 1252.68 111.733 1254.12 112.42C1253.12 113.21 1252.09 113.897 1250.99 114.55C1251.16 113.931 1266.63 106.648 1270.45 113.004C1272.16 115.856 1265.67 113.794 1266.25 115.512C1268.21 121.387 1287.63 121.112 1291.58 121.422C1304.58 122.452 1303.58 123.517 1310.52 129.427C1310.49 129.393 1318.39 136.23 1316.67 137.054C1318.63 136.092 1316.09 131.832 1320.9 132.279C1322.62 132.45 1329.94 133.447 1332 133.138C1334.24 132.794 1349.57 128.705 1349.19 131.626C1348.74 135.233 1346.03 131.66 1344.65 132.279C1342.9 133.103 1350.6 139.906 1352.21 138.91C1355.72 136.745 1353.18 131.11 1352.8 131.282C1357.09 129.29 1369.23 129.015 1376.31 130.561C1389.09 133.309 1411.85 145.507 1415.25 156.639C1415.87 158.7 1414.29 147.637 1414.01 151.863C1414.25 148.083 1432.54 159.044 1432.4 158.975C1434.5 159.799 1425.25 162.96 1426.59 162.136C1426.25 162.342 1428.86 163.888 1427.73 163.888C1426.25 163.544 1424.74 163.201 1423.26 162.857L1423.5 162.96C1424.26 163.544 1420.61 169.248 1420.51 169.42C1421.33 170.073 1421.92 170.863 1422.26 171.825C1417.86 176.085 1394.7 159.422 1397.51 157.875C1392.53 160.59 1396.38 163.441 1393.56 165.091C1391.6 166.224 1378.13 171.516 1377.3 168.767C1379.47 175.879 1395.04 175.295 1385.04 184.846C1383.8 186.049 1368.4 190 1364.9 192.027C1360.98 194.295 1356.13 200.686 1352.83 201.579C1353.49 201.407 1334.58 195.326 1336.23 201.957C1336.61 200.514 1336.33 199.242 1335.41 198.143C1334.44 198.143 1325.85 202.919 1324.82 204.156C1317.88 212.47 1322.79 211.646 1324.3 216.147C1323.62 214.12 1321.69 228.069 1324.2 225.595C1324 225.836 1297.29 256.724 1298.05 257.582C1293.1 252.154 1292.48 231.917 1294.54 225.458C1297.77 215.322 1301.41 216.215 1308.84 209.79C1314.54 204.877 1331.32 190.893 1331.94 184.881C1332.35 180.758 1312.41 198.28 1311.66 196.563C1311.83 196.941 1311.52 188.385 1312.41 189.004C1305.3 184.125 1285.88 199.174 1291.58 205.599C1292.41 206.492 1274.33 209 1275.88 207.729C1276.87 207.591 1277.84 207.282 1278.76 206.801C1279.66 205.29 1253.29 204.671 1250.34 205.083C1238.45 206.767 1234.01 212.986 1225.28 221.129C1222.53 223.671 1212.08 230.611 1211.5 234.185C1211.88 231.814 1221.81 239.167 1218.1 240.025C1217.86 240.094 1221.36 236.487 1221.23 237.002C1221.12 237.346 1220.54 242.156 1221.23 242.121C1227.14 241.743 1228.31 232.707 1234.53 242.568C1237.73 247.619 1233.98 254.696 1232.54 260.537C1229.75 271.807 1226.11 279.297 1218.61 288.745C1215.38 292.799 1211.09 299.396 1206.04 301.526C1200.64 303.828 1199.95 298.159 1195.04 302.076C1191.84 304.584 1186.31 311.868 1184.9 315.338C1181.01 324.89 1182.15 314.479 1183.69 325.062C1184.42 330.078 1191.5 334.785 1187.96 340.385C1187.61 340.901 1176.58 346.467 1175.72 345.127C1173.66 341.863 1177.82 334.716 1177.16 332.552C1176.3 329.803 1171.63 328.91 1171.6 328.807C1172.56 330.731 1166.13 319.702 1170.87 322.76C1160.6 316.163 1167.44 324.546 1154.69 323.79C1153.76 323.722 1158.33 313.792 1157.92 313.449C1156.16 311.937 1140.11 322.931 1139.97 324.375C1139.94 324.581 1147.4 331.555 1148.19 331.968C1143.24 329.563 1165.92 327.845 1159.67 332.689C1155.65 335.781 1147.74 335.884 1146.78 342.55C1146.71 343.031 1157.5 357.702 1156.89 358.389C1157.92 357.221 1151.25 357.736 1151.11 357.736C1159.15 357.736 1154.75 367.528 1152.83 366.154C1153.79 366.875 1157.13 366.532 1158.23 366.875C1157.06 366.532 1147.3 388.177 1145.16 390.789C1141.76 394.98 1108.49 411.507 1109.21 412.262C1105.5 408.414 1108.42 404.291 1100.04 407.555C1087.97 412.262 1094.91 422.054 1098.45 428.823C1105.54 442.326 1110.21 445.384 1097.9 457.1C1097.49 457.512 1089.38 465.277 1088.66 464.796C1089.11 465.105 1083.26 454.969 1082.75 454.385C1081.34 452.805 1073.64 442.669 1070.24 443.837C1058.72 447.754 1071.51 469.297 1074.5 473.248C1076.87 476.34 1091 494.928 1085.81 497.573C1078.62 501.25 1063.84 470.774 1062.71 466.445C1060.75 458.955 1062.95 449.06 1060.96 440.608C1054.84 414.908 1056.87 438.752 1047.96 431.331C1043.7 427.792 1044.77 405.46 1036.69 401.027C1033.12 399.069 1018.16 412.778 1015.9 415.045C1003.32 427.517 997.783 430.713 994.655 447.308C983.416 506.781 967.365 405.425 964.134 403.776C967.674 405.563 947.258 417.45 950.214 402.986C952.276 402.883 954.132 402.196 955.747 400.924C955.747 404.601 941.93 391.476 942.79 391.888C937.222 389.174 935.675 389.243 928.285 389.036C921.342 388.83 914.159 389.895 907.25 387.696C904.81 386.906 902.542 383.367 901.888 383.195C900.376 382.749 894.499 383.092 893.296 382.543C887.521 379.966 870.749 364.47 867.93 365.982C863.256 368.525 872.158 387.112 875.732 389.792C875.801 389.827 877.004 384.948 878.688 385.463C882.332 386.563 876.179 394.224 882.332 394.774C889.927 395.461 894.739 383.883 898.589 384.226C896.664 384.02 911.822 401.921 912.131 403.982C912.475 406.25 902.61 417.897 901.717 418.825C893.433 427.483 879.238 434.595 866.968 439.955C860.128 442.91 850.401 447.857 845.864 442.91C842.496 439.268 842.977 428.514 840.743 423.669C835.897 413.156 829.538 404.257 824.657 394.156C822.904 390.548 814.518 371.651 811.803 370.002C811.356 372.201 810.565 374.262 809.397 376.186C806.613 376.186 803.76 364.436 802.729 364.814C803.348 364.573 821.22 413.602 822.458 417.107C825.345 425.25 832.253 431.262 837.203 437.275C840.399 441.158 845.967 452.358 845.624 452.152M785.578 196.253C786.128 195.326 786.815 194.329 787.468 193.608C786.781 194.329 786.128 195.326 785.578 196.253ZM785.578 196.253C786.678 195.944 792.246 198.074 793.243 199.277C794.72 201.029 774.201 203.262 775.095 202.85C761.896 209.172 774.648 208.931 771.314 212.711C767.361 218.998 766.571 214.223 764.921 215.563C764.371 216.009 754.61 216.765 758.219 224.049C761.759 231.986 754.747 233.91 750.348 235.525C750.726 235.387 738.868 236.658 736.015 237.036C729.829 237.827 733.094 238.686 730.103 234.356C728.832 232.535 721.58 239.338 720.239 238.342C719.964 237.346 719.93 236.384 720.205 235.387C718.521 234.906 713.262 235.25 713.846 230.852C713.949 230.027 718.383 233.257 718.727 231.23C719.414 227.45 716.561 229.959 715.496 228.275C714.98 227.45 720.377 218.311 717.558 215.219C715.668 213.123 712.506 220.235 712.506 220.27C710.512 222.297 708.519 218.655 708.209 227.107C708.106 229.856 713.434 236.006 712.093 238.651C711.096 240.678 699.72 242.774 697.623 244.148C694.77 245.969 691.024 250.745 687.003 254.799C685.318 256.517 681.366 261.259 679.75 261.98C676.52 263.458 669.852 262.599 668.786 263.183C666.449 264.488 670.951 268.062 668.855 269.848C666.724 271.669 660.537 266.103 659.059 268.818C655.141 276.101 661.018 270.57 664.455 276.101C669.199 283.695 676.554 292.731 665.555 298.331C660.434 300.942 647.889 294.174 643.73 296.441C635.893 300.702 642.011 300.324 640.327 307.608C636.89 322.45 637.268 328.635 649.435 332.586C657.959 335.369 666.964 333.617 674.079 324.1C679.716 316.541 683.084 303.45 691.677 298.091C689.718 299.293 709.619 295.857 708.003 295.754C716.527 296.201 711.2 294.964 718.486 300.633C718.246 300.461 746.636 326.436 738.559 326.436C743.096 326.436 741.515 314.96 742.03 314.686C744.024 314.411 745.708 314.995 747.117 316.403C744.127 315.476 715.874 285.344 729.622 285.962C731.513 286.031 746.292 302.729 751.001 305.409M751.001 305.409C751.07 305.031 751.173 304.653 751.31 304.309M751.001 305.409C746.395 302.695 763.34 331.246 763.34 324.615C763.34 318.74 755.675 339.183 765.712 333.651C765.712 332.139 765.505 330.696 764.99 329.253C765.918 329.46 766.846 329.425 767.774 329.116C769.217 327.329 764.749 327.57 765.643 326.608C766.708 325.474 771.348 328.36 770.695 324.546C769.87 319.908 767.361 324.649 765.677 322.691C766.227 323.309 764.955 313.449 764.131 313.792C765.712 314.273 767.327 314.582 768.977 314.72C771.623 313.517 785.818 313.655 789.256 310.185C788.362 311.078 783.584 302.592 783.894 300.942C784.341 298.606 789.634 291.734 790.699 290.223C792.315 287.921 793.071 282.629 796.473 281.049C798.604 280.053 808.091 280.431 808.606 283.317C806.991 284.657 805.238 285.722 803.313 286.546C803.141 285.55 807.61 292.044 807.506 291.906C807.266 291.597 819.708 288.676 819.88 288.436C820.602 287.199 808.744 287.886 814.449 281.805C815.79 280.396 829.091 275.414 830.019 277.441C830.226 277.922 820.67 286.924 821.014 288.47C822.286 294.449 840.537 297.678 839.952 304.206C839.128 313.002 828.644 309.91 822.492 309.807C819.88 309.772 817.783 306.852 815.24 306.68C806.819 306.165 801.904 308.089 793.964 310.322C783.791 313.174 772.483 318.431 784.306 330.456C789.84 336.091 795.236 333.754 801.526 333.823C803.554 333.823 816.133 331.109 817.818 332.208C819.708 333.411 814.174 348.15 813.487 349.731M813.487 349.731C814.174 350.04 814.862 350.384 815.584 350.693H815.515C815.48 351.105 815.412 351.517 815.377 351.964C815.412 351.517 815.48 351.105 815.515 350.658L813.487 349.731ZM813.487 349.731C807.335 364.402 795.374 361.378 779.907 358.492C775.782 357.736 772.517 355.743 768.427 355.194C761.793 354.3 765.23 348.872 756.466 353.476C753.579 354.988 754.404 360.863 754.094 361C748.87 363.096 726.357 355.434 720.583 349.456C714.671 343.34 724.604 338.427 720.205 332.208C717.524 328.429 699.239 331.796 694.014 332.38C686.556 333.205 681.916 335.403 675.213 337.293C668.82 339.114 663.63 338.564 657.65 340.145C652.597 341.485 654.66 339.355 650.192 341.725C654.9 339.252 640.121 352.72 641.908 349.834C639.674 353.407 637.921 357.393 635.825 361C634.209 363.818 634.622 367.494 631.941 371.548C630.188 374.194 626.648 374.537 624.654 376.633C619.533 382.062 614.515 390.205 611.696 397.42C608.259 406.147 610.287 407.521 610.012 415.148C609.737 422.226 607.503 429.751 607.744 436.794C607.984 444.49 611.49 447.548 615.202 453.595C623.657 467.304 633.659 479.982 649.813 481.563C658.578 482.422 667.068 480.12 675.145 478.024C676.21 477.749 687.037 471.667 688.171 473.145C688.79 473.832 696.386 477.611 697.348 478.092C698.757 478.78 698.207 482.215 700.063 483.074C701.644 483.796 703.982 481.116 705.494 482.078C714.087 487.507 710.753 482.799 715.152 492.695C715.977 494.859 713.468 501.868 713.502 502.968C713.674 511.866 717.043 513.172 722.233 522.208C726.495 529.63 731.925 544.197 730.791 552.649C729.554 561.754 722.886 569.622 722.473 579.552C721.82 586.252 731.341 601.988 732.819 608.962C735.465 621.469 739.315 629.096 743.508 640.984C749.179 657.098 744.333 660.602 762.412 658.369C779.838 656.239 789.737 650.776 798.845 633.46C799.979 631.295 802.316 619.167 802.076 619.545C808.194 610.543 812.009 615.422 813.728 603.705C814.931 595.356 809.74 595.391 814.243 587.42C817.886 580.995 827.82 579.998 831.703 574.226C839.712 562.201 831.428 548.939 829.126 536.742C826.685 523.72 833.319 514.34 842.255 504.651C845.967 500.631 890.099 454.145 876.385 449.06C866.899 445.555 856.416 459.058 845.624 452.152M845.624 452.152C845.624 452.152 845.589 452.221 845.555 452.221C845.555 452.221 845.589 452.152 845.624 452.152Z" stroke="#B2B2B2" stroke-miterlimit="10"/>
<path d="M924.883 32.7091C928.491 27.6585 909.175 30.4415 913.575 34.2552C915.637 36.0418 923.233 35.0454 924.883 32.7091Z" stroke="#B2B2B2" stroke-miterlimit="10"/>
<path d="M904.707 35.1826C902.92 35.9384 901.098 36.6256 899.242 37.2097C896.836 39.924 911.409 39.4773 912.372 36.3507C912.956 34.4611 904.535 34.6672 904.707 35.1826Z" stroke="#B2B2B2" stroke-miterlimit="10"/>
<path d="M904.123 28.2079C905.085 28.2079 911.615 25.5967 911.409 25.3562C909.897 23.2603 899.139 27.349 898.933 26.6618C900.376 27.933 902.095 28.4484 904.123 28.2079Z" stroke="#B2B2B2" stroke-miterlimit="10"/>
<path d="M1239.06 255.555C1241.57 261.74 1234.12 279.64 1238 284.622C1235.35 281.221 1243.95 285 1244.01 285C1243.98 285 1240.58 274.727 1240.78 274.28C1243.91 267.306 1247.04 270.57 1248.07 269.195C1249.96 266.653 1238.93 238.582 1240.47 237.586C1236.14 240.438 1237.76 252.291 1239.06 255.555Z" stroke="#B2B2B2" stroke-miterlimit="10"/>
<path d="M956.228 103.899C958.462 104.071 960.49 103.555 962.346 102.353C964.924 97.4395 950.935 103.005 956.228 103.899Z" stroke="#B2B2B2" stroke-miterlimit="10"/>
<path d="M993.693 104.414C993.452 102.353 989.121 105.033 990.634 105.823C992.524 106.854 993.933 106.476 993.693 104.414Z" stroke="#B2B2B2" stroke-miterlimit="10"/>
<path d="M933.475 32.0562C934.678 31.4378 935.846 30.8193 937.049 30.1665C938.218 26.2153 926.429 31.0942 926.876 31.6439C929.007 32.6059 931.206 32.709 933.475 32.0218V32.0562Z" stroke="#B2B2B2" stroke-miterlimit="10"/>
<path d="M361.958 389.723C359.724 385.566 362.44 398.004 363.471 395.702C363.471 395.702 361.408 388.658 361.958 389.723Z" stroke="#B2B2B2" stroke-miterlimit="10"/>
<path d="M427.16 458.233C430.116 458.852 431.044 457.89 429.978 455.279C427.916 453.355 426.163 457.237 427.16 458.233Z" stroke="#B2B2B2" stroke-miterlimit="10"/>
<path d="M1104.13 500.46C1113.03 509.564 1108.7 517.398 1123.37 518.188C1135.57 518.807 1136.26 509.083 1144.2 499.188C1143.69 499.841 1138.94 488.709 1139.01 487.644C1139.25 482.903 1144.89 483.59 1145.85 480.463C1146.85 477.234 1134.51 475.069 1133.89 475.206C1129.9 476.065 1131.93 483.109 1125.09 482.559C1124.89 482.525 1113.17 495.993 1113.1 496.096C1113.99 494 1097.94 494.138 1104.13 500.494V500.46Z" stroke="#B2B2B2" stroke-miterlimit="10"/>
<path d="M1057.59 496.989C1057.35 498.295 1058.65 502.04 1060.06 500.494C1061.47 498.948 1057.83 495.752 1057.59 496.989Z" stroke="#B2B2B2" stroke-miterlimit="10"/>
<path d="M1063.36 508.087C1063.12 508.74 1064.43 511.316 1065.25 510.526C1066.08 509.736 1064.12 506.025 1063.36 508.087Z" stroke="#B2B2B2" stroke-miterlimit="10"/>
<path d="M1092.68 522.414C1092.34 516.986 1095.4 518.429 1095.36 514.924C1095.36 513.412 1090.41 508.774 1090.31 511.591C1091.27 512.519 1092.1 513.55 1092.78 514.684C1091.75 517.26 1079.65 498.844 1079.04 498.157C1076.22 494.996 1051.81 476.168 1050.71 478.779C1049.92 480.6 1069.51 508.705 1072.06 512.244C1074.84 516.161 1093.78 539.696 1092.68 522.448V522.414Z" stroke="#B2B2B2" stroke-miterlimit="10"/>
<path d="M1144.06 514.684C1143.48 515.714 1151.49 527.396 1148.19 528.77C1151.28 527.499 1148.53 514.546 1151.59 516.058C1157.37 518.91 1150.94 526.95 1158.74 520.868C1154.62 524.063 1158.95 499.497 1162.07 506.438C1162.49 507.365 1144.51 512.107 1148.98 504.754C1153.89 496.714 1164.82 505.922 1169.12 496.989C1166.51 502.349 1155.82 495.787 1152.28 498.192C1146.71 501.937 1147.12 509.221 1144.03 514.684H1144.06Z" stroke="#B2B2B2" stroke-miterlimit="10"/>
<path d="M1181.8 497.367C1181.8 488.675 1174.62 506.575 1181.22 505.235C1185.72 504.342 1181.8 497.195 1181.8 497.367Z" stroke="#B2B2B2" stroke-miterlimit="10"/>
<path d="M708.278 311.731C707.212 313.792 709.653 325.371 714.155 319.667C717.867 314.96 711.096 306.371 708.278 311.731Z" stroke="#B2B2B2" stroke-miterlimit="10"/>
<path d="M733.953 325.611C734.778 325.405 724.879 324.718 725.772 327.363C726.116 328.394 733.403 332.861 734.434 332.929C734.228 332.929 736.805 326.504 737.149 325.886C736.324 325.027 735.259 324.958 733.953 325.646V325.611Z" stroke="#B2B2B2" stroke-miterlimit="10"/>
</g>
</svg>
